<svg xmlns="http://www.w3.org/2000/svg" width="960" height="800"><defs><clipPath id="a"><path transform="translate(960 4258)" fill="#08243b" d="M0 0h960v800H0z"/></clipPath></defs><g transform="translate(-960 -4258)" clip-path="url(#a)"><g transform="translate(320.002 4416.375)"><ellipse cx="119.825" cy="120.451" rx="119.825" ry="120.451" transform="translate(1081.138)" fill="#ff5833"/><path d="M178.709 428.208c158.343-52.166 474.3-146.6 658.572-200.9s236.873-68.466 271.712-77.734 51.92-13.645 62.283-15.884 14.009-2.344 17.862-1.979a29.3 29.3 0 0111.821 3.385c3.906 2.187 7.655 5.729 26.507 31.142s52.8 72.7 72.9 100.194 26.35 35.2 31.192 39.577 8.281 5.416 12.551 6.093 9.374.988 17.809-.418 20.206-4.531 79.311-20.883 165.548-45.931 218.77-59.783 53.221-11.977 52.075 21.56-3.438 98.737-5.1 131.962-2.708 34.473-279.471 75.495S598.26 581.848 320.257 621.774 38.749 660.758 36.249 648.781s-3.987-34.991-6.71-61.6-6.679-56.813-8.293-76.863-.884-29.945 157.459-82.11z" fill="#0d346b" fill-rule="evenodd"/><path fill="#26489e" d="M-.002 412.131h1801.951v347.45H-.002z"/></g></g></svg>