<svg xmlns="http://www.w3.org/2000/svg" width="271" height="350"><defs><clipPath id="a"><path data-name="Прямоугольник 668" transform="translate(1371 1230)" fill="#abc5ff" d="M0 0h271v350H0z"/></clipPath></defs><g data-name="Группа масок 51" transform="translate(-1371 -1230)" clip-path="url(#a)"><path data-name="Path 2115" d="M1657.968 1766.508v-188.866l-259.826-35.014v188.05c-.252 3.11 1.906 6.457 6.378 9.038l139.867 80.583c7.75 4.474 19.475 4.962 26.187 1.086l82.9-47.862c3.226-1.857 4.686-4.386 4.494-7.015z" fill="#bdc1c6"/><path data-name="Path 2116" d="M1657.966 1766.508v-187.127a1.847 1.847 0 00-1.846-1.849l-15.283-.01-82.421 36.418v210.02c4.54.109 8.925-.719 12.149-2.582l82.9-47.858c2.853-1.645 4.327-3.817 4.5-6.108v-.829c0-.026-.01-.048-.013-.074z" fill="#dadce0"/><path data-name="Path 2117" d="M1653.47 1584.54l-82.9 47.861c-6.711 3.875-18.437 3.388-26.186-1.083l-139.906-79.588c-7.749-4.475-8.591-11.245-1.88-15.118l82.895-47.86c6.712-3.875 18.437-3.388 26.187 1.083l139.905 79.588c7.75 4.476 8.592 11.242 1.881 15.117z" fill="#e8eaed"/><path data-name="Контур 10178" d="M1521.959 1553.504c9.286-5.358 21.483-7.913 33.629-7.721 12.091.191 24.14 3.108 33.227 8.679 9.028 5.535 13.447 12.657 13.342 19.666-.1 6.98-4.7 13.9-13.758 19.128s-20.931 7.81-32.81 7.744c-11.934-.065-23.954-2.8-33.211-8.2-9.317-5.443-14.078-12.562-14.188-19.671-.107-7.137 4.478-14.267 13.765-19.625z" fill="#5786ed" fill-rule="evenodd"/><path data-name="Контур 10179" d="M1521.767 1549.139c9.286-5.358 21.483-7.913 33.629-7.721 12.091.191 24.14 3.108 33.227 8.679 9.028 5.535 13.447 12.657 13.342 19.666-.1 6.98-4.7 13.9-13.758 19.128s-20.931 7.809-32.81 7.744c-11.934-.065-23.954-2.8-33.211-8.2-9.317-5.443-14.078-12.561-14.186-19.671-.107-7.137 4.478-14.267 13.765-19.625z" fill="#88a4e2" fill-rule="evenodd"/><path data-name="Контур 10180" d="M1553.128 1459.547l34.78 20.246v84.875l-34.78-20.4z" fill="#5786ed" fill-rule="evenodd"/><path data-name="Контур 10181" d="M1587.943 1479.366l4.32 12.483v74.9l-4.32 2.494z" fill="#5786ed" fill-rule="evenodd"/><path data-name="Контур 10182" d="M1553.119 1464.097l34.824 20.271v84.875l-34.824-20.426z" fill="#abc5ff" fill-rule="evenodd"/><path data-name="Контур 10183" d="M1594.698 1496.86l-.05-.03c-.082-.031-.166-.058-.247-.093l-65.778-37.893a13.714 13.714 0 01-6.158-11.5l.047-170.413a6.347 6.347 0 01.129-.9c.872-6.318 8.4-9.842 14.155-6.524l.1.061c.066.035.129.062.2.1l65.715 37.917a13.5 13.5 0 016.047 11.316l-.125 169.81a5.611 5.611 0 01-.087.929 9.29 9.29 0 01-13.942 7.216z" fill="#2950af"/><path data-name="Контур 10184" d="M1593.214 1326.666s8.185-2.459 10.884-5.8a7.672 7.672 0 001.235-7.167 13.476 13.476 0 00-4.546-5.081l-65.715-37.914c-.066-.036-.132-.063-.2-.1l-.1-.059a9.513 9.513 0 00-6.857-1.016c-.023.012-.046.019-.069.03a8.665 8.665 0 00-4.871 6.548 5.858 5.858 0 00-.121.826l-.046 170.409a13.4 13.4 0 00.315 2.82 13.549 13.549 0 007.847 8.771l1.424.62a.775.775 0 00.178-.359l60.642-132.528zm1.313 170.491l.136-.236-.141.227-.093-.035a2.556 2.556 0 01-.2-.08l-65.795-37.9a14.014 14.014 0 01-6.314-11.788l.051-170.435a6.308 6.308 0 01.131-.919 9.338 9.338 0 015.244-7.048 10.021 10.021 0 019.43.278l.155.086c.041.023.086.041.131.068l65.732 37.924a13.8 13.8 0 016.2 11.6l-.126 169.812a5.419 5.419 0 01-.087.947 9.331 9.331 0 01-4.988 7.633 9.69 9.69 0 01-9.466-.14z" fill="#5786ed"/><path data-name="Контур 10185" d="M1607.328 1344.138a2.772 2.772 0 00-1.342 2.111l-.009 7.664a.716.716 0 00.368.7l-1.206-.57-.115-.056a.723.723 0 01-.45-.74l.011-7.664a2.779 2.779 0 011.342-2.112.988.988 0 01.854-.186l.07.026h.009a.2.2 0 01.036.018l1.379.647a1.086 1.086 0 00-.947.155z" fill="#2950af"/><path data-name="Контур 10186" d="M1604.859 1353.592a.658.658 0 01-.077-.345l.008-7.664a2.6 2.6 0 011.241-1.935c.318-.184.515-.234.678-.171l.072.027.7.327a1.962 1.962 0 00-.252.125 2.955 2.955 0 00-1.445 2.289l-.011 7.664a1.186 1.186 0 00.018.213l-.678-.32a.5.5 0 01-.253-.209zm3.5-9.8l-1.51-.7a1.189 1.189 0 00-1.027.2 2.97 2.97 0 00-1.447 2.289v7.668a.919.919 0 00.575.931l1.31.623.177-.37a.536.536 0 01-.25-.519l.009-7.664a2.6 2.6 0 011.24-1.935.921.921 0 01.765-.141l.166-.376z" fill="#5786ed"/><path data-name="Контур 10187" d="M1608.659 1352.363l.009-7.663c0-.741-.6-.994-1.34-.567a2.772 2.772 0 00-1.342 2.111l-.009 7.664c0 .74.6.993 1.338.568a2.782 2.782 0 001.343-2.113z" fill="#abc5ff"/><path data-name="Контур 10188" d="M1606.263 1354.274a.742.742 0 01-.08-.365l.009-7.664a2.6 2.6 0 011.24-1.935.863.863 0 01.808-.12.566.566 0 01.225.511l-.011 7.664a2.6 2.6 0 01-1.237 1.935.85.85 0 01-.81.121.406.406 0 01-.141-.146zm2.473-10.144a.779.779 0 00-.291-.3 1.223 1.223 0 00-1.218.121 2.955 2.955 0 00-1.445 2.289l-.011 7.664a.941.941 0 00.429.866 1.227 1.227 0 001.219-.121 2.963 2.963 0 001.445-2.288l.008-7.664a1.121 1.121 0 00-.136-.571z" fill="#5786ed"/><path data-name="Контур 10189" d="M1607.267 1363.188a2.778 2.778 0 00-1.342 2.113l-.011 26.955a.725.725 0 00.367.706l-1.2-.572-.115-.056a.722.722 0 01-.448-.74l.009-26.955a2.783 2.783 0 011.343-2.113.991.991 0 01.853-.186l.071.025h.007l.038.018 1.378.647a1.091 1.091 0 00-.946.154z" fill="#2950af"/><path data-name="Контур 10190" d="M1604.793 1391.941a.683.683 0 01-.078-.345l.01-26.957a2.593 2.593 0 011.238-1.935c.321-.184.516-.234.681-.173l.071.027.7.329a1.84 1.84 0 00-.25.125 2.96 2.96 0 00-1.446 2.287l-.009 26.957a1.291 1.291 0 00.016.215l-.675-.322a.5.5 0 01-.255-.208zm3.5-29.093l-1.51-.7a1.2 1.2 0 00-1.029.2 2.972 2.972 0 00-1.445 2.289l-.01 26.957a.923.923 0 00.577.931l1.308.622.176-.371a.535.535 0 01-.249-.519l.009-26.957a2.593 2.593 0 011.24-1.935.911.911 0 01.763-.141l.168-.377z" fill="#5786ed"/><path data-name="Контур 10191" d="M1608.592 1390.712l.011-26.957c0-.74-.6-.993-1.34-.568a2.778 2.778 0 00-1.342 2.113l-.011 26.955c0 .74.6 1 1.34.568a2.778 2.778 0 001.342-2.111z" fill="#abc5ff"/><path data-name="Контур 10192" d="M1606.203 1392.622a.717.717 0 01-.08-.365l.009-26.957a2.593 2.593 0 011.24-1.935.858.858 0 01.808-.121.564.564 0 01.222.511l-.009 26.957a2.591 2.591 0 01-1.24 1.933.848.848 0 01-.808.122.378.378 0 01-.142-.145zm2.473-29.438a.8.8 0 00-.293-.293 1.219 1.219 0 00-1.217.121 2.96 2.96 0 00-1.446 2.287l-.017 26.956a.941.941 0 00.428.867 1.228 1.228 0 001.218-.12 2.966 2.966 0 001.446-2.29l.009-26.957a1.145 1.145 0 00-.136-.572z" fill="#5786ed"/><path data-name="Контур 10193" d="M1523.504 1276.243l-.048 170.412a13.718 13.718 0 006.16 11.5l65.777 37.89c3.838 1.706 8.449-.192 8.469-4.53l.125-169.81a13.5 13.5 0 00-6.051-11.316l-65.71-37.915c-4.779-2.681-8.451-.254-8.722 3.769z" fill="#abc5ff"/><path data-name="Контур 10194" d="M1544.754 1310.875l50.466 29.342a9.457 9.457 0 014.236 7.93l-.17 140.246a3.826 3.826 0 01-5.935 3.174l-63.431-36.837a9.6 9.6 0 01-4.315-8.058l.115-140.67c.189-2.82 2.762-4.52 6.111-2.644l12.926 7.516z" fill="#ff5833" opacity=".422"/><path data-name="Контур 10195" d="M1543.723 1287.264l39.585 23.057a9.457 9.457 0 014.236 7.93l-.166 7.049a3.826 3.826 0 01-5.935 3.174l-39.61-23.081a9.6 9.6 0 01-4.315-8.058l.117-7.467c.189-2.82 2.762-4.52 6.111-2.644l-.023.04z" fill="#2950af"/><path data-name="Контур 10196" d="M1534.907 1338.43l55.247 32.202v25.868l-55.247-32.134z" fill="#fff" opacity=".748"/><path data-name="Контур 10197" d="M1534.907 1372.43l55.247 32.202v25.868l-55.247-32.134z" fill="#fff" opacity=".748"/><path data-name="Контур 10198" d="M1563.699 1422.485l26.455 15.147v25.868l-26.455-15.078z" fill="#fff" opacity=".748"/></g></svg>