<svg xmlns="http://www.w3.org/2000/svg" xmlns:xlink="http://www.w3.org/1999/xlink" width="271" height="350" viewBox="0 0 271 350">
  <defs>
    <clipPath id="clip-path">
      <rect id="Прямоугольник_669" data-name="Прямоугольник 669" width="271" height="350" transform="translate(1371 1580)" fill="#ff5833"/>
    </clipPath>
    <clipPath id="clip-path-2">
      <path id="Контур_10252" data-name="Контур 10252" d="M824.841,618.346a19.208,19.208,0,0,1,.063-3.809c.208-1.226.721-2.022,7.2-5.939s18.933-10.951,25.665-14.67,7.749-4.119,8.647-4.03a2.681,2.681,0,0,1,2.081,1.438,4.839,4.839,0,0,1,.4,2.364c-.026.628-.106.924-7.451,5.2S839.5,611.417,832.2,615.443s-7.306,3.829-7.356,2.9Z" transform="translate(-824.776 -589.887)" clip-rule="evenodd"/>
    </clipPath>
  </defs>
  <g id="Группа_масок_52" data-name="Группа масок 52" transform="translate(-1371 -1580)" clip-path="url(#clip-path)">
    <path id="Path_2115" data-name="Path 2115" d="M5009.954,4010.479l.005-279.1-294.213-.178V4009.1c-.373,4.6,2.817,9.541,9.425,13.355l116.939,67.517c11.453,6.611,28.78,7.332,38.7,1.6l122.5-70.729C5008.08,4018.1,5010.237,4014.364,5009.954,4010.479Z" transform="translate(-3314.695 -1904.212)" fill="#bdc1c6"/>
    <path id="Path_2116" data-name="Path 2116" d="M5705.79,4010.479l.006-276.53a2.729,2.729,0,0,0-2.727-2.733l-22.585-.015-121.8,53.817v310.36c6.709.162,13.189-1.062,17.954-3.815l122.5-70.723c4.215-2.431,6.394-5.642,6.651-9.026v-1.225c-.006-.038-.015-.072-.019-.109Z" transform="translate(-4010.533 -1904.212)" fill="#dadce0"/>
    <path id="Path_2117" data-name="Path 2117" d="M5003.208,3339.77l-122.5,70.727c-9.917,5.727-27.245,5.006-38.7-1.6l-116.942-67.519c-11.451-6.613-12.7-16.617-2.778-22.341l122.5-70.725c9.919-5.727,27.245-5.007,38.7,1.6l116.94,67.52c11.453,6.614,12.7,16.614,2.78,22.34Z" transform="translate(-3314.596 -1502.411)" fill="#e8eaed"/>
    <path id="Path_1267" data-name="Path 1267" d="M4387.857,1528.457a.621.621,0,0,0,0,1.173,2.24,2.24,0,0,0,2.034,0,.622.622,0,0,0,0-1.173A2.25,2.25,0,0,0,4387.857,1528.457Z" transform="translate(-2821.605 354.058)" fill="#bdc1c6"/>
    <path id="Path_1268" data-name="Path 1268" d="M4354.229,1509.036a.618.618,0,0,0,0,1.172,2.24,2.24,0,0,0,2.034,0,.622.622,0,0,0,0-1.172A2.238,2.238,0,0,0,4354.229,1509.036Z" transform="translate(-2793.289 370.413)" fill="#bdc1c6"/>
    <path id="Path_1269" data-name="Path 1269" d="M4320.556,1489.61a.621.621,0,0,0,0,1.173,2.249,2.249,0,0,0,2.033,0,.622.622,0,0,0,0-1.173,2.241,2.241,0,0,0-2.034,0Z" transform="translate(-2764.937 386.771)" fill="#bdc1c6"/>
    <path id="Path_1270" data-name="Path 1270" d="M4286.926,1470.192a.622.622,0,0,0,0,1.174,2.248,2.248,0,0,0,2.035,0,.622.622,0,0,0,0-1.174A2.254,2.254,0,0,0,4286.926,1470.192Z" transform="translate(-2736.62 403.121)" fill="#bdc1c6"/>
    <path id="Path_1271" data-name="Path 1271" d="M4455.117,1528.457a.622.622,0,0,0,0,1.173,2.24,2.24,0,0,0,2.034,0,.622.622,0,0,0,0-1.173A2.25,2.25,0,0,0,4455.117,1528.457Z" transform="translate(-2878.241 354.058)" fill="#bdc1c6"/>
    <path id="Path_1272" data-name="Path 1272" d="M4421.489,1509.036a.618.618,0,0,0,0,1.172,2.238,2.238,0,0,0,2.033,0,.618.618,0,0,0,0-1.172,2.238,2.238,0,0,0-2.034,0Z" transform="translate(-2849.924 370.413)" fill="#bdc1c6"/>
    <path id="Path_1273" data-name="Path 1273" d="M4387.857,1489.61a.622.622,0,0,0,0,1.173,2.251,2.251,0,0,0,2.034,0,.622.622,0,0,0,0-1.173,2.24,2.24,0,0,0-2.034,0Z" transform="translate(-2821.605 386.771)" fill="#bdc1c6"/>
    <path id="Path_1274" data-name="Path 1274" d="M4354.228,1470.192a.622.622,0,0,0,0,1.174,2.245,2.245,0,0,0,2.034,0,.622.622,0,0,0,0-1.174A2.25,2.25,0,0,0,4354.228,1470.192Z" transform="translate(-2793.289 403.12)" fill="#bdc1c6"/>
    <path id="Path_1275" data-name="Path 1275" d="M4320.556,1450.767a.621.621,0,0,0,0,1.172,2.243,2.243,0,0,0,2.033,0,.621.621,0,0,0,0-1.173,2.243,2.243,0,0,0-2.032,0Z" transform="translate(-2764.937 419.475)" fill="#bdc1c6"/>
    <path id="Path_1276" data-name="Path 1276" d="M4488.791,1509.036a.618.618,0,0,0,0,1.172,2.239,2.239,0,0,0,2.032,0,.621.621,0,0,0,0-1.172,2.239,2.239,0,0,0-2.032,0Z" transform="translate(-2906.595 370.413)" fill="#bdc1c6"/>
    <path id="Path_1277" data-name="Path 1277" d="M4455.117,1489.61a.622.622,0,0,0,0,1.173,2.252,2.252,0,0,0,2.034,0,.622.622,0,0,0,0-1.173,2.243,2.243,0,0,0-2.036,0Z" transform="translate(-2878.242 386.771)" fill="#bdc1c6"/>
    <path id="Path_1278" data-name="Path 1278" d="M4421.487,1470.192a.622.622,0,0,0,0,1.174,2.242,2.242,0,0,0,2.034,0,.622.622,0,0,0,0-1.174,2.25,2.25,0,0,0-2.034,0Z" transform="translate(-2849.922 403.12)" fill="#bdc1c6"/>
    <path id="Path_1279" data-name="Path 1279" d="M4387.857,1450.767a.621.621,0,0,0,0,1.172,2.244,2.244,0,0,0,2.033,0,.622.622,0,0,0,0-1.173A2.244,2.244,0,0,0,4387.857,1450.767Z" transform="translate(-2821.606 419.475)" fill="#bdc1c6"/>
    <path id="Path_1280" data-name="Path 1280" d="M4354.228,1431.345a.622.622,0,0,0,0,1.173,2.252,2.252,0,0,0,2.034,0,.622.622,0,0,0,0-1.173A2.243,2.243,0,0,0,4354.228,1431.345Z" transform="translate(-2793.288 435.833)" fill="#bdc1c6"/>
    <path id="Path_1281" data-name="Path 1281" d="M4522.461,1489.61a.622.622,0,0,0,0,1.173,2.249,2.249,0,0,0,2.033,0,.621.621,0,0,0,0-1.173,2.242,2.242,0,0,0-2.034,0Z" transform="translate(-2934.909 386.771)" fill="#bdc1c6"/>
    <path id="Path_1282" data-name="Path 1282" d="M4488.79,1470.192a.622.622,0,0,0,0,1.174,2.241,2.241,0,0,0,2.031,0,.622.622,0,0,0,0-1.174,2.246,2.246,0,0,0-2.03,0Z" transform="translate(-2906.595 403.121)" fill="#bdc1c6"/>
    <path id="Path_1283" data-name="Path 1283" d="M4455.117,1450.767a.622.622,0,0,0,0,1.172,2.245,2.245,0,0,0,2.034,0,.622.622,0,0,0,0-1.173A2.246,2.246,0,0,0,4455.117,1450.767Z" transform="translate(-2878.241 419.475)" fill="#bdc1c6"/>
    <path id="Path_1284" data-name="Path 1284" d="M4421.487,1431.345a.622.622,0,0,0,0,1.173,2.251,2.251,0,0,0,2.034,0,.622.622,0,0,0,0-1.173,2.243,2.243,0,0,0-2.035,0Z" transform="translate(-2849.922 435.833)" fill="#bdc1c6"/>
    <path id="Path_1285" data-name="Path 1285" d="M4387.858,1411.923a.622.622,0,0,0,0,1.174,2.244,2.244,0,0,0,2.033,0,.622.622,0,0,0,0-1.174,2.251,2.251,0,0,0-2.034,0Z" transform="translate(-2821.607 452.186)" fill="#bdc1c6"/>
    <path id="Path_1286" data-name="Path 1286" d="M4522.714,1450.564a.622.622,0,0,0,0,1.173,2.244,2.244,0,0,0,2.034,0,.622.622,0,0,0,0-1.173A2.252,2.252,0,0,0,4522.714,1450.564Z" transform="translate(-2935.164 419.648)" fill="#bdc1c6"/>
    <path id="Path_1287" data-name="Path 1287" d="M4489.086,1431.143a.618.618,0,0,0,0,1.172,2.244,2.244,0,0,0,2.032,0,.618.618,0,0,0,0-1.172A2.238,2.238,0,0,0,4489.086,1431.143Z" transform="translate(-2906.848 436.004)" fill="#bdc1c6"/>
    <path id="Path_1288" data-name="Path 1288" d="M4455.413,1411.717a.622.622,0,0,0,0,1.173,2.255,2.255,0,0,0,2.035,0,.622.622,0,0,0,0-1.173,2.24,2.24,0,0,0-2.034,0Z" transform="translate(-2878.493 452.36)" fill="#bdc1c6"/>
    <path id="Path_1289" data-name="Path 1289" d="M4255.289,1451.037a2.242,2.242,0,0,0-2.035,0,.622.622,0,0,0,0,1.173,2.252,2.252,0,0,0,2.034,0,.622.622,0,0,0,0-1.176Z" transform="translate(-2708.227 419.251)" fill="#bdc1c6"/>
    <path id="Path_1290" data-name="Path 1290" d="M4219.557,1431.594a.622.622,0,0,0,0,1.175,2.255,2.255,0,0,0,2.034,0,.622.622,0,0,0,0-1.175,2.251,2.251,0,0,0-2.034,0Z" transform="translate(-2679.873 435.62)" fill="#bdc1c6"/>
    <path id="Path_1291" data-name="Path 1291" d="M4185.91,1412.177a.622.622,0,0,0,0,1.175,2.25,2.25,0,0,0,2.035,0,.622.622,0,0,0,0-1.175,2.261,2.261,0,0,0-2.033,0Z" transform="translate(-2651.541 451.974)" fill="#bdc1c6"/>
    <path id="Path_1292" data-name="Path 1292" d="M4152.275,1392.755a.622.622,0,0,0,0,1.172,2.242,2.242,0,0,0,2.031,0,.622.622,0,0,0,0-1.172A2.244,2.244,0,0,0,4152.275,1392.755Z" transform="translate(-2623.218 468.328)" fill="#bdc1c6"/>
    <path id="Path_1293" data-name="Path 1293" d="M4118.629,1373.33a.622.622,0,0,0,0,1.172,2.246,2.246,0,0,0,2.034,0,.622.622,0,0,0,0-1.172A2.246,2.246,0,0,0,4118.629,1373.33Z" transform="translate(-2594.886 484.686)" fill="#bdc1c6"/>
    <path id="Path_1294" data-name="Path 1294" d="M4084.991,1353.908a.622.622,0,0,0,0,1.173,2.244,2.244,0,0,0,2.034,0,.621.621,0,0,0,0-1.174,2.253,2.253,0,0,0-2.034,0Z" transform="translate(-2566.565 501.037)" fill="#bdc1c6"/>
    <path id="Path_1295" data-name="Path 1295" d="M4051.349,1334.482a.621.621,0,0,0,0,1.173,2.243,2.243,0,0,0,2.033,0,.622.622,0,0,0,0-1.173A2.244,2.244,0,0,0,4051.349,1334.482Z" transform="translate(-2538.232 517.392)" fill="#bdc1c6"/>
    <path id="Path_1296" data-name="Path 1296" d="M4017.71,1315.056a.622.622,0,0,0,0,1.173,2.245,2.245,0,0,0,2.034,0,.622.622,0,0,0,0-1.172,2.245,2.245,0,0,0-2.033,0Z" transform="translate(-2509.911 533.75)" fill="#bdc1c6"/>
    <path id="Path_1297" data-name="Path 1297" d="M3984.068,1295.631a.622.622,0,0,0,0,1.173,2.238,2.238,0,0,0,2.034,0,.622.622,0,0,0,0-1.173,2.243,2.243,0,0,0-2.034,0Z" transform="translate(-2481.58 550.106)" fill="#bdc1c6"/>
    <path id="Path_1298" data-name="Path 1298" d="M3950.426,1276.217a.622.622,0,0,0,0,1.173,2.238,2.238,0,0,0,2.034,0,.622.622,0,0,0,0-1.173A2.261,2.261,0,0,0,3950.426,1276.217Z" transform="translate(-2453.252 566.458)" fill="#bdc1c6"/>
    <path id="Path_1299" data-name="Path 1299" d="M3916.787,1256.791a.621.621,0,0,0,0,1.172,2.236,2.236,0,0,0,2.031,0,.618.618,0,0,0,0-1.172A2.246,2.246,0,0,0,3916.787,1256.791Z" transform="translate(-2424.927 582.813)" fill="#bdc1c6"/>
    <path id="Path_1300" data-name="Path 1300" d="M4288.918,1431.615a2.247,2.247,0,0,0-2.034,0,.622.622,0,0,0,0,1.174,2.25,2.25,0,0,0,2.034,0,.622.622,0,0,0,0-1.174Z" transform="translate(-2736.545 435.607)" fill="#bdc1c6"/>
    <path id="Path_1301" data-name="Path 1301" d="M4253.212,1412.177a.622.622,0,0,0,0,1.174,2.245,2.245,0,0,0,2.034,0,.621.621,0,0,0,0-1.175A2.26,2.26,0,0,0,4253.212,1412.177Z" transform="translate(-2708.19 451.974)" fill="#bdc1c6"/>
    <path id="Path_1302" data-name="Path 1302" d="M4219.557,1392.755a.622.622,0,0,0,0,1.172,2.248,2.248,0,0,0,2.035,0,.622.622,0,0,0,0-1.173A2.248,2.248,0,0,0,4219.557,1392.755Z" transform="translate(-2679.872 468.328)" fill="#bdc1c6"/>
    <path id="Path_1303" data-name="Path 1303" d="M4185.909,1373.329a.622.622,0,0,0,0,1.172,2.248,2.248,0,0,0,2.034,0,.622.622,0,0,0,0-1.172A2.25,2.25,0,0,0,4185.909,1373.329Z" transform="translate(-2651.54 484.686)" fill="#bdc1c6"/>
    <path id="Path_1304" data-name="Path 1304" d="M4152.276,1353.908a.622.622,0,0,0,0,1.173,2.239,2.239,0,0,0,2.031,0,.622.622,0,0,0,0-1.173A2.252,2.252,0,0,0,4152.276,1353.908Z" transform="translate(-2623.219 501.037)" fill="#bdc1c6"/>
    <path id="Path_1305" data-name="Path 1305" d="M4118.629,1334.482a.621.621,0,0,0,0,1.172,2.241,2.241,0,0,0,2.033,0,.622.622,0,0,0,0-1.173A2.248,2.248,0,0,0,4118.629,1334.482Z" transform="translate(-2594.886 517.393)" fill="#bdc1c6"/>
    <path id="Path_1306" data-name="Path 1306" d="M4084.991,1315.056a.622.622,0,0,0,0,1.173,2.244,2.244,0,0,0,2.034,0,.622.622,0,0,0,0-1.172A2.245,2.245,0,0,0,4084.991,1315.056Z" transform="translate(-2566.564 533.749)" fill="#bdc1c6"/>
    <path id="Path_1307" data-name="Path 1307" d="M4051.349,1295.63a.622.622,0,0,0,0,1.173,2.241,2.241,0,0,0,2.034,0,.621.621,0,0,0,0-1.173,2.249,2.249,0,0,0-2.034,0Z" transform="translate(-2538.233 550.106)" fill="#bdc1c6"/>
    <path id="Path_1308" data-name="Path 1308" d="M4017.706,1276.217a.622.622,0,0,0,0,1.173,2.242,2.242,0,0,0,2.034,0,.622.622,0,0,0,0-1.173A2.262,2.262,0,0,0,4017.706,1276.217Z" transform="translate(-2509.903 566.458)" fill="#bdc1c6"/>
    <path id="Path_1309" data-name="Path 1309" d="M3984.068,1256.792a.622.622,0,0,0,0,1.172,2.237,2.237,0,0,0,2.034,0,.621.621,0,0,0,0-1.172A2.247,2.247,0,0,0,3984.068,1256.792Z" transform="translate(-2481.58 582.813)" fill="#bdc1c6"/>
    <path id="Path_1310" data-name="Path 1310" d="M3950.426,1237.37a.622.622,0,0,0,0,1.174,2.253,2.253,0,0,0,2.034,0,.622.622,0,0,0,0-1.174,2.245,2.245,0,0,0-2.034,0Z" transform="translate(-2453.252 599.17)" fill="#bdc1c6"/>
    <path id="Path_1311" data-name="Path 1311" d="M4322.548,1412.194a2.249,2.249,0,0,0-2.033,0,.622.622,0,0,0,0,1.174,2.243,2.243,0,0,0,2.034,0,.622.622,0,0,0,0-1.171Z" transform="translate(-2764.9 451.96)" fill="#bdc1c6"/>
    <path id="Path_1312" data-name="Path 1312" d="M4286.8,1392.755a.622.622,0,0,0,0,1.172,2.246,2.246,0,0,0,2.034,0,.622.622,0,0,0,0-1.173A2.248,2.248,0,0,0,4286.8,1392.755Z" transform="translate(-2736.513 468.328)" fill="#bdc1c6"/>
    <path id="Path_1313" data-name="Path 1313" d="M4253.211,1373.33a.622.622,0,0,0,0,1.172,2.244,2.244,0,0,0,2.034,0,.622.622,0,0,0,0-1.173A2.245,2.245,0,0,0,4253.211,1373.33Z" transform="translate(-2708.189 484.686)" fill="#bdc1c6"/>
    <path id="Path_1314" data-name="Path 1314" d="M4219.557,1353.908a.621.621,0,0,0,0,1.173,2.243,2.243,0,0,0,2.035,0,.621.621,0,0,0,0-1.173,2.254,2.254,0,0,0-2.034,0Z" transform="translate(-2679.872 501.037)" fill="#bdc1c6"/>
    <path id="Path_1315" data-name="Path 1315" d="M4185.909,1334.482a.622.622,0,0,0,0,1.173,2.246,2.246,0,0,0,2.035,0,.622.622,0,0,0,0-1.173,2.248,2.248,0,0,0-2.035,0Z" transform="translate(-2651.54 517.392)" fill="#bdc1c6"/>
    <path id="Path_1316" data-name="Path 1316" d="M4152.275,1315.056a.622.622,0,0,0,0,1.173,2.24,2.24,0,0,0,2.031,0,.622.622,0,0,0,0-1.172,2.243,2.243,0,0,0-2.031,0Z" transform="translate(-2623.218 533.75)" fill="#bdc1c6"/>
    <path id="Path_1317" data-name="Path 1317" d="M4118.629,1295.63a.622.622,0,0,0,0,1.173,2.244,2.244,0,0,0,2.035,0,.622.622,0,0,0,0-1.174A2.249,2.249,0,0,0,4118.629,1295.63Z" transform="translate(-2594.886 550.106)" fill="#bdc1c6"/>
    <path id="Path_1318" data-name="Path 1318" d="M4084.991,1276.217a.622.622,0,0,0,0,1.172,2.24,2.24,0,0,0,2.034,0,.622.622,0,0,0,0-1.172A2.251,2.251,0,0,0,4084.991,1276.217Z" transform="translate(-2566.564 566.455)" fill="#bdc1c6"/>
    <path id="Path_1319" data-name="Path 1319" d="M4051.349,1256.791a.621.621,0,0,0,0,1.173,2.241,2.241,0,0,0,2.033,0,.622.622,0,0,0,0-1.173,2.252,2.252,0,0,0-2.033,0Z" transform="translate(-2538.232 582.813)" fill="#bdc1c6"/>
    <path id="Path_1320" data-name="Path 1320" d="M4017.706,1237.37a.622.622,0,0,0,0,1.174,2.255,2.255,0,0,0,2.034,0,.621.621,0,0,0,0-1.174,2.248,2.248,0,0,0-2.034,0Z" transform="translate(-2509.903 599.17)" fill="#bdc1c6"/>
    <path id="Path_1321" data-name="Path 1321" d="M3984.068,1217.948a.622.622,0,0,0,0,1.174,2.242,2.242,0,0,0,2.034,0,.622.622,0,0,0,0-1.174A2.251,2.251,0,0,0,3984.068,1217.948Z" transform="translate(-2481.581 615.521)" fill="#bdc1c6"/>
    <path id="Path_1322" data-name="Path 1322" d="M4356.219,1392.768a2.244,2.244,0,0,0-2.034,0,.622.622,0,0,0,0,1.172,2.249,2.249,0,0,0,2.034,0,.622.622,0,0,0,0-1.176Z" transform="translate(-2793.217 468.316)" fill="#bdc1c6"/>
    <path id="Path_1323" data-name="Path 1323" d="M4320.472,1373.33a.621.621,0,0,0,0,1.174,2.246,2.246,0,0,0,2.03,0,.621.621,0,0,0,0-1.174A2.239,2.239,0,0,0,4320.472,1373.33Z" transform="translate(-2764.867 484.686)" fill="#bdc1c6"/>
    <path id="Path_1324" data-name="Path 1324" d="M4286.8,1353.908a.622.622,0,0,0,0,1.173,2.244,2.244,0,0,0,2.034,0,.622.622,0,0,0,0-1.173,2.254,2.254,0,0,0-2.034,0Z" transform="translate(-2736.512 501.037)" fill="#bdc1c6"/>
    <path id="Path_1325" data-name="Path 1325" d="M4253.211,1334.482a.622.622,0,0,0,0,1.172,2.241,2.241,0,0,0,2.034,0,.621.621,0,0,0,0-1.172,2.245,2.245,0,0,0-2.034,0Z" transform="translate(-2708.189 517.392)" fill="#bdc1c6"/>
    <path id="Path_1326" data-name="Path 1326" d="M4219.557,1315.056a.622.622,0,0,0,0,1.173,2.244,2.244,0,0,0,2.035,0,.622.622,0,0,0,0-1.172,2.246,2.246,0,0,0-2.033,0Z" transform="translate(-2679.872 533.75)" fill="#bdc1c6"/>
    <path id="Path_1327" data-name="Path 1327" d="M4185.91,1295.63a.622.622,0,0,0,0,1.173,2.244,2.244,0,0,0,2.035,0,.622.622,0,0,0,0-1.173,2.249,2.249,0,0,0-2.034,0Z" transform="translate(-2651.541 550.106)" fill="#bdc1c6"/>
    <path id="Path_1328" data-name="Path 1328" d="M4152.275,1276.217a.622.622,0,0,0,0,1.172,2.237,2.237,0,0,0,2.031,0,.622.622,0,0,0,0-1.172,2.243,2.243,0,0,0-2.03,0Z" transform="translate(-2623.218 566.455)" fill="#bdc1c6"/>
    <path id="Path_1329" data-name="Path 1329" d="M4118.629,1256.791a.622.622,0,0,0,0,1.173,2.241,2.241,0,0,0,2.033,0,.622.622,0,0,0,0-1.173,2.252,2.252,0,0,0-2.034,0Z" transform="translate(-2594.886 582.813)" fill="#bdc1c6"/>
    <path id="Path_1330" data-name="Path 1330" d="M4084.991,1237.37a.622.622,0,0,0,0,1.174,2.255,2.255,0,0,0,2.034,0,.621.621,0,0,0,0-1.174,2.244,2.244,0,0,0-2.033,0Z" transform="translate(-2566.565 599.17)" fill="#bdc1c6"/>
    <path id="Path_1320-2" data-name="Path 1320" d="M4017.706,1237.37a.622.622,0,0,0,0,1.174,2.255,2.255,0,0,0,2.034,0,.621.621,0,0,0,0-1.174,2.248,2.248,0,0,0-2.034,0Z" transform="translate(-2503.903 596.17)" fill="#bdc1c6"/>
    <path id="Path_1321-2" data-name="Path 1321" d="M3984.068,1217.948a.622.622,0,0,0,0,1.174,2.242,2.242,0,0,0,2.034,0,.622.622,0,0,0,0-1.174A2.251,2.251,0,0,0,3984.068,1217.948Z" transform="translate(-2475.581 612.521)" fill="#bdc1c6"/>
    <path id="Path_1320-3" data-name="Path 1320" d="M4017.706,1237.37a.622.622,0,0,0,0,1.174,2.255,2.255,0,0,0,2.034,0,.621.621,0,0,0,0-1.174,2.248,2.248,0,0,0-2.034,0Z" transform="translate(-2498.903 594.17)" fill="#bdc1c6"/>
    <path id="Path_1321-3" data-name="Path 1321" d="M3984.068,1217.948a.622.622,0,0,0,0,1.174,2.242,2.242,0,0,0,2.034,0,.622.622,0,0,0,0-1.174A2.251,2.251,0,0,0,3984.068,1217.948Z" transform="translate(-2470.581 610.521)" fill="#bdc1c6"/>
    <path id="Path_1299-2" data-name="Path 1299" d="M3916.787,1256.791a.621.621,0,0,0,0,1.172,2.236,2.236,0,0,0,2.031,0,.618.618,0,0,0,0-1.172A2.246,2.246,0,0,0,3916.787,1256.791Z" transform="translate(-2429.927 579.813)" fill="#bdc1c6"/>
    <path id="Path_1310-2" data-name="Path 1310" d="M3950.426,1237.37a.622.622,0,0,0,0,1.174,2.253,2.253,0,0,0,2.034,0,.622.622,0,0,0,0-1.174,2.245,2.245,0,0,0-2.034,0Z" transform="translate(-2458.252 596.17)" fill="#bdc1c6"/>
    <path id="Path_1321-4" data-name="Path 1321" d="M3984.068,1217.948a.622.622,0,0,0,0,1.174,2.242,2.242,0,0,0,2.034,0,.622.622,0,0,0,0-1.174A2.251,2.251,0,0,0,3984.068,1217.948Z" transform="translate(-2486.581 612.521)" fill="#bdc1c6"/>
    <path id="Path_1321-5" data-name="Path 1321" d="M3984.068,1217.948a.622.622,0,0,0,0,1.174,2.242,2.242,0,0,0,2.034,0,.622.622,0,0,0,0-1.174A2.251,2.251,0,0,0,3984.068,1217.948Z" transform="translate(-2480.581 609.521)" fill="#bdc1c6"/>
    <path id="Path_1321-6" data-name="Path 1321" d="M3984.068,1217.948a.622.622,0,0,0,0,1.174,2.242,2.242,0,0,0,2.034,0,.622.622,0,0,0,0-1.174A2.251,2.251,0,0,0,3984.068,1217.948Z" transform="translate(-2475.581 607.521)" fill="#bdc1c6"/>
    <path id="Path_1299-3" data-name="Path 1299" d="M3916.787,1256.791a.621.621,0,0,0,0,1.172,2.236,2.236,0,0,0,2.031,0,.618.618,0,0,0,0-1.172A2.246,2.246,0,0,0,3916.787,1256.791Z" transform="translate(-2435.927 576.813)" fill="#bdc1c6"/>
    <path id="Path_1310-3" data-name="Path 1310" d="M3950.426,1237.37a.622.622,0,0,0,0,1.174,2.253,2.253,0,0,0,2.034,0,.622.622,0,0,0,0-1.174,2.245,2.245,0,0,0-2.034,0Z" transform="translate(-2464.252 593.17)" fill="#bdc1c6"/>
    <path id="Path_1321-7" data-name="Path 1321" d="M3984.068,1217.948a.622.622,0,0,0,0,1.174,2.242,2.242,0,0,0,2.034,0,.622.622,0,0,0,0-1.174A2.251,2.251,0,0,0,3984.068,1217.948Z" transform="translate(-2492.581 609.521)" fill="#bdc1c6"/>
    <path id="Path_1321-8" data-name="Path 1321" d="M3984.068,1217.948a.622.622,0,0,0,0,1.174,2.242,2.242,0,0,0,2.034,0,.622.622,0,0,0,0-1.174A2.251,2.251,0,0,0,3984.068,1217.948Z" transform="translate(-2486.581 606.521)" fill="#bdc1c6"/>
    <path id="Path_1321-9" data-name="Path 1321" d="M3984.068,1217.948a.622.622,0,0,0,0,1.174,2.242,2.242,0,0,0,2.034,0,.622.622,0,0,0,0-1.174A2.251,2.251,0,0,0,3984.068,1217.948Z" transform="translate(-2481.581 604.521)" fill="#bdc1c6"/>
    <path id="Path_1299-4" data-name="Path 1299" d="M3916.787,1256.791a.621.621,0,0,0,0,1.172,2.236,2.236,0,0,0,2.031,0,.618.618,0,0,0,0-1.172A2.246,2.246,0,0,0,3916.787,1256.791Z" transform="translate(-2440.927 573.813)" fill="#bdc1c6"/>
    <path id="Path_1310-4" data-name="Path 1310" d="M3950.426,1237.37a.622.622,0,0,0,0,1.174,2.253,2.253,0,0,0,2.034,0,.622.622,0,0,0,0-1.174,2.245,2.245,0,0,0-2.034,0Z" transform="translate(-2469.252 590.17)" fill="#bdc1c6"/>
    <path id="Path_1321-10" data-name="Path 1321" d="M3984.068,1217.948a.622.622,0,0,0,0,1.174,2.242,2.242,0,0,0,2.034,0,.622.622,0,0,0,0-1.174A2.251,2.251,0,0,0,3984.068,1217.948Z" transform="translate(-2497.581 606.521)" fill="#bdc1c6"/>
    <path id="Path_1299-5" data-name="Path 1299" d="M3916.787,1256.791a.621.621,0,0,0,0,1.172,2.236,2.236,0,0,0,2.031,0,.618.618,0,0,0,0-1.172A2.246,2.246,0,0,0,3916.787,1256.791Z" transform="translate(-2445.927 570.813)" fill="#bdc1c6"/>
    <path id="Path_1310-5" data-name="Path 1310" d="M3950.426,1237.37a.622.622,0,0,0,0,1.174,2.253,2.253,0,0,0,2.034,0,.622.622,0,0,0,0-1.174,2.245,2.245,0,0,0-2.034,0Z" transform="translate(-2474.252 587.17)" fill="#bdc1c6"/>
    <path id="Path_1321-11" data-name="Path 1321" d="M3984.068,1217.948a.622.622,0,0,0,0,1.174,2.242,2.242,0,0,0,2.034,0,.622.622,0,0,0,0-1.174A2.251,2.251,0,0,0,3984.068,1217.948Z" transform="translate(-2502.581 603.521)" fill="#bdc1c6"/>
    <path id="Path_1299-6" data-name="Path 1299" d="M3916.787,1256.791a.621.621,0,0,0,0,1.172,2.236,2.236,0,0,0,2.031,0,.618.618,0,0,0,0-1.172A2.246,2.246,0,0,0,3916.787,1256.791Z" transform="translate(-2450.927 567.813)" fill="#bdc1c6"/>
    <path id="Path_1310-6" data-name="Path 1310" d="M3950.426,1237.37a.622.622,0,0,0,0,1.174,2.253,2.253,0,0,0,2.034,0,.622.622,0,0,0,0-1.174,2.245,2.245,0,0,0-2.034,0Z" transform="translate(-2479.252 584.17)" fill="#bdc1c6"/>
    <path id="Path_1321-12" data-name="Path 1321" d="M3984.068,1217.948a.622.622,0,0,0,0,1.174,2.242,2.242,0,0,0,2.034,0,.622.622,0,0,0,0-1.174A2.251,2.251,0,0,0,3984.068,1217.948Z" transform="translate(-2507.581 600.521)" fill="#bdc1c6"/>
    <path id="Path_1310-7" data-name="Path 1310" d="M3950.426,1237.37a.622.622,0,0,0,0,1.174,2.253,2.253,0,0,0,2.034,0,.622.622,0,0,0,0-1.174,2.245,2.245,0,0,0-2.034,0Z" transform="translate(-2484.252 581.17)" fill="#bdc1c6"/>
    <path id="Path_1321-13" data-name="Path 1321" d="M3984.068,1217.948a.622.622,0,0,0,0,1.174,2.242,2.242,0,0,0,2.034,0,.622.622,0,0,0,0-1.174A2.251,2.251,0,0,0,3984.068,1217.948Z" transform="translate(-2512.581 597.521)" fill="#bdc1c6"/>
    <path id="Path_1310-8" data-name="Path 1310" d="M3950.426,1237.37a.622.622,0,0,0,0,1.174,2.253,2.253,0,0,0,2.034,0,.622.622,0,0,0,0-1.174,2.245,2.245,0,0,0-2.034,0Z" transform="translate(-2488.252 578.17)" fill="#bdc1c6"/>
    <path id="Path_1321-14" data-name="Path 1321" d="M3984.068,1217.948a.622.622,0,0,0,0,1.174,2.242,2.242,0,0,0,2.034,0,.622.622,0,0,0,0-1.174A2.251,2.251,0,0,0,3984.068,1217.948Z" transform="translate(-2516.581 594.521)" fill="#bdc1c6"/>
    <path id="Path_1267-2" data-name="Path 1267" d="M4387.857,1528.457a.621.621,0,0,0,0,1.173,2.24,2.24,0,0,0,2.034,0,.622.622,0,0,0,0-1.173A2.25,2.25,0,0,0,4387.857,1528.457Z" transform="translate(-2795.605 339.058)" fill="#bdc1c6"/>
    <path id="Path_1272-2" data-name="Path 1272" d="M4421.489,1509.036a.618.618,0,0,0,0,1.172,2.238,2.238,0,0,0,2.033,0,.618.618,0,0,0,0-1.172,2.238,2.238,0,0,0-2.034,0Z" transform="translate(-2823.924 355.413)" fill="#bdc1c6"/>
    <path id="Path_1277-2" data-name="Path 1277" d="M4455.117,1489.61a.622.622,0,0,0,0,1.173,2.252,2.252,0,0,0,2.034,0,.622.622,0,0,0,0-1.173,2.243,2.243,0,0,0-2.036,0Z" transform="translate(-2852.242 371.771)" fill="#bdc1c6"/>
    <path id="Path_1282-2" data-name="Path 1282" d="M4488.79,1470.192a.622.622,0,0,0,0,1.174,2.241,2.241,0,0,0,2.031,0,.622.622,0,0,0,0-1.174,2.246,2.246,0,0,0-2.03,0Z" transform="translate(-2880.595 388.121)" fill="#bdc1c6"/>
    <path id="Path_1286-2" data-name="Path 1286" d="M4522.714,1450.564a.622.622,0,0,0,0,1.173,2.244,2.244,0,0,0,2.034,0,.622.622,0,0,0,0-1.173A2.252,2.252,0,0,0,4522.714,1450.564Z" transform="translate(-2909.164 404.648)" fill="#bdc1c6"/>
    <path id="Path_1267-3" data-name="Path 1267" d="M4387.857,1528.457a.621.621,0,0,0,0,1.173,2.24,2.24,0,0,0,2.034,0,.622.622,0,0,0,0-1.173A2.25,2.25,0,0,0,4387.857,1528.457Z" transform="translate(-2769.605 324.058)" fill="#bdc1c6"/>
    <path id="Path_1272-3" data-name="Path 1272" d="M4421.489,1509.036a.618.618,0,0,0,0,1.172,2.238,2.238,0,0,0,2.033,0,.618.618,0,0,0,0-1.172,2.238,2.238,0,0,0-2.034,0Z" transform="translate(-2797.924 340.413)" fill="#bdc1c6"/>
    <path id="Path_1277-3" data-name="Path 1277" d="M4455.117,1489.61a.622.622,0,0,0,0,1.173,2.252,2.252,0,0,0,2.034,0,.622.622,0,0,0,0-1.173,2.243,2.243,0,0,0-2.036,0Z" transform="translate(-2826.242 356.771)" fill="#bdc1c6"/>
    <path id="Path_1282-3" data-name="Path 1282" d="M4488.79,1470.192a.622.622,0,0,0,0,1.174,2.241,2.241,0,0,0,2.031,0,.622.622,0,0,0,0-1.174,2.246,2.246,0,0,0-2.03,0Z" transform="translate(-2854.595 373.121)" fill="#bdc1c6"/>
    <path id="Path_1286-3" data-name="Path 1286" d="M4522.714,1450.564a.622.622,0,0,0,0,1.173,2.244,2.244,0,0,0,2.034,0,.622.622,0,0,0,0-1.173A2.252,2.252,0,0,0,4522.714,1450.564Z" transform="translate(-2883.164 389.648)" fill="#bdc1c6"/>
    <path id="Path_1286-4" data-name="Path 1286" d="M4522.714,1450.564a.622.622,0,0,0,0,1.173,2.244,2.244,0,0,0,2.034,0,.622.622,0,0,0,0-1.173A2.252,2.252,0,0,0,4522.714,1450.564Z" transform="translate(-2930.164 422.648)" fill="#bdc1c6"/>
    <path id="Path_1267-4" data-name="Path 1267" d="M4387.857,1528.457a.621.621,0,0,0,0,1.173,2.24,2.24,0,0,0,2.034,0,.622.622,0,0,0,0-1.173A2.25,2.25,0,0,0,4387.857,1528.457Z" transform="translate(-2790.605 342.058)" fill="#bdc1c6"/>
    <path id="Path_1272-4" data-name="Path 1272" d="M4421.489,1509.036a.618.618,0,0,0,0,1.172,2.238,2.238,0,0,0,2.033,0,.618.618,0,0,0,0-1.172,2.238,2.238,0,0,0-2.034,0Z" transform="translate(-2818.924 358.413)" fill="#bdc1c6"/>
    <path id="Path_1277-4" data-name="Path 1277" d="M4455.117,1489.61a.622.622,0,0,0,0,1.173,2.252,2.252,0,0,0,2.034,0,.622.622,0,0,0,0-1.173,2.243,2.243,0,0,0-2.036,0Z" transform="translate(-2847.242 374.771)" fill="#bdc1c6"/>
    <path id="Path_1282-4" data-name="Path 1282" d="M4488.79,1470.192a.622.622,0,0,0,0,1.174,2.241,2.241,0,0,0,2.031,0,.622.622,0,0,0,0-1.174,2.246,2.246,0,0,0-2.03,0Z" transform="translate(-2875.595 391.121)" fill="#bdc1c6"/>
    <path id="Path_1286-5" data-name="Path 1286" d="M4522.714,1450.564a.622.622,0,0,0,0,1.173,2.244,2.244,0,0,0,2.034,0,.622.622,0,0,0,0-1.173A2.252,2.252,0,0,0,4522.714,1450.564Z" transform="translate(-2904.164 407.648)" fill="#bdc1c6"/>
    <path id="Path_1267-5" data-name="Path 1267" d="M4387.857,1528.457a.621.621,0,0,0,0,1.173,2.24,2.24,0,0,0,2.034,0,.622.622,0,0,0,0-1.173A2.25,2.25,0,0,0,4387.857,1528.457Z" transform="translate(-2764.605 327.058)" fill="#bdc1c6"/>
    <path id="Path_1272-5" data-name="Path 1272" d="M4421.489,1509.036a.618.618,0,0,0,0,1.172,2.238,2.238,0,0,0,2.033,0,.618.618,0,0,0,0-1.172,2.238,2.238,0,0,0-2.034,0Z" transform="translate(-2792.924 343.413)" fill="#bdc1c6"/>
    <path id="Path_1277-5" data-name="Path 1277" d="M4455.117,1489.61a.622.622,0,0,0,0,1.173,2.252,2.252,0,0,0,2.034,0,.622.622,0,0,0,0-1.173,2.243,2.243,0,0,0-2.036,0Z" transform="translate(-2821.242 359.771)" fill="#bdc1c6"/>
    <path id="Path_1282-5" data-name="Path 1282" d="M4488.79,1470.192a.622.622,0,0,0,0,1.174,2.241,2.241,0,0,0,2.031,0,.622.622,0,0,0,0-1.174,2.246,2.246,0,0,0-2.03,0Z" transform="translate(-2849.595 376.121)" fill="#bdc1c6"/>
    <path id="Path_1286-6" data-name="Path 1286" d="M4522.714,1450.564a.622.622,0,0,0,0,1.173,2.244,2.244,0,0,0,2.034,0,.622.622,0,0,0,0-1.173A2.252,2.252,0,0,0,4522.714,1450.564Z" transform="translate(-2878.164 392.648)" fill="#bdc1c6"/>
    <path id="Path_1286-7" data-name="Path 1286" d="M4522.714,1450.564a.622.622,0,0,0,0,1.173,2.244,2.244,0,0,0,2.034,0,.622.622,0,0,0,0-1.173A2.252,2.252,0,0,0,4522.714,1450.564Z" transform="translate(-2893.164 383.648)" fill="#bdc1c6"/>
    <path id="Path_1286-8" data-name="Path 1286" d="M4522.714,1450.564a.622.622,0,0,0,0,1.173,2.244,2.244,0,0,0,2.034,0,.622.622,0,0,0,0-1.173A2.252,2.252,0,0,0,4522.714,1450.564Z" transform="translate(-2888.164 386.648)" fill="#bdc1c6"/>
    <g id="Слой_x0020_1" transform="translate(1467.506 1752.026)">
      <path id="Контур_10199" data-name="Контур 10199" d="M585.136,79.8c0-2.216,0-5.529-.179-7.484s-.538-2.554-13.11-11.453-37.359-26.1-50.23-34.763-13.828-8.782-14.686-8.6-1.618.658-2.016,3.234a72.42,72.42,0,0,0-.4,9.718c.039,2.474.159,2.754,13.609,11.515s40.232,26,53.621,34.464,13.39,8.142,13.39,7.425V79.8Z" transform="translate(-432.146 -14.957)" fill="#08243b" fill-rule="evenodd"/>
      <path id="Контур_10200" data-name="Контур 10200" d="M187.543,89.908a47.355,47.355,0,0,0-.363-11.686,20.879,20.879,0,0,0-3.542-8.726c-1.582-2.308-3.451-4.326-10.775-9.616s-20.106-13.851-35.221-24.129S105.074,13.476,95.67,7.191,84.909.333,83.613.076s-2.533-.2-12.944,5.4S40.67,22.2,31.728,27.83s-7.246,5.748-4.075,8.27,7.812,7.441,21.709,16.865,37.045,23.35,52.23,34.575,22.4,19.744,26.2,25.011,4.181,7.277,4.7,8.612,1.18,1.994,3.485,1.076,6.26-3.418,14.842-8.427,21.8-12.538,28.747-16.561,7.641-4.551,7.97-7.343Z" transform="translate(-21.501 0)" fill="#2950af" fill-rule="evenodd"/>
      <path id="Контур_10201" data-name="Контур 10201" d="M27.043,226.315C16.614,219.2,13.5,217.129,11.075,216.03s-4.151-1.232-5.59-.747a6.608,6.608,0,0,0-3.522,3.194,15.493,15.493,0,0,0-1.873,6.549A31.111,31.111,0,0,0,.9,234.65,28.38,28.38,0,0,0,4.973,243.8a27.306,27.306,0,0,0,7.194,7.241,18.834,18.834,0,0,0,11.352,3.627c4.813-.066,10.87-1.841,16.181-1.127a20.216,20.216,0,0,1,12.868,7.743c2.993,3.822,4.412,8.258,9.992,14.028s15.319,12.875,24.086,18.557a188.174,188.174,0,0,0,20.845,11.921c4.28,1.973,5.044,1.664,5.441.675s.432-2.652.224-5.562a43.888,43.888,0,0,0-1.959-10.847c-1.3-3.778-3.446-7.174-9.963-12.493S83.836,265,69.524,255.3,37.47,233.43,27.04,226.313Z" transform="translate(0 -184.18)" fill="#08243b" fill-rule="evenodd"/>
      <path id="Контур_10202" data-name="Контур 10202" d="M290.116,114.058c3.986,2.369,11.476,7.293,15.311,9.92s4.017,2.959,4.062,3.231-.044.482-5.692,3.835-16.85,9.844-22.725,13.107-6.418,3.29-6.962,3.261-1.087-.122-4.832-2.461-10.69-6.931-14.178-9.559-3.518-3.29-3.277-3.819.756-.922,6.358-4.153,16.292-9.3,21.88-12.427,6.068-3.307,10.057-.937Z" transform="translate(-215.631 -96.318)" fill="#abc5ff" fill-rule="evenodd"/>
      <path id="Контур_10203" data-name="Контур 10203" d="M481.784,417.707c1.45-.826,2.9-1.649,4.327-2.465s2.831-1.615,4.229-2.411a1.835,1.835,0,0,1,1.781.073c.392.268.786.541,1.18.81l1.188.815a.628.628,0,0,1-.033,1.146c-1.4.82-2.824,1.652-4.249,2.484L485.86,420.7a1.827,1.827,0,0,1-1.846-.08c-.393-.288-.786-.581-1.175-.868s-.78-.575-1.166-.861a.658.658,0,0,1,.11-1.183Z" transform="translate(-412.314 -353.457)" fill="#08243b" fill-rule="evenodd"/>
      <path id="Контур_10204" data-name="Контур 10204" d="M562.23,419.207l1.895-1.767v1.853l-1.895,1.378Z" transform="translate(-481.594 -357.573)" fill="#08243b" fill-rule="evenodd"/>
      <path id="Контур_10205" data-name="Контур 10205" d="M483.275,441.2l-1.895-1.768v1.853l1.895,1.724Z" transform="translate(-412.339 -376.409)" fill="#08243b" fill-rule="evenodd"/>
      <path id="Контур_10206" data-name="Контур 10206" d="M481.784,405.227c1.45-.826,2.9-1.649,4.327-2.465s2.831-1.615,4.229-2.411a1.835,1.835,0,0,1,1.781.073c.392.268.786.541,1.18.81l1.188.815a.628.628,0,0,1-.033,1.146c-1.4.82-2.824,1.652-4.249,2.484l-4.347,2.541a1.827,1.827,0,0,1-1.846-.08c-.393-.288-.786-.581-1.175-.868s-.78-.575-1.166-.861a.658.658,0,0,1,.11-1.183Z" transform="translate(-412.314 -342.766)" fill="#abc5ff" fill-rule="evenodd"/>
      <path id="Контур_10207" data-name="Контур 10207" d="M546.264,454.1c1.45-.826,2.9-1.649,4.327-2.465s2.831-1.615,4.229-2.411a1.836,1.836,0,0,1,1.781.073c.391.268.786.541,1.18.81l1.188.815a.628.628,0,0,1-.033,1.146c-1.4.82-2.824,1.652-4.25,2.484l-4.347,2.541a1.827,1.827,0,0,1-1.846-.08c-.393-.288-.786-.581-1.175-.868s-.78-.575-1.166-.861a.658.658,0,0,1,.11-1.183Z" transform="translate(-467.547 -384.628)" fill="#08243b" fill-rule="evenodd"/>
      <path id="Контур_10208" data-name="Контур 10208" d="M626.71,455.6l1.895-1.767v1.853l-1.895,1.378Z" transform="translate(-536.826 -388.744)" fill="#08243b" fill-rule="evenodd"/>
      <path id="Контур_10209" data-name="Контур 10209" d="M547.755,477.588l-1.895-1.768v1.853l1.895,1.724Z" transform="translate(-467.572 -407.58)" fill="#08243b" fill-rule="evenodd"/>
      <path id="Контур_10210" data-name="Контур 10210" d="M546.264,441.607c1.45-.826,2.9-1.649,4.327-2.465s2.831-1.615,4.229-2.411a1.836,1.836,0,0,1,1.781.073c.391.268.786.541,1.18.81l1.188.815a.628.628,0,0,1-.033,1.146c-1.4.82-2.824,1.652-4.25,2.484L550.34,444.6a1.827,1.827,0,0,1-1.846-.08c-.393-.288-.786-.581-1.175-.868s-.78-.575-1.166-.861a.658.658,0,0,1,.11-1.183Z" transform="translate(-467.547 -373.929)" fill="#abc5ff" fill-rule="evenodd"/>
      <path id="Контур_10211" data-name="Контур 10211" d="M608.794,490.937c1.45-.826,2.9-1.649,4.327-2.465s2.831-1.615,4.229-2.411a1.835,1.835,0,0,1,1.781.073c.391.268.786.541,1.18.81s.792.542,1.188.815a.628.628,0,0,1-.033,1.146c-1.4.82-2.824,1.652-4.25,2.484l-4.347,2.541a1.827,1.827,0,0,1-1.846-.08c-.393-.288-.786-.581-1.175-.868s-.78-.575-1.166-.861a.658.658,0,0,1,.11-1.183Z" transform="translate(-521.109 -416.184)" fill="#08243b" fill-rule="evenodd"/>
      <path id="Контур_10212" data-name="Контур 10212" d="M689.24,492.438l1.895-1.768v1.853l-1.895,1.38Z" transform="translate(-590.388 -420.3)" fill="#08243b" fill-rule="evenodd"/>
      <path id="Контур_10213" data-name="Контур 10213" d="M610.285,514.437l-1.895-1.767v1.853l1.895,1.723Z" transform="translate(-521.134 -439.145)" fill="#08243b" fill-rule="evenodd"/>
      <path id="Контур_10214" data-name="Контур 10214" d="M608.794,478.457c1.45-.826,2.9-1.649,4.327-2.465s2.831-1.615,4.229-2.411a1.835,1.835,0,0,1,1.781.073c.391.268.786.541,1.18.81l1.188.815a.628.628,0,0,1-.033,1.146c-1.4.82-2.824,1.652-4.25,2.484l-4.347,2.541a1.827,1.827,0,0,1-1.846-.08c-.393-.288-.786-.581-1.175-.868s-.78-.575-1.166-.861a.658.658,0,0,1,.11-1.183Z" transform="translate(-521.109 -405.494)" fill="#abc5ff" fill-rule="evenodd"/>
      <path id="Контур_10215" data-name="Контур 10215" d="M668.634,523.137c1.45-.826,2.9-1.649,4.327-2.465s2.831-1.615,4.229-2.411a1.835,1.835,0,0,1,1.781.073c.392.268.786.541,1.18.81l1.188.815a.628.628,0,0,1-.033,1.146c-1.4.82-2.824,1.652-4.25,2.484l-4.347,2.541a1.827,1.827,0,0,1-1.846-.08c-.393-.288-.786-.581-1.175-.868s-.78-.575-1.166-.861a.658.658,0,0,1,.11-1.183Z" transform="translate(-572.366 -443.766)" fill="#08243b" fill-rule="evenodd"/>
      <path id="Контур_10216" data-name="Контур 10216" d="M749.08,524.637l1.895-1.767v1.853L749.08,526.1Z" transform="translate(-641.646 -447.882)" fill="#08243b" fill-rule="evenodd"/>
      <path id="Контур_10217" data-name="Контур 10217" d="M670.125,546.628l-1.895-1.768v1.853l1.895,1.722Z" transform="translate(-572.392 -466.718)" fill="#08243b" fill-rule="evenodd"/>
      <path id="Контур_10218" data-name="Контур 10218" d="M668.634,510.647c1.45-.826,2.9-1.649,4.327-2.465s2.831-1.615,4.229-2.411a1.835,1.835,0,0,1,1.781.073c.392.268.786.541,1.18.81l1.188.815a.628.628,0,0,1-.033,1.146c-1.4.82-2.824,1.652-4.25,2.484l-4.347,2.541a1.827,1.827,0,0,1-1.846-.08c-.393-.288-.786-.581-1.175-.868s-.78-.575-1.166-.86a.658.658,0,0,1,.11-1.183Z" transform="translate(-572.366 -433.067)" fill="#ff5833" fill-rule="evenodd"/>
      <g id="_105553245866336" transform="translate(84.049 48.176)">
        <path id="Контур_10219" data-name="Контур 10219" d="M586.464,353.477c1.45-.826,2.9-1.649,4.327-2.465s2.831-1.615,4.229-2.411a1.835,1.835,0,0,1,1.781.073c.392.268.786.541,1.18.81l1.188.815a.628.628,0,0,1-.033,1.146c-1.4.82-2.824,1.652-4.25,2.484l-4.347,2.541a1.827,1.827,0,0,1-1.846-.08c-.393-.288-.786-.581-1.175-.868s-.78-.575-1.166-.861a.658.658,0,0,1,.11-1.183Z" transform="translate(-586.031 -346.615)" fill="#08243b" fill-rule="evenodd"/>
        <path id="Контур_10220" data-name="Контур 10220" d="M666.91,354.977l1.895-1.767v1.853l-1.895,1.378Z" transform="translate(-655.31 -350.731)" fill="#08243b" fill-rule="evenodd"/>
        <path id="Контур_10221" data-name="Контур 10221" d="M587.955,376.968,586.06,375.2v1.853l1.895,1.724Z" transform="translate(-586.056 -369.567)" fill="#08243b" fill-rule="evenodd"/>
        <path id="Контур_10222" data-name="Контур 10222" d="M586.464,341c1.45-.826,2.9-1.649,4.327-2.465s2.831-1.615,4.229-2.411a1.835,1.835,0,0,1,1.781.073c.392.268.786.541,1.18.81l1.188.815a.628.628,0,0,1-.033,1.146c-1.4.82-2.824,1.652-4.25,2.484l-4.347,2.541a1.827,1.827,0,0,1-1.846-.08c-.393-.288-.786-.581-1.175-.868s-.78-.575-1.166-.861a.658.658,0,0,1,.11-1.183Z" transform="translate(-586.031 -335.925)" fill="#abc5ff" fill-rule="evenodd"/>
      </g>
      <g id="_105553245807264" transform="translate(93.297 53.394)">
        <path id="Контур_10223" data-name="Контур 10223" d="M650.944,389.867c1.45-.826,2.9-1.649,4.327-2.465s2.831-1.615,4.229-2.411a1.836,1.836,0,0,1,1.781.073c.392.268.786.541,1.18.81l1.188.815a.628.628,0,0,1-.033,1.146c-1.4.82-2.824,1.652-4.25,2.484l-4.347,2.541a1.827,1.827,0,0,1-1.846-.08c-.393-.288-.786-.581-1.175-.868s-.78-.575-1.166-.861a.658.658,0,0,1,.11-1.183Z" transform="translate(-650.511 -383.003)" fill="#08243b" fill-rule="evenodd"/>
        <path id="Контур_10224" data-name="Контур 10224" d="M731.39,391.367l1.895-1.767v1.853l-1.895,1.378Z" transform="translate(-719.79 -387.12)" fill="#08243b" fill-rule="evenodd"/>
        <path id="Контур_10225" data-name="Контур 10225" d="M652.435,413.358l-1.895-1.768v1.853l1.895,1.724Z" transform="translate(-650.536 -405.956)" fill="#08243b" fill-rule="evenodd"/>
        <path id="Контур_10226" data-name="Контур 10226" d="M650.944,377.377c1.45-.826,2.9-1.649,4.327-2.465S658.1,373.3,659.5,372.5a1.835,1.835,0,0,1,1.781.073c.392.268.786.541,1.18.81l1.188.815a.628.628,0,0,1-.033,1.146c-1.4.82-2.824,1.652-4.25,2.484l-4.347,2.541a1.827,1.827,0,0,1-1.846-.08c-.393-.288-.786-.581-1.175-.868s-.78-.575-1.166-.861a.658.658,0,0,1,.11-1.183Z" transform="translate(-650.511 -372.305)" fill="#abc5ff" fill-rule="evenodd"/>
      </g>
      <g id="_105553245980224" transform="translate(102.265 58.679)">
        <path id="Контур_10227" data-name="Контур 10227" d="M713.474,426.707c1.45-.826,2.9-1.649,4.327-2.465s2.831-1.615,4.229-2.411a1.835,1.835,0,0,1,1.781.073c.392.268.786.541,1.18.81l1.188.815a.628.628,0,0,1-.033,1.146c-1.4.82-2.824,1.652-4.25,2.484L717.55,429.7a1.827,1.827,0,0,1-1.846-.08c-.393-.288-.786-.581-1.175-.868s-.78-.575-1.166-.861a.658.658,0,0,1,.11-1.183Z" transform="translate(-713.041 -419.845)" fill="#08243b" fill-rule="evenodd"/>
        <path id="Контур_10228" data-name="Контур 10228" d="M793.92,428.208l1.895-1.768v1.853l-1.895,1.38Z" transform="translate(-782.32 -423.961)" fill="#08243b" fill-rule="evenodd"/>
        <path id="Контур_10229" data-name="Контур 10229" d="M714.965,450.207l-1.895-1.767v1.853l1.895,1.723Z" transform="translate(-713.066 -442.806)" fill="#08243b" fill-rule="evenodd"/>
        <path id="Контур_10230" data-name="Контур 10230" d="M713.474,414.227c1.45-.826,2.9-1.649,4.327-2.465s2.831-1.615,4.229-2.411a1.835,1.835,0,0,1,1.781.073c.392.268.786.541,1.18.81l1.188.815a.628.628,0,0,1-.033,1.146c-1.4.82-2.824,1.652-4.25,2.484l-4.347,2.541a1.827,1.827,0,0,1-1.846-.08c-.393-.288-.786-.581-1.175-.868s-.78-.575-1.166-.861a.658.658,0,0,1,.11-1.183Z" transform="translate(-713.041 -409.155)" fill="#abc5ff" fill-rule="evenodd"/>
      </g>
      <g id="_105553246013152" transform="translate(110.847 63.296)">
        <path id="Контур_10231" data-name="Контур 10231" d="M773.314,458.907c1.45-.826,2.9-1.649,4.327-2.465s2.831-1.615,4.229-2.411a1.835,1.835,0,0,1,1.781.073c.392.268.786.541,1.18.81l1.188.815a.628.628,0,0,1-.033,1.146c-1.4.82-2.824,1.652-4.25,2.484L777.39,461.9a1.827,1.827,0,0,1-1.846-.08c-.393-.288-.786-.581-1.175-.868s-.78-.575-1.166-.86a.658.658,0,0,1,.11-1.183Z" transform="translate(-772.881 -452.043)" fill="#08243b" fill-rule="evenodd"/>
        <path id="Контур_10232" data-name="Контур 10232" d="M853.76,460.407l1.895-1.767v1.853l-1.895,1.378Z" transform="translate(-842.16 -456.16)" fill="#08243b" fill-rule="evenodd"/>
        <path id="Контур_10233" data-name="Контур 10233" d="M774.8,482.4l-1.895-1.768v1.853l1.895,1.722Z" transform="translate(-772.906 -474.996)" fill="#08243b" fill-rule="evenodd"/>
        <path id="Контур_10234" data-name="Контур 10234" d="M773.314,446.417c1.45-.826,2.9-1.649,4.327-2.465s2.831-1.615,4.229-2.411a1.835,1.835,0,0,1,1.781.073c.392.268.786.541,1.18.81l1.188.815a.628.628,0,0,1-.033,1.146c-1.4.82-2.824,1.652-4.25,2.484l-4.347,2.541a1.827,1.827,0,0,1-1.846-.08c-.393-.288-.786-.581-1.175-.868s-.78-.575-1.166-.861a.658.658,0,0,1,.11-1.183Z" transform="translate(-772.881 -441.345)" fill="#ff5833" fill-rule="evenodd"/>
      </g>
      <g id="_105553246098368" transform="translate(99.064 38.78)">
        <path id="Контур_10235" data-name="Контур 10235" d="M691.154,287.967c1.45-.826,2.9-1.649,4.327-2.465s2.831-1.615,4.229-2.411a1.835,1.835,0,0,1,1.781.073c.392.268.786.541,1.18.81l1.188.815a.628.628,0,0,1-.033,1.146c-1.4.82-2.824,1.652-4.249,2.484l-4.347,2.541a1.827,1.827,0,0,1-1.846-.08c-.393-.288-.786-.581-1.175-.868s-.78-.575-1.166-.861a.658.658,0,0,1,.11-1.183Z" transform="translate(-690.721 -281.103)" fill="#08243b" fill-rule="evenodd"/>
        <path id="Контур_10236" data-name="Контур 10236" d="M771.6,289.467l1.895-1.767v1.852l-1.895,1.38Z" transform="translate(-760 -285.22)" fill="#08243b" fill-rule="evenodd"/>
        <path id="Контур_10237" data-name="Контур 10237" d="M692.645,311.458l-1.895-1.768v1.853l1.895,1.722Z" transform="translate(-690.746 -304.056)" fill="#08243b" fill-rule="evenodd"/>
        <path id="Контур_10238" data-name="Контур 10238" d="M691.154,275.477c1.45-.826,2.9-1.649,4.327-2.465s2.831-1.615,4.229-2.411a1.835,1.835,0,0,1,1.781.073c.392.268.786.541,1.18.81l1.188.815a.628.628,0,0,1-.033,1.146c-1.4.82-2.824,1.652-4.249,2.484l-4.347,2.541a1.827,1.827,0,0,1-1.846-.08c-.393-.288-.786-.581-1.175-.868s-.78-.575-1.166-.861a.658.658,0,0,1,.11-1.183Z" transform="translate(-690.721 -270.405)" fill="#abc5ff" fill-rule="evenodd"/>
      </g>
      <g id="_105553246032736" transform="translate(108.312 43.999)">
        <path id="Контур_10239" data-name="Контур 10239" d="M755.634,324.357c1.45-.826,2.9-1.649,4.327-2.465s2.831-1.615,4.229-2.411a1.835,1.835,0,0,1,1.781.073c.391.268.786.541,1.18.81l1.188.815a.628.628,0,0,1-.033,1.146c-1.4.82-2.824,1.652-4.25,2.484l-4.347,2.541a1.827,1.827,0,0,1-1.846-.08c-.393-.288-.786-.581-1.175-.868s-.78-.575-1.166-.861a.658.658,0,0,1,.11-1.183Z" transform="translate(-755.201 -317.493)" fill="#08243b" fill-rule="evenodd"/>
        <path id="Контур_10240" data-name="Контур 10240" d="M836.08,325.848l1.895-1.768v1.853l-1.895,1.38Z" transform="translate(-824.48 -321.601)" fill="#08243b" fill-rule="evenodd"/>
        <path id="Контур_10241" data-name="Контур 10241" d="M757.125,347.847l-1.895-1.767v1.853l1.895,1.722Z" transform="translate(-755.226 -340.446)" fill="#08243b" fill-rule="evenodd"/>
        <path id="Контур_10242" data-name="Контур 10242" d="M755.634,311.867c1.45-.826,2.9-1.649,4.327-2.465s2.831-1.615,4.229-2.411a1.835,1.835,0,0,1,1.781.073c.391.268.786.541,1.18.81l1.188.815a.628.628,0,0,1-.033,1.146c-1.4.82-2.824,1.652-4.25,2.484l-4.347,2.541a1.827,1.827,0,0,1-1.846-.08c-.393-.288-.786-.581-1.175-.868s-.78-.575-1.166-.861a.658.658,0,0,1,.11-1.183Z" transform="translate(-755.201 -306.795)" fill="#abc5ff" fill-rule="evenodd"/>
      </g>
      <g id="_105553246059360" transform="translate(117.28 49.284)">
        <path id="Контур_10243" data-name="Контур 10243" d="M818.164,361.2c1.45-.826,2.9-1.649,4.327-2.465s2.831-1.615,4.229-2.411a1.835,1.835,0,0,1,1.781.073c.392.268.786.541,1.18.81l1.188.815a.628.628,0,0,1-.033,1.146c-1.4.82-2.824,1.652-4.25,2.484l-4.347,2.541a1.827,1.827,0,0,1-1.846-.08c-.393-.288-.786-.581-1.175-.868s-.78-.575-1.166-.861a.658.658,0,0,1,.11-1.183Z" transform="translate(-817.731 -354.335)" fill="#08243b" fill-rule="evenodd"/>
        <path id="Контур_10244" data-name="Контур 10244" d="M898.61,362.7l1.895-1.768v1.853l-1.895,1.38Z" transform="translate(-887.01 -358.451)" fill="#08243b" fill-rule="evenodd"/>
        <path id="Контур_10245" data-name="Контур 10245" d="M819.655,384.688l-1.895-1.768v1.853l1.895,1.724Z" transform="translate(-817.756 -377.287)" fill="#08243b" fill-rule="evenodd"/>
        <path id="Контур_10246" data-name="Контур 10246" d="M818.164,348.717c1.45-.826,2.9-1.649,4.327-2.465s2.831-1.615,4.229-2.411a1.835,1.835,0,0,1,1.781.073c.392.268.786.541,1.18.81l1.188.815a.628.628,0,0,1-.033,1.146c-1.4.82-2.824,1.652-4.25,2.484l-4.347,2.541a1.827,1.827,0,0,1-1.846-.08c-.393-.288-.786-.581-1.175-.868s-.78-.575-1.166-.861a.658.658,0,0,1,.11-1.183Z" transform="translate(-817.731 -343.645)" fill="#abc5ff" fill-rule="evenodd"/>
      </g>
      <g id="_105553246067648" transform="translate(125.862 53.9)">
        <path id="Контур_10247" data-name="Контур 10247" d="M878,393.387c1.45-.826,2.9-1.649,4.327-2.465s2.831-1.615,4.229-2.411a1.835,1.835,0,0,1,1.781.073c.392.268.786.541,1.18.81l1.188.815a.628.628,0,0,1-.033,1.146c-1.4.82-2.824,1.652-4.25,2.484l-4.347,2.541a1.827,1.827,0,0,1-1.846-.08c-.393-.288-.786-.581-1.175-.868s-.78-.575-1.166-.861a.658.658,0,0,1,.11-1.183Z" transform="translate(-877.571 -386.525)" fill="#08243b" fill-rule="evenodd"/>
        <path id="Контур_10248" data-name="Контур 10248" d="M958.45,394.888l1.895-1.768v1.853l-1.895,1.38Z" transform="translate(-946.85 -390.641)" fill="#08243b" fill-rule="evenodd"/>
        <path id="Контур_10249" data-name="Контур 10249" d="M879.495,416.887,877.6,415.12v1.853l1.895,1.722Z" transform="translate(-877.596 -409.486)" fill="#08243b" fill-rule="evenodd"/>
        <path id="Контур_10250" data-name="Контур 10250" d="M878,380.907c1.45-.826,2.9-1.649,4.327-2.465s2.831-1.615,4.229-2.411a1.835,1.835,0,0,1,1.781.073c.392.268.786.541,1.18.81l1.188.815a.628.628,0,0,1-.033,1.146c-1.4.82-2.824,1.652-4.25,2.484L882.08,383.9a1.827,1.827,0,0,1-1.846-.08c-.393-.288-.786-.581-1.175-.868s-.78-.575-1.166-.861a.658.658,0,0,1,.11-1.183Z" transform="translate(-877.571 -375.835)" fill="#ff5833" fill-rule="evenodd"/>
      </g>
      <path id="Контур_10251" data-name="Контур 10251" d="M824.841,618.346a19.208,19.208,0,0,1,.063-3.809c.208-1.226.721-2.022,7.2-5.939s18.933-10.951,25.665-14.67,7.749-4.119,8.647-4.03a2.681,2.681,0,0,1,2.081,1.438,4.839,4.839,0,0,1,.4,2.364c-.026.628-.106.924-7.451,5.2S839.5,611.417,832.2,615.443s-7.306,3.829-7.356,2.9Z" transform="translate(-706.486 -505.287)" fill="#1d1d1b" fill-rule="evenodd"/>
      <g id="Сгруппировать_411" data-name="Сгруппировать 411" transform="translate(118.29 84.599)" clip-path="url(#clip-path-2)">
        <g id="_105553246169920" transform="translate(-5.074 -3.077)">
          <path id="_1" data-name="1" d="M792.71,599.268c2.655,1.73,7.506,4.786,12.3,5.885s9.543.241,16.531-3.766,16.215-11.165,21.28-14.944,5.969-4.181,1.112-7.116-15.469-8.4-21.526-10.211-7.56.039-12.277,4.651-12.651,11.98-16.687,16.269-4.168,5.493-4.007,6.3S790.056,597.538,792.71,599.268Z" transform="translate(-789.399 -568.429)" fill="#08243b" fill-rule="evenodd"/>
        </g>
      </g>
      <path id="Контур_10253" data-name="Контур 10253" d="M824.841,618.346a19.208,19.208,0,0,1,.063-3.809c.208-1.226.721-2.022,7.2-5.939s18.933-10.951,25.665-14.67,7.749-4.119,8.647-4.03a2.681,2.681,0,0,1,2.081,1.438,4.839,4.839,0,0,1,.4,2.364c-.026.628-.106.924-7.451,5.2S839.5,611.417,832.2,615.443s-7.306,3.829-7.356,2.9Z" transform="translate(-706.486 -505.287)" fill="none" fill-rule="evenodd"/>
    </g>
  </g>
</svg>
