<svg xmlns="http://www.w3.org/2000/svg" width="271" height="350"><defs><clipPath id="a"><path data-name="Прямоугольник 669" transform="translate(1371 1580)" fill="#ff5833" d="M0 0h271v350H0z"/></clipPath><clipPath id="b"><path data-name="Контур 10252" d="M824.841 618.346a19.208 19.208 0 01.063-3.809c.208-1.226.721-2.022 7.2-5.939s18.933-10.951 25.665-14.67 7.749-4.119 8.647-4.03a2.681 2.681 0 012.081 1.438 4.839 4.839 0 01.4 2.364c-.026.628-.106.924-7.451 5.2S839.5 611.417 832.2 615.443s-7.306 3.829-7.356 2.9z" transform="translate(-824.776 -589.887)" clip-rule="evenodd"/></clipPath></defs><g data-name="Группа масок 52" transform="translate(-1371 -1580)" clip-path="url(#a)"><path data-name="Path 2115" d="M1695.259 2106.267l.005-279.1-294.213-.178v277.899c-.373 4.6 2.817 9.541 9.425 13.355l116.939 67.517c11.453 6.611 28.78 7.332 38.7 1.6l122.5-70.729c4.77-2.743 6.927-6.479 6.644-10.364z" fill="#bdc1c6"/><path data-name="Path 2116" d="M1695.257 2106.267l.006-276.53a2.729 2.729 0 00-2.727-2.733l-22.585-.015-121.8 53.817v310.36c6.709.162 13.189-1.062 17.954-3.815l122.5-70.723c4.215-2.431 6.394-5.642 6.651-9.026v-1.225c-.006-.038-.015-.072-.019-.109z" fill="#dadce0"/><path data-name="Path 2117" d="M1688.612 1837.359l-122.5 70.727c-9.917 5.727-27.245 5.006-38.7-1.6l-116.942-67.519c-11.451-6.613-12.7-16.617-2.778-22.341l122.5-70.725c9.919-5.727 27.245-5.007 38.7 1.6l116.94 67.52c11.453 6.614 12.7 16.614 2.78 22.34z" fill="#e8eaed"/><path data-name="Path 1267" d="M1566.252 1882.515a.621.621 0 000 1.173 2.24 2.24 0 002.034 0 .622.622 0 000-1.173 2.25 2.25 0 00-2.034 0z" fill="#bdc1c6"/><path data-name="Path 1268" d="M1560.94 1879.449a.618.618 0 000 1.172 2.24 2.24 0 002.034 0 .622.622 0 000-1.172 2.238 2.238 0 00-2.034 0z" fill="#bdc1c6"/><path data-name="Path 1269" d="M1555.619 1876.381a.621.621 0 000 1.173 2.249 2.249 0 002.033 0 .622.622 0 000-1.173 2.241 2.241 0 00-2.034 0z" fill="#bdc1c6"/><path data-name="Path 1270" d="M1550.306 1873.313a.622.622 0 000 1.174 2.248 2.248 0 002.035 0 .622.622 0 000-1.174 2.254 2.254 0 00-2.035 0z" fill="#bdc1c6"/><path data-name="Path 1271" d="M1576.876 1882.515a.622.622 0 000 1.173 2.24 2.24 0 002.034 0 .622.622 0 000-1.173 2.25 2.25 0 00-2.034 0z" fill="#bdc1c6"/><path data-name="Path 1272" d="M1571.565 1879.449a.618.618 0 000 1.172 2.238 2.238 0 002.033 0 .618.618 0 000-1.172 2.238 2.238 0 00-2.034 0z" fill="#bdc1c6"/><path data-name="Path 1273" d="M1566.252 1876.381a.622.622 0 000 1.173 2.251 2.251 0 002.034 0 .622.622 0 000-1.173 2.24 2.24 0 00-2.034 0z" fill="#bdc1c6"/><path data-name="Path 1274" d="M1560.939 1873.312a.622.622 0 000 1.174 2.245 2.245 0 002.034 0 .622.622 0 000-1.174 2.25 2.25 0 00-2.034 0z" fill="#bdc1c6"/><path data-name="Path 1275" d="M1555.619 1870.242a.621.621 0 000 1.172 2.243 2.243 0 002.033 0 .621.621 0 000-1.173 2.243 2.243 0 00-2.032 0z" fill="#bdc1c6"/><path data-name="Path 1276" d="M1582.196 1879.449a.618.618 0 000 1.172 2.239 2.239 0 002.032 0 .621.621 0 000-1.172 2.239 2.239 0 00-2.032 0z" fill="#bdc1c6"/><path data-name="Path 1277" d="M1576.875 1876.381a.622.622 0 000 1.173 2.252 2.252 0 002.034 0 .622.622 0 000-1.173 2.243 2.243 0 00-2.036 0z" fill="#bdc1c6"/><path data-name="Path 1278" d="M1571.565 1873.312a.622.622 0 000 1.174 2.242 2.242 0 002.034 0 .622.622 0 000-1.174 2.25 2.25 0 00-2.034 0z" fill="#bdc1c6"/><path data-name="Path 1279" d="M1566.251 1870.242a.621.621 0 000 1.172 2.244 2.244 0 002.033 0 .622.622 0 000-1.173 2.244 2.244 0 00-2.033.001z" fill="#bdc1c6"/><path data-name="Path 1280" d="M1560.94 1867.178a.622.622 0 000 1.173 2.252 2.252 0 002.034 0 .622.622 0 000-1.173 2.243 2.243 0 00-2.034 0z" fill="#bdc1c6"/><path data-name="Path 1281" d="M1587.552 1876.381a.622.622 0 000 1.173 2.249 2.249 0 002.033 0 .621.621 0 000-1.173 2.242 2.242 0 00-2.034 0z" fill="#bdc1c6"/><path data-name="Path 1282" d="M1582.195 1873.313a.622.622 0 000 1.174 2.241 2.241 0 002.031 0 .622.622 0 000-1.174 2.246 2.246 0 00-2.03 0z" fill="#bdc1c6"/><path data-name="Path 1283" d="M1576.876 1870.242a.622.622 0 000 1.172 2.245 2.245 0 002.034 0 .622.622 0 000-1.173 2.246 2.246 0 00-2.034.001z" fill="#bdc1c6"/><path data-name="Path 1284" d="M1571.565 1867.178a.622.622 0 000 1.173 2.251 2.251 0 002.034 0 .622.622 0 000-1.173 2.243 2.243 0 00-2.035 0z" fill="#bdc1c6"/><path data-name="Path 1285" d="M1566.251 1864.109a.622.622 0 000 1.174 2.244 2.244 0 002.033 0 .622.622 0 000-1.174 2.251 2.251 0 00-2.034 0z" fill="#bdc1c6"/><path data-name="Path 1286" d="M1587.55 1870.212a.622.622 0 000 1.173 2.244 2.244 0 002.034 0 .622.622 0 000-1.173 2.252 2.252 0 00-2.034 0z" fill="#bdc1c6"/><path data-name="Path 1287" d="M1582.238 1867.147a.618.618 0 000 1.172 2.244 2.244 0 002.032 0 .618.618 0 000-1.172 2.238 2.238 0 00-2.032 0z" fill="#bdc1c6"/><path data-name="Path 1288" d="M1576.92 1864.077a.622.622 0 000 1.173 2.255 2.255 0 002.035 0 .622.622 0 000-1.173 2.24 2.24 0 00-2.034 0z" fill="#bdc1c6"/><path data-name="Path 1289" d="M1547.062 1870.288a2.242 2.242 0 00-2.035 0 .622.622 0 000 1.173 2.252 2.252 0 002.034 0 .622.622 0 000-1.176z" fill="#bdc1c6"/><path data-name="Path 1290" d="M1539.684 1867.214a.622.622 0 000 1.175 2.255 2.255 0 002.034 0 .622.622 0 000-1.175 2.251 2.251 0 00-2.034 0z" fill="#bdc1c6"/><path data-name="Path 1291" d="M1534.369 1864.151a.622.622 0 000 1.175 2.25 2.25 0 002.035 0 .622.622 0 000-1.175 2.261 2.261 0 00-2.033 0z" fill="#bdc1c6"/><path data-name="Path 1292" d="M1529.057 1861.083a.622.622 0 000 1.172 2.242 2.242 0 002.031 0 .622.622 0 000-1.172 2.244 2.244 0 00-2.031 0z" fill="#bdc1c6"/><path data-name="Path 1293" d="M1523.743 1858.016a.622.622 0 000 1.172 2.246 2.246 0 002.034 0 .622.622 0 000-1.172 2.246 2.246 0 00-2.034 0z" fill="#bdc1c6"/><path data-name="Path 1294" d="M1518.426 1854.945a.622.622 0 000 1.173 2.244 2.244 0 002.034 0 .621.621 0 000-1.174 2.253 2.253 0 00-2.034 0z" fill="#bdc1c6"/><path data-name="Path 1295" d="M1513.117 1851.874a.621.621 0 000 1.173 2.243 2.243 0 002.033 0 .622.622 0 000-1.173 2.244 2.244 0 00-2.033 0z" fill="#bdc1c6"/><path data-name="Path 1296" d="M1507.799 1848.806a.622.622 0 000 1.173 2.245 2.245 0 002.034 0 .622.622 0 000-1.172 2.245 2.245 0 00-2.033 0z" fill="#bdc1c6"/><path data-name="Path 1297" d="M1502.488 1845.737a.622.622 0 000 1.173 2.238 2.238 0 002.034 0 .622.622 0 000-1.173 2.243 2.243 0 00-2.034 0z" fill="#bdc1c6"/><path data-name="Path 1298" d="M1497.174 1842.675a.622.622 0 000 1.173 2.238 2.238 0 002.034 0 .622.622 0 000-1.173 2.261 2.261 0 00-2.034 0z" fill="#bdc1c6"/><path data-name="Path 1299" d="M1491.86 1839.604a.621.621 0 000 1.172 2.236 2.236 0 002.031 0 .618.618 0 000-1.172 2.246 2.246 0 00-2.031 0z" fill="#bdc1c6"/><path data-name="Path 1300" d="M1552.373 1867.222a2.247 2.247 0 00-2.034 0 .622.622 0 000 1.174 2.25 2.25 0 002.034 0 .622.622 0 000-1.174z" fill="#bdc1c6"/><path data-name="Path 1301" d="M1545.022 1864.151a.622.622 0 000 1.174 2.245 2.245 0 002.034 0 .621.621 0 000-1.175 2.26 2.26 0 00-2.034.001z" fill="#bdc1c6"/><path data-name="Path 1302" d="M1539.685 1861.083a.622.622 0 000 1.172 2.248 2.248 0 002.035 0 .622.622 0 000-1.173 2.248 2.248 0 00-2.035.001z" fill="#bdc1c6"/><path data-name="Path 1303" d="M1534.369 1858.015a.622.622 0 000 1.172 2.248 2.248 0 002.034 0 .622.622 0 000-1.172 2.25 2.25 0 00-2.034 0z" fill="#bdc1c6"/><path data-name="Path 1304" d="M1529.057 1854.945a.622.622 0 000 1.173 2.239 2.239 0 002.031 0 .622.622 0 000-1.173 2.252 2.252 0 00-2.031 0z" fill="#bdc1c6"/><path data-name="Path 1305" d="M1523.743 1851.875a.621.621 0 000 1.172 2.241 2.241 0 002.033 0 .622.622 0 000-1.173 2.248 2.248 0 00-2.033.001z" fill="#bdc1c6"/><path data-name="Path 1306" d="M1518.427 1848.805a.622.622 0 000 1.173 2.244 2.244 0 002.034 0 .622.622 0 000-1.172 2.245 2.245 0 00-2.034-.001z" fill="#bdc1c6"/><path data-name="Path 1307" d="M1513.116 1845.736a.622.622 0 000 1.173 2.241 2.241 0 002.034 0 .621.621 0 000-1.173 2.249 2.249 0 00-2.034 0z" fill="#bdc1c6"/><path data-name="Path 1308" d="M1507.803 1842.675a.622.622 0 000 1.173 2.242 2.242 0 002.034 0 .622.622 0 000-1.173 2.262 2.262 0 00-2.034 0z" fill="#bdc1c6"/><path data-name="Path 1309" d="M1502.488 1839.605a.622.622 0 000 1.172 2.237 2.237 0 002.034 0 .621.621 0 000-1.172 2.247 2.247 0 00-2.034 0z" fill="#bdc1c6"/><path data-name="Path 1310" d="M1497.174 1836.54a.622.622 0 000 1.174 2.253 2.253 0 002.034 0 .622.622 0 000-1.174 2.245 2.245 0 00-2.034 0z" fill="#bdc1c6"/><path data-name="Path 1311" d="M1557.648 1864.154a2.249 2.249 0 00-2.033 0 .622.622 0 000 1.174 2.243 2.243 0 002.034 0 .622.622 0 000-1.171z" fill="#bdc1c6"/><path data-name="Path 1312" d="M1550.287 1861.083a.622.622 0 000 1.172 2.246 2.246 0 002.034 0 .622.622 0 000-1.173 2.248 2.248 0 00-2.034.001z" fill="#bdc1c6"/><path data-name="Path 1313" d="M1545.022 1858.016a.622.622 0 000 1.172 2.244 2.244 0 002.034 0 .622.622 0 000-1.173 2.245 2.245 0 00-2.034.001z" fill="#bdc1c6"/><path data-name="Path 1314" d="M1539.685 1854.945a.621.621 0 000 1.173 2.243 2.243 0 002.035 0 .621.621 0 000-1.173 2.254 2.254 0 00-2.034 0z" fill="#bdc1c6"/><path data-name="Path 1315" d="M1534.369 1851.874a.622.622 0 000 1.173 2.246 2.246 0 002.035 0 .622.622 0 000-1.173 2.248 2.248 0 00-2.035 0z" fill="#bdc1c6"/><path data-name="Path 1316" d="M1529.057 1848.806a.622.622 0 000 1.173 2.24 2.24 0 002.031 0 .622.622 0 000-1.172 2.243 2.243 0 00-2.031 0z" fill="#bdc1c6"/><path data-name="Path 1317" d="M1523.743 1845.736a.622.622 0 000 1.173 2.244 2.244 0 002.035 0 .622.622 0 000-1.174 2.249 2.249 0 00-2.035.001z" fill="#bdc1c6"/><path data-name="Path 1318" d="M1518.427 1842.672a.622.622 0 000 1.172 2.24 2.24 0 002.034 0 .622.622 0 000-1.172 2.251 2.251 0 00-2.034 0z" fill="#bdc1c6"/><path data-name="Path 1319" d="M1513.117 1839.604a.621.621 0 000 1.173 2.241 2.241 0 002.033 0 .622.622 0 000-1.173 2.252 2.252 0 00-2.033 0z" fill="#bdc1c6"/><path data-name="Path 1320" d="M1507.803 1836.54a.622.622 0 000 1.174 2.255 2.255 0 002.034 0 .621.621 0 000-1.174 2.248 2.248 0 00-2.034 0z" fill="#bdc1c6"/><path data-name="Path 1321" d="M1502.487 1833.469a.622.622 0 000 1.174 2.242 2.242 0 002.034 0 .622.622 0 000-1.174 2.251 2.251 0 00-2.034 0z" fill="#bdc1c6"/><path data-name="Path 1322" d="M1563.002 1861.084a2.244 2.244 0 00-2.034 0 .622.622 0 000 1.172 2.249 2.249 0 002.034 0 .622.622 0 000-1.176z" fill="#bdc1c6"/><path data-name="Path 1323" d="M1555.605 1858.016a.621.621 0 000 1.174 2.246 2.246 0 002.03 0 .621.621 0 000-1.174 2.239 2.239 0 00-2.03 0z" fill="#bdc1c6"/><path data-name="Path 1324" d="M1550.288 1854.945a.622.622 0 000 1.173 2.244 2.244 0 002.034 0 .622.622 0 000-1.173 2.254 2.254 0 00-2.034 0z" fill="#bdc1c6"/><path data-name="Path 1325" d="M1545.022 1851.874a.622.622 0 000 1.172 2.241 2.241 0 002.034 0 .621.621 0 000-1.172 2.245 2.245 0 00-2.034 0z" fill="#bdc1c6"/><path data-name="Path 1326" d="M1539.685 1848.806a.622.622 0 000 1.173 2.244 2.244 0 002.035 0 .622.622 0 000-1.172 2.246 2.246 0 00-2.033 0z" fill="#bdc1c6"/><path data-name="Path 1327" d="M1534.369 1845.736a.622.622 0 000 1.173 2.244 2.244 0 002.035 0 .622.622 0 000-1.173 2.249 2.249 0 00-2.034 0z" fill="#bdc1c6"/><path data-name="Path 1328" d="M1529.057 1842.672a.622.622 0 000 1.172 2.237 2.237 0 002.031 0 .622.622 0 000-1.172 2.243 2.243 0 00-2.03 0z" fill="#bdc1c6"/><path data-name="Path 1329" d="M1523.743 1839.604a.622.622 0 000 1.173 2.241 2.241 0 002.033 0 .622.622 0 000-1.173 2.252 2.252 0 00-2.034 0z" fill="#bdc1c6"/><path data-name="Path 1330" d="M1518.426 1836.54a.622.622 0 000 1.174 2.255 2.255 0 002.034 0 .621.621 0 000-1.174 2.244 2.244 0 00-2.033 0z" fill="#bdc1c6"/><path data-name="Path 1320" d="M1513.803 1833.54a.622.622 0 000 1.174 2.255 2.255 0 002.034 0 .621.621 0 000-1.174 2.248 2.248 0 00-2.034 0z" fill="#bdc1c6"/><path data-name="Path 1321" d="M1508.487 1830.469a.622.622 0 000 1.174 2.242 2.242 0 002.034 0 .622.622 0 000-1.174 2.251 2.251 0 00-2.034 0z" fill="#bdc1c6"/><path data-name="Path 1320" d="M1518.803 1831.54a.622.622 0 000 1.174 2.255 2.255 0 002.034 0 .621.621 0 000-1.174 2.248 2.248 0 00-2.034 0z" fill="#bdc1c6"/><path data-name="Path 1321" d="M1513.487 1828.469a.622.622 0 000 1.174 2.242 2.242 0 002.034 0 .622.622 0 000-1.174 2.251 2.251 0 00-2.034 0z" fill="#bdc1c6"/><path data-name="Path 1299" d="M1486.86 1836.604a.621.621 0 000 1.172 2.236 2.236 0 002.031 0 .618.618 0 000-1.172 2.246 2.246 0 00-2.031 0z" fill="#bdc1c6"/><path data-name="Path 1310" d="M1492.174 1833.54a.622.622 0 000 1.174 2.253 2.253 0 002.034 0 .622.622 0 000-1.174 2.245 2.245 0 00-2.034 0z" fill="#bdc1c6"/><path data-name="Path 1321" d="M1497.487 1830.469a.622.622 0 000 1.174 2.242 2.242 0 002.034 0 .622.622 0 000-1.174 2.251 2.251 0 00-2.034 0zm6-3a.622.622 0 000 1.174 2.242 2.242 0 002.034 0 .622.622 0 000-1.174 2.251 2.251 0 00-2.034 0zm5-2a.622.622 0 000 1.174 2.242 2.242 0 002.034 0 .622.622 0 000-1.174 2.251 2.251 0 00-2.034 0z" fill="#bdc1c6"/><path data-name="Path 1299" d="M1480.86 1833.604a.621.621 0 000 1.172 2.236 2.236 0 002.031 0 .618.618 0 000-1.172 2.246 2.246 0 00-2.031 0z" fill="#bdc1c6"/><path data-name="Path 1310" d="M1486.174 1830.54a.622.622 0 000 1.174 2.253 2.253 0 002.034 0 .622.622 0 000-1.174 2.245 2.245 0 00-2.034 0z" fill="#bdc1c6"/><path data-name="Path 1321" d="M1491.487 1827.469a.622.622 0 000 1.174 2.242 2.242 0 002.034 0 .622.622 0 000-1.174 2.251 2.251 0 00-2.034 0zm6-3a.622.622 0 000 1.174 2.242 2.242 0 002.034 0 .622.622 0 000-1.174 2.251 2.251 0 00-2.034 0zm5-2a.622.622 0 000 1.174 2.242 2.242 0 002.034 0 .622.622 0 000-1.174 2.251 2.251 0 00-2.034 0z" fill="#bdc1c6"/><path data-name="Path 1299" d="M1475.86 1830.604a.621.621 0 000 1.172 2.236 2.236 0 002.031 0 .618.618 0 000-1.172 2.246 2.246 0 00-2.031 0z" fill="#bdc1c6"/><path data-name="Path 1310" d="M1481.174 1827.54a.622.622 0 000 1.174 2.253 2.253 0 002.034 0 .622.622 0 000-1.174 2.245 2.245 0 00-2.034 0z" fill="#bdc1c6"/><path data-name="Path 1321" d="M1486.487 1824.469a.622.622 0 000 1.174 2.242 2.242 0 002.034 0 .622.622 0 000-1.174 2.251 2.251 0 00-2.034 0z" fill="#bdc1c6"/><path data-name="Path 1299" d="M1470.86 1827.604a.621.621 0 000 1.172 2.236 2.236 0 002.031 0 .618.618 0 000-1.172 2.246 2.246 0 00-2.031 0z" fill="#bdc1c6"/><path data-name="Path 1310" d="M1476.174 1824.54a.622.622 0 000 1.174 2.253 2.253 0 002.034 0 .622.622 0 000-1.174 2.245 2.245 0 00-2.034 0z" fill="#bdc1c6"/><path data-name="Path 1321" d="M1481.487 1821.469a.622.622 0 000 1.174 2.242 2.242 0 002.034 0 .622.622 0 000-1.174 2.251 2.251 0 00-2.034 0z" fill="#bdc1c6"/><path data-name="Path 1299" d="M1465.86 1824.604a.621.621 0 000 1.172 2.236 2.236 0 002.031 0 .618.618 0 000-1.172 2.246 2.246 0 00-2.031 0z" fill="#bdc1c6"/><path data-name="Path 1310" d="M1471.174 1821.54a.622.622 0 000 1.174 2.253 2.253 0 002.034 0 .622.622 0 000-1.174 2.245 2.245 0 00-2.034 0z" fill="#bdc1c6"/><path data-name="Path 1321" d="M1476.487 1818.469a.622.622 0 000 1.174 2.242 2.242 0 002.034 0 .622.622 0 000-1.174 2.251 2.251 0 00-2.034 0z" fill="#bdc1c6"/><path data-name="Path 1310" d="M1466.174 1818.54a.622.622 0 000 1.174 2.253 2.253 0 002.034 0 .622.622 0 000-1.174 2.245 2.245 0 00-2.034 0z" fill="#bdc1c6"/><path data-name="Path 1321" d="M1471.487 1815.469a.622.622 0 000 1.174 2.242 2.242 0 002.034 0 .622.622 0 000-1.174 2.251 2.251 0 00-2.034 0z" fill="#bdc1c6"/><path data-name="Path 1310" d="M1462.174 1815.54a.622.622 0 000 1.174 2.253 2.253 0 002.034 0 .622.622 0 000-1.174 2.245 2.245 0 00-2.034 0z" fill="#bdc1c6"/><path data-name="Path 1321" d="M1467.487 1812.469a.622.622 0 000 1.174 2.242 2.242 0 002.034 0 .622.622 0 000-1.174 2.251 2.251 0 00-2.034 0z" fill="#bdc1c6"/><path data-name="Path 1267" d="M1592.252 1867.515a.621.621 0 000 1.173 2.24 2.24 0 002.034 0 .622.622 0 000-1.173 2.25 2.25 0 00-2.034 0z" fill="#bdc1c6"/><path data-name="Path 1272" d="M1597.565 1864.449a.618.618 0 000 1.172 2.238 2.238 0 002.033 0 .618.618 0 000-1.172 2.238 2.238 0 00-2.034 0z" fill="#bdc1c6"/><path data-name="Path 1277" d="M1602.875 1861.381a.622.622 0 000 1.173 2.252 2.252 0 002.034 0 .622.622 0 000-1.173 2.243 2.243 0 00-2.036 0z" fill="#bdc1c6"/><path data-name="Path 1282" d="M1608.195 1858.313a.622.622 0 000 1.174 2.241 2.241 0 002.031 0 .622.622 0 000-1.174 2.246 2.246 0 00-2.03 0z" fill="#bdc1c6"/><path data-name="Path 1286" d="M1613.55 1855.212a.622.622 0 000 1.173 2.244 2.244 0 002.034 0 .622.622 0 000-1.173 2.252 2.252 0 00-2.034 0z" fill="#bdc1c6"/><path data-name="Path 1267" d="M1618.252 1852.515a.621.621 0 000 1.173 2.24 2.24 0 002.034 0 .622.622 0 000-1.173 2.25 2.25 0 00-2.034 0z" fill="#bdc1c6"/><path data-name="Path 1272" d="M1623.565 1849.449a.618.618 0 000 1.172 2.238 2.238 0 002.033 0 .618.618 0 000-1.172 2.238 2.238 0 00-2.034 0z" fill="#bdc1c6"/><path data-name="Path 1277" d="M1628.875 1846.381a.622.622 0 000 1.173 2.252 2.252 0 002.034 0 .622.622 0 000-1.173 2.243 2.243 0 00-2.036 0z" fill="#bdc1c6"/><path data-name="Path 1282" d="M1634.195 1843.313a.622.622 0 000 1.174 2.241 2.241 0 002.031 0 .622.622 0 000-1.174 2.246 2.246 0 00-2.03 0z" fill="#bdc1c6"/><path data-name="Path 1286" d="M1639.55 1840.212a.622.622 0 000 1.173 2.244 2.244 0 002.034 0 .622.622 0 000-1.173 2.252 2.252 0 00-2.034 0zm-47 33a.622.622 0 000 1.173 2.244 2.244 0 002.034 0 .622.622 0 000-1.173 2.252 2.252 0 00-2.034 0z" fill="#bdc1c6"/><path data-name="Path 1267" d="M1597.252 1870.515a.621.621 0 000 1.173 2.24 2.24 0 002.034 0 .622.622 0 000-1.173 2.25 2.25 0 00-2.034 0z" fill="#bdc1c6"/><path data-name="Path 1272" d="M1602.565 1867.449a.618.618 0 000 1.172 2.238 2.238 0 002.033 0 .618.618 0 000-1.172 2.238 2.238 0 00-2.034 0z" fill="#bdc1c6"/><path data-name="Path 1277" d="M1607.875 1864.381a.622.622 0 000 1.173 2.252 2.252 0 002.034 0 .622.622 0 000-1.173 2.243 2.243 0 00-2.036 0z" fill="#bdc1c6"/><path data-name="Path 1282" d="M1613.195 1861.313a.622.622 0 000 1.174 2.241 2.241 0 002.031 0 .622.622 0 000-1.174 2.246 2.246 0 00-2.03 0z" fill="#bdc1c6"/><path data-name="Path 1286" d="M1618.55 1858.212a.622.622 0 000 1.173 2.244 2.244 0 002.034 0 .622.622 0 000-1.173 2.252 2.252 0 00-2.034 0z" fill="#bdc1c6"/><path data-name="Path 1267" d="M1623.252 1855.515a.621.621 0 000 1.173 2.24 2.24 0 002.034 0 .622.622 0 000-1.173 2.25 2.25 0 00-2.034 0z" fill="#bdc1c6"/><path data-name="Path 1272" d="M1628.565 1852.449a.618.618 0 000 1.172 2.238 2.238 0 002.033 0 .618.618 0 000-1.172 2.238 2.238 0 00-2.034 0z" fill="#bdc1c6"/><path data-name="Path 1277" d="M1633.875 1849.381a.622.622 0 000 1.173 2.252 2.252 0 002.034 0 .622.622 0 000-1.173 2.243 2.243 0 00-2.036 0z" fill="#bdc1c6"/><path data-name="Path 1282" d="M1639.195 1846.313a.622.622 0 000 1.174 2.241 2.241 0 002.031 0 .622.622 0 000-1.174 2.246 2.246 0 00-2.03 0z" fill="#bdc1c6"/><path data-name="Path 1286" d="M1644.55 1843.212a.622.622 0 000 1.173 2.244 2.244 0 002.034 0 .622.622 0 000-1.173 2.252 2.252 0 00-2.034 0zm-15-9a.622.622 0 000 1.173 2.244 2.244 0 002.034 0 .622.622 0 000-1.173 2.252 2.252 0 00-2.034 0zm5 3a.622.622 0 000 1.173 2.244 2.244 0 002.034 0 .622.622 0 000-1.173 2.252 2.252 0 00-2.034 0z" fill="#bdc1c6"/><path data-name="Контур 10199" d="M1620.496 1816.869c0-2.216 0-5.529-.179-7.484s-.538-2.554-13.11-11.453-37.359-26.1-50.23-34.763-13.828-8.782-14.686-8.6-1.618.658-2.016 3.234a72.42 72.42 0 00-.4 9.718c.039 2.474.159 2.754 13.609 11.515s40.232 26 53.621 34.464 13.39 8.142 13.39 7.425v-4.056z" fill="#08243b" fill-rule="evenodd"/><path data-name="Контур 10200" d="M1633.548 1841.934a47.355 47.355 0 00-.363-11.686 20.879 20.879 0 00-3.542-8.726c-1.582-2.308-3.451-4.326-10.775-9.616s-20.106-13.851-35.221-24.129-32.568-22.275-41.972-28.56-10.761-6.858-12.057-7.115-2.533-.2-12.944 5.4-29.999 16.724-38.941 22.354-7.246 5.748-4.075 8.27 7.812 7.441 21.709 16.865 37.045 23.35 52.23 34.575 22.4 19.744 26.2 25.011 4.181 7.277 4.7 8.612 1.18 1.994 3.485 1.076 6.26-3.418 14.842-8.427 21.8-12.538 28.747-16.561 7.641-4.551 7.97-7.343z" fill="#2950af" fill-rule="evenodd"/><path data-name="Контур 10201" d="M1494.549 1794.161c-10.429-7.115-13.543-9.186-15.968-10.285s-4.151-1.232-5.59-.747a6.608 6.608 0 00-3.522 3.194 15.493 15.493 0 00-1.873 6.549 31.111 31.111 0 00.81 9.624 28.38 28.38 0 004.073 9.15 27.306 27.306 0 007.194 7.241 18.834 18.834 0 0011.352 3.627c4.813-.066 10.87-1.841 16.181-1.127a20.216 20.216 0 0112.868 7.743c2.993 3.822 4.412 8.258 9.992 14.028s15.319 12.875 24.086 18.557a188.174 188.174 0 0020.845 11.921c4.28 1.973 5.044 1.664 5.441.675s.432-2.652.224-5.562a43.888 43.888 0 00-1.959-10.847c-1.3-3.778-3.446-7.174-9.963-12.493s-17.398-12.563-31.71-22.263-32.054-21.87-42.484-28.987z" fill="#08243b" fill-rule="evenodd"/><path data-name="Контур 10202" d="M1541.991 1769.766c3.986 2.369 11.476 7.293 15.311 9.92s4.017 2.959 4.062 3.231-.044.482-5.692 3.835-16.85 9.844-22.725 13.107-6.418 3.29-6.962 3.261-1.087-.122-4.832-2.461-10.69-6.931-14.178-9.559-3.518-3.29-3.277-3.819.756-.922 6.358-4.153 16.292-9.3 21.88-12.427 6.068-3.307 10.057-.937z" fill="#abc5ff" fill-rule="evenodd"/><path data-name="Контур 10203" d="M1536.976 1816.276c1.45-.826 2.9-1.649 4.327-2.465s2.831-1.615 4.229-2.411a1.835 1.835 0 011.781.073c.392.268.786.541 1.18.81l1.188.815a.628.628 0 01-.033 1.146c-1.4.82-2.824 1.652-4.249 2.484l-4.347 2.541a1.827 1.827 0 01-1.846-.08c-.393-.288-.786-.581-1.175-.868l-1.166-.861a.658.658 0 01.11-1.183z" fill="#08243b" fill-rule="evenodd"/><path data-name="Контур 10204" d="M1548.142 1813.66l1.895-1.767v1.853l-1.895 1.378z" fill="#08243b" fill-rule="evenodd"/><path data-name="Контур 10205" d="M1538.442 1816.817l-1.895-1.768v1.853l1.895 1.724z" fill="#08243b" fill-rule="evenodd"/><path data-name="Контур 10206" d="M1536.976 1814.487c1.45-.826 2.9-1.649 4.327-2.465s2.831-1.615 4.229-2.411a1.835 1.835 0 011.781.073c.392.268.786.541 1.18.81l1.188.815a.628.628 0 01-.033 1.146c-1.4.82-2.824 1.652-4.249 2.484l-4.347 2.541a1.827 1.827 0 01-1.846-.08c-.393-.288-.786-.581-1.175-.868l-1.166-.861a.658.658 0 01.11-1.183z" fill="#abc5ff" fill-rule="evenodd"/><path data-name="Контур 10207" d="M1546.223 1821.498c1.45-.826 2.9-1.649 4.327-2.465s2.831-1.615 4.229-2.411a1.836 1.836 0 011.781.073c.391.268.786.541 1.18.81l1.188.815a.628.628 0 01-.033 1.146c-1.4.82-2.824 1.652-4.25 2.484l-4.347 2.541a1.827 1.827 0 01-1.846-.08c-.393-.288-.786-.581-1.175-.868l-1.166-.861a.658.658 0 01.11-1.183z" fill="#08243b" fill-rule="evenodd"/><path data-name="Контур 10208" d="M1557.39 1818.882l1.895-1.767v1.853l-1.895 1.378z" fill="#08243b" fill-rule="evenodd"/><path data-name="Контур 10209" d="M1547.689 1822.034l-1.895-1.768v1.853l1.895 1.724z" fill="#08243b" fill-rule="evenodd"/><path data-name="Контур 10210" d="M1546.223 1819.704c1.45-.826 2.9-1.649 4.327-2.465s2.831-1.615 4.229-2.411a1.836 1.836 0 011.781.073c.391.268.786.541 1.18.81l1.188.815a.628.628 0 01-.033 1.146c-1.4.82-2.824 1.652-4.25 2.484l-4.346 2.541a1.827 1.827 0 01-1.846-.08c-.393-.288-.786-.581-1.175-.868l-1.166-.861a.658.658 0 01.11-1.183z" fill="#abc5ff" fill-rule="evenodd"/><path data-name="Контур 10211" d="M1555.191 1826.779c1.45-.826 2.9-1.649 4.327-2.465s2.831-1.615 4.229-2.411a1.835 1.835 0 011.781.073c.391.268.786.541 1.18.81s.792.542 1.188.815a.628.628 0 01-.033 1.146c-1.4.82-2.824 1.652-4.25 2.484l-4.347 2.541a1.827 1.827 0 01-1.846-.08c-.393-.288-.786-.581-1.175-.868l-1.166-.861a.658.658 0 01.11-1.183z" fill="#08243b" fill-rule="evenodd"/><path data-name="Контур 10212" d="M1566.358 1824.164l1.895-1.768v1.853l-1.895 1.38z" fill="#08243b" fill-rule="evenodd"/><path data-name="Контур 10213" d="M1556.657 1827.318l-1.895-1.767v1.853l1.895 1.723z" fill="#08243b" fill-rule="evenodd"/><path data-name="Контур 10214" d="M1555.191 1824.989c1.45-.826 2.9-1.649 4.327-2.465s2.831-1.615 4.229-2.411a1.835 1.835 0 011.781.073c.391.268.786.541 1.18.81l1.188.815a.628.628 0 01-.033 1.146c-1.4.82-2.824 1.652-4.25 2.484l-4.347 2.541a1.827 1.827 0 01-1.846-.08c-.393-.288-.786-.581-1.175-.868l-1.166-.861a.658.658 0 01.11-1.183z" fill="#abc5ff" fill-rule="evenodd"/><path data-name="Контур 10215" d="M1563.774 1831.397c1.45-.826 2.9-1.649 4.327-2.465s2.831-1.615 4.229-2.411a1.835 1.835 0 011.781.073c.392.268.786.541 1.18.81l1.188.815a.628.628 0 01-.033 1.146c-1.4.82-2.824 1.652-4.25 2.484l-4.347 2.541a1.827 1.827 0 01-1.846-.08c-.393-.288-.786-.581-1.175-.868l-1.166-.861a.658.658 0 01.11-1.183z" fill="#08243b" fill-rule="evenodd"/><path data-name="Контур 10216" d="M1574.94 1828.781l1.895-1.767v1.853l-1.895 1.377z" fill="#08243b" fill-rule="evenodd"/><path data-name="Контур 10217" d="M1565.239 1831.936l-1.895-1.768v1.853l1.895 1.722z" fill="#08243b" fill-rule="evenodd"/><path data-name="Контур 10218" d="M1563.774 1829.606c1.45-.826 2.9-1.649 4.327-2.465s2.831-1.615 4.229-2.411a1.835 1.835 0 011.781.073c.392.268.786.541 1.18.81l1.188.815a.628.628 0 01-.033 1.146c-1.4.82-2.824 1.652-4.25 2.484l-4.347 2.541a1.827 1.827 0 01-1.846-.08c-.393-.288-.786-.581-1.175-.868l-1.166-.86a.658.658 0 01.11-1.183z" fill="#ff5833" fill-rule="evenodd"/><g fill-rule="evenodd"><path data-name="Контур 10219" d="M1551.988 1807.064c1.45-.826 2.9-1.649 4.327-2.465s2.831-1.615 4.229-2.411a1.835 1.835 0 011.781.073c.392.268.786.541 1.18.81l1.188.815a.628.628 0 01-.033 1.146c-1.4.82-2.824 1.652-4.25 2.484l-4.347 2.541a1.827 1.827 0 01-1.846-.08c-.393-.288-.786-.581-1.175-.868l-1.166-.861a.658.658 0 01.11-1.183z" fill="#08243b"/><path data-name="Контур 10220" d="M1563.155 1804.448l1.895-1.767v1.853l-1.895 1.378z" fill="#08243b"/><path data-name="Контур 10221" d="M1553.454 1807.603l-1.895-1.768v1.853l1.895 1.724z" fill="#08243b"/><path data-name="Контур 10222" d="M1551.988 1805.277c1.45-.826 2.9-1.649 4.327-2.465s2.831-1.615 4.229-2.411a1.835 1.835 0 011.781.073c.392.268.786.541 1.18.81l1.188.815a.628.628 0 01-.033 1.146c-1.4.82-2.824 1.652-4.25 2.484l-4.347 2.541a1.827 1.827 0 01-1.846-.08c-.393-.288-.786-.581-1.175-.868l-1.166-.861a.658.658 0 01.11-1.183z" fill="#abc5ff"/></g><g fill-rule="evenodd"><path data-name="Контур 10223" d="M1561.236 1812.284c1.45-.826 2.9-1.649 4.327-2.465s2.831-1.615 4.229-2.411a1.836 1.836 0 011.781.073c.392.268.786.541 1.18.81l1.188.815a.628.628 0 01-.033 1.146c-1.4.82-2.824 1.652-4.25 2.484l-4.347 2.541a1.827 1.827 0 01-1.846-.08c-.393-.288-.786-.581-1.175-.868l-1.166-.861a.658.658 0 01.11-1.183z" fill="#08243b"/><path data-name="Контур 10224" d="M1572.403 1809.667l1.895-1.767v1.853l-1.895 1.378z" fill="#08243b"/><path data-name="Контур 10225" d="M1562.702 1812.822l-1.895-1.768v1.853l1.895 1.724z" fill="#08243b"/><path data-name="Контур 10226" d="M1561.236 1810.492c1.45-.826 2.9-1.649 4.327-2.465s2.829-1.612 4.229-2.412a1.835 1.835 0 011.781.073c.392.268.786.541 1.18.81l1.188.815a.628.628 0 01-.033 1.146c-1.4.82-2.824 1.652-4.25 2.484l-4.347 2.541a1.827 1.827 0 01-1.846-.08c-.393-.288-.786-.581-1.175-.868l-1.166-.861a.658.658 0 01.11-1.183z" fill="#abc5ff"/></g><g fill-rule="evenodd"><path data-name="Контур 10227" d="M1570.204 1817.567c1.45-.826 2.9-1.649 4.327-2.465s2.831-1.615 4.229-2.411a1.835 1.835 0 011.781.073c.392.268.786.541 1.18.81l1.188.815a.628.628 0 01-.033 1.146c-1.4.82-2.824 1.652-4.25 2.484l-4.346 2.541a1.827 1.827 0 01-1.846-.08c-.393-.288-.786-.581-1.175-.868l-1.166-.861a.658.658 0 01.11-1.183z" fill="#08243b"/><path data-name="Контур 10228" d="M1581.371 1814.952l1.895-1.768v1.853l-1.895 1.38z" fill="#08243b"/><path data-name="Контур 10229" d="M1571.67 1818.106l-1.895-1.767v1.853l1.895 1.723z" fill="#08243b"/><path data-name="Контур 10230" d="M1570.204 1815.777c1.45-.826 2.9-1.649 4.327-2.465s2.831-1.615 4.229-2.411a1.835 1.835 0 011.781.073c.392.268.786.541 1.18.81l1.188.815a.628.628 0 01-.033 1.146c-1.4.82-2.824 1.652-4.25 2.484l-4.347 2.541a1.827 1.827 0 01-1.846-.08c-.393-.288-.786-.581-1.175-.868l-1.166-.861a.658.658 0 01.11-1.183z" fill="#abc5ff"/></g><g fill-rule="evenodd"><path data-name="Контур 10231" d="M1578.786 1822.186c1.45-.826 2.9-1.649 4.327-2.465s2.831-1.615 4.229-2.411a1.835 1.835 0 011.781.073c.392.268.786.541 1.18.81l1.188.815a.628.628 0 01-.033 1.146c-1.4.82-2.824 1.652-4.25 2.484l-4.346 2.541a1.827 1.827 0 01-1.846-.08c-.393-.288-.786-.581-1.175-.868l-1.166-.86a.658.658 0 01.11-1.183z" fill="#08243b"/><path data-name="Контур 10232" d="M1589.953 1819.569l1.895-1.767v1.853l-1.895 1.378z" fill="#08243b"/><path data-name="Контур 10233" d="M1580.247 1822.726l-1.895-1.768v1.853l1.895 1.722z" fill="#08243b"/><path data-name="Контур 10234" d="M1578.786 1820.394c1.45-.826 2.9-1.649 4.327-2.465s2.831-1.615 4.229-2.411a1.835 1.835 0 011.781.073c.392.268.786.541 1.18.81l1.188.815a.628.628 0 01-.033 1.146c-1.4.82-2.824 1.652-4.25 2.484l-4.347 2.541a1.827 1.827 0 01-1.846-.08c-.393-.288-.786-.581-1.175-.868l-1.166-.861a.658.658 0 01.11-1.183z" fill="#ff5833"/></g><g fill-rule="evenodd"><path data-name="Контур 10235" d="M1567.003 1797.67c1.45-.826 2.9-1.649 4.327-2.465s2.831-1.615 4.229-2.411a1.835 1.835 0 011.781.073c.392.268.786.541 1.18.81l1.188.815a.628.628 0 01-.033 1.146c-1.4.82-2.824 1.652-4.249 2.484l-4.347 2.541a1.827 1.827 0 01-1.846-.08c-.393-.288-.786-.581-1.175-.868l-1.166-.861a.658.658 0 01.11-1.183z" fill="#08243b"/><path data-name="Контур 10236" d="M1578.17 1795.053l1.895-1.767v1.852l-1.895 1.38z" fill="#08243b"/><path data-name="Контур 10237" d="M1568.469 1798.208l-1.895-1.768v1.853l1.895 1.722z" fill="#08243b"/><path data-name="Контур 10238" d="M1567.003 1795.878c1.45-.826 2.9-1.649 4.327-2.465s2.831-1.615 4.229-2.411a1.835 1.835 0 011.781.073c.392.268.786.541 1.18.81l1.188.815a.628.628 0 01-.033 1.146c-1.4.82-2.824 1.652-4.249 2.484l-4.347 2.541a1.827 1.827 0 01-1.846-.08c-.393-.288-.786-.581-1.175-.868l-1.166-.861a.658.658 0 01.11-1.183z" fill="#abc5ff"/></g><g fill-rule="evenodd"><path data-name="Контур 10239" d="M1576.251 1802.889c1.45-.826 2.9-1.649 4.327-2.465s2.831-1.615 4.229-2.411a1.835 1.835 0 011.781.073c.391.268.786.541 1.18.81l1.188.815a.628.628 0 01-.033 1.146c-1.4.82-2.824 1.652-4.25 2.484l-4.347 2.541a1.827 1.827 0 01-1.846-.08c-.393-.288-.786-.581-1.175-.868l-1.166-.861a.658.658 0 01.11-1.183z" fill="#08243b"/><path data-name="Контур 10240" d="M1587.418 1800.272l1.895-1.768v1.853l-1.895 1.38z" fill="#08243b"/><path data-name="Контур 10241" d="M1577.717 1803.426l-1.895-1.767v1.853l1.895 1.722z" fill="#08243b"/><path data-name="Контур 10242" d="M1576.251 1801.097c1.45-.826 2.9-1.649 4.327-2.465s2.831-1.615 4.229-2.411a1.835 1.835 0 011.781.073c.391.268.786.541 1.18.81l1.188.815a.628.628 0 01-.033 1.146c-1.4.82-2.824 1.652-4.25 2.484l-4.347 2.541a1.827 1.827 0 01-1.846-.08c-.393-.288-.786-.581-1.175-.868l-1.166-.861a.658.658 0 01.11-1.183z" fill="#abc5ff"/></g><g fill-rule="evenodd"><path data-name="Контур 10243" d="M1585.219 1808.175c1.45-.826 2.9-1.649 4.327-2.465s2.831-1.615 4.229-2.411a1.835 1.835 0 011.781.073c.392.268.786.541 1.18.81l1.188.815a.628.628 0 01-.033 1.146c-1.4.82-2.824 1.652-4.25 2.484l-4.347 2.541a1.827 1.827 0 01-1.846-.08c-.393-.288-.786-.581-1.175-.868l-1.166-.861a.658.658 0 01.11-1.183z" fill="#08243b"/><path data-name="Контур 10244" d="M1596.386 1805.559l1.895-1.768v1.853l-1.895 1.38z" fill="#08243b"/><path data-name="Контур 10245" d="M1586.685 1808.711l-1.895-1.768v1.853l1.895 1.724z" fill="#08243b"/><path data-name="Контур 10246" d="M1585.219 1806.382c1.45-.826 2.9-1.649 4.327-2.465s2.831-1.615 4.229-2.411a1.835 1.835 0 011.781.073c.392.268.786.541 1.18.81l1.188.815a.628.628 0 01-.033 1.146c-1.4.82-2.824 1.652-4.25 2.484l-4.347 2.541a1.827 1.827 0 01-1.846-.08c-.393-.288-.786-.581-1.175-.868l-1.166-.861a.658.658 0 01.11-1.183z" fill="#abc5ff"/></g><g fill-rule="evenodd"><path data-name="Контур 10247" d="M1593.797 1812.788c1.45-.826 2.9-1.649 4.327-2.465s2.831-1.615 4.229-2.411a1.835 1.835 0 011.781.073c.392.268.786.541 1.18.81l1.188.815a.628.628 0 01-.033 1.146c-1.4.82-2.824 1.652-4.25 2.484l-4.347 2.541a1.827 1.827 0 01-1.846-.08c-.393-.288-.786-.581-1.175-.868l-1.166-.861a.658.658 0 01.11-1.183z" fill="#08243b"/><path data-name="Контур 10248" d="M1604.968 1810.173l1.895-1.768v1.853l-1.895 1.38z" fill="#08243b"/><path data-name="Контур 10249" d="M1595.267 1813.327l-1.895-1.767v1.853l1.895 1.722z" fill="#08243b"/><path data-name="Контур 10250" d="M1593.797 1810.998c1.45-.826 2.9-1.649 4.327-2.465s2.831-1.615 4.229-2.411a1.835 1.835 0 011.781.073c.392.268.786.541 1.18.81l1.188.815a.628.628 0 01-.033 1.146c-1.4.82-2.824 1.652-4.25 2.484l-4.342 2.541a1.827 1.827 0 01-1.846-.08c-.393-.288-.786-.581-1.175-.868l-1.166-.861a.658.658 0 01.11-1.183z" fill="#ff5833"/></g><path data-name="Контур 10251" d="M1585.861 1865.085a19.208 19.208 0 01.063-3.809c.208-1.226.721-2.022 7.2-5.939s18.933-10.951 25.665-14.67 7.749-4.119 8.647-4.03a2.681 2.681 0 012.081 1.438 4.839 4.839 0 01.4 2.364c-.026.628-.106.924-7.451 5.2s-21.946 12.517-29.246 16.543-7.306 3.829-7.356 2.9z" fill="#1d1d1b" fill-rule="evenodd"/><g data-name="Сгруппировать 411" transform="translate(1585.796 1836.625)" clip-path="url(#b)"><path data-name="1" d="M-1.763 27.762c2.655 1.73 7.506 4.786 12.3 5.885s9.543.241 16.531-3.766 16.215-11.165 21.28-14.944 5.969-4.181 1.112-7.116S33.991-.579 27.934-2.39s-7.56.039-12.277 4.651S3.006 14.241-1.03 18.53s-4.168 5.493-4.007 6.3.62 1.202 3.274 2.932z" fill="#08243b" fill-rule="evenodd"/></g><path data-name="Контур 10253" d="M1585.861 1865.085a19.208 19.208 0 01.063-3.809c.208-1.226.721-2.022 7.2-5.939s18.933-10.951 25.665-14.67 7.749-4.119 8.647-4.03a2.681 2.681 0 012.081 1.438 4.839 4.839 0 01.4 2.364c-.026.628-.106.924-7.451 5.2s-21.946 12.517-29.246 16.543-7.306 3.829-7.356 2.9z" fill="none"/></g></svg>