<svg xmlns="http://www.w3.org/2000/svg" width="271" height="350"><defs><linearGradient id="b" x1=".5" y1=".903" x2=".5" y2=".097" gradientUnits="objectBoundingBox"><stop offset="0" stop-color="#3d316f"/><stop offset="1" stop-color="#5f4d99"/></linearGradient><linearGradient id="c" y1=".45" x2=".937" y2=".541" gradientUnits="objectBoundingBox"><stop offset="0" stop-color="#4e3e8e"/><stop offset="1" stop-color="#634e99"/></linearGradient><clipPath id="a"><path transform="translate(681 1826)" fill="#fff" stroke="#707070" d="M0 0h271v350H0z"/></clipPath><style>.c{fill:#bdc1c6}.d{fill:#dadce0}.e{fill:#e8eaed}.f{fill:#ff5833}.g{fill:#2950af}.h{fill:#5786ed}.i{fill:#abc5ff}.j{fill:#d4492a}.k{fill:#f7f5f6}.l{fill:#fefefe}.n{fill:#4d7828}.r{fill:#dfeefb}.t{fill-rule:evenodd;fill:url(#c)}.u{fill:#0d346b}.v{fill:#4766a2}.w{fill:#2f3e74}</style></defs><g transform="translate(-681 -1826)" clip-path="url(#a)"><path class="c" d="M799.886 2285.917v-276.529l-103.05-.061v276.1c-.13 1.608.991 3.338 3.3 4.676l40.956 23.642c4.007 2.321 10.082 2.573 13.55.565l42.9-24.772c1.669-.965 2.425-2.269 2.329-3.625z"/><path class="d" d="M799.886 2285.917v-275.625a.953.953 0 00-.956-.956l-7.91-.009-42.659 18.854v287.47a12.3 12.3 0 006.284-1.339l42.9-24.772a4.118 4.118 0 002.332-3.159v-.435a.052.052 0 00-.009-.035z"/><path class="e" d="M797.565 2012.961l-42.902 24.775c-3.468 2-9.54 1.752-13.551-.56l-40.955-23.65c-4.007-2.312-4.45-5.815-.973-7.823l42.902-24.767c3.477-2.008 9.544-1.756 13.559.556l40.956 23.644c4.007 2.312 4.45 5.815.973 7.823z"/><path class="f" d="M775.575 2005.807l-4.564-2.633 16.828-9.718a.88.88 0 000-1.669l-17.192-9.926a3.185 3.185 0 00-2.886 0l-16.827 9.718-4.563-2.634 16.827-9.717a13.293 13.293 0 0112.012 0l17.192 9.928c3.312 1.912 3.312 5.024 0 6.936l-16.827 9.715z"/><path class="g" d="M782.937 2006.964a7.929 7.929 0 00-3.312-6.328l-30.491-17.601a2.139 2.139 0 00-2.147-.183l-36.401 21.153 35.2 26.527 35.862-20.817a1.4 1.4 0 00.313-.183 3.118 3.118 0 00.973-2.564z"/><path class="h" d="M745.789 2030.527l35.862-20.817a1.4 1.4 0 00.313-.183 3.118 3.118 0 00.973-2.564 8.038 8.038 0 00-.9-3.52l-40.872 23.594 4.624 3.485z"/><path class="i" d="M743.493 2030.431l-30.482-17.6a7.918 7.918 0 01-3.312-6.328c0-2.442 1.486-3.564 3.312-2.5l30.482 17.594a7.905 7.905 0 013.312 6.328c0 2.442-1.486 3.564-3.312 2.5z"/><path class="g" d="M738.93 2024.494l-3.668-2.112a1.574 1.574 0 01-.661-1.26c0-.487.3-.713.661-.5l3.668 2.112a1.574 1.574 0 01.661 1.26c0 .487-.3.713-.661.5z"/><path class="j" d="M747.196 1974.448l-28.57-16.489a1.463 1.463 0 00-1.478-.121v-.018l-2.773 1.6s1.226.443 1.947.713v20.8a5.49 5.49 0 002.295 4.389l27.3 15.758v2.442l2.8-1.608-.017-.009a2.043 2.043 0 00.774-1.834v-21.243a5.49 5.49 0 00-2.295-4.389z"/><path class="f" d="M744.371 2003.443l-28.561-16.489a5.49 5.49 0 01-2.295-4.389v-21.243c0-1.695 1.026-2.468 2.295-1.738l28.561 16.488a5.5 5.5 0 012.295 4.389v21.246c0 1.692-1.026 2.466-2.295 1.736z"/><path class="k" d="M725.415 1979.628c0 1.226-.86 1.73-1.93 1.113a4.282 4.282 0 01-1.93-3.338c0-1.226.86-1.73 1.93-1.113a4.282 4.282 0 011.93 3.338zm5.841 3.372c0 1.226-.86 1.73-1.93 1.113a4.282 4.282 0 01-1.93-3.338c0-1.234.869-1.73 1.93-1.113a4.282 4.282 0 011.93 3.338zm5.841 3.373c0 1.226-.86 1.73-1.93 1.113a4.282 4.282 0 01-1.93-3.338c0-1.226.86-1.721 1.93-1.113a4.282 4.282 0 011.93 3.338z"/><path class="c" d="M964.429 2309.768v-245.299l-119.155-.07v244.8c-.148 1.86 1.139 3.868 3.816 5.406l47.361 27.344c4.641 2.677 11.656 2.973 15.671.652l49.613-28.639c1.93-1.113 2.807-2.625 2.695-4.2z"/><path class="d" d="M964.429 2309.768v-244.256a1.105 1.105 0 00-1.1-1.1l-9.144-.009-49.326 21.8v257.949a14.171 14.171 0 007.275-1.547l49.613-28.639a4.771 4.771 0 002.694-3.659v-.5c0-.017-.009-.026-.009-.043h.009z"/><path class="e" d="M961.735 2068.606l-49.613 28.639c-4.016 2.321-11.03 2.025-15.671-.652l-47.361-27.344c-4.641-2.677-5.146-6.727-1.13-9.048l49.612-28.638c4.016-2.321 11.03-2.025 15.671.652l47.361 27.344c4.641 2.677 5.146 6.727 1.13 9.048z"/><path class="c" d="M742.103 2125.632v-8.361l-88.43-.052v8.005c-.113 1.382.843 2.868 2.834 4.016l35.152 20.295c3.442 1.99 8.648 2.208 11.63.478l36.818-21.26a3.36 3.36 0 002-3.112z"/><path class="d" d="M742.103 2125.632v-7.6a.816.816 0 00-.817-.817h-6.788l-36.61 16.179v17.757a10.516 10.516 0 005.4-1.147l36.818-21.26a3.531 3.531 0 002-2.712v-.4z"/><path class="e" d="M740.104 2120.331l-36.818 21.26c-2.981 1.721-8.188 1.5-11.63-.487l-35.149-20.3c-3.442-1.99-3.816-4.989-.834-6.719l36.818-21.26c2.981-1.721 8.188-1.5 11.63.487l35.15 20.3c3.442 1.99 3.816 5 .834 6.719z"/><path class="l" d="M702.21 2079.252l-1.391-.8a.8.8 0 01-.339-.643v-1.486c0-.243.148-.365.339-.252l1.391.8a.82.82 0 01.339.643V2079c-.003.252-.151.365-.339.252z"/><path d="M697.557 2076.567l-1.391-.8a.82.82 0 01-.339-.643v-1.486c0-.252.148-.365.339-.252l1.391.8a.82.82 0 01.339.643v1.486c0 .252-.148.365-.339.252z" fill="#3f6aa9"/><path class="h" d="M672.482 2118.324v-7.468l16.732-.009 5.789-3.338a5.759 5.759 0 015.18.217l5.4 3.12 16.75-.008v7.675a1.516 1.516 0 01-.887 1.391l-21.637 12.49a5.759 5.759 0 01-5.18-.217l-20.887-12.065c-.887-.513-1.312-1.173-1.26-1.79z"/><path class="h" d="M697.41 2106.997a5.957 5.957 0 012.773.73l5.4 3.12 16.749-.009v7.675a1.516 1.516 0 01-.887 1.391l-21.634 12.49a4.693 4.693 0 01-2.408.513v-25.901z"/><path class="g" d="M720.443 2110.829h1.895v7.675a1.516 1.516 0 01-.887 1.391l-1.008.582zm-20.964 21.713a5.9 5.9 0 01-4.137-.052v-8.718h4.137v8.761z"/><path class="i" d="M699.817 2124.736l21.634-12.49c1.33-.765 1.165-2.1-.374-2.99l-20.886-12.064a5.759 5.759 0 00-5.18-.217l-21.634 12.49c-1.33.765-1.165 2.1.374 2.99l20.882 12.064a5.759 5.759 0 005.184.217z"/><path class="j" d="M699.426 2122.486l18.131-10.465c1.113-.643.973-1.764-.313-2.5l-17.505-10.112a4.8 4.8 0 00-4.337-.183l-18.128 10.465c-1.113.643-.973 1.764.313 2.5l17.505 10.109a4.825 4.825 0 004.337.183z"/><path class="h" d="M672.482 2106.389v-7.466l16.731-.009 5.789-3.34a5.759 5.759 0 015.18.217l5.4 3.12 16.751-.006v7.675a1.516 1.516 0 01-.89 1.394l-21.634 12.49a5.759 5.759 0 01-5.18-.217l-20.887-12.068c-.887-.513-1.312-1.173-1.26-1.79z"/><path class="h" d="M697.41 2095.063a5.957 5.957 0 012.773.73l5.4 3.12 16.749-.009v7.671a1.516 1.516 0 01-.887 1.391l-21.634 12.49a4.693 4.693 0 01-2.408.513v-25.894z"/><path class="g" d="M720.443 2098.905h1.895v7.675a1.516 1.516 0 01-.887 1.391l-1.008.582zm-20.964 21.711a5.949 5.949 0 01-4.137-.043v-8.718h4.137z"/><path class="i" d="M699.817 2112.803l21.634-12.49c1.33-.765 1.165-2.1-.374-2.99l-20.886-12.055a5.759 5.759 0 00-5.18-.217l-21.634 12.489c-1.33.765-1.165 2.1.374 2.99l20.882 12.056a5.759 5.759 0 005.184.217z"/><path class="j" d="M699.426 2110.547l18.131-10.46c1.113-.643.973-1.764-.313-2.5l-17.505-10.112a4.824 4.824 0 00-4.337-.183l-18.128 10.465c-1.113.643-.973 1.764.313 2.5l17.505 10.109a4.822 4.822 0 004.337.174z"/><path class="h" d="M672.482 2094.463v-7.466l16.732-.009 5.789-3.338a5.759 5.759 0 015.18.217l5.4 3.12 16.75-.008v7.675a1.516 1.516 0 01-.887 1.391l-21.634 12.49a5.759 5.759 0 01-5.18-.217l-20.89-12.064c-.887-.513-1.312-1.173-1.26-1.79z"/><path class="h" d="M697.41 2083.137a5.957 5.957 0 012.773.73l5.4 3.12 16.749-.009v7.675a1.516 1.516 0 01-.887 1.391l-21.634 12.49a4.693 4.693 0 01-2.408.513v-25.9z"/><path class="g" d="M720.443 2086.971h1.895v7.675a1.516 1.516 0 01-.887 1.391l-1.008.582zm-20.964 21.721a5.949 5.949 0 01-4.137-.043v-8.718h4.137z"/><path class="f" d="M699.817 2100.878l21.634-12.49c1.33-.765 1.165-2.1-.374-2.99l-20.886-12.064a5.759 5.759 0 00-5.18-.217l-21.634 12.492c-1.33.765-1.165 2.1.374 2.99l20.882 12.053a5.759 5.759 0 005.18.217z"/><path class="i" d="M673.742 2087.136l20.89 12.061a5.759 5.759 0 005.18.217l21.63-12.487a2.016 2.016 0 00.661-.591 1.4 1.4 0 01-.661 2.06l-21.634 12.49a5.759 5.759 0 01-5.18-.217l-20.886-12.056c-1.191-.687-1.556-1.651-1.034-2.408a2.9 2.9 0 001.034.939z"/><path class="f" d="M698.531 2093.133l10.126-5.85c.626-.356.548-.982-.174-1.4l-9.77-5.641a2.7 2.7 0 00-2.425-.1l-10.126 5.85c-.626.356-.539.982.174 1.4l9.778 5.641a2.7 2.7 0 002.425.1z"/><path class="j" d="M697.566 2088.24l1.4-.808c.087-.052.07-.139-.026-.191l-1.356-.782a.39.39 0 00-.339-.017l-1.4.808c-.087.052-.078.139.026.191l1.356.782a.4.4 0 00.33.017z"/><path class="j" d="M708.657 2087.284l-.026.017-.148-.1-9.77-5.641a2.7 2.7 0 00-2.425-.1l-10.092 5.824c-.574-.409-.6-.965-.026-1.3l10.126-5.853a2.7 2.7 0 012.425.1l9.77 5.641c.721.417.8 1.043.174 1.4z"/><path class="n" d="M899.502 2457.857v-338.97l-174.852-.1v338.253c-.226 2.729 1.678 5.667 5.6 7.936l69.5 40.13c6.806 3.929 17.105 4.355 23 .956l72.8-42.033c2.834-1.634 4.12-3.859 3.946-6.162z"/><path d="M899.502 2457.858v-337.45a1.628 1.628 0 00-1.625-1.625l-13.42-.009-72.386 31.986v357.557a20.848 20.848 0 0010.673-2.269l72.8-42.033c2.5-1.443 3.8-3.346 3.955-5.363v-.73c0-.017-.009-.043-.009-.061z" fill="#75a100"/><path d="M895.556 2124.937l-72.8 42.033c-5.893 3.4-16.193 2.973-23-.956l-69.5-40.121c-6.806-3.929-7.544-9.874-1.651-13.281l72.8-42.033c5.893-3.4 16.193-2.973 23 .956l69.5 40.121c6.805 3.929 7.544 9.874 1.651 13.281z" fill="#8cb811"/><path class="n" d="M793.584 2118.662a.675.675 0 000 1.278 2.467 2.467 0 002.208 0 .675.675 0 000-1.278 2.467 2.467 0 00-2.208 0zm-5.772-3.338a.675.675 0 000 1.278 2.467 2.467 0 002.208 0 .675.675 0 000-1.278 2.413 2.413 0 00-2.208 0zm-5.772-3.329a.675.675 0 000 1.278 2.413 2.413 0 002.208 0 .675.675 0 000-1.278 2.467 2.467 0 00-2.208 0zm-5.77-3.332a.675.675 0 000 1.278 2.467 2.467 0 002.208 0 .675.675 0 000-1.278 2.467 2.467 0 00-2.208 0zm23.086 6.661a.675.675 0 000 1.278 2.467 2.467 0 002.208 0 .675.675 0 000-1.278 2.413 2.413 0 00-2.208 0zm-5.772-3.329a.675.675 0 000 1.278 2.413 2.413 0 002.208 0 .675.675 0 000-1.278 2.467 2.467 0 00-2.208 0zm-5.772-3.332a.675.675 0 000 1.278 2.467 2.467 0 002.208 0 .675.675 0 000-1.278 2.467 2.467 0 00-2.208 0zm-5.772-3.334a.669.669 0 000 1.269 2.413 2.413 0 002.208 0 .669.669 0 000-1.269 2.413 2.413 0 00-2.208 0zm23.087 6.666a.675.675 0 000 1.278 2.413 2.413 0 002.208 0 .675.675 0 000-1.278 2.467 2.467 0 00-2.208 0zm-5.771-3.332a.675.675 0 000 1.278 2.467 2.467 0 002.208 0 .675.675 0 000-1.278 2.467 2.467 0 00-2.208 0zm-5.772-3.334a.669.669 0 000 1.269 2.413 2.413 0 002.208 0 .669.669 0 000-1.269 2.413 2.413 0 00-2.208 0zm-5.772-3.329a.675.675 0 000 1.278 2.467 2.467 0 002.208 0 .675.675 0 000-1.278 2.467 2.467 0 00-2.208 0zm23.087 6.663a.675.675 0 000 1.278 2.467 2.467 0 002.208 0 .675.675 0 000-1.278 2.467 2.467 0 00-2.208 0zm-5.772-3.334a.669.669 0 000 1.269 2.413 2.413 0 002.208 0 .669.669 0 000-1.269 2.413 2.413 0 00-2.208 0zm-5.771-3.329a.675.675 0 000 1.278 2.467 2.467 0 002.208 0 .675.675 0 000-1.278 2.467 2.467 0 00-2.208 0zm-5.772-3.338a.675.675 0 000 1.278 2.467 2.467 0 002.208 0 .675.675 0 000-1.278 2.467 2.467 0 00-2.208 0zm23.086 6.667a.669.669 0 000 1.269 2.413 2.413 0 002.208 0 .669.669 0 000-1.269 2.413 2.413 0 00-2.208 0zm-5.771-3.329a.675.675 0 000 1.278 2.467 2.467 0 002.208 0 .675.675 0 000-1.278 2.467 2.467 0 00-2.208 0zm-5.772-3.338a.675.675 0 000 1.278 2.467 2.467 0 002.208 0 .675.675 0 000-1.278 2.467 2.467 0 00-2.208 0zm-5.771-3.329a.675.675 0 000 1.278 2.413 2.413 0 002.208 0 .675.675 0 000-1.278 2.467 2.467 0 00-2.208 0zm23.137 6.632a.675.675 0 000 1.278 2.467 2.467 0 002.208 0 .675.675 0 000-1.278 2.413 2.413 0 00-2.208 0zm-5.772-3.329a.669.669 0 000 1.269 2.413 2.413 0 002.208 0 .669.669 0 000-1.269 2.413 2.413 0 00-2.208 0zm-5.77-3.337a.675.675 0 000 1.278 2.467 2.467 0 002.208 0 .675.675 0 000-1.278 2.467 2.467 0 00-2.208 0zm-5.772-3.329a.675.675 0 000 1.278 2.467 2.467 0 002.208 0 .675.675 0 000-1.278 2.413 2.413 0 00-2.208 0zm17.314 3.329a.675.675 0 000 1.278 2.467 2.467 0 002.208 0 .675.675 0 000-1.278 2.467 2.467 0 00-2.208 0zm-5.772-3.329a.675.675 0 000 1.278 2.467 2.467 0 002.208 0 .675.675 0 000-1.278 2.413 2.413 0 00-2.208 0zm-52.219 36.148a.675.675 0 000 1.278 2.413 2.413 0 002.208 0 .675.675 0 000-1.278 2.467 2.467 0 00-2.208 0zm-5.772-3.328a.675.675 0 000 1.278 2.467 2.467 0 002.208 0 .675.675 0 000-1.278 2.467 2.467 0 00-2.208 0zm17.315 3.328a.675.675 0 000 1.278 2.413 2.413 0 002.208 0 .675.675 0 000-1.278 2.467 2.467 0 00-2.208 0zm-5.772-3.328a.675.675 0 000 1.278 2.467 2.467 0 002.208 0 .675.675 0 000-1.278 2.467 2.467 0 00-2.208 0zm-5.771-3.329a.675.675 0 000 1.278 2.413 2.413 0 002.208 0 .669.669 0 000-1.269 2.413 2.413 0 00-2.208 0zm-5.772-3.339a.675.675 0 000 1.278 2.413 2.413 0 002.208 0 .675.675 0 000-1.278 2.467 2.467 0 00-2.208 0zm23.085 6.668a.675.675 0 000 1.278 2.467 2.467 0 002.208 0 .675.675 0 000-1.278 2.467 2.467 0 00-2.208 0zm-5.77-3.329a.669.669 0 000 1.269 2.413 2.413 0 002.208 0 .669.669 0 000-1.269 2.413 2.413 0 00-2.208 0zm-5.772-3.339a.675.675 0 000 1.278 2.413 2.413 0 002.208 0 .675.675 0 000-1.278 2.467 2.467 0 00-2.208 0zm-5.771-3.325a.675.675 0 000 1.278 2.467 2.467 0 002.208 0 .675.675 0 000-1.278 2.413 2.413 0 00-2.208 0zm23.085 6.664a.669.669 0 000 1.269 2.413 2.413 0 002.208 0 .669.669 0 000-1.269 2.413 2.413 0 00-2.208 0zm-5.772-3.339a.675.675 0 000 1.278 2.413 2.413 0 002.208 0 .675.675 0 000-1.278 2.467 2.467 0 00-2.208 0zm-5.77-3.325a.675.675 0 000 1.278 2.467 2.467 0 002.208 0 .675.675 0 000-1.278 2.413 2.413 0 00-2.208 0zm-5.772-3.341a.675.675 0 000 1.278 2.413 2.413 0 002.208 0 .675.675 0 000-1.278 2.467 2.467 0 00-2.208 0zm57.948 27.197a.675.675 0 000 1.278 2.467 2.467 0 002.208 0 .675.675 0 000-1.278 2.467 2.467 0 00-2.208 0zm-5.772-3.327a.675.675 0 000 1.278 2.467 2.467 0 002.208 0 .675.675 0 000-1.278 2.413 2.413 0 00-2.208 0zm-5.771-3.34a.675.675 0 000 1.278 2.413 2.413 0 002.208 0 .675.675 0 000-1.278 2.467 2.467 0 00-2.208 0zm-5.771-3.329a.675.675 0 000 1.278 2.467 2.467 0 002.208 0 .675.675 0 000-1.278 2.467 2.467 0 00-2.208 0zm23.085 6.669a.675.675 0 000 1.278 2.467 2.467 0 002.208 0 .675.675 0 000-1.278 2.413 2.413 0 00-2.208 0zm-5.771-3.34a.675.675 0 000 1.278 2.413 2.413 0 002.208 0 .675.675 0 000-1.278 2.467 2.467 0 00-2.208 0zm-5.772-3.329a.675.675 0 000 1.278 2.467 2.467 0 002.208 0 .675.675 0 000-1.278 2.467 2.467 0 00-2.208 0zm-5.771-3.328a.669.669 0 000 1.269 2.467 2.467 0 002.208 0c.608-.356.608-.921 0-1.269a2.413 2.413 0 00-2.208 0zm23.086 6.657a.675.675 0 000 1.278 2.413 2.413 0 002.208 0 .675.675 0 000-1.278 2.467 2.467 0 00-2.208 0zm-5.772-3.329a.675.675 0 000 1.278 2.467 2.467 0 002.208 0 .675.675 0 000-1.278 2.467 2.467 0 00-2.208 0zm-5.771-3.328a.669.669 0 000 1.269 2.467 2.467 0 002.208 0c.608-.356.608-.921 0-1.269a2.413 2.413 0 00-2.208 0zm-5.772-3.339a.675.675 0 000 1.278 2.467 2.467 0 002.208 0 .675.675 0 000-1.278 2.467 2.467 0 00-2.208 0zm23.086 6.667a.675.675 0 000 1.278 2.467 2.467 0 002.208 0 .675.675 0 000-1.278 2.467 2.467 0 00-2.208 0zm-5.771-3.328a.669.669 0 000 1.269 2.467 2.467 0 002.208 0c.608-.356.608-.921 0-1.269a2.413 2.413 0 00-2.208 0zm-5.772-3.339a.675.675 0 000 1.278 2.467 2.467 0 002.208 0 .675.675 0 000-1.278 2.467 2.467 0 00-2.208 0zm-5.771-3.328a.675.675 0 000 1.278 2.413 2.413 0 002.208 0 .675.675 0 000-1.278 2.467 2.467 0 00-2.208 0zm23.086 6.667a.669.669 0 000 1.269 2.467 2.467 0 002.208 0c.608-.356.608-.921 0-1.269a2.413 2.413 0 00-2.208 0zm-5.772-3.339a.675.675 0 000 1.278 2.467 2.467 0 002.208 0 .675.675 0 000-1.278 2.467 2.467 0 00-2.208 0zm-5.771-3.328a.675.675 0 000 1.278 2.413 2.413 0 002.208 0 .675.675 0 000-1.278 2.467 2.467 0 00-2.208 0zm-5.772-3.338a.675.675 0 000 1.278 2.413 2.413 0 002.208 0 .675.675 0 000-1.278 2.467 2.467 0 00-2.208 0zm23.137 6.631a.675.675 0 000 1.278 2.467 2.467 0 002.208 0 .675.675 0 000-1.278 2.413 2.413 0 00-2.208 0zm-5.77-3.328a.669.669 0 000 1.269 2.413 2.413 0 002.208 0 .669.669 0 000-1.269 2.413 2.413 0 00-2.208 0zm-5.772-3.338a.675.675 0 000 1.278 2.467 2.467 0 002.208 0 .675.675 0 000-1.278 2.467 2.467 0 00-2.208 0zm-5.771-3.329a.675.675 0 000 1.278 2.467 2.467 0 002.208 0 .675.675 0 000-1.278 2.413 2.413 0 00-2.208 0zm17.313 3.329a.675.675 0 000 1.278 2.467 2.467 0 002.208 0 .675.675 0 000-1.278 2.467 2.467 0 00-2.208 0zm-5.77-3.329a.675.675 0 000 1.278 2.467 2.467 0 002.208 0 .675.675 0 000-1.278 2.413 2.413 0 00-2.208 0zm-52.229 36.158a.675.675 0 000 1.278 2.413 2.413 0 002.208 0 .675.675 0 000-1.278 2.467 2.467 0 00-2.208 0zm-5.775-3.329a.675.675 0 000 1.278 2.467 2.467 0 002.208 0 .675.675 0 000-1.278 2.467 2.467 0 00-2.208 0zm17.326 3.329a.675.675 0 000 1.278 2.413 2.413 0 002.208 0 .675.675 0 000-1.278 2.467 2.467 0 00-2.208 0zm-5.78-3.329a.675.675 0 000 1.278 2.467 2.467 0 002.208 0 .675.675 0 000-1.278 2.467 2.467 0 00-2.208 0zm-5.771-3.338a.675.675 0 000 1.278 2.413 2.413 0 002.208 0 .669.669 0 000-1.269 2.413 2.413 0 00-2.208 0zm-5.775-3.328a.675.675 0 000 1.278 2.413 2.413 0 002.208 0 .675.675 0 000-1.278 2.467 2.467 0 00-2.208 0zm23.098 6.666a.675.675 0 000 1.278 2.467 2.467 0 002.208 0 .675.675 0 000-1.278 2.467 2.467 0 00-2.208 0zm-5.772-3.337a.669.669 0 000 1.269 2.413 2.413 0 002.208 0 .669.669 0 000-1.269 2.413 2.413 0 00-2.208 0zm-5.78-3.329a.675.675 0 000 1.278 2.413 2.413 0 002.208 0 .675.675 0 000-1.278 2.467 2.467 0 00-2.208 0zm-5.771-3.338a.675.675 0 000 1.278 2.467 2.467 0 002.208 0 .675.675 0 000-1.278 2.413 2.413 0 00-2.208 0zm23.094 6.667a.669.669 0 000 1.269 2.413 2.413 0 002.208 0 .669.669 0 000-1.269 2.413 2.413 0 00-2.208 0zm-5.771-3.329a.675.675 0 000 1.278 2.413 2.413 0 002.208 0 .675.675 0 000-1.278 2.467 2.467 0 00-2.208 0zm-5.772-3.338a.675.675 0 000 1.278 2.467 2.467 0 002.208 0 .675.675 0 000-1.278 2.413 2.413 0 00-2.208 0zm-5.78-3.331a.675.675 0 000 1.278 2.413 2.413 0 002.208 0 .675.675 0 000-1.278 2.467 2.467 0 00-2.208 0z"/><path class="n" d="M822.449 2135.329a.675.675 0 000 1.278 2.467 2.467 0 002.208 0 .675.675 0 000-1.278 2.467 2.467 0 00-2.208 0zm-5.771-3.343a.675.675 0 000 1.278 2.467 2.467 0 002.208 0 .675.675 0 000-1.278 2.413 2.413 0 00-2.208 0zm-5.771-3.329a.675.675 0 000 1.278 2.413 2.413 0 002.208 0 .675.675 0 000-1.278 2.467 2.467 0 00-2.208 0zm-5.771-3.329a.675.675 0 000 1.278 2.467 2.467 0 002.208 0 .675.675 0 000-1.278 2.467 2.467 0 00-2.208 0zm23.086 6.658a.675.675 0 000 1.278 2.467 2.467 0 002.208 0 .675.675 0 000-1.278 2.413 2.413 0 00-2.208 0zm-5.773-3.329a.675.675 0 000 1.278 2.413 2.413 0 002.208 0 .675.675 0 000-1.278 2.467 2.467 0 00-2.208 0zm-5.771-3.329a.675.675 0 000 1.278 2.467 2.467 0 002.208 0 .675.675 0 000-1.278 2.467 2.467 0 00-2.208 0zm-5.771-3.337a.669.669 0 000 1.269 2.413 2.413 0 002.208 0 .669.669 0 000-1.269 2.413 2.413 0 00-2.208 0zm23.086 6.666a.675.675 0 000 1.278 2.413 2.413 0 002.208 0 .675.675 0 000-1.278 2.467 2.467 0 00-2.208 0zm-5.771-3.329a.675.675 0 000 1.278 2.467 2.467 0 002.208 0 .675.675 0 000-1.278 2.467 2.467 0 00-2.208 0zm-5.773-3.337a.669.669 0 000 1.269 2.413 2.413 0 002.208 0 .669.669 0 000-1.269 2.413 2.413 0 00-2.208 0zm-5.771-3.329a.675.675 0 000 1.278 2.413 2.413 0 002.208 0 .675.675 0 000-1.278 2.467 2.467 0 00-2.208 0zm23.086 6.666a.675.675 0 000 1.278 2.467 2.467 0 002.208 0 .675.675 0 000-1.278 2.467 2.467 0 00-2.208 0zm-5.771-3.337a.669.669 0 000 1.269 2.413 2.413 0 002.208 0 .669.669 0 000-1.269 2.413 2.413 0 00-2.208 0zm-5.771-3.329a.675.675 0 000 1.278 2.413 2.413 0 002.208 0 .675.675 0 000-1.278 2.467 2.467 0 00-2.208 0zm-5.773-3.339a.675.675 0 000 1.278 2.467 2.467 0 002.208 0 .675.675 0 000-1.278 2.413 2.413 0 00-2.208 0zm23.086 6.668a.669.669 0 000 1.269 2.413 2.413 0 002.208 0 .669.669 0 000-1.269 2.413 2.413 0 00-2.208 0zm-5.771-3.329a.675.675 0 000 1.278 2.413 2.413 0 002.208 0 .675.675 0 000-1.278 2.467 2.467 0 00-2.208 0zm-5.771-3.339a.675.675 0 000 1.278 2.467 2.467 0 002.208 0 .675.675 0 000-1.278 2.413 2.413 0 00-2.208 0zm-5.771-3.328a.675.675 0 000 1.278 2.467 2.467 0 002.208 0 .675.675 0 000-1.278 2.413 2.413 0 00-2.208 0zm23.137 6.632a.675.675 0 000 1.278 2.467 2.467 0 002.208 0 .675.675 0 000-1.278 2.413 2.413 0 00-2.208 0zm-5.772-3.341a.669.669 0 000 1.269 2.413 2.413 0 002.208 0 .669.669 0 000-1.269 2.413 2.413 0 00-2.208 0zm-5.771-3.326a.675.675 0 000 1.278 2.467 2.467 0 002.208 0 .675.675 0 000-1.278 2.467 2.467 0 00-2.208 0zm-5.771-3.329a.675.675 0 000 1.278 2.467 2.467 0 002.208 0 .675.675 0 000-1.278 2.413 2.413 0 00-2.208 0zm17.314 3.329a.675.675 0 000 1.278 2.467 2.467 0 002.208 0 .675.675 0 000-1.278 2.467 2.467 0 00-2.208 0zm-5.772-3.329a.675.675 0 000 1.278 2.467 2.467 0 002.208 0 .675.675 0 000-1.278 2.413 2.413 0 00-2.208 0zm-52.232 36.158a.675.675 0 000 1.278 2.413 2.413 0 002.208 0 .675.675 0 000-1.278 2.467 2.467 0 00-2.208 0zm-5.767-3.338a.675.675 0 000 1.278 2.467 2.467 0 002.208 0 .675.675 0 000-1.278 2.467 2.467 0 00-2.208 0zm17.313 3.338a.675.675 0 000 1.278 2.413 2.413 0 002.208 0 .675.675 0 000-1.278 2.467 2.467 0 00-2.208 0zm-5.762-3.338a.675.675 0 000 1.278 2.467 2.467 0 002.208 0 .675.675 0 000-1.278 2.467 2.467 0 00-2.208 0zm-5.784-3.328a.675.675 0 000 1.278 2.467 2.467 0 002.208 0c.608-.356.608-.921 0-1.269a2.413 2.413 0 00-2.208 0zm-5.767-3.338a.675.675 0 000 1.278 2.413 2.413 0 002.208 0 .675.675 0 000-1.278 2.467 2.467 0 00-2.208 0zm23.093 6.666a.675.675 0 000 1.278 2.467 2.467 0 002.208 0 .675.675 0 000-1.278 2.467 2.467 0 00-2.208 0zm-5.78-3.329a.669.669 0 000 1.269 2.467 2.467 0 002.208 0c.608-.356.608-.921 0-1.269a2.413 2.413 0 00-2.208 0zm-5.762-3.337a.675.675 0 000 1.278 2.413 2.413 0 002.208 0 .675.675 0 000-1.278 2.467 2.467 0 00-2.208 0zm-5.784-3.334a.675.675 0 000 1.278 2.467 2.467 0 002.208 0 .675.675 0 000-1.278 2.413 2.413 0 00-2.208 0zm23.098 6.671a.669.669 0 000 1.269 2.467 2.467 0 002.208 0c.608-.356.608-.921 0-1.269a2.413 2.413 0 00-2.208 0zm-5.772-3.337a.675.675 0 000 1.278 2.413 2.413 0 002.208 0 .675.675 0 000-1.278 2.467 2.467 0 00-2.208 0zm-5.78-3.334a.675.675 0 000 1.278 2.467 2.467 0 002.208 0 .675.675 0 000-1.278 2.413 2.413 0 00-2.208 0zm-5.762-3.333a.675.675 0 000 1.278 2.413 2.413 0 002.208 0 .675.675 0 000-1.278 2.467 2.467 0 00-2.208 0z"/><path class="n" d="M816.678 2131.985a.675.675 0 000 1.278 2.467 2.467 0 002.208 0 .675.675 0 000-1.278 2.467 2.467 0 00-2.208 0zm-5.771-3.328a.675.675 0 000 1.278 2.467 2.467 0 002.208 0 .675.675 0 000-1.278 2.413 2.413 0 00-2.208 0zm-5.78-3.329a.675.675 0 000 1.278 2.413 2.413 0 002.208 0 .675.675 0 000-1.278 2.467 2.467 0 00-2.208 0zm-5.763-3.338a.675.675 0 000 1.278 2.467 2.467 0 002.208 0 .675.675 0 000-1.278 2.467 2.467 0 00-2.208 0zm23.084 6.667a.675.675 0 000 1.278 2.467 2.467 0 002.208 0 .675.675 0 000-1.278 2.413 2.413 0 00-2.208 0zm-5.77-3.329a.675.675 0 000 1.278 2.413 2.413 0 002.208 0 .675.675 0 000-1.278 2.467 2.467 0 00-2.208 0zm-5.771-3.338a.675.675 0 000 1.278 2.467 2.467 0 002.208 0 .675.675 0 000-1.278 2.467 2.467 0 00-2.208 0zm-5.78-3.329a.669.669 0 000 1.269 2.413 2.413 0 002.208 0 .669.669 0 000-1.269 2.413 2.413 0 00-2.208 0zm23.094 6.667a.675.675 0 000 1.278 2.413 2.413 0 002.208 0 .675.675 0 000-1.278 2.467 2.467 0 00-2.208 0zm-5.773-3.338a.675.675 0 000 1.278 2.467 2.467 0 002.208 0 .675.675 0 000-1.278 2.467 2.467 0 00-2.208 0zm-5.77-3.329a.669.669 0 000 1.269 2.413 2.413 0 002.208 0 .669.669 0 000-1.269 2.413 2.413 0 00-2.208 0zm-5.771-3.337a.675.675 0 000 1.278 2.467 2.467 0 002.208 0 .675.675 0 000-1.278 2.467 2.467 0 00-2.208 0zm23.085 6.666a.675.675 0 000 1.278 2.467 2.467 0 002.208 0 .675.675 0 000-1.278 2.467 2.467 0 00-2.208 0zm-5.771-3.329a.669.669 0 000 1.269 2.413 2.413 0 002.208 0 .669.669 0 000-1.269 2.413 2.413 0 00-2.208 0zm-5.773-3.337a.675.675 0 000 1.278 2.467 2.467 0 002.208 0 .675.675 0 000-1.278 2.467 2.467 0 00-2.208 0zm-5.77-3.33a.675.675 0 000 1.278 2.467 2.467 0 002.208 0 .675.675 0 000-1.278 2.467 2.467 0 00-2.208 0zm23.086 6.667a.669.669 0 000 1.269 2.413 2.413 0 002.208 0 .669.669 0 000-1.269 2.413 2.413 0 00-2.208 0zm-5.772-3.337a.675.675 0 000 1.278 2.467 2.467 0 002.208 0 .675.675 0 000-1.278 2.467 2.467 0 00-2.208 0zm-5.771-3.33a.675.675 0 000 1.278 2.467 2.467 0 002.208 0 .675.675 0 000-1.278 2.467 2.467 0 00-2.208 0zm-5.773-3.335a.675.675 0 000 1.278 2.413 2.413 0 002.208 0 .675.675 0 000-1.278 2.467 2.467 0 00-2.208 0zm23.138 6.627a.675.675 0 000 1.278 2.467 2.467 0 002.208 0 .675.675 0 000-1.278 2.413 2.413 0 00-2.208 0zm-5.77-3.327a.669.669 0 000 1.269 2.413 2.413 0 002.208 0 .669.669 0 000-1.269 2.413 2.413 0 00-2.208 0zm-5.78-3.337a.675.675 0 000 1.278 2.467 2.467 0 002.208 0 .675.675 0 000-1.278 2.467 2.467 0 00-2.208 0zm-5.767-3.329a.675.675 0 000 1.278 2.467 2.467 0 002.208 0 .675.675 0 000-1.278 2.413 2.413 0 00-2.208 0zm17.317 3.329a.675.675 0 000 1.278 2.467 2.467 0 002.208 0 .675.675 0 000-1.278 2.467 2.467 0 00-2.208 0zm-5.77-3.329a.675.675 0 000 1.278 2.467 2.467 0 002.208 0 .675.675 0 000-1.278 2.413 2.413 0 00-2.208 0zm-52.229 36.158a.675.675 0 000 1.278 2.413 2.413 0 002.208 0 .675.675 0 000-1.278 2.467 2.467 0 00-2.208 0zm-5.772-3.329a.675.675 0 000 1.278 2.467 2.467 0 002.208 0 .675.675 0 000-1.278 2.467 2.467 0 00-2.208 0zm17.323 3.329a.675.675 0 000 1.278 2.413 2.413 0 002.208 0 .675.675 0 000-1.278 2.467 2.467 0 00-2.208 0zm-5.783-3.329a.675.675 0 000 1.278 2.467 2.467 0 002.208 0 .675.675 0 000-1.278 2.467 2.467 0 00-2.208 0zm-5.768-3.337a.675.675 0 000 1.278 2.413 2.413 0 002.208 0 .669.669 0 000-1.269 2.413 2.413 0 00-2.208 0zm-5.772-3.332a.675.675 0 000 1.278 2.413 2.413 0 002.208 0 .675.675 0 000-1.278 2.467 2.467 0 00-2.208 0zm23.085 6.669a.675.675 0 000 1.278 2.467 2.467 0 002.208 0 .675.675 0 000-1.278 2.467 2.467 0 00-2.208 0zm-5.762-3.338a.669.669 0 000 1.269 2.413 2.413 0 002.208 0 .669.669 0 000-1.269 2.413 2.413 0 00-2.208 0zm-5.783-3.331a.675.675 0 000 1.278 2.413 2.413 0 002.208 0 .675.675 0 000-1.278 2.467 2.467 0 00-2.208 0zm-5.768-3.335a.675.675 0 000 1.278 2.467 2.467 0 002.208 0 .675.675 0 000-1.278 2.413 2.413 0 00-2.208 0zm23.094 6.666a.669.669 0 000 1.269 2.413 2.413 0 002.208 0 .669.669 0 000-1.269 2.413 2.413 0 00-2.208 0zm-5.781-3.331a.675.675 0 000 1.278 2.413 2.413 0 002.208 0 .675.675 0 000-1.278 2.467 2.467 0 00-2.208 0zm-5.762-3.335a.675.675 0 000 1.278 2.467 2.467 0 002.208 0 .675.675 0 000-1.278 2.413 2.413 0 00-2.208 0zm-5.783-3.329a.675.675 0 000 1.278 2.413 2.413 0 002.208 0 .675.675 0 000-1.278 2.467 2.467 0 00-2.208 0z"/><path class="n" d="M810.907 2128.657a.675.675 0 000 1.278 2.413 2.413 0 002.208 0 .675.675 0 000-1.278 2.467 2.467 0 00-2.208 0zm-5.78-3.329a.675.675 0 000 1.278 2.467 2.467 0 002.208 0 .675.675 0 000-1.278 2.413 2.413 0 00-2.208 0zm-5.771-3.338a.675.675 0 000 1.278 2.413 2.413 0 002.208 0 .675.675 0 000-1.278 2.467 2.467 0 00-2.208 0zm-5.772-3.329a.675.675 0 000 1.278 2.467 2.467 0 002.208 0 .675.675 0 000-1.278 2.467 2.467 0 00-2.208 0zm23.086 6.667a.675.675 0 000 1.278 2.467 2.467 0 002.208 0 .675.675 0 000-1.278 2.413 2.413 0 00-2.208 0zm-5.763-3.338a.675.675 0 000 1.278 2.413 2.413 0 002.208 0 .675.675 0 000-1.278 2.467 2.467 0 00-2.208 0zm-5.78-3.329a.675.675 0 000 1.278 2.467 2.467 0 002.208 0 .675.675 0 000-1.278 2.467 2.467 0 00-2.208 0zm-5.771-3.338a.669.669 0 000 1.269 2.413 2.413 0 002.208 0 .669.669 0 000-1.269 2.413 2.413 0 00-2.208 0zm23.093 6.667a.675.675 0 000 1.278 2.413 2.413 0 002.208 0 .675.675 0 000-1.278 2.467 2.467 0 00-2.208 0zm-5.779-3.329a.675.675 0 000 1.278 2.467 2.467 0 002.208 0 .675.675 0 000-1.278 2.467 2.467 0 00-2.208 0zm-5.763-3.338a.669.669 0 000 1.269 2.413 2.413 0 002.208 0 .669.669 0 000-1.269 2.413 2.413 0 00-2.208 0zm-5.78-3.329a.675.675 0 000 1.278 2.413 2.413 0 002.208 0 .675.675 0 000-1.278 2.467 2.467 0 00-2.208 0zm23.094 6.667a.675.675 0 000 1.278 2.467 2.467 0 002.208 0 .675.675 0 000-1.278 2.467 2.467 0 00-2.208 0zm-5.772-3.338a.669.669 0 000 1.269 2.413 2.413 0 002.208 0 .669.669 0 000-1.269 2.413 2.413 0 00-2.208 0zm-5.779-3.329a.675.675 0 000 1.278 2.413 2.413 0 002.208 0 .675.675 0 000-1.278 2.467 2.467 0 00-2.208 0zm-5.763-3.329a.669.669 0 000 1.269 2.413 2.413 0 002.208 0 .669.669 0 000-1.269 2.413 2.413 0 00-2.208 0zm23.085 6.658a.669.669 0 000 1.269 2.413 2.413 0 002.208 0 .669.669 0 000-1.269 2.413 2.413 0 00-2.208 0zm-5.771-3.329a.675.675 0 000 1.278 2.413 2.413 0 002.208 0 .675.675 0 000-1.278 2.467 2.467 0 00-2.208 0zm-5.772-3.329a.669.669 0 000 1.269 2.413 2.413 0 002.208 0 .669.669 0 000-1.269 2.413 2.413 0 00-2.208 0zm-5.779-3.337a.675.675 0 000 1.278 2.467 2.467 0 002.208 0 .675.675 0 000-1.278 2.413 2.413 0 00-2.208 0zm23.146 6.631a.675.675 0 000 1.278 2.467 2.467 0 002.208 0 .675.675 0 000-1.278 2.413 2.413 0 00-2.208 0zm-5.78-3.328a.669.669 0 000 1.269 2.413 2.413 0 002.208 0 .669.669 0 000-1.269 2.413 2.413 0 00-2.208 0zm-5.77-3.337a.675.675 0 000 1.278 2.467 2.467 0 002.208 0 .675.675 0 000-1.278 2.467 2.467 0 00-2.208 0zm-5.773-3.329a.675.675 0 000 1.278 2.467 2.467 0 002.208 0 .675.675 0 000-1.278 2.413 2.413 0 00-2.208 0zm17.323 3.329a.675.675 0 000 1.278 2.467 2.467 0 002.208 0 .675.675 0 000-1.278 2.467 2.467 0 00-2.208 0zm-5.78-3.329a.675.675 0 000 1.278 2.467 2.467 0 002.208 0 .675.675 0 000-1.278 2.413 2.413 0 00-2.208 0zm-52.22 36.157a.675.675 0 000 1.278 2.413 2.413 0 002.208 0 .675.675 0 000-1.278 2.467 2.467 0 00-2.208 0zm-5.771-3.337a.675.675 0 000 1.278 2.467 2.467 0 002.208 0 .675.675 0 000-1.278 2.467 2.467 0 00-2.208 0zm17.31 3.337a.675.675 0 000 1.278 2.413 2.413 0 002.208 0 .675.675 0 000-1.278 2.467 2.467 0 00-2.208 0zm-5.768-3.337a.675.675 0 000 1.278 2.467 2.467 0 002.208 0 .675.675 0 000-1.278 2.467 2.467 0 00-2.208 0zm-5.771-3.331a.675.675 0 000 1.278 2.467 2.467 0 002.208 0c.608-.356.608-.921 0-1.269a2.413 2.413 0 00-2.208 0zm-5.771-3.337a.675.675 0 000 1.278 2.413 2.413 0 002.208 0 .675.675 0 000-1.278 2.467 2.467 0 00-2.208 0zm23.093 6.668a.675.675 0 000 1.278 2.467 2.467 0 002.208 0 .675.675 0 000-1.278 2.467 2.467 0 00-2.208 0zm-5.783-3.334a.669.669 0 000 1.269 2.467 2.467 0 002.208 0c.608-.356.608-.921 0-1.269a2.413 2.413 0 00-2.208 0zm-5.768-3.334a.675.675 0 000 1.278 2.413 2.413 0 002.208 0 .675.675 0 000-1.278 2.467 2.467 0 00-2.208 0zm-5.771-3.328a.675.675 0 000 1.278 2.467 2.467 0 002.208 0 .675.675 0 000-1.278 2.413 2.413 0 00-2.208 0zm23.085 6.662a.669.669 0 000 1.269 2.467 2.467 0 002.208 0c.608-.356.608-.921 0-1.269a2.413 2.413 0 00-2.208 0zm-5.763-3.334a.675.675 0 000 1.278 2.413 2.413 0 002.208 0 .675.675 0 000-1.278 2.467 2.467 0 00-2.208 0zm-5.783-3.328a.675.675 0 000 1.278 2.467 2.467 0 002.208 0 .675.675 0 000-1.278 2.413 2.413 0 00-2.208 0zm-5.768-3.329a.675.675 0 000 1.278 2.413 2.413 0 002.208 0 .675.675 0 000-1.278 2.467 2.467 0 00-2.208 0z"/><path class="n" d="M805.127 2125.328a.675.675 0 000 1.278 2.467 2.467 0 002.208 0 .675.675 0 000-1.278 2.467 2.467 0 00-2.208 0zm-5.771-3.337a.675.675 0 000 1.278 2.467 2.467 0 002.208 0 .675.675 0 000-1.278 2.413 2.413 0 00-2.208 0zm-5.771-3.329a.675.675 0 000 1.278 2.413 2.413 0 002.208 0 .675.675 0 000-1.278 2.467 2.467 0 00-2.208 0zm-5.772-3.338a.675.675 0 000 1.278 2.467 2.467 0 002.208 0 .675.675 0 000-1.278 2.467 2.467 0 00-2.208 0zm23.094 6.667a.675.675 0 000 1.278 2.467 2.467 0 002.208 0 .675.675 0 000-1.278 2.413 2.413 0 00-2.208 0zm-5.78-3.329a.675.675 0 000 1.278 2.413 2.413 0 002.208 0 .675.675 0 000-1.278 2.467 2.467 0 00-2.208 0zm-5.771-3.338a.675.675 0 000 1.278 2.467 2.467 0 002.208 0 .675.675 0 000-1.278 2.467 2.467 0 00-2.208 0zm-5.771-3.329a.669.669 0 000 1.269 2.413 2.413 0 002.208 0 .669.669 0 000-1.269 2.413 2.413 0 00-2.208 0zm23.093 6.667a.675.675 0 000 1.278 2.413 2.413 0 002.208 0 .675.675 0 000-1.278 2.467 2.467 0 00-2.208 0zm-5.771-3.338a.675.675 0 000 1.278 2.467 2.467 0 002.208 0 .675.675 0 000-1.278 2.467 2.467 0 00-2.208 0zm-5.78-3.329a.669.669 0 000 1.269 2.413 2.413 0 002.208 0 .669.669 0 000-1.269 2.413 2.413 0 00-2.208 0zm-5.771-3.335a.675.675 0 000 1.278 2.467 2.467 0 002.208 0 .675.675 0 000-1.278 2.467 2.467 0 00-2.208 0zm23.093 6.664a.675.675 0 000 1.278 2.467 2.467 0 002.208 0 .675.675 0 000-1.278 2.467 2.467 0 00-2.208 0zm-5.779-3.329a.669.669 0 000 1.269 2.413 2.413 0 002.208 0 .669.669 0 000-1.269 2.413 2.413 0 00-2.208 0zm-5.763-3.335a.675.675 0 000 1.278 2.467 2.467 0 002.208 0 .675.675 0 000-1.278 2.467 2.467 0 00-2.208 0zm-5.78-3.331a.675.675 0 000 1.278 2.467 2.467 0 002.208 0 .675.675 0 000-1.278 2.413 2.413 0 00-2.208 0zm23.095 6.666a.669.669 0 000 1.269 2.413 2.413 0 002.208 0 .669.669 0 000-1.269 2.413 2.413 0 00-2.208 0zm-5.773-3.335a.675.675 0 000 1.278 2.467 2.467 0 002.208 0 .675.675 0 000-1.278 2.467 2.467 0 00-2.208 0zm-5.779-3.331a.675.675 0 000 1.278 2.467 2.467 0 002.208 0 .675.675 0 000-1.278 2.413 2.413 0 00-2.208 0zm-5.763-3.329a.675.675 0 000 1.278 2.413 2.413 0 002.208 0 .675.675 0 000-1.278 2.467 2.467 0 00-2.208 0zm23.129 6.632a.675.675 0 000 1.278 2.467 2.467 0 002.208 0 .675.675 0 000-1.278 2.413 2.413 0 00-2.208 0zm-5.77-3.338a.669.669 0 000 1.269 2.413 2.413 0 002.208 0 .669.669 0 000-1.269 2.413 2.413 0 00-2.208 0zm-5.772-3.329a.675.675 0 000 1.278 2.467 2.467 0 002.208 0 .675.675 0 000-1.278 2.467 2.467 0 00-2.208 0zm-5.772-3.337a.675.675 0 000 1.278 2.467 2.467 0 002.208 0 .675.675 0 000-1.278 2.413 2.413 0 00-2.208 0zm17.314 3.337a.675.675 0 000 1.278 2.467 2.467 0 002.208 0 .675.675 0 000-1.278 2.467 2.467 0 00-2.208 0zm-5.77-3.337a.675.675 0 000 1.278 2.467 2.467 0 002.208 0 .675.675 0 000-1.278 2.413 2.413 0 00-2.208 0zm-52.221 36.157a.675.675 0 000 1.278 2.413 2.413 0 002.208 0 .675.675 0 000-1.278 2.467 2.467 0 00-2.208 0zm-5.772-3.331a.675.675 0 000 1.278 2.467 2.467 0 002.208 0 .675.675 0 000-1.278 2.467 2.467 0 00-2.208 0zm17.315 3.331a.675.675 0 000 1.278 2.413 2.413 0 002.208 0 .675.675 0 000-1.278 2.467 2.467 0 00-2.208 0zm-5.772-3.331a.675.675 0 000 1.278 2.467 2.467 0 002.208 0 .675.675 0 000-1.278 2.467 2.467 0 00-2.208 0zm-5.771-3.335a.675.675 0 000 1.278 2.413 2.413 0 002.208 0 .669.669 0 000-1.269 2.413 2.413 0 00-2.208 0zm-5.772-3.329a.675.675 0 000 1.278 2.413 2.413 0 002.208 0 .675.675 0 000-1.278 2.467 2.467 0 00-2.208 0zm23.082 6.664a.675.675 0 000 1.278 2.467 2.467 0 002.208 0 .675.675 0 000-1.278 2.467 2.467 0 00-2.208 0zm-5.767-3.327a.669.669 0 000 1.269 2.413 2.413 0 002.208 0 .669.669 0 000-1.269 2.413 2.413 0 00-2.208 0zm-5.772-3.337a.675.675 0 000 1.278 2.413 2.413 0 002.208 0 .675.675 0 000-1.278 2.467 2.467 0 00-2.208 0zm-5.771-3.329a.675.675 0 000 1.278 2.467 2.467 0 002.208 0 .675.675 0 000-1.278 2.413 2.413 0 00-2.208 0zm23.085 6.666a.669.669 0 000 1.269 2.413 2.413 0 002.208 0 .669.669 0 000-1.269 2.413 2.413 0 00-2.208 0zm-5.775-3.337a.675.675 0 000 1.278 2.413 2.413 0 002.208 0 .675.675 0 000-1.278 2.467 2.467 0 00-2.208 0zm-5.767-3.329a.675.675 0 000 1.278 2.467 2.467 0 002.208 0 .675.675 0 000-1.278 2.413 2.413 0 00-2.208 0zm-5.772-3.339a.675.675 0 000 1.278 2.413 2.413 0 002.208 0 .675.675 0 000-1.278 2.467 2.467 0 00-2.208 0z"/><path class="n" d="M799.356 2121.99a.675.675 0 000 1.278 2.467 2.467 0 002.208 0 .675.675 0 000-1.278 2.467 2.467 0 00-2.208 0zm-5.772-3.329a.675.675 0 000 1.278 2.467 2.467 0 002.208 0 .675.675 0 000-1.278 2.413 2.413 0 00-2.208 0zm-5.772-3.337a.675.675 0 000 1.278 2.413 2.413 0 002.208 0 .675.675 0 000-1.278 2.467 2.467 0 00-2.208 0zm-5.773-3.329a.675.675 0 000 1.278 2.467 2.467 0 002.208 0 .675.675 0 000-1.278 2.467 2.467 0 00-2.208 0zm23.088 6.666a.675.675 0 000 1.278 2.467 2.467 0 002.208 0 .675.675 0 000-1.278 2.413 2.413 0 00-2.208 0zm-5.771-3.337a.675.675 0 000 1.278 2.413 2.413 0 002.208 0 .675.675 0 000-1.278 2.467 2.467 0 00-2.208 0zm-5.772-3.329a.675.675 0 000 1.278 2.467 2.467 0 002.208 0 .675.675 0 000-1.278 2.467 2.467 0 00-2.208 0zm-5.772-3.329a.669.669 0 000 1.269 2.413 2.413 0 002.208 0 .669.669 0 000-1.269 2.413 2.413 0 00-2.208 0zm23.095 6.658a.675.675 0 000 1.278 2.413 2.413 0 002.208 0 .675.675 0 000-1.278 2.467 2.467 0 00-2.208 0zm-5.78-3.329a.675.675 0 000 1.278 2.467 2.467 0 002.208 0 .675.675 0 000-1.278 2.467 2.467 0 00-2.208 0zm-5.771-3.329a.669.669 0 000 1.269 2.413 2.413 0 002.208 0 .669.669 0 000-1.269 2.413 2.413 0 00-2.208 0zm-5.772-3.338a.675.675 0 000 1.278 2.467 2.467 0 002.208 0 .675.675 0 000-1.278 2.467 2.467 0 00-2.208 0zm23.085 6.667a.675.675 0 000 1.278 2.467 2.467 0 002.208 0 .675.675 0 000-1.278 2.467 2.467 0 00-2.208 0zm-5.771-3.329a.669.669 0 000 1.269 2.413 2.413 0 002.208 0 .669.669 0 000-1.269 2.413 2.413 0 00-2.208 0zm-5.771-3.338a.675.675 0 000 1.278 2.467 2.467 0 002.208 0 .675.675 0 000-1.278 2.467 2.467 0 00-2.208 0zm-5.771-3.328a.669.669 0 000 1.269 2.413 2.413 0 002.208 0 .669.669 0 000-1.269 2.413 2.413 0 00-2.208 0zm23.092 6.666a.669.669 0 000 1.269 2.413 2.413 0 002.208 0 .669.669 0 000-1.269 2.413 2.413 0 00-2.208 0zm-5.779-3.338a.675.675 0 000 1.278 2.467 2.467 0 002.208 0 .675.675 0 000-1.278 2.467 2.467 0 00-2.208 0zm-5.771-3.328a.669.669 0 000 1.269 2.413 2.413 0 002.208 0 .669.669 0 000-1.269 2.413 2.413 0 00-2.208 0zm-5.771-3.338a.675.675 0 000 1.278 2.467 2.467 0 002.208 0 .675.675 0 000-1.278 2.413 2.413 0 00-2.208 0zm23.142 6.632a.675.675 0 000 1.278 2.467 2.467 0 002.208 0 .675.675 0 000-1.278 2.413 2.413 0 00-2.208 0zm-5.776-3.329a.669.669 0 000 1.269 2.413 2.413 0 002.208 0 .669.669 0 000-1.269 2.413 2.413 0 00-2.208 0zm-5.772-3.338a.675.675 0 000 1.278 2.467 2.467 0 002.208 0 .675.675 0 000-1.278 2.467 2.467 0 00-2.208 0zm-5.771-3.329a.675.675 0 000 1.278 2.467 2.467 0 002.208 0 .675.675 0 000-1.278 2.413 2.413 0 00-2.208 0zm17.319 3.329a.675.675 0 000 1.278 2.467 2.467 0 002.208 0 .675.675 0 000-1.278 2.467 2.467 0 00-2.208 0zm-5.776-3.329a.675.675 0 000 1.278 2.467 2.467 0 002.208 0 .675.675 0 000-1.278 2.413 2.413 0 00-2.208 0zm-52.22 36.156a.675.675 0 000 1.278 2.413 2.413 0 002.208 0 .675.675 0 000-1.278 2.467 2.467 0 00-2.208 0zm-5.771-3.336a.675.675 0 000 1.278 2.467 2.467 0 002.208 0 .675.675 0 000-1.278 2.467 2.467 0 00-2.208 0zm17.313 3.336a.675.675 0 000 1.278 2.413 2.413 0 002.208 0 .675.675 0 000-1.278 2.467 2.467 0 00-2.208 0zm-5.771-3.336a.675.675 0 000 1.278 2.467 2.467 0 002.208 0 .675.675 0 000-1.278 2.467 2.467 0 00-2.208 0zm-5.771-3.329a.675.675 0 000 1.278 2.467 2.467 0 002.208 0c.608-.356.608-.921 0-1.269a2.413 2.413 0 00-2.208 0zm-5.771-3.329a.675.675 0 000 1.278 2.413 2.413 0 002.208 0 .675.675 0 000-1.278 2.467 2.467 0 00-2.208 0zm23.085 6.658a.675.675 0 000 1.278 2.467 2.467 0 002.208 0 .675.675 0 000-1.278 2.467 2.467 0 00-2.208 0zm-5.772-3.329a.669.669 0 000 1.269 2.467 2.467 0 002.208 0c.608-.356.608-.921 0-1.269a2.413 2.413 0 00-2.208 0zm-5.771-3.329a.675.675 0 000 1.278 2.413 2.413 0 002.208 0 .675.675 0 000-1.278 2.467 2.467 0 00-2.208 0zm-5.771-3.337a.675.675 0 000 1.278 2.467 2.467 0 002.208 0 .675.675 0 000-1.278 2.413 2.413 0 00-2.208 0zm23.082 6.666a.669.669 0 000 1.269 2.467 2.467 0 002.208 0c.608-.356.608-.921 0-1.269a2.413 2.413 0 00-2.208 0zm-5.768-3.329a.675.675 0 000 1.278 2.413 2.413 0 002.208 0 .675.675 0 000-1.278 2.467 2.467 0 00-2.208 0zm-5.772-3.337a.675.675 0 000 1.278 2.467 2.467 0 002.208 0 .675.675 0 000-1.278 2.413 2.413 0 00-2.208 0zm-5.771-3.329a.675.675 0 000 1.278 2.413 2.413 0 002.208 0 .675.675 0 000-1.278 2.467 2.467 0 00-2.208 0z"/><path d="M890.359 2035.977l-8.17-4.72c-.3-.174-.261-.478.087-.678l3.711-2.138a1.306 1.306 0 011.173-.052l8.17 4.72c.3.174.261.478-.087.678l-3.716 2.146a1.306 1.306 0 01-1.173.052zm11.264-6.492l-6.893-3.981c-.3-.174-.261-.478.087-.678l3.711-2.147a1.306 1.306 0 011.173-.052l6.893 3.981c.3.174.261.478-.087.678l-3.711 2.138a1.306 1.306 0 01-1.173.052zm-17.201-3.434l-3.746-2.164c-.3-.174-.261-.478.087-.678l3.711-2.138a1.306 1.306 0 011.173-.052l3.746 2.164c.3.174.261.478-.087.678l-3.71 2.134a1.306 1.306 0 01-1.174.056zm5.788 3.337l-3.746-2.164c-.3-.174-.261-.478.087-.678l3.711-2.138a1.306 1.306 0 011.173-.052l3.746 2.164c.3.174.261.478-.087.678l-3.711 2.138a1.306 1.306 0 01-1.173.052zm5.78 3.347l-3.746-2.164c-.3-.174-.261-.478.087-.678l3.711-2.138a1.306 1.306 0 011.173-.052l3.746 2.164c.3.174.261.478-.087.678l-3.714 2.138a1.306 1.306 0 01-1.17.052zm-9.744-18.965l-3.746-2.164c-.3-.174-.261-.478.087-.678l1.226-.7a1.306 1.306 0 011.173-.052l3.746 2.164c.3.174.261.478-.087.678l-1.226.713a1.306 1.306 0 01-1.173.052zm5.729 3.302l-3.746-2.164c-.3-.174-.261-.478.087-.678l1.226-.713a1.306 1.306 0 011.173-.052l3.746 2.164c.3.174.261.478-.087.678l-1.226.713a1.306 1.306 0 01-1.173.052zm5.728 3.312l-3.746-2.164c-.3-.174-.261-.478.087-.678l1.226-.713a1.306 1.306 0 011.173-.052l3.746 2.164c.3.174.261.478-.087.678l-1.226.713a1.306 1.306 0 01-1.173.052zm5.737 3.311l-3.746-2.164c-.3-.174-.261-.478.087-.678l1.226-.7a1.306 1.306 0 011.173-.052l3.746 2.164c.3.174.261.478-.087.678l-1.226.7a1.306 1.306 0 01-1.173.052zm-22.06-5.901l-3.746-2.164c-.3-.174-.261-.478.087-.678l3.711-2.138a1.306 1.306 0 011.173-.052l3.746 2.164c.3.174.261.478-.087.678l-3.711 2.143a1.306 1.306 0 01-1.173.052zm5.78 3.337l-3.746-2.164c-.3-.174-.261-.478.087-.678l3.711-2.138a1.306 1.306 0 011.173-.052l3.746 2.164c.3.174.261.478-.087.678l-3.711 2.147a1.306 1.306 0 01-1.173.052zm5.788 3.338l-3.748-2.164c-.3-.174-.261-.478.087-.678l3.711-2.147a1.306 1.306 0 011.173-.052l3.749 2.161c.3.174.261.478-.087.678l-3.711 2.147a1.306 1.306 0 01-1.174.055z" fill="#6097d0"/><path class="r" d="M908.583 2003.235l-9.4-5.432.4-2.025 9.4 5.436z"/><path d="M184.743 100.415L158.46 85.239a4.425 4.425 0 01-1.851-3.538V18.8c0-1.365.826-1.99 1.851-1.4l26.284 15.176a4.425 4.425 0 011.851 3.538v62.9c0 1.366-.826 1.992-1.852 1.401z" transform="translate(750.186 1968.278)" fill="url(#b)" fill-rule="evenodd"/><path class="g" d="M934.93 2000.853l-26.284-15.175a1.194 1.194 0 00-1.2-.1l-30.012 17.309 1.417 5.232 27.362 77.93 29.891-17.236.017-.009.052-.035a1.663 1.663 0 00.608-1.478v-62.9a4.425 4.425 0 00-1.851-3.538z"/><path class="i" d="M934.93 2000.853l-26.284-15.175a1.194 1.194 0 00-1.2-.1l-30.012 17.309 1.417 5.232 7.527 21.425 1.417.817 48.473-27.983a3.745 3.745 0 00-1.33-1.53z"/><path class="h" d="M904.943 2085.99l-26.284-15.176a4.425 4.425 0 01-1.851-3.538v-62.902c0-1.365.826-1.99 1.851-1.4l26.284 15.176a4.425 4.425 0 011.851 3.538v62.9c0 1.367-.826 1.993-1.851 1.402z"/><path class="t" d="M903.292 2082.208l-22.981-13.263a3.858 3.858 0 01-1.617-3.094v-58.418c0-1.191.721-1.738 1.617-1.226l22.981 13.264a3.871 3.871 0 011.617 3.094v58.417c0 1.191-.722 1.736-1.617 1.226z"/><path class="t" d="M903.292 2082.208l-22.981-13.263a3.858 3.858 0 01-1.617-3.094v-58.418c0-1.191.721-1.738 1.617-1.226l22.981 13.264a3.871 3.871 0 011.617 3.094v58.417c0 1.191-.722 1.736-1.617 1.226z"/><path class="u" d="M903.292 2082.208l-22.981-13.263a3.858 3.858 0 01-1.617-3.094v-58.418c0-1.191.721-1.738 1.617-1.226l22.981 13.264a3.871 3.871 0 011.617 3.094v58.417c0 1.191-.722 1.736-1.617 1.226z"/><path class="g" d="M904.04 2081.765l-22.981-13.263a3.871 3.871 0 01-1.617-3.094v-58.418a1.83 1.83 0 01.235-.973c-.574 0-.982.522-.982 1.417v58.417a3.884 3.884 0 001.617 3.094l22.981 13.264a.933.933 0 001.382-.243 1.289 1.289 0 01-.635-.191z"/><path class="g" d="M903.292 2055.386l-8.544-4.928-13.62 7.866 23.781 13.733v-13.568a3.884 3.884 0 00-1.617-3.094z"/><path class="g" d="M903.292 2043.408l-8.544-4.928-13.62 7.866 23.781 13.733v-13.581a3.884 3.884 0 00-1.617-3.094z"/><path class="g" d="M903.292 2031.44l-8.544-4.928-13.62 7.866 23.781 13.732v-13.576a3.854 3.854 0 00-1.617-3.086z"/><path class="g" d="M903.292 2019.47l-8.544-4.928-13.62 7.866 23.781 13.734v-13.572a3.884 3.884 0 00-1.617-3.094z"/><path class="g" d="M903.292 2019.472l-18.9-10.917-3.259 1.877 23.776 13.733v-1.6a3.884 3.884 0 00-1.617-3.094z"/><path class="h" d="M904.909 2024.164l-23.781-13.733v7.571l23.781 13.724zm0 11.969l-23.781-13.733v7.566l23.781 13.737zm0 11.969l-23.781-13.724v7.562l23.781 13.733zm0 11.977l-23.781-13.733v7.562l23.781 13.733zm0 11.969l-23.781-13.733v7.571l23.781 13.724z"/><path class="f" d="M902.805 2029.032l-17.914-10.343a2.207 2.207 0 01-.913-1.756v-2.03c0-.678.409-.982.913-.7l17.914 10.343a2.21 2.21 0 01.921 1.747v2.025c0 .678-.409.982-.921.7z"/><path class="v" d="M884.543 2014.117h-.009zm-.556.791v.009zm0-.009a.989.989 0 01.148-.565 1.147 1.147 0 00-.146.567zm.939-.669l-.026-.017a.741.741 0 00-.356-.113.659.659 0 01.356.113l.017.017z"/><path class="j" d="M903.17 2029.145a.709.709 0 01-.365-.113l-17.914-10.343a2.161 2.161 0 01-.9-1.547 1.543 1.543 0 01-.009-.2v-2.025a1 1 0 01.148-.574.476.476 0 01.409-.226.709.709 0 01.365.113l.026.017a1.437 1.437 0 00-.035.287v2.025a2.177 2.177 0 00.913 1.747l17.888 10.326c-.07.322-.269.513-.521.513z"/><path class="k" d="M897.191 2023.478l-10.778-6.223a.768.768 0 01-.322-.617c0-.235.139-.348.322-.243l10.778 6.222a.792.792 0 01.322.617c0 .235-.148.348-.322.243z"/><path class="f" d="M902.805 2040.931l-17.914-10.343a2.2 2.2 0 01-.913-1.747v-2.025c0-.678.409-.982.913-.7l17.914 10.348a2.21 2.21 0 01.921 1.747v2.025c0 .678-.409.982-.921.7z"/><path class="v" d="M902.97 2041a1.232 1.232 0 01-.156-.07.618.618 0 00.156.07zm-18.991-14.212a.974.974 0 01.1-.478 1.216 1.216 0 00-.1.478zm.939-.661z"/><path class="j" d="M903.17 2041.035a.57.57 0 01-.2-.035 1.233 1.233 0 01-.156-.07l-17.914-10.342a2.218 2.218 0 01-.921-1.738v-2.052a.974.974 0 01.1-.478.506.506 0 01.452-.3.709.709 0 01.365.113l.017.009a1.452 1.452 0 00-.035.3v2.025a2.177 2.177 0 00.913 1.747l17.895 10.317c-.07.322-.269.513-.522.513z"/><path class="j" d="M897.191 2035.377l-10.778-6.223a.768.768 0 01-.322-.617c0-.235.139-.348.322-.243l10.778 6.223a.792.792 0 01.322.617c-.002.235-.149.348-.322.243z"/><path class="f" d="M902.805 2052.934l-17.914-10.343a2.2 2.2 0 01-.913-1.747v-2.023c0-.678.409-.982.913-.7l17.914 10.343a2.21 2.21 0 01.921 1.747v2.025c0 .678-.409.982-.921.7z"/><path class="v" d="M883.983 2038.823c0-.5.226-.8.556-.8a.709.709 0 01.365.113l.017.017-.026-.017a.8.8 0 00-.365-.113c-.322 0-.556.3-.556.8z"/><path class="j" d="M903.17 2053.048a.709.709 0 01-.365-.113l-17.914-10.343a2.161 2.161 0 01-.9-1.547 1.543 1.543 0 01-.009-.2v-2.022c0-.5.226-.8.556-.8a.709.709 0 01.365.113l.026.017a1.45 1.45 0 00-.035.3v2.025a2.177 2.177 0 00.913 1.747l17.888 10.326c-.07.322-.269.513-.521.513z"/><path class="k" d="M897.191 2047.376l-10.778-6.223a.768.768 0 01-.322-.617c0-.235.139-.348.322-.243l10.778 6.227a.792.792 0 01.322.617c-.002.239-.149.348-.322.239z"/><path class="f" d="M902.805 2065.06l-17.914-10.344a2.2 2.2 0 01-.913-1.747v-2.024c0-.678.409-.982.913-.7l17.914 10.343a2.21 2.21 0 01.921 1.747v2.025c0 .678-.409.982-.921.7z"/><path class="v" d="M883.979 2050.94a1 1 0 01.148-.574 1.157 1.157 0 00-.148.574zm.148-.574zm.791-.1l-.026-.017a.8.8 0 00-.365-.113.708.708 0 01.365.113l.017.017z"/><path class="j" d="M903.17 2065.164a.782.782 0 01-.365-.1l-17.914-10.348a2.161 2.161 0 01-.9-1.547 1.543 1.543 0 01-.009-.2v-2.034a1 1 0 01.148-.574.476.476 0 01.409-.226.709.709 0 01.365.113l.026.017a1.45 1.45 0 00-.035.3v2.025a2.177 2.177 0 00.913 1.747l17.888 10.326c-.07.322-.269.513-.521.513z"/><path class="j" d="M897.191 2059.506l-10.778-6.223a.768.768 0 01-.322-.617c0-.235.139-.348.322-.243l10.778 6.222a.792.792 0 01.322.617c0 .235-.148.348-.322.243z"/><path class="f" d="M902.805 2076.933l-17.914-10.343a2.2 2.2 0 01-.913-1.747v-2.025c0-.678.409-.982.913-.7l17.914 10.343a2.21 2.21 0 01.921 1.747v2.025c0 .678-.409.982-.921.7z"/><path class="v" d="M883.979 2062.818a1 1 0 01.148-.574 1.072 1.072 0 00-.148.574zm.148-.574zm.791-.1l-.026-.017a.708.708 0 00-.365-.113.709.709 0 01.365.113l.017.017z"/><path class="j" d="M903.17 2077.045a.782.782 0 01-.365-.1l-17.914-10.347a2.161 2.161 0 01-.9-1.547 1.543 1.543 0 01-.009-.2v-2.025a1 1 0 01.148-.574.466.466 0 01.409-.226.709.709 0 01.365.113l.026.017a1.45 1.45 0 00-.035.3v2.021a2.177 2.177 0 00.913 1.747l17.888 10.326c-.07.322-.269.513-.521.513z"/><path class="k" d="M897.191 2071.378l-10.778-6.223a.768.768 0 01-.322-.617c0-.235.139-.348.322-.243l10.778 6.223a.792.792 0 01.322.617c-.002.234-.149.347-.322.243z"/><path class="g" d="M882.999 2019.08l-1.871-1.078v-7.571l1.869 1.086z"/><path class="w" d="M882.999 2031.053l-1.869-1.078z"/><path class="g" d="M882.999 2031.048l-1.871-1.082v-7.566l1.871 1.086z"/><path class="w" d="M882.999 2043.026l-1.869-1.086z"/><path class="g" d="M882.999 2043.026l-1.869-1.086v-7.562l1.869 1.078z"/><path class="w" d="M882.999 2054.994l-1.869-1.086z"/><path class="g" d="M882.999 2054.998l-1.869-1.086v-7.566l1.869 1.078z"/><path class="w" d="M882.999 2066.963l-1.869-1.078z"/><path class="g" d="M882.999 2066.962l-1.869-1.078v-7.569l1.869 1.086z"/><path class="k" d="M899.311 2024.226c0 .243-.165.339-.382.217a.849.849 0 01-.382-.661c0-.243.174-.339.382-.217a.849.849 0 01.382.661zm1.608.93c0 .243-.174.339-.382.217a.849.849 0 01-.382-.661c0-.243.174-.339.382-.217a.849.849 0 01.382.661zm1.608.93c0 .243-.174.339-.382.217a.85.85 0 01-.382-.661c0-.243.165-.339.382-.217a.847.847 0 01.382.652z"/><path class="j" d="M899.311 2036.195c0 .243-.165.339-.382.217a.849.849 0 01-.382-.661c0-.243.174-.339.382-.217a.849.849 0 01.382.661z"/><path class="k" d="M900.919 2037.124c0 .243-.174.339-.382.217a.849.849 0 01-.382-.661c0-.243.174-.339.382-.217a.85.85 0 01.382.661zm1.608.922c0 .243-.174.339-.382.217a.85.85 0 01-.382-.661c0-.243.165-.339.382-.217a.849.849 0 01.382.661z"/><path class="j" d="M899.311 2048.252c0 .243-.165.339-.382.217a.849.849 0 01-.382-.661c0-.243.174-.339.382-.217a.849.849 0 01.382.661z"/><path class="k" d="M900.919 2049.171c0 .243-.174.339-.382.217a.849.849 0 01-.382-.661c0-.243.174-.339.382-.217a.849.849 0 01.382.661z"/><path class="j" d="M902.527 2050.101c0 .243-.174.339-.382.217a.849.849 0 01-.382-.661c0-.243.165-.339.382-.217a.849.849 0 01.382.661z"/><path class="k" d="M899.311 2060.122c0 .243-.165.339-.382.217a.849.849 0 01-.382-.661c0-.243.174-.339.382-.217a.849.849 0 01.382.661zm1.608.931c0 .243-.174.339-.382.217a.85.85 0 01-.382-.661c0-.243.174-.339.382-.217a.849.849 0 01.382.661zm1.608.93c0 .243-.174.339-.382.217a.85.85 0 01-.382-.661c0-.243.165-.339.382-.217a.849.849 0 01.382.661zm-3.216 10.19c0 .243-.165.339-.382.217a.849.849 0 01-.382-.661c0-.243.174-.339.382-.217a.849.849 0 01.382.661z"/><path class="j" d="M900.919 2073.091c0 .243-.174.339-.382.217a.85.85 0 01-.382-.661c0-.243.174-.339.382-.217a.85.85 0 01.382.661z"/><path class="k" d="M902.527 2074.02c0 .243-.174.339-.382.217a.848.848 0 01-.382-.652c0-.243.165-.339.382-.217a.849.849 0 01.382.661z"/><path class="i" d="M911.191 2024.182v52.533l21.608-12.473v-52.532l-21.608 12.472zm-.443 53.307v-53.559l.113-.061 22.381-12.925v53.559l-.113.061-22.39 12.925z"/><path class="f" d="M927.437 2035.038l-10.039 5.8c-.678.391-1.217-.026-1.217-.921v-5.565a2.91 2.91 0 011.217-2.329l10.039-5.8c.678-.391 1.217.026 1.217.921v5.565a2.923 2.923 0 01-1.217 2.329z"/><path class="j" d="M927.681 2026.112a1.559 1.559 0 01.087.556v5.563a2.923 2.923 0 01-1.217 2.329l-10.039 5.8a.822.822 0 01-.243.1.71.71 0 001.13.365l10.039-5.8a2.912 2.912 0 001.217-2.329v-5.558c0-.791-.417-1.2-.973-1.034z"/><path class="j" d="M925.604 2031.683c.183-.1.339-.017.339.191v1.269a.723.723 0 01-.339.582c-.191.1-.339.017-.339-.191v-1.269a.723.723 0 01.339-.582zm-1.444.991c.183-.1.339-.017.339.191v1.112a.749.749 0 01-.339.582c-.182.1-.339.017-.339-.191v-1.112a.723.723 0 01.339-.582zm-1.442-.408c.191-.1.339-.017.339.191v2.347a.723.723 0 01-.339.582c-.183.1-.339.017-.339-.191v-2.347a.723.723 0 01.339-.582zm-1.436-.522c.183-.1.339-.017.339.191v3.694a.723.723 0 01-.339.582c-.183.1-.339.017-.339-.191v-3.693a.723.723 0 01.339-.583zm-1.441 1.226c.183-.1.339-.017.339.191v3.312a.723.723 0 01-.339.582c-.183.1-.339.017-.339-.191v-3.312a.723.723 0 01.339-.582zm-1.443 2.346c.183-.1.33-.017.33.191v1.8a.737.737 0 01-.33.582c-.191.1-.339.017-.339-.191v-1.8a.723.723 0 01.339-.582zm6.875-4.267c0 .209.148.3.33.191a.734.734 0 00.33-.574c0-.209-.148-.3-.33-.191a.734.734 0 00-.33.574zm0-1.191c0 .209.148.3.33.191a.734.734 0 00.33-.574c0-.209-.148-.3-.33-.191a.734.734 0 00-.33.574z"/><path class="g" d="M774.132 2126.486v-92.509l36.775-9.63 6.771-3.911a6.759 6.759 0 016.067.252l6.319 3.651 19.617-.009-5.806 89.3a1.755 1.755 0 01-1.043 1.625l-36.7 27.692a6.759 6.759 0 01-6.067-.252l-24.455-14.126a2.42 2.42 0 01-1.478-2.095z"/><path class="i" d="M820.503 2019.844a6.958 6.958 0 013.251.852l6.319 3.651 19.617-.009v92.759a1.755 1.755 0 01-1.043 1.625l-42.512 24.241a5.459 5.459 0 01-2.816.6l-.435-93.332 17.618-30.378z"/><path class="h" d="M805.743 2143.145a6.956 6.956 0 01-4.85-.052v-93.975h4.85z"/><path class="i" d="M806.135 2050.231l42.511-24.241c1.556-.9 1.356-2.468-.435-3.5l-24.458-14.119a6.759 6.759 0 00-6.067-.252l-42.511 24.242c-1.556.9-1.356 2.468.435 3.5l24.459 14.115a6.759 6.759 0 006.066.255z"/><path class="h" d="M775.61 2034.133l24.459 14.124a6.759 6.759 0 006.067.252l42.511-24.241a2.328 2.328 0 00.774-.687 1.629 1.629 0 01-.774 2.408l-42.512 24.241a6.759 6.759 0 01-6.067-.252l-24.458-14.115c-1.391-.808-1.817-1.93-1.208-2.816a3.5 3.5 0 001.208 1.1z"/><path class="w" d="M804.936 2040.409l28.3-16.4c.73-.417.634-1.156-.209-1.643l-11.447-6.606a3.167 3.167 0 00-2.842-.122l-28.3 16.4c-.73.417-.634 1.156.209 1.634l11.446 6.608a3.167 3.167 0 002.842.122z"/><path class="f" d="M820.216 2024.74l1.643-.947c.1-.061.087-.156-.026-.226l-1.582-.913a.418.418 0 00-.391-.017l-1.643.947c-.1.061-.087.156.026.226l1.582.913a.445.445 0 00.391.017zm-5.485 3.144l1.643-.947c.1-.061.087-.156-.026-.226l-1.582-.913a.445.445 0 00-.391-.017l-1.643.947c-.1.052-.087.156.026.226l1.582.913a.419.419 0 00.391.017zm-5.476 3.16l1.643-.947c.1-.061.087-.156-.026-.226l-1.582-.913a.446.446 0 00-.391-.017l-1.643.947c-.1.061-.087.156.026.226l1.582.913a.446.446 0 00.391.017zm-5.476 3.142l1.643-.947c.1-.061.087-.156-.026-.226l-1.582-.913a.445.445 0 00-.391-.017l-1.643.947c-.1.061-.087.156.026.226l1.582.913a.444.444 0 00.391.017z"/><path class="h" d="M833.236 2023.999l-.035.017-.174-.113-11.447-6.605a3.167 3.167 0 00-2.842-.122l-28.266 16.384c-.669-.478-.7-1.13-.035-1.521l28.3-16.4a3.167 3.167 0 012.842.122l11.451 6.604c.843.487.93 1.217.209 1.643z"/><path class="u" d="M795.296 2068.553l-16.09-9.214a3.936 3.936 0 01-1.643-3.129v-5.754c0-1.208.73-1.764 1.643-1.243l16.09 9.214a3.936 3.936 0 011.643 3.129v5.754c0 1.206-.733 1.764-1.643 1.243z"/><path class="h" d="M778.406 2049.04a1.6 1.6 0 00-.409 1.2v5.754a3.946 3.946 0 001.634 3.138l16.091 9.213a1.177 1.177 0 00.8.174.966.966 0 01-1.226.043l-16.09-9.213a3.936 3.936 0 01-1.643-3.129v-5.754c0-.817.348-1.33.843-1.417z"/><path class="f" d="M790.455 2062.304l-1.478-.852a.845.845 0 01-.356-.687v-1.573c0-.261.156-.382.356-.269l1.478.852a.845.845 0 01.356.687v1.573c0 .26-.157.382-.356.269z"/><path class="l" d="M785.518 2059.453l-1.478-.852a.841.841 0 01-.356-.678v-1.582c0-.261.156-.382.356-.269l1.478.852a.841.841 0 01.356.678v1.582c.001.26-.156.382-.356.269z"/><path class="u" d="M795.296 2110.134l-16.09-9.213a3.936 3.936 0 01-1.643-3.129v-5.754c0-1.208.73-1.764 1.643-1.234l16.09 9.213a3.936 3.936 0 011.643 3.129v5.754c0 1.208-.73 1.764-1.643 1.243z"/><path class="h" d="M778.406 2090.621a1.6 1.6 0 00-.409 1.2v5.754a3.916 3.916 0 001.634 3.129l16.088 9.213a1.177 1.177 0 00.8.174.989.989 0 01-1.226.043l-16.087-9.213a3.937 3.937 0 01-1.643-3.129v-5.754c0-.817.348-1.33.843-1.408z"/><path class="f" d="M790.455 2103.884l-1.478-.851a.845.845 0 01-.356-.687v-1.573c0-.261.156-.382.356-.269l1.478.852a.845.845 0 01.356.687v1.573c0 .26-.157.381-.356.268z"/><path class="l" d="M785.518 2101.034l-1.478-.852a.841.841 0 01-.356-.678v-1.582c0-.261.156-.382.356-.269l1.478.852a.845.845 0 01.356.687v1.582c0 .261-.156.382-.356.269z"/><path class="u" d="M795.296 2130.925l-16.09-9.213a3.936 3.936 0 01-1.643-3.129v-5.754c0-1.208.73-1.764 1.643-1.243l16.09 9.215a3.936 3.936 0 011.643 3.129v5.754c0 1.208-.73 1.764-1.643 1.234z"/><path class="h" d="M778.406 2111.409a1.617 1.617 0 00-.409 1.2v5.754a3.916 3.916 0 001.634 3.129l16.091 9.217a1.176 1.176 0 00.8.174.977.977 0 01-1.226.043l-16.09-9.217a3.936 3.936 0 01-1.643-3.129v-5.751c.002-.82.349-1.33.843-1.42z"/><path class="f" d="M790.455 2124.676l-1.478-.852a.841.841 0 01-.356-.678v-1.584c0-.261.156-.382.356-.269l1.478.852a.841.841 0 01.356.678v1.582c0 .262-.157.384-.356.271z"/><path class="l" d="M785.518 2121.825l-1.478-.85a.845.845 0 01-.356-.687v-1.574c0-.261.156-.382.356-.269l1.478.852a.845.845 0 01.356.687v1.573c.001.259-.156.381-.356.268z"/><path class="u" d="M795.296 2089.346l-16.09-9.215a3.936 3.936 0 01-1.643-3.129v-5.756c0-1.208.73-1.764 1.643-1.234l16.09 9.215a3.936 3.936 0 011.643 3.129v5.754c0 1.208-.73 1.764-1.643 1.243z"/><path class="h" d="M778.406 2069.831a1.6 1.6 0 00-.409 1.2v5.754a3.916 3.916 0 001.634 3.129l16.088 9.213a1.177 1.177 0 00.8.174.966.966 0 01-1.226.043l-16.087-9.213a3.936 3.936 0 01-1.643-3.129v-5.754c0-.817.348-1.33.843-1.408z"/><path class="f" d="M790.455 2083.094l-1.478-.852a.845.845 0 01-.356-.687v-1.573c0-.261.156-.382.356-.269l1.478.852a.845.845 0 01.356.687v1.573c0 .26-.157.38-.356.269z"/><path class="l" d="M785.518 2080.243l-1.478-.852a.841.841 0 01-.356-.678v-1.581c0-.261.156-.382.356-.269l1.478.852a.841.841 0 01.356.678v1.573c0 .261-.156.382-.356.269z"/><path class="g" d="M809.23 2062.668l37.123-21.434a3.588 3.588 0 001.5-2.877v-7.083c0-1.1-.669-1.617-1.5-1.139l-37.123 21.434a3.588 3.588 0 00-1.5 2.877v7.075c0 1.113.678 1.617 1.5 1.139z"/><path class="u" d="M809.997 2060.278a.562.562 0 00.3-.1l34.993-20.2a1.817 1.817 0 00.765-1.46v-5.315c0-.417-.191-.669-.461-.669a.647.647 0 00-.3.1l-34.997 20.196a1.84 1.84 0 00-.765 1.46v5.319c.001.421.193.669.465.669z"/><path class="k" d="M837.999 2041.496l5.224-3.016a1.771 1.771 0 00.739-1.417c0-.548-.33-.8-.739-.556l-5.224 3.016a1.771 1.771 0 00-.739 1.417c0 .547.33.799.739.556z"/><path class="f" d="M833.549 2043.077c0 .548.382.765.852.5a1.909 1.909 0 00.854-1.491c0-.548-.382-.765-.852-.5a1.909 1.909 0 00-.854 1.491zm-3.025 1.747c0 .548.382.765.852.5a1.918 1.918 0 00.86-1.486c0-.548-.382-.765-.86-.5a1.893 1.893 0 00-.852 1.478z"/><path class="r" d="M827.508 2046.572c0 .548.382.765.852.5a1.9 1.9 0 00.852-1.486c0-.548-.382-.765-.852-.5a1.893 1.893 0 00-.852 1.478z"/><path class="f" d="M824.492 2048.309c0 .548.382.765.852.5a1.9 1.9 0 00.852-1.486c0-.548-.382-.765-.852-.5a1.893 1.893 0 00-.852 1.478zm-12.725 8.91l1.756-1.017a1.135 1.135 0 00.478-.9v-1.86c0-.348-.209-.513-.478-.356l-1.756 1.012a1.152 1.152 0 00-.478.913v1.86c0 .348.217.513.478.356z"/><path class="g" d="M809.23 2075.15l37.122-21.434a3.588 3.588 0 001.5-2.877v-7.084c0-1.113-.669-1.617-1.5-1.139l-37.122 21.434a3.588 3.588 0 00-1.5 2.877v7.079c0 1.1.678 1.617 1.5 1.139z"/><path class="u" d="M809.997 2072.76a.562.562 0 00.3-.1l34.993-20.2a1.817 1.817 0 00.765-1.46v-5.315c0-.417-.191-.669-.461-.669a.627.627 0 00-.3.087l-34.997 20.208a1.841 1.841 0 00-.765 1.46v5.319c.001.418.193.67.465.67z"/><path class="k" d="M837.999 2053.986l5.224-3.016a1.771 1.771 0 00.739-1.417c0-.548-.33-.8-.739-.556l-5.224 3.016a1.771 1.771 0 00-.739 1.417c0 .543.33.799.739.556z"/><path class="l" d="M833.549 2055.567c0 .548.382.765.852.5a1.909 1.909 0 00.854-1.49c0-.548-.382-.765-.852-.5a1.909 1.909 0 00-.854 1.49z"/><path class="f" d="M830.524 2057.306c0 .548.382.765.852.5a1.9 1.9 0 00.86-1.478c0-.548-.382-.765-.86-.5a1.893 1.893 0 00-.852 1.478z"/><path class="r" d="M827.508 2059.052c0 .548.382.765.852.5a1.893 1.893 0 00.852-1.478c0-.548-.382-.765-.852-.5a1.909 1.909 0 00-.852 1.486z"/><path class="f" d="M824.492 2060.795c0 .548.382.765.852.5a1.9 1.9 0 00.852-1.486c0-.548-.382-.765-.852-.5a1.909 1.909 0 00-.852 1.486zm-12.725 8.904l1.756-1.017a1.152 1.152 0 00.478-.913v-1.86c0-.348-.209-.513-.478-.356l-1.756 1.018a1.152 1.152 0 00-.478.913v1.86c.001.347.218.512.478.355z"/><path class="g" d="M809.23 2087.631l37.123-21.434a3.588 3.588 0 001.5-2.877v-7.083c0-1.113-.669-1.617-1.5-1.139l-37.123 21.434a3.6 3.6 0 00-1.5 2.877v7.075c0 1.113.678 1.617 1.5 1.139z"/><path class="u" d="M809.997 2085.242a.647.647 0 00.3-.1l34.993-20.2a1.817 1.817 0 00.765-1.46v-5.315c0-.417-.191-.669-.461-.669a.627.627 0 00-.3.087l-34.997 20.199a1.84 1.84 0 00-.765 1.46v5.319c0 .417.191.669.461.669z"/><path class="k" d="M837.999 2066.467l5.224-3.016a1.771 1.771 0 00.739-1.417c0-.548-.33-.8-.739-.556l-5.224 3.016a1.771 1.771 0 00-.739 1.417c0 .547.33.799.739.556z"/><path class="l" d="M833.549 2068.049c0 .548.382.765.852.5a1.909 1.909 0 00.854-1.486c0-.548-.382-.765-.852-.5a1.909 1.909 0 00-.854 1.486z"/><path class="f" d="M830.524 2069.787c0 .548.382.765.852.5a1.9 1.9 0 00.86-1.478c0-.548-.382-.765-.86-.5a1.893 1.893 0 00-.852 1.478z"/><path class="r" d="M827.508 2071.535c0 .548.382.765.852.5a1.909 1.909 0 00.852-1.486c0-.548-.382-.765-.852-.5a1.909 1.909 0 00-.852 1.486z"/><path class="f" d="M824.492 2073.281c0 .548.382.765.852.5a1.893 1.893 0 00.852-1.478c0-.548-.382-.765-.852-.5a1.9 1.9 0 00-.852 1.486zm-12.725 8.909l1.756-1.017a1.152 1.152 0 00.478-.913v-1.859c0-.348-.209-.513-.478-.365l-1.756 1.017a1.152 1.152 0 00-.478.913v1.86c.001.347.218.512.478.364z"/><path class="g" d="M809.23 2100.113l37.122-21.434a3.588 3.588 0 001.5-2.877v-7.073c0-1.113-.669-1.617-1.5-1.139l-37.122 21.432a3.588 3.588 0 00-1.5 2.877v7.075c0 1.113.678 1.617 1.5 1.139z"/><path class="u" d="M809.997 2097.722a.647.647 0 00.3-.1l34.993-20.2a1.817 1.817 0 00.765-1.46v-5.315c0-.417-.191-.669-.461-.669a.627.627 0 00-.3.087l-34.997 20.2a1.84 1.84 0 00-.765 1.46v5.319c0 .417.191.669.461.669z"/><path class="k" d="M837.999 2078.948l5.224-3.016a1.771 1.771 0 00.739-1.417c0-.548-.33-.8-.739-.556l-5.224 3.016a1.771 1.771 0 00-.739 1.417c0 .548.33.8.739.565z"/><path class="f" d="M833.549 2080.525c0 .548.382.765.852.5a1.893 1.893 0 00.854-1.477c0-.548-.382-.765-.852-.5a1.893 1.893 0 00-.854 1.477zm-3.025 1.752c0 .548.382.765.852.5a1.9 1.9 0 00.86-1.486c0-.548-.382-.765-.86-.5a1.893 1.893 0 00-.852 1.478z"/><path class="r" d="M827.508 2084.015c0 .548.382.765.852.5a1.909 1.909 0 00.852-1.486c0-.548-.382-.765-.852-.5a1.9 1.9 0 00-.852 1.486z"/><path class="f" d="M824.492 2085.762c0 .548.382.765.852.5a1.909 1.909 0 00.852-1.486c0-.548-.382-.765-.852-.5a1.9 1.9 0 00-.852 1.486z"/><path class="k" d="M811.767 2094.672l1.756-1.017a1.152 1.152 0 00.478-.913v-1.86c0-.348-.209-.513-.478-.356l-1.756 1.017a1.135 1.135 0 00-.478.9v1.86c0 .348.217.513.478.356z"/><path class="g" d="M809.23 2112.594l37.123-21.434a3.588 3.588 0 001.5-2.877v-7.075c0-1.113-.669-1.617-1.5-1.139l-37.123 21.434a3.588 3.588 0 00-1.5 2.877v7.075c0 1.113.678 1.617 1.5 1.139z"/><path class="u" d="M809.997 2110.204a.627.627 0 00.3-.087l34.994-20.208a1.817 1.817 0 00.765-1.46v-5.32c0-.417-.191-.669-.461-.669a.647.647 0 00-.3.1l-34.998 20.195a1.84 1.84 0 00-.765 1.46v5.319c.001.418.193.67.465.67z"/><path class="k" d="M837.999 2091.429l5.224-3.016a1.771 1.771 0 00.739-1.417c0-.548-.33-.8-.739-.556l-5.224 3.016a1.771 1.771 0 00-.739 1.417c0 .548.33.8.739.556z"/><path class="f" d="M833.549 2093.011c0 .548.382.765.852.5a1.893 1.893 0 00.854-1.482c0-.548-.382-.765-.852-.5a1.909 1.909 0 00-.852 1.486z"/><path class="l" d="M830.524 2094.759c0 .548.382.765.852.5a1.9 1.9 0 00.86-1.486c0-.548-.382-.765-.86-.5a1.909 1.909 0 00-.852 1.486z"/><path class="r" d="M827.508 2096.497c0 .548.382.765.852.5a1.909 1.909 0 00.852-1.486c0-.548-.382-.765-.852-.5a1.909 1.909 0 00-.852 1.486z"/><path class="l" d="M824.492 2098.244c0 .548.382.765.852.5a1.893 1.893 0 00.852-1.478c0-.548-.382-.765-.852-.5a1.893 1.893 0 00-.852 1.478z"/><path class="k" d="M811.767 2107.153l1.756-1.017a1.152 1.152 0 00.478-.913v-1.86c0-.348-.209-.513-.478-.356l-1.756 1.017a1.135 1.135 0 00-.478.9v1.86c0 .348.217.513.478.356z"/><path class="g" d="M809.23 2125.084l37.122-21.433a3.6 3.6 0 001.5-2.877v-7.076c0-1.113-.669-1.617-1.5-1.139l-37.122 21.434a3.588 3.588 0 00-1.5 2.877v7.081c0 1.113.678 1.617 1.5 1.139z"/><path class="u" d="M809.997 2122.685a.562.562 0 00.3-.1l34.993-20.2a1.817 1.817 0 00.765-1.46v-5.315c0-.417-.191-.669-.461-.669a.647.647 0 00-.3.1l-34.997 20.195a1.841 1.841 0 00-.765 1.46v5.319c.001.413.193.67.465.67z"/><path class="k" d="M837.999 2103.911l5.224-3.016a1.771 1.771 0 00.739-1.417c0-.548-.33-.8-.739-.556l-5.224 3.016a1.771 1.771 0 00-.739 1.417c0 .547.33.799.739.556z"/><path class="f" d="M833.549 2105.493c0 .548.382.765.852.5a1.909 1.909 0 00.854-1.491c0-.548-.382-.765-.852-.5a1.909 1.909 0 00-.854 1.491zm-3.025 1.747c0 .548.382.765.852.5a1.9 1.9 0 00.86-1.478c0-.548-.382-.765-.86-.5a1.9 1.9 0 00-.852 1.486z"/><path class="r" d="M827.508 2108.974c0 .548.382.765.852.5a1.893 1.893 0 00.852-1.478c0-.548-.382-.765-.852-.5a1.893 1.893 0 00-.852 1.478z"/><path class="f" d="M824.492 2110.725c0 .548.382.765.852.5a1.893 1.893 0 00.852-1.478c0-.548-.382-.765-.852-.5a1.893 1.893 0 00-.852 1.478zm-12.725 8.909l1.756-1.017a1.135 1.135 0 00.478-.9v-1.86c0-.348-.209-.513-.478-.356l-1.756 1.013a1.152 1.152 0 00-.478.913v1.86c0 .348.217.513.478.356z"/><path class="g" d="M809.23 2137.566l37.123-21.434a3.588 3.588 0 001.5-2.877v-7.084c0-1.113-.669-1.617-1.5-1.139l-37.123 21.434a3.588 3.588 0 00-1.5 2.877v7.084c0 1.113.678 1.617 1.5 1.139z"/><path class="u" d="M809.997 2135.175a.627.627 0 00.3-.087l34.993-20.208a1.817 1.817 0 00.765-1.46v-5.32c0-.417-.191-.669-.461-.669a.627.627 0 00-.3.087l-34.997 20.208a1.841 1.841 0 00-.765 1.46v5.319c.001.418.193.67.465.67z"/><path class="k" d="M837.999 2116.401l5.224-3.016a1.771 1.771 0 00.739-1.417c0-.548-.33-.8-.739-.556l-5.224 3.016a1.771 1.771 0 00-.739 1.417c0 .548.33.8.739.556z"/><path class="l" d="M832.59 2118.652c0 1.034.721 1.452 1.617.93a3.569 3.569 0 001.617-2.8c0-1.034-.721-1.452-1.617-.93a3.569 3.569 0 00-1.617 2.8z"/><path class="f" d="M826.343 2122.312c0 .548.382.765.86.5a1.909 1.909 0 00.852-1.486c0-.548-.382-.765-.852-.5a1.9 1.9 0 00-.86 1.486z"/><path class="r" d="M823.319 2124.058c0 .548.382.765.852.5a1.909 1.909 0 00.852-1.486c0-.548-.382-.765-.852-.5a1.893 1.893 0 00-.852 1.478z"/><path class="f" d="M820.304 2125.797c0 .548.382.765.86.5a1.909 1.909 0 00.852-1.486c0-.548-.382-.765-.852-.5a1.918 1.918 0 00-.86 1.486z"/><path class="k" d="M811.767 2132.116l1.756-1.017a1.148 1.148 0 00.478-.9v-1.86c0-.348-.209-.513-.478-.356l-1.756 1.012a1.152 1.152 0 00-.478.913v1.86c0 .348.217.513.478.365z"/></g></svg>