<svg xmlns="http://www.w3.org/2000/svg" xmlns:xlink="http://www.w3.org/1999/xlink" width="960" height="858"><defs><linearGradient id="b" x1="1" y1=".5" x2="0" y2=".5" gradientUnits="objectBoundingBox"><stop offset="0" stop-color="#6060a7"/><stop offset="1" stop-color="#cac5e3"/></linearGradient><linearGradient id="c" x1=".956" y1=".675" x2=".044" y2=".675" xlink:href="#b"/><linearGradient id="f" x1=".5" y1=".903" x2=".5" y2=".097" gradientUnits="objectBoundingBox"><stop offset="0" stop-color="#3d316f"/><stop offset="1" stop-color="#5f4d99"/></linearGradient><linearGradient id="g" y1=".45" x2=".937" y2=".541" gradientUnits="objectBoundingBox"><stop offset="0" stop-color="#4e3e8e"/><stop offset="1" stop-color="#634e99"/></linearGradient><clipPath id="a"><path transform="translate(0 2047)" fill="#fff" d="M0 0h960v858H0z"/></clipPath><clipPath id="e"><path d="M109.344 281.818c11.022 6.356 28.882 6.356 39.9 0s11.022-16.674 0-23.029-28.882-6.356-39.9 0-11.022 16.674 0 23.029z" transform="translate(-101.078 -254.022)" clip-rule="evenodd"/></clipPath><style>.d{fill:#bdc1c6}.e{fill:#dadce0}.f{fill:#e8eaed}.g{fill:#ff5833}.h{fill:#2950af}.i,.s{fill:#5786ed}.j{fill:#abc5ff}.k{fill:#d4492a}.l{fill:#f7f5f6}.m{fill:#fefefe}.o{fill:#4d7828}.ab,.s,.v{fill-rule:evenodd}.t{fill:#cac5e3}.v{fill:url(#c)}.z{fill:#dfeefb}.ab{fill:url(#g)}.ac{fill:#0d346b}.ad{fill:#4766a2}.ae{fill:#2f3e74}.ag{fill:#f1f3f4}</style></defs><g transform="translate(0 -2047)" clip-path="url(#a)"><path class="d" d="M459.202 2919.525v-639.893l-238.46-.141v638.912c-.3 3.721 2.293 7.723 7.643 10.821l94.773 54.708c9.272 5.37 23.331 5.953 31.356 1.307l99.278-57.322c3.862-2.233 5.612-5.25 5.39-8.387z"/><path class="e" d="M459.203 2919.525v-637.8a2.206 2.206 0 00-2.212-2.212l-18.3-.02-98.715 43.625v665.22c5.431.121 10.68-.865 14.542-3.1l99.278-57.322c3.419-1.971 5.189-4.586 5.39-7.321v-1.006a.121.121 0 00-.02-.081z"/><path class="f" d="M453.831 2287.899l-99.278 57.322c-8.025 4.646-22.084 4.063-31.356-1.287l-94.772-54.727c-9.272-5.35-10.3-13.456-2.253-18.1l99.279-57.324c8.045-4.646 22.084-4.063 31.376 1.287l94.773 54.728c9.272 5.35 10.3 13.456 2.253 18.1z"/><path class="g" d="M402.946 2271.346l-10.56-6.095 38.94-22.486c1.85-1.066 1.85-2.8 0-3.862l-39.784-22.969a7.371 7.371 0 00-6.678 0l-38.939 22.488-10.559-6.1 38.939-22.486c7.663-4.425 20.133-4.425 27.8 0l39.781 22.973c7.663 4.425 7.663 11.625 0 16.05l-38.94 22.487z"/><path class="h" d="M419.982 2274.018c0-5.652-3.439-12.209-7.663-14.642l-70.557-40.727c-1.891-1.086-3.62-1.167-4.968-.422l-84.233 48.955 81.458 61.385 82.983-48.171a3.249 3.249 0 00.724-.422c1.388-1.046 2.253-3.118 2.253-5.933z"/><path class="i" d="M334.02 2328.547l82.987-48.171a3.249 3.249 0 00.724-.422c1.388-1.046 2.253-3.118 2.253-5.933a18.6 18.6 0 00-2.072-8.146l-94.592 54.607 10.7 8.065z"/><path class="j" d="M328.709 2328.321l-70.537-40.724c-4.244-2.454-7.663-8.991-7.663-14.642s3.439-8.246 7.663-5.793l70.537 40.729c4.244 2.434 7.663 8.991 7.663 14.642s-3.439 8.246-7.663 5.793z"/><path class="h" d="M318.149 2314.586l-8.488-4.887a3.643 3.643 0 01-1.528-2.913c0-1.126.684-1.649 1.529-1.146l8.488 4.887a3.643 3.643 0 011.529 2.916c0 1.126-.684 1.649-1.529 1.167z"/><path class="k" d="M337.277 2198.778l-66.112-38.155a3.386 3.386 0 00-3.419-.281v-.042l-6.416 3.7s2.836 1.026 4.505 1.649v48.133c0 3.922 2.373 8.468 5.31 10.157l63.175 36.461v5.652l6.476-3.721-.04-.02c1.086-.664 1.79-2.132 1.79-4.244v-49.152c0-3.922-2.373-8.468-5.31-10.157z"/><path class="g" d="M330.74 2265.875l-66.091-38.155c-2.937-1.689-5.31-6.235-5.31-10.157v-49.156c0-3.922 2.373-5.712 5.31-4.023l66.092 38.155c2.937 1.69 5.31 6.255 5.31 10.157v49.156c-.001 3.917-2.374 5.717-5.311 4.023z"/><path class="l" d="M286.874 2210.765c0 2.836-1.991 4-4.465 2.574a9.908 9.908 0 01-4.465-7.723c0-2.836 1.991-4 4.465-2.574a9.908 9.908 0 014.465 7.723zm13.515 7.803c0 2.836-1.991 4-4.465 2.574a9.908 9.908 0 01-4.465-7.723c0-2.856 2.011-4 4.465-2.574a9.908 9.908 0 014.465 7.723zm13.517 7.805c0 2.836-1.991 4-4.465 2.574a9.908 9.908 0 01-4.465-7.723c0-2.836 1.991-3.982 4.465-2.574a9.908 9.908 0 014.465 7.723z"/><path class="d" d="M839.964 2974.72v-567.63l-275.73-.161v566.484c-.342 4.3 2.635 8.95 8.83 12.51l109.6 63.276c10.74 6.195 26.972 6.879 36.264 1.508l114.805-66.273c4.465-2.574 6.5-6.074 6.235-9.715z"/><path class="e" d="M839.964 2974.72v-565.217a2.558 2.558 0 00-2.554-2.554l-21.159-.02-114.142 50.443v596.918c6.3.161 12.37-1.006 16.835-3.58l114.802-66.275c3.942-2.273 5.994-5.29 6.235-8.468v-1.146c0-.04-.02-.06-.02-.1h.02z"/><path class="f" d="M833.728 2416.662l-114.805 66.273c-9.292 5.37-25.523 4.686-36.264-1.508l-109.6-63.276c-10.74-6.195-11.907-15.568-2.615-20.938l114.81-66.273c9.292-5.37 25.523-4.686 36.264 1.508l109.6 63.276c10.74 6.195 11.907 15.568 2.615 20.938z"/><path class="d" d="M325.491 2548.625v-19.349l-204.63-.121v18.524c-.261 3.2 1.951 6.637 6.557 9.292l81.337 46.963c7.965 4.606 20.013 5.109 26.911 1.106l85.2-49.2c3.319-1.911 4.827-4.505 4.626-7.2z"/><path class="e" d="M325.491 2548.625v-17.579a1.888 1.888 0 00-1.891-1.891h-15.708l-84.716 37.43v41.091c4.666.121 9.172-.744 12.49-2.655l85.2-49.2c2.937-1.689 4.445-3.922 4.626-6.275v-.925z"/><path class="f" d="M320.865 2536.355l-85.2 49.2c-6.9 3.982-18.947 3.48-26.911-1.126l-81.337-46.967c-7.965-4.606-8.83-11.545-1.931-15.547l85.2-49.2c6.9-3.982 18.947-3.48 26.911 1.126l81.337 46.967c7.965 4.606 8.83 11.565 1.931 15.547z"/><path class="m" d="M233.172 2441.301l-3.218-1.85a1.842 1.842 0 01-.784-1.488v-3.439c0-.563.342-.845.784-.583l3.218 1.85a1.9 1.9 0 01.784 1.488v3.439c.001.583-.341.845-.784.583z"/><path d="M222.411 2435.086l-3.218-1.85a1.9 1.9 0 01-.784-1.488v-3.44c0-.583.342-.845.784-.583l3.218 1.85a1.9 1.9 0 01.784 1.488v3.439c0 .584-.342.845-.784.584z" fill="#3f6aa9"/><path class="i" d="M164.385 2531.71v-17.277l38.718-.02 13.4-7.723c3.077-1.77 8.447-1.549 11.987.5l12.49 7.221 38.758-.02v17.76a3.507 3.507 0 01-2.052 3.218l-50.065 28.904c-3.077 1.77-8.447 1.549-11.987-.5l-48.333-27.92c-2.052-1.187-3.037-2.715-2.916-4.143z"/><path class="i" d="M222.069 2505.498a13.785 13.785 0 016.416 1.689l12.49 7.221 38.758-.02v17.76a3.507 3.507 0 01-2.052 3.218l-50.061 28.9a10.86 10.86 0 01-5.571 1.187v-59.931z"/><path class="h" d="M275.369 2514.372h4.385v17.76a3.507 3.507 0 01-2.052 3.218l-2.333 1.348zm-48.512 50.242a13.66 13.66 0 01-9.574-.121v-20.173h9.574v20.274z"/><path class="j" d="M227.64 2546.553l50.061-28.9c3.077-1.77 2.7-4.867-.865-6.919l-48.331-27.92c-3.54-2.052-8.91-2.273-11.987-.5l-50.061 28.9c-3.077 1.77-2.7 4.867.865 6.919l48.332 27.917c3.539 2.051 8.909 2.273 11.986.503z"/><path class="k" d="M226.736 2541.341l41.952-24.213c2.574-1.488 2.253-4.083-.724-5.793l-40.504-23.394c-2.977-1.73-7.462-1.911-10.036-.422l-41.956 24.222c-2.574 1.488-2.253 4.083.724 5.793l40.508 23.392c2.976 1.705 7.462 1.906 10.036.415z"/><path class="i" d="M164.385 2504.094v-17.277l38.718-.02 13.4-7.723c3.077-1.77 8.447-1.549 11.987.5l12.49 7.221 38.758-.02v17.76a3.507 3.507 0 01-2.052 3.218l-50.065 28.904c-3.077 1.77-8.447 1.549-11.987-.5l-48.333-27.919c-2.052-1.187-3.037-2.715-2.916-4.143z"/><path class="i" d="M222.069 2477.887a13.785 13.785 0 016.416 1.689l12.49 7.221 38.758-.02v17.76a3.507 3.507 0 01-2.052 3.218l-50.06 28.902a10.86 10.86 0 01-5.571 1.187v-59.937z"/><path class="h" d="M275.369 2486.777h4.385v17.76a3.507 3.507 0 01-2.052 3.218l-2.333 1.348zm-48.512 50.242a13.767 13.767 0 01-9.574-.1v-20.174h9.574z"/><path class="j" d="M227.64 2518.938l50.061-28.9c3.077-1.77 2.7-4.867-.865-6.919l-48.332-27.9c-3.54-2.052-8.91-2.273-11.987-.5l-50.061 28.9c-3.077 1.77-2.7 4.867.865 6.919l48.332 27.9c3.54 2.049 8.91 2.27 11.987.5z"/><path class="k" d="M226.736 2513.729l41.952-24.217c2.574-1.488 2.253-4.083-.724-5.793l-40.504-23.391c-2.977-1.71-7.462-1.911-10.036-.422l-41.956 24.216c-2.574 1.488-2.253 4.083.724 5.793l40.508 23.392c2.977 1.71 7.462 1.891 10.036.4z"/><path class="i" d="M164.385 2476.502v-17.28l38.718-.02 13.4-7.723c3.077-1.77 8.447-1.549 11.987.5l12.49 7.221 38.758-.02v17.76a3.507 3.507 0 01-2.052 3.218l-50.065 28.904c-3.077 1.77-8.447 1.549-11.987-.5l-48.333-27.92c-2.052-1.187-3.037-2.715-2.916-4.143z"/><path class="i" d="M222.069 2450.292a13.785 13.785 0 016.416 1.689l12.49 7.221 38.758-.02v17.76a3.507 3.507 0 01-2.052 3.218l-50.061 28.9a10.86 10.86 0 01-5.571 1.187v-59.935z"/><path class="h" d="M275.369 2459.162h4.385v17.76a3.507 3.507 0 01-2.052 3.218l-2.333 1.348zm-48.512 50.263a13.766 13.766 0 01-9.574-.1v-20.174h9.574z"/><path class="g" d="M227.64 2491.344l50.062-28.9c3.077-1.77 2.7-4.867-.865-6.919l-48.332-27.92c-3.54-2.052-8.91-2.273-11.987-.5l-50.061 28.9c-3.077 1.77-2.7 4.867.865 6.919l48.332 27.9c3.54 2.052 8.91 2.273 11.987.5z"/><path class="j" d="M167.302 2459.544l48.332 27.917c3.54 2.052 8.91 2.273 11.987.5l50.061-28.9a4.665 4.665 0 001.529-1.368c1.046 1.69.583 3.54-1.529 4.767l-50.062 28.903c-3.077 1.77-8.447 1.549-11.987-.5l-48.332-27.9c-2.755-1.589-3.6-3.821-2.393-5.571a6.706 6.706 0 002.393 2.172z"/><path class="g" d="M224.664 2473.422l23.43-13.536c1.448-.825 1.267-2.273-.4-3.238l-22.608-13.054a6.238 6.238 0 00-5.612-.241l-23.431 13.536c-1.448.825-1.247 2.273.4 3.238l22.627 13.053a6.237 6.237 0 005.612.241z"/><path class="k" d="M222.431 2462.098l3.238-1.871c.2-.121.161-.322-.06-.443l-3.138-1.81a.9.9 0 00-.784-.04l-3.241 1.871c-.2.121-.181.322.06.443l3.138 1.81a.931.931 0 00.764.04z"/><path class="k" d="M248.096 2459.886l-.06.04-.342-.241-22.607-13.054a6.238 6.238 0 00-5.612-.241l-23.351 13.5c-1.327-.945-1.388-2.233-.06-3.017l23.432-13.536a6.237 6.237 0 015.612.241l22.606 13.05c1.669.965 1.85 2.414.4 3.238z"/><path class="o" d="M689.719 3317.407v-784.39l-404.615-.241v782.741c-.523 6.316 3.882 13.114 12.953 18.363l160.822 92.867c15.749 9.091 39.583 10.077 53.219 2.212l168.467-97.267c6.557-3.781 9.534-8.93 9.131-14.26z"/><path d="M689.719 3317.407v-780.869a3.768 3.768 0 00-3.761-3.761l-31.055-.02-167.5 74.016v827.392c9.232.221 18.142-1.468 24.7-5.25l168.467-97.267c5.793-3.339 8.789-7.744 9.151-12.41v-1.69c0-.04-.02-.1-.02-.141z" fill="#75a100"/><path d="M680.587 2547.015l-168.467 97.267c-13.637 7.864-37.471 6.879-53.219-2.212l-160.828-92.842c-15.749-9.091-17.458-22.848-3.821-30.733l168.467-97.267c13.637-7.864 37.471-6.879 53.219 2.212l160.824 92.842c15.749 9.091 17.458 22.848 3.821 30.733z" fill="#8cb811"/><path class="o" d="M444.62 2532.494c-1.408.8-1.408 2.132 0 2.957a5.709 5.709 0 005.109 0c1.408-.8 1.408-2.132 0-2.957a5.709 5.709 0 00-5.109 0zm-13.355-7.724c-1.408.8-1.408 2.132 0 2.957a5.708 5.708 0 005.109 0c1.408-.825 1.408-2.132 0-2.957a5.584 5.584 0 00-5.109 0zm-13.354-7.703c-1.408.825-1.408 2.132 0 2.957a5.584 5.584 0 005.109 0c1.408-.8 1.408-2.132 0-2.957a5.709 5.709 0 00-5.109 0zm-13.356-7.704c-1.408.8-1.408 2.132 0 2.957a5.709 5.709 0 005.109 0c1.408-.825 1.408-2.132 0-2.957a5.709 5.709 0 00-5.109 0zm53.42 15.407c-1.408.8-1.408 2.132 0 2.957a5.708 5.708 0 005.109 0c1.408-.825 1.408-2.132 0-2.957a5.584 5.584 0 00-5.109 0zm-13.355-7.703c-1.408.825-1.408 2.132 0 2.957a5.584 5.584 0 005.109 0c1.408-.8 1.408-2.132 0-2.957a5.709 5.709 0 00-5.109 0zm-13.355-7.704c-1.408.8-1.408 2.132 0 2.957a5.709 5.709 0 005.109 0c1.408-.825 1.408-2.132 0-2.957a5.709 5.709 0 00-5.109 0zm-13.354-7.723c-1.408.8-1.408 2.132 0 2.937a5.584 5.584 0 005.109 0c1.408-.8 1.408-2.132 0-2.937a5.584 5.584 0 00-5.109 0zm53.42 15.427c-1.408.825-1.408 2.132 0 2.957a5.584 5.584 0 005.109 0c1.408-.8 1.408-2.132 0-2.957a5.709 5.709 0 00-5.109 0zm-13.356-7.704c-1.408.8-1.408 2.132 0 2.957a5.709 5.709 0 005.109 0c1.408-.825 1.408-2.132 0-2.957a5.709 5.709 0 00-5.109 0zm-13.355-7.723c-1.408.8-1.408 2.132 0 2.937a5.584 5.584 0 005.109 0c1.408-.8 1.408-2.132 0-2.937a5.584 5.584 0 00-5.109 0zm-13.355-7.703c-1.408.825-1.408 2.132 0 2.957a5.709 5.709 0 005.109 0c1.408-.825 1.408-2.132 0-2.957a5.709 5.709 0 00-5.109 0zm53.421 15.426c-1.408.8-1.408 2.132 0 2.957a5.709 5.709 0 005.109 0c1.408-.8 1.408-2.132 0-2.957a5.709 5.709 0 00-5.109 0zm-13.355-7.723c-1.408.8-1.408 2.132 0 2.937a5.584 5.584 0 005.109 0c1.408-.8 1.408-2.132 0-2.937a5.584 5.584 0 00-5.109 0zm-13.356-7.703c-1.408.825-1.408 2.132 0 2.957a5.709 5.709 0 005.109 0c1.408-.825 1.408-2.132 0-2.957a5.709 5.709 0 00-5.109 0zm-13.355-7.724c-1.408.8-1.408 2.132 0 2.957a5.709 5.709 0 005.109 0c1.408-.8 1.408-2.132 0-2.957a5.709 5.709 0 00-5.109 0zm53.42 15.427c-1.408.8-1.408 2.132 0 2.937a5.584 5.584 0 005.109 0c1.408-.8 1.408-2.132 0-2.937a5.584 5.584 0 00-5.109 0zm-13.354-7.703c-1.408.825-1.408 2.132 0 2.957a5.709 5.709 0 005.109 0c1.408-.825 1.408-2.132 0-2.957a5.709 5.709 0 00-5.109 0zm-13.355-7.724c-1.408.8-1.408 2.132 0 2.957a5.709 5.709 0 005.109 0c1.408-.8 1.408-2.132 0-2.957a5.709 5.709 0 00-5.109 0zm-13.356-7.707c-1.408.825-1.408 2.132 0 2.957a5.584 5.584 0 005.109 0c1.408-.8 1.408-2.132 0-2.957a5.709 5.709 0 00-5.109 0zm53.541 15.35c-1.408.8-1.408 2.132 0 2.957a5.709 5.709 0 005.109 0c1.408-.8 1.408-2.132 0-2.957a5.584 5.584 0 00-5.109 0zm-13.355-7.703c-1.408.8-1.408 2.132 0 2.937a5.584 5.584 0 005.109 0c1.408-.8 1.408-2.132 0-2.937a5.584 5.584 0 00-5.109 0zm-13.355-7.724c-1.408.8-1.408 2.132 0 2.957a5.709 5.709 0 005.109 0c1.408-.8 1.408-2.132 0-2.957a5.709 5.709 0 00-5.109 0zm-13.354-7.703c-1.408.8-1.408 2.132 0 2.957a5.709 5.709 0 005.109 0c1.408-.825 1.408-2.132 0-2.957a5.584 5.584 0 00-5.109 0zm40.064 7.703c-1.408.8-1.408 2.132 0 2.957a5.709 5.709 0 005.109 0c1.408-.8 1.408-2.132 0-2.957a5.709 5.709 0 00-5.109 0zm-13.355-7.703c-1.408.8-1.408 2.132 0 2.957a5.709 5.709 0 005.109 0c1.408-.825 1.408-2.132 0-2.957a5.584 5.584 0 00-5.109 0zm-120.839 83.651c-1.408.825-1.408 2.132 0 2.957a5.584 5.584 0 005.109 0c1.408-.8 1.408-2.132 0-2.957a5.709 5.709 0 00-5.109 0zm-13.356-7.704c-1.408.8-1.408 2.132 0 2.957a5.709 5.709 0 005.109 0c1.408-.825 1.408-2.132 0-2.957a5.709 5.709 0 00-5.109 0zm40.066 7.704c-1.408.825-1.408 2.132 0 2.957a5.584 5.584 0 005.109 0c1.408-.8 1.408-2.132 0-2.957a5.709 5.709 0 00-5.109 0zm-13.355-7.704c-1.408.8-1.408 2.132 0 2.957a5.709 5.709 0 005.109 0c1.408-.825 1.408-2.132 0-2.957a5.709 5.709 0 00-5.109 0zm-13.355-7.703c-1.408.825-1.408 2.132 0 2.957a5.584 5.584 0 005.109 0c1.408-.8 1.408-2.132 0-2.937a5.584 5.584 0 00-5.109 0zm-13.356-7.723c-1.408.8-1.408 2.132 0 2.957a5.584 5.584 0 005.109 0c1.408-.8 1.408-2.132 0-2.957a5.709 5.709 0 00-5.109 0zm53.422 15.426c-1.408.8-1.408 2.132 0 2.957a5.709 5.709 0 005.109 0c1.408-.825 1.408-2.132 0-2.957a5.709 5.709 0 00-5.109 0zm-13.356-7.703c-1.408.8-1.408 2.132 0 2.936a5.584 5.584 0 005.109 0c1.408-.8 1.408-2.132 0-2.936a5.584 5.584 0 00-5.109 0zm-13.355-7.723c-1.408.8-1.408 2.132 0 2.957a5.584 5.584 0 005.109 0c1.408-.8 1.408-2.132 0-2.957a5.709 5.709 0 00-5.109 0zm-13.355-7.703c-1.408.8-1.408 2.132 0 2.957a5.709 5.709 0 005.109 0c1.408-.825 1.408-2.132 0-2.957a5.584 5.584 0 00-5.109 0zm53.42 15.426c-1.408.8-1.408 2.132 0 2.936a5.584 5.584 0 005.109 0c1.408-.8 1.408-2.132 0-2.936a5.584 5.584 0 00-5.109 0zm-13.354-7.723c-1.408.8-1.408 2.132 0 2.957a5.584 5.584 0 005.109 0c1.408-.8 1.408-2.132 0-2.957a5.709 5.709 0 00-5.109 0zm-13.356-7.703c-1.408.8-1.408 2.132 0 2.957a5.709 5.709 0 005.109 0c1.408-.825 1.408-2.132 0-2.957a5.584 5.584 0 00-5.109 0zm-13.355-7.724c-1.408.825-1.408 2.132 0 2.957a5.584 5.584 0 005.109 0c1.408-.8 1.408-2.132 0-2.957a5.709 5.709 0 00-5.109 0zm134.095 62.938c-1.408.8-1.408 2.132 0 2.957a5.709 5.709 0 005.109 0c1.408-.8 1.408-2.132 0-2.957a5.709 5.709 0 00-5.109 0zm-13.355-7.707c-1.408.8-1.408 2.132 0 2.957a5.709 5.709 0 005.109 0c1.408-.825 1.408-2.132 0-2.957a5.584 5.584 0 00-5.109 0zm-13.356-7.724c-1.408.825-1.408 2.132 0 2.957a5.584 5.584 0 005.109 0c1.408-.8 1.408-2.132 0-2.957a5.709 5.709 0 00-5.109 0zm-13.355-7.703c-1.408.8-1.408 2.132 0 2.957a5.709 5.709 0 005.109 0c1.408-.825 1.408-2.132 0-2.957a5.708 5.708 0 00-5.109 0zm53.42 15.427c-1.408.8-1.408 2.132 0 2.957a5.709 5.709 0 005.109 0c1.408-.825 1.408-2.132 0-2.957a5.584 5.584 0 00-5.109 0zm-13.354-7.724c-1.408.825-1.408 2.132 0 2.957a5.584 5.584 0 005.109 0c1.408-.8 1.408-2.132 0-2.957a5.709 5.709 0 00-5.109 0zm-13.355-7.703c-1.408.8-1.408 2.132 0 2.957a5.709 5.709 0 005.109 0c1.408-.825 1.408-2.132 0-2.957a5.708 5.708 0 00-5.109 0zm-13.356-7.707c-1.408.8-1.408 2.132 0 2.937a5.709 5.709 0 005.109 0c1.408-.825 1.408-2.132 0-2.937a5.584 5.584 0 00-5.109 0zm53.42 15.41c-1.408.825-1.408 2.132 0 2.957a5.584 5.584 0 005.109 0c1.408-.8 1.408-2.132 0-2.957a5.709 5.709 0 00-5.109 0zm-13.355-7.703c-1.408.8-1.408 2.132 0 2.957a5.709 5.709 0 005.109 0c1.408-.825 1.408-2.132 0-2.957a5.708 5.708 0 00-5.109 0zm-13.354-7.707c-1.408.8-1.408 2.132 0 2.937a5.709 5.709 0 005.109 0c1.408-.825 1.408-2.132 0-2.937a5.584 5.584 0 00-5.109 0zm-13.355-7.72c-1.408.825-1.408 2.132 0 2.957a5.708 5.708 0 005.109 0c1.408-.825 1.408-2.132 0-2.957a5.708 5.708 0 00-5.109 0zm53.42 15.427c-1.408.8-1.408 2.132 0 2.957a5.709 5.709 0 005.109 0c1.408-.8 1.408-2.132 0-2.957a5.708 5.708 0 00-5.109 0zm-13.356-7.707c-1.408.8-1.408 2.132 0 2.937a5.709 5.709 0 005.109 0c1.408-.825 1.408-2.132 0-2.937a5.584 5.584 0 00-5.109 0zm-13.355-7.72c-1.408.825-1.408 2.132 0 2.957a5.708 5.708 0 005.109 0c1.408-.825 1.408-2.132 0-2.957a5.708 5.708 0 00-5.109 0zm-13.354-7.703c-1.408.8-1.408 2.132 0 2.957a5.584 5.584 0 005.109 0c1.408-.8 1.408-2.132 0-2.957a5.709 5.709 0 00-5.109 0zm53.42 15.423c-1.408.8-1.408 2.132 0 2.937a5.708 5.708 0 005.109 0c1.408-.825 1.408-2.132 0-2.937a5.584 5.584 0 00-5.109 0zm-13.355-7.72c-1.408.825-1.408 2.132 0 2.957a5.708 5.708 0 005.109 0c1.408-.825 1.408-2.132 0-2.957a5.708 5.708 0 00-5.109 0zm-13.356-7.703c-1.408.8-1.408 2.132 0 2.957a5.584 5.584 0 005.109 0c1.408-.8 1.408-2.132 0-2.957a5.709 5.709 0 00-5.109 0zm-13.355-7.724c-1.408.825-1.408 2.132 0 2.957a5.584 5.584 0 005.109 0c1.408-.8 1.408-2.132 0-2.957a5.708 5.708 0 00-5.109 0zm53.541 15.347c-1.408.8-1.408 2.132 0 2.957a5.709 5.709 0 005.109 0c1.408-.8 1.408-2.132 0-2.957a5.584 5.584 0 00-5.109 0zm-13.355-7.707c-1.408.8-1.408 2.132 0 2.937a5.584 5.584 0 005.109 0c1.408-.8 1.408-2.132 0-2.937a5.584 5.584 0 00-5.109 0zm-13.354-7.72c-1.408.8-1.408 2.132 0 2.957a5.709 5.709 0 005.109 0c1.408-.8 1.408-2.132 0-2.957a5.709 5.709 0 00-5.109 0zm-13.356-7.704c-1.408.8-1.408 2.132 0 2.957a5.709 5.709 0 005.109 0c1.408-.825 1.408-2.132 0-2.957a5.584 5.584 0 00-5.109 0zm40.065 7.704c-1.408.8-1.408 2.132 0 2.957a5.709 5.709 0 005.109 0c1.408-.8 1.408-2.132 0-2.957a5.709 5.709 0 00-5.109 0zm-13.355-7.704c-1.408.8-1.408 2.132 0 2.957a5.709 5.709 0 005.109 0c1.408-.825 1.408-2.132 0-2.957a5.584 5.584 0 00-5.109 0zm-120.859 83.671c-1.408.825-1.408 2.132 0 2.957a5.584 5.584 0 005.109 0c1.408-.8 1.408-2.132 0-2.957a5.709 5.709 0 00-5.109 0zm-13.355-7.703c-1.408.8-1.408 2.132 0 2.957a5.709 5.709 0 005.109 0c1.408-.825 1.408-2.132 0-2.957a5.708 5.708 0 00-5.109 0zm40.085 7.703c-1.408.825-1.408 2.132 0 2.957a5.584 5.584 0 005.109 0c1.408-.8 1.408-2.132 0-2.957a5.709 5.709 0 00-5.109 0zm-13.375-7.703c-1.408.8-1.408 2.132 0 2.957a5.709 5.709 0 005.109 0c1.408-.825 1.408-2.132 0-2.957a5.708 5.708 0 00-5.109 0zm-13.355-7.724c-1.408.825-1.408 2.132 0 2.957a5.584 5.584 0 005.109 0c1.408-.8 1.408-2.132 0-2.937a5.584 5.584 0 00-5.109 0zm-13.355-7.704c-1.408.8-1.408 2.132 0 2.957a5.584 5.584 0 005.109 0c1.408-.8 1.408-2.132 0-2.957a5.709 5.709 0 00-5.109 0zm53.44 15.428c-1.408.8-1.408 2.132 0 2.957a5.709 5.709 0 005.109 0c1.408-.825 1.408-2.132 0-2.957a5.708 5.708 0 00-5.109 0zm-13.355-7.724c-1.408.8-1.408 2.132 0 2.937a5.584 5.584 0 005.109 0c1.408-.8 1.408-2.132 0-2.937a5.584 5.584 0 00-5.109 0zm-13.375-7.704c-1.408.8-1.408 2.132 0 2.957a5.584 5.584 0 005.109 0c1.408-.8 1.408-2.132 0-2.957a5.709 5.709 0 00-5.109 0zm-13.355-7.723c-1.408.8-1.408 2.132 0 2.957a5.709 5.709 0 005.109 0c1.408-.825 1.408-2.132 0-2.957a5.584 5.584 0 00-5.109 0zm53.441 15.427c-1.408.8-1.408 2.132 0 2.937a5.584 5.584 0 005.109 0c1.408-.8 1.408-2.132 0-2.937a5.584 5.584 0 00-5.109 0zm-13.356-7.704c-1.408.8-1.408 2.132 0 2.957a5.584 5.584 0 005.109 0c1.408-.8 1.408-2.132 0-2.957a5.709 5.709 0 00-5.109 0zm-13.355-7.723c-1.408.8-1.408 2.132 0 2.957a5.709 5.709 0 005.109 0c1.408-.825 1.408-2.132 0-2.957a5.584 5.584 0 00-5.109 0zm-13.375-7.703c-1.408.825-1.408 2.132 0 2.957a5.584 5.584 0 005.109 0c1.408-.8 1.408-2.132 0-2.957a5.708 5.708 0 00-5.109 0z"/><path class="o" d="M511.417 2571.051c-1.408.8-1.408 2.132 0 2.957a5.709 5.709 0 005.109 0c1.408-.8 1.408-2.132 0-2.957a5.709 5.709 0 00-5.109 0zm-13.356-7.724c-1.408.8-1.408 2.132 0 2.957a5.709 5.709 0 005.109 0c1.408-.825 1.408-2.132 0-2.957a5.584 5.584 0 00-5.109 0zm-13.355-7.703c-1.408.825-1.408 2.132 0 2.957a5.584 5.584 0 005.109 0c1.408-.8 1.408-2.132 0-2.957a5.708 5.708 0 00-5.109 0zm-13.355-7.7c-1.408.8-1.408 2.132 0 2.957a5.709 5.709 0 005.109 0c1.408-.825 1.408-2.132 0-2.957a5.709 5.709 0 00-5.109 0zm53.421 15.403c-1.408.8-1.408 2.132 0 2.957a5.709 5.709 0 005.109 0c1.408-.825 1.408-2.132 0-2.957a5.584 5.584 0 00-5.109 0zm-13.355-7.703c-1.408.825-1.408 2.132 0 2.957a5.584 5.584 0 005.109 0c1.408-.8 1.408-2.132 0-2.957a5.708 5.708 0 00-5.109 0zm-13.356-7.7c-1.408.8-1.408 2.132 0 2.957a5.709 5.709 0 005.109 0c1.408-.825 1.408-2.132 0-2.957a5.709 5.709 0 00-5.109 0zm-13.355-7.727c-1.408.8-1.408 2.132 0 2.937a5.584 5.584 0 005.109 0c1.408-.8 1.408-2.132 0-2.937a5.584 5.584 0 00-5.109 0zm53.42 15.427c-1.408.825-1.408 2.132 0 2.957a5.584 5.584 0 005.109 0c1.408-.8 1.408-2.132 0-2.957a5.708 5.708 0 00-5.109 0zm-13.354-7.7c-1.408.8-1.408 2.132 0 2.957a5.709 5.709 0 005.109 0c1.408-.825 1.408-2.132 0-2.957a5.709 5.709 0 00-5.109 0zm-13.355-7.727c-1.408.8-1.408 2.132 0 2.937a5.584 5.584 0 005.109 0c1.408-.8 1.408-2.132 0-2.937a5.584 5.584 0 00-5.109 0zm-13.356-7.703c-1.408.825-1.408 2.132 0 2.957a5.584 5.584 0 005.109 0c1.408-.8 1.408-2.132 0-2.957a5.709 5.709 0 00-5.109 0zm53.42 15.43c-1.408.8-1.408 2.132 0 2.957a5.709 5.709 0 005.109 0c1.408-.8 1.408-2.132 0-2.957a5.709 5.709 0 00-5.109 0zm-13.355-7.727c-1.408.8-1.408 2.132 0 2.937a5.584 5.584 0 005.109 0c1.408-.8 1.408-2.132 0-2.937a5.584 5.584 0 00-5.109 0zm-13.354-7.703c-1.408.825-1.408 2.132 0 2.957a5.584 5.584 0 005.109 0c1.408-.8 1.408-2.132 0-2.957a5.709 5.709 0 00-5.109 0zm-13.355-7.724c-1.408.8-1.408 2.132 0 2.957a5.708 5.708 0 005.109 0c1.408-.825 1.408-2.132 0-2.957a5.584 5.584 0 00-5.109 0zm53.42 15.427c-1.408.8-1.408 2.132 0 2.937a5.584 5.584 0 005.109 0c1.408-.8 1.408-2.132 0-2.937a5.584 5.584 0 00-5.109 0zm-13.356-7.703c-1.408.825-1.408 2.132 0 2.957a5.584 5.584 0 005.109 0c1.408-.8 1.408-2.132 0-2.957a5.709 5.709 0 00-5.109 0zm-13.355-7.724c-1.408.8-1.408 2.132 0 2.957a5.708 5.708 0 005.109 0c1.408-.825 1.408-2.132 0-2.957a5.584 5.584 0 00-5.109 0zm-13.354-7.703c-1.408.8-1.408 2.132 0 2.957a5.709 5.709 0 005.109 0c1.408-.825 1.408-2.132 0-2.957a5.584 5.584 0 00-5.109 0zm53.541 15.343c-1.408.8-1.408 2.132 0 2.957a5.709 5.709 0 005.109 0c1.408-.8 1.408-2.132 0-2.957a5.584 5.584 0 00-5.109 0zm-13.355-7.72c-1.408.8-1.408 2.132 0 2.936a5.584 5.584 0 005.109 0c1.408-.8 1.408-2.132 0-2.936a5.584 5.584 0 00-5.109 0zm-13.356-7.703c-1.408.8-1.408 2.132 0 2.957a5.709 5.709 0 005.109 0c1.408-.8 1.408-2.132 0-2.957a5.708 5.708 0 00-5.109 0zm-13.355-7.703c-1.408.8-1.408 2.132 0 2.957a5.708 5.708 0 005.109 0c1.408-.825 1.408-2.132 0-2.957a5.584 5.584 0 00-5.109 0zm40.066 7.703c-1.408.8-1.408 2.132 0 2.957a5.709 5.709 0 005.109 0c1.408-.8 1.408-2.132 0-2.957a5.708 5.708 0 00-5.109 0zm-13.355-7.703c-1.408.8-1.408 2.132 0 2.957a5.708 5.708 0 005.109 0c1.408-.825 1.408-2.132 0-2.957a5.584 5.584 0 00-5.109 0zm-120.86 83.67c-1.408.825-1.408 2.132 0 2.957a5.584 5.584 0 005.109 0c1.408-.8 1.408-2.132 0-2.957a5.708 5.708 0 00-5.109 0zm-13.355-7.724c-1.408.8-1.408 2.132 0 2.957a5.709 5.709 0 005.109 0c1.408-.825 1.408-2.132 0-2.957a5.709 5.709 0 00-5.109 0zm40.065 7.724c-1.408.825-1.408 2.132 0 2.957a5.584 5.584 0 005.109 0c1.408-.8 1.408-2.132 0-2.957a5.708 5.708 0 00-5.109 0zm-13.334-7.724c-1.408.8-1.408 2.132 0 2.957a5.709 5.709 0 005.109 0c1.408-.825 1.408-2.132 0-2.957a5.709 5.709 0 00-5.109 0zm-13.376-7.703c-1.408.8-1.408 2.132 0 2.957a5.709 5.709 0 005.109 0c1.408-.825 1.408-2.132 0-2.937a5.584 5.584 0 00-5.109 0zm-13.355-7.724c-1.408.8-1.408 2.132 0 2.957a5.584 5.584 0 005.109 0c1.408-.8 1.408-2.132 0-2.957a5.709 5.709 0 00-5.109 0zm53.44 15.427c-1.408.8-1.408 2.132 0 2.957a5.709 5.709 0 005.109 0c1.408-.825 1.408-2.132 0-2.957a5.709 5.709 0 00-5.109 0zm-13.375-7.703c-1.408.8-1.408 2.132 0 2.937a5.709 5.709 0 005.109 0c1.408-.825 1.408-2.132 0-2.937a5.584 5.584 0 00-5.109 0zm-13.334-7.724c-1.408.8-1.408 2.132 0 2.957a5.584 5.584 0 005.109 0c1.408-.8 1.408-2.132 0-2.957a5.709 5.709 0 00-5.109 0zm-13.376-7.703c-1.408.8-1.408 2.132 0 2.957a5.708 5.708 0 005.109 0c1.408-.825 1.408-2.132 0-2.957a5.584 5.584 0 00-5.109 0zm53.44 15.427c-1.408.8-1.408 2.132 0 2.937a5.709 5.709 0 005.109 0c1.408-.825 1.408-2.132 0-2.937a5.584 5.584 0 00-5.109 0zm-13.355-7.724c-1.408.8-1.408 2.132 0 2.957a5.584 5.584 0 005.109 0c1.408-.8 1.408-2.132 0-2.957a5.709 5.709 0 00-5.109 0zm-13.375-7.703c-1.408.8-1.408 2.132 0 2.957a5.708 5.708 0 005.109 0c1.408-.825 1.408-2.132 0-2.957a5.584 5.584 0 00-5.109 0zm-13.334-7.723c-1.408.825-1.408 2.132 0 2.957a5.584 5.584 0 005.109 0c1.408-.8 1.408-2.132 0-2.957a5.709 5.709 0 00-5.109 0z"/><path class="o" d="M498.061 2563.328c-1.408.8-1.408 2.132 0 2.957a5.709 5.709 0 005.109 0c1.408-.8 1.408-2.132 0-2.957a5.709 5.709 0 00-5.109 0zm-13.355-7.704c-1.408.8-1.408 2.132 0 2.957a5.709 5.709 0 005.109 0c1.408-.825 1.408-2.132 0-2.957a5.584 5.584 0 00-5.109 0zm-13.375-7.7c-1.408.825-1.408 2.132 0 2.957a5.584 5.584 0 005.109 0c1.408-.8 1.408-2.132 0-2.957a5.709 5.709 0 00-5.109 0zm-13.334-7.726c-1.408.825-1.408 2.132 0 2.957a5.708 5.708 0 005.109 0c1.408-.825 1.408-2.132 0-2.957a5.708 5.708 0 00-5.109 0zm53.42 15.426c-1.408.8-1.408 2.132 0 2.957a5.709 5.709 0 005.109 0c1.408-.825 1.408-2.132 0-2.957a5.584 5.584 0 00-5.109 0zm-13.356-7.7c-1.408.825-1.408 2.132 0 2.957a5.584 5.584 0 005.109 0c1.408-.8 1.408-2.132 0-2.957a5.709 5.709 0 00-5.109 0zm-13.355-7.726c-1.408.825-1.408 2.132 0 2.957a5.708 5.708 0 005.109 0c1.408-.825 1.408-2.132 0-2.957a5.708 5.708 0 00-5.109 0zm-13.375-7.704c-1.408.8-1.408 2.132 0 2.936a5.584 5.584 0 005.109 0c1.408-.8 1.408-2.132 0-2.936a5.584 5.584 0 00-5.109 0zm53.441 15.43c-1.408.825-1.408 2.132 0 2.957a5.584 5.584 0 005.109 0c1.408-.8 1.408-2.132 0-2.957a5.709 5.709 0 00-5.109 0zm-13.355-7.726c-1.408.825-1.408 2.132 0 2.957a5.708 5.708 0 005.109 0c1.408-.825 1.408-2.132 0-2.957a5.708 5.708 0 00-5.109 0zm-13.356-7.704c-1.408.8-1.408 2.132 0 2.936a5.584 5.584 0 005.109 0c1.408-.8 1.408-2.132 0-2.936a5.584 5.584 0 00-5.109 0zm-13.355-7.723c-1.408.825-1.408 2.132 0 2.957a5.708 5.708 0 005.109 0c1.408-.825 1.408-2.132 0-2.957a5.708 5.708 0 00-5.109 0zm53.42 15.427c-1.408.825-1.408 2.132 0 2.957a5.708 5.708 0 005.109 0c1.408-.8 1.408-2.132 0-2.957a5.708 5.708 0 00-5.109 0zm-13.354-7.704c-1.408.8-1.408 2.132 0 2.936a5.584 5.584 0 005.109 0c1.408-.8 1.408-2.132 0-2.936a5.584 5.584 0 00-5.109 0zm-13.355-7.723c-1.408.825-1.408 2.132 0 2.957a5.708 5.708 0 005.109 0c1.408-.825 1.408-2.132 0-2.957a5.708 5.708 0 00-5.109 0zm-13.356-7.704c-1.408.8-1.408 2.132 0 2.957a5.709 5.709 0 005.109 0c1.408-.8 1.408-2.132 0-2.957a5.709 5.709 0 00-5.109 0zm53.42 15.427c-1.408.8-1.408 2.132 0 2.936a5.584 5.584 0 005.109 0c1.408-.8 1.408-2.132 0-2.936a5.584 5.584 0 00-5.109 0zm-13.355-7.723c-1.408.825-1.408 2.132 0 2.957a5.708 5.708 0 005.109 0c1.408-.825 1.408-2.132 0-2.957a5.708 5.708 0 00-5.109 0zm-13.354-7.704c-1.408.8-1.408 2.132 0 2.957a5.709 5.709 0 005.109 0c1.408-.8 1.408-2.132 0-2.957a5.709 5.709 0 00-5.109 0zm-13.355-7.726c-1.408.825-1.408 2.132 0 2.957a5.584 5.584 0 005.109 0c1.408-.8 1.408-2.132 0-2.957a5.709 5.709 0 00-5.109 0zm53.541 15.349c-1.408.8-1.408 2.132 0 2.957a5.709 5.709 0 005.109 0c1.408-.8 1.408-2.132 0-2.957a5.584 5.584 0 00-5.109 0zm-13.356-7.703c-1.408.8-1.408 2.132 0 2.937a5.584 5.584 0 005.109 0c1.408-.8 1.408-2.132 0-2.937a5.584 5.584 0 00-5.109 0zm-13.375-7.723c-1.408.8-1.408 2.132 0 2.957a5.708 5.708 0 005.109 0c1.408-.8 1.408-2.132 0-2.957a5.709 5.709 0 00-5.109 0zm-13.335-7.704c-1.408.8-1.408 2.132 0 2.957a5.708 5.708 0 005.109 0c1.408-.825 1.408-2.132 0-2.957a5.584 5.584 0 00-5.109 0zm40.066 7.704c-1.408.8-1.408 2.132 0 2.957a5.708 5.708 0 005.109 0c1.408-.8 1.408-2.132 0-2.957a5.709 5.709 0 00-5.109 0zm-13.356-7.704c-1.408.8-1.408 2.132 0 2.957a5.708 5.708 0 005.109 0c1.408-.825 1.408-2.132 0-2.957a5.584 5.584 0 00-5.109 0zm-120.859 83.67c-1.408.825-1.408 2.132 0 2.957a5.584 5.584 0 005.109 0c1.408-.8 1.408-2.132 0-2.957a5.709 5.709 0 00-5.109 0zm-13.355-7.703c-1.408.8-1.408 2.132 0 2.957a5.709 5.709 0 005.109 0c1.408-.825 1.408-2.132 0-2.957a5.709 5.709 0 00-5.109 0zm40.086 7.703c-1.408.825-1.408 2.132 0 2.957a5.584 5.584 0 005.109 0c1.408-.8 1.408-2.132 0-2.957a5.709 5.709 0 00-5.109 0zm-13.376-7.703c-1.408.8-1.408 2.132 0 2.957a5.709 5.709 0 005.109 0c1.408-.825 1.408-2.132 0-2.957a5.709 5.709 0 00-5.109 0zm-13.355-7.723c-1.408.825-1.408 2.132 0 2.957a5.584 5.584 0 005.109 0c1.408-.8 1.408-2.132 0-2.937a5.584 5.584 0 00-5.109 0zm-13.355-7.703c-1.408.8-1.408 2.132 0 2.957a5.584 5.584 0 005.109 0c1.408-.8 1.408-2.132 0-2.957a5.708 5.708 0 00-5.109 0zm53.421 15.426c-1.408.8-1.408 2.132 0 2.957a5.709 5.709 0 005.109 0c1.408-.825 1.408-2.132 0-2.957a5.709 5.709 0 00-5.109 0zm-13.335-7.723c-1.408.8-1.408 2.132 0 2.937a5.584 5.584 0 005.109 0c1.408-.8 1.408-2.132 0-2.937a5.584 5.584 0 00-5.109 0zm-13.376-7.703c-1.408.8-1.408 2.132 0 2.957a5.584 5.584 0 005.109 0c1.408-.8 1.408-2.132 0-2.957a5.708 5.708 0 00-5.109 0zm-13.355-7.723c-1.408.8-1.408 2.132 0 2.957a5.709 5.709 0 005.109 0c1.408-.825 1.408-2.132 0-2.957a5.584 5.584 0 00-5.109 0zm53.44 15.426c-1.408.8-1.408 2.132 0 2.937a5.584 5.584 0 005.109 0c1.408-.8 1.408-2.132 0-2.937a5.584 5.584 0 00-5.109 0zm-13.374-7.703c-1.408.8-1.408 2.132 0 2.957a5.584 5.584 0 005.109 0c1.408-.8 1.408-2.132 0-2.957a5.708 5.708 0 00-5.109 0zm-13.335-7.723c-1.408.8-1.408 2.132 0 2.957a5.709 5.709 0 005.109 0c1.408-.825 1.408-2.132 0-2.957a5.584 5.584 0 00-5.109 0zm-13.376-7.704c-1.408.825-1.408 2.132 0 2.957a5.584 5.584 0 005.109 0c1.408-.8 1.408-2.132 0-2.957a5.709 5.709 0 00-5.109 0z"/><path class="o" d="M484.706 2555.624c-1.408.825-1.408 2.132 0 2.957a5.584 5.584 0 005.109 0c1.408-.8 1.408-2.132 0-2.957a5.708 5.708 0 00-5.109 0zm-13.374-7.707c-1.408.8-1.408 2.132 0 2.957a5.709 5.709 0 005.109 0c1.408-.825 1.408-2.132 0-2.957a5.584 5.584 0 00-5.109 0zm-13.356-7.72c-1.408.825-1.408 2.132 0 2.957a5.584 5.584 0 005.109 0c1.408-.8 1.408-2.132 0-2.957a5.708 5.708 0 00-5.109 0zm-13.355-7.703c-1.408.8-1.408 2.132 0 2.957a5.709 5.709 0 005.109 0c1.408-.825 1.408-2.132 0-2.957a5.709 5.709 0 00-5.109 0zm53.42 15.423c-1.408.8-1.408 2.132 0 2.957a5.709 5.709 0 005.109 0c1.408-.825 1.408-2.132 0-2.957a5.584 5.584 0 00-5.109 0zm-13.335-7.72c-1.408.825-1.408 2.132 0 2.957a5.584 5.584 0 005.109 0c1.408-.8 1.408-2.132 0-2.957a5.708 5.708 0 00-5.109 0zm-13.374-7.703c-1.408.8-1.408 2.132 0 2.957a5.709 5.709 0 005.109 0c1.408-.825 1.408-2.132 0-2.957a5.709 5.709 0 00-5.109 0zm-13.356-7.724c-1.408.8-1.408 2.132 0 2.937a5.584 5.584 0 005.109 0c1.408-.8 1.408-2.132 0-2.937a5.584 5.584 0 00-5.109 0zm53.441 15.427c-1.408.825-1.408 2.132 0 2.957a5.584 5.584 0 005.109 0c1.408-.8 1.408-2.132 0-2.957a5.708 5.708 0 00-5.109 0zm-13.376-7.703c-1.408.8-1.408 2.132 0 2.957a5.709 5.709 0 005.109 0c1.408-.825 1.408-2.132 0-2.957a5.709 5.709 0 00-5.109 0zm-13.335-7.724c-1.408.8-1.408 2.132 0 2.937a5.584 5.584 0 005.109 0c1.408-.8 1.408-2.132 0-2.937a5.584 5.584 0 00-5.109 0zm-13.374-7.703c-1.408.825-1.408 2.132 0 2.957a5.584 5.584 0 005.109 0c1.408-.8 1.408-2.132 0-2.957a5.709 5.709 0 00-5.109 0zm53.44 15.427c-1.408.8-1.408 2.132 0 2.957a5.709 5.709 0 005.109 0c1.408-.8 1.408-2.132 0-2.957a5.709 5.709 0 00-5.109 0zm-13.355-7.724c-1.408.8-1.408 2.132 0 2.937a5.584 5.584 0 005.109 0c1.408-.8 1.408-2.132 0-2.937a5.584 5.584 0 00-5.109 0zm-13.376-7.703c-1.408.825-1.408 2.132 0 2.957a5.584 5.584 0 005.109 0c1.408-.8 1.408-2.132 0-2.957a5.709 5.709 0 00-5.109 0zm-13.335-7.703c-1.408.8-1.408 2.132 0 2.937a5.584 5.584 0 005.109 0c1.408-.8 1.408-2.132 0-2.937a5.584 5.584 0 00-5.109 0zm53.421 15.406c-1.408.8-1.408 2.132 0 2.937a5.584 5.584 0 005.109 0c1.408-.8 1.408-2.132 0-2.937a5.584 5.584 0 00-5.109 0zm-13.355-7.703c-1.408.825-1.408 2.132 0 2.957a5.584 5.584 0 005.109 0c1.408-.8 1.408-2.132 0-2.957a5.709 5.709 0 00-5.109 0zm-13.355-7.703c-1.408.8-1.408 2.132 0 2.937a5.584 5.584 0 005.109 0c1.408-.8 1.408-2.132 0-2.937a5.584 5.584 0 00-5.109 0zm-13.376-7.724c-1.408.8-1.408 2.132 0 2.957a5.709 5.709 0 005.109 0c1.408-.825 1.408-2.132 0-2.957a5.584 5.584 0 00-5.109 0zm53.561 15.346c-1.408.8-1.408 2.132 0 2.957a5.709 5.709 0 005.109 0c1.408-.8 1.408-2.132 0-2.957a5.584 5.584 0 00-5.109 0zm-13.375-7.702c-1.408.8-1.408 2.132 0 2.936a5.584 5.584 0 005.109 0c1.408-.8 1.408-2.132 0-2.936a5.584 5.584 0 00-5.109 0zm-13.354-7.724c-1.408.8-1.408 2.132 0 2.957a5.708 5.708 0 005.109 0c1.408-.8 1.408-2.132 0-2.957a5.708 5.708 0 00-5.109 0zm-13.356-7.704c-1.408.8-1.408 2.132 0 2.957a5.709 5.709 0 005.109 0c1.408-.825 1.408-2.132 0-2.957a5.584 5.584 0 00-5.109 0zm40.085 7.704c-1.408.8-1.408 2.132 0 2.957a5.708 5.708 0 005.109 0c1.408-.8 1.408-2.132 0-2.957a5.708 5.708 0 00-5.109 0zm-13.375-7.704c-1.408.8-1.408 2.132 0 2.957a5.709 5.709 0 005.109 0c1.408-.825 1.408-2.132 0-2.957a5.584 5.584 0 00-5.109 0zm-120.839 83.67c-1.408.825-1.408 2.132 0 2.957a5.584 5.584 0 005.109 0c1.408-.8 1.408-2.132 0-2.957a5.709 5.709 0 00-5.109 0zm-13.355-7.723c-1.408.8-1.408 2.132 0 2.957a5.709 5.709 0 005.109 0c1.408-.825 1.408-2.132 0-2.957a5.709 5.709 0 00-5.109 0zm40.065 7.723c-1.408.825-1.408 2.132 0 2.957a5.584 5.584 0 005.109 0c1.408-.8 1.408-2.132 0-2.957a5.709 5.709 0 00-5.109 0zm-13.355-7.723c-1.408.8-1.408 2.132 0 2.957a5.709 5.709 0 005.109 0c1.408-.825 1.408-2.132 0-2.957a5.709 5.709 0 00-5.109 0zm-13.355-7.703c-1.408.8-1.408 2.132 0 2.957a5.708 5.708 0 005.109 0c1.408-.825 1.408-2.132 0-2.937a5.584 5.584 0 00-5.109 0zm-13.355-7.723c-1.408.8-1.408 2.132 0 2.957a5.584 5.584 0 005.109 0c1.408-.8 1.408-2.132 0-2.957a5.709 5.709 0 00-5.109 0zm53.441 15.426c-1.408.8-1.408 2.132 0 2.957a5.709 5.709 0 005.109 0c1.408-.825 1.408-2.132 0-2.957a5.709 5.709 0 00-5.109 0zm-13.376-7.703c-1.408.8-1.408 2.132 0 2.937a5.709 5.709 0 005.109 0c1.408-.825 1.408-2.132 0-2.937a5.584 5.584 0 00-5.109 0zm-13.355-7.723c-1.408.8-1.408 2.132 0 2.957a5.584 5.584 0 005.109 0c1.408-.8 1.408-2.132 0-2.957a5.709 5.709 0 00-5.109 0zm-13.355-7.703c-1.408.8-1.408 2.132 0 2.957a5.709 5.709 0 005.109 0c1.408-.825 1.408-2.132 0-2.957a5.584 5.584 0 00-5.109 0zm53.421 15.426c-1.408.8-1.408 2.132 0 2.937a5.709 5.709 0 005.109 0c1.408-.825 1.408-2.132 0-2.937a5.584 5.584 0 00-5.109 0zm-13.335-7.723c-1.408.8-1.408 2.132 0 2.957a5.584 5.584 0 005.109 0c1.408-.8 1.408-2.132 0-2.957a5.709 5.709 0 00-5.109 0zm-13.376-7.703c-1.408.8-1.408 2.132 0 2.957a5.709 5.709 0 005.109 0c1.408-.825 1.408-2.132 0-2.957a5.584 5.584 0 00-5.109 0zm-13.355-7.704c-1.408.825-1.408 2.132 0 2.957a5.584 5.584 0 005.109 0c1.408-.8 1.408-2.132 0-2.957a5.709 5.709 0 00-5.109 0z"/><path class="o" d="M471.331 2547.924c-1.408.8-1.408 2.132 0 2.957a5.709 5.709 0 005.109 0c1.408-.8 1.408-2.132 0-2.957a5.709 5.709 0 00-5.109 0zm-13.356-7.727c-1.408.8-1.408 2.132 0 2.957a5.708 5.708 0 005.109 0c1.408-.825 1.408-2.132 0-2.957a5.584 5.584 0 00-5.109 0zm-13.355-7.702c-1.408.825-1.408 2.132 0 2.957a5.584 5.584 0 005.109 0c1.408-.8 1.408-2.132 0-2.957a5.709 5.709 0 00-5.109 0zm-13.355-7.725c-1.408.8-1.408 2.132 0 2.957a5.708 5.708 0 005.109 0c1.408-.8 1.408-2.132 0-2.957a5.708 5.708 0 00-5.109 0zm53.44 15.427c-1.408.8-1.408 2.132 0 2.957a5.708 5.708 0 005.109 0c1.408-.825 1.408-2.132 0-2.957a5.584 5.584 0 00-5.109 0zm-13.374-7.702c-1.408.825-1.408 2.132 0 2.957a5.584 5.584 0 005.109 0c1.408-.8 1.408-2.132 0-2.957a5.709 5.709 0 00-5.109 0zm-13.356-7.725c-1.408.8-1.408 2.132 0 2.957a5.708 5.708 0 005.109 0c1.408-.8 1.408-2.132 0-2.957a5.708 5.708 0 00-5.109 0zm-13.355-7.703c-1.408.8-1.408 2.132 0 2.937a5.584 5.584 0 005.109 0c1.408-.8 1.408-2.132 0-2.937a5.584 5.584 0 00-5.109 0zm53.44 15.428c-1.408.825-1.408 2.132 0 2.957a5.584 5.584 0 005.109 0c1.408-.8 1.408-2.132 0-2.957a5.709 5.709 0 00-5.109 0zm-13.355-7.725c-1.408.8-1.408 2.132 0 2.957a5.708 5.708 0 005.109 0c1.408-.8 1.408-2.132 0-2.957a5.708 5.708 0 00-5.109 0zm-13.374-7.703c-1.408.8-1.408 2.132 0 2.937a5.584 5.584 0 005.109 0c1.408-.8 1.408-2.132 0-2.937a5.584 5.584 0 00-5.109 0zm-13.356-7.726c-1.408.825-1.408 2.132 0 2.957a5.709 5.709 0 005.109 0c1.408-.825 1.408-2.132 0-2.957a5.709 5.709 0 00-5.109 0zm53.441 15.429c-1.408.8-1.408 2.132 0 2.957a5.708 5.708 0 005.109 0c1.408-.8 1.408-2.132 0-2.957a5.708 5.708 0 00-5.109 0zm-13.376-7.703c-1.408.8-1.408 2.132 0 2.937a5.584 5.584 0 005.109 0c1.408-.8 1.408-2.132 0-2.937a5.584 5.584 0 00-5.109 0zm-13.335-7.726c-1.408.825-1.408 2.132 0 2.957a5.709 5.709 0 005.109 0c1.408-.825 1.408-2.132 0-2.957a5.709 5.709 0 00-5.109 0zm-13.374-7.7c-1.408.8-1.408 2.132 0 2.957a5.709 5.709 0 005.109 0c1.408-.825 1.408-2.132 0-2.957a5.584 5.584 0 00-5.109 0zm53.44 15.426c-1.408.8-1.408 2.132 0 2.937a5.584 5.584 0 005.109 0c1.408-.8 1.408-2.132 0-2.937a5.584 5.584 0 00-5.109 0zm-13.355-7.726c-1.408.825-1.408 2.132 0 2.957a5.709 5.709 0 005.109 0c1.408-.825 1.408-2.132 0-2.957a5.709 5.709 0 00-5.109 0zm-13.376-7.7c-1.408.8-1.408 2.132 0 2.957a5.709 5.709 0 005.109 0c1.408-.825 1.408-2.132 0-2.957a5.584 5.584 0 00-5.109 0zm-13.335-7.704c-1.408.825-1.408 2.132 0 2.957a5.584 5.584 0 005.109 0c1.408-.8 1.408-2.132 0-2.957a5.709 5.709 0 00-5.109 0zm53.521 15.347c-1.408.8-1.408 2.132 0 2.957a5.708 5.708 0 005.109 0c1.408-.8 1.408-2.132 0-2.957a5.584 5.584 0 00-5.109 0zm-13.354-7.724c-1.408.8-1.408 2.132 0 2.937a5.584 5.584 0 005.109 0c1.408-.8 1.408-2.132 0-2.937a5.584 5.584 0 00-5.109 0zm-13.356-7.703c-1.408.8-1.408 2.132 0 2.957a5.709 5.709 0 005.109 0c1.408-.8 1.408-2.132 0-2.957a5.709 5.709 0 00-5.109 0zm-13.355-7.724c-1.408.8-1.408 2.132 0 2.957a5.708 5.708 0 005.109 0c1.408-.825 1.408-2.132 0-2.957a5.584 5.584 0 00-5.109 0zm40.065 7.724c-1.408.8-1.408 2.132 0 2.957a5.709 5.709 0 005.109 0c1.408-.8 1.408-2.132 0-2.957a5.709 5.709 0 00-5.109 0zm-13.354-7.724c-1.408.8-1.408 2.132 0 2.957a5.708 5.708 0 005.109 0c1.408-.825 1.408-2.132 0-2.957a5.584 5.584 0 00-5.109 0zm-120.84 83.671c-1.408.825-1.408 2.132 0 2.957a5.584 5.584 0 005.109 0c1.408-.8 1.408-2.132 0-2.957a5.709 5.709 0 00-5.109 0zm-13.355-7.704c-1.408.8-1.408 2.132 0 2.957a5.708 5.708 0 005.109 0c1.408-.825 1.408-2.132 0-2.957a5.708 5.708 0 00-5.109 0zm40.065 7.704c-1.408.825-1.408 2.132 0 2.957a5.584 5.584 0 005.109 0c1.408-.8 1.408-2.132 0-2.957a5.709 5.709 0 00-5.109 0zm-13.355-7.704c-1.408.8-1.408 2.132 0 2.957a5.708 5.708 0 005.109 0c1.408-.825 1.408-2.132 0-2.957a5.708 5.708 0 00-5.109 0zm-13.355-7.723c-1.408.825-1.408 2.132 0 2.957a5.584 5.584 0 005.109 0c1.408-.8 1.408-2.132 0-2.937a5.584 5.584 0 00-5.109 0zm-13.355-7.703c-1.408.825-1.408 2.132 0 2.957a5.584 5.584 0 005.109 0c1.408-.8 1.408-2.132 0-2.957a5.709 5.709 0 00-5.109 0zm53.42 15.426c-1.408.8-1.408 2.132 0 2.957a5.708 5.708 0 005.109 0c1.408-.825 1.408-2.132 0-2.957a5.708 5.708 0 00-5.109 0zm-13.355-7.703c-1.408.8-1.408 2.132 0 2.937a5.584 5.584 0 005.109 0c1.408-.8 1.408-2.132 0-2.937a5.584 5.584 0 00-5.109 0zm-13.355-7.723c-1.408.825-1.408 2.132 0 2.957a5.584 5.584 0 005.109 0c1.408-.8 1.408-2.132 0-2.957a5.709 5.709 0 00-5.109 0zm-13.355-7.703c-1.408.8-1.408 2.132 0 2.957a5.709 5.709 0 005.109 0c1.408-.825 1.408-2.132 0-2.957a5.584 5.584 0 00-5.109 0zm53.42 15.426c-1.408.8-1.408 2.132 0 2.937a5.584 5.584 0 005.109 0c1.408-.8 1.408-2.132 0-2.937a5.584 5.584 0 00-5.109 0zm-13.355-7.723c-1.408.825-1.408 2.132 0 2.957a5.584 5.584 0 005.109 0c1.408-.8 1.408-2.132 0-2.957a5.709 5.709 0 00-5.109 0zm-13.355-7.703c-1.408.8-1.408 2.132 0 2.957a5.709 5.709 0 005.109 0c1.408-.825 1.408-2.132 0-2.957a5.584 5.584 0 00-5.109 0zm-13.355-7.724c-1.408.825-1.408 2.132 0 2.957a5.584 5.584 0 005.109 0c1.408-.8 1.408-2.132 0-2.957a5.709 5.709 0 00-5.109 0z"/><path class="o" d="M457.975 2540.198c-1.408.8-1.408 2.132 0 2.957a5.708 5.708 0 005.109 0c1.408-.8 1.408-2.132 0-2.957a5.708 5.708 0 00-5.109 0zm-13.355-7.704c-1.408.8-1.408 2.132 0 2.957a5.709 5.709 0 005.109 0c1.408-.825 1.408-2.132 0-2.957a5.584 5.584 0 00-5.109 0zm-13.355-7.723c-1.408.825-1.408 2.132 0 2.957a5.584 5.584 0 005.109 0c1.408-.8 1.408-2.132 0-2.957a5.708 5.708 0 00-5.109 0zm-13.354-7.704c-1.408.8-1.408 2.132 0 2.957a5.709 5.709 0 005.109 0c1.408-.825 1.408-2.132 0-2.957a5.709 5.709 0 00-5.109 0zm53.42 15.427c-1.408.8-1.408 2.132 0 2.957a5.709 5.709 0 005.109 0c1.408-.825 1.408-2.132 0-2.957a5.584 5.584 0 00-5.109 0zm-13.356-7.723c-1.408.825-1.408 2.132 0 2.957a5.584 5.584 0 005.109 0c1.408-.8 1.408-2.132 0-2.957a5.708 5.708 0 00-5.109 0zm-13.355-7.704c-1.408.8-1.408 2.132 0 2.957a5.709 5.709 0 005.109 0c1.408-.825 1.408-2.132 0-2.957a5.709 5.709 0 00-5.109 0zm-13.355-7.703c-1.408.8-1.408 2.132 0 2.937a5.584 5.584 0 005.109 0c1.408-.8 1.408-2.132 0-2.937a5.584 5.584 0 00-5.109 0zm53.441 15.407c-1.408.825-1.408 2.132 0 2.957a5.584 5.584 0 005.109 0c1.408-.8 1.408-2.132 0-2.957a5.708 5.708 0 00-5.109 0zm-13.375-7.704c-1.408.8-1.408 2.132 0 2.957a5.709 5.709 0 005.109 0c1.408-.825 1.408-2.132 0-2.957a5.709 5.709 0 00-5.109 0zm-13.356-7.703c-1.408.8-1.408 2.132 0 2.937a5.584 5.584 0 005.109 0c1.408-.8 1.408-2.132 0-2.937a5.584 5.584 0 00-5.109 0zm-13.355-7.723c-1.408.825-1.408 2.132 0 2.957a5.709 5.709 0 005.109 0c1.408-.8 1.408-2.132 0-2.957a5.709 5.709 0 00-5.109 0zm53.42 15.426c-1.408.8-1.408 2.132 0 2.957a5.709 5.709 0 005.109 0c1.408-.8 1.408-2.132 0-2.957a5.709 5.709 0 00-5.109 0zm-13.354-7.703c-1.408.8-1.408 2.132 0 2.937a5.584 5.584 0 005.109 0c1.408-.8 1.408-2.132 0-2.937a5.584 5.584 0 00-5.109 0zm-13.355-7.723c-1.408.825-1.408 2.132 0 2.957a5.709 5.709 0 005.109 0c1.408-.8 1.408-2.132 0-2.957a5.709 5.709 0 00-5.109 0zm-13.356-7.703c-1.408.8-1.408 2.132 0 2.937a5.584 5.584 0 005.109 0c1.408-.8 1.408-2.132 0-2.937a5.584 5.584 0 00-5.109 0zm53.441 15.426c-1.408.8-1.408 2.132 0 2.937a5.584 5.584 0 005.109 0c1.408-.8 1.408-2.132 0-2.937a5.584 5.584 0 00-5.109 0zm-13.376-7.723c-1.408.825-1.408 2.132 0 2.957a5.709 5.709 0 005.109 0c1.408-.8 1.408-2.132 0-2.957a5.709 5.709 0 00-5.109 0zm-13.354-7.703c-1.408.8-1.408 2.132 0 2.937a5.584 5.584 0 005.109 0c1.408-.8 1.408-2.132 0-2.937a5.584 5.584 0 00-5.109 0zm-13.355-7.724c-1.408.8-1.408 2.132 0 2.957a5.709 5.709 0 005.109 0c1.408-.825 1.408-2.132 0-2.957a5.584 5.584 0 00-5.109 0zm53.561 15.346c-1.408.8-1.408 2.132 0 2.957a5.708 5.708 0 005.109 0c1.408-.8 1.408-2.132 0-2.957a5.584 5.584 0 00-5.109 0zm-13.376-7.703c-1.408.8-1.408 2.132 0 2.937a5.584 5.584 0 005.109 0c1.408-.8 1.408-2.132 0-2.937a5.584 5.584 0 00-5.109 0zm-13.355-7.724c-1.408.8-1.408 2.132 0 2.957a5.708 5.708 0 005.109 0c1.408-.8 1.408-2.132 0-2.957a5.708 5.708 0 00-5.109 0zm-13.355-7.703c-1.408.8-1.408 2.132 0 2.957a5.709 5.709 0 005.109 0c1.408-.825 1.408-2.132 0-2.957a5.584 5.584 0 00-5.109 0zm40.086 7.703c-1.408.8-1.408 2.132 0 2.957a5.708 5.708 0 005.109 0c1.408-.8 1.408-2.132 0-2.957a5.708 5.708 0 00-5.109 0zm-13.376-7.703c-1.408.8-1.408 2.132 0 2.957a5.709 5.709 0 005.109 0c1.408-.825 1.408-2.132 0-2.957a5.584 5.584 0 00-5.109 0zm-120.839 83.671c-1.408.825-1.408 2.132 0 2.957a5.584 5.584 0 005.109 0c1.408-.8 1.408-2.132 0-2.957a5.708 5.708 0 00-5.109 0zm-13.355-7.724c-1.408.8-1.408 2.132 0 2.957a5.709 5.709 0 005.109 0c1.408-.825 1.408-2.132 0-2.957a5.709 5.709 0 00-5.109 0zm40.066 7.724c-1.408.825-1.408 2.132 0 2.957a5.584 5.584 0 005.109 0c1.408-.8 1.408-2.132 0-2.957a5.708 5.708 0 00-5.109 0zm-13.356-7.724c-1.408.8-1.408 2.132 0 2.957a5.709 5.709 0 005.109 0c1.408-.825 1.408-2.132 0-2.957a5.709 5.709 0 00-5.109 0zm-13.355-7.706c-1.408.8-1.408 2.132 0 2.957a5.709 5.709 0 005.109 0c1.408-.825 1.408-2.132 0-2.937a5.584 5.584 0 00-5.109 0zm-13.355-7.7c-1.408.8-1.408 2.132 0 2.957a5.584 5.584 0 005.109 0c1.408-.8 1.408-2.132 0-2.957a5.709 5.709 0 00-5.109 0zm53.42 15.406c-1.408.8-1.408 2.132 0 2.957a5.709 5.709 0 005.109 0c1.408-.825 1.408-2.132 0-2.957a5.709 5.709 0 00-5.109 0zm-13.354-7.703c-1.408.8-1.408 2.132 0 2.937a5.709 5.709 0 005.109 0c1.408-.825 1.408-2.132 0-2.937a5.584 5.584 0 00-5.109 0zm-13.356-7.703c-1.408.8-1.408 2.132 0 2.957a5.584 5.584 0 005.109 0c1.408-.8 1.408-2.132 0-2.957a5.709 5.709 0 00-5.109 0zm-13.355-7.723c-1.408.8-1.408 2.132 0 2.957a5.709 5.709 0 005.109 0c1.408-.825 1.408-2.132 0-2.957a5.584 5.584 0 00-5.109 0zm53.42 15.426c-1.408.8-1.408 2.132 0 2.937a5.709 5.709 0 005.109 0c1.408-.825 1.408-2.132 0-2.937a5.584 5.584 0 00-5.109 0zm-13.355-7.703c-1.408.8-1.408 2.132 0 2.957a5.584 5.584 0 005.109 0c1.408-.8 1.408-2.132 0-2.957a5.709 5.709 0 00-5.109 0zm-13.354-7.723c-1.408.8-1.408 2.132 0 2.957a5.709 5.709 0 005.109 0c1.408-.825 1.408-2.132 0-2.957a5.584 5.584 0 00-5.109 0zm-13.356-7.704c-1.408.825-1.408 2.132 0 2.957a5.584 5.584 0 005.109 0c1.408-.8 1.408-2.132 0-2.957a5.709 5.709 0 00-5.109 0z"/><path class="d" d="M810.774 3318.273v-639.9l-238.461-.141v638.915c-.3 3.721 2.293 7.723 7.643 10.821l94.773 54.728c9.272 5.35 23.331 5.953 31.356 1.307l99.278-57.322c3.862-2.233 5.612-5.27 5.39-8.407z"/><path class="e" d="M810.773 3318.273v-637.808a2.206 2.206 0 00-2.212-2.212l-18.3-.02-98.718 43.632v665.22c5.431.121 10.68-.865 14.542-3.1l99.278-57.32c3.419-1.971 5.189-4.566 5.39-7.321v-.986c0-.04 0-.06-.02-.08z"/><path class="f" d="M805.383 2686.641l-99.278 57.322c-8.025 4.646-22.084 4.063-31.356-1.287l-94.773-54.728c-9.272-5.37-10.3-13.476-2.253-18.1l99.278-57.322c8.045-4.646 22.084-4.063 31.376 1.307l94.773 54.728c9.272 5.35 10.3 13.456 2.253 18.1z"/><path class="d" d="M433.438 2757.419v-19.349l-204.626-.121v18.524c-.261 3.2 1.951 6.637 6.557 9.292l81.337 46.964c7.96 4.609 20.006 5.109 26.906 1.109l85.2-49.2c3.318-1.91 4.827-4.5 4.626-7.219z"/><path class="e" d="M433.438 2757.419v-17.559a1.906 1.906 0 00-1.891-1.911h-15.708l-84.716 37.43v41.091c4.666.121 9.172-.744 12.49-2.655l85.2-49.2c2.937-1.69 4.445-3.922 4.626-6.275v-.925z"/><path class="f" d="M428.807 2745.149l-85.2 49.2c-6.9 3.982-18.947 3.48-26.911-1.126l-81.332-46.967c-7.965-4.606-8.83-11.545-1.931-15.547l85.2-49.2c6.9-3.982 18.947-3.48 26.911 1.126l81.337 46.967c7.965 4.606 8.826 11.565 1.926 15.547z"/><path d="M294.838 2711.923c-.02 0-.04-.02-.06-.04s-.04-.02-.06-.04c.02 0 .04.02.06.04s.04.02.06.04zm.101-31.518zm-.08-.04c-.04-.02-.06-.04-.1-.06-.02 0-.04-.02-.06-.04.02 0 .04.02.06.04.04.02.06.04.102.06zm-14.582-16.393a17.418 17.418 0 01-.644-4.747 18.235 18.235 0 00.644 4.747z" fill="#443483"/><path class="s" d="M331.304 2770.592a91.492 91.492 0 01-23.492-2.977 67.179 67.179 0 01-16.07-6.476 47.825 47.825 0 01-6.074-4.143 33.148 33.148 0 01-5.431-5.471 24.65 24.65 0 01-3.419-5.853 20.747 20.747 0 01-.623-1.77 19.143 19.143 0 01-.845-5.591v-12.37c.02 8.246 5.491 16.493 16.392 22.788 10.921 6.316 25.242 9.453 39.562 9.453s28.641-3.158 39.562-9.473 16.392-14.582 16.392-22.848v12.41a19.144 19.144 0 01-.845 5.591 18.467 18.467 0 01-.624 1.77 22.942 22.942 0 01-1.428 2.916 31.086 31.086 0 01-7.422 8.427 47.824 47.824 0 01-6.074 4.143c-8.065 4.646-17.961 7.583-28.359 8.81a94.355 94.355 0 01-11.2.644zm53.058-22.024z"/><path class="j" d="M291.741 2748.73c21.843 12.611 57.282 12.611 79.125 0s21.843-33.066 0-45.677-57.282-12.611-79.125 0-21.843 33.066 0 45.677z"/><path class="g" d="M279.633 2725.398v-16.935h3.962a35.322 35.322 0 0111.163-9.634c20.173-11.646 52.9-11.646 73.071 0a35.322 35.322 0 0111.163 9.634h3.96v16.935c0 7.643-5.048 15.266-15.145 21.1-20.173 11.646-52.9 11.646-73.071 0-10.077-5.833-15.125-13.456-15.125-21.1z"/><path class="g" d="M331.304 2751.163c-13.214 0-26.449-2.916-36.545-8.729-8.468-4.887-13.4-11.062-14.743-17.438 1.348 6.376 6.275 12.53 14.743 17.438 8.789 5.069 19.972 7.945 31.457 8.588a65.005 65.005 0 01-26.71-16.231 87.137 87.137 0 0031.8 5.712c14.321 0 28.641-3.158 39.562-9.453a38 38 0 0012.106-10.435v.724c0 7.623-5.048 15.266-15.145 21.1-10.077 5.833-23.311 8.729-36.525 8.729z"/><path class="t" d="M294.759 2729.562c20.173 11.646 52.9 11.646 73.071 0s20.173-30.532 0-42.177-52.9-11.645-73.071 0-20.174 30.531 0 42.177z"/><path class="s" d="M331.304 2740.484a87.217 87.217 0 01-31.8-5.712 58.9 58.9 0 01-7.764-3.741 38.254 38.254 0 01-12.108-10.439 23.622 23.622 0 01-2.152-3.56 19.884 19.884 0 01-2.132-8.85v-12.349c.02 8.246 5.491 16.493 16.392 22.788 10.921 6.316 25.242 9.453 39.562 9.453s28.641-3.158 39.562-9.453c10.921-6.315 16.392-14.582 16.392-22.848v12.41a17.37 17.37 0 01-.2 2.7 20.8 20.8 0 01-1.931 6.155 23.619 23.619 0 01-2.152 3.56 38.254 38.254 0 01-12.108 10.439c-10.921 6.316-25.242 9.453-39.562 9.453zm-51.67-19.892zm107.419-9.735zm-4.083 9.715z"/><path class="j" d="M291.741 2718.62c21.843 12.611 57.282 12.611 79.125 0s21.843-33.066 0-45.677-57.282-12.611-79.125 0-21.843 33.066 0 45.677z"/><path class="g" d="M279.633 2694.686v-16.953h3.962a35.322 35.322 0 0111.163-9.634c20.173-11.645 52.9-11.645 73.071 0a35.322 35.322 0 0111.163 9.634h3.96v16.955c0 7.623-5.048 15.266-15.145 21.1-20.173 11.646-52.9 11.646-73.071 0-10.077-5.833-15.125-13.456-15.125-21.1z"/><path class="g" d="M331.304 2720.632c-13.194 0-26.388-2.9-36.465-8.709 10.077 5.793 23.251 8.669 36.445 8.669.583 0 1.167 0 1.77-.02-8.89-2.052-20.777-6.356-30.874-15.527a88.77 88.77 0 0029.124 4.706c14.321 0 28.641-3.158 39.562-9.453a38 38 0 0012.104-10.439v.925c0 7.623-5.048 15.266-15.145 21.1-10.077 5.833-23.311 8.729-36.525 8.729zm-36.586-8.769c-10.057-5.813-15.065-13.436-15.065-21.058 0 7.622 5.029 15.245 15.065 21.058z"/><path class="t" d="M294.759 2698.829c20.173 11.646 52.9 11.646 73.071 0s20.173-30.532 0-42.177-52.9-11.645-73.071 0-20.174 30.532 0 42.177z"/><path class="k" d="M331.284 2720.612c-13.194 0-26.368-2.876-36.445-8.669-.02 0-.04-.02-.06-.04s-.04-.02-.06-.04c-10.057-5.813-15.065-13.436-15.065-21.058v-.925a38.255 38.255 0 0012.108 10.439 62.505 62.505 0 0010.439 4.747c10.077 9.172 21.984 13.5 30.874 15.527-.583.02-1.187.02-1.77.02zm-36.525-16.03c-1.569 0-2.494.623-2.313 1.79.3 1.971 3.58 4.787 7.361 6.275a11.317 11.317 0 003.982.885c1.569 0 2.474-.624 2.313-1.79-.3-1.971-3.6-4.787-7.361-6.275a11.4 11.4 0 00-3.982-.905zm-5.27-2.514a1.415 1.415 0 00-1.146.523 1.779 1.779 0 00.744 2.373 2.36 2.36 0 001.327.463 1.415 1.415 0 001.146-.523 1.779 1.779 0 00-.744-2.373 2.328 2.328 0 00-1.327-.443zm.925 3.359a2.31 2.31 0 01-1.327-.463 1.818 1.818 0 01-.744-2.373 1.415 1.415 0 011.146-.523 2.434 2.434 0 011.327.443 1.818 1.818 0 01.744 2.373 1.359 1.359 0 01-1.146.523zm13.375 8.106a11.317 11.317 0 01-3.982-.885c-3.781-1.488-7.06-4.3-7.361-6.275-.181-1.167.744-1.79 2.313-1.79a11.4 11.4 0 013.982.905c3.761 1.488 7.06 4.284 7.361 6.275.181 1.167-.744 1.79-2.313 1.79z"/><path class="s" d="M331.304 2709.77a88.859 88.859 0 01-29.124-4.706 62.512 62.512 0 01-10.439-4.747 38 38 0 01-12.108-10.439 25.275 25.275 0 01-1.991-3.258c-.121-.221-.221-.463-.342-.684a19.782 19.782 0 01-1.947-8.466v-12.351c.02 8.246 5.491 16.493 16.392 22.788 10.921 6.316 25.242 9.453 39.562 9.453s28.641-3.158 39.562-9.453c10.921-6.315 16.392-14.582 16.392-22.848v12.411a19.958 19.958 0 01-2.293 9.151 25.275 25.275 0 01-1.991 3.258 38.254 38.254 0 01-12.108 10.439c-10.921 6.316-25.242 9.453-39.562 9.453zm-51.67-19.892zm103.341 0z"/><path class="j" d="M291.741 2687.888c21.843 12.611 57.282 12.611 79.125 0s21.843-33.066 0-45.677-57.282-12.611-79.125 0-21.843 33.066 0 45.677z"/><path class="g" d="M279.633 2663.952v-16.934h3.962a35.322 35.322 0 0111.163-9.634c20.173-11.645 52.9-11.645 73.071 0a35.322 35.322 0 0111.163 9.634h3.96v16.934c0 7.643-5.048 15.266-15.145 21.1-20.173 11.646-52.9 11.646-73.071 0-10.077-5.833-15.125-13.456-15.125-21.1z"/><path class="g" d="M331.304 2689.036c-13.154 0-26.288-2.876-36.364-8.629 10.057 5.752 23.21 8.629 36.344 8.629q2.414 0 4.827-.121c-8.246-1.569-20.274-5.169-30.874-13.576a90.434 90.434 0 0026.067 3.7c14.321 0 28.641-3.158 39.562-9.453a38.005 38.005 0 0012.108-10.439v.06c0 7.643-5.048 15.266-15.145 21.1-10.077 5.833-23.311 8.749-36.525 8.749zm-36.364-8.629a.153.153 0 00-.08-.04.153.153 0 00.08.038zm-.241-.141c-7.945-4.606-12.772-10.338-14.421-16.312 1.648 5.972 6.476 11.705 14.42 16.31z"/><path class="t" d="M294.759 2668.097c20.173 11.646 52.9 11.646 73.071 0s20.173-30.532 0-42.177-52.9-11.645-73.071 0-20.174 30.531 0 42.177z"/><path d="M85.714 284.318v-12.41H90a38.386 38.386 0 0112.088-10.439c21.843-12.611 57.282-12.611 79.125 0a37.7 37.7 0 0112.087 10.439h4.284v12.41c0 8.267-5.471 16.533-16.392 22.849-21.843 12.611-57.282 12.611-79.125 0-10.921-6.315-16.392-14.582-16.392-22.849z" transform="translate(189.635 2362.418)" fill="url(#b)" fill-rule="evenodd"/><path class="v" d="M291.741 2657.175c21.843 12.611 57.282 12.611 79.125 0s21.843-33.066 0-45.677-57.282-12.611-79.125 0-21.843 33.066 0 45.677z"/><path class="v" d="M291.741 2657.175c21.843 12.611 57.282 12.611 79.125 0s21.843-33.066 0-45.677-57.282-12.611-79.125 0-21.843 33.066 0 45.677z"/><path class="k" d="M331.304 2689.036c-13.154 0-26.288-2.876-36.344-8.629a.153.153 0 00-.08-.04c-.04-.02-.06-.04-.1-.06-.02 0-.04-.02-.06-.04-7.945-4.606-12.772-10.338-14.421-16.312a17.419 17.419 0 01-.644-4.747v-.06a38.216 38.216 0 0012.108 10.419 64.6 64.6 0 0013.5 5.752c10.6 8.407 22.627 12.028 30.874 13.576q-2.414.121-4.827.121zm-36.546-15.63c-1.569 0-2.494.624-2.313 1.79.3 1.971 3.58 4.787 7.361 6.275a11.4 11.4 0 003.982.905c1.569 0 2.474-.623 2.313-1.79-.3-1.971-3.6-4.787-7.361-6.275a11.316 11.316 0 00-3.982-.885zm-5.27-2.655a1.415 1.415 0 00-1.146.523 1.779 1.779 0 00.744 2.373 2.328 2.328 0 001.327.443 1.415 1.415 0 001.146-.523 1.78 1.78 0 00-.744-2.373 2.328 2.328 0 00-1.326-.443zm14.3 11.605a11.4 11.4 0 01-3.982-.905c-3.781-1.488-7.06-4.284-7.361-6.275-.181-1.167.744-1.79 2.313-1.79a11.316 11.316 0 013.982.885c3.761 1.488 7.06 4.3 7.361 6.275.181 1.167-.744 1.79-2.313 1.79zm-13.375-8.266a2.282 2.282 0 01-1.327-.443 1.818 1.818 0 01-.744-2.373 1.359 1.359 0 011.146-.523 2.282 2.282 0 011.327.443 1.818 1.818 0 01.744 2.373 1.359 1.359 0 01-1.145.523z"/><path class="s" d="M331.304 2679.038a90.434 90.434 0 01-26.067-3.7 64.149 64.149 0 01-13.5-5.752 38.216 38.216 0 01-12.108-10.419 25.269 25.269 0 01-1.991-3.258 23.062 23.062 0 01-1.106-2.534 19.478 19.478 0 01-1.187-6.617v-12.351c.02 8.246 5.491 16.493 16.392 22.788a62.94 62.94 0 005.27 2.7c9.272 4.163 20.274 6.4 31.417 6.738.965.04 1.911.04 2.876.04 14.32 0 28.641-3.158 39.562-9.453 10.921-6.316 16.392-14.582 16.392-22.848v12.41a19.9 19.9 0 01-2.293 9.151 25.263 25.263 0 01-1.991 3.258 38.254 38.254 0 01-12.108 10.439c-10.921 6.316-25.242 9.453-39.562 9.453zm-51.67-19.892zm103.341 0z"/><path class="t" d="M291.741 2657.175c21.843 12.611 57.282 12.611 79.125 0s21.843-33.066 0-45.677-57.282-12.611-79.125 0-21.843 33.066 0 45.677z"/><path class="h" d="M291.741 2657.175c21.843 12.611 57.282 12.611 79.125 0s21.843-33.066 0-45.677-57.282-12.611-79.125 0-21.843 33.066 0 45.677z"/><path class="i" d="M291.742 2656.166c21.843 12.611 57.282 12.611 79.125 0 10.7-6.175 16.151-14.24 16.372-22.326.221 8.427-5.229 16.915-16.372 23.331-21.843 12.611-57.282 12.611-79.125 0-11.143-6.436-16.593-14.9-16.372-23.331.221 8.106 5.672 16.151 16.372 22.346z"/><path class="k" d="M290.414 2736.606a2.31 2.31 0 01-1.327-.463 1.818 1.818 0 01-.744-2.373 1.415 1.415 0 011.146-.523 2.31 2.31 0 011.327.463 1.818 1.818 0 01.744 2.373 1.415 1.415 0 01-1.146.523zm13.174 8.287a11.316 11.316 0 01-3.982-.885c-3.761-1.488-7.06-4.3-7.361-6.275-.181-1.167.744-1.79 2.313-1.79a11.4 11.4 0 013.982.905c3.781 1.488 7.06 4.284 7.361 6.275.181 1.167-.744 1.79-2.313 1.79zm22.627 6.114c-11.485-.644-22.647-3.52-31.437-8.588-8.468-4.888-13.4-11.062-14.743-17.438a17.274 17.274 0 01-.382-3.661v-.724a38.507 38.507 0 0012.108 10.439 58.88 58.88 0 007.764 3.741 64.946 64.946 0 0026.69 16.231zm-31.658-15.065c-1.569 0-2.474.623-2.313 1.79.3 1.971 3.6 4.787 7.361 6.275a11.317 11.317 0 003.982.885c1.569 0 2.494-.623 2.313-1.79-.3-1.971-3.58-4.787-7.361-6.275a11.4 11.4 0 00-3.982-.905zm-5.068-2.7a1.415 1.415 0 00-1.146.523 1.78 1.78 0 00.744 2.373 2.36 2.36 0 001.327.463 1.414 1.414 0 001.146-.523 1.779 1.779 0 00-.744-2.372 2.359 2.359 0 00-1.327-.464zm21.862-87.391c11.022 6.356 28.882 6.356 39.9 0s11.022-16.674 0-23.029-28.882-6.356-39.9 0-11.022 16.674 0 23.029z"/><g transform="translate(303.085 2618.055)" clip-path="url(#e)"><path class="g" d="M10.258 29.262c9.916 5.732 26.006 5.732 35.922 0s9.916-15 0-20.737-26.006-5.732-35.922 0-9.916 15.008 0 20.737z"/></g><path d="M311.351 2645.851c11.022 6.356 28.882 6.356 39.9 0s11.022-16.674 0-23.029-28.882-6.356-39.9 0-11.022 16.674 0 23.029z" fill="none"/><path d="M668.559 2341.153l-18.906-10.917c-.684-.4-.6-1.106.2-1.569l8.588-4.948a3.022 3.022 0 012.715-.121l18.906 10.921c.684.4.6 1.106-.2 1.569l-8.588 4.965a3.022 3.022 0 01-2.715.121zm26.067-15.02l-15.95-9.212c-.7-.4-.6-1.106.2-1.569l8.588-4.968a3.022 3.022 0 012.715-.121l15.95 9.212c.7.4.6 1.106-.2 1.569l-8.588 4.948a3.022 3.022 0 01-2.715.121zm-39.804-7.944l-8.669-5.008c-.7-.4-.6-1.106.2-1.569l8.588-4.948a3.022 3.022 0 012.715-.121l8.669 5.008c.7.4.6 1.106-.2 1.569l-8.588 4.948a3.022 3.022 0 01-2.715.121zm13.395 7.723l-8.669-5.008c-.7-.4-.6-1.106.2-1.569l8.588-4.948a3.022 3.022 0 012.715-.121l8.669 5.008c.7.4.6 1.106-.2 1.569l-8.587 4.953a3.022 3.022 0 01-2.716.116zm13.376 7.743l-8.669-5.01c-.7-.4-.6-1.106.2-1.569l8.588-4.948a3.022 3.022 0 012.715-.121l8.669 5.008c.7.4.6 1.106-.2 1.569l-8.588 4.948a3.022 3.022 0 01-2.715.123zm-22.548-43.886l-8.669-5.008c-.684-.4-.6-1.106.2-1.569l2.836-1.629a3.022 3.022 0 012.715-.121l8.669 5.008c.7.4.6 1.106-.2 1.569l-2.836 1.649a3.022 3.022 0 01-2.715.121zm13.252 7.643l-8.669-5.008c-.7-.4-.6-1.106.2-1.569l2.836-1.649a3.022 3.022 0 012.715-.121l8.669 5.008c.684.4.6 1.106-.2 1.569l-2.836 1.649a3.022 3.022 0 01-2.715.121zm13.258 7.663l-8.669-5.008c-.7-.4-.6-1.106.2-1.569l2.836-1.649a3.022 3.022 0 012.715-.121l8.669 5.008c.7.4.6 1.106-.2 1.569l-2.836 1.649a3.022 3.022 0 01-2.715.121zm13.275 7.663l-8.669-5.008c-.7-.4-.6-1.106.2-1.569l2.836-1.629a3.022 3.022 0 012.715-.121l8.669 5.008c.684.4.6 1.106-.2 1.569l-2.836 1.629a3.022 3.022 0 01-2.715.121zm-51.047-13.656l-8.669-5.008c-.7-.4-.6-1.106.2-1.569l8.588-4.948a3.022 3.022 0 012.715-.121l8.669 5.008c.7.4.6 1.106-.2 1.569l-8.588 4.968a3.022 3.022 0 01-2.715.121zm13.375 7.723l-8.669-5.008c-.7-.4-.6-1.106.2-1.569l8.588-4.948a3.022 3.022 0 012.715-.121l8.669 5.008c.7.4.6 1.106-.2 1.569l-8.588 4.968a3.022 3.022 0 01-2.715.121zm13.395 7.723l-8.669-5.012c-.7-.4-.6-1.106.2-1.569l8.588-4.968a3.022 3.022 0 012.715-.121l8.669 5.008c.7.4.6 1.106-.2 1.569l-8.588 4.968a3.022 3.022 0 01-2.715.125z" fill="#6097d0"/><path class="z" d="M710.737 2265.392l-21.763-12.571.921-4.686 21.762 12.571z"/><path d="M389.956 228.246l-60.822-35.117c-2.373-1.368-4.284-5.028-4.284-8.186V39.384c0-3.158 1.911-4.606 4.284-3.238l60.822 35.117c2.373 1.368 4.284 5.028 4.284 8.186v145.558c0 3.158-1.91 4.606-4.284 3.239z" transform="translate(381.743 2188.618)" fill="url(#f)" fill-rule="evenodd"/><path class="h" d="M771.699 2259.881l-60.82-35.117a2.762 2.762 0 00-2.776-.241l-69.45 40.065 3.278 12.108 63.316 180.334 69.169-39.884.04-.02.121-.08c.865-.543 1.408-1.73 1.408-3.419v-145.56c0-3.158-1.911-6.818-4.284-8.186z"/><path class="j" d="M771.699 2259.881l-60.82-35.117a2.762 2.762 0 00-2.776-.241l-69.45 40.065 3.278 12.108 17.418 49.579 3.278 1.891 112.169-64.765a8.666 8.666 0 00-3.077-3.54z"/><path class="i" d="M702.309 2456.888l-60.822-35.117c-2.373-1.368-4.284-5.028-4.284-8.186v-145.559c0-3.158 1.911-4.606 4.284-3.238l60.822 35.117c2.373 1.368 4.284 5.028 4.284 8.186v145.555c0 3.162-1.911 4.61-4.284 3.242z"/><path class="ab" d="M698.487 2448.139l-53.179-30.693c-2.072-1.187-3.741-4.385-3.741-7.16V2275.11c0-2.755 1.669-4.023 3.741-2.836l53.179 30.693c2.072 1.187 3.741 4.4 3.741 7.16v135.18c0 2.751-1.669 4.019-3.741 2.832z"/><path class="ab" d="M698.487 2448.139l-53.179-30.693c-2.072-1.187-3.741-4.385-3.741-7.16V2275.11c0-2.755 1.669-4.023 3.741-2.836l53.179 30.693c2.072 1.187 3.741 4.4 3.741 7.16v135.18c0 2.751-1.669 4.019-3.741 2.832z"/><path class="ac" d="M698.487 2448.139l-53.179-30.693c-2.072-1.187-3.741-4.385-3.741-7.16V2275.11c0-2.755 1.669-4.023 3.741-2.836l53.179 30.693c2.072 1.187 3.741 4.4 3.741 7.16v135.18c0 2.751-1.669 4.019-3.741 2.832z"/><path class="h" d="M700.217 2447.112l-53.179-30.691c-2.072-1.187-3.741-4.4-3.741-7.16v-135.18a4.235 4.235 0 01.543-2.253c-1.327 0-2.273 1.207-2.273 3.278v135.18c0 2.756 1.669 5.954 3.741 7.16l53.179 30.693c1.368.784 2.554.5 3.2-.563a2.982 2.982 0 01-1.468-.443z"/><path class="h" d="M698.487 2386.07l-19.771-11.4-31.517 18.2 55.029 31.779v-31.4c0-2.755-1.669-5.953-3.741-7.16z"/><path class="h" d="M698.487 2358.355l-19.771-11.4-31.517 18.2 55.029 31.779v-31.419c0-2.755-1.669-5.953-3.741-7.16z"/><path class="h" d="M698.487 2330.659l-19.771-11.4-31.517 18.2 55.03 31.778v-31.418c0-2.755-1.669-5.953-3.741-7.14z"/><path class="h" d="M698.487 2302.963l-19.771-11.4-31.517 18.2 55.029 31.779v-31.419c0-2.756-1.669-5.953-3.741-7.16z"/><path class="h" d="M698.487 2302.963l-43.745-25.262-7.542 4.344 55.029 31.783v-3.7c0-2.756-1.669-5.953-3.741-7.16z"/><path class="i" d="M702.229 2313.824l-55.03-31.778v17.517l55.029 31.759zm0 27.695l-55.03-31.778v17.518l55.029 31.779zm0 27.697l-55.03-31.759v17.5l55.029 31.779zm0 27.715l-55.029-31.779v17.5l55.029 31.779zm0 27.696l-55.03-31.779v17.518l55.029 31.759z"/><path class="g" d="M697.361 2325.088l-41.453-23.939a5.106 5.106 0 01-2.112-4.063v-4.682c0-1.569.945-2.273 2.112-1.609l41.453 23.934a5.115 5.115 0 012.132 4.043v4.686c0 1.569-.945 2.273-2.132 1.609z"/><path class="ad" d="M655.103 2290.573h-.02zm-1.287 1.83v.02zm0-.02a2.288 2.288 0 01.342-1.307 2.655 2.655 0 00-.342 1.307zm2.172-1.549l-.06-.04a1.715 1.715 0 00-.825-.261 1.524 1.524 0 01.825.261l.04.04z"/><path class="k" d="M698.206 2325.349a1.64 1.64 0 01-.845-.261l-41.453-23.936a5 5 0 01-2.092-3.58 3.556 3.556 0 01-.02-.463v-4.686a2.313 2.313 0 01.342-1.327 1.1 1.1 0 01.945-.523 1.64 1.64 0 01.845.261l.06.04a3.331 3.331 0 00-.08.664v4.686a5.037 5.037 0 002.112 4.043l41.392 23.894c-.161.744-.623 1.187-1.207 1.187z"/><path class="l" d="M684.369 2312.235l-24.94-14.4a1.776 1.776 0 01-.744-1.428c0-.543.322-.8.744-.563l24.94 14.4a1.833 1.833 0 01.744 1.428c0 .543-.342.804-.744.563z"/><path class="g" d="M697.361 2352.623l-41.453-23.935a5.1 5.1 0 01-2.112-4.043v-4.686c0-1.569.945-2.273 2.112-1.609l41.453 23.935a5.115 5.115 0 012.132 4.043v4.686c0 1.568-.946 2.272-2.132 1.609z"/><path class="ad" d="M697.743 2352.783a2.852 2.852 0 01-.362-.161 1.431 1.431 0 00.362.161zm-43.947-32.885a2.253 2.253 0 01.241-1.106 2.816 2.816 0 00-.241 1.106zm2.172-1.529z"/><path class="k" d="M698.206 2352.863a1.32 1.32 0 01-.463-.08 2.852 2.852 0 01-.362-.161l-41.456-23.935a5.132 5.132 0 01-2.132-4.023v-4.746a2.253 2.253 0 01.241-1.106 1.17 1.17 0 011.046-.7 1.64 1.64 0 01.845.261l.04.02a3.36 3.36 0 00-.08.684v4.686a5.037 5.037 0 002.112 4.043l41.393 23.894c-.161.744-.624 1.187-1.207 1.187z"/><path class="k" d="M684.369 2339.77l-24.94-14.4a1.776 1.776 0 01-.744-1.428c0-.543.322-.8.744-.563l24.94 14.4a1.833 1.833 0 01.744 1.428c0 .542-.342.804-.744.563z"/><path class="g" d="M697.361 2380.395l-41.453-23.935a5.1 5.1 0 01-2.112-4.043v-4.682c0-1.569.945-2.273 2.112-1.609l41.453 23.935a5.115 5.115 0 012.132 4.043v4.686c0 1.568-.946 2.272-2.132 1.605z"/><path class="ad" d="M653.797 2347.735c0-1.167.523-1.85 1.287-1.85a1.64 1.64 0 01.845.261l.04.04-.06-.04a1.855 1.855 0 00-.845-.261c-.744 0-1.287.7-1.287 1.85z"/><path class="k" d="M698.206 2380.66a1.64 1.64 0 01-.845-.261l-41.453-23.935a5 5 0 01-2.092-3.58 3.556 3.556 0 01-.02-.463v-4.686c0-1.167.523-1.85 1.287-1.85a1.64 1.64 0 01.845.261l.06.04a3.36 3.36 0 00-.08.684v4.686a5.037 5.037 0 002.112 4.043l41.393 23.894c-.161.744-.623 1.187-1.207 1.187z"/><path class="l" d="M684.369 2367.546l-24.94-14.4a1.776 1.776 0 01-.744-1.428c0-.543.322-.8.744-.563l24.94 14.4a1.833 1.833 0 01.744 1.428c0 .543-.342.805-.744.563z"/><path class="g" d="M697.361 2408.456l-41.453-23.935a5.1 5.1 0 01-2.112-4.043v-4.685c0-1.569.945-2.273 2.112-1.609l41.453 23.935a5.115 5.115 0 012.132 4.043v4.686c0 1.568-.946 2.272-2.132 1.608z"/><path class="ad" d="M653.796 2375.773a2.313 2.313 0 01.342-1.327 2.677 2.677 0 00-.342 1.327zm.342-1.327zm1.83-.241l-.06-.04a1.855 1.855 0 00-.845-.261 1.64 1.64 0 01.845.261l.04.04z"/><path class="k" d="M698.206 2408.698a1.81 1.81 0 01-.845-.241l-41.453-23.935a5 5 0 01-2.092-3.58 3.556 3.556 0 01-.02-.463v-4.706a2.313 2.313 0 01.342-1.327 1.1 1.1 0 01.945-.523 1.64 1.64 0 01.845.261l.06.04a3.359 3.359 0 00-.08.684v4.686a5.037 5.037 0 002.112 4.043l41.393 23.894c-.161.744-.623 1.187-1.207 1.187z"/><path class="k" d="M684.369 2395.604l-24.94-14.4a1.776 1.776 0 01-.744-1.428c0-.543.322-.8.744-.563l24.94 14.4a1.833 1.833 0 01.744 1.428c0 .543-.342.805-.744.563z"/><path class="g" d="M697.361 2435.931l-41.453-23.935a5.1 5.1 0 01-2.112-4.043v-4.686c0-1.569.945-2.273 2.112-1.609l41.453 23.935a5.115 5.115 0 012.132 4.043v4.686c0 1.569-.945 2.273-2.132 1.609z"/><path class="ad" d="M653.796 2403.267a2.313 2.313 0 01.342-1.327 2.481 2.481 0 00-.342 1.327zm.342-1.327zm1.83-.241l-.06-.04a1.64 1.64 0 00-.845-.261 1.64 1.64 0 01.845.261l.04.04z"/><path class="k" d="M698.206 2436.192a1.81 1.81 0 01-.845-.241l-41.453-23.935a5 5 0 01-2.092-3.58 3.555 3.555 0 01-.02-.463v-4.686a2.313 2.313 0 01.342-1.327 1.078 1.078 0 01.945-.523 1.639 1.639 0 01.845.261l.06.04a3.359 3.359 0 00-.08.684v4.686a5.037 5.037 0 002.112 4.043l41.392 23.893c-.161.744-.623 1.187-1.207 1.187z"/><path class="l" d="M684.369 2423.079l-24.94-14.4a1.776 1.776 0 01-.744-1.428c0-.543.322-.8.744-.563l24.94 14.4a1.833 1.833 0 01.744 1.428c0 .543-.342.804-.744.563z"/><path class="h" d="M651.524 2302.063l-4.325-2.5v-17.517l4.324 2.514z"/><path class="ae" d="M651.524 2329.754l-4.324-2.494z"/><path class="h" d="M651.524 2329.753l-4.324-2.494v-17.518l4.324 2.514z"/><path class="ae" d="M651.524 2357.469l-4.324-2.514z"/><path class="h" d="M651.524 2357.47l-4.324-2.514v-17.5l4.324 2.494z"/><path class="ae" d="M651.524 2385.165l-4.324-2.514z"/><path class="h" d="M651.524 2385.165l-4.324-2.514v-17.5l4.324 2.494z"/><path class="ae" d="M651.524 2412.86l-4.324-2.494z"/><path class="h" d="M651.524 2412.861l-4.324-2.494v-17.519l4.324 2.514z"/><path class="l" d="M689.276 2313.964c0 .563-.382.784-.885.5a1.966 1.966 0 01-.885-1.529c0-.563.4-.784.885-.5a1.966 1.966 0 01.885 1.529zm3.722 2.153c0 .563-.4.784-.885.5a1.966 1.966 0 01-.885-1.529c0-.563.4-.784.885-.5a1.966 1.966 0 01.885 1.529zm3.72 2.152c0 .563-.4.784-.885.5a1.966 1.966 0 01-.885-1.529c0-.563.382-.784.885-.5a1.961 1.961 0 01.885 1.508z"/><path class="k" d="M689.276 2341.661c0 .563-.382.784-.885.5a1.966 1.966 0 01-.885-1.529c0-.563.4-.784.885-.5a1.966 1.966 0 01.885 1.529z"/><path class="l" d="M692.998 2343.813c0 .563-.4.784-.885.5a1.966 1.966 0 01-.885-1.529c0-.563.4-.784.885-.5a1.966 1.966 0 01.885 1.529zm3.72 2.131c0 .563-.4.784-.885.5a1.966 1.966 0 01-.885-1.529c0-.563.382-.784.885-.5a1.966 1.966 0 01.885 1.529z"/><path class="k" d="M689.276 2369.557c0 .563-.382.784-.885.5a1.966 1.966 0 01-.885-1.529c0-.563.4-.784.885-.5a1.966 1.966 0 01.885 1.529z"/><path class="l" d="M692.998 2371.689c0 .563-.4.784-.885.5a1.966 1.966 0 01-.885-1.529c0-.563.4-.784.885-.5a1.966 1.966 0 01.885 1.529z"/><path class="k" d="M696.718 2373.842c0 .563-.4.784-.885.5a1.966 1.966 0 01-.885-1.529c0-.563.382-.784.885-.5a1.966 1.966 0 01.885 1.529z"/><path class="l" d="M689.276 2397.032c0 .563-.382.784-.885.5a1.966 1.966 0 01-.885-1.529c0-.563.4-.784.885-.5a1.966 1.966 0 01.885 1.529zm3.722 2.152c0 .563-.4.784-.885.5a1.966 1.966 0 01-.885-1.529c0-.563.4-.784.885-.5a1.966 1.966 0 01.885 1.529zm3.72 2.153c0 .563-.4.784-.885.5a1.966 1.966 0 01-.885-1.529c0-.563.382-.784.885-.5a1.966 1.966 0 01.885 1.529zm-7.442 23.572c0 .563-.382.784-.885.5a1.966 1.966 0 01-.885-1.529c0-.563.4-.784.885-.5a1.966 1.966 0 01.885 1.529z"/><path class="k" d="M692.998 2427.04c0 .563-.4.784-.885.5a1.966 1.966 0 01-.885-1.529c0-.563.4-.784.885-.5a1.966 1.966 0 01.885 1.529z"/><path class="l" d="M696.718 2429.193c0 .563-.4.784-.885.5a1.961 1.961 0 01-.885-1.508c0-.563.382-.784.885-.5a1.966 1.966 0 01.885 1.529z"/><path class="j" d="M716.77 2313.864v121.563l50-28.862v-121.563zm-1.026 123.354v-123.937l.261-.141 51.791-29.908v123.937l-.261.141-51.811 29.908z"/><path class="g" d="M754.362 2338.99l-23.231 13.415c-1.569.905-2.816-.06-2.816-2.132v-12.876a6.734 6.734 0 012.816-5.39l23.231-13.417c1.569-.905 2.816.06 2.816 2.132v12.872a6.764 6.764 0 01-2.816 5.396z"/><path class="k" d="M754.924 2318.329a3.605 3.605 0 01.2 1.287v12.872a6.764 6.764 0 01-2.816 5.39l-23.231 13.415a1.9 1.9 0 01-.563.241 1.642 1.642 0 002.615.845l23.231-13.415a6.739 6.739 0 002.816-5.39v-12.872c0-1.83-.965-2.776-2.253-2.393z"/><path class="k" d="M750.118 2331.222c.422-.241.784-.04.784.443v2.936a1.673 1.673 0 01-.784 1.348c-.443.241-.784.04-.784-.442v-2.938a1.673 1.673 0 01.784-1.347zm-3.339 2.292c.422-.241.784-.04.784.443v2.574a1.734 1.734 0 01-.784 1.348c-.422.241-.784.04-.784-.443v-2.574a1.673 1.673 0 01.784-1.348zm-3.338-.945c.443-.241.784-.04.784.442v5.431a1.673 1.673 0 01-.784 1.348c-.422.241-.784.04-.784-.443v-5.43a1.673 1.673 0 01.784-1.348zm-3.32-1.206c.422-.241.784-.04.784.443v8.548a1.673 1.673 0 01-.784 1.348c-.422.241-.784.04-.784-.442v-8.549a1.673 1.673 0 01.784-1.348zm-3.338 2.836c.422-.241.784-.04.784.443v7.663a1.673 1.673 0 01-.784 1.348c-.422.241-.784.04-.784-.442v-7.663a1.673 1.673 0 01.784-1.349zm-3.339 5.43c.422-.241.764-.04.764.442v4.163a1.7 1.7 0 01-.764 1.348c-.442.241-.784.04-.784-.442v-4.163a1.673 1.673 0 01.784-1.348zm15.91-9.875c0 .483.342.684.764.443a1.7 1.7 0 00.764-1.327c0-.483-.342-.684-.764-.442a1.7 1.7 0 00-.764 1.326zm0-2.756c0 .483.342.684.764.442a1.7 1.7 0 00.764-1.327c0-.483-.342-.684-.764-.442a1.7 1.7 0 00-.764 1.327z"/><path class="h" d="M399.608 2550.595v-214.063l85.1-22.285 15.668-9.051c3.6-2.072 9.876-1.81 14.039.583l14.622 8.447 45.4-.02-13.439 206.646c.1 1.408-.684 2.776-2.414 3.761l-84.917 64.08c-3.6 2.072-9.876 1.81-14.039-.583l-56.6-32.684c-2.393-1.388-3.54-3.178-3.419-4.847z"/><path class="j" d="M506.911 2303.829a16.1 16.1 0 017.522 1.971l14.622 8.447 45.4-.02v214.647c.1 1.408-.684 2.776-2.414 3.761l-98.373 56.1a12.633 12.633 0 01-6.517 1.388l-1.013-215.979 40.769-70.3z"/><path class="i" d="M472.758 2589.153a16.1 16.1 0 01-11.223-.121v-217.463h11.223z"/><path class="j" d="M473.663 2374.143l98.373-56.1c3.6-2.072 3.138-5.712-1.006-8.106l-56.6-32.664c-4.163-2.393-10.439-2.655-14.039-.583l-98.373 56.1c-3.6 2.072-3.138 5.712 1.006 8.106l56.6 32.664c4.164 2.397 10.439 2.655 14.039.583z"/><path class="i" d="M403.027 2336.894l56.6 32.684c4.163 2.393 10.439 2.655 14.039.583l98.373-56.1a5.387 5.387 0 001.79-1.589c1.227 1.991.684 4.143-1.79 5.571l-98.373 56.1c-3.6 2.072-9.876 1.81-14.039-.583l-56.6-32.664c-3.218-1.871-4.2-4.465-2.8-6.517a8.086 8.086 0 002.8 2.534z"/><path class="ae" d="M470.888 2351.416l65.488-37.953c1.689-.965 1.468-2.675-.483-3.8l-26.491-15.288a7.329 7.329 0 00-6.577-.282l-65.488 37.953c-1.689.965-1.468 2.675.483 3.781l26.489 15.286a7.329 7.329 0 006.577.282z"/><path class="g" d="M506.247 2315.152l3.8-2.192c.241-.141.2-.362-.06-.523l-3.661-2.112a.968.968 0 00-.905-.04l-3.8 2.192c-.241.141-.2.362.06.523l3.661 2.112a1.03 1.03 0 00.905.04zm-12.691 7.28l3.8-2.192c.241-.141.2-.362-.06-.523l-3.661-2.112a1.03 1.03 0 00-.905-.04l-3.8 2.192c-.241.121-.2.362.06.523l3.661 2.112a.969.969 0 00.905.04zm-12.671 7.302l3.8-2.192c.241-.141.2-.362-.06-.523l-3.661-2.112a1.031 1.031 0 00-.905-.04l-3.8 2.192c-.241.141-.2.362.06.523l3.661 2.112a1.031 1.031 0 00.905.04zm-12.671 7.281l3.8-2.192c.241-.141.2-.362-.06-.523l-3.661-2.112a1.031 1.031 0 00-.905-.04l-3.8 2.192c-.241.141-.2.362.06.523l3.661 2.112a1.028 1.028 0 00.905.04z"/><path class="i" d="M536.377 2313.44l-.08.04-.4-.261-26.488-15.279a7.329 7.329 0 00-6.577-.282l-65.408 37.913c-1.549-1.106-1.629-2.615-.08-3.52l65.488-37.953a7.329 7.329 0 016.577.282l26.489 15.286c1.951 1.126 2.152 2.816.483 3.8z"/><path class="ac" d="M448.583 2416.542l-37.229-21.32c-2.092-1.207-3.8-4.465-3.8-7.241v-13.314c0-2.8 1.689-4.083 3.8-2.876l37.229 21.32c2.092 1.207 3.8 4.465 3.8 7.241v13.315c.001 2.795-1.688 4.082-3.8 2.875z"/><path class="i" d="M409.503 2371.388a3.709 3.709 0 00-.945 2.776v13.315c0 2.8 1.69 6.034 3.781 7.261l37.229 21.32a2.723 2.723 0 001.85.4 2.235 2.235 0 01-2.836.1l-37.229-21.32c-2.092-1.207-3.8-4.465-3.8-7.241v-13.313c0-1.891.8-3.077 1.951-3.278z"/><path class="g" d="M437.38 2402.081l-3.419-1.971a1.955 1.955 0 01-.825-1.589v-3.64c0-.6.362-.885.825-.623l3.419 1.971a1.955 1.955 0 01.825 1.589v3.64c-.001.602-.363.884-.825.623z"/><path class="m" d="M425.955 2395.484l-3.419-1.971a1.946 1.946 0 01-.825-1.569v-3.66c0-.6.362-.885.825-.623l3.419 1.971a1.946 1.946 0 01.825 1.569v3.663c0 .6-.362.882-.825.62z"/><path class="ac" d="M448.583 2512.763l-37.229-21.32c-2.092-1.207-3.8-4.465-3.8-7.241v-13.315c0-2.8 1.689-4.083 3.8-2.856l37.229 21.32c2.092 1.207 3.8 4.465 3.8 7.241v13.315c0 2.8-1.689 4.083-3.8 2.876z"/><path class="i" d="M409.503 2467.609a3.709 3.709 0 00-.945 2.776v13.314c0 2.8 1.69 6.034 3.781 7.241l37.229 21.32a2.723 2.723 0 001.85.4 2.288 2.288 0 01-2.836.1l-37.229-21.32c-2.092-1.207-3.8-4.465-3.8-7.241v-13.312c0-1.891.8-3.077 1.951-3.258z"/><path class="g" d="M437.38 2498.301l-3.419-1.971a1.955 1.955 0 01-.825-1.589v-3.64c0-.6.362-.885.825-.624l3.419 1.971a1.955 1.955 0 01.825 1.589v3.64c-.001.604-.363.885-.825.624z"/><path class="m" d="M425.955 2491.705l-3.419-1.971a1.946 1.946 0 01-.825-1.569v-3.661c0-.6.362-.885.825-.624l3.419 1.971a1.955 1.955 0 01.825 1.589v3.661c0 .6-.362.885-.825.624z"/><path class="ac" d="M448.583 2560.874l-37.229-21.32c-2.092-1.207-3.8-4.465-3.8-7.241v-13.315c0-2.8 1.689-4.083 3.8-2.876l37.229 21.32c2.092 1.207 3.8 4.465 3.8 7.241v13.315c0 2.8-1.689 4.083-3.8 2.856z"/><path class="i" d="M409.503 2515.719a3.741 3.741 0 00-.945 2.776v13.315c0 2.8 1.69 6.034 3.781 7.241l37.229 21.32a2.723 2.723 0 001.85.4 2.261 2.261 0 01-2.836.1l-37.229-21.322c-2.092-1.207-3.8-4.465-3.8-7.241v-13.31c-.001-1.891.803-3.078 1.95-3.279z"/><path class="g" d="M437.38 2546.412l-3.419-1.971a1.946 1.946 0 01-.825-1.569v-3.661c0-.6.362-.885.825-.624l3.419 1.971a1.946 1.946 0 01.825 1.569v3.665c-.001.6-.363.881-.825.62z"/><path class="m" d="M425.955 2539.815l-3.419-1.971a1.955 1.955 0 01-.825-1.589v-3.64c0-.6.362-.885.825-.624l3.419 1.971a1.955 1.955 0 01.825 1.589v3.64c0 .604-.362.886-.825.624z"/><path class="ac" d="M448.583 2464.652l-37.229-21.32c-2.092-1.207-3.8-4.465-3.8-7.241v-13.314c0-2.8 1.689-4.083 3.8-2.856l37.229 21.32c2.092 1.207 3.8 4.465 3.8 7.241v13.315c0 2.8-1.689 4.083-3.8 2.876z"/><path class="i" d="M409.503 2419.498a3.709 3.709 0 00-.945 2.776v13.315c0 2.8 1.69 6.034 3.781 7.241l37.229 21.32a2.723 2.723 0 001.85.4 2.235 2.235 0 01-2.836.1l-37.229-21.32c-2.092-1.207-3.8-4.465-3.8-7.241v-13.312c0-1.891.8-3.077 1.951-3.258z"/><path class="g" d="M437.38 2450.191l-3.419-1.971a1.955 1.955 0 01-.825-1.589v-3.64c0-.6.362-.885.825-.624l3.419 1.971a1.955 1.955 0 01.825 1.589v3.64c-.001.604-.363.886-.825.624z"/><path class="m" d="M425.955 2443.594l-3.419-1.971a1.946 1.946 0 01-.825-1.569v-3.66c0-.6.362-.885.825-.623l3.419 1.971a1.946 1.946 0 01.825 1.569v3.64c0 .6-.362.885-.825.624z"/><path class="h" d="M480.828 2402.926l85.9-49.6c1.931-1.106 3.48-4.083 3.48-6.657v-16.392c0-2.554-1.549-3.741-3.48-2.635l-85.9 49.6c-1.931 1.106-3.48 4.083-3.48 6.657v16.372c0 2.574 1.569 3.741 3.48 2.635z"/><path class="ac" d="M482.592 2397.394a1.3 1.3 0 00.7-.221l80.975-46.743a4.2 4.2 0 001.77-3.379v-12.305c0-.965-.442-1.549-1.066-1.549a1.5 1.5 0 00-.7.221l-80.975 46.743a4.259 4.259 0 00-1.77 3.379v12.306c.002.965.445 1.548 1.066 1.548z"/><path class="l" d="M547.398 2353.93l12.088-6.979a4.1 4.1 0 001.71-3.278c0-1.267-.764-1.85-1.71-1.287l-12.088 6.979a4.1 4.1 0 00-1.71 3.278c.001 1.267.765 1.851 1.71 1.287z"/><path class="g" d="M537.1 2357.59c0 1.267.885 1.77 1.971 1.146a4.418 4.418 0 001.971-3.439c0-1.267-.885-1.77-1.971-1.146a4.417 4.417 0 00-1.971 3.439zm-6.999 4.043c0 1.267.885 1.77 1.971 1.146a4.439 4.439 0 001.991-3.439c0-1.267-.885-1.77-1.991-1.146a4.381 4.381 0 00-1.971 3.419z"/><path class="z" d="M523.119 2365.676c0 1.267.885 1.77 1.971 1.146a4.386 4.386 0 001.971-3.439c0-1.267-.885-1.77-1.971-1.146a4.381 4.381 0 00-1.971 3.419z"/><path class="g" d="M516.143 2369.699c0 1.267.885 1.77 1.971 1.146a4.386 4.386 0 001.971-3.439c0-1.267-.885-1.77-1.971-1.146a4.381 4.381 0 00-1.971 3.419zm-29.442 20.615l4.063-2.353a2.627 2.627 0 001.106-2.092v-4.3c0-.8-.483-1.187-1.106-.825l-4.063 2.35a2.666 2.666 0 00-1.106 2.112v4.3c0 .8.5 1.187 1.106.825z"/><path class="h" d="M480.828 2431.808l85.9-49.6c1.931-1.106 3.48-4.083 3.48-6.657v-16.391c0-2.574-1.549-3.741-3.48-2.635l-85.9 49.6c-1.931 1.106-3.48 4.083-3.48 6.657v16.391c0 2.554 1.569 3.741 3.48 2.635z"/><path class="ac" d="M482.592 2426.277a1.3 1.3 0 00.7-.221l80.982-46.745a4.2 4.2 0 001.77-3.379v-12.308c0-.965-.442-1.549-1.066-1.549a1.452 1.452 0 00-.7.2l-80.975 46.763a4.259 4.259 0 00-1.77 3.379v12.309c-.005.967.438 1.551 1.059 1.551z"/><path class="l" d="M547.398 2382.833l12.088-6.979a4.1 4.1 0 001.71-3.278c0-1.267-.764-1.85-1.71-1.287l-12.088 6.979a4.1 4.1 0 00-1.71 3.278c.001 1.267.765 1.85 1.71 1.287z"/><path class="m" d="M537.1 2386.493c0 1.267.885 1.77 1.971 1.146a4.417 4.417 0 001.971-3.439c0-1.267-.885-1.77-1.971-1.146a4.417 4.417 0 00-1.971 3.439z"/><path class="g" d="M530.101 2390.515c0 1.267.885 1.77 1.971 1.146a4.4 4.4 0 001.991-3.419c0-1.267-.885-1.77-1.991-1.146a4.381 4.381 0 00-1.971 3.419z"/><path class="z" d="M523.119 2394.558c0 1.267.885 1.77 1.971 1.146a4.381 4.381 0 001.971-3.419c0-1.267-.885-1.77-1.971-1.146a4.417 4.417 0 00-1.971 3.439z"/><path class="g" d="M516.143 2398.581c0 1.267.885 1.77 1.971 1.146a4.386 4.386 0 001.971-3.439c0-1.267-.885-1.77-1.971-1.146a4.417 4.417 0 00-1.971 3.439zm-29.442 20.616l4.063-2.353a2.666 2.666 0 001.106-2.112v-4.3c0-.8-.483-1.187-1.106-.825l-4.063 2.353a2.666 2.666 0 00-1.106 2.112v4.3c-.004.804.498 1.187 1.106.825z"/><path class="h" d="M480.828 2460.69l85.9-49.6c1.931-1.106 3.48-4.083 3.48-6.657v-16.391c0-2.574-1.549-3.741-3.48-2.635l-85.9 49.6c-1.931 1.106-3.48 4.1-3.48 6.657v16.372c0 2.574 1.569 3.741 3.48 2.635z"/><path class="ac" d="M482.592 2455.159a1.5 1.5 0 00.7-.221l80.975-46.743a4.2 4.2 0 001.77-3.379v-12.31c0-.965-.442-1.549-1.066-1.549a1.451 1.451 0 00-.7.2l-80.975 46.743a4.259 4.259 0 00-1.77 3.379v12.309c0 .965.443 1.549 1.066 1.549z"/><path class="l" d="M547.398 2411.715l12.088-6.979a4.1 4.1 0 001.71-3.278c0-1.267-.764-1.85-1.71-1.287l-12.088 6.979a4.1 4.1 0 00-1.71 3.278c.001 1.267.765 1.85 1.71 1.287z"/><path class="m" d="M537.1 2415.376c0 1.267.885 1.77 1.971 1.146a4.417 4.417 0 001.971-3.439c0-1.267-.885-1.77-1.971-1.146a4.417 4.417 0 00-1.971 3.439z"/><path class="g" d="M530.101 2419.402c0 1.267.885 1.77 1.971 1.146a4.4 4.4 0 001.991-3.419c0-1.267-.885-1.77-1.991-1.146a4.381 4.381 0 00-1.971 3.419z"/><path class="z" d="M523.119 2423.441c0 1.267.885 1.77 1.971 1.146a4.418 4.418 0 001.971-3.439c0-1.267-.885-1.77-1.971-1.146a4.417 4.417 0 00-1.971 3.439z"/><path class="g" d="M516.143 2427.484c0 1.267.885 1.77 1.971 1.146a4.381 4.381 0 001.971-3.419c0-1.267-.885-1.77-1.971-1.146a4.386 4.386 0 00-1.971 3.439zm-29.442 20.616l4.063-2.353a2.666 2.666 0 001.106-2.112v-4.3c0-.8-.483-1.187-1.106-.845l-4.063 2.353a2.666 2.666 0 00-1.106 2.112v4.3c-.004.804.498 1.187 1.106.845z"/><path class="h" d="M480.828 2489.573l85.9-49.6c1.931-1.106 3.48-4.083 3.48-6.657v-16.372c0-2.574-1.549-3.741-3.48-2.635l-85.9 49.6c-1.931 1.106-3.48 4.083-3.48 6.657v16.372c0 2.574 1.569 3.741 3.48 2.635z"/><path class="ac" d="M482.592 2484.042a1.5 1.5 0 00.7-.221l80.975-46.743a4.2 4.2 0 001.77-3.379v-12.309c0-.965-.442-1.549-1.066-1.549a1.451 1.451 0 00-.7.2l-80.975 46.743a4.259 4.259 0 00-1.77 3.379v12.309c0 .965.443 1.549 1.066 1.549z"/><path class="l" d="M547.398 2440.597l12.088-6.979a4.1 4.1 0 001.71-3.278c0-1.267-.764-1.85-1.71-1.287l-12.088 6.979a4.1 4.1 0 00-1.71 3.278c0 1.267.764 1.85 1.71 1.307z"/><path class="g" d="M537.1 2444.258c0 1.267.885 1.77 1.971 1.146a4.381 4.381 0 001.971-3.419c0-1.267-.885-1.77-1.971-1.146a4.381 4.381 0 00-1.971 3.419zm-6.999 4.043c0 1.267.885 1.77 1.971 1.146a4.407 4.407 0 001.991-3.439c0-1.267-.885-1.77-1.991-1.146a4.381 4.381 0 00-1.971 3.419z"/><path class="z" d="M523.119 2452.323c0 1.267.885 1.77 1.971 1.146a4.418 4.418 0 001.971-3.439c0-1.267-.885-1.77-1.971-1.146a4.386 4.386 0 00-1.971 3.439z"/><path class="g" d="M516.143 2456.366c0 1.267.885 1.77 1.971 1.146a4.417 4.417 0 001.971-3.439c0-1.267-.885-1.77-1.971-1.146a4.386 4.386 0 00-1.971 3.439z"/><path class="l" d="M486.701 2476.982l4.063-2.353a2.666 2.666 0 001.106-2.112v-4.3c0-.8-.483-1.187-1.106-.825l-4.063 2.353a2.627 2.627 0 00-1.106 2.092v4.3c0 .8.5 1.187 1.106.825z"/><path class="h" d="M480.828 2518.457l85.9-49.6c1.931-1.106 3.48-4.083 3.48-6.657v-16.374c0-2.574-1.549-3.741-3.48-2.635l-85.9 49.6c-1.931 1.106-3.48 4.083-3.48 6.657v16.372c0 2.574 1.569 3.741 3.48 2.635z"/><path class="ac" d="M482.592 2512.924a1.452 1.452 0 00.7-.2l80.975-46.763a4.2 4.2 0 001.77-3.379v-12.31c0-.965-.442-1.549-1.066-1.549a1.5 1.5 0 00-.7.221l-80.973 46.743a4.259 4.259 0 00-1.77 3.379v12.309c0 .966.443 1.549 1.064 1.549z"/><path class="l" d="M547.398 2469.479l12.088-6.979a4.1 4.1 0 001.71-3.278c0-1.267-.764-1.85-1.71-1.287l-12.088 6.979a4.1 4.1 0 00-1.71 3.278c.001 1.267.765 1.851 1.71 1.287z"/><path class="g" d="M537.1 2473.141c0 1.267.885 1.77 1.971 1.146a4.381 4.381 0 001.971-3.419c0-1.267-.885-1.77-1.971-1.146a4.417 4.417 0 00-1.971 3.439z"/><path class="m" d="M530.101 2477.183c0 1.267.885 1.77 1.971 1.146a4.407 4.407 0 001.991-3.439c0-1.267-.885-1.77-1.991-1.146a4.417 4.417 0 00-1.971 3.439z"/><path class="z" d="M523.119 2481.206c0 1.267.885 1.77 1.971 1.146a4.418 4.418 0 001.971-3.439c0-1.267-.885-1.77-1.971-1.146a4.417 4.417 0 00-1.971 3.439z"/><path class="m" d="M516.143 2485.248c0 1.267.885 1.77 1.971 1.146a4.381 4.381 0 001.971-3.419c0-1.267-.885-1.77-1.971-1.146a4.381 4.381 0 00-1.971 3.419z"/><path class="l" d="M486.701 2505.864l4.063-2.353a2.666 2.666 0 001.106-2.112v-4.3c0-.8-.483-1.187-1.106-.825l-4.063 2.351a2.627 2.627 0 00-1.106 2.092v4.3c0 .8.5 1.187 1.106.825z"/><path class="h" d="M480.828 2547.357l85.9-49.6c1.931-1.106 3.48-4.1 3.48-6.657v-16.369c0-2.574-1.549-3.741-3.48-2.635l-85.9 49.6c-1.931 1.106-3.48 4.083-3.48 6.657v16.392c0 2.574 1.569 3.741 3.48 2.635z"/><path class="ac" d="M482.592 2541.806a1.3 1.3 0 00.7-.221l80.975-46.743a4.2 4.2 0 001.77-3.379v-12.309c0-.965-.442-1.549-1.066-1.549a1.5 1.5 0 00-.7.221l-80.973 46.746a4.259 4.259 0 00-1.77 3.379v12.309c0 .963.443 1.546 1.064 1.546z"/><path class="l" d="M547.398 2498.362l12.088-6.979a4.1 4.1 0 001.71-3.278c0-1.267-.764-1.85-1.71-1.287l-12.088 6.979a4.1 4.1 0 00-1.71 3.278c.001 1.266.765 1.85 1.71 1.287z"/><path class="g" d="M537.1 2502.022c0 1.267.885 1.77 1.971 1.146a4.418 4.418 0 001.971-3.439c0-1.267-.885-1.77-1.971-1.146a4.417 4.417 0 00-1.971 3.439zm-6.999 4.043c0 1.267.885 1.77 1.971 1.146a4.4 4.4 0 001.991-3.419c0-1.267-.885-1.77-1.991-1.146a4.386 4.386 0 00-1.971 3.439z"/><path class="z" d="M523.119 2510.088c0 1.267.885 1.77 1.971 1.146a4.381 4.381 0 001.971-3.419c0-1.267-.885-1.77-1.971-1.146a4.381 4.381 0 00-1.971 3.419z"/><path class="g" d="M516.143 2514.131c0 1.267.885 1.77 1.971 1.146a4.381 4.381 0 001.971-3.419c0-1.267-.885-1.77-1.971-1.146a4.381 4.381 0 00-1.971 3.419zm-29.442 20.616l4.063-2.353a2.627 2.627 0 001.106-2.092v-4.3c0-.8-.483-1.187-1.106-.825l-4.063 2.353a2.666 2.666 0 00-1.106 2.112v4.3c0 .8.5 1.187 1.106.825z"/><path class="h" d="M480.828 2576.24l85.9-49.6c1.931-1.106 3.48-4.083 3.48-6.657v-16.395c0-2.574-1.549-3.741-3.48-2.635l-85.9 49.6c-1.931 1.106-3.48 4.083-3.48 6.657v16.392c0 2.574 1.569 3.741 3.48 2.635z"/><path class="ac" d="M482.592 2570.709a1.451 1.451 0 00.7-.2l80.982-46.763a4.2 4.2 0 001.77-3.379v-12.311c0-.965-.442-1.549-1.066-1.549a1.451 1.451 0 00-.7.2l-80.975 46.763a4.259 4.259 0 00-1.77 3.379v12.309c-.005.967.438 1.551 1.059 1.551z"/><path class="l" d="M547.398 2527.265l12.088-6.979a4.1 4.1 0 001.71-3.278c0-1.267-.764-1.85-1.71-1.287l-12.088 6.979a4.1 4.1 0 00-1.71 3.278c.001 1.267.765 1.85 1.71 1.287z"/><path class="m" d="M534.888 2532.474c0 2.393 1.669 3.359 3.741 2.152a8.258 8.258 0 003.741-6.476c0-2.393-1.669-3.359-3.741-2.152a8.258 8.258 0 00-3.741 6.476z"/><path class="g" d="M520.426 2540.941c0 1.267.885 1.77 1.991 1.146a4.417 4.417 0 001.971-3.439c0-1.267-.885-1.77-1.971-1.146a4.407 4.407 0 00-1.991 3.439z"/><path class="z" d="M513.428 2544.984c0 1.267.885 1.77 1.971 1.146a4.417 4.417 0 001.971-3.439c0-1.267-.885-1.77-1.971-1.146a4.381 4.381 0 00-1.971 3.419z"/><path class="g" d="M506.448 2549.007c0 1.267.885 1.77 1.991 1.146a4.417 4.417 0 001.971-3.439c0-1.267-.885-1.77-1.971-1.146a4.439 4.439 0 00-1.991 3.439z"/><path class="l" d="M486.701 2563.629l4.063-2.353a2.657 2.657 0 001.106-2.092v-4.3c0-.8-.483-1.187-1.106-.825l-4.063 2.353a2.666 2.666 0 00-1.106 2.112v4.3c0 .8.5 1.187 1.106.845z"/><path class="f" d="M628.147 2587.827l-5.431 3.138v9.413l5.431-3.138z"/><path class="g" d="M632.313 2565.118l17.579 10.157v-20.294a3.053 3.053 0 011.368-2.454 2.646 2.646 0 011.287-.3h.04a2.943 2.943 0 011.468.362l86.969 50.2c3.359 1.931 5.048 4.485 5.048 7.04v84.757c0 2.534-1.689 5.089-5.048 7.019l-.121.08c-6.718 3.882-17.619 3.882-24.337 0l-86.969-50.2a3.2 3.2 0 01-1.448-2.514v-83.088s.684-.4 1.368-.784a3.1 3.1 0 012.816.06z"/><path class="k" d="M741.022 2616.827c6.7-3.862 6.7-10.2 0-14.059l-86.969-50.2a3 3 0 00-1.468-.362h-.04a2.592 2.592 0 00-1.287.3c-.744.442-.7 1.167.08 1.629l84.534 48.816c.8.463 2.112 1.207 2.856 1.75 3.922 2.937 4.284 6.879.885 9.654a14.2 14.2 0 01-2.876 1.69c-4.847 2.031-11.806 1.83-16.955-.5-.845-.382-2.132-1.126-2.937-1.609l-84.535-48.814a3.157 3.157 0 00-2.816-.06c-.764.443-.7 1.167.08 1.629l86.969 50.2c6.7 3.862 17.639 3.862 24.337 0l.121-.08z"/><path class="f" d="M743.194 2621.878a.3.3 0 00.221-.08 9.579 9.579 0 001.187-1.207.328.328 0 10-.5-.422 11.626 11.626 0 01-1.106 1.126.323.323 0 00-.04.463.314.314 0 00.241.121zm-102.456-42.157a.321.321 0 00.282-.161.308.308 0 00-.121-.443l-2.856-1.649a.324.324 0 00-.322.563l2.856 1.649zm5.732 3.3a.323.323 0 00.161-.6l-2.856-1.649a.324.324 0 00-.443.121.308.308 0 00.121.443l2.856 1.649zm5.732 3.3a.321.321 0 00.282-.161.308.308 0 00-.121-.442l-2.857-1.656a.308.308 0 00-.443.121.324.324 0 00.121.443l2.856 1.649zm5.732 3.3a.322.322 0 00.161-.6l-2.856-1.649a.324.324 0 00-.443.121.308.308 0 00.121.443l2.856 1.649zm5.732 3.3a.323.323 0 00.161-.6l-2.856-1.649a.324.324 0 00-.443.121.308.308 0 00.121.443l2.856 1.649zm5.732 3.3a.321.321 0 00.282-.161.308.308 0 00-.121-.443l-2.853-1.655a.324.324 0 10-.322.563l2.856 1.649zm5.712 3.3a.322.322 0 00.161-.6l-2.855-1.659a.324.324 0 00-.443.121.308.308 0 00.121.443l2.856 1.649zm5.732 3.3a.322.322 0 00.161-.6l-2.856-1.649a.324.324 0 00-.322.563l2.856 1.649zm5.732 3.3a.322.322 0 00.161-.6l-2.856-1.649a.324.324 0 00-.443.121.308.308 0 00.121.443l2.856 1.649zm5.712 3.3a.323.323 0 00.161-.6l-2.856-1.649a.308.308 0 00-.443.121.324.324 0 00.121.442l2.856 1.649zm5.732 3.3a.323.323 0 00.161-.6l-2.856-1.649a.324.324 0 00-.322.563l2.856 1.649zm5.732 3.3a.322.322 0 00.161-.6l-2.856-1.649a.324.324 0 00-.322.563l2.856 1.649zm5.732 3.3a.322.322 0 00.161-.6l-2.856-1.649a.324.324 0 00-.322.563l2.856 1.649zm5.732 3.3a.322.322 0 00.161-.6l-2.856-1.649a.324.324 0 00-.322.563l2.856 1.649zm22.285 2.353l.1-.02a21.482 21.482 0 003.077-1.327.308.308 0 00.121-.443.33.33 0 00-.443-.141 20.11 20.11 0 01-2.977 1.287.337.337 0 00-.2.422.326.326 0 00.322.221zm-16.292.362a.344.344 0 00.322-.241.333.333 0 00-.221-.4 19.6 19.6 0 01-3.057-1.126.333.333 0 10-.282.6 23.041 23.041 0 003.138 1.146l.08.02zm9.815.925h.02a29.947 29.947 0 003.319-.442.328.328 0 00-.121-.644c-1.046.2-2.132.342-3.238.442a.318.318 0 00-.3.342.327.327 0 00.322.3zm-3.3.06a.318.318 0 00.322-.322.349.349 0 00-.322-.342 28.852 28.852 0 01-3.258-.3.324.324 0 10-.08.644 30.3 30.3 0 003.339.3zm-94.144-49.094a.318.318 0 00.322-.322v-1.066l.925.543a.324.324 0 10.322-.563l-1.408-.825a.309.309 0 00-.322 0 .321.321 0 00-.161.282v1.649a.318.318 0 00.322.322zm0 6.557a.318.318 0 00.322-.322v-3.278a.322.322 0 10-.644 0v3.278a.318.318 0 00.322.322zm0 6.557a.318.318 0 00.322-.322v-3.278a.322.322 0 10-.644 0v3.278a.318.318 0 00.322.321zm0 6.577a.318.318 0 00.322-.322v-3.278a.322.322 0 10-.644 0v3.278a.318.318 0 00.322.321zm0 6.557a.318.318 0 00.322-.322v-3.278a.322.322 0 00-.644 0v3.278a.318.318 0 00.322.321zm0 6.557a.318.318 0 00.322-.322v-3.278a.322.322 0 00-.644 0v3.278a.318.318 0 00.322.321zm0 6.557a.318.318 0 00.322-.322v-3.278a.322.322 0 00-.644 0v3.278a.318.318 0 00.322.321zm0 6.557a.318.318 0 00.322-.322v-3.278a.322.322 0 00-.644 0v3.278a.318.318 0 00.322.322zm0 6.557a.318.318 0 00.322-.322v-3.278a.322.322 0 10-.644 0v3.278a.318.318 0 00.322.321zm0 6.557a.318.318 0 00.322-.322v-3.278a.322.322 0 10-.644 0v3.278a.318.318 0 00.322.321zm0 6.557a.318.318 0 00.322-.322v-3.278a.322.322 0 10-.644 0v3.278a.318.318 0 00.322.321z"/><path d="M635.006 2648.608a.322.322 0 00.161-.6l-1.247-.724v-1.448a.322.322 0 00-.644 0v1.649a.321.321 0 00.161.282l1.428.825.161.04z" fill="#f4f4f4"/><path class="f" d="M640.718 2651.925a.322.322 0 00.161-.6l-2.856-1.649a.324.324 0 00-.443.121.308.308 0 00.121.442l2.856 1.649zm5.712 3.3a.322.322 0 00.161-.6l-2.856-1.649a.324.324 0 00-.322.563l2.856 1.649zm5.732 3.3a.322.322 0 00.161-.6l-2.856-1.649a.324.324 0 00-.322.563l2.856 1.649zm5.731 3.3a.322.322 0 00.161-.6l-2.856-1.649a.324.324 0 00-.322.563l2.856 1.649zm5.732 3.3a.323.323 0 00.161-.6l-2.856-1.649a.308.308 0 00-.443.121.324.324 0 00.121.443l2.856 1.649zm5.732 3.3a.322.322 0 00.161-.6l-2.856-1.649a.324.324 0 00-.322.563l2.856 1.649zm5.732 3.3a.322.322 0 00.161-.6l-2.856-1.649a.324.324 0 00-.322.563l2.856 1.649zm5.732 3.3a.322.322 0 00.161-.6l-2.856-1.649a.324.324 0 00-.322.563l2.856 1.649zm5.732 3.3a.322.322 0 00.161-.6l-2.856-1.649a.324.324 0 00-.322.563l2.856 1.649zm5.732 3.3a.323.323 0 00.161-.6l-2.856-1.649a.308.308 0 00-.443.121.324.324 0 00.121.443l2.856 1.649zm5.732 3.3a.321.321 0 00.282-.161.308.308 0 00-.121-.443l-2.856-1.649a.324.324 0 00-.322.563l2.856 1.649zm5.732 3.3a.322.322 0 00.161-.6l-2.856-1.649a.324.324 0 10-.322.563l2.856 1.649zm5.732 3.3a.321.321 0 00.282-.161.308.308 0 00-.121-.442l-2.856-1.649a.324.324 0 10-.322.563l2.856 1.649zm5.732 3.3a.321.321 0 00.282-.161.308.308 0 00-.121-.443l-2.856-1.649a.324.324 0 00-.322.563l2.856 1.649zm22.285 2.373l.1-.02a21.468 21.468 0 003.077-1.328.328.328 0 10-.3-.583 20.117 20.117 0 01-2.977 1.287.332.332 0 00.1.644zm-16.292.342a.344.344 0 00.322-.241.317.317 0 00-.221-.4 19.591 19.591 0 01-3.057-1.126.333.333 0 10-.282.6 22.361 22.361 0 003.158 1.146zm9.815.925h.02a29.9 29.9 0 003.319-.443.328.328 0 00-.121-.644 27.883 27.883 0 01-3.238.422.336.336 0 00-.3.362.343.343 0 00.322.3zm-3.3.06a.318.318 0 00.322-.322.349.349 0 00-.322-.342 29.276 29.276 0 01-3.258-.3.321.321 0 00-.362.282.352.352 0 00.282.382 30.379 30.379 0 003.319.3h.02zm15.473-4.441a.3.3 0 00.221-.081 9.572 9.572 0 001.187-1.207.328.328 0 00-.5-.422 11.633 11.633 0 01-1.106 1.126.323.323 0 00-.04.463.314.314 0 00.241.121z"/><path class="e" d="M649.89 2570.791v-9.876a2.548 2.548 0 011.167-2.011l.4-.221a2.6 2.6 0 012.313 0l88.135 50.886a5.482 5.482 0 01-2.293 4.787 14.771 14.771 0 01-2.876 1.69 20.362 20.362 0 01-8.427 1.368l-77.254-44.611a2.548 2.548 0 01-1.167-2.011z"/><path class="ag" d="M653.771 2558.682l88.131 50.886a4.8 4.8 0 01-.583 2.8l-90.263-52.117c-.644-.362-.644-.965 0-1.348l.4-.221a2.6 2.6 0 012.313 0z"/><path class="e" d="M644.459 2572.138v-8.085a2.548 2.548 0 011.167-2.011l.4-.241a2.6 2.6 0 012.313 0l91.153 52.636a15.247 15.247 0 01-2.756 1.589c-4.847 2.031-11.786 1.81-16.955-.5-.845-.382-2.132-1.126-2.937-1.589z"/><path class="ag" d="M648.34 2561.82l91.152 52.636a14.189 14.189 0 01-2.715 1.569l-91.152-52.636a.7.7 0 010-1.327l.4-.241a2.6 2.6 0 012.313 0z"/><path class="e" d="M639.029 2568.98v-1.812a2.548 2.548 0 011.167-2.011l.4-.241a2.6 2.6 0 012.313 0l90.268 52.113a23.586 23.586 0 01-13.375-1.549c-.845-.382-2.132-1.126-2.936-1.589l-77.818-44.933z"/><path class="ag" d="M642.891 2564.957l90.265 52.113a22.666 22.666 0 01-4.847.342l-88.134-50.886a.7.7 0 010-1.327l.4-.241a2.6 2.6 0 012.313 0z"/><path class="k" d="M617.266 2595.449v19.288a2.548 2.548 0 001.167 2.011l35.2 20.334.06.04c2.655 1.529 5.068 1.71 6.838.8.543-.282 2.595-1.488 3.1-1.81 1.589-1.026 2.575-3.057 2.575-5.913 0-5.873-4.143-13.053-9.332-16.372l-32.985-19.047a1.41 1.41 0 01-.181-.121c-.463-.362-.4-.885.181-1.227l4.264-2.474v-3.138l-9.715 5.612a2.639 2.639 0 00-1.146 1.79.9.9 0 00-.02.221z"/><path class="g" d="M617.266 2595.449v19.288a2.548 2.548 0 001.167 2.011l35.2 20.334.06.04c3.459 1.971 6.517 1.71 8.267-.322a7.633 7.633 0 001.529-5.008c0-6.074-4.425-13.536-9.855-16.674l-33.649-19.409-1.569-.905c-.563-.342-1.046-.141-1.146.443a.9.9 0 00-.02.221z"/><path class="d" d="M655.34 2627.067c0 2.595-1.83 3.661-4.083 2.353a9.032 9.032 0 01-4.083-7.06c0-2.595 1.83-3.661 4.083-2.353a9.031 9.031 0 014.083 7.06z"/><path class="d" d="M647.034 2620.49l1.207-.684 5.893 9.9-1.388.8z"/><path class="f" d="M653.972 2627.852c0 2.595-1.83 3.661-4.083 2.353a9.032 9.032 0 01-4.083-7.06c0-2.595 1.83-3.661 4.083-2.353a9.031 9.031 0 014.083 7.06z"/></g></svg>