<svg xmlns="http://www.w3.org/2000/svg" width="270" height="350"><defs><clipPath id="a"><path transform="translate(411 1476)" fill="#fff" stroke="#707070" d="M0 0h270v350H0z"/></clipPath><style>.c{fill:#bdc1c6}.f{fill:#2950af}.g{fill:#5786ed}.h{fill:#abc5ff}.j{fill:#ff5833}.k{fill:#d4492a}.l{fill:#f1f3f4}</style></defs><g transform="translate(-411 -1476)" clip-path="url(#a)"><path class="c" d="M734.71 1954.696v-211.243l-222.682-.134v210.33c-.283 3.479 2.132 7.222 7.134 10.109l88.509 51.1c8.667 5 21.782 5.55 29.288 1.215l92.723-53.531c3.6-2.088 5.237-4.913 5.028-7.846z"/><path d="M734.706 1954.696v-209.3a2.067 2.067 0 00-2.064-2.067l-17.094-.011-92.186 40.732v234.9c5.077.123 9.981-.8 13.591-2.886l92.717-53.529c3.189-1.84 4.838-4.27 5.033-6.832v-.928c0-.029-.011-.057-.014-.083z" fill="#dadce0"/><path d="M729.675 1751.161l-92.717 53.532c-7.506 4.336-20.623 3.789-29.287-1.212l-88.511-51.1c-8.667-5-9.609-12.577-2.1-16.91l92.717-53.529c7.507-4.334 20.623-3.789 29.29 1.212l88.508 51.1c8.664 5.008 9.609 12.574 2.1 16.907z" fill="#e8eaed"/><path class="c" d="M648.744 1771.514a.621.621 0 000 1.173 2.24 2.24 0 002.034 0 .622.622 0 000-1.173 2.25 2.25 0 00-2.034 0zm-5.312-3.065a.618.618 0 000 1.172 2.24 2.24 0 002.034 0 .622.622 0 000-1.172 2.238 2.238 0 00-2.034 0zm-5.32-3.069a.621.621 0 000 1.173 2.249 2.249 0 002.033 0 .622.622 0 000-1.173 2.241 2.241 0 00-2.034 0zm-5.313-3.068a.622.622 0 000 1.174 2.248 2.248 0 002.035 0 .622.622 0 000-1.174 2.254 2.254 0 00-2.035 0zm26.569 9.202a.622.622 0 000 1.173 2.24 2.24 0 002.034 0 .622.622 0 000-1.173 2.25 2.25 0 00-2.034 0zm-5.311-3.065a.618.618 0 000 1.172 2.238 2.238 0 002.033 0 .618.618 0 000-1.172 2.238 2.238 0 00-2.034 0zm-5.313-3.069a.622.622 0 000 1.173 2.251 2.251 0 002.034 0 .622.622 0 000-1.173 2.24 2.24 0 00-2.034 0zm-5.312-3.068a.622.622 0 000 1.174 2.245 2.245 0 002.034 0 .622.622 0 000-1.174 2.25 2.25 0 00-2.034 0zm-5.32-3.071a.621.621 0 000 1.172 2.243 2.243 0 002.033 0 .621.621 0 000-1.173 2.243 2.243 0 00-2.032 0zm26.576 9.208a.618.618 0 000 1.172 2.239 2.239 0 002.032 0 .621.621 0 000-1.172 2.239 2.239 0 00-2.032 0zm-5.321-3.069a.622.622 0 000 1.173 2.252 2.252 0 002.034 0 .622.622 0 000-1.173 2.243 2.243 0 00-2.036 0zm-5.31-3.068a.622.622 0 000 1.174 2.242 2.242 0 002.034 0 .622.622 0 000-1.174 2.25 2.25 0 00-2.034 0zm-5.314-3.071a.621.621 0 000 1.172 2.244 2.244 0 002.033 0 .622.622 0 000-1.173 2.244 2.244 0 00-2.033.001zm-5.311-3.063a.622.622 0 000 1.173 2.252 2.252 0 002.034 0 .622.622 0 000-1.173 2.243 2.243 0 00-2.034 0zm26.612 9.202a.622.622 0 000 1.173 2.249 2.249 0 002.033 0 .621.621 0 000-1.173 2.242 2.242 0 00-2.034 0zm-5.357-3.068a.622.622 0 000 1.174 2.241 2.241 0 002.031 0 .622.622 0 000-1.174 2.246 2.246 0 00-2.03 0zm-5.319-3.071a.622.622 0 000 1.172 2.245 2.245 0 002.034 0 .622.622 0 000-1.173 2.246 2.246 0 00-2.034.001zm-5.311-3.063a.622.622 0 000 1.173 2.251 2.251 0 002.034 0 .622.622 0 000-1.173 2.243 2.243 0 00-2.035 0zm-5.314-3.07a.622.622 0 000 1.174 2.244 2.244 0 002.033 0 .622.622 0 000-1.174 2.251 2.251 0 00-2.034 0zm21.3 6.104a.622.622 0 000 1.173 2.244 2.244 0 002.034 0 .622.622 0 000-1.173 2.252 2.252 0 00-2.034 0zm-5.313-3.066a.618.618 0 000 1.172 2.244 2.244 0 002.032 0 .618.618 0 000-1.172 2.238 2.238 0 00-2.032 0zm-5.318-3.069a.622.622 0 000 1.173 2.255 2.255 0 002.035 0 .622.622 0 000-1.173 2.24 2.24 0 00-2.034 0zm-29.858 6.211a2.242 2.242 0 00-2.035 0 .622.622 0 000 1.173 2.252 2.252 0 002.034 0 .622.622 0 000-1.176zm-7.378-3.074a.622.622 0 000 1.175 2.255 2.255 0 002.034 0 .622.622 0 000-1.175 2.251 2.251 0 00-2.034 0zm-5.315-3.064a.622.622 0 000 1.175 2.25 2.25 0 002.035 0 .622.622 0 000-1.175 2.261 2.261 0 00-2.033 0zm-5.312-3.067a.622.622 0 000 1.172 2.242 2.242 0 002.031 0 .622.622 0 000-1.172 2.244 2.244 0 00-2.031 0zm-5.314-3.068a.622.622 0 000 1.172 2.246 2.246 0 002.034 0 .622.622 0 000-1.172 2.246 2.246 0 00-2.034 0zm-5.317-3.07a.622.622 0 000 1.173 2.244 2.244 0 002.034 0 .621.621 0 000-1.174 2.253 2.253 0 00-2.034 0zm-5.309-3.071a.621.621 0 000 1.173 2.243 2.243 0 002.033 0 .622.622 0 000-1.173 2.244 2.244 0 00-2.033 0zm-5.318-3.069a.622.622 0 000 1.173 2.245 2.245 0 002.034 0 .622.622 0 000-1.172 2.245 2.245 0 00-2.033 0zm-5.311-3.068a.622.622 0 000 1.173 2.238 2.238 0 002.034 0 .622.622 0 000-1.173 2.243 2.243 0 00-2.034 0zm-5.314-3.062a.622.622 0 000 1.173 2.238 2.238 0 002.034 0 .622.622 0 000-1.173 2.261 2.261 0 00-2.034 0zm-5.314-3.072a.621.621 0 000 1.172 2.236 2.236 0 002.031 0 .618.618 0 000-1.172 2.246 2.246 0 00-2.031 0zm60.513 27.619a2.247 2.247 0 00-2.034 0 .622.622 0 000 1.174 2.25 2.25 0 002.034 0 .622.622 0 000-1.174zm-7.351-3.072a.622.622 0 000 1.174 2.245 2.245 0 002.034 0 .621.621 0 000-1.175 2.26 2.26 0 00-2.034.001zm-5.337-3.068a.622.622 0 000 1.172 2.248 2.248 0 002.035 0 .622.622 0 000-1.173 2.248 2.248 0 00-2.035.001zm-5.316-3.067a.622.622 0 000 1.172 2.248 2.248 0 002.034 0 .622.622 0 000-1.172 2.25 2.25 0 00-2.034 0zm-5.312-3.07a.622.622 0 000 1.173 2.239 2.239 0 002.031 0 .622.622 0 000-1.173 2.252 2.252 0 00-2.031 0zm-5.314-3.071a.621.621 0 000 1.172 2.241 2.241 0 002.033 0 .622.622 0 000-1.173 2.248 2.248 0 00-2.033.001zm-5.316-3.069a.622.622 0 000 1.173 2.244 2.244 0 002.034 0 .622.622 0 000-1.172 2.245 2.245 0 00-2.034-.001zm-5.311-3.068a.622.622 0 000 1.173 2.241 2.241 0 002.034 0 .621.621 0 000-1.173 2.249 2.249 0 00-2.034 0zm-5.313-3.062a.622.622 0 000 1.173 2.242 2.242 0 002.034 0 .622.622 0 000-1.173 2.262 2.262 0 00-2.034 0zm-5.315-3.071a.622.622 0 000 1.172 2.237 2.237 0 002.034 0 .621.621 0 000-1.172 2.247 2.247 0 00-2.034 0zm-5.314-3.064a.622.622 0 000 1.174 2.253 2.253 0 002.034 0 .622.622 0 000-1.174 2.245 2.245 0 00-2.034 0zm60.474 27.614a2.249 2.249 0 00-2.033 0 .622.622 0 000 1.174 2.243 2.243 0 002.034 0 .622.622 0 000-1.171zm-7.361-3.072a.622.622 0 000 1.172 2.246 2.246 0 002.034 0 .622.622 0 000-1.173 2.248 2.248 0 00-2.034.001zm-5.265-3.067a.622.622 0 000 1.172 2.244 2.244 0 002.034 0 .622.622 0 000-1.173 2.245 2.245 0 00-2.034.001zm-5.337-3.07a.621.621 0 000 1.173 2.243 2.243 0 002.035 0 .621.621 0 000-1.173 2.254 2.254 0 00-2.034 0zm-5.316-3.071a.622.622 0 000 1.173 2.246 2.246 0 002.035 0 .622.622 0 000-1.173 2.248 2.248 0 00-2.035 0zm-5.312-3.069a.622.622 0 000 1.173 2.24 2.24 0 002.031 0 .622.622 0 000-1.172 2.243 2.243 0 00-2.031 0zm-5.315-3.068a.622.622 0 000 1.173 2.244 2.244 0 002.035 0 .622.622 0 000-1.174 2.249 2.249 0 00-2.035.001zm-5.315-3.065a.622.622 0 000 1.172 2.24 2.24 0 002.034 0 .622.622 0 000-1.172 2.251 2.251 0 00-2.034 0zm-5.31-3.069a.621.621 0 000 1.173 2.241 2.241 0 002.033 0 .622.622 0 000-1.173 2.252 2.252 0 00-2.033 0zm-5.314-3.063a.622.622 0 000 1.174 2.255 2.255 0 002.034 0 .621.621 0 000-1.174 2.248 2.248 0 00-2.034 0zm-5.316-3.071a.622.622 0 000 1.174 2.242 2.242 0 002.034 0 .622.622 0 000-1.174 2.251 2.251 0 00-2.034 0zm60.515 27.615a2.244 2.244 0 00-2.034 0 .622.622 0 000 1.172 2.249 2.249 0 002.034 0 .622.622 0 000-1.176zm-7.397-3.069a.621.621 0 000 1.174 2.246 2.246 0 002.03 0 .621.621 0 000-1.174 2.239 2.239 0 00-2.03 0zm-5.317-3.07a.622.622 0 000 1.173 2.244 2.244 0 002.034 0 .622.622 0 000-1.173 2.254 2.254 0 00-2.034 0zm-5.266-3.071a.622.622 0 000 1.172 2.241 2.241 0 002.034 0 .621.621 0 000-1.172 2.245 2.245 0 00-2.034 0zm-5.337-3.069a.622.622 0 000 1.173 2.244 2.244 0 002.035 0 .622.622 0 000-1.172 2.246 2.246 0 00-2.033 0zm-5.316-3.068a.622.622 0 000 1.173 2.244 2.244 0 002.035 0 .622.622 0 000-1.173 2.249 2.249 0 00-2.034 0zm-5.312-3.065a.622.622 0 000 1.172 2.237 2.237 0 002.031 0 .622.622 0 000-1.172 2.243 2.243 0 00-2.03 0zm-5.314-3.068a.622.622 0 000 1.173 2.241 2.241 0 002.033 0 .622.622 0 000-1.173 2.252 2.252 0 00-2.034 0zm-5.317-3.064a.622.622 0 000 1.174 2.255 2.255 0 002.034 0 .621.621 0 000-1.174 2.244 2.244 0 00-2.033 0zm-5.31-3.071a.621.621 0 000 1.174 2.247 2.247 0 002.033 0 .621.621 0 000-1.174 2.255 2.255 0 00-2.033 0zm-5.313-3.066a.622.622 0 000 1.172 2.246 2.246 0 002.034 0 .622.622 0 000-1.173zm55.234 24.511a2.244 2.244 0 00-2.033 0 .621.621 0 000 1.175 2.257 2.257 0 002.033 0zm-7.339-3.073a.622.622 0 000 1.175 2.246 2.246 0 002.035 0 .622.622 0 000-1.175 2.261 2.261 0 00-2.035 0zm-5.365-3.065a.621.621 0 000 1.172 2.246 2.246 0 002.034 0 .622.622 0 000-1.172 2.251 2.251 0 00-2.034 0zm-5.311-3.069a.621.621 0 000 1.175 2.252 2.252 0 002.034 0 .622.622 0 000-1.175 2.249 2.249 0 00-2.034 0zm-5.29-3.07a.621.621 0 000 1.174 2.243 2.243 0 002.034 0 .621.621 0 000-1.174 2.255 2.255 0 00-2.033 0zm-5.319-3.063a.621.621 0 000 1.175 2.245 2.245 0 002.033 0 .621.621 0 000-1.175 2.26 2.26 0 00-2.034 0zm-5.31-3.066a.621.621 0 000 1.172 2.242 2.242 0 002.034 0 .621.621 0 000-1.172 2.243 2.243 0 00-2.034 0zm-5.315-3.071a.621.621 0 000 1.173 2.237 2.237 0 002.033 0 .621.621 0 000-1.173 2.252 2.252 0 00-2.034 0zm-5.315-3.069a.622.622 0 000 1.173 2.241 2.241 0 002.034 0 .622.622 0 000-1.174 2.256 2.256 0 00-2.034.001zm39.233 15.339a2.252 2.252 0 00-2.035 0 .622.622 0 000 1.175 2.255 2.255 0 002.035 0zm-5.299-3.07a2.259 2.259 0 00-2.034 0 .621.621 0 000 1.175 2.248 2.248 0 002.033 0 .621.621 0 000-1.175zm-5.316-3.065a2.25 2.25 0 00-2.033 0 .621.621 0 000 1.174 2.242 2.242 0 002.033 0 .621.621 0 000-1.172zm-5.334-3.065a2.242 2.242 0 00-2.034 0 .621.621 0 000 1.172 2.242 2.242 0 002.034 0 .622.622 0 000-1.172zm-7.343-3.07a.621.621 0 000 1.173 2.242 2.242 0 002.034 0 .622.622 0 000-1.174 2.253 2.253 0 00-2.034 0zm-5.311-3.069a.622.622 0 000 1.173 2.237 2.237 0 002.033 0 .621.621 0 000-1.174 2.253 2.253 0 00-2.033.001z"/><path class="f" d="M652.941 1759.157l-.047-.027c-.075-.028-.15-.052-.226-.084l-59.822-34.461a12.471 12.471 0 01-5.6-10.46l.044-154.981a5.73 5.73 0 01.117-.815c.792-5.745 7.635-8.95 12.873-5.933l.09.057c.061.032.118.056.177.089l59.765 34.483a12.272 12.272 0 015.5 10.292l-.112 154.433a5.14 5.14 0 01-.08.847 8.448 8.448 0 01-12.679 6.56z"/><path class="g" d="M651.591 1604.376s7.444-2.237 9.9-5.273a6.984 6.984 0 001.122-6.518 12.265 12.265 0 00-4.134-4.621l-59.764-34.482c-.06-.033-.12-.056-.178-.091l-.089-.057a8.654 8.654 0 00-6.243-.924c-.02.011-.041.018-.062.027a7.884 7.884 0 00-4.43 5.955 5.2 5.2 0 00-.11.751l-.044 154.981a12.015 12.015 0 00.286 2.564 12.319 12.319 0 007.136 7.977c.482.21.9.4 1.295.565a.7.7 0 00.162-.325l55.154-120.527zm1.194 155.051l.124-.214-.129.206-.084-.031a1.73 1.73 0 01-.179-.074l-59.835-34.471a12.742 12.742 0 01-5.742-10.719l.044-155a5.888 5.888 0 01.12-.836 8.49 8.49 0 014.769-6.409 9.115 9.115 0 018.576.253l.14.078c.038.021.078.038.119.062l59.777 34.492a12.557 12.557 0 015.64 10.553l-.113 154.435a5.207 5.207 0 01-.08.862 8.485 8.485 0 01-4.537 6.942 8.814 8.814 0 01-8.612-.128z"/><path class="f" d="M664.379 1615.701l-.005-2.325c0-.673-.544-.9-1.218-.515a2.524 2.524 0 00-1.222 1.921l.005 2.322c0 .675.546.9 1.221.517a2.53 2.53 0 001.22-1.92z"/><path class="h" d="M661.947 1614.776a2.537 2.537 0 011.22-1.921 1.377 1.377 0 01.459-.149.757.757 0 01.04.266l.005 2.324a2.519 2.519 0 01-1.221 1.921 1.349 1.349 0 01-.452.169.887.887 0 01-.046-.288z"/><path class="g" d="M662.116 1614.776a2.35 2.35 0 011.142-1.784.933.933 0 01.263-.1v.083l.007 2.324a2.373 2.373 0 01-1.145 1.786 1.358 1.358 0 01-.257.117.479.479 0 01-.006-.1zm1.631-2.248l-.134.024a1.494 1.494 0 00-.509.17 2.666 2.666 0 00-1.3 2.055l.006 2.324a1.1 1.1 0 00.054.335l.04.129.136-.023a1.572 1.572 0 00.5-.189 2.657 2.657 0 001.3-2.055l-.007-2.324a.953.953 0 00-.046-.312z"/><path class="h" d="M665.479 1616.117c0-.673-.544-.9-1.219-.518a2.53 2.53 0 00-1.22 1.921c0 .673.544.9 1.217.515a2.525 2.525 0 001.222-1.919z"/><path class="g" d="M663.288 1617.859a.665.665 0 01-.072-.332 2.359 2.359 0 011.13-1.76.771.771 0 01.734-.109.515.515 0 01.2.464 2.357 2.357 0 01-1.127 1.76.784.784 0 01-.734.109.377.377 0 01-.132-.132zm2.242-2.26a.731.731 0 00-.266-.268 1.117 1.117 0 00-1.107.113 2.694 2.694 0 00-1.315 2.082.853.853 0 00.389.788 1.117 1.117 0 001.109-.11 2.688 2.688 0 001.313-2.082 1.049 1.049 0 00-.107-.522z"/><path class="f" d="M664.277 1615.621a2.527 2.527 0 00-1.222 1.921.687.687 0 00.268.6l-.829-.366a.532.532 0 01-.09-.043l-.068-.037-.056-.029c-.184-.108-.25-.283-.249-.587a2.526 2.526 0 011.22-1.921 1 1 0 01.841-.145l-.045-.015.056.019.074.032.925.419a1.013 1.013 0 00-.825.152z"/><path class="g" d="M663.997 1615.193l.061.027.3.133c-.068.03-.136.063-.207.1a2.691 2.691 0 00-1.313 2.083 1.048 1.048 0 00.018.207l-.32-.14a.628.628 0 01-.076-.035l-.124-.067c-.075-.044-.152-.117-.152-.421a2.358 2.358 0 011.129-1.761.877.877 0 01.647-.141l.041.013zm1.143.106l-.926-.419s-.072-.033-.083-.036l-.032-.009a1.2 1.2 0 00-.977.163 2.7 2.7 0 00-1.316 2.082.792.792 0 00.339.749l.129.069a1.231 1.231 0 00.119.056l.946.417.213-.27-.162-.116a.521.521 0 01-.187-.445 2.364 2.364 0 011.127-1.759.843.843 0 01.668-.134l.138-.347z"/><path class="f" d="M664.426 1620.26a2.524 2.524 0 00-1.219 1.921l-.007 6.97a.651.651 0 00.333.641l-1.1-.519-.1-.051a.656.656 0 01-.408-.673l.01-6.97a2.524 2.524 0 011.219-1.921.9.9 0 01.777-.17l.064.024h.008a.213.213 0 01.032.016l1.254.589a.99.99 0 00-.862.143z"/><path class="g" d="M662.161 1628.863a.591.591 0 01-.068-.313l.007-6.971a2.359 2.359 0 011.13-1.759c.289-.169.469-.214.617-.156l.065.024.636.3a1.9 1.9 0 00-.23.113 2.69 2.69 0 00-1.314 2.082l-.009 6.971a1.081 1.081 0 00.016.194l-.616-.292a.444.444 0 01-.233-.192zm3.187-8.912l-1.373-.636a1.083 1.083 0 00-.935.182 2.688 2.688 0 00-1.314 2.081l-.008 6.97a.836.836 0 00.524.847l1.19.565.161-.339a.487.487 0 01-.226-.472l.008-6.971a2.368 2.368 0 011.129-1.76.842.842 0 01.7-.129z"/><path class="h" d="M665.652 1627.747l.008-6.969c0-.674-.544-.9-1.219-.516a2.525 2.525 0 00-1.22 1.921l-.008 6.97c0 .672.542.9 1.217.516a2.532 2.532 0 001.222-1.922z"/><path class="g" d="M663.47 1629.485a.676.676 0 01-.073-.332l.008-6.971a2.362 2.362 0 011.13-1.76.785.785 0 01.734-.109.514.514 0 01.2.464l-.01 6.971a2.356 2.356 0 01-1.126 1.759.768.768 0 01-.734.11.365.365 0 01-.132-.132zm2.249-9.226a.716.716 0 00-.265-.269 1.114 1.114 0 00-1.108.11 2.688 2.688 0 00-1.313 2.082l-.01 6.97a.856.856 0 00.39.788 1.115 1.115 0 001.109-.11 2.69 2.69 0 001.314-2.081l.007-6.971a1.03 1.03 0 00-.113-.521z"/><path class="f" d="M664.364 1631.604a2.528 2.528 0 00-1.221 1.921l-.008 6.969a.659.659 0 00.333.642l-1.1-.52-.1-.051a.655.655 0 01-.407-.673l.007-6.969a2.53 2.53 0 011.221-1.921.9.9 0 01.776-.169l.064.022h.006c.013 0 .024.011.035.016l1.254.589a.991.991 0 00-.859.144z"/><path class="g" d="M662.112 1640.208a.619.619 0 01-.07-.314l.008-6.971a2.356 2.356 0 011.126-1.759c.291-.17.47-.214.621-.158l.063.024.635.3a1.645 1.645 0 00-.227.113 2.7 2.7 0 00-1.315 2.081l-.008 6.971a1.247 1.247 0 00.015.2l-.615-.293a.453.453 0 01-.234-.19zm3.187-8.913l-1.373-.637a1.093 1.093 0 00-.936.182 2.7 2.7 0 00-1.314 2.082l-.009 6.97a.84.84 0 00.525.847l1.19.565.162-.339a.49.49 0 01-.227-.472l.008-6.971a2.357 2.357 0 011.13-1.759.827.827 0 01.693-.129z"/><path class="h" d="M665.596 1639.095l.009-6.97c0-.673-.545-.9-1.218-.516a2.527 2.527 0 00-1.221 1.921l-.009 6.969c0 .673.546.9 1.218.516a2.526 2.526 0 001.22-1.919z"/><path class="g" d="M663.409 1640.83a.655.655 0 01-.074-.332l.009-6.97a2.356 2.356 0 011.13-1.759.778.778 0 01.733-.11.515.515 0 01.2.464l-.007 6.971a2.356 2.356 0 01-1.129 1.758.773.773 0 01-.735.113.355.355 0 01-.13-.134zm2.249-9.227a.723.723 0 00-.266-.268 1.112 1.112 0 00-1.107.11 2.693 2.693 0 00-1.316 2.081l-.007 6.971a.857.857 0 00.39.791 1.113 1.113 0 001.106-.11 2.7 2.7 0 001.317-2.082l.008-6.97a1.069 1.069 0 00-.125-.52z"/><path class="h" d="M588.191 1558.518l-.042 154.981a12.473 12.473 0 005.6 10.46l59.825 34.457c3.489 1.551 7.684-.175 7.7-4.12l.113-154.433a12.271 12.271 0 00-5.5-10.293l-59.76-34.48c-4.345-2.439-7.684-.231-7.933 3.427z"/><path class="f" d="M651.723 1754.344l-57.7-33.5a8.736 8.736 0 01-3.923-7.329l.105-151.913c.173-2.564 2.513-4.11 5.559-2.4l11.751 6.837-.007 2.067a7.884 7.884 0 003.273 6.295l26.036 15.133c1.813 1.055 3.289-.057 3.295-2.478l.006-2.061 13.3 7.728a8.6 8.6 0 013.857 7.213l-.154 151.53a3.48 3.48 0 01-5.4 2.886z"/><path class="f" d="M615.743 1572.006l-.074-.043c-.381-.223-.691.011-.695.52a1.655 1.655 0 00.688 1.327l.07.043c.383.222.694-.01.7-.52a1.66 1.66 0 00-.689-1.327zm15.373 8.977l-13.216-7.714c-.382-.223-.692.011-.7.52a1.667 1.667 0 00.688 1.328l13.217 7.713c.38.226.691-.01.694-.52a1.658 1.658 0 00-.687-1.327z"/><path class="h" d="M597.858 1630.618l53.858 30.766c1.408.805 2.542-.062 2.534-1.934a6.089 6.089 0 00-2.567-4.845l-53.855-30.765c-1.408-.8-2.542.062-2.535 1.935a6.094 6.094 0 002.565 4.843z"/><path d="M651.638 1663.835a1.758 1.758 0 00.892-.237 2.7 2.7 0 001.1-2.464 6.51 6.51 0 00-2.8-5.248l-53.856-30.764a2.078 2.078 0 00-2.13-.123 2.7 2.7 0 00-1.1 2.462 6.509 6.509 0 002.8 5.248l53.857 30.767a2.509 2.509 0 001.237.359z" fill="#08243b"/><path class="j" d="M579.006 1700.305a4.382 4.382 0 002.137-.494l67.314-38.4a1.758 1.758 0 00.879-1.051l.061-.006v-.333l-.095-1.978-2.95-.8-45.12-25.489a5.474 5.474 0 00-4.921-.2l-67.975 37.508.056 2.62a2.409 2.409 0 001.29 1.5l46.538 26.431a5.816 5.816 0 002.784.693z"/><path class="j" d="M529.09 1668.616l67.313-38.4a5.166 5.166 0 014.576.2l46.839 26.446c1.369.773 1.543 1.937.389 2.6l-67.315 38.4a5.163 5.163 0 01-4.576-.2l-45.461-25.665c-1.371-.773-2.921-2.715-1.764-3.378z"/><path class="j" d="M529.251 1669.735l67.316-38.4a5.171 5.171 0 014.577.2l46.839 26.446c1.371.774.759 1.362-.4 2.023l-66.162 37.16c-1.154.663-3.4 1.6-4.77.826l-44.466-25.347c-1.372-.773-4.081-2.247-2.926-2.908z"/><path class="k" d="M598.35 1630.12a5.178 5.178 0 012.455.6l46.839 26.442c.609.345.976.791.976 1.193a1 1 0 01-.591.8l-67.314 38.4a4.872 4.872 0 01-4.231-.2l-45.459-25.668c-1.022-.577-1.991-1.739-1.993-2.389a.4.4 0 01.232-.383l67.313-38.406a3.677 3.677 0 011.774-.392zm-19.427 68.535a4.362 4.362 0 002.136-.491l67.314-38.405a1.639 1.639 0 00.941-1.409 2.232 2.232 0 00-1.329-1.8l-46.84-26.447a5.468 5.468 0 00-4.918-.2l-67.315 38.406a1.093 1.093 0 00-.58.989c0 1 1.216 2.356 2.346 2.995l45.461 25.667a5.8 5.8 0 002.786.7z"/><path class="l" d="M619.92 1652.257l2.166-1.233c.738-.42.757-1.091.041-1.5l-6.029-3.427a2.957 2.957 0 00-2.636.024l-2.164 1.231zm-9.525-4.388l-3.491 1.987 8.622 4.9 3.491-1.987zm2.083 8.615l2.14-1.217-8.621-4.9-2.142 1.216c-.734.42-.757 1.091-.041 1.5l6.029 3.427a2.954 2.954 0 002.635-.024zm-32.171 32.131a2.867 2.867 0 01-2.856-.346c-1.074-.628-1.356-1.2-.565-1.65a2.808 2.808 0 012.849.346c1.047.61 1.362 1.198.572 1.65zm-3.842-2.241c-1.017.583-.715 1.319.626 2.1a3.631 3.631 0 003.635.386c.995-.57.678-1.338-.631-2.1a3.58 3.58 0 00-3.63-.38zm7.194.329a2.863 2.863 0 01-2.856-.348c-1.073-.626-1.356-1.195-.564-1.647a2.822 2.822 0 012.851.343c1.043.607 1.359 1.2.569 1.652zm-3.842-2.24c-1.017.58-.713 1.317.626 2.1a3.633 3.633 0 003.635.385c1-.57.678-1.338-.632-2.1a3.572 3.572 0 00-3.63-.384zm7.196.319a2.855 2.855 0 01-2.853-.347c-1.077-.626-1.356-1.2-.568-1.648a2.822 2.822 0 012.851.343c1.045.614 1.361 1.202.57 1.652zm-3.842-2.24c-1.016.581-.712 1.319.628 2.1a3.62 3.62 0 003.634.385c1-.569.679-1.337-.632-2.1a3.577 3.577 0 00-3.63-.381zm7.196.327a2.865 2.865 0 01-2.854-.347c-1.077-.629-1.356-1.2-.565-1.65a2.815 2.815 0 012.85.345c1.04.612 1.359 1.199.569 1.652zm-3.842-2.241c-1.017.581-.714 1.319.621 2.1a3.633 3.633 0 003.638.386c1-.569.679-1.337-.632-2.1a3.579 3.579 0 00-3.621-.386zm8.696-.539a2.858 2.858 0 01-2.854-.347c-1.074-.627-1.356-1.2-.565-1.648a2.816 2.816 0 012.848.343c1.046.613 1.362 1.206.571 1.652zm-3.842-2.24c-1.017.581-.714 1.319.625 2.1a3.623 3.623 0 003.635.385c1-.565.682-1.336-.63-2.1a3.58 3.58 0 00-3.624-.381zm7.199.329a2.868 2.868 0 01-2.856-.346c-1.073-.628-1.355-1.2-.565-1.65a2.81 2.81 0 012.85.346c1.046.605 1.362 1.198.571 1.65zm-3.842-2.241c-1.017.582-.713 1.319.625 2.1a3.634 3.634 0 003.637.386c1-.569.678-1.338-.632-2.1a3.583 3.583 0 00-3.63-.385zm7.195.326a2.862 2.862 0 01-2.855-.347c-1.073-.627-1.356-1.2-.564-1.648a2.821 2.821 0 012.851.344c1.043.605 1.358 1.199.568 1.651zm-3.842-2.24c-1.017.579-.714 1.317.626 2.1a3.623 3.623 0 003.633.386c1-.57.682-1.338-.63-2.1a3.569 3.569 0 00-3.629-.379zm7.192.323a2.857 2.857 0 01-2.853-.347c-1.078-.626-1.36-1.2-.568-1.648a2.821 2.821 0 012.851.343c1.045.612 1.361 1.2.57 1.652zm-3.842-2.24c-1.017.58-.712 1.317.626 2.1a3.621 3.621 0 003.635.385c1-.565.678-1.336-.631-2.1a3.594 3.594 0 00-3.63-.386zm8.696-.534a2.859 2.859 0 01-2.854-.346c-1.073-.627-1.356-1.2-.565-1.648a2.818 2.818 0 012.849.343c1.045.609 1.361 1.199.57 1.651zm-3.841-2.24c-1.017.58-.712 1.317.626 2.1a3.631 3.631 0 003.635.385c1-.57.678-1.338-.63-2.1a3.576 3.576 0 00-3.626-.385zm7.198.322a2.859 2.859 0 01-2.854-.349c-1.073-.626-1.355-1.2-.564-1.648a2.818 2.818 0 012.849.344c1.044.614 1.36 1.201.569 1.653zm-3.842-2.241c-1.018.581-.713 1.319.626 2.1a3.628 3.628 0 003.635.386c1-.57.679-1.337-.631-2.1a3.582 3.582 0 00-3.63-.379zm7.194.325a2.864 2.864 0 01-2.854-.346c-1.074-.629-1.356-1.2-.566-1.65a2.809 2.809 0 012.848.345c1.047.611 1.364 1.199.572 1.651zm-3.841-2.241c-1.018.582-.714 1.319.625 2.1a3.629 3.629 0 003.636.386c1-.57.679-1.338-.631-2.1a3.586 3.586 0 00-3.629-.383zm7.193.323a2.866 2.866 0 01-2.855-.347c-1.074-.627-1.356-1.2-.565-1.648a2.821 2.821 0 012.851.344c1.044.611 1.36 1.199.569 1.651zm-3.842-2.24c-1.017.581-.713 1.318.626 2.1a3.634 3.634 0 003.635.385c1-.569.679-1.338-.631-2.1a3.581 3.581 0 00-3.629-.382zm8.698-.533a2.862 2.862 0 01-2.854-.347c-1.079-.628-1.357-1.2-.569-1.65a2.814 2.814 0 012.85.343c1.047.614 1.366 1.202.573 1.654zm-3.842-2.24c-1.017.58-.714 1.317.625 2.1a3.632 3.632 0 003.636.387c.995-.57.677-1.338-.632-2.1a3.581 3.581 0 00-3.629-.379zm7.173.325a2.864 2.864 0 01-2.854-.346c-1.073-.627-1.356-1.2-.564-1.648a2.819 2.819 0 012.85.344c1.075.604 1.358 1.197.568 1.65zm-3.842-2.24c-1.017.581-.712 1.317.627 2.1a3.626 3.626 0 003.635.385c1-.57.678-1.338-.632-2.1a3.593 3.593 0 00-3.631-.386zm7.191.325a2.859 2.859 0 01-2.854-.348c-1.073-.626-1.356-1.195-.564-1.647a2.817 2.817 0 012.849.343c1.077.607 1.36 1.2.569 1.652zm-3.841-2.24c-1.017.581-.713 1.318.626 2.1a3.634 3.634 0 003.635.387c1-.571.678-1.338-.63-2.1a3.566 3.566 0 00-3.631-.386zm7.244.32a2.858 2.858 0 01-2.852-.346c-1.075-.627-1.357-1.2-.566-1.65a2.82 2.82 0 012.851.343c1.019.613 1.358 1.201.567 1.653zm-3.839-2.241c-1.016.58-.714 1.319.625 2.1a3.626 3.626 0 003.635.386c1-.569.678-1.337-.63-2.1-1.373-.782-2.615-.963-3.632-.381z"/><path class="k" d="M567.819 1677.857l11.145-6.434c2.648-1.529 2.316-4.2-.741-5.963l-9.661-5.579c-3.056-1.766-7.68-1.957-10.329-.428l-11.144 6.434c-2.647 1.529-2.316 4.2.741 5.963l9.662 5.577c3.056 1.764 7.677 1.956 10.327.43z"/><path class="l" d="M573.615 1672.571l2.791-1.612c1.666-.961 1.458-2.64-.465-3.751l-1.858-1.074a7.212 7.212 0 00-6.494-.268l-2.792 1.611c-1.665.961-1.456 2.639.465 3.749l1.861 1.074a7.206 7.206 0 006.492.271z"/><path d="M736.823 1659.106l1.177-.711-.157-.081z" fill="#2f2b27"/></g></svg>