<svg xmlns="http://www.w3.org/2000/svg" width="271" height="350"><defs><clipPath id="a"><path transform="translate(681 1476)" fill="#fff" stroke="#707070" d="M0 0h271v350H0z"/></clipPath><style>.c{fill:#bdc1c6}.d{fill:#dadce0}.e{fill:#e8eaed}.f{fill:#ff5833}.g{fill:#d4492a}.i{fill:#f1f3f4}</style></defs><g transform="translate(-681 -1476)" clip-path="url(#a)"><path class="c" d="M967.968 1890.509v-188.866l-199.093-.12v188.05c-.252 3.11 1.906 6.457 6.378 9.038l79.133 45.688c7.75 4.474 19.475 4.962 26.187 1.086l82.9-47.862c3.227-1.856 4.687-4.385 4.495-7.014z"/><path class="d" d="M967.966 1890.508v-187.127a1.847 1.847 0 00-1.846-1.849l-15.283-.01-82.421 36.418v210.02c4.54.109 8.925-.719 12.149-2.582l82.9-47.858c2.853-1.645 4.327-3.817 4.5-6.108v-.829c0-.026-.01-.048-.013-.074z"/><path class="e" d="M963.47 1708.54l-82.9 47.861c-6.711 3.875-18.437 3.388-26.186-1.083l-79.134-45.69c-7.749-4.475-8.591-11.245-1.88-15.118l82.895-47.86c6.712-3.875 18.437-3.388 26.187 1.083l79.133 45.69c7.75 4.476 8.592 11.242 1.881 15.117z"/><path class="c" d="M841.129 1728.266a.642.642 0 010 1.213 2.314 2.314 0 01-2.1 0 .642.642 0 010-1.213 2.331 2.331 0 012.1 0zm5.49-3.173a.639.639 0 010 1.212 2.314 2.314 0 01-2.1 0 .642.642 0 010-1.212 2.319 2.319 0 012.1 0zm5.5-3.171a.643.643 0 010 1.213 2.326 2.326 0 01-2.1 0 .643.643 0 010-1.213 2.321 2.321 0 012.1 0zm5.496-3.172a.643.643 0 010 1.213 2.317 2.317 0 01-2.1 0 .643.643 0 010-1.214 2.336 2.336 0 012.1.001zm-27.466 9.516a.642.642 0 010 1.213 2.315 2.315 0 01-2.1 0 .642.642 0 010-1.213 2.332 2.332 0 012.1 0zm5.488-3.173a.642.642 0 010 1.212 2.313 2.313 0 01-2.1 0 .643.643 0 010-1.212 2.319 2.319 0 012.1 0zm5.492-3.171a.643.643 0 010 1.213 2.324 2.324 0 01-2.1 0 .643.643 0 010-1.213 2.318 2.318 0 012.1 0zm5.49-3.172a.643.643 0 010 1.213 2.315 2.315 0 01-2.1 0 .643.643 0 010-1.213 2.332 2.332 0 012.1 0zm5.5-3.172a.639.639 0 010 1.212 2.318 2.318 0 01-2.1 0 .642.642 0 010-1.211 2.32 2.32 0 012.1 0zm-27.466 9.515a.643.643 0 010 1.212 2.317 2.317 0 01-2.1 0 .642.642 0 010-1.212 2.322 2.322 0 012.1 0zm5.496-3.171a.643.643 0 010 1.213 2.325 2.325 0 01-2.1 0 .643.643 0 010-1.213 2.32 2.32 0 012.1 0zm5.488-3.172a.642.642 0 010 1.213 2.313 2.313 0 01-2.1 0 .643.643 0 010-1.213 2.335 2.335 0 012.1 0zm5.492-3.172a.639.639 0 010 1.212 2.315 2.315 0 01-2.1 0 .639.639 0 010-1.212 2.319 2.319 0 012.1 0zm5.49-3.177a.643.643 0 010 1.213 2.322 2.322 0 01-2.1 0 .643.643 0 010-1.213 2.316 2.316 0 012.1 0zm-27.456 9.521a.642.642 0 010 1.213 2.325 2.325 0 01-2.1 0 .643.643 0 010-1.213 2.321 2.321 0 012.1 0zm5.487-3.172a.642.642 0 010 1.213 2.314 2.314 0 01-2.1 0 .643.643 0 010-1.213 2.333 2.333 0 012.1 0zm5.499-3.172a.639.639 0 010 1.212 2.316 2.316 0 01-2.1 0 .638.638 0 010-1.211 2.318 2.318 0 012.1 0zm5.488-3.177a.642.642 0 010 1.213 2.324 2.324 0 01-2.1 0 .642.642 0 010-1.213 2.316 2.316 0 012.1 0zm5.492-3.168a.643.643 0 010 1.213 2.321 2.321 0 01-2.1 0 .643.643 0 010-1.214 2.326 2.326 0 012.1 0zm-22.017 6.306a.643.643 0 010 1.214 2.318 2.318 0 01-2.1 0 .643.643 0 010-1.214 2.329 2.329 0 012.1 0zm5.49-3.171a.642.642 0 010 1.212 2.318 2.318 0 01-2.1 0 .643.643 0 010-1.213 2.318 2.318 0 012.1.001zm5.497-3.172a.642.642 0 010 1.214 2.331 2.331 0 01-2.1 0 .643.643 0 010-1.214 2.324 2.324 0 012.1 0zm30.917 6.423a2.311 2.311 0 012.1 0 .639.639 0 010 1.212 2.322 2.322 0 01-2.1 0 .643.643 0 010-1.216zm7.604-3.172a.643.643 0 010 1.214 2.333 2.333 0 01-2.1 0 .643.643 0 010-1.215 2.317 2.317 0 012.1 0zm5.492-3.173a.642.642 0 010 1.214 2.324 2.324 0 01-2.1 0 .643.643 0 010-1.214 2.332 2.332 0 012.1 0zm5.488-3.171a.639.639 0 010 1.212 2.32 2.32 0 01-2.1 0 .639.639 0 010-1.212 2.314 2.314 0 012.1 0zm5.499-3.171a.643.643 0 010 1.212 2.325 2.325 0 01-2.1 0 .643.643 0 010-1.212 2.32 2.32 0 012.1 0zm5.494-3.172a.643.643 0 010 1.214 2.325 2.325 0 01-2.1 0 .643.643 0 010-1.214 2.33 2.33 0 012.1 0zm5.491-3.17a.643.643 0 010 1.212 2.323 2.323 0 01-2.1 0 .643.643 0 010-1.212 2.321 2.321 0 012.1 0zm5.495-3.171a.643.643 0 010 1.212 2.321 2.321 0 01-2.1 0 .639.639 0 010-1.212 2.322 2.322 0 012.1 0zm5.5-3.177a.643.643 0 010 1.214 2.319 2.319 0 01-2.1 0 .643.643 0 010-1.213 2.317 2.317 0 012.1 0zm5.502-3.17a.643.643 0 010 1.214 2.322 2.322 0 01-2.1 0 .643.643 0 010-1.214 2.331 2.331 0 012.1 0zm5.475-3.17a.643.643 0 010 1.213 2.318 2.318 0 01-2.1 0 .643.643 0 010-1.213 2.32 2.32 0 012.1 0zm-62.536 28.543a2.326 2.326 0 012.1 0 .642.642 0 010 1.213 2.324 2.324 0 01-2.1 0 .643.643 0 010-1.213zm7.6-3.171a.642.642 0 010 1.214 2.318 2.318 0 01-2.1 0 .643.643 0 010-1.214 2.328 2.328 0 012.1 0zm5.5-3.171a.639.639 0 010 1.212 2.324 2.324 0 01-2.1 0 .643.643 0 010-1.212 2.315 2.315 0 012.1 0zm5.492-3.171a.643.643 0 010 1.212 2.326 2.326 0 01-2.1 0 .643.643 0 010-1.212 2.321 2.321 0 012.1 0zm5.488-3.172a.643.643 0 010 1.214 2.317 2.317 0 01-2.1 0 .642.642 0 010-1.213 2.322 2.322 0 012.1 0zm5.499-3.17a.643.643 0 010 1.212 2.324 2.324 0 01-2.1 0 .642.642 0 010-1.212 2.323 2.323 0 012.1 0zm5.494-3.171a.643.643 0 010 1.212 2.324 2.324 0 01-2.1 0 .639.639 0 010-1.212 2.321 2.321 0 012.1 0zm5.491-3.177a.643.643 0 010 1.214 2.322 2.322 0 01-2.1 0 .642.642 0 010-1.213 2.321 2.321 0 012.1-.001zm5.495-3.17a.643.643 0 010 1.214 2.321 2.321 0 01-2.1 0 .643.643 0 010-1.214 2.33 2.33 0 012.1 0zm5.5-3.17a.643.643 0 010 1.213 2.32 2.32 0 01-2.1 0 .643.643 0 010-1.213 2.319 2.319 0 012.1 0zm5.502-3.171a.642.642 0 010 1.214 2.332 2.332 0 01-2.1 0 .642.642 0 010-1.214 2.318 2.318 0 012.1 0zm-62.556 28.549a2.324 2.324 0 012.1 0 .643.643 0 010 1.214 2.319 2.319 0 01-2.1 0 .639.639 0 010-1.21zm7.604-3.177a.643.643 0 010 1.212 2.324 2.324 0 01-2.1 0 .643.643 0 010-1.212 2.318 2.318 0 012.1 0zm5.491-3.171a.643.643 0 010 1.212 2.325 2.325 0 01-2.1 0 .643.643 0 010-1.212 2.317 2.317 0 012.1 0zm5.5-3.172a.643.643 0 010 1.214 2.319 2.319 0 01-2.1 0 .643.643 0 010-1.213 2.328 2.328 0 012.1-.001zm5.492-3.17a.643.643 0 010 1.212 2.324 2.324 0 01-2.1 0 .643.643 0 010-1.212 2.323 2.323 0 012.1 0zm5.488-3.171a.639.639 0 010 1.212 2.315 2.315 0 01-2.1 0 .639.639 0 010-1.212 2.315 2.315 0 012.1 0zm5.499-3.177a.643.643 0 010 1.214 2.323 2.323 0 01-2.1 0 .643.643 0 010-1.213 2.321 2.321 0 012.1-.001zm5.494-3.166a.643.643 0 010 1.213 2.324 2.324 0 01-2.1 0 .642.642 0 010-1.213 2.323 2.323 0 012.1 0zm5.491-3.174a.643.643 0 010 1.213 2.327 2.327 0 01-2.1 0 .643.643 0 010-1.213 2.322 2.322 0 012.1 0zm5.495-3.171a.643.643 0 010 1.214 2.337 2.337 0 01-2.1 0 .643.643 0 010-1.214 2.323 2.323 0 012.1 0zm5.5-3.174a.643.643 0 010 1.215 2.318 2.318 0 01-2.1 0 .642.642 0 010-1.214 2.328 2.328 0 012.1 0zm-62.546 28.553a2.318 2.318 0 012.1 0 .643.643 0 010 1.212 2.32 2.32 0 01-2.1 0 .643.643 0 010-1.212zm7.6-3.178a.643.643 0 010 1.214 2.33 2.33 0 01-2.1 0 .643.643 0 010-1.214 2.311 2.311 0 012.1 0zm5.496-3.172a.643.643 0 010 1.214 2.321 2.321 0 01-2.1 0 .643.643 0 010-1.213 2.328 2.328 0 012.1-.001zm5.491-3.17a.643.643 0 010 1.212 2.324 2.324 0 01-2.1 0 .643.643 0 010-1.212 2.323 2.323 0 012.1 0zm5.5-3.171a.639.639 0 010 1.212 2.318 2.318 0 01-2.1 0 .643.643 0 010-1.212 2.317 2.317 0 012.1 0zm5.492-3.177a.643.643 0 010 1.214 2.323 2.323 0 01-2.1 0 .643.643 0 010-1.213 2.322 2.322 0 012.1-.001zm5.488-3.166a.643.643 0 010 1.213 2.316 2.316 0 01-2.1 0 .642.642 0 010-1.213 2.319 2.319 0 012.1 0zm5.499-3.174a.643.643 0 010 1.213 2.328 2.328 0 01-2.1 0 .643.643 0 010-1.213 2.321 2.321 0 012.1 0zm5.494-3.171a.643.643 0 010 1.214 2.337 2.337 0 01-2.1 0 .643.643 0 010-1.214 2.319 2.319 0 012.1 0zm5.491-3.174a.643.643 0 010 1.215 2.322 2.322 0 01-2.1 0 .643.643 0 010-1.215 2.331 2.331 0 012.1 0zm5.495-3.171a.643.643 0 010 1.212 2.321 2.321 0 01-2.1 0 .639.639 0 010-1.212zm-57.085 25.34a2.314 2.314 0 012.1 0 .642.642 0 010 1.213 2.331 2.331 0 01-2.1 0zm7.596-3.172a.643.643 0 010 1.214 2.318 2.318 0 01-2.1 0 .643.643 0 010-1.214 2.326 2.326 0 012.1 0zm5.492-3.168a.643.643 0 010 1.212 2.324 2.324 0 01-2.1 0 .642.642 0 010-1.211 2.322 2.322 0 012.1-.001zm5.494-3.173a.642.642 0 010 1.214 2.336 2.336 0 01-2.1 0 .643.643 0 010-1.214 2.317 2.317 0 012.1 0zm5.496-3.174a.643.643 0 010 1.215 2.321 2.321 0 01-2.1 0 .642.642 0 010-1.214 2.325 2.325 0 012.1-.001zm5.491-3.173a.642.642 0 010 1.214 2.324 2.324 0 01-2.1 0 .643.643 0 010-1.214 2.332 2.332 0 012.1 0zm5.495-3.169a.643.643 0 010 1.212 2.322 2.322 0 01-2.1 0 .639.639 0 010-1.212 2.313 2.313 0 012.1 0zm5.491-3.172a.643.643 0 010 1.214 2.321 2.321 0 01-2.1 0 .643.643 0 010-1.214 2.329 2.329 0 012.1 0zm5.495-3.177a.643.643 0 010 1.215 2.321 2.321 0 01-2.1 0 .642.642 0 010-1.214 2.336 2.336 0 012.1 0zm-40.557 15.865a2.321 2.321 0 012.1 0 .643.643 0 010 1.215 2.337 2.337 0 01-2.1 0zm5.492-3.174a2.331 2.331 0 012.1 0 .643.643 0 010 1.215 2.325 2.325 0 01-2.1 0 .643.643 0 010-1.214zm5.495-3.174a2.322 2.322 0 012.1 0 .642.642 0 010 1.215 2.33 2.33 0 01-2.1 0 .643.643 0 010-1.213zm5.498-3.168a2.311 2.311 0 012.1 0 .642.642 0 010 1.212 2.32 2.32 0 01-2.1 0 .639.639 0 010-1.212zm7.591-3.172a.643.643 0 010 1.214 2.319 2.319 0 01-2.1 0 .643.643 0 010-1.214 2.331 2.331 0 012.1 0zm5.495-3.177a.643.643 0 010 1.215 2.317 2.317 0 01-2.1 0 .642.642 0 010-1.214 2.331 2.331 0 012.1-.001z"/><path class="c" d="M846.628 1731.433a.643.643 0 010 1.213 2.319 2.319 0 01-2.1 0 .643.643 0 010-1.213 2.331 2.331 0 012.1 0zm5.488-3.17a.643.643 0 010 1.213 2.319 2.319 0 01-2.1 0 .643.643 0 010-1.213 2.32 2.32 0 012.1 0zm5.496-3.17a.643.643 0 010 1.213 2.328 2.328 0 01-2.1 0 .643.643 0 010-1.213 2.32 2.32 0 012.1 0zm5.496-3.175a.643.643 0 010 1.214 2.322 2.322 0 01-2.1 0 .643.643 0 010-1.214 2.335 2.335 0 012.1 0zm-27.472 9.515a.642.642 0 010 1.213 2.321 2.321 0 01-2.1 0 .643.643 0 010-1.213 2.331 2.331 0 012.1 0zm5.496-3.17a.643.643 0 010 1.213 2.321 2.321 0 01-2.1 0 .643.643 0 010-1.213 2.318 2.318 0 012.1 0zm5.496-3.17a.643.643 0 010 1.213 2.332 2.332 0 01-2.1 0 .643.643 0 010-1.213 2.323 2.323 0 012.1 0zm5.488-3.175a.643.643 0 010 1.214 2.318 2.318 0 01-2.1 0 .642.642 0 010-1.214 2.327 2.327 0 012.1 0zm5.496-3.168a.639.639 0 010 1.212 2.321 2.321 0 01-2.1 0 .643.643 0 010-1.212 2.318 2.318 0 012.1 0zm-27.467 9.513a.643.643 0 010 1.213 2.324 2.324 0 01-2.1 0 .643.643 0 010-1.213 2.321 2.321 0 012.1 0zm5.491-3.17a.643.643 0 010 1.213 2.33 2.33 0 01-2.1 0 .643.643 0 010-1.213 2.32 2.32 0 012.1 0zm5.496-3.175a.643.643 0 010 1.214 2.316 2.316 0 01-2.1 0 .643.643 0 010-1.214 2.327 2.327 0 012.1 0zm5.496-3.168a.639.639 0 010 1.212 2.32 2.32 0 01-2.1 0 .643.643 0 010-1.212 2.323 2.323 0 012.1 0zm5.488-3.173a.643.643 0 010 1.214 2.329 2.329 0 01-2.1 0 .643.643 0 010-1.214 2.322 2.322 0 012.1 0zm-27.461 9.516a.643.643 0 010 1.213 2.331 2.331 0 01-2.1 0 .642.642 0 010-1.213 2.322 2.322 0 012.1 0zm5.489-3.175a.643.643 0 010 1.214 2.318 2.318 0 01-2.1 0 .643.643 0 010-1.214 2.33 2.33 0 012.1 0zm5.492-3.168a.639.639 0 010 1.212 2.321 2.321 0 01-2.1 0 .643.643 0 010-1.212 2.318 2.318 0 012.1 0zm5.496-3.173a.643.643 0 010 1.214 2.327 2.327 0 01-2.1 0 .643.643 0 010-1.215 2.317 2.317 0 012.1.001zm5.496-3.171a.642.642 0 010 1.214 2.318 2.318 0 01-2.1 0 .643.643 0 010-1.215 2.338 2.338 0 012.1 0zm-22.023 6.307a.643.643 0 010 1.214 2.322 2.322 0 01-2.1 0 .642.642 0 010-1.215 2.331 2.331 0 012.1.001zm5.489-3.167a.639.639 0 010 1.212 2.319 2.319 0 01-2.1 0 .643.643 0 010-1.212 2.316 2.316 0 012.1 0zm5.497-3.179a.642.642 0 010 1.214 2.331 2.331 0 01-2.1 0 .643.643 0 010-1.214 2.32 2.32 0 012.1 0zm30.917 6.425a2.316 2.316 0 012.1 0 .643.643 0 010 1.213 2.324 2.324 0 01-2.1 0 .643.643 0 010-1.215zm7.6-3.173a.642.642 0 010 1.214 2.329 2.329 0 01-2.1 0 .643.643 0 010-1.214 2.323 2.323 0 012.1 0zm5.497-3.174a.643.643 0 010 1.214 2.318 2.318 0 01-2.1 0 .643.643 0 010-1.213 2.331 2.331 0 012.1-.001zm5.489-3.17a.639.639 0 010 1.211 2.319 2.319 0 01-2.1 0 .639.639 0 010-1.211 2.312 2.312 0 012.1 0zm5.498-3.172a.64.64 0 010 1.212 2.326 2.326 0 01-2.1 0 .639.639 0 010-1.211 2.321 2.321 0 012.1 0zm5.494-3.171a.643.643 0 010 1.213 2.316 2.316 0 01-2.1 0 .643.643 0 010-1.213 2.333 2.333 0 012.1 0zm5.49-3.171a.639.639 0 010 1.211 2.319 2.319 0 01-2.1 0 .643.643 0 010-1.211 2.315 2.315 0 012.1 0zm5.512-3.174a.642.642 0 010 1.211 2.315 2.315 0 01-2.1 0 .638.638 0 010-1.211 2.314 2.314 0 012.1 0zm5.477-3.171a.643.643 0 010 1.214 2.321 2.321 0 01-2.1 0 .643.643 0 010-1.214 2.312 2.312 0 012.1 0zm5.514-3.173a.642.642 0 010 1.213 2.324 2.324 0 01-2.1 0 .643.643 0 010-1.213 2.333 2.333 0 012.1 0zm5.476-3.167a.643.643 0 010 1.213 2.317 2.317 0 01-2.1 0 .643.643 0 010-1.213 2.318 2.318 0 012.1 0zm-62.542 28.542a2.327 2.327 0 012.1 0 .642.642 0 010 1.213 2.323 2.323 0 01-2.1 0 .643.643 0 010-1.214zm7.604-3.173a.643.643 0 010 1.214 2.319 2.319 0 01-2.1 0 .643.643 0 010-1.213 2.331 2.331 0 012.1-.001zm5.491-3.17a.639.639 0 010 1.211 2.322 2.322 0 01-2.1 0 .643.643 0 010-1.211 2.316 2.316 0 012.1 0zm5.497-3.172a.64.64 0 010 1.212 2.323 2.323 0 01-2.1 0 .639.639 0 010-1.211 2.319 2.319 0 012.1 0zm5.489-3.171a.643.643 0 010 1.213 2.311 2.311 0 01-2.1 0 .643.643 0 010-1.213 2.328 2.328 0 012.1 0zm5.498-3.171a.639.639 0 010 1.211 2.318 2.318 0 01-2.1 0 .639.639 0 010-1.212 2.318 2.318 0 012.1.001zm5.494-3.174a.642.642 0 010 1.211 2.318 2.318 0 01-2.1 0 .639.639 0 010-1.211 2.319 2.319 0 012.1 0zm5.49-3.171a.643.643 0 010 1.214 2.322 2.322 0 01-2.1 0 .643.643 0 010-1.214 2.319 2.319 0 012.1 0zm5.512-3.173a.642.642 0 010 1.213 2.318 2.318 0 01-2.1 0 .643.643 0 010-1.214 2.329 2.329 0 012.1 0zm5.477-3.167a.642.642 0 010 1.213 2.317 2.317 0 01-2.1 0 .639.639 0 010-1.212 2.317 2.317 0 012.1-.001zm5.514-3.175a.643.643 0 010 1.214 2.332 2.332 0 01-2.1 0 .643.643 0 010-1.215 2.321 2.321 0 012.1 0zm-62.561 28.545a2.326 2.326 0 012.1 0 .642.642 0 010 1.213 2.32 2.32 0 01-2.1 0 .643.643 0 010-1.212zm7.604-3.171a.64.64 0 010 1.212 2.32 2.32 0 01-2.1 0 .639.639 0 010-1.211 2.315 2.315 0 012.1-.001zm5.495-3.172a.643.643 0 010 1.212 2.324 2.324 0 01-2.1 0 .643.643 0 010-1.212 2.318 2.318 0 012.1 0zm5.491-3.171a.643.643 0 010 1.213 2.317 2.317 0 01-2.1 0 .643.643 0 010-1.213 2.333 2.333 0 012.1 0zm5.497-3.171a.639.639 0 010 1.211 2.317 2.317 0 01-2.1 0 .639.639 0 010-1.211 2.313 2.313 0 012.1 0zm5.489-3.174a.638.638 0 010 1.211 2.313 2.313 0 01-2.1 0 .639.639 0 010-1.211 2.312 2.312 0 012.1 0zm5.498-3.171a.643.643 0 010 1.214 2.324 2.324 0 01-2.1 0 .643.643 0 010-1.213 2.322 2.322 0 012.1 0zm5.494-3.169a.642.642 0 010 1.212 2.322 2.322 0 01-2.1 0 .639.639 0 010-1.212 2.321 2.321 0 012.1 0zm5.49-3.171a.643.643 0 010 1.213 2.322 2.322 0 01-2.1 0 .643.643 0 010-1.213 2.321 2.321 0 012.1 0zm5.512-3.175a.643.643 0 010 1.214 2.328 2.328 0 01-2.1 0 .643.643 0 010-1.214 2.322 2.322 0 012.1 0zm5.477-3.172a.642.642 0 010 1.214 2.317 2.317 0 01-2.1 0 .643.643 0 010-1.213 2.326 2.326 0 012.1 0zm-62.538 28.55a2.321 2.321 0 012.1 0 .639.639 0 010 1.211 2.321 2.321 0 01-2.1 0 .643.643 0 010-1.215zm7.601-3.176a.643.643 0 010 1.213 2.33 2.33 0 01-2.1 0 .643.643 0 010-1.213 2.316 2.316 0 012.1 0zm5.494-3.171a.643.643 0 010 1.213 2.313 2.313 0 01-2.1 0 .643.643 0 010-1.214 2.328 2.328 0 012.1 0zm5.495-3.171a.643.643 0 010 1.211 2.318 2.318 0 01-2.1 0 .639.639 0 010-1.211 2.316 2.316 0 012.1 0zm5.491-3.174a.639.639 0 010 1.211 2.316 2.316 0 01-2.1 0 .642.642 0 010-1.211 2.316 2.316 0 012.1 0zm5.497-3.171a.643.643 0 010 1.214 2.325 2.325 0 01-2.1 0 .643.643 0 010-1.214 2.319 2.319 0 012.1 0zm5.489-3.169a.639.639 0 010 1.212 2.317 2.317 0 01-2.1 0 .639.639 0 010-1.212 2.317 2.317 0 012.1 0zm5.498-3.171a.643.643 0 010 1.213 2.324 2.324 0 01-2.1 0 .642.642 0 010-1.213 2.323 2.323 0 012.1 0zm5.494-3.175a.643.643 0 010 1.214 2.334 2.334 0 01-2.1 0 .643.643 0 010-1.215 2.322 2.322 0 012.1 0zm5.49-3.172a.642.642 0 010 1.214 2.322 2.322 0 01-2.1 0 .643.643 0 010-1.214 2.332 2.332 0 012.1 0zm5.512-3.171a.639.639 0 010 1.211 2.321 2.321 0 01-2.1 0 .638.638 0 010-1.211zm-57.107 25.34a2.32 2.32 0 012.1 0 .642.642 0 010 1.213 2.336 2.336 0 01-2.1 0zm7.601-3.173a.643.643 0 010 1.213 2.321 2.321 0 01-2.1 0 .643.643 0 010-1.213 2.327 2.327 0 012.1 0zm5.493-3.168a.643.643 0 010 1.213 2.324 2.324 0 01-2.1 0 .643.643 0 010-1.213 2.32 2.32 0 012.1 0zm5.495-3.172a.643.643 0 010 1.213 2.328 2.328 0 01-2.1 0 .643.643 0 010-1.213 2.32 2.32 0 012.1 0zm5.494-3.174a.642.642 0 010 1.214 2.317 2.317 0 01-2.1 0 .643.643 0 010-1.214 2.325 2.325 0 012.1 0zm5.491-3.173a.643.643 0 010 1.214 2.319 2.319 0 01-2.1 0 .643.643 0 010-1.214 2.328 2.328 0 012.1 0zm5.495-3.17a.639.639 0 010 1.211 2.316 2.316 0 01-2.1 0 .638.638 0 010-1.211 2.314 2.314 0 012.1 0zm5.494-3.174a.643.643 0 010 1.213 2.321 2.321 0 01-2.1 0 .643.643 0 010-1.213 2.324 2.324 0 012.1 0zm5.493-3.17a.642.642 0 010 1.214 2.315 2.315 0 01-2.1 0 .643.643 0 010-1.214 2.331 2.331 0 012.1 0zm-40.556 15.861a2.321 2.321 0 012.1 0 .643.643 0 010 1.213 2.331 2.331 0 01-2.1 0zm5.492-3.174a2.333 2.333 0 012.1 0 .642.642 0 010 1.214 2.323 2.323 0 01-2.1 0 .643.643 0 010-1.214zm5.494-3.169a2.325 2.325 0 012.1 0 .642.642 0 010 1.213 2.321 2.321 0 01-2.1 0 .639.639 0 010-1.211zm5.495-3.174a2.314 2.314 0 012.1 0 .639.639 0 010 1.211 2.318 2.318 0 01-2.1 0 .639.639 0 010-1.211zm7.593-3.174a.643.643 0 010 1.213 2.317 2.317 0 01-2.1 0 .643.643 0 010-1.213 2.323 2.323 0 012.1 0zm5.495-3.17a.643.643 0 010 1.214 2.317 2.317 0 01-2.1 0 .643.643 0 010-1.213 2.326 2.326 0 012.1-.001z"/><path class="e" d="M917.937 1627.747l4.54 2.617v7.863l-4.54-2.621z"/><path class="f" d="M914.459 1608.787l-14.678 8.475v-16.949a2.593 2.593 0 00-1.135-2.052 2.234 2.234 0 00-1.078-.26h-.04a2.548 2.548 0 00-1.227.3l-72.609 41.922c-2.8 1.619-4.21 3.743-4.21 5.865v70.762c0 2.124 1.4 4.247 4.21 5.867l.1.058c5.612 3.241 14.712 3.241 20.327 0l72.608-41.921a2.683 2.683 0 001.21-2.1v-69.368l-1.136-.656a2.593 2.593 0 00-2.342.057z"/><path class="g" d="M823.69 1651.959c-5.588-3.227-5.588-8.507 0-11.734l72.609-41.922a2.551 2.551 0 011.227-.3h.04a2.237 2.237 0 011.078.259c.626.362.593.967-.075 1.354l-70.583 40.75a27.63 27.63 0 00-2.375 1.465c-3.277 2.459-3.574 5.74-.751 8.061a11.594 11.594 0 002.4 1.406 19.1 19.1 0 0014.158-.424c.7-.317 1.785-.948 2.454-1.334l70.582-40.75a2.6 2.6 0 012.345-.044c.627.362.592.968-.075 1.354l-72.61 41.921c-5.589 3.227-14.735 3.227-20.324 0z"/><path class="e" d="M821.868 1656.184a.273.273 0 01-.18-.068 9.021 9.021 0 01-.993-1 .274.274 0 11.42-.35 8.352 8.352 0 00.93.94.269.269 0 01.094.188.273.273 0 01-.067.2.268.268 0 01-.2.094zm85.553-35.215a.274.274 0 01-.136-.511l2.391-1.38a.274.274 0 01.274.475l-2.391 1.38zm-4.778 2.76a.273.273 0 01-.136-.51l2.389-1.38a.274.274 0 01.273.475l-2.389 1.379zm-4.78 2.76a.274.274 0 01-.136-.511l2.39-1.379a.273.273 0 01.273.473l-2.389 1.38zm-4.779 2.759a.274.274 0 01-.136-.51l2.389-1.38a.274.274 0 11.273.474l-2.389 1.38zm-4.779 2.76a.274.274 0 01-.137-.511l2.39-1.38a.274.274 0 01.273.475l-2.389 1.379zm-4.78 2.759a.269.269 0 01-.236-.136.275.275 0 01.1-.374l2.39-1.379a.274.274 0 01.274.475l-2.39 1.379zm-4.779 2.761a.274.274 0 01-.137-.511l2.39-1.38a.274.274 0 01.275.475l-2.391 1.38zm-4.78 2.759a.274.274 0 01-.137-.511l2.39-1.38a.274.274 0 01.273.475l-2.39 1.379zm-4.78 2.76a.274.274 0 01-.137-.51l2.389-1.38a.274.274 0 11.274.475l-2.39 1.379zm-4.778 2.759a.274.274 0 01-.138-.51l2.39-1.379a.274.274 0 01.274.474l-2.39 1.38zm-4.78 2.76a.273.273 0 01-.137-.511l2.39-1.379a.277.277 0 01.281-.007.274.274 0 01-.007.481l-2.39 1.379zm-4.78 2.76a.275.275 0 01-.136-.511l2.39-1.379a.274.274 0 01.272.475l-2.389 1.379zm-4.778 2.759a.274.274 0 01-.138-.51l2.39-1.379a.274.274 0 11.274.474l-2.39 1.38zm-4.78 2.76a.27.27 0 01-.237-.137.273.273 0 01.1-.374l2.391-1.38a.274.274 0 01.274.474l-2.39 1.379zm-18.613 1.97l-.086-.014a16.656 16.656 0 01-2.574-1.11.273.273 0 01.259-.481 16.185 16.185 0 002.489 1.073.273.273 0 01-.087.532zm13.6.295a.274.274 0 01-.073-.537 17.759 17.759 0 002.55-.93.275.275 0 11.228.5 18.462 18.462 0 01-2.629.958zm-8.2.773h-.021a24.023 24.023 0 01-2.765-.37.273.273 0 11.1-.537 23.709 23.709 0 002.7.362.273.273 0 01-.021.546zm2.758.056a.274.274 0 11-.01-.547 23.938 23.938 0 002.716-.249.274.274 0 11.081.541 24.463 24.463 0 01-2.778.255zm78.59-41.049a.277.277 0 01-.194-.081.27.27 0 01-.08-.194v-.893l-.774.446a.274.274 0 01-.274-.474l1.186-.685a.273.273 0 01.409.238v1.368a.273.273 0 01-.273.273zm-.028 5.484a.272.272 0 01-.274-.273v-2.74a.274.274 0 11.548 0v2.739a.273.273 0 01-.273.275zm0 5.483a.274.274 0 01-.273-.274v-2.74a.274.274 0 11.548 0v2.74a.273.273 0 01-.273.271zm0 5.481a.272.272 0 01-.274-.274v-2.74a.274.274 0 11.548 0v2.74a.269.269 0 01-.079.194.274.274 0 01-.194.08zm0 5.481a.274.274 0 01-.195-.08.271.271 0 01-.08-.194v-2.74a.274.274 0 11.548 0v2.74a.272.272 0 01-.273.271zm0 5.481a.273.273 0 01-.274-.272v-2.741a.274.274 0 11.548 0v2.741a.272.272 0 01-.273.268zm0 5.483a.274.274 0 01-.274-.274v-2.741a.274.274 0 11.548 0v2.741a.273.273 0 01-.273.272zm0 5.481a.274.274 0 01-.274-.274v-2.74a.274.274 0 11.548 0v2.741a.273.273 0 01-.273.27zm0 5.481a.274.274 0 01-.273-.274v-2.74a.274.274 0 11.548 0v2.74a.273.273 0 01-.273.274zm0 5.481a.273.273 0 01-.274-.273v-2.74a.274.274 0 11.548 0v2.735a.273.273 0 01-.273.271zm0 5.481a.273.273 0 01-.274-.273v-2.741a.274.274 0 11.548 0v2.741a.269.269 0 01-.079.195.274.274 0 01-.194.08z"/><path d="M912.209 1678.498a.273.273 0 01-.137-.51l1.048-.606v-1.21a.274.274 0 01.548 0v1.369a.27.27 0 01-.136.234l-1.186.684z" fill="#f4f4f4"/><path class="e" d="M907.427 1681.258a.274.274 0 01-.137-.51l2.39-1.381a.274.274 0 01.273.475l-2.389 1.38zm-4.78 2.759a.274.274 0 01-.136-.511l2.39-1.379a.274.274 0 11.273.474l-2.389 1.379zm-4.779 2.76a.274.274 0 01-.137-.511l2.39-1.379a.273.273 0 01.273.474l-2.39 1.38zm-4.779 2.759a.273.273 0 01-.137-.51l2.39-1.379a.274.274 0 11.273.474l-2.39 1.38zm-4.779 2.76a.274.274 0 01-.137-.51l2.39-1.38a.274.274 0 11.273.474l-2.39 1.38zm-4.779 2.76a.274.274 0 01-.137-.511l2.389-1.379a.274.274 0 11.273.474l-2.388 1.38zm-4.78 2.76a.274.274 0 01-.137-.511l2.39-1.38a.274.274 0 01.274.474l-2.391 1.38zm-4.78 2.759a.274.274 0 01-.136-.51l2.389-1.379a.273.273 0 11.273.474l-2.39 1.38zm-4.78 2.76a.273.273 0 01-.137-.51l2.39-1.38a.274.274 0 01.274.474l-2.39 1.379zm-4.779 2.759a.273.273 0 01-.137-.51l2.392-1.38a.273.273 0 01.273.473l-2.391 1.38zm-4.779 2.759a.273.273 0 01-.137-.509l2.39-1.38a.274.274 0 11.273.474l-2.389 1.379zm-4.78 2.76a.273.273 0 01-.135-.51l2.389-1.382a.274.274 0 01.273.475l-2.39 1.379zm-4.778 2.759a.273.273 0 01-.138-.51l2.391-1.38a.274.274 0 01.274.475l-2.391 1.379zm-4.78 2.76a.274.274 0 01-.138-.511l2.39-1.38a.274.274 0 01.273.475l-2.39 1.38zm-18.613 1.975l-.087-.014a16.816 16.816 0 01-2.574-1.11.274.274 0 01.26-.483 16.113 16.113 0 002.489 1.073.274.274 0 01-.088.534zm13.6.292a.274.274 0 01-.074-.537 17.634 17.634 0 002.55-.931.275.275 0 01.229.5 18.316 18.316 0 01-2.629.96zm-8.2.776h-.021a23.917 23.917 0 01-2.766-.369.274.274 0 11.1-.537 23.393 23.393 0 002.7.36.274.274 0 01-.019.547zm2.757.055a.274.274 0 01-.009-.547 23.94 23.94 0 002.715-.25.273.273 0 11.081.54 24.473 24.473 0 01-2.777.257zm-12.971-3.758a.269.269 0 01-.179-.067 9.153 9.153 0 01-.993-1 .274.274 0 11.42-.351 8.249 8.249 0 00.929.941.274.274 0 01-.18.481z"/><path class="d" d="M899.78 1613.524v-8.249a2.14 2.14 0 00-.967-1.677l-.335-.193a2.141 2.141 0 00-1.935 0l-73.589 42.488a4.578 4.578 0 001.909 3.994 11.476 11.476 0 002.4 1.408 17.14 17.14 0 007.039 1.15l64.509-37.245a2.137 2.137 0 00.966-1.676z"/><path class="i" d="M896.54 1603.402l-73.589 42.488a4.006 4.006 0 00.495 2.336l75.365-43.511a.591.591 0 000-1.119l-.334-.193a2.142 2.142 0 00-1.937-.001z"/><path class="d" d="M904.318 1614.639v-6.745a2.137 2.137 0 00-.968-1.676l-.334-.194a2.142 2.142 0 00-1.936 0l-76.112 43.944a11.789 11.789 0 002.3 1.324 19.109 19.109 0 0014.159-.425c.705-.318 1.783-.944 2.453-1.329z"/><path class="i" d="M901.082 1606.022l-76.116 43.949a11.872 11.872 0 002.267 1.311l76.116-43.945a.59.59 0 000-1.117l-.335-.194a2.136 2.136 0 00-1.932 0z"/><path class="d" d="M908.856 1612.016v-1.5a2.138 2.138 0 00-.968-1.676l-.334-.194a2.139 2.139 0 00-1.936 0l-75.367 43.516a19.751 19.751 0 0011.171-1.29c.7-.318 1.782-.944 2.453-1.329z"/><path class="i" d="M905.623 1608.646l-75.367 43.516a19.246 19.246 0 004.045.285l73.591-42.489a.589.589 0 000-1.117l-.333-.193a2.138 2.138 0 00-1.936 0z"/><path class="g" d="M927.016 1634.108v16.109a2.153 2.153 0 01-.965 1.678l-29.392 16.969-.058.028c-2.22 1.268-4.237 1.433-5.712.671a62.599 62.599 0 01-2.59-1.505c-1.331-.862-2.142-2.559-2.142-4.937 0-4.906 3.454-10.908 7.794-13.663l.005-.006 27.547-15.9a1.491 1.491 0 00.146-.1c.386-.307.334-.738-.146-1.017l-3.569-2.062v-2.623l8.113 4.682a2.16 2.16 0 01.949 1.487 1.016 1.016 0 01.02.192z"/><path class="f" d="M927.018 1634.111v16.1a2.152 2.152 0 01-.967 1.678l-29.391 16.97-.058.028c-2.9 1.655-5.442 1.43-6.893-.274a6.345 6.345 0 01-1.28-4.179c0-5.069 3.688-11.3 8.231-13.926l28.089-16.215 1.3-.75c.475-.279.872-.111.949.369a1.027 1.027 0 01.02.199z"/><path class="c" d="M895.237 1660.508c0 2.171 1.524 3.051 3.405 1.965a7.525 7.525 0 003.4-5.9c0-2.17-1.524-3.051-3.4-1.965a7.523 7.523 0 00-3.406 5.9z"/><path class="c" d="M902.162 1655.017l-1.008-.576-4.923 8.271 1.157.667z"/><path class="e" d="M896.373 1661.159c0 2.17 1.524 3.052 3.4 1.965a7.519 7.519 0 003.4-5.9c0-2.171-1.524-3.051-3.4-1.966a7.526 7.526 0 00-3.4 5.901z"/></g></svg>