<svg xmlns="http://www.w3.org/2000/svg" width="271" height="350"><defs><clipPath id="a"><path transform="translate(140 1476)" fill="#fff" stroke="#707070" d="M0 0h271v350H0z"/></clipPath><style>.c{fill:#bdc1c6}.f{fill:#2f2b27}.g{fill:#2950af}.h{fill:#5786ed}.i{fill:#08243b}.k{fill:#ff5833}.l{fill:#d4492a}</style></defs><g transform="translate(-140 -1476)" clip-path="url(#a)"><path class="c" d="M458.315 1995.885V1721.07l-291.275-.178v273.627c-.369 4.551 2.787 9.442 9.327 13.221l115.775 66.844c11.337 6.546 28.489 7.255 38.309 1.59l121.278-70.02c4.761-2.728 6.894-6.431 6.586-10.269z"/><path d="M458.333 1995.885l.006-272.272a2.705 2.705 0 00-2.7-2.707l-22.361-.014-120.582 53.282v305.764c6.647.162 13.063-1.052 17.778-3.775l121.279-70.02c4.169-2.4 6.328-5.58 6.582-8.932v-1.216c0-.034-.012-.07-.014-.105z" fill="#dadce0"/><path d="M451.732 1731.154l-121.275 70.02c-9.821 5.668-26.971 4.959-38.31-1.588l-115.766-66.843c-11.336-6.546-12.569-16.449-2.753-22.119l121.279-70.018c9.82-5.67 26.97-4.958 38.309 1.59l115.775 66.841c11.348 6.549 12.589 16.451 2.741 22.117z" fill="#e8eaed"/><path class="c" d="M351.797 1764.821a.585.585 0 000 1.108 2.117 2.117 0 001.917 0 .584.584 0 000-1.108 2.108 2.108 0 00-1.917 0zm-5.018-2.899a.585.585 0 000 1.11 2.118 2.118 0 001.918 0 .585.585 0 000-1.11 2.124 2.124 0 00-1.918 0zm-5.022-2.898a.585.585 0 000 1.108 2.115 2.115 0 001.92 0 .584.584 0 000-1.107 2.125 2.125 0 00-1.92 0zm-3.09-2.901a2.118 2.118 0 00-1.92 0 .585.585 0 000 1.109 2.127 2.127 0 001.92 0 .585.585 0 000-1.109zm-5.023-2.899a2.127 2.127 0 00-1.92 0 .586.586 0 000 1.11 2.124 2.124 0 001.92 0 .586.586 0 000-1.11zm-5.021-2.898a2.12 2.12 0 00-1.919 0 .585.585 0 000 1.109 2.122 2.122 0 001.919 0 .586.586 0 000-1.109zm-5.014-2.899a2.118 2.118 0 00-1.92 0 .585.585 0 000 1.109 2.133 2.133 0 001.921 0 .585.585 0 00-.001-1.109zm-6.958-2.9a.586.586 0 000 1.109 2.122 2.122 0 001.92 0z"/><path class="f" d="M311.631 1741.63a.586.586 0 000 1.109 2.125 2.125 0 001.921 0zm-4.995-2.9a.586.586 0 000 1.109 2.133 2.133 0 001.921 0z"/><path class="c" d="M303.522 1735.829a2.13 2.13 0 00-1.921 0 .585.585 0 000 1.109 2.116 2.116 0 001.921 0 .586.586 0 000-1.109zm53.293 26.092a.586.586 0 000 1.11 2.126 2.126 0 001.922 0 .586.586 0 000-1.11 2.133 2.133 0 00-1.922 0zm-5.018-2.897a.584.584 0 000 1.108 2.11 2.11 0 001.918 0 .584.584 0 000-1.108 2.121 2.121 0 00-1.918 0zm-5.018-2.901a.585.585 0 000 1.109 2.126 2.126 0 001.919 0 .585.585 0 000-1.109 2.115 2.115 0 00-1.919 0zm25.11 8.698a.585.585 0 000 1.108 2.126 2.126 0 001.921 0 .584.584 0 000-1.108 2.117 2.117 0 00-1.921 0zm-5.031-2.9a.587.587 0 000 1.11 2.125 2.125 0 001.92 0 .585.585 0 000-1.11 2.128 2.128 0 00-1.92 0zm-5.02-2.897a.584.584 0 000 1.108 2.113 2.113 0 001.919 0 .585.585 0 000-1.108 2.124 2.124 0 00-1.92 0zm-5.023-2.901a.586.586 0 000 1.109 2.133 2.133 0 001.922 0 .586.586 0 000-1.109 2.123 2.123 0 00-1.922 0zm-5.005-1.789a2.124 2.124 0 001.921 0 .586.586 0 000-1.109zm30.114 10.487a.585.585 0 000 1.108 2.125 2.125 0 001.921 0 .584.584 0 000-1.108 2.115 2.115 0 00-1.921 0zm-5.014-2.899a.586.586 0 000 1.11 2.119 2.119 0 001.919 0 .586.586 0 000-1.11 2.125 2.125 0 00-1.918 0zm-5.021-2.898a.585.585 0 000 1.108 2.117 2.117 0 001.921 0 .584.584 0 000-1.108 2.126 2.126 0 00-1.921 0zm-5.031-2.901a.586.586 0 000 1.109 2.129 2.129 0 001.92 0 .585.585 0 000-1.109 2.118 2.118 0 00-1.92 0zm-5.02-2.899a.586.586 0 000 1.11 2.123 2.123 0 001.92 0 .586.586 0 000-1.11 2.127 2.127 0 00-1.92 0z"/><path class="f" d="M356.834 1751.435a2.126 2.126 0 001.922 0 .586.586 0 000-1.109 2.127 2.127 0 00-1.922 0z"/><path class="c" d="M386.948 1761.922a.586.586 0 000 1.11 2.118 2.118 0 001.918 0 .586.586 0 000-1.11 2.127 2.127 0 00-1.919 0zm-5.024-2.898a.585.585 0 000 1.108 2.115 2.115 0 001.92 0 .584.584 0 000-1.108 2.125 2.125 0 00-1.92 0zm-5.014-2.901a.586.586 0 000 1.109 2.127 2.127 0 001.919 0 .586.586 0 000-1.109 2.116 2.116 0 00-1.919 0zm-3.083-2.899a2.131 2.131 0 00-1.922 0 .586.586 0 000 1.11 2.124 2.124 0 001.921 0 .586.586 0 00.001-1.11z"/><path class="f" d="M368.796 1750.327a2.122 2.122 0 00-1.92 0 .586.586 0 000 1.109 2.126 2.126 0 001.92 0 .585.585 0 000-1.109zm-6.958-2.9a.586.586 0 000 1.109 2.127 2.127 0 001.919 0 .586.586 0 000-1.109z"/><path class="c" d="M392.015 1758.993a.585.585 0 000 1.108 2.126 2.126 0 001.921 0 .584.584 0 000-1.108 2.118 2.118 0 00-1.922 0zm-5.018-2.901a.585.585 0 000 1.108 2.119 2.119 0 001.92 0 .585.585 0 000-1.108 2.119 2.119 0 00-1.92 0zm-5.013-1.788a2.122 2.122 0 001.919 0 .585.585 0 000-1.108zm15.05 1.788a.586.586 0 000 1.109 2.133 2.133 0 001.922 0 .586.586 0 000-1.109 2.121 2.121 0 00-1.921 0zm-5.019-2.902a.586.586 0 000 1.109 2.132 2.132 0 001.922 0 .585.585 0 000-1.109 2.126 2.126 0 00-1.922 0z"/><path class="f" d="M387.01 1751.404a2.115 2.115 0 001.918 0 .586.586 0 000-1.109z"/><path class="c" d="M402.058 1753.19a.585.585 0 000 1.109 2.132 2.132 0 001.922 0 .586.586 0 000-1.109 2.127 2.127 0 00-1.922 0zm-5.024-2.897a.586.586 0 000 1.109 2.117 2.117 0 001.921 0 .586.586 0 000-1.109 2.136 2.136 0 00-1.921 0zm-5.003-1.787a2.127 2.127 0 001.921 0 .584.584 0 000-1.108zm10.027-1.11a.585.585 0 000 1.108 2.132 2.132 0 001.922 0 .585.585 0 000-1.108 2.119 2.119 0 00-1.923 0zm-70.541 22.758a.584.584 0 000 1.108 2.122 2.122 0 001.921 0 .585.585 0 000-1.108 2.122 2.122 0 00-1.921 0zm-5.022-2.898a.586.586 0 000 1.109 2.13 2.13 0 001.92 0 .585.585 0 000-1.109 2.119 2.119 0 00-1.92 0zm-5.021-2.9a.585.585 0 000 1.108 2.12 2.12 0 001.92 0 .584.584 0 000-1.108 2.129 2.129 0 00-1.92 0zm-5.022-2.897a.585.585 0 000 1.108 2.121 2.121 0 001.921 0 .585.585 0 000-1.107 2.12 2.12 0 00-1.92 0zm-5.023-1.791a2.131 2.131 0 001.922 0 .585.585 0 000-1.108 2.117 2.117 0 00-1.921 0 .585.585 0 00-.001 1.108zm-5.018-4.01a.586.586 0 000 1.11 2.116 2.116 0 001.919 0 .586.586 0 000-1.11 2.129 2.129 0 00-1.919 0zm-5.024-2.897a.583.583 0 000 1.106 2.111 2.111 0 001.919 0 .583.583 0 000-1.107 2.111 2.111 0 00-1.919.001zm-5.02-2.9a.587.587 0 000 1.111 2.133 2.133 0 001.92 0 .586.586 0 000-1.111 2.124 2.124 0 00-1.92 0zm-5.022-2.9a.586.586 0 000 1.109 2.124 2.124 0 001.92 0 .585.585 0 000-1.109 2.128 2.128 0 00-1.921 0zm-4.987-2.899a.585.585 0 000 1.108 2.121 2.121 0 001.921 0 .584.584 0 000-1.108 2.122 2.122 0 00-1.921 0zm55.204 26.091a.585.585 0 000 1.108 2.123 2.123 0 001.92 0 .586.586 0 000-1.109 2.118 2.118 0 00-1.92 0zm-5.019-2.897a.586.586 0 000 1.109 2.132 2.132 0 001.922 0 .586.586 0 000-1.109 2.122 2.122 0 00-1.921 0zm-5.026-2.9a.585.585 0 000 1.108 2.123 2.123 0 001.921 0 .585.585 0 000-1.108 2.133 2.133 0 00-1.921 0zm-5.022-2.897a.584.584 0 000 1.108 2.119 2.119 0 001.92 0 .585.585 0 000-1.108 2.119 2.119 0 00-1.92 0zm-4.989-2.9a.586.586 0 000 1.108 2.135 2.135 0 001.922 0 .585.585 0 000-1.108 2.117 2.117 0 00-1.922 0zm-5.054-2.901a.586.586 0 000 1.11 2.12 2.12 0 001.921 0 .587.587 0 000-1.11 2.134 2.134 0 00-1.921 0zm-5.023-2.897a.584.584 0 000 1.106 2.118 2.118 0 001.921 0 .584.584 0 000-1.106 2.116 2.116 0 00-1.921 0zm-5.018-2.9a.587.587 0 000 1.111 2.129 2.129 0 001.918 0 .586.586 0 000-1.111 2.121 2.121 0 00-1.918 0zm-5.024-2.9a.585.585 0 000 1.109 2.119 2.119 0 001.918 0 .585.585 0 000-1.109 2.126 2.126 0 00-1.918 0zm-5.02-2.899a.584.584 0 000 1.108 2.119 2.119 0 001.92 0 .584.584 0 000-1.108 2.119 2.119 0 00-1.92 0zm-5.022-2.899a.585.585 0 000 1.109 2.128 2.128 0 001.92 0 .586.586 0 000-1.109 2.119 2.119 0 00-1.92 0zm55.239 26.093a.585.585 0 000 1.109 2.128 2.128 0 001.921 0 .586.586 0 000-1.109 2.121 2.121 0 00-1.921 0zm-5.022-2.9a.585.585 0 000 1.108 2.121 2.121 0 001.921 0 .586.586 0 000-1.108 2.129 2.129 0 00-1.921 0zm-5.019-2.897a.584.584 0 000 1.108 2.122 2.122 0 001.922 0 .584.584 0 000-1.107 2.122 2.122 0 00-1.921 0zm-5.026-2.9a.585.585 0 000 1.108 2.132 2.132 0 001.921 0 .585.585 0 000-1.108 2.117 2.117 0 00-1.921 0zm-5.022-2.901a.586.586 0 000 1.11 2.119 2.119 0 001.92 0 .587.587 0 000-1.11 2.133 2.133 0 00-1.92 0zm-4.989-2.897a.585.585 0 000 1.106 2.12 2.12 0 001.922 0 .583.583 0 000-1.106 2.117 2.117 0 00-1.922 0zm-5.054-2.9a.587.587 0 000 1.111 2.133 2.133 0 001.921 0 .588.588 0 000-1.111 2.125 2.125 0 00-1.92 0zm-5.017-2.9a.585.585 0 000 1.109 2.123 2.123 0 001.92 0 .585.585 0 000-1.109 2.126 2.126 0 00-1.92 0zm-5.024-2.899a.584.584 0 000 1.108 2.115 2.115 0 001.919 0 .584.584 0 000-1.108 2.114 2.114 0 00-1.919 0zm-5.024-2.899a.585.585 0 000 1.109 2.122 2.122 0 001.919 0 .585.585 0 000-1.109 2.116 2.116 0 00-1.919 0zm-5.02-2.9a.586.586 0 000 1.109 2.12 2.12 0 001.92 0 .585.585 0 000-1.11 2.127 2.127 0 00-1.92.001zm2.131-5.347a2.117 2.117 0 00-1.919 0 .585.585 0 000 1.108 2.116 2.116 0 001.919 0 .585.585 0 000-1.108zm-5.012-2.9a2.121 2.121 0 00-1.921 0 .586.586 0 000 1.11 2.133 2.133 0 001.921 0 .586.586 0 000-1.11zm-5.024-2.9a2.129 2.129 0 00-1.922 0 .585.585 0 000 1.109 2.123 2.123 0 001.922 0 .585.585 0 000-1.109zm-5.032-2.897a2.121 2.121 0 00-1.92 0 .585.585 0 000 1.108 2.115 2.115 0 001.921 0 .585.585 0 00-.001-1.108zm-5.012-2.901a2.123 2.123 0 00-1.92 0 .586.586 0 000 1.109 2.13 2.13 0 001.92 0 .585.585 0 000-1.109zm-6.957-2.901a.586.586 0 000 1.109 2.119 2.119 0 001.919 0 .586.586 0 000-1.109 2.127 2.127 0 00-1.919 0zm-5.019-2.898a.585.585 0 000 1.108 2.124 2.124 0 001.921 0 .585.585 0 000-1.108 2.121 2.121 0 00-1.921 0zm-4.995-2.898a.585.585 0 000 1.108 2.124 2.124 0 001.922 0 .584.584 0 000-1.108 2.118 2.118 0 00-1.921 0zm-5.046-2.905a.585.585 0 000 1.109 2.114 2.114 0 001.919 0 .586.586 0 000-1.109 2.118 2.118 0 00-1.919 0zm-5.033-2.89a.585.585 0 000 1.108 2.123 2.123 0 001.922 0 .584.584 0 000-1.108 2.121 2.121 0 00-1.921 0zm-3.082-2.904a2.115 2.115 0 00-1.919 0 .584.584 0 000 1.108 2.112 2.112 0 001.919 0 .584.584 0 000-1.108zm-5.019-2.899a2.123 2.123 0 00-1.922 0 .586.586 0 000 1.109 2.133 2.133 0 001.923 0 .585.585 0 00-.001-1.109zm-5.023-2.898a2.132 2.132 0 00-1.92 0 .585.585 0 000 1.109 2.118 2.118 0 001.92 0 .585.585 0 000-1.109zm-6.96-2.899a.584.584 0 000 1.107 2.118 2.118 0 001.92 0 .584.584 0 000-1.107 2.12 2.12 0 00-1.92 0zm-4.985-2.9a.586.586 0 000 1.109 2.131 2.131 0 001.92 0 .585.585 0 000-1.109 2.119 2.119 0 00-1.92 0zm55.007 48.821a.585.585 0 000 1.109 2.134 2.134 0 001.92 0 .584.584 0 000-1.109 2.115 2.115 0 00-1.92 0zm-5.025-2.896a.586.586 0 000 1.109 2.122 2.122 0 001.921 0 .585.585 0 000-1.109 2.13 2.13 0 00-1.921 0zm-5.017-2.901a.584.584 0 000 1.108 2.12 2.12 0 001.92 0 .585.585 0 000-1.108 2.118 2.118 0 00-1.92 0zm-5.017-2.9a.586.586 0 000 1.109 2.133 2.133 0 001.922 0 .586.586 0 000-1.11 2.122 2.122 0 00-1.922 0zm-5.024-2.899a.586.586 0 000 1.109 2.123 2.123 0 001.92 0 .586.586 0 000-1.11 2.133 2.133 0 00-1.92.001zm-5.022-2.899a.584.584 0 000 1.107 2.123 2.123 0 001.921 0 .584.584 0 000-1.107 2.123 2.123 0 00-1.922 0zm-4.992-2.898a.586.586 0 000 1.109 2.132 2.132 0 001.92 0 .585.585 0 000-1.109 2.12 2.12 0 00-1.92 0zm-5.053-2.902a.585.585 0 000 1.109 2.123 2.123 0 001.92 0 .585.585 0 000-1.109 2.13 2.13 0 00-1.921 0zm-5.021-2.895a.585.585 0 000 1.108 2.124 2.124 0 001.921 0 .584.584 0 000-1.108 2.125 2.125 0 00-1.922 0zm-5.019-2.902a.586.586 0 000 1.109 2.128 2.128 0 001.919 0 .585.585 0 000-1.109 2.113 2.113 0 00-1.919 0zm-5.026-2.896a.585.585 0 000 1.109 2.111 2.111 0 001.919 0 .585.585 0 000-1.109 2.128 2.128 0 00-1.919 0zm-5.019-2.901a.585.585 0 000 1.108 2.119 2.119 0 001.92 0 .584.584 0 000-1.108 2.124 2.124 0 00-1.92 0zm-5.022-2.898a.585.585 0 000 1.108 2.119 2.119 0 001.922 0 .585.585 0 000-1.108 2.124 2.124 0 00-1.922 0zm-5.026-2.901a.586.586 0 000 1.109 2.12 2.12 0 001.92 0 .585.585 0 000-1.109 2.121 2.121 0 00-1.92 0zm70.308 34.792a.585.585 0 000 1.109 2.117 2.117 0 001.92 0 .585.585 0 000-1.109 2.127 2.127 0 00-1.92 0zm-5.025-2.901a.584.584 0 000 1.108 2.119 2.119 0 001.92 0 .585.585 0 000-1.108 2.118 2.118 0 00-1.92 0zm-5.025-2.9a.586.586 0 000 1.109 2.131 2.131 0 001.921 0 .586.586 0 000-1.109 2.122 2.122 0 00-1.921 0zm-5.017-2.899a.586.586 0 000 1.109 2.123 2.123 0 001.92 0 .586.586 0 000-1.11 2.133 2.133 0 00-1.92.001zm-5.017-2.899a.584.584 0 000 1.107 2.124 2.124 0 001.922 0 .584.584 0 000-1.107 2.123 2.123 0 00-1.922 0zm-5.024-2.898a.586.586 0 000 1.109 2.134 2.134 0 001.921 0 .586.586 0 000-1.109 2.12 2.12 0 00-1.921 0zm-5.022-2.902a.586.586 0 000 1.109 2.125 2.125 0 001.922 0 .586.586 0 000-1.109 2.133 2.133 0 00-1.922 0zm-4.992-2.895a.586.586 0 000 1.108 2.123 2.123 0 001.921 0 .584.584 0 000-1.108 2.12 2.12 0 00-1.92 0zm-5.053-2.902a.585.585 0 000 1.109 2.132 2.132 0 001.92 0 .586.586 0 000-1.109 2.114 2.114 0 00-1.92 0zm-5.021-2.896a.586.586 0 000 1.109 2.118 2.118 0 001.921 0 .585.585 0 000-1.109 2.132 2.132 0 00-1.922 0zm-5.019-2.902a.584.584 0 000 1.107 2.111 2.111 0 001.919 0 .584.584 0 000-1.107 2.115 2.115 0 00-1.919 0zm-5.026-2.897a.584.584 0 000 1.108 2.112 2.112 0 001.919 0 .584.584 0 000-1.108 2.114 2.114 0 00-1.919 0zm-5.019-2.901a.585.585 0 000 1.109 2.119 2.119 0 001.92 0 .585.585 0 000-1.109 2.121 2.121 0 00-1.92 0zm-5.022-2.9a.586.586 0 000 1.11 2.123 2.123 0 001.922 0 .586.586 0 000-1.11 2.131 2.131 0 00-1.922 0zm-5.026-2.897a.585.585 0 000 1.108 2.116 2.116 0 001.92 0 .584.584 0 000-1.108 2.125 2.125 0 00-1.92 0zm75.322 37.689a.585.585 0 000 1.108 2.119 2.119 0 001.92 0 .584.584 0 000-1.108 2.118 2.118 0 00-1.92 0zm-5.014-2.901a.586.586 0 000 1.109 2.132 2.132 0 001.92 0 .586.586 0 000-1.109 2.118 2.118 0 00-1.92 0zm-5.025-2.899a.586.586 0 000 1.109 2.122 2.122 0 001.92 0 .586.586 0 000-1.11 2.132 2.132 0 00-1.92.001zm-5.025-2.899a.585.585 0 000 1.107 2.122 2.122 0 001.921 0 .584.584 0 000-1.107 2.123 2.123 0 00-1.921 0zm-5.017-2.898a.586.586 0 000 1.109 2.134 2.134 0 001.921 0 .586.586 0 000-1.109 2.119 2.119 0 00-1.92 0zm-5.017-2.902a.586.586 0 000 1.109 2.126 2.126 0 001.923 0 .586.586 0 000-1.109 2.132 2.132 0 00-1.922 0zm-5.024-2.896a.585.585 0 000 1.108 2.123 2.123 0 001.92 0 .585.585 0 000-1.108 2.123 2.123 0 00-1.92 0zm-5.022-2.901a.585.585 0 000 1.109 2.134 2.134 0 001.922 0 .585.585 0 000-1.109 2.12 2.12 0 00-1.922 0zm-4.992-2.896a.586.586 0 000 1.109 2.113 2.113 0 001.92 0 .585.585 0 000-1.109 2.133 2.133 0 00-1.92 0zm-5.053-2.902a.583.583 0 000 1.107 2.113 2.113 0 001.92 0 .584.584 0 000-1.107 2.119 2.119 0 00-1.92 0zm-5.021-2.897a.585.585 0 000 1.108 2.118 2.118 0 001.921 0 .584.584 0 000-1.108 2.123 2.123 0 00-1.922 0zm-5.019-2.901a.586.586 0 000 1.109 2.116 2.116 0 001.919 0 .585.585 0 000-1.109 2.119 2.119 0 00-1.919 0zm-5.026-2.898a.584.584 0 000 1.108 2.115 2.115 0 001.919 0 .584.584 0 000-1.108 2.116 2.116 0 00-1.919 0zm-5.019-2.899a.585.585 0 000 1.108 2.119 2.119 0 001.92 0 .584.584 0 000-1.108 2.124 2.124 0 00-1.92 0zm-5.022-2.9a.586.586 0 000 1.109 2.134 2.134 0 001.923 0 .587.587 0 000-1.11 2.122 2.122 0 00-1.923.001z"/><path class="g" d="M228.5 1661.53l54.024-31.33c.056-.039.116-.071.176-.1 1.294-.73 3.144-.45 5.075.972l103.377 76.123a17.224 17.224 0 015.268 6.814l2.028 11.51c.769 1.75.426 3.179-.516 3.49l-53.642 31.1z"/><path class="g" d="M284.266 1630.13a5.674 5.674 0 013.245 1.274l103.379 76.123a16.807 16.807 0 015.129 6.643l2 11.413a3.373 3.373 0 01.271 2.52.842.842 0 01-.5.5l-53.461 30.99-115.111-98 53.626-31.1a2.871 2.871 0 011.422-.363zm59.966 130.49l53.9-31.254a1.608 1.608 0 00.93-.92 3.961 3.961 0 00-.242-3.106l-2-11.413a17.657 17.657 0 00-5.433-7.08l-103.376-76.122c-2.01-1.483-4.027-1.846-5.531-1-.1.054-.15.082-.2.116l-53.875 31.245-.194.764z"/><path class="h" d="M226.501 1686.628v-22.532a3.961 3.961 0 012.3-3.194c1.444-.576 3.321-.143 5.143 1.2l103.376 76.123a17.591 17.591 0 015.431 7.079l2.021 11.462c.659 1.532.573 2.978-.227 3.693a1.6 1.6 0 01-1.092.41 2.637 2.637 0 01-1.307-.4l-110.639-64.155a11.212 11.212 0 01-5.006-9.686zm21.997-22.024l41.768-23.732a4.14 4.14 0 014.492.266l90.394 66.127a1.657 1.657 0 01-.148 2.763l-41.418 24.1a4.7 4.7 0 01-5.15-.277l-90.13-65.935a1.977 1.977 0 01.194-3.312z"/><path class="g" d="M230.979 1650.301l12.234-4.568 30.319-17.228a3.708 3.708 0 014.033.239l3.708 2.772 2.411-.9v3.4a1.223 1.223 0 01-.609.992l-41.418 24.1a4.269 4.269 0 01-3.947.175v.009a10.162 10.162 0 00-2.985-.7 3.622 3.622 0 00-1.576.261l-2.172 1.259z"/><path class="h" d="M336.586 1732.514l-87-64.254 40.991-23.291a3.719 3.719 0 014.034.237l86.874 64.163-40.214 23.4a4.276 4.276 0 01-4.685-.255z"/><path class="i" d="M351.864 1756.214l41.221-23.9-1.1-5.693a4.807 4.807 0 00-7.141-3.24l-29.82 17.4a8.367 8.367 0 00-4.091 8.345z"/><path class="g" d="M252.051 1693.572a4.367 4.367 0 013.963.458l56.639 37.521a13.936 13.936 0 015.566 7.372l2.808 9.215-1.315-.763-2.481-8.145a12.886 12.886 0 00-5.146-6.818l-56.643-37.521a3.366 3.366 0 00-5.1 1.891l-.072 10.437-.924-.536v-10.186a4.361 4.361 0 012.705-2.925zm30.996-61.93l-41.407 24.1a4.278 4.278 0 01-4.687-.253l-5.362-4.012a1.556 1.556 0 01.155-2.605l41.77-23.73a3.709 3.709 0 014.032.239l5.622 4.2a1.233 1.233 0 01-.123 2.058z"/><path class="g" d="M283.05 1635.006l-41.417 24.1a4.278 4.278 0 01-4.687-.252l-5.362-4.013a1.555 1.555 0 01.154-2.606l41.774-23.731a3.707 3.707 0 014.032.239l5.622 4.2a1.235 1.235 0 01-.117 2.06z"/><path class="h" d="M275.328 1625.084a3.289 3.289 0 011.952.639l5.616 4.2a.81.81 0 01-.071 1.357l-41.417 24.1a3.849 3.849 0 01-4.223-.227l-5.36-4.01a1.135 1.135 0 01.109-1.9l41.771-23.728a3.276 3.276 0 011.623-.431zm-35.824 31.66a4.684 4.684 0 002.363-.637l41.418-24.1a1.657 1.657 0 00.147-2.765l-5.617-4.2a4.143 4.143 0 00-4.495-.267l-41.768 23.73a1.978 1.978 0 00-.194 3.311l5.36 4.008a4.683 4.683 0 002.787.919z"/><path d="M294.604 1648.558l83.484 61.819-36.292 21.116a4.276 4.276 0 01-4.687-.253l-83.569-61.881 37.029-21.04a3.713 3.713 0 014.035.239z" fill="#abc5ff"/><path class="g" d="M248.388 1668.385l.811.593 41.6-23.638a3.282 3.282 0 013.572.212l89.648 65.617.752-.437-89.9-65.861a4.14 4.14 0 00-4.495-.266z"/><path class="h" d="M230.54 1660.503v-10.341l.478-.177a1.548 1.548 0 00.366 1.45v.113l5.162 4.017.715.274a4.258 4.258 0 001.493.569l.185.07.136-.03a4.257 4.257 0 002.565-.55v2.873l41.2-23.975a.8.8 0 00.4-.657v-2.483a1.224 1.224 0 00.354-1.307l.491-.182v4.03a1.645 1.645 0 01-.82 1.332l-41.416 24.1a4.682 4.682 0 01-3.736.422v.018l-.581-.23a10.911 10.911 0 00-2.823-.675 3.706 3.706 0 00-1.374.2l-2.8 1.628zm126.84 88.707l31.609-18.216a2.68 2.68 0 00.98-3.666 2.682 2.682 0 00-3.658-.979l-31.609 18.216a2.683 2.683 0 00-.982 3.666 2.682 2.682 0 003.659.979z"/><path class="i" d="M355.698 1748.168l33.188-19.228a.891.891 0 00.327-1.223.891.891 0 00-1.222-.326l-33.187 19.23a.891.891 0 00-.325 1.222.9.9 0 001.219.325z"/><path class="k" d="M359.401 1745.535l27.217-15.791 19.58 11.685.814-.092v1.109a.54.54 0 010 .105 1 1 0 01-.489.822l-26.279 15.669a3.156 3.156 0 01-3.218 0l-21.26-12.586 1.025-.635z"/><path class="l" d="M406.798 1741.589v.858a.52.52 0 010 .1.785.785 0 01-.384.642l-26.277 15.667a2.926 2.926 0 01-2.989 0l-20.942-12.4.667-.414 2.631-.313 27.106-15.724 19.544 11.654zm-28.154 18.122a3.359 3.359 0 001.724-.475l26.276-15.667a1.216 1.216 0 00.6-1v-1.476l-.992.11-19.64-11.713-.112.068-27.178 15.766-2.644.315-1.337.831 21.58 12.772a3.364 3.364 0 001.729.474z"/><path class="k" d="M386.61 1728.529l19.919 11.879a1.019 1.019 0 010 1.753l-26.279 15.667a3.15 3.15 0 01-3.218 0l-20.238-12.005z"/><path class="l" d="M380.228 1756.014a3.149 3.149 0 01-3.217 0l-13.794-8.156a1.91 1.91 0 01.015-3.3l20.078-11.649a6.483 6.483 0 016.57.039l11.754 6.987a1.909 1.909 0 010 3.281z"/><path class="l" d="M386.61 1728.789l19.807 11.81a.8.8 0 010 1.368l-26.276 15.668a2.925 2.925 0 01-2.988 0l-19.91-11.812zm-7.968 29.705a3.38 3.38 0 001.724-.475l26.278-15.667a1.245 1.245 0 000-2.138l-20.034-11.945-.114.066-30.146 17.486 20.567 12.2a3.361 3.361 0 001.7.476z"/><path d="M382.53 1743.798l1.383.8 4.551-2.627-1.383-.8a1.977 1.977 0 00-1.778.074l-2.646 1.527c-.515.305-.593.762-.127 1.026zm5.021 2.897l1.406.814a1.993 1.993 0 001.8-.074l2.626-1.517c.532-.307.589-.769.128-1.037l-1.405-.814zm-3.181-1.837l2.728 1.576 4.55-2.627-2.727-1.575zm-3.497 8.531a1.635 1.635 0 01-1.458.282c-.33-.19-.1-.5.507-.853.585-.34 1.121-.476 1.454-.283.27.162.118.482-.503.854zm-1.258-.768c-.811.469-.956.9-.43 1.2a2.113 2.113 0 002.014-.25c.8-.462.9-.915.41-1.2a2.093 2.093 0 00-2.015.243zm-.62-.32a1.636 1.636 0 01-1.455.283c-.33-.191-.1-.5.5-.856.587-.338 1.121-.475 1.454-.282.277.165.122.483-.499.855zm-1.258-.769c-.809.47-.955.9-.429 1.206a2.122 2.122 0 002.014-.252c.8-.461.895-.913.41-1.194a2.1 2.1 0 00-2.016.241zm-.627-.315a1.629 1.629 0 01-1.454.282c-.329-.192-.1-.5.507-.856.584-.339 1.12-.474 1.454-.282.269.162.153.484-.507.856zm-1.256-.768c-.808.468-.958.9-.429 1.2a2.12 2.12 0 002.013-.253c.8-.461.892-.914.41-1.193a2.093 2.093 0 00-2.017.242zm-.158-1.075l.007.005.19.367.311-.105-.242-.46-.274-.16-2.382 1.375.311.18zm-3.117-.778a1.629 1.629 0 01-1.457.282c-.328-.191-.1-.5.507-.856.586-.338 1.121-.473 1.454-.281.271.161.116.48-.504.855zm-1.259-.768c-.81.468-.957.9-.428 1.205a2.121 2.121 0 002.013-.253c.8-.462.892-.915.412-1.194a2.093 2.093 0 00-2.017.242zm-1.514.53l.2-.116-.007-.288c-.029-.685 0-1.022.36-1.231a.907.907 0 01.937 0 .574.574 0 01.3.408l.329-.073a.8.8 0 00-.433-.529 1.457 1.457 0 00-1.421-.021c-.442.254-.478.645-.458 1.213l.015.212h-.007l-1.071-.617-.266.153zm-.997-1.936a1.626 1.626 0 01-1.454.283c-.328-.191-.1-.5.5-.855.586-.339 1.121-.474 1.454-.281.276.163.16.477-.5.853zm-1.257-.768c-.81.469-.957.9-.429 1.2a2.121 2.121 0 002.013-.251c.8-.462.892-.914.411-1.194a2.089 2.089 0 00-2.017.241zm-.126-1.075h.007l.191.368.307-.1-.243-.462-.273-.157-2.382 1.375.31.178z" fill="#f1f3f4"/><path class="l" d="M378.518 1758.268v1.324l-1.033-.331-21.706-12.8 1.023-.635 20.959 12.32z"/></g></svg>