<svg xmlns="http://www.w3.org/2000/svg" xmlns:xlink="http://www.w3.org/1999/xlink" width="271" height="350" viewBox="0 0 271 350"><defs><style>.a{fill:#fff;stroke:#707070;}.b{clip-path:url(#a);}.c{fill:#bdc1c6;}.d{fill:#dadce0;}.e{fill:#e8eaed;}.f{fill:#ff5833;}.g{fill:#d4492a;}.h{fill:#f4f4f4;}.i{fill:#f1f3f4;}</style><clipPath id="a"><rect class="a" width="271" height="350" transform="translate(681 1476)"/></clipPath></defs><g class="b" transform="translate(-681 -1476)"><g transform="translate(-1851.783 575.088)"><path class="c" d="M4914.826,3920.188l0-188.866-199.093-.12v188.05c-.252,3.11,1.906,6.457,6.378,9.038l79.133,45.688c7.75,4.474,19.475,4.962,26.187,1.086l82.9-47.862C4913.558,3925.346,4915.018,3922.817,4914.826,3920.188Z" transform="translate(-2095.075 -2604.767)"/><path class="d" d="M5658.23,3920.188l0-187.127a1.847,1.847,0,0,0-1.846-1.849l-15.283-.01-82.421,36.418v210.02c4.54.109,8.925-.719,12.149-2.582l82.9-47.858c2.853-1.645,4.327-3.817,4.5-6.108v-.829c0-.026-.01-.048-.013-.074Z" transform="translate(-2838.481 -2604.768)"/><path class="e" d="M4910.222,3308.951l-82.9,47.861c-6.711,3.875-18.437,3.388-26.186-1.083l-79.134-45.69c-7.749-4.475-8.591-11.245-1.88-15.118l82.895-47.86c6.712-3.875,18.437-3.388,26.187,1.083l79.133,45.69c7.75,4.476,8.592,11.242,1.881,15.117Z" transform="translate(-2094.969 -2175.499)"/><g transform="translate(2668.357 1099.013)"><path class="c" d="M5308.692,3955.7a.642.642,0,0,1,0,1.213,2.314,2.314,0,0,1-2.1,0,.642.642,0,0,1,0-1.213,2.331,2.331,0,0,1,2.1,0Z" transform="translate(-5284.137 -3901.535)"/><path class="c" d="M5355.2,3928.845a.639.639,0,0,1,0,1.212,2.314,2.314,0,0,1-2.1,0,.642.642,0,0,1,0-1.212,2.319,2.319,0,0,1,2.1,0Z" transform="translate(-5325.155 -3877.853)"/><path class="c" d="M5401.723,3901.988a.643.643,0,0,1,0,1.213,2.326,2.326,0,0,1-2.1,0,.643.643,0,0,1,0-1.213,2.321,2.321,0,0,1,2.1,0Z" transform="translate(-5366.178 -3854.167)"/><path class="c" d="M5448.23,3875.142a.643.643,0,0,1,0,1.213,2.317,2.317,0,0,1-2.1,0,.643.643,0,0,1,0-1.214A2.336,2.336,0,0,1,5448.23,3875.142Z" transform="translate(-5407.189 -3830.493)"/><path class="c" d="M5215.678,3955.7a.642.642,0,0,1,0,1.213,2.315,2.315,0,0,1-2.1,0,.642.642,0,0,1,0-1.213,2.332,2.332,0,0,1,2.1,0Z" transform="translate(-5202.103 -3901.535)"/><path class="c" d="M5262.185,3928.845a.642.642,0,0,1,0,1.212,2.313,2.313,0,0,1-2.1,0,.643.643,0,0,1,0-1.212,2.319,2.319,0,0,1,2.1,0Z" transform="translate(-5243.122 -3877.853)"/><path class="c" d="M5308.692,3901.988a.643.643,0,0,1,0,1.213,2.324,2.324,0,0,1-2.1,0,.643.643,0,0,1,0-1.213,2.318,2.318,0,0,1,2.1,0Z" transform="translate(-5284.137 -3854.167)"/><path class="c" d="M5355.2,3875.142a.643.643,0,0,1,0,1.213,2.315,2.315,0,0,1-2.1,0,.643.643,0,0,1,0-1.213A2.332,2.332,0,0,1,5355.2,3875.142Z" transform="translate(-5325.155 -3830.493)"/><path class="c" d="M5401.723,3848.29a.639.639,0,0,1,0,1.212,2.318,2.318,0,0,1-2.1,0,.642.642,0,0,1,0-1.211,2.32,2.32,0,0,1,2.1,0Z" transform="translate(-5366.178 -3806.813)"/><path class="c" d="M5169.165,3928.845a.643.643,0,0,1,0,1.212,2.317,2.317,0,0,1-2.1,0,.642.642,0,0,1,0-1.212,2.322,2.322,0,0,1,2.1,0Z" transform="translate(-5161.086 -3877.853)"/><path class="c" d="M5215.678,3901.988a.643.643,0,0,1,0,1.213,2.325,2.325,0,0,1-2.1,0,.643.643,0,0,1,0-1.213,2.32,2.32,0,0,1,2.1,0Z" transform="translate(-5202.103 -3854.167)"/><path class="c" d="M5262.185,3875.142a.642.642,0,0,1,0,1.213,2.313,2.313,0,0,1-2.1,0,.643.643,0,0,1,0-1.213,2.335,2.335,0,0,1,2.1,0Z" transform="translate(-5243.122 -3830.493)"/><path class="c" d="M5308.692,3848.29a.639.639,0,0,1,0,1.212,2.315,2.315,0,0,1-2.1,0,.639.639,0,0,1,0-1.212,2.319,2.319,0,0,1,2.1,0Z" transform="translate(-5284.137 -3806.813)"/><path class="c" d="M5355.2,3821.427a.643.643,0,0,1,0,1.213,2.322,2.322,0,0,1-2.1,0,.643.643,0,0,1,0-1.213A2.316,2.316,0,0,1,5355.2,3821.427Z" transform="translate(-5325.155 -3783.127)"/><path class="c" d="M5122.658,3901.988a.642.642,0,0,1,0,1.213,2.325,2.325,0,0,1-2.1,0,.643.643,0,0,1,0-1.213,2.321,2.321,0,0,1,2.1,0Z" transform="translate(-5120.069 -3854.167)"/><path class="c" d="M5169.165,3875.142a.642.642,0,0,1,0,1.213,2.314,2.314,0,0,1-2.1,0,.643.643,0,0,1,0-1.213,2.333,2.333,0,0,1,2.1,0Z" transform="translate(-5161.089 -3830.493)"/><path class="c" d="M5215.678,3848.29a.639.639,0,0,1,0,1.212,2.316,2.316,0,0,1-2.1,0,.638.638,0,0,1,0-1.211,2.318,2.318,0,0,1,2.1,0Z" transform="translate(-5202.103 -3806.813)"/><path class="c" d="M5262.185,3821.427a.642.642,0,0,1,0,1.213,2.324,2.324,0,0,1-2.1,0,.642.642,0,0,1,0-1.213A2.316,2.316,0,0,1,5262.185,3821.427Z" transform="translate(-5243.122 -3783.127)"/><path class="c" d="M5308.692,3794.581a.643.643,0,0,1,0,1.213,2.321,2.321,0,0,1-2.1,0,.643.643,0,0,1,0-1.214,2.326,2.326,0,0,1,2.1,0Z" transform="translate(-5284.137 -3759.449)"/><path class="c" d="M5122.249,3848a.643.643,0,0,1,0,1.214,2.318,2.318,0,0,1-2.1,0,.643.643,0,0,1,0-1.214A2.329,2.329,0,0,1,5122.249,3848Z" transform="translate(-5119.711 -3806.562)"/><path class="c" d="M5168.762,3821.146a.642.642,0,0,1,0,1.212,2.318,2.318,0,0,1-2.1,0,.643.643,0,0,1,0-1.213A2.318,2.318,0,0,1,5168.762,3821.146Z" transform="translate(-5160.734 -3782.879)"/><path class="c" d="M5215.269,3794.289a.642.642,0,0,1,0,1.214,2.331,2.331,0,0,1-2.1,0,.643.643,0,0,1,0-1.214A2.324,2.324,0,0,1,5215.269,3794.289Z" transform="translate(-5201.744 -3759.194)"/><path class="c" d="M5492.734,3848.652a2.311,2.311,0,0,1,2.1,0,.639.639,0,0,1,0,1.212,2.322,2.322,0,0,1-2.1,0,.643.643,0,0,1,0-1.216Z" transform="translate(-5448.292 -3807.134)"/><path class="c" d="M5541.4,3821.777a.643.643,0,0,1,0,1.214,2.333,2.333,0,0,1-2.1,0,.643.643,0,0,1,0-1.215,2.317,2.317,0,0,1,2.1,0Z" transform="translate(-5489.354 -3783.431)"/><path class="c" d="M5587.909,3794.926a.642.642,0,0,1,0,1.214,2.324,2.324,0,0,1-2.1,0,.643.643,0,0,1,0-1.214A2.332,2.332,0,0,1,5587.909,3794.926Z" transform="translate(-5530.371 -3759.753)"/><path class="c" d="M5634.416,3768.074a.639.639,0,0,1,0,1.212,2.32,2.32,0,0,1-2.1,0,.639.639,0,0,1,0-1.212A2.314,2.314,0,0,1,5634.416,3768.074Z" transform="translate(-5571.39 -3736.072)"/><path class="c" d="M5680.928,3741.217a.643.643,0,0,1,0,1.212,2.325,2.325,0,0,1-2.1,0,.643.643,0,0,1,0-1.212,2.32,2.32,0,0,1,2.1,0Z" transform="translate(-5612.403 -3712.386)"/><path class="c" d="M5727.441,3714.371a.643.643,0,0,1,0,1.214,2.325,2.325,0,0,1-2.1,0,.643.643,0,0,1,0-1.214,2.33,2.33,0,0,1,2.1,0Z" transform="translate(-5653.422 -3688.712)"/><path class="c" d="M5773.954,3687.519a.643.643,0,0,1,0,1.212,2.323,2.323,0,0,1-2.1,0,.643.643,0,0,1,0-1.212,2.321,2.321,0,0,1,2.1,0Z" transform="translate(-5694.444 -3665.03)"/><path class="c" d="M5820.461,3660.662a.643.643,0,0,1,0,1.212,2.321,2.321,0,0,1-2.1,0,.639.639,0,0,1,0-1.212,2.322,2.322,0,0,1,2.1,0Z" transform="translate(-5735.456 -3641.344)"/><path class="c" d="M5866.991,3633.8a.643.643,0,0,1,0,1.214,2.319,2.319,0,0,1-2.1,0,.643.643,0,0,1,0-1.213,2.317,2.317,0,0,1,2.1,0Z" transform="translate(-5776.486 -3617.659)"/><path class="c" d="M5913.487,3606.953a.643.643,0,0,1,0,1.214,2.322,2.322,0,0,1-2.1,0,.643.643,0,0,1,0-1.214,2.331,2.331,0,0,1,2.1,0Z" transform="translate(-5817.48 -3593.982)"/><path class="c" d="M5959.982,3580.1a.643.643,0,0,1,0,1.213,2.318,2.318,0,0,1-2.1,0,.643.643,0,0,1,0-1.213,2.32,2.32,0,0,1,2.1,0Z" transform="translate(-5858.5 -3570.299)"/><path class="c" d="M5446.227,3821.8a2.326,2.326,0,0,1,2.1,0,.642.642,0,0,1,0,1.213,2.324,2.324,0,0,1-2.1,0,.643.643,0,0,1,0-1.213Z" transform="translate(-5407.281 -3783.456)"/><path class="c" d="M5494.883,3794.926a.642.642,0,0,1,0,1.214,2.318,2.318,0,0,1-2.1,0,.643.643,0,0,1,0-1.214A2.328,2.328,0,0,1,5494.883,3794.926Z" transform="translate(-5448.337 -3759.753)"/><path class="c" d="M5541.4,3768.074a.639.639,0,0,1,0,1.212,2.324,2.324,0,0,1-2.1,0,.643.643,0,0,1,0-1.212,2.315,2.315,0,0,1,2.1,0Z" transform="translate(-5489.354 -3736.072)"/><path class="c" d="M5587.909,3741.217a.643.643,0,0,1,0,1.212,2.326,2.326,0,0,1-2.1,0,.643.643,0,0,1,0-1.212,2.321,2.321,0,0,1,2.1,0Z" transform="translate(-5530.371 -3712.386)"/><path class="c" d="M5634.416,3714.371a.643.643,0,0,1,0,1.214,2.317,2.317,0,0,1-2.1,0,.642.642,0,0,1,0-1.213,2.322,2.322,0,0,1,2.1,0Z" transform="translate(-5571.39 -3688.712)"/><path class="c" d="M5680.928,3687.519a.643.643,0,0,1,0,1.212,2.324,2.324,0,0,1-2.1,0,.642.642,0,0,1,0-1.212A2.323,2.323,0,0,1,5680.928,3687.519Z" transform="translate(-5612.403 -3665.03)"/><path class="c" d="M5727.441,3660.662a.643.643,0,0,1,0,1.212,2.324,2.324,0,0,1-2.1,0,.639.639,0,0,1,0-1.212,2.321,2.321,0,0,1,2.1,0Z" transform="translate(-5653.422 -3641.344)"/><path class="c" d="M5773.954,3633.8a.643.643,0,0,1,0,1.214,2.322,2.322,0,0,1-2.1,0,.642.642,0,0,1,0-1.213A2.321,2.321,0,0,1,5773.954,3633.8Z" transform="translate(-5694.444 -3617.659)"/><path class="c" d="M5820.461,3606.953a.643.643,0,0,1,0,1.214,2.321,2.321,0,0,1-2.1,0,.643.643,0,0,1,0-1.214,2.33,2.33,0,0,1,2.1,0Z" transform="translate(-5735.456 -3593.982)"/><path class="c" d="M5866.991,3580.1a.643.643,0,0,1,0,1.213,2.32,2.32,0,0,1-2.1,0,.643.643,0,0,1,0-1.213,2.319,2.319,0,0,1,2.1,0Z" transform="translate(-5776.486 -3570.299)"/><path class="c" d="M5913.487,3553.244a.642.642,0,0,1,0,1.214,2.332,2.332,0,0,1-2.1,0,.642.642,0,0,1,0-1.214A2.318,2.318,0,0,1,5913.487,3553.244Z" transform="translate(-5817.48 -3546.614)"/><path class="c" d="M5399.708,3794.955a2.324,2.324,0,0,1,2.1,0,.643.643,0,0,1,0,1.214,2.319,2.319,0,0,1-2.1,0,.639.639,0,0,1,0-1.21Z" transform="translate(-5366.257 -3759.776)"/><path class="c" d="M5448.376,3768.074a.643.643,0,0,1,0,1.212,2.324,2.324,0,0,1-2.1,0,.643.643,0,0,1,0-1.212,2.318,2.318,0,0,1,2.1,0Z" transform="translate(-5407.321 -3736.072)"/><path class="c" d="M5494.883,3741.217a.643.643,0,0,1,0,1.212,2.325,2.325,0,0,1-2.1,0,.643.643,0,0,1,0-1.212A2.317,2.317,0,0,1,5494.883,3741.217Z" transform="translate(-5448.337 -3712.386)"/><path class="c" d="M5541.4,3714.371a.643.643,0,0,1,0,1.214,2.319,2.319,0,0,1-2.1,0,.643.643,0,0,1,0-1.213A2.328,2.328,0,0,1,5541.4,3714.371Z" transform="translate(-5489.354 -3688.712)"/><path class="c" d="M5587.909,3687.519a.643.643,0,0,1,0,1.212,2.324,2.324,0,0,1-2.1,0,.643.643,0,0,1,0-1.212A2.323,2.323,0,0,1,5587.909,3687.519Z" transform="translate(-5530.371 -3665.03)"/><path class="c" d="M5634.416,3660.662a.639.639,0,0,1,0,1.212,2.315,2.315,0,0,1-2.1,0,.639.639,0,0,1,0-1.212A2.315,2.315,0,0,1,5634.416,3660.662Z" transform="translate(-5571.39 -3641.344)"/><path class="c" d="M5680.928,3633.8a.643.643,0,0,1,0,1.214,2.323,2.323,0,0,1-2.1,0,.643.643,0,0,1,0-1.213A2.321,2.321,0,0,1,5680.928,3633.8Z" transform="translate(-5612.403 -3617.659)"/><path class="c" d="M5727.441,3606.959a.643.643,0,0,1,0,1.213,2.324,2.324,0,0,1-2.1,0,.642.642,0,0,1,0-1.213,2.323,2.323,0,0,1,2.1,0Z" transform="translate(-5653.422 -3593.984)"/><path class="c" d="M5773.954,3580.1a.643.643,0,0,1,0,1.213,2.327,2.327,0,0,1-2.1,0,.643.643,0,0,1,0-1.213,2.322,2.322,0,0,1,2.1,0Z" transform="translate(-5694.444 -3570.299)"/><path class="c" d="M5820.461,3553.244a.643.643,0,0,1,0,1.214,2.337,2.337,0,0,1-2.1,0,.643.643,0,0,1,0-1.214,2.323,2.323,0,0,1,2.1,0Z" transform="translate(-5735.456 -3546.614)"/><path class="c" d="M5866.991,3526.392a.643.643,0,0,1,0,1.215,2.318,2.318,0,0,1-2.1,0,.642.642,0,0,1,0-1.214,2.328,2.328,0,0,1,2.1,0Z" transform="translate(-5776.486 -3522.936)"/><path class="c" d="M5353.207,3768.1a2.318,2.318,0,0,1,2.1,0,.643.643,0,0,1,0,1.212,2.32,2.32,0,0,1-2.1,0,.643.643,0,0,1,0-1.212Z" transform="translate(-5325.248 -3736.091)"/><path class="c" d="M5401.863,3741.217a.643.643,0,0,1,0,1.214,2.33,2.33,0,0,1-2.1,0,.643.643,0,0,1,0-1.214,2.311,2.311,0,0,1,2.1,0Z" transform="translate(-5366.304 -3712.386)"/><path class="c" d="M5448.376,3714.371a.643.643,0,0,1,0,1.214,2.321,2.321,0,0,1-2.1,0,.643.643,0,0,1,0-1.213A2.328,2.328,0,0,1,5448.376,3714.371Z" transform="translate(-5407.321 -3688.712)"/><path class="c" d="M5494.883,3687.519a.643.643,0,0,1,0,1.212,2.324,2.324,0,0,1-2.1,0,.643.643,0,0,1,0-1.212,2.323,2.323,0,0,1,2.1,0Z" transform="translate(-5448.337 -3665.03)"/><path class="c" d="M5541.4,3660.662a.639.639,0,0,1,0,1.212,2.318,2.318,0,0,1-2.1,0,.643.643,0,0,1,0-1.212,2.317,2.317,0,0,1,2.1,0Z" transform="translate(-5489.354 -3641.344)"/><path class="c" d="M5587.909,3633.8a.643.643,0,0,1,0,1.214,2.323,2.323,0,0,1-2.1,0,.643.643,0,0,1,0-1.213A2.322,2.322,0,0,1,5587.909,3633.8Z" transform="translate(-5530.371 -3617.659)"/><path class="c" d="M5634.416,3606.959a.643.643,0,0,1,0,1.213,2.316,2.316,0,0,1-2.1,0,.642.642,0,0,1,0-1.213,2.319,2.319,0,0,1,2.1,0Z" transform="translate(-5571.39 -3593.984)"/><path class="c" d="M5680.928,3580.1a.643.643,0,0,1,0,1.213,2.328,2.328,0,0,1-2.1,0,.643.643,0,0,1,0-1.213,2.321,2.321,0,0,1,2.1,0Z" transform="translate(-5612.403 -3570.299)"/><path class="c" d="M5727.441,3553.244a.643.643,0,0,1,0,1.214,2.337,2.337,0,0,1-2.1,0,.643.643,0,0,1,0-1.214,2.319,2.319,0,0,1,2.1,0Z" transform="translate(-5653.422 -3546.614)"/><path class="c" d="M5773.954,3526.392a.643.643,0,0,1,0,1.215,2.322,2.322,0,0,1-2.1,0,.643.643,0,0,1,0-1.215,2.331,2.331,0,0,1,2.1,0Z" transform="translate(-5694.444 -3522.936)"/><path class="c" d="M5820.461,3501.421a.643.643,0,0,1,0,1.212,2.321,2.321,0,0,1-2.1,0,.639.639,0,0,1,0-1.212Z" transform="translate(-5735.456 -3501.136)"/><path class="c" d="M5356.092,3714.079a2.314,2.314,0,0,1,2.1,0,.642.642,0,0,1,0,1.213,2.331,2.331,0,0,1-2.1,0Z" transform="translate(-5328.172 -3688.454)"/><path class="c" d="M5401.46,3687.233a.643.643,0,0,1,0,1.214,2.318,2.318,0,0,1-2.1,0,.643.643,0,0,1,0-1.214A2.326,2.326,0,0,1,5401.46,3687.233Z" transform="translate(-5365.944 -3664.78)"/><path class="c" d="M5447.973,3660.382a.643.643,0,0,1,0,1.212,2.324,2.324,0,0,1-2.1,0,.642.642,0,0,1,0-1.211A2.322,2.322,0,0,1,5447.973,3660.382Z" transform="translate(-5406.965 -3641.097)"/><path class="c" d="M5494.479,3633.524a.642.642,0,0,1,0,1.214,2.336,2.336,0,0,1-2.1,0,.643.643,0,0,1,0-1.214,2.317,2.317,0,0,1,2.1,0Z" transform="translate(-5447.977 -3617.412)"/><path class="c" d="M5541,3606.672a.643.643,0,0,1,0,1.215,2.321,2.321,0,0,1-2.1,0,.642.642,0,0,1,0-1.214A2.325,2.325,0,0,1,5541,3606.672Z" transform="translate(-5489.002 -3593.734)"/><path class="c" d="M5587.5,3579.815a.642.642,0,0,1,0,1.214,2.324,2.324,0,0,1-2.1,0,.643.643,0,0,1,0-1.214A2.332,2.332,0,0,1,5587.5,3579.815Z" transform="translate(-5530.011 -3570.05)"/><path class="c" d="M5634.019,3552.964a.643.643,0,0,1,0,1.212,2.322,2.322,0,0,1-2.1,0,.639.639,0,0,1,0-1.212,2.313,2.313,0,0,1,2.1,0Z" transform="translate(-5571.035 -3546.368)"/><path class="c" d="M5680.531,3526.118a.643.643,0,0,1,0,1.214,2.321,2.321,0,0,1-2.1,0,.643.643,0,0,1,0-1.214A2.329,2.329,0,0,1,5680.531,3526.118Z" transform="translate(-5612.056 -3522.694)"/><path class="c" d="M5727.038,3499.254a.643.643,0,0,1,0,1.215,2.321,2.321,0,0,1-2.1,0,.642.642,0,0,1,0-1.214,2.336,2.336,0,0,1,2.1,0Z" transform="translate(-5653.068 -3499.007)"/><path class="c" d="M5402.611,3633.524a2.321,2.321,0,0,1,2.1,0,.643.643,0,0,1,0,1.215,2.337,2.337,0,0,1-2.1,0Z" transform="translate(-5369.198 -3617.412)"/><path class="c" d="M5445.87,3606.672a2.331,2.331,0,0,1,2.1,0,.643.643,0,0,1,0,1.215,2.325,2.325,0,0,1-2.1,0,.643.643,0,0,1,0-1.214Z" transform="translate(-5406.965 -3593.734)"/><path class="c" d="M5492.377,3579.815a2.322,2.322,0,0,1,2.1,0,.642.642,0,0,1,0,1.215,2.33,2.33,0,0,1-2.1,0,.643.643,0,0,1,0-1.213Z" transform="translate(-5447.977 -3570.051)"/><path class="c" d="M5538.9,3552.964a2.311,2.311,0,0,1,2.1,0,.642.642,0,0,1,0,1.212,2.32,2.32,0,0,1-2.1,0,.639.639,0,0,1,0-1.212Z" transform="translate(-5489.002 -3546.368)"/><path class="c" d="M5587.5,3526.118a.643.643,0,0,1,0,1.214,2.319,2.319,0,0,1-2.1,0,.643.643,0,0,1,0-1.214A2.331,2.331,0,0,1,5587.5,3526.118Z" transform="translate(-5530.011 -3522.694)"/><path class="c" d="M5634.019,3499.254a.643.643,0,0,1,0,1.215,2.317,2.317,0,0,1-2.1,0,.642.642,0,0,1,0-1.214A2.331,2.331,0,0,1,5634.019,3499.254Z" transform="translate(-5571.035 -3499.007)"/></g><g transform="translate(2673.85 1102.184)"><path class="c" d="M5355.21,3982.554a.643.643,0,0,1,0,1.213,2.319,2.319,0,0,1-2.1,0,.643.643,0,0,1,0-1.213A2.331,2.331,0,0,1,5355.21,3982.554Z" transform="translate(-5330.649 -3928.393)"/><path class="c" d="M5401.717,3955.7a.643.643,0,0,1,0,1.213,2.319,2.319,0,0,1-2.1,0,.643.643,0,0,1,0-1.213A2.32,2.32,0,0,1,5401.717,3955.7Z" transform="translate(-5371.668 -3904.709)"/><path class="c" d="M5448.236,3928.845a.643.643,0,0,1,0,1.213,2.328,2.328,0,0,1-2.1,0,.643.643,0,0,1,0-1.213,2.32,2.32,0,0,1,2.1,0Z" transform="translate(-5412.691 -3881.024)"/><path class="c" d="M5494.743,3901.993a.643.643,0,0,1,0,1.214,2.322,2.322,0,0,1-2.1,0,.643.643,0,0,1,0-1.214,2.335,2.335,0,0,1,2.1,0Z" transform="translate(-5453.702 -3857.347)"/><path class="c" d="M5262.185,3982.554a.642.642,0,0,1,0,1.213,2.321,2.321,0,0,1-2.1,0,.643.643,0,0,1,0-1.213,2.331,2.331,0,0,1,2.1,0Z" transform="translate(-5248.616 -3928.393)"/><path class="c" d="M5308.7,3955.7a.643.643,0,0,1,0,1.213,2.321,2.321,0,0,1-2.1,0,.643.643,0,0,1,0-1.213,2.318,2.318,0,0,1,2.1,0Z" transform="translate(-5289.635 -3904.709)"/><path class="c" d="M5355.21,3928.845a.643.643,0,0,1,0,1.213,2.332,2.332,0,0,1-2.1,0,.643.643,0,0,1,0-1.213,2.323,2.323,0,0,1,2.1,0Z" transform="translate(-5330.649 -3881.024)"/><path class="c" d="M5401.717,3901.993a.643.643,0,0,1,0,1.214,2.318,2.318,0,0,1-2.1,0,.642.642,0,0,1,0-1.214,2.327,2.327,0,0,1,2.1,0Z" transform="translate(-5371.668 -3857.347)"/><path class="c" d="M5448.236,3875.142a.639.639,0,0,1,0,1.212,2.321,2.321,0,0,1-2.1,0,.643.643,0,0,1,0-1.212,2.318,2.318,0,0,1,2.1,0Z" transform="translate(-5412.691 -3833.664)"/><path class="c" d="M5215.678,3955.7a.643.643,0,0,1,0,1.213,2.324,2.324,0,0,1-2.1,0,.643.643,0,0,1,0-1.213,2.321,2.321,0,0,1,2.1,0Z" transform="translate(-5207.6 -3904.709)"/><path class="c" d="M5262.185,3928.845a.643.643,0,0,1,0,1.213,2.33,2.33,0,0,1-2.1,0,.643.643,0,0,1,0-1.213,2.32,2.32,0,0,1,2.1,0Z" transform="translate(-5248.616 -3881.024)"/><path class="c" d="M5308.7,3901.993a.643.643,0,0,1,0,1.214,2.316,2.316,0,0,1-2.1,0,.643.643,0,0,1,0-1.214A2.327,2.327,0,0,1,5308.7,3901.993Z" transform="translate(-5289.635 -3857.347)"/><path class="c" d="M5355.21,3875.142a.639.639,0,0,1,0,1.212,2.32,2.32,0,0,1-2.1,0,.643.643,0,0,1,0-1.212,2.323,2.323,0,0,1,2.1,0Z" transform="translate(-5330.649 -3833.664)"/><path class="c" d="M5401.717,3848.284a.643.643,0,0,1,0,1.214,2.329,2.329,0,0,1-2.1,0,.643.643,0,0,1,0-1.214,2.322,2.322,0,0,1,2.1,0Z" transform="translate(-5371.668 -3809.979)"/><path class="c" d="M5169.171,3928.845a.643.643,0,0,1,0,1.213,2.331,2.331,0,0,1-2.1,0,.642.642,0,0,1,0-1.213,2.322,2.322,0,0,1,2.1,0Z" transform="translate(-5166.583 -3881.024)"/><path class="c" d="M5215.678,3901.993a.643.643,0,0,1,0,1.214,2.318,2.318,0,0,1-2.1,0,.643.643,0,0,1,0-1.214,2.33,2.33,0,0,1,2.1,0Z" transform="translate(-5207.601 -3857.347)"/><path class="c" d="M5262.185,3875.142a.639.639,0,0,1,0,1.212,2.321,2.321,0,0,1-2.1,0,.643.643,0,0,1,0-1.212,2.318,2.318,0,0,1,2.1,0Z" transform="translate(-5248.616 -3833.664)"/><path class="c" d="M5308.7,3848.284a.643.643,0,0,1,0,1.214,2.327,2.327,0,0,1-2.1,0,.643.643,0,0,1,0-1.215A2.317,2.317,0,0,1,5308.7,3848.284Z" transform="translate(-5289.635 -3809.979)"/><path class="c" d="M5355.21,3821.439a.642.642,0,0,1,0,1.214,2.318,2.318,0,0,1-2.1,0,.643.643,0,0,1,0-1.215,2.338,2.338,0,0,1,2.1,0Z" transform="translate(-5330.649 -3786.305)"/><path class="c" d="M5168.762,3874.855a.643.643,0,0,1,0,1.214,2.322,2.322,0,0,1-2.1,0,.642.642,0,0,1,0-1.215A2.331,2.331,0,0,1,5168.762,3874.855Z" transform="translate(-5166.224 -3833.414)"/><path class="c" d="M5215.274,3848.01a.639.639,0,0,1,0,1.212,2.319,2.319,0,0,1-2.1,0,.643.643,0,0,1,0-1.212,2.316,2.316,0,0,1,2.1,0Z" transform="translate(-5207.247 -3809.736)"/><path class="c" d="M5261.781,3821.146a.642.642,0,0,1,0,1.214,2.331,2.331,0,0,1-2.1,0,.643.643,0,0,1,0-1.214,2.32,2.32,0,0,1,2.1,0Z" transform="translate(-5248.257 -3786.051)"/><path class="c" d="M5539.247,3875.51a2.316,2.316,0,0,1,2.1,0,.643.643,0,0,1,0,1.213,2.324,2.324,0,0,1-2.1,0,.643.643,0,0,1,0-1.215Z" transform="translate(-5494.806 -3833.99)"/><path class="c" d="M5587.909,3848.635a.642.642,0,0,1,0,1.214,2.329,2.329,0,0,1-2.1,0,.643.643,0,0,1,0-1.214,2.323,2.323,0,0,1,2.1,0Z" transform="translate(-5535.868 -3810.288)"/><path class="c" d="M5634.421,3821.783a.643.643,0,0,1,0,1.214,2.318,2.318,0,0,1-2.1,0,.643.643,0,0,1,0-1.213A2.331,2.331,0,0,1,5634.421,3821.783Z" transform="translate(-5576.883 -3786.61)"/><path class="c" d="M5680.928,3794.932a.639.639,0,0,1,0,1.211,2.319,2.319,0,0,1-2.1,0,.639.639,0,0,1,0-1.211,2.312,2.312,0,0,1,2.1,0Z" transform="translate(-5617.901 -3762.929)"/><path class="c" d="M5727.441,3768.074a.64.64,0,0,1,0,1.212,2.326,2.326,0,0,1-2.1,0,.639.639,0,0,1,0-1.211,2.321,2.321,0,0,1,2.1,0Z" transform="translate(-5658.916 -3739.243)"/><path class="c" d="M5773.954,3741.229a.643.643,0,0,1,0,1.213,2.316,2.316,0,0,1-2.1,0,.643.643,0,0,1,0-1.213,2.333,2.333,0,0,1,2.1,0Z" transform="translate(-5699.935 -3715.569)"/><path class="c" d="M5820.467,3714.371a.639.639,0,0,1,0,1.211,2.319,2.319,0,0,1-2.1,0,.643.643,0,0,1,0-1.211,2.315,2.315,0,0,1,2.1,0Z" transform="translate(-5740.958 -3691.882)"/><path class="c" d="M5866.991,3687.513a.642.642,0,0,1,0,1.211,2.315,2.315,0,0,1-2.1,0,.638.638,0,0,1,0-1.211,2.314,2.314,0,0,1,2.1,0Z" transform="translate(-5781.97 -3668.198)"/><path class="c" d="M5913.487,3660.656a.643.643,0,0,1,0,1.214,2.321,2.321,0,0,1-2.1,0,.643.643,0,0,1,0-1.214A2.312,2.312,0,0,1,5913.487,3660.656Z" transform="translate(-5822.989 -3644.512)"/><path class="c" d="M5960.04,3633.81a.642.642,0,0,1,0,1.213,2.324,2.324,0,0,1-2.1,0,.643.643,0,0,1,0-1.213,2.333,2.333,0,0,1,2.1,0Z" transform="translate(-5864.028 -3620.839)"/><path class="c" d="M6006.536,3606.959a.643.643,0,0,1,0,1.213,2.317,2.317,0,0,1-2.1,0,.643.643,0,0,1,0-1.213A2.318,2.318,0,0,1,6006.536,3606.959Z" transform="translate(-5905.048 -3597.155)"/><path class="c" d="M5492.739,3848.658a2.327,2.327,0,0,1,2.1,0,.642.642,0,0,1,0,1.213,2.323,2.323,0,0,1-2.1,0,.643.643,0,0,1,0-1.214Z" transform="translate(-5453.793 -3810.312)"/><path class="c" d="M5541.4,3821.783a.643.643,0,0,1,0,1.214,2.319,2.319,0,0,1-2.1,0,.643.643,0,0,1,0-1.213A2.331,2.331,0,0,1,5541.4,3821.783Z" transform="translate(-5494.85 -3786.61)"/><path class="c" d="M5587.909,3794.932a.639.639,0,0,1,0,1.211,2.322,2.322,0,0,1-2.1,0,.643.643,0,0,1,0-1.211,2.316,2.316,0,0,1,2.1,0Z" transform="translate(-5535.868 -3762.929)"/><path class="c" d="M5634.421,3768.074a.64.64,0,0,1,0,1.212,2.323,2.323,0,0,1-2.1,0,.639.639,0,0,1,0-1.211,2.319,2.319,0,0,1,2.1,0Z" transform="translate(-5576.883 -3739.243)"/><path class="c" d="M5680.928,3741.229a.643.643,0,0,1,0,1.213,2.311,2.311,0,0,1-2.1,0,.643.643,0,0,1,0-1.213,2.328,2.328,0,0,1,2.1,0Z" transform="translate(-5617.901 -3715.569)"/><path class="c" d="M5727.441,3714.371a.639.639,0,0,1,0,1.211,2.318,2.318,0,0,1-2.1,0,.639.639,0,0,1,0-1.212A2.318,2.318,0,0,1,5727.441,3714.371Z" transform="translate(-5658.916 -3691.882)"/><path class="c" d="M5773.954,3687.513a.642.642,0,0,1,0,1.211,2.318,2.318,0,0,1-2.1,0,.639.639,0,0,1,0-1.211A2.319,2.319,0,0,1,5773.954,3687.513Z" transform="translate(-5699.935 -3668.198)"/><path class="c" d="M5820.467,3660.656a.643.643,0,0,1,0,1.214,2.322,2.322,0,0,1-2.1,0,.643.643,0,0,1,0-1.214,2.319,2.319,0,0,1,2.1,0Z" transform="translate(-5740.958 -3644.512)"/><path class="c" d="M5866.991,3633.81a.642.642,0,0,1,0,1.213,2.318,2.318,0,0,1-2.1,0,.643.643,0,0,1,0-1.214,2.329,2.329,0,0,1,2.1,0Z" transform="translate(-5781.97 -3620.839)"/><path class="c" d="M5913.487,3606.959a.642.642,0,0,1,0,1.213,2.317,2.317,0,0,1-2.1,0,.639.639,0,0,1,0-1.212A2.317,2.317,0,0,1,5913.487,3606.959Z" transform="translate(-5822.989 -3597.155)"/><path class="c" d="M5960.04,3580.1a.643.643,0,0,1,0,1.214,2.332,2.332,0,0,1-2.1,0,.643.643,0,0,1,0-1.215,2.321,2.321,0,0,1,2.1,0Z" transform="translate(-5864.028 -3573.471)"/><path class="c" d="M5446.221,3821.807a2.326,2.326,0,0,1,2.1,0,.642.642,0,0,1,0,1.213,2.32,2.32,0,0,1-2.1,0,.643.643,0,0,1,0-1.212Z" transform="translate(-5412.77 -3786.633)"/><path class="c" d="M5494.889,3794.932a.64.64,0,0,1,0,1.212,2.32,2.32,0,0,1-2.1,0,.639.639,0,0,1,0-1.211A2.315,2.315,0,0,1,5494.889,3794.932Z" transform="translate(-5453.834 -3762.929)"/><path class="c" d="M5541.4,3768.074a.643.643,0,0,1,0,1.212,2.324,2.324,0,0,1-2.1,0,.643.643,0,0,1,0-1.212,2.318,2.318,0,0,1,2.1,0Z" transform="translate(-5494.85 -3739.243)"/><path class="c" d="M5587.909,3741.229a.643.643,0,0,1,0,1.213,2.317,2.317,0,0,1-2.1,0,.643.643,0,0,1,0-1.213A2.333,2.333,0,0,1,5587.909,3741.229Z" transform="translate(-5535.868 -3715.569)"/><path class="c" d="M5634.421,3714.371a.639.639,0,0,1,0,1.211,2.317,2.317,0,0,1-2.1,0,.639.639,0,0,1,0-1.211,2.313,2.313,0,0,1,2.1,0Z" transform="translate(-5576.883 -3691.882)"/><path class="c" d="M5680.928,3687.513a.638.638,0,0,1,0,1.211,2.313,2.313,0,0,1-2.1,0,.639.639,0,0,1,0-1.211,2.312,2.312,0,0,1,2.1,0Z" transform="translate(-5617.901 -3668.198)"/><path class="c" d="M5727.441,3660.656a.643.643,0,0,1,0,1.214,2.324,2.324,0,0,1-2.1,0,.643.643,0,0,1,0-1.213,2.322,2.322,0,0,1,2.1,0Z" transform="translate(-5658.916 -3644.512)"/><path class="c" d="M5773.954,3633.816a.642.642,0,0,1,0,1.212,2.322,2.322,0,0,1-2.1,0,.639.639,0,0,1,0-1.212,2.321,2.321,0,0,1,2.1,0Z" transform="translate(-5699.935 -3620.841)"/><path class="c" d="M5820.467,3606.959a.643.643,0,0,1,0,1.213,2.322,2.322,0,0,1-2.1,0,.643.643,0,0,1,0-1.213,2.321,2.321,0,0,1,2.1,0Z" transform="translate(-5740.958 -3597.155)"/><path class="c" d="M5866.991,3580.1a.643.643,0,0,1,0,1.214,2.328,2.328,0,0,1-2.1,0,.643.643,0,0,1,0-1.214,2.322,2.322,0,0,1,2.1,0Z" transform="translate(-5781.97 -3573.471)"/><path class="c" d="M5913.487,3553.25a.642.642,0,0,1,0,1.214,2.317,2.317,0,0,1-2.1,0,.643.643,0,0,1,0-1.213,2.326,2.326,0,0,1,2.1,0Z" transform="translate(-5822.989 -3549.793)"/><path class="c" d="M5399.72,3794.955a2.321,2.321,0,0,1,2.1,0,.639.639,0,0,1,0,1.211,2.321,2.321,0,0,1-2.1,0,.643.643,0,0,1,0-1.215Z" transform="translate(-5371.76 -3762.948)"/><path class="c" d="M5448.376,3768.074a.643.643,0,0,1,0,1.213,2.33,2.33,0,0,1-2.1,0,.643.643,0,0,1,0-1.213,2.316,2.316,0,0,1,2.1,0Z" transform="translate(-5412.815 -3739.243)"/><path class="c" d="M5494.889,3741.229a.643.643,0,0,1,0,1.213,2.313,2.313,0,0,1-2.1,0,.643.643,0,0,1,0-1.214,2.328,2.328,0,0,1,2.1,0Z" transform="translate(-5453.834 -3715.569)"/><path class="c" d="M5541.4,3714.371a.643.643,0,0,1,0,1.211,2.318,2.318,0,0,1-2.1,0,.639.639,0,0,1,0-1.211A2.316,2.316,0,0,1,5541.4,3714.371Z" transform="translate(-5494.85 -3691.882)"/><path class="c" d="M5587.909,3687.513a.639.639,0,0,1,0,1.211,2.316,2.316,0,0,1-2.1,0,.642.642,0,0,1,0-1.211,2.316,2.316,0,0,1,2.1,0Z" transform="translate(-5535.868 -3668.198)"/><path class="c" d="M5634.421,3660.656a.643.643,0,0,1,0,1.214,2.325,2.325,0,0,1-2.1,0,.643.643,0,0,1,0-1.214,2.319,2.319,0,0,1,2.1,0Z" transform="translate(-5576.883 -3644.512)"/><path class="c" d="M5680.928,3633.816a.639.639,0,0,1,0,1.212,2.317,2.317,0,0,1-2.1,0,.639.639,0,0,1,0-1.212,2.317,2.317,0,0,1,2.1,0Z" transform="translate(-5617.901 -3620.841)"/><path class="c" d="M5727.441,3606.959a.643.643,0,0,1,0,1.213,2.324,2.324,0,0,1-2.1,0,.642.642,0,0,1,0-1.213,2.323,2.323,0,0,1,2.1,0Z" transform="translate(-5658.916 -3597.155)"/><path class="c" d="M5773.954,3580.1a.643.643,0,0,1,0,1.214,2.334,2.334,0,0,1-2.1,0,.643.643,0,0,1,0-1.215,2.322,2.322,0,0,1,2.1,0Z" transform="translate(-5699.935 -3573.471)"/><path class="c" d="M5820.467,3553.25a.642.642,0,0,1,0,1.214,2.322,2.322,0,0,1-2.1,0,.643.643,0,0,1,0-1.214,2.332,2.332,0,0,1,2.1,0Z" transform="translate(-5740.958 -3549.793)"/><path class="c" d="M5866.991,3528.279a.639.639,0,0,1,0,1.211,2.321,2.321,0,0,1-2.1,0,.638.638,0,0,1,0-1.211Z" transform="translate(-5781.97 -3527.993)"/><path class="c" d="M5402.6,3740.937a2.32,2.32,0,0,1,2.1,0,.642.642,0,0,1,0,1.213,2.336,2.336,0,0,1-2.1,0Z" transform="translate(-5374.686 -3715.311)"/><path class="c" d="M5447.973,3714.09a.643.643,0,0,1,0,1.213,2.321,2.321,0,0,1-2.1,0,.643.643,0,0,1,0-1.213,2.327,2.327,0,0,1,2.1,0Z" transform="translate(-5412.458 -3691.637)"/><path class="c" d="M5494.486,3687.239a.643.643,0,0,1,0,1.213,2.324,2.324,0,0,1-2.1,0,.643.643,0,0,1,0-1.213,2.32,2.32,0,0,1,2.1,0Z" transform="translate(-5453.478 -3667.954)"/><path class="c" d="M5540.993,3660.382a.643.643,0,0,1,0,1.213,2.328,2.328,0,0,1-2.1,0,.643.643,0,0,1,0-1.213,2.32,2.32,0,0,1,2.1,0Z" transform="translate(-5494.49 -3644.269)"/><path class="c" d="M5587.511,3633.53a.642.642,0,0,1,0,1.214,2.317,2.317,0,0,1-2.1,0,.643.643,0,0,1,0-1.214A2.325,2.325,0,0,1,5587.511,3633.53Z" transform="translate(-5535.514 -3620.591)"/><path class="c" d="M5634.013,3606.672a.643.643,0,0,1,0,1.214,2.319,2.319,0,0,1-2.1,0,.643.643,0,0,1,0-1.214,2.328,2.328,0,0,1,2.1,0Z" transform="translate(-5576.525 -3596.906)"/><path class="c" d="M5680.531,3579.821a.639.639,0,0,1,0,1.211,2.316,2.316,0,0,1-2.1,0,.638.638,0,0,1,0-1.211A2.314,2.314,0,0,1,5680.531,3579.821Z" transform="translate(-5617.548 -3573.225)"/><path class="c" d="M5727.044,3552.969a.643.643,0,0,1,0,1.213,2.321,2.321,0,0,1-2.1,0,.643.643,0,0,1,0-1.213A2.324,2.324,0,0,1,5727.044,3552.969Z" transform="translate(-5658.567 -3549.547)"/><path class="c" d="M5773.551,3526.112a.642.642,0,0,1,0,1.214,2.315,2.315,0,0,1-2.1,0,.643.643,0,0,1,0-1.214,2.331,2.331,0,0,1,2.1,0Z" transform="translate(-5699.581 -3525.86)"/><path class="c" d="M5449.124,3660.382a2.321,2.321,0,0,1,2.1,0,.643.643,0,0,1,0,1.213,2.331,2.331,0,0,1-2.1,0Z" transform="translate(-5415.71 -3644.269)"/><path class="c" d="M5492.383,3633.53a2.333,2.333,0,0,1,2.1,0,.642.642,0,0,1,0,1.214,2.323,2.323,0,0,1-2.1,0,.643.643,0,0,1,0-1.214Z" transform="translate(-5453.477 -3620.591)"/><path class="c" d="M5538.89,3606.678a2.325,2.325,0,0,1,2.1,0,.642.642,0,0,1,0,1.213,2.321,2.321,0,0,1-2.1,0,.639.639,0,0,1,0-1.211Z" transform="translate(-5494.49 -3596.908)"/><path class="c" d="M5585.409,3579.821a2.314,2.314,0,0,1,2.1,0,.639.639,0,0,1,0,1.211,2.318,2.318,0,0,1-2.1,0,.639.639,0,0,1,0-1.211Z" transform="translate(-5535.514 -3573.225)"/><path class="c" d="M5634.013,3552.969a.643.643,0,0,1,0,1.213,2.317,2.317,0,0,1-2.1,0,.643.643,0,0,1,0-1.213,2.323,2.323,0,0,1,2.1,0Z" transform="translate(-5576.525 -3549.547)"/><path class="c" d="M5680.531,3526.112a.643.643,0,0,1,0,1.214,2.317,2.317,0,0,1-2.1,0,.643.643,0,0,1,0-1.213A2.326,2.326,0,0,1,5680.531,3526.112Z" transform="translate(-5617.548 -3525.86)"/></g><g transform="translate(2671.265 1022.911)"><path class="e" d="M5977.914,3106.539l4.54,2.617v7.863l-4.54-2.621Z" transform="translate(-5879.459 -3076.791)"/><path class="f" d="M5239.311,2865.464l-14.678,8.475V2856.99a2.593,2.593,0,0,0-1.135-2.052,2.234,2.234,0,0,0-1.078-.26h-.04a2.548,2.548,0,0,0-1.227.3l-72.609,41.922c-2.8,1.619-4.21,3.743-4.21,5.865v70.762c0,2.124,1.4,4.247,4.21,5.867l.1.058c5.612,3.241,14.712,3.241,20.327,0l72.608-41.921a2.683,2.683,0,0,0,1.21-2.1v-69.368l-1.136-.656A2.593,2.593,0,0,0,5239.311,2865.464Z" transform="translate(-5144.334 -2854.676)"/><path class="g" d="M5148.651,2908.636c-5.588-3.227-5.588-8.507,0-11.734l72.609-41.922a2.551,2.551,0,0,1,1.227-.3h.04a2.237,2.237,0,0,1,1.078.259c.626.362.593.967-.075,1.354l-70.583,40.75a27.63,27.63,0,0,0-2.375,1.465c-3.277,2.459-3.574,5.74-.751,8.061a11.594,11.594,0,0,0,2.4,1.406,19.1,19.1,0,0,0,14.158-.424c.7-.317,1.785-.948,2.454-1.334l70.582-40.75a2.6,2.6,0,0,1,2.345-.044c.627.362.592.968-.075,1.354l-72.61,41.921c-5.589,3.227-14.735,3.227-20.324,0Z" transform="translate(-5144.443 -2854.676)"/><path class="e" d="M5155.327,3335.931a.273.273,0,0,1-.18-.068,9.021,9.021,0,0,1-.993-1,.274.274,0,1,1,.42-.35,8.352,8.352,0,0,0,.93.94.269.269,0,0,1,.094.188.273.273,0,0,1-.067.2.268.268,0,0,1-.2.094Z" transform="translate(-5152.941 -3277.746)"/><path class="e" d="M5265.053,3034.775a.274.274,0,0,1-.136-.511l2.391-1.38a.274.274,0,0,1,.274.475l-2.391,1.38Zm-4.778,2.76a.273.273,0,0,1-.136-.51l2.389-1.38a.274.274,0,0,1,.273.475l-2.389,1.379Zm-4.78,2.76a.274.274,0,0,1-.136-.511l2.39-1.379a.273.273,0,0,1,.273.473l-2.389,1.38Zm-4.779,2.759a.274.274,0,0,1-.136-.51l2.389-1.38a.274.274,0,1,1,.273.474l-2.389,1.38Zm-4.779,2.76a.274.274,0,0,1-.137-.511l2.39-1.38a.274.274,0,0,1,.273.475l-2.389,1.379Zm-4.78,2.759a.269.269,0,0,1-.236-.136.275.275,0,0,1,.1-.374l2.39-1.379a.274.274,0,0,1,.274.475l-2.39,1.379Zm-4.779,2.761a.274.274,0,0,1-.137-.511l2.39-1.38a.274.274,0,0,1,.275.475l-2.391,1.38Zm-4.78,2.759a.274.274,0,0,1-.137-.511l2.39-1.38a.274.274,0,0,1,.273.475l-2.39,1.379Zm-4.78,2.76a.274.274,0,0,1-.137-.51l2.389-1.38a.274.274,0,1,1,.274.475l-2.39,1.379Zm-4.778,2.759a.274.274,0,0,1-.138-.51l2.39-1.379a.274.274,0,0,1,.274.474l-2.39,1.38Zm-4.78,2.76a.273.273,0,0,1-.137-.511l2.39-1.379a.277.277,0,0,1,.281-.007.274.274,0,0,1-.007.481l-2.39,1.379Zm-4.78,2.76a.275.275,0,0,1-.136-.511l2.39-1.379a.274.274,0,0,1,.272.475l-2.389,1.379Zm-4.778,2.759a.274.274,0,0,1-.138-.51l2.39-1.379a.274.274,0,1,1,.274.474l-2.39,1.38Zm-4.78,2.76a.27.27,0,0,1-.237-.137.273.273,0,0,1,.1-.374l2.391-1.38a.274.274,0,0,1,.274.474l-2.39,1.379Zm-18.613,1.97-.086-.014a16.656,16.656,0,0,1-2.574-1.11.273.273,0,0,1,.259-.481,16.185,16.185,0,0,0,2.489,1.073.273.273,0,0,1-.087.532Zm13.6.295a.274.274,0,0,1-.073-.537,17.759,17.759,0,0,0,2.55-.93.274.274,0,1,1,.228.5,18.462,18.462,0,0,1-2.629.958Zm-8.2.773h-.021a24.023,24.023,0,0,1-2.765-.37.273.273,0,1,1,.1-.537,23.709,23.709,0,0,0,2.7.362.273.273,0,0,1-.021.546Zm2.758.056a.274.274,0,1,1-.01-.547,23.938,23.938,0,0,0,2.716-.249.273.273,0,1,1,.081.541,24.463,24.463,0,0,1-2.778.255Z" transform="translate(-5177.114 -3011.805)"/><path class="e" d="M5928.615,3017.263a.277.277,0,0,1-.194-.081.27.27,0,0,1-.08-.194v-.893l-.774.446a.274.274,0,0,1-.274-.474l1.186-.685a.273.273,0,0,1,.409.238v1.368a.273.273,0,0,1-.273.273Z" transform="translate(-5834.672 -2996.372)"/><path class="e" d="M5937.436,3053.426a.272.272,0,0,1-.274-.273v-2.74a.274.274,0,1,1,.548,0v2.739a.273.273,0,0,1-.273.275Zm0,5.483a.274.274,0,0,1-.273-.274v-2.74a.274.274,0,1,1,.548,0v2.74a.273.273,0,0,1-.273.271Zm0,5.481a.272.272,0,0,1-.274-.274v-2.74a.274.274,0,1,1,.548,0v2.74a.269.269,0,0,1-.079.194.274.274,0,0,1-.194.08Zm0,5.481a.274.274,0,0,1-.195-.08.271.271,0,0,1-.08-.194v-2.74a.274.274,0,1,1,.548,0v2.74a.272.272,0,0,1-.273.271Zm0,5.481a.273.273,0,0,1-.274-.272v-2.741a.274.274,0,1,1,.548,0v2.741a.272.272,0,0,1-.273.268Zm0,5.483a.274.274,0,0,1-.274-.274v-2.741a.274.274,0,1,1,.548,0v2.741a.273.273,0,0,1-.273.272Zm0,5.481a.274.274,0,0,1-.274-.274v-2.74a.274.274,0,1,1,.548,0v2.741a.273.273,0,0,1-.273.27Zm0,5.481a.274.274,0,0,1-.273-.274v-2.74a.274.274,0,1,1,.548,0v2.74a.273.273,0,0,1-.273.274Zm0,5.481a.273.273,0,0,1-.274-.273v-2.74a.274.274,0,1,1,.548,0V3097a.273.273,0,0,1-.273.271Zm0,5.481a.273.273,0,0,1-.274-.273v-2.741a.274.274,0,1,1,.548,0v2.741a.269.269,0,0,1-.079.195.274.274,0,0,1-.194.08Z" transform="translate(-5843.521 -3027.051)"/><path class="h" d="M5927.389,3516.83a.273.273,0,0,1-.137-.51l1.048-.606v-1.21a.274.274,0,0,1,.548,0v1.369a.27.27,0,0,1-.136.234l-1.186.684Z" transform="translate(-5834.662 -3436.331)"/><path class="e" d="M5265.105,3545.212a.274.274,0,0,1-.137-.51l2.39-1.381a.274.274,0,0,1,.273.475l-2.389,1.38Zm-4.78,2.759a.274.274,0,0,1-.136-.511l2.39-1.379a.274.274,0,1,1,.273.474l-2.389,1.379Zm-4.779,2.76a.274.274,0,0,1-.137-.511l2.39-1.379a.273.273,0,0,1,.273.474l-2.39,1.38Zm-4.779,2.759a.273.273,0,0,1-.137-.51l2.39-1.379a.274.274,0,1,1,.273.474l-2.39,1.38Zm-4.779,2.76a.274.274,0,0,1-.137-.51l2.39-1.38a.274.274,0,1,1,.273.474l-2.39,1.38Zm-4.779,2.76a.274.274,0,0,1-.137-.511l2.389-1.379a.274.274,0,1,1,.273.474l-2.388,1.38Zm-4.78,2.76a.274.274,0,0,1-.137-.511l2.39-1.38a.274.274,0,0,1,.274.474l-2.391,1.38Zm-4.78,2.759a.274.274,0,0,1-.136-.51l2.389-1.379a.273.273,0,1,1,.273.474l-2.39,1.38Zm-4.78,2.76a.273.273,0,0,1-.137-.51l2.39-1.38a.274.274,0,0,1,.274.474l-2.39,1.379Zm-4.779,2.759a.273.273,0,0,1-.137-.51l2.392-1.38a.273.273,0,0,1,.273.473l-2.391,1.38Zm-4.779,2.759a.273.273,0,0,1-.137-.509l2.39-1.38a.274.274,0,1,1,.273.474l-2.389,1.379Zm-4.78,2.76a.273.273,0,0,1-.135-.51l2.389-1.382a.274.274,0,0,1,.273.475l-2.39,1.379Zm-4.778,2.759a.273.273,0,0,1-.138-.51l2.391-1.38a.274.274,0,0,1,.274.475l-2.391,1.379Zm-4.78,2.76a.274.274,0,0,1-.138-.511l2.39-1.38a.274.274,0,0,1,.273.475l-2.39,1.38Zm-18.613,1.975-.087-.014a16.816,16.816,0,0,1-2.574-1.11.274.274,0,0,1,.26-.483,16.113,16.113,0,0,0,2.489,1.073.274.274,0,0,1-.088.534Zm13.6.292a.274.274,0,0,1-.074-.537,17.634,17.634,0,0,0,2.55-.931.274.274,0,0,1,.229.5,18.316,18.316,0,0,1-2.629.96Zm-8.2.776h-.021a23.917,23.917,0,0,1-2.766-.369.274.274,0,1,1,.1-.537,23.393,23.393,0,0,0,2.7.36.274.274,0,0,1-.019.547Zm2.757.055a.274.274,0,0,1-.009-.547,23.94,23.94,0,0,0,2.715-.25.273.273,0,1,1,.081.54,24.473,24.473,0,0,1-2.777.257Z" transform="translate(-5177.16 -3461.953)"/><path class="e" d="M5155.327,3846.392a.269.269,0,0,1-.179-.067,9.153,9.153,0,0,1-.993-1,.274.274,0,1,1,.42-.351,8.249,8.249,0,0,0,.929.941.274.274,0,0,1-.18.481Z" transform="translate(-5152.941 -3727.919)"/><path class="d" d="M5250.391,2908.834v-8.249a2.14,2.14,0,0,0-.967-1.677l-.335-.193a2.141,2.141,0,0,0-1.935,0l-73.589,42.488a4.578,4.578,0,0,0,1.909,3.994,11.476,11.476,0,0,0,2.4,1.408,17.14,17.14,0,0,0,7.039,1.15l64.509-37.245a2.137,2.137,0,0,0,.966-1.676Z" transform="translate(-5170.093 -2893.309)"/><path class="i" d="M5247.149,2898.712l-73.589,42.488a4.006,4.006,0,0,0,.495,2.336l75.365-43.511a.591.591,0,0,0,0-1.119l-.334-.193A2.142,2.142,0,0,0,5247.149,2898.712Z" transform="translate(-5170.091 -2893.309)"/><path class="d" d="M5270.123,2929.518v-6.745a2.137,2.137,0,0,0-.968-1.676l-.334-.194a2.142,2.142,0,0,0-1.936,0l-76.112,43.944a11.789,11.789,0,0,0,2.3,1.324,19.109,19.109,0,0,0,14.159-.425c.705-.318,1.783-.944,2.453-1.329h0Z" transform="translate(-5185.287 -2912.878)"/><path class="i" d="M5266.881,2920.9l-76.116,43.949a11.872,11.872,0,0,0,2.267,1.311l76.116-43.945a.59.59,0,0,0,0-1.117l-.335-.194a2.136,2.136,0,0,0-1.932,0Z" transform="translate(-5185.281 -2912.877)"/><path class="d" d="M5314.124,2946.451v-1.5a2.138,2.138,0,0,0-.968-1.676l-.334-.194a2.139,2.139,0,0,0-1.936,0l-75.367,43.516a19.751,19.751,0,0,0,11.171-1.29c.7-.318,1.782-.944,2.453-1.329h0Z" transform="translate(-5224.75 -2932.434)"/><path class="i" d="M5310.911,2943.081l-75.367,43.516a19.246,19.246,0,0,0,4.045.285l73.591-42.489a.589.589,0,0,0,0-1.117l-.333-.193a2.138,2.138,0,0,0-1.936,0Z" transform="translate(-5224.77 -2932.434)"/><path class="g" d="M5749.713,3112.9v16.109a2.153,2.153,0,0,1-.965,1.678l-29.392,16.969-.058.028c-2.22,1.268-4.237,1.433-5.712.671-.448-.233-2.17-1.233-2.59-1.505-1.331-.862-2.142-2.559-2.142-4.937,0-4.906,3.454-10.908,7.794-13.663l.005-.006,27.547-15.9a1.491,1.491,0,0,0,.146-.1c.386-.307.334-.738-.146-1.017l-3.569-2.062v-2.623l8.113,4.682a2.16,2.16,0,0,1,.949,1.487,1.016,1.016,0,0,1,.02.192Z" transform="translate(-5642.179 -3076.791)"/><path class="f" d="M5766.652,3155.2V3171.3a2.152,2.152,0,0,1-.967,1.678l-29.391,16.97-.058.028c-2.9,1.655-5.442,1.43-6.893-.274a6.345,6.345,0,0,1-1.28-4.179c0-5.069,3.688-11.3,8.231-13.926l28.089-16.215,1.3-.75c.475-.279.872-.111.949.369A1.027,1.027,0,0,1,5766.652,3155.2Z" transform="translate(-5659.116 -3119.088)"/><path class="c" d="M5785.729,3336.393c0,2.171,1.524,3.051,3.405,1.965a7.525,7.525,0,0,0,3.4-5.9c0-2.17-1.524-3.051-3.4-1.965a7.523,7.523,0,0,0-3.406,5.9Z" transform="translate(-5709.974 -3273.884)"/><path class="c" d="M5800.087,3333.1l-1.008-.576-4.923,8.271,1.157.667Z" transform="translate(-5717.407 -3276.082)"/><path class="e" d="M5795.344,3341.936c0,2.17,1.524,3.052,3.4,1.965a7.519,7.519,0,0,0,3.4-5.9c0-2.171-1.524-3.051-3.4-1.966A7.526,7.526,0,0,0,5795.344,3341.936Z" transform="translate(-5718.453 -3278.776)"/></g></g></g></svg>