<svg xmlns="http://www.w3.org/2000/svg" width="271" height="350"><defs><clipPath id="a"><path transform="translate(140 1826)" fill="#fff" stroke="#707070" d="M0 0h271v350H0z"/></clipPath><clipPath id="b"><path d="M37.885 108.774q4.843 2.794 9.683 5.591a1.033 1.033 0 01.491.795v1.634c0 .288-.224.382-.491.229q-4.843-2.794-9.683-5.591a1.033 1.033 0 01-.491-.795V109c.001-.282.222-.379.491-.226z" transform="translate(-37.395 -108.702)" clip-rule="evenodd"/></clipPath><style>.g,.k{fill:#abc5ff}.g,.i,.j,.l,.m{fill-rule:evenodd}.i{fill:#03243b}.j{fill:#0d346b}.l{fill:#5591ff}.m{fill:#ff5833}</style></defs><g transform="translate(-140 -1826)" clip-path="url(#a)"><path d="M437.853 2240.893v-122.132l-187.355-.109v121.363c-.236 2.927 1.795 6.077 6 8.506l74.471 42.995c7.292 4.209 18.326 4.669 24.641 1.023l78.01-45.042c3.037-1.752 4.412-4.132 4.233-6.6z" fill="#bdc1c6"/><path d="M437.853 2240.893v-120.5a1.742 1.742 0 00-1.738-1.74l-14.383-.009-77.559 34.279v142.04a22.312 22.312 0 0011.435-2.431l78.01-45.037c2.684-1.549 4.07-3.592 4.235-5.747v-.778c0-.026-.009-.047-.012-.071h.009z" fill="#dadce0"/><path d="M433.62 2125.253l-78.01 45.04c-6.315 3.648-17.349 3.188-24.641-1.021l-74.47-43c-7.292-4.212-8.086-10.581-1.771-14.227l78.007-45.037c6.315-3.646 17.349-3.188 24.643 1.019l74.468 43c7.294 4.212 8.086 10.579 1.771 14.225z" fill="#e8eaed"/><path class="g" d="M286.184 2120.666v-200.512l.205-.962.521-.941.835-.884 1.146-.8.79-.455.79-.455.79-.457.788-.455.79-.455.79-.455.79-.457.79-.455.788-.455.79-.457.79-.455.788-.457.79-.455.79-.455.79-.455.79-.457.788-.455.79-.455.79-.457.79-.455.79-.457.788-.455.79-.455.79-.455.788-.457.792-.455.788-.455.79-.457.79-.455.79-.455.788-.457.79-.455.79-.455.79-.455.788-.455.79-.457.79-.455.79-.455.79-.457.79-.455.79-.457.79-.455.79-.455.79-.457.79-.455.789-.477.792-.455.79-.455.79-.457.79-.455.79-.457.79-.455.79-.455.79-.457.79-.455.79-.457.79-.455.79-.457.79-.455.79-.457.792-.455.79-.457.79-.455.79-.455.674-.356.717-.307.752-.264.781-.217.8-.175.821-.127.831-.083.835-.035.835.009.83.059.809.1.79.146.764.2.729.241.689.285.644.335.755.434.757.436.755.436.757.439.755.436.757.436.755.436.757.436.757.436.755.436.757.436.755.436.757.439.757.436.757.436.755.436.757.436.757.436.755.436.757.436.757.436.755.439.757.436.757.436.755.436.757.436.755.439.757.434.755.436.757.436.755.439.757.436.755.434.757.436.755.439.757.436.755.436.757.436.755.436.757.436.757.436.755.436.757.436.757.439.755.436.757.436.757.436.757.436.755.439.757.436.757.436.755.436.757.436.757.439.757.436.757.436.755.436.757.436.757.439.755.436.757.436.757.436.755.436.757.436 1.075.771.755.863.434.924.118.96v200.517l-.118-.957-.434-.927-.755-.861-1.075-.771-.757-.436-.755-.436-.757-.436-.757-.439-.755-.436-.757-.436-.757-.436-.755-.436-.757-.439-.757-.436-.757-.436-.757-.436-.755-.436-.757-.439-.757-.436-.755-.436-.757-.436-.757-.436-.757-.439-.755-.436-.757-.436-.757-.436-.755-.436-.757-.439-.757-.436-.755-.436-.757-.436-.755-.436-.757-.436-.755-.436-.757-.436-.755-.436-.757-.436-.755-.436-.757-.436-.755-.436-.757-.436-.755-.436-.757-.436-.755-.436-.757-.439-.757-.436-.755-.436-.757-.436-.757-.436-.755-.436-.757-.439-.757-.436-.755-.436-.757-.436-.757-.436-.757-.436-.755-.436-.757-.436-.755-.436-.757-.439-.757-.436-.755-.436-.761-.442-.755-.436-.757-.436-.755-.436-.757-.436-.755-.436-.644-.333-.689-.288-.729-.241-.764-.193-.79-.149-.809-.1-.825-.054-.835-.009-.835.035-.832.083-.821.127-.8.172-.781.219-.752.262-.717.309-.674.354-.79.457-.79.455-.79.457-.792.455-.79.455-.79.457-.79.455-.79.457-.79.455-.79.455-.79.457-.79.455-.79.457-.79.455-.79.457-.79.455-.79.458-.792.455-.788.457-.79.455-.79.455-.79.455-.79.457-.79.455-.79.455-.79.457-.79.455-.79.458-.79.455-.788.455-.79.455-.79.457-.79.455-.788.455-.79.457-.79.455-.79.455-.788.457-.792.455-.788.455-.79.455-.79.457-.788.455-.79.457-.79.455-.79.455-.79.457-.788.455-.79.455-.79.455-.79.458-.79.455-.788.455-.79.457-.79.455-.788.455-.79.458-.79.455-.79.455-.79.455-.788.457-.79.455-.79.455-.79.458-1.146.8-.835.887-.521.939z"/><path class="g" d="M351.736 2087.7l24.193 13.968q12.091 6.979 24.2 13.972c3.294 1.9 3.158 5.106-.316 7.112q-12.642 7.3-25.278 14.6l-25.268 14.583c-3.474 2.007-9.025 2.087-12.319.182l-24.2-13.97-24.191-13.968c-3.3-1.9-3.136-5.1.337-7.1l25.264-14.588q12.632-7.294 25.278-14.6c3.473-2.005 9.003-2.094 12.3-.191z"/><path d="M288.691 1920.307q12.968 7.489 25.947 14.979t25.955 14.989a4.542 4.542 0 012.153 3.45v201.395q-14.057-8.113-28.105-16.227l-28.1-16.225v-201.394c0-1.205.969-1.646 2.153-.965z" fill="#2950af" fill-rule="evenodd"/><path class="i" d="M293.108 2010.128q6.523 3.764 13.053 7.537a1.9 1.9 0 01.91 1.467v3.044c0 .512-.41.7-.91.413q-6.533-3.771-13.053-7.537a1.93 1.93 0 01-.91-1.467v-3.044c0-.537.41-.707.91-.413z"/><path class="j" d="M292.281 2035.374l22.356 12.906 22.361 12.909a2.349 2.349 0 011.123 1.811v82.95c0 .634-.507.851-1.123.5q-11.185-6.457-22.361-12.916l-22.356-12.9a2.354 2.354 0 01-1.12-1.8v-82.944c0-.653.507-.87 1.12-.516z"/><path class="k" d="M292.281 2035.006l22.356 12.907q11.178 6.452 22.356 12.909a3.089 3.089 0 011.047 1.054 2.576 2.576 0 01.434 1.332v82.95a.871.871 0 01-.434.835 1.214 1.214 0 01-1.047-.156q-11.18-6.455-22.356-12.911l-22.356-12.908a3.312 3.312 0 01-1.047-1.054 2.7 2.7 0 01-.434-1.332v-82.949a.824.824 0 01.434-.832 1.154 1.154 0 011.047.156zm44.712 26.554q-11.185-6.459-22.361-12.909l-22.351-12.907a.6.6 0 00-.535-.085.442.442 0 00-.226.441v82.948a1.373 1.373 0 00.226.684 1.584 1.584 0 00.535.533l22.356 12.907q11.178 6.452 22.361 12.911a.6.6 0 00.535.085.429.429 0 00.226-.42v-82.95a1.372 1.372 0 00-.226-.7 1.583 1.583 0 00-.535-.533z"/><path class="i" d="M293.946 2040.38q10.34 5.971 20.693 11.947t20.7 11.949v77.168l-20.7-11.95-20.693-11.951v-77.163z"/><path class="k" d="M288.692 1919.904q12.967 7.488 25.947 14.979l25.955 14.984a5.48 5.48 0 011.776 1.823 4.512 4.512 0 01.745 2.245v201.741q-14.245-8.217-28.476-16.433t-28.452-16.43v-201.744a1.418 1.418 0 01.729-1.394 1.963 1.963 0 011.776.229zm51.899 30.739q-12.976-7.493-25.954-14.981l-25.948-14.98a1.439 1.439 0 00-1.264-.2 1.011 1.011 0 00-.528 1v201.028q13.866 8 27.74 16.017t27.746 16.016v-201.02a3.235 3.235 0 00-.524-1.611 3.844 3.844 0 00-1.269-1.264z"/><path class="l" d="M292.941 1928.593l21.627 12.485 21.637 12.491a1.58 1.58 0 01.752 1.21v27.975c0 .429-.337.564-.752.323l-21.637-12.493-21.627-12.485a1.542 1.542 0 01-.745-1.186v-27.975c0-.429.337-.582.745-.347z"/><path class="k" d="M292.945 1928.228l21.63 12.484q10.81 6.24 21.632 12.49a2.322 2.322 0 01.785.781 2.1 2.1 0 01.323 1v27.979a.622.622 0 01-.323.611.871.871 0 01-.785-.106q-10.817-6.247-21.632-12.489l-21.63-12.486a2.412 2.412 0 01-.785-.8 1.961 1.961 0 01-.325-.983v-27.976a.669.669 0 01.325-.63.887.887 0 01.785.127zm43.262 25.709q-10.817-6.245-21.632-12.486l-21.63-12.485a.355.355 0 00-.281-.038.248.248 0 00-.113.222v27.976a.8.8 0 00.113.351.965.965 0 00.281.264l21.63 12.484 21.632 12.489a.39.39 0 00.281.059.248.248 0 00.113-.222v-27.975a.793.793 0 00-.113-.351.973.973 0 00-.281-.283z"/><path class="m" d="M292.948 1967.667q10.81 6.24 21.627 12.487l21.632 12.487a1.58 1.58 0 01.752 1.21v27.957c0 .429-.337.582-.752.344q-10.817-6.243-21.632-12.489l-21.627-12.485a1.58 1.58 0 01-.752-1.21v-27.957c0-.429.337-.582.752-.344z"/><path class="k" d="M292.945 1967.299q10.81 6.24 21.627 12.487l21.635 12.487a2.322 2.322 0 01.785.781 1.972 1.972 0 01.323 1v27.957a.633.633 0 01-.323.63.881.881 0 01-.785-.127q-10.817-6.244-21.632-12.482t-21.63-12.491a2.343 2.343 0 01-.785-.781 1.967 1.967 0 01-.325-1v-27.959a.629.629 0 01.325-.63.893.893 0 01.785.125zm43.262 25.709q-10.817-6.243-21.632-12.489l-21.63-12.487a.286.286 0 00-.281-.038c-.068.021-.113.1-.113.222v27.957a.661.661 0 00.113.351.787.787 0 00.281.283l21.63 12.485 21.632 12.489a.292.292 0 00.281.038c.068-.024.113-.1.113-.222v-27.957a.668.668 0 00-.113-.351.787.787 0 00-.281-.283zm-49.311-33.248a.751.751 0 01-.358-.575c0-.2.16-.276.358-.16l27.74 16.017 27.747 16.019a.744.744 0 01.358.575c0 .205-.16.276-.358.16l-27.747-16.019q-13.87-8.005-27.74-16.017zm0 39.441a.751.751 0 01-.358-.575c0-.205.16-.276.358-.16q13.866 8 27.74 16.017l27.747 16.019a.744.744 0 01.358.575c0 .205-.16.276-.358.163l-27.747-16.02q-13.866-8-27.74-16.017z"/><path class="l" d="M295.606 2043.139q9.512 5.493 19.031 10.987t19.038 10.989v73.591q-9.523-5.5-19.038-10.992t-19.031-10.989v-73.586z"/><path class="m" d="M294.792 2012.22q4.843 2.794 9.683 5.591a1.033 1.033 0 01.491.795v1.634c0 .288-.224.382-.491.229q-4.843-2.794-9.683-5.591a1.033 1.033 0 01-.491-.795v-1.637c.001-.282.222-.379.491-.226z"/><g transform="translate(294.302 2012.148)" clip-path="url(#b)"><path d="M-213.126 55.885a.287.287 0 01-.288-.288.287.287 0 01.288-.288h14.421a.287.287 0 01.288.288.287.287 0 01-.288.288z" fill="#d4492a"/></g><path d="M294.792 2012.22q4.843 2.794 9.683 5.591a1.033 1.033 0 01.491.795v1.634c0 .288-.224.382-.491.229q-4.843-2.794-9.683-5.591a1.033 1.033 0 01-.491-.795v-1.637c.001-.282.222-.379.491-.226z" fill="none" fill-rule="evenodd"/><path class="i" d="M328.432 2027.453l7.749 4.474a1.875 1.875 0 01.894 1.436v10.666c0 .512-.406.686-.894.4l-7.749-4.474a1.876 1.876 0 01-.9-1.439v-10.665c0-.509.406-.684.9-.4z"/><path class="k" d="M328.432 2027.226q3.87 2.232 7.749 4.474a2.358 2.358 0 01.781.776 1.943 1.943 0 01.328 1.009v10.666a.605.605 0 01-.328.606.866.866 0 01-.781-.1l-7.749-4.474a2.411 2.411 0 01-.785-.8 1.956 1.956 0 01-.323-.983v-10.672a.631.631 0 01.323-.63.881.881 0 01.785.128zm7.749 4.9l-7.749-4.474a.564.564 0 00-.483-.075.408.408 0 00-.205.391v10.668a1.216 1.216 0 00.205.608 1.5 1.5 0 00.483.483q3.87 2.232 7.749 4.474a.564.564 0 00.483.075.389.389 0 00.2-.375v-10.665a1.3 1.3 0 00-.2-.625 1.48 1.48 0 00-.483-.483z"/><path class="m" d="M327.743 2029.261q4.56 2.632 9.119 5.266v3.311q-4.56-2.632-9.119-5.266v-3.311z"/><path d="M297.964 1983.927q8.3 4.79 16.611 9.591t16.618 9.593a2.84 2.84 0 011.342 2.165c0 .757-.6 1.04-1.342.613l-16.618-9.593q-8.3-4.79-16.611-9.591a2.857 2.857 0 01-1.349-2.17c0-.755.608-1.038 1.349-.611zm0-5.332q8.3 4.79 16.611 9.591l16.618 9.593a2.81 2.81 0 011.342 2.165c0 .755-.6 1.04-1.342.613l-16.618-9.593q-8.3-4.79-16.611-9.591a2.857 2.857 0 01-1.349-2.17c0-.776.608-1.038 1.349-.611zm0 10.667c2.549 1.472 5.113 2.95 7.662 4.424s5.113 2.952 7.669 4.426a2.862 2.862 0 011.354 2.17c0 .776-.615 1.038-1.354.611q-3.834-2.214-7.669-4.426c-2.552-1.472-5.113-2.952-7.662-4.424a2.822 2.822 0 01-1.349-2.17c0-.758.609-1.038 1.349-.611zm21.809 12.592q5.773 3.329 11.546 6.664a2.857 2.857 0 011.349 2.17c0 .776-.608 1.038-1.349.611l-11.546-6.664a2.812 2.812 0 01-1.344-2.165c0-.757.6-1.04 1.344-.613z" fill="#d4492a" fill-rule="evenodd"/><path class="g" d="M331.316 1972.245q-8.309-4.8-16.616-9.593l-16.611-9.589a2.847 2.847 0 01-1.344-2.165c0-.776.6-1.04 1.344-.613l16.611 9.589 16.616 9.593a2.813 2.813 0 011.344 2.167c0 .755-.6 1.04-1.344.613zm.001-5.354q-3.834-2.211-7.669-4.426l-7.662-4.422a2.826 2.826 0 01-1.349-2.17c0-.757.611-1.038 1.349-.611l7.662 4.422q3.827 2.207 7.669 4.426a2.843 2.843 0 011.344 2.165c0 .778-.6 1.04-1.344.615zm-21.809-12.59q-5.769-3.332-11.546-6.664a2.822 2.822 0 01-1.349-2.17c0-.755.608-1.038 1.349-.611l11.546 6.664a2.843 2.843 0 011.344 2.165c0 .776-.6 1.04-1.344.613zm21.808 7.257q-8.309-4.8-16.616-9.595l-16.611-9.588a2.847 2.847 0 01-1.344-2.165c0-.757.6-1.04 1.344-.613l16.611 9.591 16.616 9.593a2.843 2.843 0 011.344 2.165c0 .755-.6 1.04-1.344.613z"/><path d="M348.607 1885.384q12.872 7.432 25.752 14.864l25.74 14.864c1.573.908 1.519 2.434-.125 3.384q-13.467 7.775-26.933 15.545t-26.934 15.553a6.512 6.512 0 01-5.86.073q-12.872-7.432-25.74-14.864t-25.752-14.864c-1.573-.908-1.507-2.427.137-3.377l26.933-15.55 26.933-15.55a6.483 6.483 0 015.846-.08z" fill="#17449c" fill-rule="evenodd"/><path class="j" d="M345.859 1949.73q13.583-7.839 27.167-15.684l27.174-15.687c1.514-.873 2.759.229 2.757 2.417q-.113 49.508-.222 98.729l-.219 97.972c0 2.148-1.25 4.622-2.752 5.49l-26.964 15.567-26.96 15.566c-1.5.868-2.726-.179-2.726-2.325v-196.446c0-2.186 1.233-4.721 2.747-5.594z"/></g></svg>