<svg xmlns="http://www.w3.org/2000/svg" width="960" height="762"><defs><filter id="b" x="275.261" y="-237.495" width="268.391" height="268.391" filterUnits="userSpaceOnUse"><feOffset/><feGaussianBlur stdDeviation="2.475" result="c"/><feFlood flood-opacity=".251"/><feComposite operator="in" in2="c"/><feComposite in="SourceGraphic"/></filter><filter id="d" x="413.562" y="-99.195" width="268.391" height="268.391" filterUnits="userSpaceOnUse"><feOffset/><feGaussianBlur stdDeviation="2.475" result="e"/><feFlood flood-opacity=".251"/><feComposite operator="in" in2="e"/><feComposite in="SourceGraphic"/></filter><filter id="f" x="551.862" y="39.105" width="268.391" height="268.391" filterUnits="userSpaceOnUse"><feOffset/><feGaussianBlur stdDeviation="2.475" result="g"/><feFlood flood-opacity=".251"/><feComposite operator="in" in2="g"/><feComposite in="SourceGraphic"/></filter><filter id="h" x="690.163" y="177.406" width="268.391" height="268.391" filterUnits="userSpaceOnUse"><feOffset/><feGaussianBlur stdDeviation="2.475" result="i"/><feFlood flood-opacity=".251"/><feComposite operator="in" in2="i"/><feComposite in="SourceGraphic"/></filter><filter id="j" x="136.961" y="-99.195" width="268.391" height="268.391" filterUnits="userSpaceOnUse"><feOffset/><feGaussianBlur stdDeviation="2.475" result="k"/><feFlood flood-opacity=".251"/><feComposite operator="in" in2="k"/><feComposite in="SourceGraphic"/></filter><filter id="l" x="275.262" y="39.106" width="268.391" height="268.391" filterUnits="userSpaceOnUse"><feOffset/><feGaussianBlur stdDeviation="2.475" result="m"/><feFlood flood-opacity=".251"/><feComposite operator="in" in2="m"/><feComposite in="SourceGraphic"/></filter><filter id="n" x="413.562" y="177.406" width="268.391" height="268.391" filterUnits="userSpaceOnUse"><feOffset/><feGaussianBlur stdDeviation="2.475" result="o"/><feFlood flood-opacity=".251"/><feComposite operator="in" in2="o"/><feComposite in="SourceGraphic"/></filter><filter id="p" x="551.862" y="315.697" width="268.391" height="268.391" filterUnits="userSpaceOnUse"><feOffset/><feGaussianBlur stdDeviation="2.475" result="q"/><feFlood flood-opacity=".251"/><feComposite operator="in" in2="q"/><feComposite in="SourceGraphic"/></filter><filter id="r" x="-1.33" y="39.106" width="268.391" height="268.391" filterUnits="userSpaceOnUse"><feOffset/><feGaussianBlur stdDeviation="2.475" result="s"/><feFlood flood-opacity=".251"/><feComposite operator="in" in2="s"/><feComposite in="SourceGraphic"/></filter><filter id="t" x="136.961" y="177.406" width="268.391" height="268.391" filterUnits="userSpaceOnUse"><feOffset/><feGaussianBlur stdDeviation="2.475" result="u"/><feFlood flood-opacity=".251"/><feComposite operator="in" in2="u"/><feComposite in="SourceGraphic"/></filter><filter id="v" x="275.261" y="315.698" width="268.391" height="268.391" filterUnits="userSpaceOnUse"><feOffset/><feGaussianBlur stdDeviation="2.475" result="w"/><feFlood flood-opacity=".251"/><feComposite operator="in" in2="w"/><feComposite in="SourceGraphic"/></filter><filter id="x" x="413.562" y="453.998" width="268.391" height="268.391" filterUnits="userSpaceOnUse"><feOffset/><feGaussianBlur stdDeviation="2.475" result="y"/><feFlood flood-opacity=".251"/><feComposite operator="in" in2="y"/><feComposite in="SourceGraphic"/></filter><filter id="z" x="-139.631" y="177.406" width="268.391" height="268.391" filterUnits="userSpaceOnUse"><feOffset/><feGaussianBlur stdDeviation="2.475" result="aa"/><feFlood flood-opacity=".251"/><feComposite operator="in" in2="aa"/><feComposite in="SourceGraphic"/></filter><filter id="ab" x="-1.33" y="315.697" width="268.391" height="268.391" filterUnits="userSpaceOnUse"><feOffset/><feGaussianBlur stdDeviation="2.475" result="ac"/><feFlood flood-opacity=".251"/><feComposite operator="in" in2="ac"/><feComposite in="SourceGraphic"/></filter><filter id="ad" x="136.961" y="453.998" width="268.391" height="268.391" filterUnits="userSpaceOnUse"><feOffset/><feGaussianBlur stdDeviation="2.475" result="ae"/><feFlood flood-opacity=".251"/><feComposite operator="in" in2="ae"/><feComposite in="SourceGraphic"/></filter><filter id="af" x="275.262" y="592.289" width="268.391" height="268.391" filterUnits="userSpaceOnUse"><feOffset/><feGaussianBlur stdDeviation="2.475" result="ag"/><feFlood flood-opacity=".251"/><feComposite operator="in" in2="ag"/><feComposite in="SourceGraphic"/></filter><filter id="ah" x="828.454" y="316.858" width="268.391" height="268.391" filterUnits="userSpaceOnUse"><feOffset/><feGaussianBlur stdDeviation="2.475" result="ai"/><feFlood flood-opacity=".251"/><feComposite operator="in" in2="ai"/><feComposite in="SourceGraphic"/></filter><filter id="aj" x="690.729" y="454.573" width="268.391" height="268.391" filterUnits="userSpaceOnUse"><feOffset/><feGaussianBlur stdDeviation="2.475" result="ak"/><feFlood flood-opacity=".251"/><feComposite operator="in" in2="ak"/><feComposite in="SourceGraphic"/></filter><filter id="al" x="552.438" y="592.865" width="268.391" height="268.391" filterUnits="userSpaceOnUse"><feOffset/><feGaussianBlur stdDeviation="2.475" result="am"/><feFlood flood-opacity=".251"/><feComposite operator="in" in2="am"/><feComposite in="SourceGraphic"/></filter><filter id="an" x="414.138" y="731.175" width="268.391" height="268.391" filterUnits="userSpaceOnUse"><feOffset/><feGaussianBlur stdDeviation="2.475" result="ao"/><feFlood flood-opacity=".251"/><feComposite operator="in" in2="ao"/><feComposite in="SourceGraphic"/></filter><clipPath id="a"><path transform="translate(0 3532)" fill="#08243b" d="M0 0h960v762H0z"/></clipPath><style>.c,.h{fill:#fff}.d{fill:#62b3e5}.e,.f,.g,.h,.i,.j,.k,.l,.m,.n,.o,.p{fill-rule:evenodd}.f{fill:#e60004}.g{fill:#c1c3c6}.i{fill:#35bdb2}.j{fill:#ed1749}.k{fill:#a0ce63}.l{fill:#ad208e}.m{fill:#f78f1e}.n{fill:#00a4e4}.o{fill:#fd0}.p{fill:#231e20}.q,.r{fill:#1d1d1b;font-family:Circe-Bold,Circe;font-weight:700}.q{font-size:26px}.r{font-size:35px}</style></defs><g transform="translate(0 -3532)" clip-path="url(#a)"><g transform="translate(0 3532)" filter="url(#b)"><path class="c" d="M438.272-201.258l69.146 69.146a40.746 40.746 0 010 57.623L438.272-5.343a40.746 40.746 0 01-57.624 0l-69.146-69.146a40.746 40.746 0 01-.002-57.62l69.145-69.146a40.747 40.747 0 0157.63 0z"/></g><g transform="translate(0 3532)" filter="url(#d)"><path class="c" d="M576.572-62.958l69.146 69.146a40.746 40.746 0 010 57.623l-69.146 69.146a40.746 40.746 0 01-57.624 0l-69.146-69.146a40.746 40.746 0 01-.002-57.62l69.145-69.146a40.747 40.747 0 0157.63 0z"/></g><g transform="translate(0 3532)" filter="url(#f)"><path class="c" d="M714.872 75.342l69.146 69.146a40.746 40.746 0 010 57.623l-69.146 69.146a40.746 40.746 0 01-57.624 0l-69.146-69.146a40.746 40.746 0 01-.002-57.62l69.145-69.146a40.747 40.747 0 0157.63 0z"/></g><g transform="translate(0 3532)" filter="url(#h)"><path class="c" d="M853.172 213.642l69.146 69.146a40.746 40.746 0 010 57.623l-69.146 69.146a40.746 40.746 0 01-57.624 0l-69.146-69.146a40.746 40.746 0 01-.002-57.62l69.145-69.146a40.747 40.747 0 0157.63 0z"/></g><g transform="translate(0 3532)" filter="url(#j)"><path class="c" d="M299.972-62.958l69.146 69.146a40.746 40.746 0 010 57.623l-69.146 69.146a40.746 40.746 0 01-57.624 0l-69.146-69.146a40.746 40.746 0 01-.002-57.62l69.145-69.146a40.747 40.747 0 0157.63 0z"/></g><g transform="translate(0 3532)" filter="url(#l)"><path class="c" d="M438.272 75.342l69.146 69.146a40.746 40.746 0 010 57.623l-69.146 69.146a40.746 40.746 0 01-57.624 0l-69.146-69.146a40.746 40.746 0 01-.002-57.62l69.145-69.146a40.747 40.747 0 0157.63 0z"/></g><g transform="translate(0 3532)" filter="url(#n)"><path class="c" d="M576.572 213.642l69.146 69.146a40.746 40.746 0 010 57.623l-69.146 69.146a40.746 40.746 0 01-57.624 0l-69.146-69.146a40.746 40.746 0 01-.002-57.62l69.145-69.146a40.747 40.747 0 0157.63 0z"/></g><g transform="translate(0 3532)" filter="url(#p)"><path class="c" d="M714.872 351.932l69.146 69.146a40.746 40.746 0 010 57.623l-69.146 69.146a40.746 40.746 0 01-57.624 0l-69.146-69.146a40.746 40.746 0 01-.002-57.62l69.145-69.146a40.747 40.747 0 0157.63 0z"/></g><g transform="translate(0 3532)" filter="url(#r)"><path class="c" d="M161.682 75.342l69.146 69.146a40.746 40.746 0 010 57.623l-69.146 69.146a40.746 40.746 0 01-57.624 0l-69.146-69.146a40.746 40.746 0 01-.002-57.62l69.145-69.146a40.747 40.747 0 0157.63 0z"/></g><g transform="translate(0 3532)" filter="url(#t)"><path class="c" d="M299.972 213.642l69.146 69.146a40.746 40.746 0 010 57.623l-69.146 69.146a40.746 40.746 0 01-57.624 0l-69.146-69.146a40.746 40.746 0 01-.002-57.62l69.145-69.146a40.747 40.747 0 0157.63 0z"/></g><g transform="translate(0 3532)" filter="url(#v)"><path class="c" d="M438.272 351.932l69.146 69.146a40.746 40.746 0 010 57.623l-69.146 69.146a40.746 40.746 0 01-57.624 0l-69.146-69.146a40.746 40.746 0 01-.002-57.62l69.145-69.146a40.747 40.747 0 0157.63 0z"/></g><g transform="translate(0 3532)" filter="url(#x)"><path class="c" d="M576.572 490.232l69.146 69.146a40.746 40.746 0 010 57.623l-69.146 69.146a40.746 40.746 0 01-57.624 0l-69.146-69.146a40.746 40.746 0 01-.002-57.62l69.145-69.146a40.747 40.747 0 0157.63 0z"/></g><g transform="translate(0 3532)" filter="url(#z)"><path class="c" d="M23.372 213.642l69.146 69.146a40.746 40.746 0 010 57.623l-69.146 69.146a40.746 40.746 0 01-57.624 0l-69.146-69.146a40.746 40.746 0 01-.002-57.62l69.145-69.146a40.747 40.747 0 0157.63 0z"/></g><g transform="translate(0 3532)" filter="url(#ab)"><path class="c" d="M161.682 351.932l69.146 69.146a40.746 40.746 0 010 57.623l-69.146 69.146a40.746 40.746 0 01-57.624 0l-69.146-69.146a40.746 40.746 0 01-.002-57.62l69.145-69.146a40.747 40.747 0 0157.63 0z"/></g><g transform="translate(0 3532)" filter="url(#ad)"><path class="c" d="M299.972 490.232l69.146 69.146a40.746 40.746 0 010 57.623l-69.146 69.146a40.746 40.746 0 01-57.624 0l-69.146-69.146a40.746 40.746 0 01-.002-57.62l69.145-69.146a40.747 40.747 0 0157.63 0z"/></g><g transform="translate(0 3532)" filter="url(#af)"><path class="c" d="M438.272 628.532l69.146 69.146a40.746 40.746 0 010 57.623l-69.146 69.146a40.746 40.746 0 01-57.624 0l-69.146-69.146a40.746 40.746 0 01-.002-57.62l69.145-69.146a40.747 40.747 0 0157.63 0z"/></g><g transform="translate(0 3532)" filter="url(#ah)"><path class="c" d="M991.462 353.092l69.146 69.146a40.746 40.746 0 010 57.623l-69.146 69.146a40.746 40.746 0 01-57.624 0l-69.146-69.146a40.746 40.746 0 01-.002-57.62l69.145-69.146a40.747 40.747 0 0157.63 0z"/></g><g transform="translate(0 3532)" filter="url(#aj)"><path class="c" d="M853.742 490.812l69.146 69.146a40.746 40.746 0 010 57.623l-69.146 69.146a40.746 40.746 0 01-57.624 0l-69.146-69.146a40.746 40.746 0 01-.002-57.62l69.145-69.146a40.747 40.747 0 0157.63 0z"/></g><g transform="translate(0 3532)" filter="url(#al)"><path class="c" d="M715.442 629.102l69.146 69.146a40.746 40.746 0 010 57.623l-69.146 69.146a40.746 40.746 0 01-57.624 0l-69.146-69.146a40.746 40.746 0 01-.002-57.62l69.145-69.146a40.747 40.747 0 0157.63 0z"/></g><g transform="translate(0 3532)" filter="url(#an)"><path class="c" d="M577.142 767.412l69.146 69.146a40.746 40.746 0 010 57.623l-69.146 69.146a40.746 40.746 0 01-57.624 0l-69.146-69.146a40.746 40.746 0 01-.002-57.62l69.145-69.146a40.747 40.747 0 0157.63 0z"/></g><path class="d" d="M392.069 3422.384c-2.805 3.05-2.978 6.717.098 9.793a6.176 6.176 0 006.47 1.795l6.79 6.788c-6.25 3.642-13.136 1.035-18.083-3.911-7.208-7.209-7.897-16.312-.763-23.446 6.544-6.544 16.631-5.805 23.15.714 7.92 7.92 6.123 17.637-1.451 24.529l-16.237-16.237zm12.87 5.091a6.2 6.2 0 00.048-8.66c-2.559-2.559-6.024-2.488-9.052-.343zm42.537 24.331c6.913 6.913 6.888 16.68.47 23.098s-16.114 6.42-23.052-.517-6.866-16.56-.445-22.98 16.138-6.49 23.027.399zm-17.222 17.222c3.394 3.394 7.678 1.231 10.384-1.475 2.682-2.682 4.871-7.036 1.499-10.408-3.394-3.394-7.627-1.181-10.358 1.55-2.756 2.759-4.923 6.94-1.528 10.335zm-48.765-72.23l-4.455-4.455-9.546 9.546c-1.746 1.747-1.107 3.124.493 4.724.59.59 1.3 1.159 1.94 1.799l-5.29 5.29c-1.353-1.256-2.854-2.412-4.181-3.739-6.175-6.175-5.982-9.517.025-15.524l9.328-9.327-3.666-3.666 4.675-4.675 3.668 3.669 7.16-7.16 7.23 7.23-7.16 7.16 4.455 4.455zm15.645 2.457l-7.206-7.206 5.213-5.213 7.208 7.209zm-9.198-5.262l7.233 7.233-21.724 21.724-7.209-7.21zm42.34 51.591l-4.454-4.455-9.546 9.546c-1.747 1.747-1.107 3.124.467 4.7.59.59 1.3 1.158 1.94 1.798l-5.29 5.29c-1.352-1.255-2.853-2.411-4.18-3.739-6.176-6.175-5.982-9.517.025-15.523l9.327-9.327-3.668-3.668 4.675-4.675 3.616 3.616 7.16-7.159 7.257 7.258-7.16 7.16 4.455 4.454z"/><path class="e" d="M627.052 3655.703l17.895 17.895-1.491 1.576-17.905-17.905zm24.071 24.532c.459-.472 1.64-1.897 2.178-1.973a8.1 8.1 0 002.2-.459c1.79-.596 2.832-1.81 4.308-3.286.688-.688 8.126-8.233 8.676-8.623l1.487 1.508c-.419.571-8.667 8.71-9.409 9.454-2.446 2.446-4.038 3.249-7.135 3.561a6.386 6.386 0 01-2.304-.182zm-11.27 3.335c3.04-3.115 6.18-6.179 9.258-9.257 1.888-1.888 4.491-3.402 6.942-3.368a8.11 8.11 0 012.3.179 11.973 11.973 0 01-2.119 2 4.688 4.688 0 01-.546.031c-2.593.257-4.052 1.705-5.833 3.486l-8.486 8.485-1.514-1.55zm26.179-7.338l73.294 73.295-1.52 1.52-73.3-73.3 1.53-1.514zm-4.764-8.071c-.337.122-.323.022-.883-.16a13.418 13.418 0 00-12.985 3.137l-20.328-20.306-6.43 6.429 20.291 20.313c-.946.946-5.492 5.42-6.004 6.048l6.408 6.408 6.978-6.932c1.734.875 4.937.946 6.88.616a13.091 13.091 0 005.12-2.073c.587-.403 1.268-1.063 1.774-1.367l75.752 75.753 6.422-6.483-75.752-75.752 6.364-6.364c-.084-.253-5.728-5.787-6.406-6.464l-7.199 7.199z"/><path class="f" d="M664.506 3677.745l73.306 73.305 1.52-1.52-73.293-73.292z"/><path class="e" d="M668.28 3703.699a33.422 33.422 0 01-1.463 3.052c-1.661 3.488-1.867 2.628-.485 3.98l6.066-2.907c-.831.83-6.34 6.225-6.592 6.667l1.663 1.663c.716-.41 4.705-4.63 5.624-5.549.959-.959 4.955-5.054 5.61-5.588l-1.737-1.738c-.267-.172-3.776 1.788-4.073 1.937-1.366.694-2.794 1.38-4.09 2.09a9.517 9.517 0 011.016-2.096l3.065-6.025-1.824-1.78-11.14 11.171 1.721 1.721zm16.032 19.087l-2.703 2.703c-.44.44-.852.703-1.333.331-.391-.303-.938-.796-.925-1.252.016-.54 1.814-2.214 2.332-2.665.743-.644 1.606.142 2.629.883zm1.03-4.577c1.242-.972 1.35-2.088 2.742-.652.933.963-.024 1.492-1.287 2.752-.495.495-.854.54-1.402.212-.45-.265-.913-.63-1.349-.913-2.59-1.689-3.975.458-5.427 1.91-2.05 2.05-2.727 3.07-.335 5.463l2.654 2.654c.565-.364 9.461-9.332 9.743-9.823 1.034-1.794-.32-3.43-2.125-4.902a2.578 2.578 0 00-2.492-.448 7.428 7.428 0 00-2.41 2.054zm-26.585-14.848c-.97.575-2.077-.968-1.892-1.487.155-.437 4.126-4.266 4.77-4.91a30.71 30.71 0 012.524-2.47c.748-.466 2.068.873 1.782 1.587-.198.475-6.87 7.096-7.184 7.28zm3.697-10.702l-7.32 7.322a2.659 2.659 0 00-.032 3.812l1.464 1.465a2.624 2.624 0 003.752.03l7.442-7.442a2.658 2.658 0 00.748-2.257 3.853 3.853 0 00-1.493-2.241 3.8 3.8 0 00-2.242-1.479 2.649 2.649 0 00-2.32.792zm59.452 55.577c-.722.565-5.776 5.739-6.898 6.86-.873.874-2.784 2.485-3.087 3.491-.41 1.36.11 2.136 1.425 3.45 3.028 3.029 4.168.98 6.936-1.787 1.103-1.104 6.238-6.12 6.804-6.841l-1.724-1.677c-.557.415-6.841 6.804-7.912 7.875-1.344 1.344-1.547 1.884-2.612.812-1.132-1.131-.1-1.61.917-2.627 1.18-1.18 7.26-7.166 7.842-7.871zm-28.819-24.337c.461-.461.88-.432 1.328.015 1.498 1.498.54 1.356-.577 2.779l1.706 1.706 1.28-1.252a2.674 2.674 0 00.033-3.965l-1.282-1.282a2.687 2.687 0 00-3.979.019c-3.146 3.146-3.985 3.42-1.597 6.988.835 1.248.2 1.394-1.804 3.4-.457.457-.925.538-1.387.075-1.48-1.48-.583-1.397.577-2.81l-1.703-1.702-1.284 1.248a2.64 2.64 0 00-.059 3.902l1.405 1.404a2.641 2.641 0 003.889-.07c3.426-3.428 4.557-3.755 2.061-7.4-.846-1.228-.396-1.266 1.393-3.055zm-.751 10.634a5 5 0 00-2.193 3.165c-.05 1.21.933 2.065 2.003 3.145 2.592 2.608 4.4-.105 6.27-1.968 1.202-1.202 1.456-1.914 1.116-3.126-.263-.957-1.663-2.54-1.603-3.11.051-.483.915-1.18 1.321-1.586.477-.477.936-1.056 1.52-.717.565.328 1.17 1.07 1.035 1.511a8.125 8.125 0 01-1.316 1.513l1.702 1.702c1.138-.893 2.128-2.026 2.191-3.156.068-1.184-.868-2.05-1.918-3.102-2.587-2.587-4.368-.166-6.299 1.85-2.709 2.837 1.741 4.924.674 6.306-.346.444-1.143 1.144-1.571 1.581a4.063 4.063 0 01-.782.715.861.861 0 01-.727.037c-.543-.278-1.162-1.052-1.041-1.534s.957-1.083 1.31-1.519zm28.248 28.24c-3.362 2.768-2.414 4.073-.217 6.288a2.743 2.743 0 003.144.893c.867-.352 2.375-2.083 3.142-2.845 1.17-1.17 1.465-1.909 1.123-3.143-.264-.956-1.657-2.485-1.598-3.111.049-.506.912-1.17 1.313-1.57.52-.521.926-1.055 1.508-.722.532.307 1.163 1 1.05 1.496-.124.548-.907 1.063-1.311 1.54l1.726 1.68c1.04-.925 2.15-1.934 2.134-3.098-.02-1.496-.582-1.832-1.844-3.097-1.069-1.069-2.065-1.389-3.154-1.005-.918.32-2.32 1.968-3.117 2.761a2.64 2.64 0 00-.687 3.174c.576 1.376 1.89 2.29 1.343 3.111a17.177 17.177 0 01-1.553 1.602c-1.08 1.08-1.335 1.238-2.401.043-.798-.899.523-1.59 1.086-2.307l-1.69-1.69zM710.488 3740c.849.697 1.897 1.522 1.054 2.365-2.783 2.783-2.504 3.137-4.427 1.01zm-4.98 4.981c1.682 1.25 1.718 2.485 3.818 2.29 1.28-.12 2.698-1.915 3.769-2.986 1.017-1.017 1.873-2.246.954-3.759a44.3 44.3 0 00-3.73-3.836c-.82.82-10.736 10.595-11.173 11.248a9.253 9.253 0 011.709 1.618c.603-.397 3.873-3.796 4.659-4.581zm-24.87-34.844c.918.754 1.9 1.514.99 2.425-2.703 2.703-2.45 3.065-4.364.95zm-4.981 4.98c1.559 1.158 1.874 2.466 3.761 2.297 1.389-.126 2.711-1.905 3.814-3.008 1.016-1.016 1.927-2.238.92-3.812a44.1 44.1 0 00-3.681-3.77l-11.166 11.167 1.738 1.738zm-22.054-19.253c-.63.488-1.187 1.47-1.89 1.273-.223-.061-1.478-.927-1.158-1.672.173-.393 7-7.214 7.377-7.376.567-.24 1.577.642 1.677 1.212.11.624-.79 1.304-1.34 1.854l1.736 1.714c1.287-1.287 2.275-2.036 2.134-3.51-.12-1.261-1.787-2.853-2.625-3.426a2.7 2.7 0 00-3.525.507l-7.02 7.02c-2.369 2.36-.174 4.053 1.114 5.323a2.655 2.655 0 003.575.385 14.978 14.978 0 001.636-1.645l-1.702-1.67z"/><path class="g" d="M625.555 3657.269l17.903 17.903 1.491-1.576-17.896-17.896zm25.567 22.965a6.393 6.393 0 002.305.183c3.096-.313 4.691-1.12 7.133-3.562.741-.741 8.994-8.885 9.41-9.454l-1.484-1.506c-.55.39-7.987 7.935-8.675 8.623-1.475 1.475-2.516 2.689-4.309 3.286a8.086 8.086 0 01-2.199.46c-.544.076-1.717 1.5-2.178 1.973z"/><path class="f" d="M639.851 3683.57l1.515 1.552 8.485-8.486c1.78-1.78 3.24-3.228 5.834-3.485a4.711 4.711 0 00.546-.031 11.941 11.941 0 002.12-2 8.1 8.1 0 00-2.302-.18c-2.448-.033-5.055 1.48-6.94 3.37-3.08 3.08-6.215 6.143-9.257 9.257z"/><path class="e" d="M705.59 3754.287l4.149 4.149 1.57-1.571-2.422-2.424 9.594-9.62-1.732-1.691z"/><path class="h" d="M658.753 3703.361c.316-.187 6.993-6.81 7.18-7.282.288-.711-1.034-2.054-1.783-1.588a31.084 31.084 0 00-2.524 2.47c-.643.643-4.608 4.48-4.769 4.91-.177.525.93 2.07 1.896 1.49zm25.567 19.425c-1.03-.739-1.888-1.524-2.63-.878-.518.45-2.315 2.125-2.33 2.665-.013.457.532.95.925 1.252.478.371.892.11 1.331-.333l2.704-2.706zm22.749 20.542c1.923 2.125 1.643 1.772 4.426-1.011.844-.845-.206-1.67-1.051-2.364zm-29.806-29.813c1.912 2.115 1.66 1.754 4.365-.951.91-.91-.077-1.673-.992-2.426z"/><path class="i" d="M922.529 3952.854a26.87 26.87 0 013.801-3.801c2.992-1.772 5.654 3.484.774 4.855-2.112.59-3.016-.33-4.011-.683a8.928 8.928 0 004.011 2.049 10.7 10.7 0 004.053 0 9.383 9.383 0 005.901-14.065 10.977 10.977 0 00-.94-1.21l-6.989-6.99a7.993 7.993 0 00-2.057 2.991c-1.181 2.778-.843 7.04 1.091 8.974l-.193.193a8.618 8.618 0 00-4.631-1.785 9.325 9.325 0 00-4.633.815c-1.78.765-2.9 2.128-4.634 3.861l-4.728 4.729c3.537 2.995 7.722 3.555 11.482 1.334.662-.39 1.213-.986 1.697-1.273z"/><path class="j" d="M989.882 3995.394c-.724.226-1.432.875-2.177 1.168a9.3 9.3 0 01-11.752-4.115c-.217-.4-.792-1.895-.871-1.983-.21-.232-6.103-1.74-5.43-6.508a4.7 4.7 0 013.001-3.645 4.337 4.337 0 012.028-.257 6.943 6.943 0 011.868.536l.233.061c-4.53-3.99-13.194-1.828-14.806 4.852a8.679 8.679 0 00-.288 3.281c.766 7.086 6.495 7.605 6.952 8.578a9.508 9.508 0 001.52 2.906 9.317 9.317 0 009.732 3.316c4.234-1.302 6.31-4.51 9.99-8.19z"/><path class="k" d="M944.572 3961.767a11.892 11.892 0 01-2.663-3.573 4.7 4.7 0 013.531-5.944c1.868-.377 2.623.36 3.513.58-1.941-1.868-5.438-2.442-8.147-1.819a9.417 9.417 0 00-6.977 7.76c-.737 6.156 3.66 8.878 8.328 13.71.68.703.759 1.055 1.449.304a9.81 9.81 0 002.219-5.522c.297-2.277-.501-3.567-1.135-5.114l-.121-.386z"/><path class="l" d="M955.953 3975.08c1.83-1.829 4.084-3.44 6.87-1.625a4.531 4.531 0 011.966 4.904 10.587 10.587 0 01-.745 1.758c3.007-3.008 3.09-8.366.252-11.945l-1.473-1.473a9.478 9.478 0 00-2.817-1.53 9.365 9.365 0 00-4.053-.4 8.9 8.9 0 00-4.052 1.447c-1.785 1.162-6.202 5.997-8.106 7.9 1.488.924 2.843 2.602 6.08 2.66 4.138.07 5.053-1.333 6.08-1.698z"/><path class="m" d="M985.447 4001.376c.505-.147 1.185-.595 1.78-.731a4.754 4.754 0 015.068 2.323c1.614 2.87-.31 5.186-2.27 7.147l-.256.68a6.174 6.174 0 00-.787 2.025 9.133 9.133 0 001.994 8.317c.68.821.31.847 2.525-1.368 2.81-2.81 5.813-5.258 6.853-8.397a9.308 9.308 0 00-1.45-8.588l-1.576-1.577a9.7 9.7 0 00-.837-.6c-3.36-2.165-8.427-1.843-11.041.77z"/><path class="n" d="M925.23 3933.163c-1.017 2.298-2.267 2.807-4.301 2.454a9.4 9.4 0 01-7.527-7.534c-.352-2.013.182-3.293 2.447-4.302-1.299-.398-3.82.677-4.958 1.422a8.535 8.535 0 00-.771.572l-1.273 1.273a9.239 9.239 0 00-1.652 2.873 9.673 9.673 0 00-.355 4.923 9.906 9.906 0 002.617 4.87 9.359 9.359 0 0015.497-4 5.219 5.219 0 00.283-2.546z"/><path class="o" d="M1004.303 4021.308c-.469-.104-2.39-1.59-4.728-1.596a9.23 9.23 0 00-4.729.849l-2.334 1.527c-.571.602.265 1.007 1.66 2.402 2.888 2.888 5.528 6.366 9.457 7.105a9.126 9.126 0 004.73-.29c2.099-.744 2.702-1.316 4.729-3.343l4.728-4.728a18.025 18.025 0 00-1.737 1.012 9.8 9.8 0 01-5.02.893c-2.968-.41-4.181-1.257-6.756-3.831z"/><path class="p" d="M989.881 3995.395l.817-.817a7.822 7.822 0 00-2.895-2.046c-2.614-1.118-6.975-1.015-8.874.884l5.209-5.406a9.129 9.129 0 00-8.782-2.546 7 7 0 00-2.99 1.387l5.204-5.404-.796-.795-.232-.06a6.93 6.93 0 00-1.868-.537 4.356 4.356 0 00-2.028.259 4.7 4.7 0 00-3.002 3.645c-.67 4.772 5.219 6.276 5.43 6.508.082.089.654 1.581.872 1.982a9.3 9.3 0 0011.755 4.105c.74-.29 1.453-.938 2.176-1.17zm14.421 25.911c2.57 2.57 3.764 3.401 6.756 3.833a9.793 9.793 0 005.021-.893 17.81 17.81 0 011.737-1.014l.768-.767a9.235 9.235 0 00-11.093-1.635c-.206.12-.21.138-.386.229-.566.283.353-.148-.195.088-.025.01-.076.027-.095.033a.778.778 0 01-.096.033l5.306-5.307-6.658-6.658a9.459 9.459 0 00-1.47 11.29c.085.153.134.216.227.386l.1.193c.012.026.031.075.043.098a.486.486 0 01.036.093zm-18.86-19.936a9.3 9.3 0 00-3.012 4.784 9.442 9.442 0 00.983 7.044 6.167 6.167 0 00.815 1.165c.576.667.478.964 1.06.495 1.352-1.094 3.406-3.417 4.735-4.747 1.96-1.961 3.884-4.277 2.27-7.147a4.752 4.752 0 00-5.07-2.324c-.57.163-1.262.598-1.78.73zm-40.871-39.604c.871.872 3.999 4.257 4.73 4.73 1.085.712 2.702-3.55 2.838-4.152a8.99 8.99 0 00-.05-4.728 8.913 8.913 0 00-1.039-2.412 6.67 6.67 0 00-.899-1.182l-1.192-1.193c-.894-.219-1.644-.955-3.518-.584a4.7 4.7 0 00-3.53 5.945 11.817 11.817 0 002.661 3.574zm11.386 13.317l-.127.289a8.96 8.96 0 00-1.067 2.122c-1.722 4.692 1.409 9.423 2.189 9.654.488.147 1.945-1.688 2.385-2.128 1.302-1.301 3.936-3.595 4.712-4.906a10.59 10.59 0 00.746-1.755 4.533 4.533 0 00-1.967-4.905c-2.784-1.818-5.037-.206-6.868 1.626zm-40.106-51.299c-2.265 1.011-2.803 2.288-2.446 4.302a9.4 9.4 0 007.527 7.534c2.035.352 3.286-.158 4.302-2.455.326-.777-.2-2.629-.44-3.34a8.472 8.472 0 00-1.686-2.839l-.92-.92a10.038 10.038 0 00-2.993-1.835 8.726 8.726 0 00-2.896-.537c-.35.029-.157-.028-.443.093zm6.683 29.066a1.564 1.564 0 01.563.37c.991.348 1.897 1.273 4.01.68 4.881-1.368 2.217-6.624-.774-4.854a26.878 26.878 0 00-3.801 3.801z"/><text class="q" transform="rotate(45 -4205.45 2828.138)"><tspan x="0" y="0">SmartVista</tspan></text><text class="r" transform="rotate(45 -4016.282 2360.73)"><tspan x="0" y="0">Base 24</tspan></text><path class="d" d="M529.798 3835.57c-2.805 3.05-2.978 6.716.098 9.792a6.176 6.176 0 006.47 1.795l6.789 6.788c-6.25 3.642-13.135 1.036-18.082-3.911-7.208-7.209-7.897-16.312-.763-23.446 6.544-6.544 16.631-5.805 23.15.714 7.92 7.92 6.123 17.637-1.451 24.53l-16.237-16.237zm12.869 5.09a6.2 6.2 0 00.049-8.66c-2.56-2.559-6.024-2.488-9.053-.343zm42.537 24.331c6.914 6.913 6.89 16.68.471 23.098s-16.115 6.421-23.052-.516-6.866-16.56-.445-22.981 16.138-6.49 23.026.4zm-17.221 17.222c3.394 3.394 7.678 1.231 10.384-1.475 2.682-2.682 4.871-7.036 1.499-10.408-3.394-3.394-7.627-1.181-10.358 1.55-2.756 2.759-4.923 6.94-1.528 10.336zm-48.765-72.23l-4.455-4.455-9.546 9.546c-1.746 1.747-1.107 3.124.492 4.724.59.59 1.3 1.159 1.94 1.799l-5.29 5.29c-1.352-1.256-2.853-2.412-4.18-3.739-6.175-6.175-5.982-9.517.025-15.524l9.328-9.327-3.666-3.666 4.675-4.675 3.668 3.669 7.16-7.16 7.23 7.23-7.16 7.16 4.455 4.455zm15.645 2.457l-7.206-7.206 5.212-5.213 7.209 7.209zm-9.198-5.262l7.233 7.233-21.724 21.724-7.209-7.21zm42.34 51.591l-4.454-4.454-9.546 9.545c-1.747 1.747-1.108 3.124.467 4.7.59.59 1.3 1.158 1.94 1.798l-5.29 5.29c-1.352-1.255-2.853-2.411-4.18-3.739-6.176-6.175-5.982-9.517.025-15.523l9.327-9.327-3.668-3.668 4.675-4.675 3.616 3.617 7.16-7.16 7.257 7.258-7.16 7.16 4.455 4.454z"/><text class="r" transform="rotate(45 -4541.822 2970.7)"><tspan x="0" y="0">Base 24</tspan></text><path class="i" d="M230.025 3542.242a26.87 26.87 0 013.801-3.801c2.991-1.772 5.654 3.484.774 4.855-2.112.59-3.017-.33-4.012-.683a8.928 8.928 0 004.012 2.049 10.7 10.7 0 004.053 0 9.383 9.383 0 005.9-14.065 10.977 10.977 0 00-.938-1.21l-6.99-6.99a7.993 7.993 0 00-2.057 2.991c-1.182 2.778-.844 7.04 1.091 8.974l-.193.193a8.618 8.618 0 00-4.632-1.785 9.325 9.325 0 00-4.633.815c-1.78.765-2.9 2.128-4.633 3.862l-4.729 4.728c3.538 2.995 7.723 3.555 11.483 1.334.662-.39 1.213-.986 1.697-1.273z"/><path class="j" d="M297.378 3584.782c-.724.226-1.433.875-2.177 1.169a9.3 9.3 0 01-11.752-4.116c-.217-.4-.792-1.895-.871-1.983-.211-.232-6.103-1.74-5.431-6.508a4.7 4.7 0 013.002-3.645 4.337 4.337 0 012.028-.257 6.943 6.943 0 011.868.536l.232.061c-4.529-3.99-13.193-1.828-14.805 4.852a8.679 8.679 0 00-.288 3.281c.766 7.086 6.494 7.605 6.952 8.578a9.508 9.508 0 001.52 2.906 9.317 9.317 0 009.731 3.316c4.235-1.302 6.31-4.51 9.991-8.19z"/><path class="k" d="M252.067 3551.155a11.892 11.892 0 01-2.662-3.573 4.7 4.7 0 013.53-5.944c1.869-.377 2.624.36 3.514.58-1.941-1.868-5.438-2.442-8.147-1.819a9.417 9.417 0 00-6.977 7.76c-.738 6.156 3.66 8.878 8.328 13.71.68.703.758 1.055 1.448.304a9.81 9.81 0 002.22-5.522c.296-2.277-.501-3.567-1.135-5.114l-.121-.386z"/><path class="l" d="M263.449 3564.469c1.83-1.83 4.083-3.44 6.87-1.626a4.531 4.531 0 011.965 4.904 10.587 10.587 0 01-.744 1.758c3.007-3.008 3.089-8.366.251-11.945l-1.473-1.473a9.478 9.478 0 00-2.816-1.53 9.365 9.365 0 00-4.053-.4 8.9 8.9 0 00-4.052 1.447c-1.785 1.162-6.203 5.997-8.107 7.9 1.489.924 2.844 2.602 6.08 2.66 4.139.071 5.054-1.333 6.081-1.698z"/><path class="m" d="M292.943 3590.764c.505-.147 1.184-.595 1.78-.731a4.754 4.754 0 015.068 2.323c1.613 2.87-.31 5.186-2.27 7.147l-.256.68a6.174 6.174 0 00-.787 2.025 9.133 9.133 0 001.993 8.317c.68.821.31.847 2.526-1.368 2.81-2.81 5.812-5.258 6.853-8.397a9.308 9.308 0 00-1.45-8.588l-1.577-1.577a9.7 9.7 0 00-.836-.6c-3.36-2.165-8.428-1.843-11.042.77z"/><path class="n" d="M232.726 3522.55c-1.017 2.299-2.267 2.808-4.301 2.455a9.4 9.4 0 01-7.527-7.534c-.352-2.013.182-3.293 2.447-4.302-1.3-.398-3.82.677-4.958 1.422a8.535 8.535 0 00-.771.572l-1.273 1.273a9.239 9.239 0 00-1.653 2.873 9.673 9.673 0 00-.355 4.923 9.906 9.906 0 002.618 4.87 9.359 9.359 0 0015.497-4 5.219 5.219 0 00.283-2.546z"/><path class="o" d="M311.799 3610.696c-.469-.104-2.39-1.59-4.729-1.596a9.23 9.23 0 00-4.728.849l-2.334 1.527c-.572.602.265 1.007 1.66 2.402 2.888 2.888 5.528 6.366 9.457 7.105a9.126 9.126 0 004.73-.29c2.098-.744 2.702-1.316 4.728-3.343l4.729-4.728a18.025 18.025 0 00-1.738 1.012 9.8 9.8 0 01-5.02.894c-2.967-.41-4.18-1.258-6.755-3.832z"/><path class="p" d="M297.377 3584.783l.816-.817a7.822 7.822 0 00-2.895-2.046c-2.614-1.118-6.974-1.015-8.874.884l5.21-5.406a9.129 9.129 0 00-8.783-2.546 7 7 0 00-2.989 1.387l5.203-5.404-.795-.795-.232-.06a6.93 6.93 0 00-1.868-.537 4.356 4.356 0 00-2.028.259 4.7 4.7 0 00-3.002 3.645c-.67 4.772 5.218 6.276 5.43 6.508.082.089.654 1.581.872 1.982a9.3 9.3 0 0011.755 4.105c.74-.29 1.453-.938 2.176-1.17zm14.421 25.911c2.57 2.57 3.764 3.401 6.756 3.834a9.793 9.793 0 005.021-.894 17.81 17.81 0 011.737-1.014l.768-.767a9.235 9.235 0 00-11.094-1.635c-.205.12-.21.138-.386.229-.565.283.353-.148-.194.088a1.87 1.87 0 01-.096.033.778.778 0 01-.096.033l5.307-5.307-6.658-6.658a9.459 9.459 0 00-1.47 11.29c.085.153.134.216.226.386l.1.194c.013.025.032.074.044.097a.486.486 0 01.036.093zm-18.86-19.935a9.3 9.3 0 00-3.012 4.783 9.442 9.442 0 00.983 7.044 6.167 6.167 0 00.814 1.165c.577.667.479.964 1.061.495 1.351-1.094 3.405-3.417 4.735-4.747 1.96-1.961 3.883-4.277 2.269-7.147a4.752 4.752 0 00-5.069-2.324c-.57.163-1.262.598-1.78.73zm-40.871-39.605c.87.872 3.998 4.257 4.73 4.73 1.084.712 2.701-3.55 2.838-4.152a8.99 8.99 0 00-.051-4.728 8.913 8.913 0 00-1.038-2.412 6.67 6.67 0 00-.899-1.182l-1.193-1.193c-.894-.219-1.644-.955-3.517-.584a4.7 4.7 0 00-3.53 5.945 11.817 11.817 0 002.661 3.574zm11.385 13.316l-.126.29a8.96 8.96 0 00-1.067 2.122c-1.722 4.692 1.408 9.423 2.188 9.654.488.147 1.946-1.688 2.386-2.128 1.301-1.301 3.936-3.595 4.712-4.905a10.59 10.59 0 00.746-1.756 4.533 4.533 0 00-1.967-4.905c-2.784-1.818-5.037-.206-6.869 1.626zm-40.105-51.298c-2.265 1.011-2.803 2.288-2.446 4.302a9.4 9.4 0 007.526 7.534c2.035.352 3.286-.158 4.302-2.455.326-.777-.2-2.629-.44-3.34a8.472 8.472 0 00-1.685-2.839l-.92-.92a10.038 10.038 0 00-2.993-1.835 8.726 8.726 0 00-2.896-.537c-.35.029-.157-.028-.443.093zm6.683 29.065a1.564 1.564 0 01.563.37c.99.349 1.897 1.274 4.01.682 4.88-1.369 2.216-6.625-.774-4.855a26.878 26.878 0 00-3.801 3.801z"/><path class="e" d="M628.34 3931.16l17.894 17.896-1.491 1.576-17.906-17.906zm24.07 24.532c.459-.471 1.64-1.896 2.178-1.972a8.1 8.1 0 002.2-.46c1.79-.595 2.832-1.809 4.308-3.285.688-.688 8.125-8.233 8.676-8.623l1.487 1.508c-.419.571-8.667 8.71-9.41 9.454-2.445 2.446-4.037 3.248-7.134 3.56a6.386 6.386 0 01-2.304-.182zm-11.27 3.336c3.04-3.115 6.18-6.179 9.258-9.257 1.888-1.888 4.491-3.403 6.942-3.369a8.11 8.11 0 012.3.18 11.973 11.973 0 01-2.119 2 4.688 4.688 0 01-.546.03c-2.593.258-4.052 1.706-5.834 3.487l-8.485 8.485-1.514-1.551zm26.179-7.338l73.294 73.295-1.52 1.52-73.3-73.3 1.53-1.514zm-4.764-8.071c-.337.122-.323.022-.883-.161a13.418 13.418 0 00-12.985 3.137l-20.329-20.306-6.429 6.43 20.29 20.313c-.945.946-5.491 5.42-6.003 6.047l6.408 6.408 6.978-6.932c1.734.876 4.937.947 6.88.616a13.091 13.091 0 005.12-2.072c.587-.403 1.268-1.063 1.774-1.367l75.752 75.752 6.422-6.482-75.752-75.753 6.364-6.364c-.084-.252-5.729-5.786-6.406-6.463l-7.199 7.199z"/><path class="f" d="M665.793 3953.203l73.305 73.305 1.52-1.52-73.292-73.292z"/><path class="e" d="M669.567 3979.156a33.422 33.422 0 01-1.463 3.053c-1.661 3.488-1.867 2.628-.486 3.98l6.067-2.907c-.831.83-6.34 6.224-6.592 6.666l1.663 1.663c.716-.408 4.705-4.63 5.624-5.548.959-.96 4.955-5.055 5.61-5.589l-1.737-1.738c-.267-.172-3.776 1.789-4.073 1.938-1.366.693-2.794 1.38-4.09 2.09a9.517 9.517 0 011.016-2.097l3.065-6.024-1.824-1.78-11.14 11.171 1.721 1.721zm16.032 19.087l-2.703 2.704c-.44.44-.853.703-1.333.331-.391-.303-.938-.796-.925-1.252.016-.54 1.813-2.215 2.332-2.665.743-.644 1.606.142 2.629.882zm1.03-4.576c1.242-.972 1.35-2.088 2.741-.652.934.963-.023 1.491-1.286 2.752-.495.495-.854.54-1.402.212-.45-.266-.914-.63-1.35-.913-2.589-1.689-3.974.458-5.426 1.91-2.05 2.05-2.727 3.07-.335 5.463l2.654 2.654c.565-.364 9.461-9.332 9.743-9.823 1.033-1.795-.32-3.43-2.125-4.902a2.578 2.578 0 00-2.492-.449 7.428 7.428 0 00-2.41 2.054zm-26.585-14.848c-.97.575-2.077-.968-1.892-1.487.155-.437 4.126-4.267 4.77-4.91a30.71 30.71 0 012.524-2.47c.748-.466 2.068.872 1.782 1.587-.198.475-6.87 7.095-7.184 7.28zm3.697-10.702l-7.321 7.321a2.659 2.659 0 00-.031 3.813l1.464 1.465a2.624 2.624 0 003.752.03l7.442-7.442a2.658 2.658 0 00.748-2.257 3.853 3.853 0 00-1.493-2.241 3.8 3.8 0 00-2.242-1.479 2.649 2.649 0 00-2.32.792zm59.452 55.576c-.722.565-5.776 5.74-6.898 6.862-.873.873-2.784 2.484-3.087 3.49-.41 1.36.11 2.135 1.425 3.45 3.028 3.028 4.168.98 6.936-1.788 1.103-1.103 6.238-6.12 6.804-6.84l-1.725-1.677c-.556.415-6.84 6.804-7.911 7.875-1.344 1.344-1.548 1.884-2.612.812-1.132-1.131-.1-1.61.917-2.628 1.18-1.18 7.26-7.165 7.842-7.87zm-28.819-24.337c.461-.46.88-.432 1.328.016 1.498 1.497.54 1.355-.577 2.779l1.706 1.706 1.28-1.252a2.674 2.674 0 00.033-3.965l-1.282-1.282a2.687 2.687 0 00-3.979.018c-3.146 3.147-3.985 3.42-1.597 6.989.835 1.248.2 1.394-1.804 3.399-.457.457-.925.539-1.387.076-1.48-1.48-.583-1.397.577-2.81l-1.703-1.703-1.284 1.25a2.64 2.64 0 00-.059 3.9l1.405 1.405a2.641 2.641 0 003.889-.071c3.426-3.427 4.557-3.754 2.061-7.4-.846-1.227-.396-1.266 1.393-3.055zm-.751 10.635a5 5 0 00-2.193 3.165c-.05 1.21.933 2.065 2.003 3.145 2.592 2.607 4.4-.105 6.27-1.968 1.202-1.202 1.456-1.914 1.116-3.126-.263-.958-1.663-2.54-1.603-3.11.051-.483.915-1.18 1.321-1.586.477-.477.936-1.057 1.52-.717.565.328 1.17 1.069 1.035 1.51a8.125 8.125 0 01-1.316 1.513l1.702 1.702c1.138-.893 2.128-2.026 2.191-3.155.068-1.184-.868-2.051-1.918-3.103-2.587-2.586-4.368-.166-6.299 1.85-2.709 2.838 1.74 4.925.674 6.307-.346.443-1.144 1.143-1.571 1.581a4.063 4.063 0 01-.782.714.861.861 0 01-.727.038c-.543-.278-1.162-1.053-1.041-1.534s.957-1.083 1.31-1.519zm28.248 28.239c-3.362 2.77-2.414 4.074-.217 6.29a2.743 2.743 0 003.144.892c.867-.353 2.375-2.083 3.142-2.845 1.17-1.17 1.465-1.91 1.123-3.143-.264-.956-1.657-2.485-1.598-3.112.049-.505.912-1.168 1.313-1.57.52-.52.926-1.054 1.508-.721.532.307 1.163.999 1.05 1.496-.124.547-.907 1.063-1.311 1.54l1.726 1.68c1.04-.925 2.15-1.934 2.134-3.098-.02-1.496-.582-1.833-1.844-3.098-1.069-1.068-2.065-1.388-3.155-1.004-.917.32-2.32 1.968-3.116 2.76a2.64 2.64 0 00-.687 3.174c.576 1.377 1.89 2.291 1.343 3.112a17.177 17.177 0 01-1.553 1.601c-1.08 1.08-1.335 1.24-2.401.044-.798-.9.523-1.59 1.086-2.307l-1.69-1.69zm-10.096-22.772c.849.697 1.897 1.521 1.054 2.364-2.783 2.784-2.504 3.138-4.427 1.012zm-4.98 4.98c1.682 1.25 1.718 2.485 3.818 2.29 1.28-.12 2.698-1.915 3.769-2.985 1.017-1.018 1.873-2.246.954-3.76a44.3 44.3 0 00-3.73-3.835c-.82.82-10.737 10.595-11.173 11.248a9.253 9.253 0 011.709 1.618c.603-.398 3.873-3.796 4.659-4.582zm-24.87-34.843c.918.754 1.9 1.514.99 2.424-2.703 2.703-2.45 3.066-4.364.95zm-4.981 4.98c1.559 1.158 1.874 2.466 3.76 2.296 1.39-.125 2.712-1.905 3.815-3.008 1.016-1.016 1.927-2.238.92-3.812a44.1 44.1 0 00-3.681-3.769l-11.166 11.166 1.738 1.738zm-22.054-19.253c-.63.487-1.187 1.469-1.891 1.272-.222-.06-1.477-.927-1.157-1.671.173-.393 7-7.214 7.377-7.377.567-.24 1.577.642 1.677 1.212.11.625-.79 1.305-1.34 1.855l1.736 1.713c1.287-1.287 2.275-2.035 2.134-3.51-.12-1.26-1.788-2.852-2.625-3.425a2.7 2.7 0 00-3.525.507l-7.02 7.02c-2.369 2.359-.174 4.053 1.114 5.323a2.655 2.655 0 003.575.384 14.978 14.978 0 001.636-1.644l-1.702-1.67z"/><path class="g" d="M626.842 3932.726l17.903 17.904 1.491-1.577-17.896-17.896zm25.568 22.966a6.393 6.393 0 002.304.183c3.096-.313 4.691-1.12 7.133-3.563.741-.74 8.994-8.884 9.41-9.453l-1.484-1.506c-.55.39-7.987 7.934-8.675 8.623-1.475 1.475-2.516 2.689-4.309 3.286a8.086 8.086 0 01-2.199.46c-.544.076-1.718 1.5-2.178 1.973z"/><path class="f" d="M641.138 3959.028l1.515 1.551 8.485-8.485c1.78-1.78 3.24-3.228 5.834-3.485a4.711 4.711 0 00.546-.032 11.941 11.941 0 002.12-2 8.1 8.1 0 00-2.302-.18c-2.448-.033-5.055 1.48-6.94 3.37-3.08 3.08-6.215 6.144-9.257 9.257z"/><path class="e" d="M706.877 4029.745l4.149 4.148 1.57-1.57-2.422-2.424 9.594-9.62-1.732-1.692z"/><path class="h" d="M660.04 3978.819c.316-.187 6.993-6.81 7.18-7.282.287-.712-1.034-2.055-1.783-1.589a31.084 31.084 0 00-2.524 2.47c-.643.644-4.608 4.48-4.77 4.911-.176.525.931 2.07 1.897 1.49zm25.567 19.425c-1.03-.739-1.888-1.524-2.63-.878-.518.45-2.315 2.125-2.33 2.665-.014.457.532.949.925 1.252.478.37.892.109 1.331-.333l2.704-2.706zm22.749 20.541c1.923 2.126 1.643 1.772 4.426-1.01.844-.845-.206-1.67-1.051-2.365zm-29.806-29.813c1.912 2.115 1.66 1.755 4.365-.95.91-.91-.077-1.674-.992-2.426z"/><text class="q" transform="rotate(45 -4243.594 2261.424)"><tspan x="0" y="0">SmartVista</tspan></text><path class="d" d="M668.17 4249.398c-2.805 3.05-2.978 6.717.098 9.793a6.176 6.176 0 006.47 1.795l6.789 6.789c-6.25 3.641-13.136 1.035-18.083-3.912-7.208-7.208-7.897-16.312-.763-23.446 6.545-6.544 16.632-5.805 23.151.715 7.92 7.92 6.122 17.636-1.452 24.528l-16.236-16.236zm12.869 5.092a6.2 6.2 0 00.048-8.66c-2.559-2.56-6.023-2.489-9.052-.344zm42.537 24.33c6.913 6.914 6.889 16.681.471 23.099s-16.115 6.42-23.052-.517-6.866-16.56-.446-22.981 16.138-6.49 23.027.4zm-17.222 17.222c3.395 3.394 7.678 1.232 10.384-1.474 2.682-2.682 4.872-7.037 1.5-10.409-3.395-3.394-7.627-1.18-10.358 1.55-2.757 2.76-4.924 6.94-1.528 10.336zm-48.764-72.23l-4.455-4.454-9.546 9.546c-1.747 1.746-1.107 3.124.492 4.723.59.59 1.3 1.159 1.94 1.799l-5.29 5.29c-1.352-1.255-2.853-2.411-4.18-3.739-6.176-6.175-5.982-9.517.025-15.523l9.327-9.328-3.665-3.666 4.674-4.674 3.669 3.668 7.16-7.16 7.23 7.231-7.16 7.16 4.455 4.454zm15.644 2.458l-7.206-7.206 5.213-5.213 7.208 7.208zm-9.198-5.263l7.233 7.233-21.723 21.724-7.21-7.209zm42.341 51.592l-4.455-4.455-9.546 9.546c-1.746 1.746-1.107 3.124.468 4.698.59.59 1.3 1.16 1.94 1.8l-5.29 5.29c-1.352-1.256-2.854-2.412-4.18-3.74-6.176-6.174-5.982-9.516.025-15.523l9.326-9.327-3.667-3.668 4.674-4.674 3.616 3.616 7.16-7.16 7.258 7.258-7.16 7.16 4.455 4.454z"/><path class="i" d="M367.753 3955.428a26.87 26.87 0 013.801-3.801c2.991-1.772 5.654 3.484.774 4.855-2.112.59-3.017-.33-4.012-.683a8.928 8.928 0 004.012 2.049 10.7 10.7 0 004.053 0 9.383 9.383 0 005.9-14.065 10.977 10.977 0 00-.938-1.211l-6.99-6.99a7.993 7.993 0 00-2.057 2.992c-1.182 2.778-.844 7.04 1.091 8.974l-.193.193a8.618 8.618 0 00-4.631-1.785 9.325 9.325 0 00-4.633.815c-1.781.765-2.9 2.128-4.634 3.861l-4.729 4.729c3.538 2.994 7.723 3.554 11.483 1.334.662-.39 1.213-.986 1.697-1.273z"/><path class="j" d="M435.106 3997.967c-.724.227-1.432.876-2.177 1.17a9.3 9.3 0 01-11.752-4.116c-.217-.4-.792-1.895-.871-1.983-.211-.232-6.103-1.74-5.43-6.508a4.7 4.7 0 013-3.645 4.337 4.337 0 012.029-.257 6.943 6.943 0 011.868.536l.233.061c-4.53-3.99-13.194-1.828-14.806 4.852a8.679 8.679 0 00-.288 3.281c.766 7.085 6.495 7.605 6.952 8.577a9.508 9.508 0 001.52 2.907 9.317 9.317 0 009.731 3.316c4.235-1.303 6.31-4.51 9.991-8.19z"/><path class="k" d="M389.796 3964.341a11.892 11.892 0 01-2.663-3.573 4.7 4.7 0 013.53-5.945c1.869-.376 2.624.361 3.514.58-1.941-1.867-5.438-2.44-8.147-1.818a9.417 9.417 0 00-6.977 7.76c-.737 6.156 3.66 8.878 8.328 13.71.68.703.758 1.055 1.449.304a9.81 9.81 0 002.218-5.522c.297-2.277-.5-3.567-1.134-5.114l-.121-.386z"/><path class="l" d="M401.177 3977.654c1.83-1.829 4.084-3.44 6.87-1.625a4.531 4.531 0 011.965 4.904 10.587 10.587 0 01-.744 1.757c3.007-3.007 3.09-8.365.252-11.944l-1.473-1.473a9.478 9.478 0 00-2.817-1.53 9.365 9.365 0 00-4.053-.401 8.9 8.9 0 00-4.052 1.447c-1.785 1.163-6.202 5.997-8.107 7.902 1.489.922 2.844 2.601 6.08 2.658 4.139.072 5.054-1.333 6.081-1.697z"/><path class="m" d="M430.671 4003.95c.505-.147 1.185-.595 1.78-.732a4.754 4.754 0 015.068 2.324c1.613 2.87-.31 5.186-2.27 7.147l-.256.68a6.174 6.174 0 00-.787 2.025 9.133 9.133 0 001.993 8.316c.68.822.31.848 2.526-1.367 2.81-2.81 5.813-5.258 6.853-8.397a9.308 9.308 0 00-1.45-8.589l-1.577-1.576a9.7 9.7 0 00-.836-.6c-3.36-2.165-8.427-1.843-11.042.77z"/><path class="n" d="M370.454 3935.736c-1.017 2.299-2.267 2.808-4.301 2.455a9.4 9.4 0 01-7.527-7.534c-.352-2.014.182-3.293 2.447-4.302-1.3-.398-3.82.677-4.958 1.422a8.535 8.535 0 00-.771.572l-1.273 1.273a9.239 9.239 0 00-1.652 2.873 9.673 9.673 0 00-.355 4.923 9.906 9.906 0 002.617 4.87 9.359 9.359 0 0015.497-4 5.219 5.219 0 00.283-2.546z"/><path class="o" d="M449.527 4023.882c-.469-.104-2.39-1.59-4.728-1.596a9.23 9.23 0 00-4.729.849l-2.334 1.526c-.571.603.265 1.008 1.66 2.403 2.888 2.888 5.528 6.366 9.457 7.105a9.126 9.126 0 004.73-.29c2.099-.744 2.702-1.316 4.728-3.343l4.729-4.728a18.025 18.025 0 00-1.738 1.012 9.8 9.8 0 01-5.02.893c-2.967-.41-4.18-1.257-6.755-3.831z"/><path class="p" d="M435.105 3997.969l.816-.817a7.822 7.822 0 00-2.894-2.046c-2.615-1.118-6.975-1.016-8.875.884l5.21-5.406a9.129 9.129 0 00-8.783-2.546 7 7 0 00-2.989 1.387l5.203-5.404-.795-.795-.232-.061a6.93 6.93 0 00-1.868-.536 4.356 4.356 0 00-2.028.259 4.7 4.7 0 00-3.002 3.645c-.67 4.771 5.219 6.276 5.43 6.507.082.09.654 1.582.872 1.982a9.3 9.3 0 0011.755 4.106c.74-.29 1.453-.938 2.176-1.17zm14.421 25.911c2.57 2.569 3.764 3.401 6.756 3.833a9.793 9.793 0 005.021-.893 17.81 17.81 0 011.737-1.014l.768-.768a9.235 9.235 0 00-11.093-1.634c-.206.12-.21.137-.387.229-.565.282.353-.148-.194.088-.025.01-.076.027-.095.033a.778.778 0 01-.097.033l5.307-5.307-6.658-6.658a9.459 9.459 0 00-1.47 11.29c.085.153.134.216.226.386l.1.193c.013.026.032.075.044.098a.486.486 0 01.036.093zm-18.86-19.935a9.3 9.3 0 00-3.012 4.783 9.442 9.442 0 00.983 7.044 6.167 6.167 0 00.814 1.165c.577.667.48.964 1.061.495 1.351-1.094 3.406-3.417 4.735-4.747 1.96-1.961 3.883-4.277 2.269-7.147a4.752 4.752 0 00-5.069-2.324c-.57.163-1.262.598-1.78.73zm-40.871-39.605c.871.871 3.998 4.256 4.73 4.73 1.084.712 2.701-3.55 2.838-4.152a8.99 8.99 0 00-.051-4.728 8.913 8.913 0 00-1.038-2.412 6.67 6.67 0 00-.899-1.182l-1.193-1.193c-.893-.219-1.644-.955-3.517-.584a4.7 4.7 0 00-3.53 5.945 11.817 11.817 0 002.661 3.573zm11.385 13.317l-.126.289a8.96 8.96 0 00-1.067 2.122c-1.722 4.691 1.409 9.423 2.189 9.654.487.147 1.945-1.688 2.385-2.128 1.301-1.302 3.936-3.595 4.712-4.906a10.59 10.59 0 00.746-1.755 4.533 4.533 0 00-1.967-4.906c-2.784-1.817-5.037-.205-6.869 1.627zm-40.105-51.3c-2.265 1.012-2.803 2.289-2.446 4.303a9.4 9.4 0 007.527 7.534c2.035.352 3.285-.158 4.302-2.455.326-.778-.2-2.629-.44-3.34a8.472 8.472 0 00-1.686-2.84l-.92-.918a10.038 10.038 0 00-2.993-1.836 8.726 8.726 0 00-2.896-.537c-.35.029-.157-.028-.443.093zm6.683 29.066a1.564 1.564 0 01.563.37c.991.348 1.897 1.274 4.01.681 4.88-1.368 2.216-6.624-.774-4.855a26.878 26.878 0 00-3.801 3.802z"/><path class="e" d="M214.51 3794.075l17.896 17.895-1.492 1.576-17.905-17.905zm24.071 24.532c.46-.472 1.64-1.896 2.178-1.973a8.1 8.1 0 002.2-.459c1.791-.596 2.832-1.81 4.309-3.286.688-.688 8.125-8.232 8.675-8.623l1.487 1.508c-.419.572-8.666 8.71-9.409 9.454-2.446 2.446-4.037 3.249-7.134 3.561a6.386 6.386 0 01-2.304-.182zm-11.269 3.335c3.04-3.114 6.179-6.178 9.257-9.256 1.888-1.888 4.492-3.403 6.942-3.369a8.11 8.11 0 012.3.179 11.973 11.973 0 01-2.119 2 4.688 4.688 0 01-.545.031c-2.593.257-4.053 1.705-5.834 3.487l-8.485 8.485-1.515-1.552zm26.178-7.337l73.295 73.294-1.52 1.52-73.3-73.3 1.529-1.513zm-4.764-8.072c-.337.123-.322.023-.883-.16a13.418 13.418 0 00-12.984 3.137l-20.33-20.306-6.428 6.43 20.29 20.312c-.946.946-5.492 5.42-6.004 6.048l6.408 6.408 6.979-6.932c1.733.876 4.937.946 6.879.616a13.091 13.091 0 005.12-2.073c.587-.403 1.268-1.062 1.774-1.366l75.753 75.752 6.422-6.483-75.753-75.752 6.364-6.364c-.084-.253-5.728-5.786-6.406-6.464l-7.199 7.2z"/><path class="f" d="M251.965 3816.117l73.305 73.305 1.52-1.52-73.293-73.292z"/><path class="e" d="M255.738 3842.071a33.422 33.422 0 01-1.463 3.053c-1.661 3.488-1.867 2.627-.485 3.98l6.066-2.908c-.83.831-6.34 6.225-6.592 6.667l1.664 1.663c.715-.409 4.704-4.63 5.623-5.549.96-.959 4.956-5.054 5.611-5.588l-1.738-1.738c-.267-.172-3.775 1.788-4.073 1.937-1.365.694-2.794 1.38-4.09 2.09a9.517 9.517 0 011.016-2.096l3.065-6.025-1.824-1.78-11.14 11.172 1.722 1.72zm16.032 19.087l-2.703 2.703c-.44.44-.852.704-1.333.332-.391-.304-.938-.796-.924-1.252.015-.54 1.813-2.215 2.331-2.666.743-.644 1.606.143 2.63.883zm1.03-4.577c1.242-.972 1.35-2.088 2.742-.651.933.963-.023 1.49-1.287 2.752-.495.495-.854.54-1.402.212-.45-.266-.913-.631-1.349-.914-2.59-1.688-3.975.458-5.427 1.91-2.05 2.05-2.727 3.071-.335 5.463l2.655 2.655c.565-.365 9.46-9.333 9.742-9.823 1.034-1.795-.319-3.43-2.125-4.903a2.578 2.578 0 00-2.492-.448 7.428 7.428 0 00-2.409 2.054zm-26.585-14.847c-.97.575-2.076-.968-1.891-1.487.154-.437 4.125-4.267 4.769-4.91a30.71 30.71 0 012.524-2.471c.748-.465 2.068.873 1.783 1.587-.198.475-6.871 7.096-7.185 7.28zm3.698-10.702l-7.322 7.321a2.659 2.659 0 00-.03 3.813l1.464 1.464a2.624 2.624 0 003.752.03l7.441-7.442a2.658 2.658 0 00.748-2.257 3.853 3.853 0 00-1.492-2.24 3.8 3.8 0 00-2.243-1.48 2.649 2.649 0 00-2.319.793zm59.451 55.576c-.722.565-5.775 5.739-6.898 6.861-.873.873-2.783 2.484-3.087 3.49-.41 1.36.11 2.136 1.425 3.45 3.029 3.029 4.168.981 6.937-1.787 1.103-1.103 6.238-6.12 6.803-6.84l-1.724-1.677c-.557.415-6.84 6.804-7.912 7.875-1.343 1.343-1.547 1.883-2.612.812-1.131-1.132-.099-1.611.918-2.628 1.18-1.18 7.26-7.165 7.84-7.87zm-28.819-24.338c.461-.46.88-.431 1.328.016 1.498 1.498.54 1.356-.577 2.78l1.707 1.706 1.28-1.253a2.674 2.674 0 00.032-3.964l-1.282-1.282a2.687 2.687 0 00-3.978.018c-3.147 3.147-3.985 3.42-1.598 6.988.836 1.248.201 1.395-1.803 3.4-.458.457-.925.538-1.388.076-1.48-1.48-.582-1.398.577-2.81l-1.702-1.703-1.285 1.249a2.64 2.64 0 00-.058 3.9l1.404 1.405a2.641 2.641 0 003.89-.07c3.426-3.427 4.556-3.755 2.06-7.4-.846-1.227-.396-1.266 1.393-3.055zm-.751 10.636a5 5 0 00-2.193 3.165c-.05 1.21.933 2.065 2.003 3.144 2.592 2.608 4.401-.104 6.27-1.968 1.202-1.202 1.456-1.914 1.117-3.126-.263-.957-1.663-2.54-1.604-3.11.052-.483.916-1.18 1.322-1.586.476-.476.936-1.056 1.52-.717.564.328 1.17 1.07 1.034 1.511a8.125 8.125 0 01-1.316 1.513l1.702 1.702c1.138-.893 2.128-2.026 2.192-3.156.068-1.184-.869-2.05-1.919-3.102-2.586-2.587-4.367-.166-6.299 1.85-2.709 2.837 1.741 4.924.674 6.307-.345.443-1.143 1.143-1.57 1.58a4.063 4.063 0 01-.783.715.861.861 0 01-.726.037c-.544-.278-1.163-1.052-1.042-1.533s.958-1.084 1.31-1.52zm28.249 28.239c-3.363 2.769-2.414 4.073-.217 6.289a2.743 2.743 0 003.143.892c.867-.352 2.376-2.082 3.142-2.845 1.17-1.17 1.465-1.909 1.124-3.143-.265-.956-1.658-2.484-1.598-3.11.048-.506.911-1.17 1.313-1.571.52-.52.925-1.055 1.507-.722.532.307 1.163 1 1.05 1.497-.123.547-.906 1.062-1.31 1.539l1.725 1.68c1.04-.925 2.15-1.934 2.134-3.098-.019-1.495-.582-1.832-1.844-3.097-1.068-1.068-2.064-1.389-3.154-1.005-.917.32-2.32 1.968-3.116 2.762a2.64 2.64 0 00-.688 3.173c.577 1.377 1.89 2.291 1.344 3.111a17.177 17.177 0 01-1.554 1.602c-1.08 1.08-1.335 1.239-2.401.044-.798-.9.523-1.59 1.087-2.308l-1.69-1.69zm-10.096-22.773c.848.698 1.896 1.522 1.053 2.365-2.783 2.783-2.504 3.137-4.426 1.011zm-4.981 4.981c1.683 1.25 1.718 2.485 3.818 2.29 1.28-.12 2.698-1.915 3.769-2.986 1.017-1.017 1.874-2.245.955-3.759a44.3 44.3 0 00-3.73-3.836c-.82.82-10.737 10.596-11.173 11.248a9.253 9.253 0 011.708 1.618c.604-.397 3.873-3.796 4.66-4.581zm-24.87-34.843c.919.754 1.9 1.514.99 2.424-2.703 2.703-2.45 3.065-4.364.95zm-4.98 4.98c1.558 1.158 1.874 2.466 3.76 2.296 1.39-.126 2.711-1.905 3.814-3.008 1.017-1.016 1.927-2.238.92-3.812a44.1 44.1 0 00-3.68-3.769l-11.167 11.166 1.738 1.738zm-22.055-19.254c-.63.488-1.186 1.47-1.89 1.273-.223-.06-1.478-.927-1.157-1.672.172-.393 6.999-7.213 7.376-7.376.567-.24 1.577.642 1.677 1.212.11.624-.79 1.304-1.34 1.855l1.736 1.713c1.287-1.287 2.275-2.036 2.134-3.51-.12-1.26-1.787-2.853-2.624-3.425a2.7 2.7 0 00-3.525.507l-7.02 7.019c-2.37 2.36-.175 4.053 1.113 5.323a2.655 2.655 0 003.575.385 14.978 14.978 0 001.636-1.644l-1.702-1.671z"/><path class="g" d="M213.013 3795.64l17.903 17.904 1.492-1.576-17.896-17.896zm25.567 22.966a6.393 6.393 0 002.305.183c3.097-.313 4.692-1.119 7.133-3.562.742-.741 8.994-8.885 9.41-9.453l-1.484-1.506c-.549.39-7.986 7.934-8.675 8.623-1.475 1.475-2.516 2.688-4.308 3.286a8.086 8.086 0 01-2.2.46c-.544.076-1.717 1.5-2.177 1.972z"/><path class="f" d="M227.31 3821.942l1.514 1.552 8.485-8.485c1.78-1.78 3.241-3.228 5.835-3.486a4.711 4.711 0 00.546-.03 11.941 11.941 0 002.119-2.001 8.1 8.1 0 00-2.301-.18c-2.449-.033-5.055 1.48-6.941 3.37-3.08 3.08-6.214 6.144-9.257 9.257z"/><path class="e" d="M293.048 3892.66l4.149 4.148 1.571-1.571-2.423-2.423 9.594-9.62-1.732-1.692z"/><path class="h" d="M246.211 3841.734c.316-.188 6.993-6.811 7.18-7.283.288-.711-1.034-2.054-1.783-1.588a31.084 31.084 0 00-2.523 2.47c-.644.643-4.608 4.48-4.77 4.91-.176.525.93 2.07 1.896 1.49zm25.567 19.425c-1.03-.74-1.887-1.524-2.63-.879-.517.45-2.315 2.125-2.33 2.665-.013.457.533.95.925 1.253.478.37.893.109 1.332-.333q1.352-1.356 2.703-2.706zm22.749 20.541c1.923 2.126 1.643 1.772 4.426-1.011.845-.844-.206-1.67-1.051-2.364zm-29.806-29.813c1.913 2.115 1.66 1.754 4.365-.951.91-.91-.076-1.673-.991-2.425z"/><text class="q" transform="rotate(45 -4681.179 2631.085)"><tspan x="0" y="0">SmartVista</tspan></text><text class="r" transform="rotate(45 -4386.929 1931.745)"><tspan x="0" y="0">Base 24</tspan></text><path class="i" d="M97.445 3951.566a26.87 26.87 0 013.801-3.801c2.992-1.772 5.654 3.485.774 4.855-2.112.59-3.017-.33-4.011-.682a8.928 8.928 0 004.011 2.048 10.7 10.7 0 004.053 0 9.383 9.383 0 005.901-14.065 10.977 10.977 0 00-.94-1.21l-6.989-6.99a7.993 7.993 0 00-2.057 2.992c-1.181 2.778-.843 7.039 1.091 8.973l-.193.193a8.618 8.618 0 00-4.631-1.784 9.325 9.325 0 00-4.633.814c-1.78.765-2.9 2.128-4.634 3.862l-4.728 4.728c3.537 2.995 7.722 3.555 11.482 1.335.662-.39 1.213-.987 1.697-1.273z"/><path class="j" d="M164.798 3994.106c-.724.226-1.432.875-2.177 1.169a9.3 9.3 0 01-11.752-4.116c-.217-.4-.792-1.895-.871-1.982-.21-.232-6.103-1.74-5.43-6.508a4.7 4.7 0 013.001-3.646 4.337 4.337 0 012.028-.257 6.943 6.943 0 011.868.536l.233.062c-4.53-3.99-13.194-1.828-14.806 4.852a8.679 8.679 0 00-.288 3.28c.766 7.086 6.495 7.606 6.952 8.578a9.508 9.508 0 001.52 2.907 9.317 9.317 0 009.732 3.315c4.234-1.302 6.31-4.51 9.99-8.19z"/><path class="k" d="M119.488 3960.48a11.892 11.892 0 01-2.663-3.573 4.7 4.7 0 013.531-5.945c1.868-.376 2.623.36 3.513.58-1.941-1.868-5.438-2.441-8.147-1.818a9.417 9.417 0 00-6.977 7.759c-.737 6.157 3.66 8.878 8.328 13.71.68.703.759 1.056 1.449.305a9.81 9.81 0 002.219-5.523c.297-2.277-.501-3.566-1.135-5.114l-.121-.386z"/><path class="l" d="M130.87 3973.793c1.829-1.83 4.083-3.44 6.869-1.626a4.531 4.531 0 011.966 4.905 10.587 10.587 0 01-.745 1.757c3.007-3.007 3.09-8.366.252-11.945l-1.473-1.472a9.478 9.478 0 00-2.817-1.53 9.365 9.365 0 00-4.053-.402 8.9 8.9 0 00-4.052 1.448c-1.785 1.162-6.202 5.997-8.106 7.901 1.488.923 2.843 2.602 6.08 2.659 4.138.071 5.053-1.333 6.08-1.697z"/><path class="m" d="M160.363 4000.088c.505-.147 1.185-.595 1.78-.731a4.754 4.754 0 015.068 2.324c1.614 2.869-.31 5.185-2.27 7.146l-.256.68a6.174 6.174 0 00-.787 2.026 9.133 9.133 0 001.994 8.316c.68.822.31.848 2.525-1.368 2.81-2.81 5.813-5.258 6.853-8.397a9.308 9.308 0 00-1.45-8.588l-1.577-1.577a9.7 9.7 0 00-.836-.599c-3.36-2.166-8.427-1.844-11.041.77z"/><path class="n" d="M100.146 3931.875c-1.017 2.298-2.267 2.807-4.301 2.454a9.4 9.4 0 01-7.527-7.533c-.352-2.014.182-3.293 2.447-4.302-1.299-.398-3.82.676-4.958 1.422a8.535 8.535 0 00-.771.572l-1.273 1.273a9.239 9.239 0 00-1.652 2.873 9.673 9.673 0 00-.355 4.922 9.906 9.906 0 002.617 4.87 9.359 9.359 0 0015.497-4 5.219 5.219 0 00.283-2.545z"/><path class="o" d="M179.22 4020.02c-.47-.104-2.39-1.59-4.73-1.596a9.23 9.23 0 00-4.728.85l-2.334 1.526c-.571.602.265 1.008 1.66 2.402 2.888 2.889 5.528 6.367 9.457 7.106a9.126 9.126 0 004.73-.29c2.099-.745 2.702-1.317 4.728-3.343l4.729-4.729a18.025 18.025 0 00-1.737 1.012 9.8 9.8 0 01-5.02.894c-2.968-.41-4.181-1.257-6.756-3.832z"/><path class="p" d="M164.797 3994.107l.817-.816a7.822 7.822 0 00-2.895-2.047c-2.614-1.118-6.975-1.015-8.874.884l5.209-5.406a9.129 9.129 0 00-8.782-2.545 7 7 0 00-2.99 1.386l5.204-5.403-.796-.796-.232-.06a6.93 6.93 0 00-1.868-.537 4.356 4.356 0 00-2.028.26 4.7 4.7 0 00-3.002 3.644c-.67 4.772 5.219 6.277 5.43 6.508.082.089.654 1.582.872 1.982a9.3 9.3 0 0011.755 4.105c.74-.289 1.453-.938 2.176-1.17zm14.421 25.911c2.57 2.57 3.764 3.402 6.756 3.834a9.793 9.793 0 005.021-.893 17.81 17.81 0 011.737-1.014l.768-.768a9.235 9.235 0 00-11.093-1.635c-.206.12-.21.138-.386.23-.566.282.353-.149-.195.088-.025.01-.076.026-.095.033a.778.778 0 01-.096.032l5.306-5.307-6.658-6.658a9.459 9.459 0 00-1.47 11.29c.085.153.134.216.226.387l.1.193c.013.025.032.074.044.097a.486.486 0 01.036.093zm-18.86-19.935a9.3 9.3 0 00-3.012 4.783 9.442 9.442 0 00.983 7.044 6.167 6.167 0 00.815 1.166c.576.666.478.963 1.06.495 1.352-1.094 3.406-3.417 4.735-4.748 1.96-1.96 3.884-4.277 2.27-7.147a4.752 4.752 0 00-5.07-2.323c-.57.162-1.262.597-1.78.73zm-40.871-39.604c.871.871 3.999 4.256 4.73 4.73 1.085.711 2.702-3.55 2.838-4.152a8.99 8.99 0 00-.05-4.728 8.913 8.913 0 00-1.039-2.413 6.67 6.67 0 00-.899-1.181l-1.192-1.193c-.894-.22-1.644-.956-3.518-.584a4.7 4.7 0 00-3.53 5.944 11.817 11.817 0 002.661 3.574zm11.386 13.316l-.127.29a8.96 8.96 0 00-1.067 2.121c-1.722 4.692 1.409 9.423 2.189 9.654.488.147 1.945-1.687 2.385-2.128 1.302-1.301 3.936-3.595 4.712-4.905a10.59 10.59 0 00.746-1.756 4.533 4.533 0 00-1.967-4.905c-2.784-1.817-5.037-.205-6.868 1.626zm-40.106-51.299c-2.265 1.012-2.803 2.288-2.446 4.303a9.4 9.4 0 007.527 7.533c2.035.352 3.286-.158 4.302-2.455.326-.777-.2-2.628-.44-3.339a8.472 8.472 0 00-1.686-2.84l-.92-.919a10.038 10.038 0 00-2.993-1.836 8.726 8.726 0 00-2.896-.536c-.35.028-.157-.029-.443.092zm6.683 29.065a1.564 1.564 0 01.563.371c.991.348 1.897 1.274 4.01.681 4.881-1.368 2.217-6.625-.774-4.855a26.878 26.878 0 00-3.801 3.801z"/><path class="d" d="M254.34 4111.026c-2.804 3.05-2.977 6.717.099 9.793a6.176 6.176 0 006.47 1.795l6.789 6.788c-6.25 3.642-13.135 1.036-18.082-3.911-7.208-7.209-7.897-16.312-.763-23.446 6.544-6.544 16.631-5.805 23.15.714 7.92 7.92 6.123 17.637-1.451 24.53l-16.237-16.237zm12.87 5.091a6.2 6.2 0 00.049-8.66c-2.56-2.559-6.024-2.488-9.053-.343zm42.537 24.331c6.914 6.913 6.89 16.68.471 23.098s-16.115 6.421-23.052-.516-6.866-16.56-.445-22.981 16.138-6.49 23.026.4zm-17.221 17.222c3.394 3.394 7.678 1.231 10.384-1.475 2.682-2.682 4.871-7.036 1.499-10.408-3.394-3.394-7.627-1.181-10.358 1.55-2.756 2.759-4.923 6.94-1.528 10.336zm-48.765-72.23l-4.455-4.455-9.546 9.546c-1.746 1.747-1.107 3.124.492 4.724.59.59 1.3 1.159 1.94 1.799l-5.29 5.29c-1.352-1.256-2.853-2.412-4.18-3.739-6.175-6.175-5.982-9.517.025-15.524l9.328-9.327-3.666-3.666 4.675-4.675 3.668 3.669 7.16-7.16 7.23 7.23-7.16 7.16 4.455 4.455zm15.645 2.457l-7.206-7.206 5.212-5.213 7.209 7.209zm-9.198-5.262l7.233 7.233-21.724 21.724-7.209-7.21zm42.34 51.591l-4.454-4.455-9.546 9.546c-1.747 1.747-1.108 3.124.467 4.7.59.59 1.3 1.158 1.94 1.798l-5.29 5.29c-1.352-1.255-2.853-2.411-4.18-3.739-6.176-6.175-5.982-9.517.025-15.523l9.327-9.327-3.668-3.668 4.675-4.675 3.616 3.617 7.16-7.16 7.257 7.258-7.16 7.16 4.455 4.454z"/><text class="q" transform="rotate(45 -4616.44 1831.529)"><tspan x="0" y="0">SmartVista</tspan></text><path class="e" d="M352.239 4205.974l17.895 17.895-1.492 1.576-17.905-17.905zm24.07 24.532c.46-.472 1.64-1.897 2.178-1.973a8.1 8.1 0 002.2-.459c1.791-.596 2.832-1.81 4.309-3.286.688-.688 8.125-8.233 8.675-8.623l1.487 1.508c-.418.572-8.666 8.71-9.409 9.454-2.445 2.446-4.037 3.249-7.134 3.561a6.386 6.386 0 01-2.304-.182zm-11.269 3.335c3.04-3.114 6.18-6.178 9.257-9.256 1.888-1.888 4.492-3.403 6.943-3.369a8.11 8.11 0 012.3.179 11.973 11.973 0 01-2.12 2 4.688 4.688 0 01-.545.031c-2.593.257-4.053 1.705-5.834 3.486l-8.485 8.486-1.515-1.552zm26.178-7.337l73.295 73.294-1.52 1.52-73.3-73.3 1.529-1.514zm-4.764-8.072c-.337.122-.322.023-.883-.16a13.418 13.418 0 00-12.984 3.137l-20.329-20.306-6.429 6.429 20.29 20.313c-.946.946-5.492 5.42-6.004 6.048l6.408 6.408 6.979-6.932c1.733.875 4.937.946 6.88.616a13.091 13.091 0 005.12-2.073c.586-.403 1.267-1.062 1.773-1.366l75.753 75.752 6.422-6.483-75.753-75.752 6.364-6.364c-.084-.253-5.728-5.786-6.405-6.464l-7.2 7.2z"/><path class="f" d="M389.693 4228.016l73.305 73.305 1.52-1.52-73.293-73.292z"/><path class="e" d="M393.466 4253.97a33.422 33.422 0 01-1.463 3.052c-1.66 3.489-1.867 2.628-.485 3.98l6.066-2.907c-.83.831-6.34 6.225-6.591 6.667l1.663 1.663c.715-.409 4.704-4.63 5.623-5.549.96-.959 4.956-5.054 5.611-5.588l-1.738-1.738c-.266-.172-3.775 1.788-4.073 1.937-1.365.694-2.794 1.38-4.089 2.09a9.517 9.517 0 011.015-2.096l3.065-6.025-1.824-1.78-11.14 11.171 1.722 1.722zm16.032 19.087l-2.703 2.703c-.44.44-.852.704-1.333.332-.39-.304-.937-.797-.924-1.253.016-.54 1.813-2.214 2.331-2.665.743-.644 1.606.142 2.63.883zm1.03-4.577c1.242-.972 1.35-2.088 2.742-.652.933.964-.023 1.492-1.287 2.752-.495.495-.853.54-1.401.213-.45-.266-.914-.631-1.35-.914-2.589-1.689-3.975.458-5.427 1.91-2.05 2.05-2.727 3.07-.335 5.463l2.655 2.655c.565-.365 9.46-9.333 9.742-9.824 1.034-1.794-.319-3.43-2.125-4.902a2.578 2.578 0 00-2.491-.448 7.428 7.428 0 00-2.41 2.054zm-26.585-14.847c-.969.574-2.076-.968-1.891-1.487.154-.437 4.125-4.267 4.769-4.91a30.71 30.71 0 012.524-2.471c.748-.466 2.068.873 1.783 1.587-.198.475-6.871 7.096-7.185 7.28zm3.698-10.703l-7.321 7.322a2.659 2.659 0 00-.032 3.813l1.465 1.464a2.624 2.624 0 003.752.03l7.441-7.442a2.658 2.658 0 00.748-2.257 3.853 3.853 0 00-1.492-2.24 3.8 3.8 0 00-2.242-1.48 2.649 2.649 0 00-2.32.793zm59.451 55.577c-.722.565-5.775 5.739-6.897 6.861-.874.873-2.784 2.484-3.088 3.49-.41 1.36.11 2.136 1.425 3.45 3.029 3.029 4.169.981 6.937-1.787 1.103-1.103 6.238-6.12 6.804-6.84l-1.725-1.677c-.556.415-6.84 6.803-7.912 7.875-1.343 1.343-1.547 1.883-2.612.811-1.131-1.131-.099-1.61.918-2.627 1.18-1.18 7.26-7.165 7.841-7.871zm-28.818-24.337c.46-.461.88-.432 1.327.015 1.498 1.498.54 1.356-.577 2.78l1.707 1.706 1.28-1.253a2.674 2.674 0 00.032-3.965l-1.282-1.282a2.687 2.687 0 00-3.978.019c-3.147 3.146-3.985 3.42-1.597 6.988.835 1.248.2 1.395-1.804 3.4-.458.457-.925.538-1.388.076-1.48-1.481-.582-1.398.577-2.81l-1.702-1.703-1.284 1.249a2.64 2.64 0 00-.06 3.9l1.405 1.405a2.641 2.641 0 003.89-.07c3.426-3.427 4.557-3.755 2.06-7.4-.846-1.227-.395-1.266 1.394-3.055zm-.751 10.635a5 5 0 00-2.194 3.165c-.05 1.21.934 2.064 2.003 3.144 2.593 2.608 4.401-.104 6.27-1.968 1.202-1.202 1.456-1.914 1.117-3.126-.263-.957-1.663-2.54-1.604-3.11.052-.483.916-1.18 1.322-1.586.476-.476.936-1.056 1.52-.717.564.328 1.17 1.07 1.034 1.511a8.125 8.125 0 01-1.315 1.513l1.702 1.702c1.137-.893 2.127-2.026 2.19-3.156.069-1.184-.867-2.05-1.918-3.102-2.586-2.587-4.367-.166-6.298 1.85-2.71 2.837 1.74 4.924.673 6.306-.345.444-1.143 1.144-1.57 1.582a4.063 4.063 0 01-.783.714.861.861 0 01-.726.037c-.544-.278-1.163-1.052-1.042-1.534s.958-1.083 1.31-1.518zm28.247 28.239c-3.362 2.769-2.413 4.073-.216 6.289a2.743 2.743 0 003.143.892c.867-.352 2.376-2.082 3.142-2.845 1.17-1.17 1.465-1.909 1.124-3.143-.265-.956-1.658-2.485-1.598-3.111.048-.506.911-1.169 1.313-1.57.52-.52.925-1.055 1.507-.722.532.307 1.164 1 1.05 1.497-.123.547-.906 1.062-1.31 1.539l1.725 1.68c1.04-.925 2.15-1.934 2.135-3.098-.02-1.495-.582-1.832-1.845-3.097-1.068-1.068-2.064-1.389-3.154-1.005-.917.32-2.32 1.968-3.116 2.761a2.64 2.64 0 00-.688 3.174c.577 1.377 1.89 2.291 1.344 3.111a17.177 17.177 0 01-1.554 1.602c-1.08 1.08-1.335 1.239-2.4.044-.799-.9.522-1.59 1.086-2.308l-1.69-1.69zm-10.095-22.773c.848.698 1.896 1.522 1.053 2.365-2.783 2.783-2.504 3.137-4.426 1.011zm-4.981 4.981c1.683 1.25 1.718 2.485 3.818 2.29 1.28-.12 2.699-1.915 3.77-2.986 1.017-1.017 1.873-2.245.954-3.759a44.3 44.3 0 00-3.73-3.836c-.82.82-10.737 10.596-11.173 11.248a9.253 9.253 0 011.708 1.618c.604-.397 3.874-3.796 4.66-4.581zm-24.87-34.844c.919.755 1.9 1.515.99 2.425-2.702 2.703-2.45 3.065-4.363.95zm-4.98 4.98c1.559 1.158 1.874 2.467 3.76 2.297 1.39-.126 2.711-1.905 3.815-3.008 1.016-1.016 1.926-2.238.92-3.812a44.1 44.1 0 00-3.682-3.769l-11.166 11.166 1.738 1.738zm-22.054-19.253c-.63.488-1.187 1.47-1.891 1.273-.222-.06-1.478-.927-1.157-1.672.172-.393 6.999-7.214 7.376-7.376.567-.24 1.577.642 1.678 1.212.11.624-.79 1.304-1.34 1.854l1.736 1.714c1.286-1.287 2.274-2.036 2.134-3.51-.12-1.261-1.788-2.853-2.625-3.426a2.7 2.7 0 00-3.525.507l-7.02 7.02c-2.37 2.36-.175 4.053 1.113 5.323a2.655 2.655 0 003.576.385 14.978 14.978 0 001.635-1.644l-1.702-1.671z"/><path class="g" d="M350.741 4207.54l17.904 17.903 1.49-1.576-17.895-17.896zm25.568 22.965a6.393 6.393 0 002.304.183c3.097-.313 4.692-1.119 7.134-3.562.74-.741 8.993-8.885 9.41-9.453l-1.484-1.506c-.55.39-7.987 7.934-8.676 8.623-1.475 1.475-2.516 2.688-4.308 3.286a8.086 8.086 0 01-2.2.46c-.544.076-1.717 1.499-2.177 1.972z"/><path class="f" d="M365.038 4233.841l1.514 1.552 8.485-8.486c1.781-1.78 3.241-3.227 5.835-3.485a4.711 4.711 0 00.546-.031 11.941 11.941 0 002.119-2 8.1 8.1 0 00-2.301-.18c-2.449-.033-5.055 1.48-6.941 3.37-3.08 3.08-6.214 6.143-9.257 9.257z"/><path class="e" d="M430.777 4304.558l4.148 4.149 1.571-1.571-2.423-2.423 9.594-9.62-1.732-1.692z"/><path class="h" d="M383.94 4253.633c.315-.188 6.993-6.811 7.18-7.283.287-.711-1.035-2.054-1.783-1.588a31.084 31.084 0 00-2.524 2.47c-.644.643-4.608 4.48-4.77 4.91-.176.525.931 2.07 1.896 1.49zm25.566 19.424c-1.03-.738-1.887-1.523-2.629-.878-.518.45-2.316 2.125-2.331 2.665-.013.457.533.95.925 1.253.478.37.893.109 1.332-.333l2.703-2.707zm22.749 20.542c1.923 2.126 1.643 1.772 4.427-1.011.844-.845-.207-1.67-1.052-2.364zm-29.805-29.813c1.912 2.115 1.659 1.754 4.364-.951.91-.91-.076-1.673-.991-2.426z"/><text class="r" transform="rotate(45 -5012.057 2775.923)"><tspan x="0" y="0">Base 24</tspan></text></g></svg>