<svg xmlns="http://www.w3.org/2000/svg" xmlns:xlink="http://www.w3.org/1999/xlink" width="960" height="762" viewBox="0 0 960 762"><defs><style>.a{fill:#08243b;}.b{clip-path:url(#a);}.c,.h{fill:#fff;}.d{fill:#62b3e5;}.e,.f,.g,.h,.i,.j,.k,.l,.m,.n,.o,.p{fill-rule:evenodd;}.f{fill:#e60004;}.g{fill:#c1c3c6;}.i{fill:#35bdb2;}.j{fill:#ed1749;}.k{fill:#a0ce63;}.l{fill:#ad208e;}.m{fill:#f78f1e;}.n{fill:#00a4e4;}.o{fill:#fd0;}.p{fill:#231e20;}.q,.r{fill:#1d1d1b;font-family:Circe-Bold, Circe;font-weight:700;}.q{font-size:26px;}.r{font-size:35px;}.s{filter:url(#an);}.t{filter:url(#al);}.u{filter:url(#aj);}.v{filter:url(#ah);}.w{filter:url(#af);}.x{filter:url(#ad);}.y{filter:url(#ab);}.z{filter:url(#z);}.aa{filter:url(#x);}.ab{filter:url(#v);}.ac{filter:url(#t);}.ad{filter:url(#r);}.ae{filter:url(#p);}.af{filter:url(#n);}.ag{filter:url(#l);}.ah{filter:url(#j);}.ai{filter:url(#h);}.aj{filter:url(#f);}.ak{filter:url(#d);}.al{filter:url(#b);}</style><clipPath id="a"><rect class="a" width="960" height="762" transform="translate(0 3532)"/></clipPath><filter id="b" x="275.261" y="-237.495" width="268.391" height="268.391" filterUnits="userSpaceOnUse"><feOffset input="SourceAlpha"/><feGaussianBlur stdDeviation="2.475" result="c"/><feFlood flood-opacity="0.251"/><feComposite operator="in" in2="c"/><feComposite in="SourceGraphic"/></filter><filter id="d" x="413.562" y="-99.195" width="268.391" height="268.391" filterUnits="userSpaceOnUse"><feOffset input="SourceAlpha"/><feGaussianBlur stdDeviation="2.475" result="e"/><feFlood flood-opacity="0.251"/><feComposite operator="in" in2="e"/><feComposite in="SourceGraphic"/></filter><filter id="f" x="551.862" y="39.105" width="268.391" height="268.391" filterUnits="userSpaceOnUse"><feOffset input="SourceAlpha"/><feGaussianBlur stdDeviation="2.475" result="g"/><feFlood flood-opacity="0.251"/><feComposite operator="in" in2="g"/><feComposite in="SourceGraphic"/></filter><filter id="h" x="690.163" y="177.406" width="268.391" height="268.391" filterUnits="userSpaceOnUse"><feOffset input="SourceAlpha"/><feGaussianBlur stdDeviation="2.475" result="i"/><feFlood flood-opacity="0.251"/><feComposite operator="in" in2="i"/><feComposite in="SourceGraphic"/></filter><filter id="j" x="136.961" y="-99.195" width="268.391" height="268.391" filterUnits="userSpaceOnUse"><feOffset input="SourceAlpha"/><feGaussianBlur stdDeviation="2.475" result="k"/><feFlood flood-opacity="0.251"/><feComposite operator="in" in2="k"/><feComposite in="SourceGraphic"/></filter><filter id="l" x="275.262" y="39.106" width="268.391" height="268.391" filterUnits="userSpaceOnUse"><feOffset input="SourceAlpha"/><feGaussianBlur stdDeviation="2.475" result="m"/><feFlood flood-opacity="0.251"/><feComposite operator="in" in2="m"/><feComposite in="SourceGraphic"/></filter><filter id="n" x="413.562" y="177.406" width="268.391" height="268.391" filterUnits="userSpaceOnUse"><feOffset input="SourceAlpha"/><feGaussianBlur stdDeviation="2.475" result="o"/><feFlood flood-opacity="0.251"/><feComposite operator="in" in2="o"/><feComposite in="SourceGraphic"/></filter><filter id="p" x="551.862" y="315.697" width="268.391" height="268.391" filterUnits="userSpaceOnUse"><feOffset input="SourceAlpha"/><feGaussianBlur stdDeviation="2.475" result="q"/><feFlood flood-opacity="0.251"/><feComposite operator="in" in2="q"/><feComposite in="SourceGraphic"/></filter><filter id="r" x="-1.33" y="39.106" width="268.391" height="268.391" filterUnits="userSpaceOnUse"><feOffset input="SourceAlpha"/><feGaussianBlur stdDeviation="2.475" result="s"/><feFlood flood-opacity="0.251"/><feComposite operator="in" in2="s"/><feComposite in="SourceGraphic"/></filter><filter id="t" x="136.961" y="177.406" width="268.391" height="268.391" filterUnits="userSpaceOnUse"><feOffset input="SourceAlpha"/><feGaussianBlur stdDeviation="2.475" result="u"/><feFlood flood-opacity="0.251"/><feComposite operator="in" in2="u"/><feComposite in="SourceGraphic"/></filter><filter id="v" x="275.261" y="315.698" width="268.391" height="268.391" filterUnits="userSpaceOnUse"><feOffset input="SourceAlpha"/><feGaussianBlur stdDeviation="2.475" result="w"/><feFlood flood-opacity="0.251"/><feComposite operator="in" in2="w"/><feComposite in="SourceGraphic"/></filter><filter id="x" x="413.562" y="453.998" width="268.391" height="268.391" filterUnits="userSpaceOnUse"><feOffset input="SourceAlpha"/><feGaussianBlur stdDeviation="2.475" result="y"/><feFlood flood-opacity="0.251"/><feComposite operator="in" in2="y"/><feComposite in="SourceGraphic"/></filter><filter id="z" x="-139.631" y="177.406" width="268.391" height="268.391" filterUnits="userSpaceOnUse"><feOffset input="SourceAlpha"/><feGaussianBlur stdDeviation="2.475" result="aa"/><feFlood flood-opacity="0.251"/><feComposite operator="in" in2="aa"/><feComposite in="SourceGraphic"/></filter><filter id="ab" x="-1.33" y="315.697" width="268.391" height="268.391" filterUnits="userSpaceOnUse"><feOffset input="SourceAlpha"/><feGaussianBlur stdDeviation="2.475" result="ac"/><feFlood flood-opacity="0.251"/><feComposite operator="in" in2="ac"/><feComposite in="SourceGraphic"/></filter><filter id="ad" x="136.961" y="453.998" width="268.391" height="268.391" filterUnits="userSpaceOnUse"><feOffset input="SourceAlpha"/><feGaussianBlur stdDeviation="2.475" result="ae"/><feFlood flood-opacity="0.251"/><feComposite operator="in" in2="ae"/><feComposite in="SourceGraphic"/></filter><filter id="af" x="275.262" y="592.289" width="268.391" height="268.391" filterUnits="userSpaceOnUse"><feOffset input="SourceAlpha"/><feGaussianBlur stdDeviation="2.475" result="ag"/><feFlood flood-opacity="0.251"/><feComposite operator="in" in2="ag"/><feComposite in="SourceGraphic"/></filter><filter id="ah" x="828.454" y="316.858" width="268.391" height="268.391" filterUnits="userSpaceOnUse"><feOffset input="SourceAlpha"/><feGaussianBlur stdDeviation="2.475" result="ai"/><feFlood flood-opacity="0.251"/><feComposite operator="in" in2="ai"/><feComposite in="SourceGraphic"/></filter><filter id="aj" x="690.729" y="454.573" width="268.391" height="268.391" filterUnits="userSpaceOnUse"><feOffset input="SourceAlpha"/><feGaussianBlur stdDeviation="2.475" result="ak"/><feFlood flood-opacity="0.251"/><feComposite operator="in" in2="ak"/><feComposite in="SourceGraphic"/></filter><filter id="al" x="552.438" y="592.865" width="268.391" height="268.391" filterUnits="userSpaceOnUse"><feOffset input="SourceAlpha"/><feGaussianBlur stdDeviation="2.475" result="am"/><feFlood flood-opacity="0.251"/><feComposite operator="in" in2="am"/><feComposite in="SourceGraphic"/></filter><filter id="an" x="414.138" y="731.175" width="268.391" height="268.391" filterUnits="userSpaceOnUse"><feOffset input="SourceAlpha"/><feGaussianBlur stdDeviation="2.475" result="ao"/><feFlood flood-opacity="0.251"/><feComposite operator="in" in2="ao"/><feComposite in="SourceGraphic"/></filter></defs><g class="b" transform="translate(0 -3532)"><g transform="translate(930.962 1319.307) rotate(45)"><g class="al" transform="matrix(0.71, -0.71, 0.71, 0.71, 906.32, 2222.9)"><path class="c" d="M40.746,0h97.787a40.746,40.746,0,0,1,40.746,40.746v97.787a40.746,40.746,0,0,1-40.746,40.746H40.746A40.746,40.746,0,0,1,0,138.537V40.75A40.747,40.747,0,0,1,40.75,0Z" transform="translate(409.46 -230.07) rotate(45)"/></g><g class="ak" transform="matrix(0.71, -0.71, 0.71, 0.71, 906.32, 2222.9)"><path class="c" d="M40.746,0h97.787a40.746,40.746,0,0,1,40.746,40.746v97.787a40.746,40.746,0,0,1-40.746,40.746H40.746A40.746,40.746,0,0,1,0,138.537V40.75A40.747,40.747,0,0,1,40.75,0Z" transform="translate(547.76 -91.77) rotate(45)"/></g><g class="aj" transform="matrix(0.71, -0.71, 0.71, 0.71, 906.32, 2222.9)"><path class="c" d="M40.746,0h97.787a40.746,40.746,0,0,1,40.746,40.746v97.787a40.746,40.746,0,0,1-40.746,40.746H40.746A40.746,40.746,0,0,1,0,138.537V40.75A40.747,40.747,0,0,1,40.75,0Z" transform="translate(686.06 46.53) rotate(45)"/></g><g class="ai" transform="matrix(0.71, -0.71, 0.71, 0.71, 906.32, 2222.9)"><path class="c" d="M40.746,0h97.787a40.746,40.746,0,0,1,40.746,40.746v97.787a40.746,40.746,0,0,1-40.746,40.746H40.746A40.746,40.746,0,0,1,0,138.537V40.75A40.747,40.747,0,0,1,40.75,0Z" transform="translate(824.36 184.83) rotate(45)"/></g><g class="ah" transform="matrix(0.71, -0.71, 0.71, 0.71, 906.32, 2222.9)"><path class="c" d="M40.746,0h97.787a40.746,40.746,0,0,1,40.746,40.746v97.787a40.746,40.746,0,0,1-40.746,40.746H40.746A40.746,40.746,0,0,1,0,138.537V40.75A40.747,40.747,0,0,1,40.75,0Z" transform="translate(271.16 -91.77) rotate(45)"/></g><g class="ag" transform="matrix(0.71, -0.71, 0.71, 0.71, 906.32, 2222.9)"><path class="c" d="M40.746,0h97.787a40.746,40.746,0,0,1,40.746,40.746v97.787a40.746,40.746,0,0,1-40.746,40.746H40.746A40.746,40.746,0,0,1,0,138.537V40.75A40.747,40.747,0,0,1,40.75,0Z" transform="translate(409.46 46.53) rotate(45)"/></g><g class="af" transform="matrix(0.71, -0.71, 0.71, 0.71, 906.32, 2222.9)"><path class="c" d="M40.746,0h97.787a40.746,40.746,0,0,1,40.746,40.746v97.787a40.746,40.746,0,0,1-40.746,40.746H40.746A40.746,40.746,0,0,1,0,138.537V40.75A40.747,40.747,0,0,1,40.75,0Z" transform="translate(547.76 184.83) rotate(45)"/></g><g class="ae" transform="matrix(0.71, -0.71, 0.71, 0.71, 906.32, 2222.9)"><path class="c" d="M40.746,0h97.787a40.746,40.746,0,0,1,40.746,40.746v97.787a40.746,40.746,0,0,1-40.746,40.746H40.746A40.746,40.746,0,0,1,0,138.537V40.75A40.747,40.747,0,0,1,40.75,0Z" transform="translate(686.06 323.12) rotate(45)"/></g><g class="ad" transform="matrix(0.71, -0.71, 0.71, 0.71, 906.32, 2222.9)"><path class="c" d="M40.746,0h97.787a40.746,40.746,0,0,1,40.746,40.746v97.787a40.746,40.746,0,0,1-40.746,40.746H40.746A40.746,40.746,0,0,1,0,138.537V40.75A40.747,40.747,0,0,1,40.75,0Z" transform="translate(132.87 46.53) rotate(45)"/></g><g class="ac" transform="matrix(0.71, -0.71, 0.71, 0.71, 906.32, 2222.9)"><path class="c" d="M40.746,0h97.787a40.746,40.746,0,0,1,40.746,40.746v97.787a40.746,40.746,0,0,1-40.746,40.746H40.746A40.746,40.746,0,0,1,0,138.537V40.75A40.747,40.747,0,0,1,40.75,0Z" transform="translate(271.16 184.83) rotate(45)"/></g><g class="ab" transform="matrix(0.71, -0.71, 0.71, 0.71, 906.32, 2222.9)"><path class="c" d="M40.746,0h97.787a40.746,40.746,0,0,1,40.746,40.746v97.787a40.746,40.746,0,0,1-40.746,40.746H40.746A40.746,40.746,0,0,1,0,138.537V40.75A40.747,40.747,0,0,1,40.75,0Z" transform="translate(409.46 323.12) rotate(45)"/></g><g class="aa" transform="matrix(0.71, -0.71, 0.71, 0.71, 906.32, 2222.9)"><path class="c" d="M40.746,0h97.787a40.746,40.746,0,0,1,40.746,40.746v97.787a40.746,40.746,0,0,1-40.746,40.746H40.746A40.746,40.746,0,0,1,0,138.537V40.75A40.747,40.747,0,0,1,40.75,0Z" transform="translate(547.76 461.42) rotate(45)"/></g><g class="z" transform="matrix(0.71, -0.71, 0.71, 0.71, 906.32, 2222.9)"><path class="c" d="M40.746,0h97.787a40.746,40.746,0,0,1,40.746,40.746v97.787a40.746,40.746,0,0,1-40.746,40.746H40.746A40.746,40.746,0,0,1,0,138.537V40.75A40.747,40.747,0,0,1,40.75,0Z" transform="translate(-5.44 184.83) rotate(45)"/></g><g class="y" transform="matrix(0.71, -0.71, 0.71, 0.71, 906.32, 2222.9)"><path class="c" d="M40.746,0h97.787a40.746,40.746,0,0,1,40.746,40.746v97.787a40.746,40.746,0,0,1-40.746,40.746H40.746A40.746,40.746,0,0,1,0,138.537V40.75A40.747,40.747,0,0,1,40.75,0Z" transform="translate(132.87 323.12) rotate(45)"/></g><g class="x" transform="matrix(0.71, -0.71, 0.71, 0.71, 906.32, 2222.9)"><path class="c" d="M40.746,0h97.787a40.746,40.746,0,0,1,40.746,40.746v97.787a40.746,40.746,0,0,1-40.746,40.746H40.746A40.746,40.746,0,0,1,0,138.537V40.75A40.747,40.747,0,0,1,40.75,0Z" transform="translate(271.16 461.42) rotate(45)"/></g><g class="w" transform="matrix(0.71, -0.71, 0.71, 0.71, 906.32, 2222.9)"><path class="c" d="M40.746,0h97.787a40.746,40.746,0,0,1,40.746,40.746v97.787a40.746,40.746,0,0,1-40.746,40.746H40.746A40.746,40.746,0,0,1,0,138.537V40.75A40.747,40.747,0,0,1,40.75,0Z" transform="translate(409.46 599.72) rotate(45)"/></g><g class="v" transform="matrix(0.71, -0.71, 0.71, 0.71, 906.32, 2222.9)"><path class="c" d="M40.746,0h97.787a40.746,40.746,0,0,1,40.746,40.746v97.787a40.746,40.746,0,0,1-40.746,40.746H40.746A40.746,40.746,0,0,1,0,138.537V40.75A40.747,40.747,0,0,1,40.75,0Z" transform="translate(962.65 324.28) rotate(45)"/></g><g class="u" transform="matrix(0.71, -0.71, 0.71, 0.71, 906.32, 2222.9)"><path class="c" d="M40.746,0h97.787a40.746,40.746,0,0,1,40.746,40.746v97.787a40.746,40.746,0,0,1-40.746,40.746H40.746A40.746,40.746,0,0,1,0,138.537V40.75A40.747,40.747,0,0,1,40.75,0Z" transform="translate(824.93 462) rotate(45)"/></g><g class="t" transform="matrix(0.71, -0.71, 0.71, 0.71, 906.32, 2222.9)"><path class="c" d="M40.746,0h97.787a40.746,40.746,0,0,1,40.746,40.746v97.787a40.746,40.746,0,0,1-40.746,40.746H40.746A40.746,40.746,0,0,1,0,138.537V40.75A40.747,40.747,0,0,1,40.75,0Z" transform="translate(686.63 600.29) rotate(45)"/></g><g class="s" transform="matrix(0.71, -0.71, 0.71, 0.71, 906.32, 2222.9)"><path class="c" d="M40.746,0h97.787a40.746,40.746,0,0,1,40.746,40.746v97.787a40.746,40.746,0,0,1-40.746,40.746H40.746A40.746,40.746,0,0,1,0,138.537V40.75A40.747,40.747,0,0,1,40.75,0Z" transform="translate(548.33 738.6) rotate(45)"/></g><g transform="translate(1058.761 1840.808)"><path class="d" d="M66.243,108.374c.174,4.14,2.644,6.855,6.994,6.855a6.176,6.176,0,0,0,5.845-3.306h9.6c-1.844,6.994-8.556,10.02-15.552,10.02-10.194,0-17.118-5.95-17.118-16.039,0-9.255,7.655-15.865,16.875-15.865,11.2,0,16.8,8.142,16.318,18.371H66.243Zm12.7-5.5a6.2,6.2,0,0,0-6.089-6.158c-3.619,0-6.019,2.5-6.644,6.158ZM126.226,90c9.777,0,16.666,6.924,16.666,16s-6.855,15.935-16.666,15.935-16.565-6.855-16.565-15.935,6.823-16,16.565-16Zm0,24.355c4.8,0,6.3-4.558,6.3-8.385,0-3.793-1.531-8.42-6.3-8.42-4.8,0-6.228,4.558-6.228,8.42C120,109.87,121.424,114.359,126.226,114.359ZM40.67,97.763h-6.3v13.5c0,2.47,1.426,2.992,3.688,2.992.835,0,1.739-.1,2.644-.1v7.481c-1.844.069-3.723.313-5.6.313-8.733,0-10.959-2.5-10.959-10.995V97.763H18.959V91.152h5.188V81.027H34.372V91.152h6.3Zm12.8-9.325H43.279V81.066H53.473ZM43.245,91.221H53.474v30.722H43.279Zm66.42,6.541h-6.3v13.5c0,2.47,1.426,2.992,3.653,2.992.835,0,1.739-.1,2.644-.1v7.481c-1.844.069-3.723.313-5.6.313-8.733,0-10.959-2.5-10.959-10.995V97.763H87.916V91.152H93.03V81.027h10.264V91.152h6.3Z" transform="translate(-18.959 -81.027)"/></g><g transform="translate(1433.753 1841.393)"><g transform="translate(0 0)"><path class="e" d="M3.421,25.585H28.728l.06,2.169H3.466Zm34.367.326c-.009-.658-.182-2.5.145-2.935a8.1,8.1,0,0,0,1.231-1.88c.845-1.688.723-3.282.723-5.37,0-.973-.076-11.567.037-12.232l2.118.015c.108.7.031,12.287.032,13.338,0,3.459-.558,5.152-2.527,7.563a6.386,6.386,0,0,1-1.758,1.5Zm-5.61,10.327c-.053-4.352,0-8.738,0-13.091,0-2.67.77-5.582,2.527-7.291a8.11,8.11,0,0,1,1.753-1.5,11.973,11.973,0,0,1-.084,2.913,4.688,4.688,0,0,1-.364.408c-1.652,2.015-1.66,4.071-1.66,6.59v12l-2.168-.026ZM45.5,12.539H149.154v2.15H45.492l.011-2.152ZM36.424,10.2c-.152.325-.212.244-.738.511a13.418,13.418,0,0,0-6.963,11.4l-28.733.016v9.092l28.711.016c0,1.338-.051,7.716.031,8.522h9.062l.033-9.836c1.845-.607,4.16-2.822,5.3-4.429a13.091,13.091,0,0,0,2.155-5.086c.13-.7.145-1.648.288-2.221H152.7l-.043-9.125H45.527v-9c-.238-.119-8.142-.041-9.1-.041V10.2Z" transform="translate(0.011 0)"/><path class="f" d="M2344.818,648.349h103.669V646.2H2344.836Z" transform="translate(-2299.316 -633.662)"/><path class="e" d="M3302.9,1240.391a33.422,33.422,0,0,1,1.124,3.193c1.292,3.641.538,3.178,2.471,3.157l2.234-6.345c0,1.175-.082,8.885.053,9.375h2.352c.217-.795.053-6.6.053-7.9,0-1.356-.07-7.078.016-7.919h-2.458c-.31.067-1.405,3.934-1.51,4.25-.475,1.456-1,2.951-1.414,4.369a9.517,9.517,0,0,1-.764-2.2l-2.093-6.427-2.548.031.022,15.776h2.434Z" transform="translate(-3236.378 -1210.02)"/><path class="e" d="M4457.336,1239.338v3.823c0,.622-.105,1.1-.708,1.177-.491.062-1.226.1-1.539-.232-.371-.393-.284-2.848-.236-3.533C4454.923,1239.592,4456.089,1239.538,4457.336,1239.338Zm-2.508-3.964c.191-1.566-.522-2.431,1.478-2.4,1.341.021,1.038,1.071,1.036,2.856,0,.7-.222.985-.841,1.141-.506.13-1.092.2-1.6.308-3.025.637-2.487,3.135-2.487,5.188,0,2.9.243,4.1,3.626,4.1h3.754c.142-.657.091-13.289-.057-13.835-.538-2-2.651-2.2-4.969-1.964a2.578,2.578,0,0,0-2.079,1.445,7.428,7.428,0,0,0-.251,3.156Z" transform="translate(-4365.981 -1206.807)"/><path class="e" d="M2818.484,1246.752c-.279,1.092-2.153.784-2.389.286-.2-.418-.1-5.934-.1-6.844a30.71,30.71,0,0,1,.038-3.532c.2-.858,2.08-.845,2.383-.138C2818.612,1237,2818.575,1246.4,2818.484,1246.752Zm-4.953-10.182v10.354a2.659,2.659,0,0,0,2.674,2.718h2.071a2.624,2.624,0,0,0,2.674-2.632v-10.524a2.658,2.658,0,0,0-1.067-2.125,3.853,3.853,0,0,0-2.64-.529,3.8,3.8,0,0,0-2.631.54,2.649,2.649,0,0,0-1.08,2.2Z" transform="translate(-2758.934 -1209.886)"/><path class="e" d="M7003.223,1233.857c-.111.91-.026,8.142-.026,9.729,0,1.235-.212,3.725.285,4.651.672,1.251,1.588,1.432,3.447,1.432,4.283,0,3.641-2.254,3.641-6.169,0-1.56.084-8.738-.026-9.648l-2.405.034c-.1.687-.026,9.648-.026,11.163,0,1.9.238,2.426-1.273,2.421-1.6,0-1.209-1.069-1.209-2.507,0-1.669.067-10.2-.021-11.11Z" transform="translate(-6867.289 -1209.913)"/><path class="e" d="M4943.119,1237.131c0-.652.317-.928.95-.928,2.118,0,1.34.577,1.557,2.373h2.413l.02-1.791a2.674,2.674,0,0,0-2.781-2.826h-1.813a2.687,2.687,0,0,0-2.8,2.826c0,4.45-.4,5.236,3.812,6.071,1.473.292,1.128.844,1.128,3.679,0,.647-.273,1.035-.927,1.035-2.094,0-1.4-.576-1.579-2.395h-2.408l-.025,1.791a2.64,2.64,0,0,0,2.717,2.8h1.986a2.641,2.641,0,0,0,2.7-2.8c0-4.846.568-5.877-3.775-6.69C4942.828,1240.007,4943.119,1239.661,4943.119,1237.131Z" transform="translate(-4844.772 -1210.018)"/><path class="e" d="M5423.408,1245.1a5,5,0,0,0,.687,3.789c.82.891,2.12.8,3.64.807,3.677.011,3.038-3.186,3.042-5.825,0-1.7-.324-2.383-1.421-3-.863-.491-2.972-.62-3.333-1.065-.305-.378-.187-1.482-.187-2.056,0-.674-.085-1.409.568-1.582.631-.167,1.583-.071,1.8.337a8.125,8.125,0,0,1,.139,2h2.407c.173-1.436.072-2.937-.682-3.781-.789-.885-2.064-.836-3.55-.837-3.658,0-3.206,2.971-3.146,5.762.091,3.922,4.713,2.251,4.936,3.983.069.558,0,1.617.007,2.229a4.063,4.063,0,0,1-.048,1.058.861.861,0,0,1-.487.54c-.581.188-1.566.078-1.821-.348s-.089-1.443-.148-2Z" transform="translate(-5318.072 -1209.936)"/><path class="e" d="M7484.512,1244.75c-.42,4.335,1.173,4.587,4.293,4.6a2.743,2.743,0,0,0,2.854-1.592c.364-.862.207-3.152.21-4.233,0-1.655-.314-2.386-1.428-3.017-.863-.489-2.929-.585-3.33-1.07-.323-.392-.182-1.471-.182-2.039,0-.736-.091-1.4.556-1.576.593-.159,1.529-.116,1.8.316.3.474.111,1.392.162,2.015l2.409-.032c.081-1.39.152-2.888-.682-3.7-1.071-1.044-1.707-.884-3.494-.886-1.511,0-2.442.478-2.941,1.52-.422.875-.249,3.032-.251,4.156a2.64,2.64,0,0,0,1.758,2.73c1.381.566,2.956.284,3.15,1.25a17.177,17.177,0,0,1,.034,2.231c0,1.527-.068,1.82-1.667,1.729-1.2-.072-.754-1.494-.863-2.4h-2.39Z" transform="translate(-7339.233 -1209.592)"/><path class="e" d="M6161.446,1235.121c1.093-.107,2.417-.265,2.417.927,0,3.936.448,3.989-2.415,3.845Zm0,7.044c2.074-.306,2.972.542,4.319-1.081.82-.99.554-3.262.554-4.776,0-1.439-.263-2.913-1.983-3.333a44.3,44.3,0,0,0-5.35-.075c0,1.16-.1,15.084.053,15.854a9.253,9.253,0,0,1,2.352-.064c.146-.708.055-5.423.055-6.534Z" transform="translate(-6039.409 -1208.927)"/><path class="e" d="M3988.752,1234.827c1.183-.116,2.415-.273,2.415,1.014,0,3.823.435,3.9-2.414,3.758Zm0,7.044c1.921-.284,3.069.418,4.283-1.036.893-1.071.57-3.264.57-4.824,0-1.437-.22-2.945-2.045-3.346a44.1,44.1,0,0,0-5.268-.062v15.791h2.458Z" transform="translate(-3908.939 -1208.642)"/><path class="e" d="M2357.084,1242.342c-.1.79.2,1.878-.437,2.237-.2.114-1.7.389-2-.364-.156-.4-.152-10.05,0-10.432.231-.571,1.569-.661,2.043-.329.519.364.364,1.481.364,2.259l2.439-.016c0-1.82.169-3.048-.973-3.991-.976-.807-3.281-.753-4.278-.566a2.7,2.7,0,0,0-2.134,2.851v9.927c-.007,3.344,2.742,2.99,4.551,2.977a2.655,2.655,0,0,0,2.8-2.256,14.978,14.978,0,0,0-.006-2.319l-2.385.022Z" transform="translate(-2306.48 -1207.133)"/><path class="g" d="M176.832,1320.656h25.319l-.06-2.169H176.782Z" transform="translate(-173.352 -1292.905)"/><path class="g" d="M1945.02,202.551a6.393,6.393,0,0,0,1.759-1.5c1.968-2.411,2.526-4.109,2.525-7.563,0-1.048.077-12.642-.031-13.338l-2.114-.016c-.113.664-.037,11.258-.037,12.232,0,2.086.122,3.68-.723,5.37a8.086,8.086,0,0,1-1.23,1.88c-.331.439-.154,2.275-.145,2.935Z" transform="translate(-1907.222 -176.64)"/><path class="f" d="M1657.505,761.876l2.168.026v-12c0-2.518.009-4.574,1.661-6.59a4.711,4.711,0,0,0,.364-.408,11.941,11.941,0,0,0,.084-2.913,8.1,8.1,0,0,0-1.754,1.5c-1.755,1.708-2.528,4.621-2.525,7.291,0,4.356-.05,8.738,0,13.091Z" transform="translate(-1625.318 -725.636)"/><path class="e" d="M6630.838,1249.982h5.867v-2.222h-3.427l-.018-13.586-2.421.028Z" transform="translate(-6502.162 -1210.222)"/><path class="h" d="M2941.129,1356.833c.091-.356.129-9.761-.072-10.227-.3-.706-2.184-.721-2.384.138a31.084,31.084,0,0,0-.038,3.531c0,.91-.091,6.426.1,6.845C2938.981,1357.616,2940.856,1357.925,2941.129,1356.833Z" transform="translate(-2881.582 -1319.964)"/><path class="h" d="M4580.2,1676.142c-1.251.206-2.412.257-2.48,1.238-.048.685-.135,3.14.236,3.533.314.332,1.048.294,1.54.231.6-.076.708-.554.706-1.177Q4580.2,1678.052,4580.2,1676.142Z" transform="translate(-4488.839 -1643.616)"/><path class="h" d="M6287.347,1350.691c2.863.143,2.415.091,2.415-3.845,0-1.194-1.327-1.035-2.415-.928Z" transform="translate(-6165.375 -1319.726)"/><path class="h" d="M4113.02,1350.543c2.848.143,2.414.067,2.414-3.759,0-1.287-1.237-1.129-2.416-1.014Z" transform="translate(-4033.205 -1319.583)"/></g></g><g transform="translate(1828.31 1849.449)"><g transform="translate(0 0)"><path class="i" d="M1120.539,18.7a26.87,26.87,0,0,1,0-5.376c.862-3.368,6.462-1.534,3.98,2.886-1.076,1.911-2.366,1.9-3.319,2.354a8.928,8.928,0,0,0,4.285-1.388,10.7,10.7,0,0,0,2.866-2.866A9.383,9.383,0,0,0,1122.578.192a10.977,10.977,0,0,0-1.52-.192h-9.885a7.993,7.993,0,0,0,.661,3.57c1.129,2.8,4.381,5.574,7.117,5.574v.273a8.618,8.618,0,0,0-4.537,2.013,9.325,9.325,0,0,0-2.7,3.852c-.718,1.8-.546,3.555-.546,6.007v6.687c4.619-.384,7.974-2.947,9.063-7.176.192-.744.16-1.555.3-2.1Z" transform="translate(-1092.613 0.013)"/><path class="j" d="M4681,1.159c-.352.672-.394,1.632-.713,2.366a9.3,9.3,0,0,1-11.22,5.4c-.437-.13-1.9-.78-2.018-.786-.313-.015-5.546,3.085-8.442-.762a4.7,4.7,0,0,1-.455-4.7,4.337,4.337,0,0,1,1.252-1.616,6.943,6.943,0,0,1,1.7-.942l.208-.121c-6.024.381-10.622,8.037-7.038,13.9a8.679,8.679,0,0,0,2.116,2.524c5.552,4.468,9.97.785,10.981,1.149a9.508,9.508,0,0,0,3.13.981,9.317,9.317,0,0,0,9.226-4.537C4681.8,10.1,4681,6.364,4681,1.159Z" transform="translate(-4575.368 0.008)"/><path class="k" d="M2302.861,9.416a11.892,11.892,0,0,1-4.409-.644,4.7,4.7,0,0,1-1.707-6.7c1.055-1.587,2.11-1.6,2.894-2.074-2.693.052-5.571,2.119-7.046,4.475a9.417,9.417,0,0,0,.553,10.42c3.832,4.875,8.866,3.69,15.583,3.806.979.016,1.283.21,1.24-.809a9.81,9.81,0,0,0-2.336-5.474c-1.4-1.82-2.876-2.168-4.418-2.814l-.359-.187Z" transform="translate(-2253.046 0.013)"/><path class="l" d="M3479.344,10.783c0-2.587.455-5.32,3.708-6.007a4.531,4.531,0,0,1,4.858,2.078,10.587,10.587,0,0,1,.716,1.769c0-4.253-3.731-8.1-8.268-8.624h-2.083a9.478,9.478,0,0,0-3.073.91,9.365,9.365,0,0,0-3.15,2.582,8.9,8.9,0,0,0-1.842,3.889c-.44,2.084-.145,8.626-.145,11.319,1.705-.4,3.85-.171,6.179-2.419,2.977-2.876,2.631-4.516,3.1-5.5Z" transform="translate(-3412.067 0.012)"/><path class="m" d="M6395.489,8.52c.253-.461.417-1.258.741-1.775a4.754,4.754,0,0,1,5.227-1.941c3.17.888,3.448,3.886,3.448,6.659l.3.661a6.174,6.174,0,0,0,.876,1.989,9.133,9.133,0,0,0,7.29,4.471c1.062.1.819.38.819-2.753,0-3.974.392-7.828-1.092-10.783A9.308,9.308,0,0,0,6406,0h-2.23a9.7,9.7,0,0,0-1.015.168c-3.907.844-7.263,4.655-7.263,8.352Z" transform="translate(-6288.763 0.013)"/><path class="n" d="M15.907,171.746c.906,2.344.382,3.588-1.306,4.777a9.4,9.4,0,0,1-10.649-.005c-1.673-1.175-2.2-2.457-1.312-4.772-1.2.637-2.222,3.179-2.5,4.511a8.535,8.535,0,0,0-.141.95v1.8a9.239,9.239,0,0,0,.863,3.2,9.673,9.673,0,0,0,3.23,3.732,9.906,9.906,0,0,0,5.294,1.592,9.359,9.359,0,0,0,8.13-13.786,5.219,5.219,0,0,0-1.6-2Z" transform="translate(0.005 -168.867)"/><path class="o" d="M7580.524,73.359c-.405.258-2.814.565-4.472,2.215a9.23,9.23,0,0,0-2.743,3.944l-.571,2.73c.022.83.9.525,2.872.525,4.085,0,8.411.593,11.712-1.663a9.126,9.126,0,0,0,3.139-3.55c.958-2.01.98-2.841.98-5.707V65.166a18.025,18.025,0,0,0-.513,1.944,9.8,9.8,0,0,1-2.918,4.182C7585.622,73.1,7584.165,73.359,7580.524,73.359Z" transform="translate(-7446.371 -64.065)"/><path class="p" d="M4959.122,1.161V.006a7.822,7.822,0,0,0-3.494.6c-2.639,1.058-5.65,4.214-5.65,6.9l-.139-7.506a9.129,9.129,0,0,0-8.01,4.41,7,7,0,0,0-1.133,3.094l-.142-7.5h-1.125l-.207.121a6.93,6.93,0,0,0-1.7.942,4.356,4.356,0,0,0-1.251,1.617,4.7,4.7,0,0,0,.455,4.7c2.9,3.848,8.128.748,8.441.762.121.005,1.581.656,2.018.785A9.3,9.3,0,0,0,4958.4,3.522c.319-.728.364-1.691.712-2.366Z" transform="translate(-4853.49 0.008)"/><path class="p" d="M7580.944,9.285c3.634,0,5.067-.256,7.488-2.066a9.793,9.793,0,0,0,2.919-4.182,17.81,17.81,0,0,1,.511-1.945V.006a9.235,9.235,0,0,0-9,6.688c-.06.231-.051.246-.111.435-.2.6.145-.354-.075.2-.011.025-.035.073-.044.091a.778.778,0,0,1-.045.091V.006h-9.416a9.459,9.459,0,0,0,6.943,9.023c.169.048.248.058.434.113l.207.066c.027.009.075.03.1.038a.486.486,0,0,1,.091.04Z" transform="translate(-7446.793 0.008)"/><path class="p" d="M6395.488,281.493a9.3,9.3,0,0,0,1.252,5.512,9.442,9.442,0,0,0,5.676,4.286,6.167,6.167,0,0,0,1.4.248c.879.064,1.02.343,1.1-.4.182-1.729-.008-4.824-.009-6.705,0-2.773-.278-5.77-3.449-6.658a4.752,4.752,0,0,0-5.227,1.941C6395.943,280.235,6395.761,281.032,6395.488,281.493Z" transform="translate(-6288.769 -272.96)"/><path class="p" d="M2579.643,9.422c1.232,0,5.837.182,6.689,0,1.27-.264-.6-4.421-.929-4.943a8.99,8.99,0,0,0-3.379-3.307A8.913,8.913,0,0,0,2579.584.2,6.67,6.67,0,0,0,2578.113,0h-1.687c-.787.477-1.838.487-2.9,2.074a4.7,4.7,0,0,0,1.707,6.7,11.817,11.817,0,0,0,4.409.645Z" transform="translate(-2529.829 0.007)"/><path class="p" d="M4031.938,285.951l.115.294a8.96,8.96,0,0,0,.746,2.255c2.1,4.535,7.659,5.667,8.374,5.279.449-.241.182-2.569.182-3.192,0-1.84.241-5.325-.137-6.8a10.59,10.59,0,0,0-.714-1.769,4.533,4.533,0,0,0-4.859-2.078c-3.254.684-3.707,3.417-3.707,6.007Z" transform="translate(-3964.657 -275.157)"/><path class="p" d="M133.594,2.867c-.886,2.317-.364,3.6,1.313,4.772a9.4,9.4,0,0,0,10.649.005c1.688-1.19,2.212-2.435,1.306-4.778-.319-.78-2-1.717-2.672-2.05A8.472,8.472,0,0,0,140.99,0h-1.3a10.038,10.038,0,0,0-3.415.819,8.726,8.726,0,0,0-2.427,1.668c-.228.268-.131.091-.248.379Z" transform="translate(-130.946 0.012)"/><path class="p" d="M1665.285,701.323a1.564,1.564,0,0,1,.66-.136c.947-.455,2.242-.441,3.317-2.354,2.484-4.419-3.117-6.252-3.98-2.886a26.878,26.878,0,0,0,0,5.376Z" transform="translate(-1637.359 -682.617)"/></g></g><text class="q" transform="translate(1640.363 1870.759)"><tspan x="0" y="0">SmartVista</tspan></text><text class="r" transform="translate(1254.449 1873.897)"><tspan x="0" y="0">Base 24</tspan></text><g transform="translate(1448.316 2035.585)"><path class="d" d="M66.243,108.374c.174,4.14,2.644,6.855,6.994,6.855a6.176,6.176,0,0,0,5.845-3.306h9.6c-1.844,6.994-8.556,10.02-15.552,10.02-10.194,0-17.118-5.95-17.118-16.039,0-9.255,7.655-15.865,16.875-15.865,11.2,0,16.8,8.142,16.318,18.371H66.243Zm12.7-5.5a6.2,6.2,0,0,0-6.089-6.158c-3.619,0-6.019,2.5-6.644,6.158ZM126.226,90c9.777,0,16.666,6.924,16.666,16s-6.855,15.935-16.666,15.935-16.565-6.855-16.565-15.935,6.823-16,16.565-16Zm0,24.355c4.8,0,6.3-4.558,6.3-8.385,0-3.793-1.531-8.42-6.3-8.42-4.8,0-6.228,4.558-6.228,8.42C120,109.87,121.424,114.359,126.226,114.359ZM40.67,97.763h-6.3v13.5c0,2.47,1.426,2.992,3.688,2.992.835,0,1.739-.1,2.644-.1v7.481c-1.844.069-3.723.313-5.6.313-8.733,0-10.959-2.5-10.959-10.995V97.763H18.959V91.152h5.188V81.027H34.372V91.152h6.3Zm12.8-9.325H43.279V81.066H53.473ZM43.245,91.221H53.474v30.722H43.279Zm66.42,6.541h-6.3v13.5c0,2.47,1.426,2.992,3.653,2.992.835,0,1.739-.1,2.644-.1v7.481c-1.844.069-3.723.313-5.6.313-8.733,0-10.959-2.5-10.959-10.995V97.763H87.916V91.152H93.03V81.027h10.264V91.152h6.3Z" transform="translate(-18.959 -81.027)"/></g><text class="r" transform="translate(1839.691 2066.854)"><tspan x="0" y="0">Base 24</tspan></text><g transform="translate(1048.289 2048.777)"><g transform="translate(0 0)"><path class="i" d="M1120.539,18.7a26.87,26.87,0,0,1,0-5.376c.862-3.368,6.462-1.534,3.98,2.886-1.076,1.911-2.366,1.9-3.319,2.354a8.928,8.928,0,0,0,4.285-1.388,10.7,10.7,0,0,0,2.866-2.866A9.383,9.383,0,0,0,1122.578.192a10.977,10.977,0,0,0-1.52-.192h-9.885a7.993,7.993,0,0,0,.661,3.57c1.129,2.8,4.381,5.574,7.117,5.574v.273a8.618,8.618,0,0,0-4.537,2.013,9.325,9.325,0,0,0-2.7,3.852c-.718,1.8-.546,3.555-.546,6.007v6.687c4.619-.384,7.974-2.947,9.063-7.176.192-.744.16-1.555.3-2.1Z" transform="translate(-1092.613 0.013)"/><path class="j" d="M4681,1.159c-.352.672-.394,1.632-.713,2.366a9.3,9.3,0,0,1-11.22,5.4c-.437-.13-1.9-.78-2.018-.786-.313-.015-5.546,3.085-8.442-.762a4.7,4.7,0,0,1-.455-4.7,4.337,4.337,0,0,1,1.252-1.616,6.943,6.943,0,0,1,1.7-.942l.208-.121c-6.024.381-10.622,8.037-7.038,13.9a8.679,8.679,0,0,0,2.116,2.524c5.552,4.468,9.97.785,10.981,1.149a9.508,9.508,0,0,0,3.13.981,9.317,9.317,0,0,0,9.226-4.537C4681.8,10.1,4681,6.364,4681,1.159Z" transform="translate(-4575.368 0.008)"/><path class="k" d="M2302.861,9.416a11.892,11.892,0,0,1-4.409-.644,4.7,4.7,0,0,1-1.707-6.7c1.055-1.587,2.11-1.6,2.894-2.074-2.693.052-5.571,2.119-7.046,4.475a9.417,9.417,0,0,0,.553,10.42c3.832,4.875,8.866,3.69,15.583,3.806.979.016,1.283.21,1.24-.809a9.81,9.81,0,0,0-2.336-5.474c-1.4-1.82-2.876-2.168-4.418-2.814l-.359-.187Z" transform="translate(-2253.046 0.013)"/><path class="l" d="M3479.344,10.783c0-2.587.455-5.32,3.708-6.007a4.531,4.531,0,0,1,4.858,2.078,10.587,10.587,0,0,1,.716,1.769c0-4.253-3.731-8.1-8.268-8.624h-2.083a9.478,9.478,0,0,0-3.073.91,9.365,9.365,0,0,0-3.15,2.582,8.9,8.9,0,0,0-1.842,3.889c-.44,2.084-.145,8.626-.145,11.319,1.705-.4,3.85-.171,6.179-2.419,2.977-2.876,2.631-4.516,3.1-5.5Z" transform="translate(-3412.067 0.012)"/><path class="m" d="M6395.489,8.52c.253-.461.417-1.258.741-1.775a4.754,4.754,0,0,1,5.227-1.941c3.17.888,3.448,3.886,3.448,6.659l.3.661a6.174,6.174,0,0,0,.876,1.989,9.133,9.133,0,0,0,7.29,4.471c1.062.1.819.38.819-2.753,0-3.974.392-7.828-1.092-10.783A9.308,9.308,0,0,0,6406,0h-2.23a9.7,9.7,0,0,0-1.015.168c-3.907.844-7.263,4.655-7.263,8.352Z" transform="translate(-6288.763 0.013)"/><path class="n" d="M15.907,171.746c.906,2.344.382,3.588-1.306,4.777a9.4,9.4,0,0,1-10.649-.005c-1.673-1.175-2.2-2.457-1.312-4.772-1.2.637-2.222,3.179-2.5,4.511a8.535,8.535,0,0,0-.141.95v1.8a9.239,9.239,0,0,0,.863,3.2,9.673,9.673,0,0,0,3.23,3.732,9.906,9.906,0,0,0,5.294,1.592,9.359,9.359,0,0,0,8.13-13.786,5.219,5.219,0,0,0-1.6-2Z" transform="translate(0.005 -168.867)"/><path class="o" d="M7580.524,73.359c-.405.258-2.814.565-4.472,2.215a9.23,9.23,0,0,0-2.743,3.944l-.571,2.73c.022.83.9.525,2.872.525,4.085,0,8.411.593,11.712-1.663a9.126,9.126,0,0,0,3.139-3.55c.958-2.01.98-2.841.98-5.707V65.166a18.025,18.025,0,0,0-.513,1.944,9.8,9.8,0,0,1-2.918,4.182C7585.622,73.1,7584.165,73.359,7580.524,73.359Z" transform="translate(-7446.371 -64.065)"/><path class="p" d="M4959.122,1.161V.006a7.822,7.822,0,0,0-3.494.6c-2.639,1.058-5.65,4.214-5.65,6.9l-.139-7.506a9.129,9.129,0,0,0-8.01,4.41,7,7,0,0,0-1.133,3.094l-.142-7.5h-1.125l-.207.121a6.93,6.93,0,0,0-1.7.942,4.356,4.356,0,0,0-1.251,1.617,4.7,4.7,0,0,0,.455,4.7c2.9,3.848,8.128.748,8.441.762.121.005,1.581.656,2.018.785A9.3,9.3,0,0,0,4958.4,3.522c.319-.728.364-1.691.712-2.366Z" transform="translate(-4853.49 0.008)"/><path class="p" d="M7580.944,9.285c3.634,0,5.067-.256,7.488-2.066a9.793,9.793,0,0,0,2.919-4.182,17.81,17.81,0,0,1,.511-1.945V.006a9.235,9.235,0,0,0-9,6.688c-.06.231-.051.246-.111.435-.2.6.145-.354-.075.2-.011.025-.035.073-.044.091a.778.778,0,0,1-.045.091V.006h-9.416a9.459,9.459,0,0,0,6.943,9.023c.169.048.248.058.434.113l.207.066c.027.009.075.03.1.038a.486.486,0,0,1,.091.04Z" transform="translate(-7446.793 0.008)"/><path class="p" d="M6395.488,281.493a9.3,9.3,0,0,0,1.252,5.512,9.442,9.442,0,0,0,5.676,4.286,6.167,6.167,0,0,0,1.4.248c.879.064,1.02.343,1.1-.4.182-1.729-.008-4.824-.009-6.705,0-2.773-.278-5.77-3.449-6.658a4.752,4.752,0,0,0-5.227,1.941C6395.943,280.235,6395.761,281.032,6395.488,281.493Z" transform="translate(-6288.769 -272.96)"/><path class="p" d="M2579.643,9.422c1.232,0,5.837.182,6.689,0,1.27-.264-.6-4.421-.929-4.943a8.99,8.99,0,0,0-3.379-3.307A8.913,8.913,0,0,0,2579.584.2,6.67,6.67,0,0,0,2578.113,0h-1.687c-.787.477-1.838.487-2.9,2.074a4.7,4.7,0,0,0,1.707,6.7,11.817,11.817,0,0,0,4.409.645Z" transform="translate(-2529.829 0.007)"/><path class="p" d="M4031.938,285.951l.115.294a8.96,8.96,0,0,0,.746,2.255c2.1,4.535,7.659,5.667,8.374,5.279.449-.241.182-2.569.182-3.192,0-1.84.241-5.325-.137-6.8a10.59,10.59,0,0,0-.714-1.769,4.533,4.533,0,0,0-4.859-2.078c-3.254.684-3.707,3.417-3.707,6.007Z" transform="translate(-3964.657 -275.157)"/><path class="p" d="M133.594,2.867c-.886,2.317-.364,3.6,1.313,4.772a9.4,9.4,0,0,0,10.649.005c1.688-1.19,2.212-2.435,1.306-4.778-.319-.78-2-1.717-2.672-2.05A8.472,8.472,0,0,0,140.99,0h-1.3a10.038,10.038,0,0,0-3.415.819,8.726,8.726,0,0,0-2.427,1.668c-.228.268-.131.091-.248.379Z" transform="translate(-130.946 0.012)"/><path class="p" d="M1665.285,701.323a1.564,1.564,0,0,1,.66-.136c.947-.455,2.242-.441,3.317-2.354,2.484-4.419-3.117-6.252-3.98-2.886a26.878,26.878,0,0,0,0,5.376Z" transform="translate(-1637.359 -682.617)"/></g></g><g transform="translate(1629.441 2035.261)"><g transform="translate(0 0)"><path class="e" d="M3.421,25.585H28.728l.06,2.169H3.466Zm34.367.326c-.009-.658-.182-2.5.145-2.935a8.1,8.1,0,0,0,1.231-1.88c.845-1.688.723-3.282.723-5.37,0-.973-.076-11.567.037-12.232l2.118.015c.108.7.031,12.287.032,13.338,0,3.459-.558,5.152-2.527,7.563a6.386,6.386,0,0,1-1.758,1.5Zm-5.61,10.327c-.053-4.352,0-8.738,0-13.091,0-2.67.77-5.582,2.527-7.291a8.11,8.11,0,0,1,1.753-1.5,11.973,11.973,0,0,1-.084,2.913,4.688,4.688,0,0,1-.364.408c-1.652,2.015-1.66,4.071-1.66,6.59v12l-2.168-.026ZM45.5,12.539H149.154v2.15H45.492l.011-2.152ZM36.424,10.2c-.152.325-.212.244-.738.511a13.418,13.418,0,0,0-6.963,11.4l-28.733.016v9.092l28.711.016c0,1.338-.051,7.716.031,8.522h9.062l.033-9.836c1.845-.607,4.16-2.822,5.3-4.429a13.091,13.091,0,0,0,2.155-5.086c.13-.7.145-1.648.288-2.221H152.7l-.043-9.125H45.527v-9c-.238-.119-8.142-.041-9.1-.041V10.2Z" transform="translate(0.011 0)"/><path class="f" d="M2344.818,648.349h103.669V646.2H2344.836Z" transform="translate(-2299.316 -633.662)"/><path class="e" d="M3302.9,1240.391a33.422,33.422,0,0,1,1.124,3.193c1.292,3.641.538,3.178,2.471,3.157l2.234-6.345c0,1.175-.082,8.885.053,9.375h2.352c.217-.795.053-6.6.053-7.9,0-1.356-.07-7.078.016-7.919h-2.458c-.31.067-1.405,3.934-1.51,4.25-.475,1.456-1,2.951-1.414,4.369a9.517,9.517,0,0,1-.764-2.2l-2.093-6.427-2.548.031.022,15.776h2.434Z" transform="translate(-3236.378 -1210.02)"/><path class="e" d="M4457.336,1239.338v3.823c0,.622-.105,1.1-.708,1.177-.491.062-1.226.1-1.539-.232-.371-.393-.284-2.848-.236-3.533C4454.923,1239.592,4456.089,1239.538,4457.336,1239.338Zm-2.508-3.964c.191-1.566-.522-2.431,1.478-2.4,1.341.021,1.038,1.071,1.036,2.856,0,.7-.222.985-.841,1.141-.506.13-1.092.2-1.6.308-3.025.637-2.487,3.135-2.487,5.188,0,2.9.243,4.1,3.626,4.1h3.754c.142-.657.091-13.289-.057-13.835-.538-2-2.651-2.2-4.969-1.964a2.578,2.578,0,0,0-2.079,1.445,7.428,7.428,0,0,0-.251,3.156Z" transform="translate(-4365.981 -1206.807)"/><path class="e" d="M2818.484,1246.752c-.279,1.092-2.153.784-2.389.286-.2-.418-.1-5.934-.1-6.844a30.71,30.71,0,0,1,.038-3.532c.2-.858,2.08-.845,2.383-.138C2818.612,1237,2818.575,1246.4,2818.484,1246.752Zm-4.953-10.182v10.354a2.659,2.659,0,0,0,2.674,2.718h2.071a2.624,2.624,0,0,0,2.674-2.632v-10.524a2.658,2.658,0,0,0-1.067-2.125,3.853,3.853,0,0,0-2.64-.529,3.8,3.8,0,0,0-2.631.54,2.649,2.649,0,0,0-1.08,2.2Z" transform="translate(-2758.934 -1209.886)"/><path class="e" d="M7003.223,1233.857c-.111.91-.026,8.142-.026,9.729,0,1.235-.212,3.725.285,4.651.672,1.251,1.588,1.432,3.447,1.432,4.283,0,3.641-2.254,3.641-6.169,0-1.56.084-8.738-.026-9.648l-2.405.034c-.1.687-.026,9.648-.026,11.163,0,1.9.238,2.426-1.273,2.421-1.6,0-1.209-1.069-1.209-2.507,0-1.669.067-10.2-.021-11.11Z" transform="translate(-6867.289 -1209.913)"/><path class="e" d="M4943.119,1237.131c0-.652.317-.928.95-.928,2.118,0,1.34.577,1.557,2.373h2.413l.02-1.791a2.674,2.674,0,0,0-2.781-2.826h-1.813a2.687,2.687,0,0,0-2.8,2.826c0,4.45-.4,5.236,3.812,6.071,1.473.292,1.128.844,1.128,3.679,0,.647-.273,1.035-.927,1.035-2.094,0-1.4-.576-1.579-2.395h-2.408l-.025,1.791a2.64,2.64,0,0,0,2.717,2.8h1.986a2.641,2.641,0,0,0,2.7-2.8c0-4.846.568-5.877-3.775-6.69C4942.828,1240.007,4943.119,1239.661,4943.119,1237.131Z" transform="translate(-4844.772 -1210.018)"/><path class="e" d="M5423.408,1245.1a5,5,0,0,0,.687,3.789c.82.891,2.12.8,3.64.807,3.677.011,3.038-3.186,3.042-5.825,0-1.7-.324-2.383-1.421-3-.863-.491-2.972-.62-3.333-1.065-.305-.378-.187-1.482-.187-2.056,0-.674-.085-1.409.568-1.582.631-.167,1.583-.071,1.8.337a8.125,8.125,0,0,1,.139,2h2.407c.173-1.436.072-2.937-.682-3.781-.789-.885-2.064-.836-3.55-.837-3.658,0-3.206,2.971-3.146,5.762.091,3.922,4.713,2.251,4.936,3.983.069.558,0,1.617.007,2.229a4.063,4.063,0,0,1-.048,1.058.861.861,0,0,1-.487.54c-.581.188-1.566.078-1.821-.348s-.089-1.443-.148-2Z" transform="translate(-5318.072 -1209.936)"/><path class="e" d="M7484.512,1244.75c-.42,4.335,1.173,4.587,4.293,4.6a2.743,2.743,0,0,0,2.854-1.592c.364-.862.207-3.152.21-4.233,0-1.655-.314-2.386-1.428-3.017-.863-.489-2.929-.585-3.33-1.07-.323-.392-.182-1.471-.182-2.039,0-.736-.091-1.4.556-1.576.593-.159,1.529-.116,1.8.316.3.474.111,1.392.162,2.015l2.409-.032c.081-1.39.152-2.888-.682-3.7-1.071-1.044-1.707-.884-3.494-.886-1.511,0-2.442.478-2.941,1.52-.422.875-.249,3.032-.251,4.156a2.64,2.64,0,0,0,1.758,2.73c1.381.566,2.956.284,3.15,1.25a17.177,17.177,0,0,1,.034,2.231c0,1.527-.068,1.82-1.667,1.729-1.2-.072-.754-1.494-.863-2.4h-2.39Z" transform="translate(-7339.233 -1209.592)"/><path class="e" d="M6161.446,1235.121c1.093-.107,2.417-.265,2.417.927,0,3.936.448,3.989-2.415,3.845Zm0,7.044c2.074-.306,2.972.542,4.319-1.081.82-.99.554-3.262.554-4.776,0-1.439-.263-2.913-1.983-3.333a44.3,44.3,0,0,0-5.35-.075c0,1.16-.1,15.084.053,15.854a9.253,9.253,0,0,1,2.352-.064c.146-.708.055-5.423.055-6.534Z" transform="translate(-6039.409 -1208.927)"/><path class="e" d="M3988.752,1234.827c1.183-.116,2.415-.273,2.415,1.014,0,3.823.435,3.9-2.414,3.758Zm0,7.044c1.921-.284,3.069.418,4.283-1.036.893-1.071.57-3.264.57-4.824,0-1.437-.22-2.945-2.045-3.346a44.1,44.1,0,0,0-5.268-.062v15.791h2.458Z" transform="translate(-3908.939 -1208.642)"/><path class="e" d="M2357.084,1242.342c-.1.79.2,1.878-.437,2.237-.2.114-1.7.389-2-.364-.156-.4-.152-10.05,0-10.432.231-.571,1.569-.661,2.043-.329.519.364.364,1.481.364,2.259l2.439-.016c0-1.82.169-3.048-.973-3.991-.976-.807-3.281-.753-4.278-.566a2.7,2.7,0,0,0-2.134,2.851v9.927c-.007,3.344,2.742,2.99,4.551,2.977a2.655,2.655,0,0,0,2.8-2.256,14.978,14.978,0,0,0-.006-2.319l-2.385.022Z" transform="translate(-2306.48 -1207.133)"/><path class="g" d="M176.832,1320.656h25.319l-.06-2.169H176.782Z" transform="translate(-173.352 -1292.905)"/><path class="g" d="M1945.02,202.551a6.393,6.393,0,0,0,1.759-1.5c1.968-2.411,2.526-4.109,2.525-7.563,0-1.048.077-12.642-.031-13.338l-2.114-.016c-.113.664-.037,11.258-.037,12.232,0,2.086.122,3.68-.723,5.37a8.086,8.086,0,0,1-1.23,1.88c-.331.439-.154,2.275-.145,2.935Z" transform="translate(-1907.222 -176.64)"/><path class="f" d="M1657.505,761.876l2.168.026v-12c0-2.518.009-4.574,1.661-6.59a4.711,4.711,0,0,0,.364-.408,11.941,11.941,0,0,0,.084-2.913,8.1,8.1,0,0,0-1.754,1.5c-1.755,1.708-2.528,4.621-2.525,7.291,0,4.356-.05,8.738,0,13.091Z" transform="translate(-1625.318 -725.636)"/><path class="e" d="M6630.838,1249.982h5.867v-2.222h-3.427l-.018-13.586-2.421.028Z" transform="translate(-6502.162 -1210.222)"/><path class="h" d="M2941.129,1356.833c.091-.356.129-9.761-.072-10.227-.3-.706-2.184-.721-2.384.138a31.084,31.084,0,0,0-.038,3.531c0,.91-.091,6.426.1,6.845C2938.981,1357.616,2940.856,1357.925,2941.129,1356.833Z" transform="translate(-2881.582 -1319.964)"/><path class="h" d="M4580.2,1676.142c-1.251.206-2.412.257-2.48,1.238-.048.685-.135,3.14.236,3.533.314.332,1.048.294,1.54.231.6-.076.708-.554.706-1.177Q4580.2,1678.052,4580.2,1676.142Z" transform="translate(-4488.839 -1643.616)"/><path class="h" d="M6287.347,1350.691c2.863.143,2.415.091,2.415-3.845,0-1.194-1.327-1.035-2.415-.928Z" transform="translate(-6165.375 -1319.726)"/><path class="h" d="M4113.02,1350.543c2.848.143,2.414.067,2.414-3.759,0-1.287-1.237-1.129-2.416-1.014Z" transform="translate(-4033.205 -1319.583)"/></g></g><text class="q" transform="translate(1250.808 2063.717)"><tspan x="0" y="0">SmartVista</tspan></text><g transform="translate(1838.781 2230.363)"><path class="d" d="M66.243,108.374c.174,4.14,2.644,6.855,6.994,6.855a6.176,6.176,0,0,0,5.845-3.306h9.6c-1.844,6.994-8.556,10.02-15.552,10.02-10.194,0-17.118-5.95-17.118-16.039,0-9.255,7.655-15.865,16.875-15.865,11.2,0,16.8,8.142,16.318,18.371H66.243Zm12.7-5.5a6.2,6.2,0,0,0-6.089-6.158c-3.619,0-6.019,2.5-6.644,6.158ZM126.226,90c9.777,0,16.666,6.924,16.666,16s-6.855,15.935-16.666,15.935-16.565-6.855-16.565-15.935,6.823-16,16.565-16Zm0,24.355c4.8,0,6.3-4.558,6.3-8.385,0-3.793-1.531-8.42-6.3-8.42-4.8,0-6.228,4.558-6.228,8.42C120,109.87,121.424,114.359,126.226,114.359ZM40.67,97.763h-6.3v13.5c0,2.47,1.426,2.992,3.688,2.992.835,0,1.739-.1,2.644-.1v7.481c-1.844.069-3.723.313-5.6.313-8.733,0-10.959-2.5-10.959-10.995V97.763H18.959V91.152h5.188V81.027H34.372V91.152h6.3Zm12.8-9.325H43.279V81.066H53.473ZM43.245,91.221H53.474v30.722H43.279Zm66.42,6.541h-6.3v13.5c0,2.47,1.426,2.992,3.653,2.992.835,0,1.739-.1,2.644-.1v7.481c-1.844.069-3.723.313-5.6.313-8.733,0-10.959-2.5-10.959-10.995V97.763H87.916V91.152H93.03V81.027h10.264V91.152h6.3Z" transform="translate(-18.959 -81.027)"/></g><g transform="translate(1437.844 2243.555)"><g transform="translate(0 0)"><path class="i" d="M1120.539,18.7a26.87,26.87,0,0,1,0-5.376c.862-3.368,6.462-1.534,3.98,2.886-1.076,1.911-2.366,1.9-3.319,2.354a8.928,8.928,0,0,0,4.285-1.388,10.7,10.7,0,0,0,2.866-2.866A9.383,9.383,0,0,0,1122.578.192a10.977,10.977,0,0,0-1.52-.192h-9.885a7.993,7.993,0,0,0,.661,3.57c1.129,2.8,4.381,5.574,7.117,5.574v.273a8.618,8.618,0,0,0-4.537,2.013,9.325,9.325,0,0,0-2.7,3.852c-.718,1.8-.546,3.555-.546,6.007v6.687c4.619-.384,7.974-2.947,9.063-7.176.192-.744.16-1.555.3-2.1Z" transform="translate(-1092.613 0.013)"/><path class="j" d="M4681,1.159c-.352.672-.394,1.632-.713,2.366a9.3,9.3,0,0,1-11.22,5.4c-.437-.13-1.9-.78-2.018-.786-.313-.015-5.546,3.085-8.442-.762a4.7,4.7,0,0,1-.455-4.7,4.337,4.337,0,0,1,1.252-1.616,6.943,6.943,0,0,1,1.7-.942l.208-.121c-6.024.381-10.622,8.037-7.038,13.9a8.679,8.679,0,0,0,2.116,2.524c5.552,4.468,9.97.785,10.981,1.149a9.508,9.508,0,0,0,3.13.981,9.317,9.317,0,0,0,9.226-4.537C4681.8,10.1,4681,6.364,4681,1.159Z" transform="translate(-4575.368 0.008)"/><path class="k" d="M2302.861,9.416a11.892,11.892,0,0,1-4.409-.644,4.7,4.7,0,0,1-1.707-6.7c1.055-1.587,2.11-1.6,2.894-2.074-2.693.052-5.571,2.119-7.046,4.475a9.417,9.417,0,0,0,.553,10.42c3.832,4.875,8.866,3.69,15.583,3.806.979.016,1.283.21,1.24-.809a9.81,9.81,0,0,0-2.336-5.474c-1.4-1.82-2.876-2.168-4.418-2.814l-.359-.187Z" transform="translate(-2253.046 0.013)"/><path class="l" d="M3479.344,10.783c0-2.587.455-5.32,3.708-6.007a4.531,4.531,0,0,1,4.858,2.078,10.587,10.587,0,0,1,.716,1.769c0-4.253-3.731-8.1-8.268-8.624h-2.083a9.478,9.478,0,0,0-3.073.91,9.365,9.365,0,0,0-3.15,2.582,8.9,8.9,0,0,0-1.842,3.889c-.44,2.084-.145,8.626-.145,11.319,1.705-.4,3.85-.171,6.179-2.419,2.977-2.876,2.631-4.516,3.1-5.5Z" transform="translate(-3412.067 0.012)"/><path class="m" d="M6395.489,8.52c.253-.461.417-1.258.741-1.775a4.754,4.754,0,0,1,5.227-1.941c3.17.888,3.448,3.886,3.448,6.659l.3.661a6.174,6.174,0,0,0,.876,1.989,9.133,9.133,0,0,0,7.29,4.471c1.062.1.819.38.819-2.753,0-3.974.392-7.828-1.092-10.783A9.308,9.308,0,0,0,6406,0h-2.23a9.7,9.7,0,0,0-1.015.168c-3.907.844-7.263,4.655-7.263,8.352Z" transform="translate(-6288.763 0.013)"/><path class="n" d="M15.907,171.746c.906,2.344.382,3.588-1.306,4.777a9.4,9.4,0,0,1-10.649-.005c-1.673-1.175-2.2-2.457-1.312-4.772-1.2.637-2.222,3.179-2.5,4.511a8.535,8.535,0,0,0-.141.95v1.8a9.239,9.239,0,0,0,.863,3.2,9.673,9.673,0,0,0,3.23,3.732,9.906,9.906,0,0,0,5.294,1.592,9.359,9.359,0,0,0,8.13-13.786,5.219,5.219,0,0,0-1.6-2Z" transform="translate(0.005 -168.867)"/><path class="o" d="M7580.524,73.359c-.405.258-2.814.565-4.472,2.215a9.23,9.23,0,0,0-2.743,3.944l-.571,2.73c.022.83.9.525,2.872.525,4.085,0,8.411.593,11.712-1.663a9.126,9.126,0,0,0,3.139-3.55c.958-2.01.98-2.841.98-5.707V65.166a18.025,18.025,0,0,0-.513,1.944,9.8,9.8,0,0,1-2.918,4.182C7585.622,73.1,7584.165,73.359,7580.524,73.359Z" transform="translate(-7446.371 -64.065)"/><path class="p" d="M4959.122,1.161V.006a7.822,7.822,0,0,0-3.494.6c-2.639,1.058-5.65,4.214-5.65,6.9l-.139-7.506a9.129,9.129,0,0,0-8.01,4.41,7,7,0,0,0-1.133,3.094l-.142-7.5h-1.125l-.207.121a6.93,6.93,0,0,0-1.7.942,4.356,4.356,0,0,0-1.251,1.617,4.7,4.7,0,0,0,.455,4.7c2.9,3.848,8.128.748,8.441.762.121.005,1.581.656,2.018.785A9.3,9.3,0,0,0,4958.4,3.522c.319-.728.364-1.691.712-2.366Z" transform="translate(-4853.49 0.008)"/><path class="p" d="M7580.944,9.285c3.634,0,5.067-.256,7.488-2.066a9.793,9.793,0,0,0,2.919-4.182,17.81,17.81,0,0,1,.511-1.945V.006a9.235,9.235,0,0,0-9,6.688c-.06.231-.051.246-.111.435-.2.6.145-.354-.075.2-.011.025-.035.073-.044.091a.778.778,0,0,1-.045.091V.006h-9.416a9.459,9.459,0,0,0,6.943,9.023c.169.048.248.058.434.113l.207.066c.027.009.075.03.1.038a.486.486,0,0,1,.091.04Z" transform="translate(-7446.793 0.008)"/><path class="p" d="M6395.488,281.493a9.3,9.3,0,0,0,1.252,5.512,9.442,9.442,0,0,0,5.676,4.286,6.167,6.167,0,0,0,1.4.248c.879.064,1.02.343,1.1-.4.182-1.729-.008-4.824-.009-6.705,0-2.773-.278-5.77-3.449-6.658a4.752,4.752,0,0,0-5.227,1.941C6395.943,280.235,6395.761,281.032,6395.488,281.493Z" transform="translate(-6288.769 -272.96)"/><path class="p" d="M2579.643,9.422c1.232,0,5.837.182,6.689,0,1.27-.264-.6-4.421-.929-4.943a8.99,8.99,0,0,0-3.379-3.307A8.913,8.913,0,0,0,2579.584.2,6.67,6.67,0,0,0,2578.113,0h-1.687c-.787.477-1.838.487-2.9,2.074a4.7,4.7,0,0,0,1.707,6.7,11.817,11.817,0,0,0,4.409.645Z" transform="translate(-2529.829 0.007)"/><path class="p" d="M4031.938,285.951l.115.294a8.96,8.96,0,0,0,.746,2.255c2.1,4.535,7.659,5.667,8.374,5.279.449-.241.182-2.569.182-3.192,0-1.84.241-5.325-.137-6.8a10.59,10.59,0,0,0-.714-1.769,4.533,4.533,0,0,0-4.859-2.078c-3.254.684-3.707,3.417-3.707,6.007Z" transform="translate(-3964.657 -275.157)"/><path class="p" d="M133.594,2.867c-.886,2.317-.364,3.6,1.313,4.772a9.4,9.4,0,0,0,10.649.005c1.688-1.19,2.212-2.435,1.306-4.778-.319-.78-2-1.717-2.672-2.05A8.472,8.472,0,0,0,140.99,0h-1.3a10.038,10.038,0,0,0-3.415.819,8.726,8.726,0,0,0-2.427,1.668c-.228.268-.131.091-.248.379Z" transform="translate(-130.946 0.012)"/><path class="p" d="M1665.285,701.323a1.564,1.564,0,0,1,.66-.136c.947-.455,2.242-.441,3.317-2.354,2.484-4.419-3.117-6.252-3.98-2.886a26.878,26.878,0,0,0,0,5.376Z" transform="translate(-1637.359 -682.617)"/></g></g><g transform="translate(1239.886 2230.948)"><g transform="translate(0 0)"><path class="e" d="M3.421,25.585H28.728l.06,2.169H3.466Zm34.367.326c-.009-.658-.182-2.5.145-2.935a8.1,8.1,0,0,0,1.231-1.88c.845-1.688.723-3.282.723-5.37,0-.973-.076-11.567.037-12.232l2.118.015c.108.7.031,12.287.032,13.338,0,3.459-.558,5.152-2.527,7.563a6.386,6.386,0,0,1-1.758,1.5Zm-5.61,10.327c-.053-4.352,0-8.738,0-13.091,0-2.67.77-5.582,2.527-7.291a8.11,8.11,0,0,1,1.753-1.5,11.973,11.973,0,0,1-.084,2.913,4.688,4.688,0,0,1-.364.408c-1.652,2.015-1.66,4.071-1.66,6.59v12l-2.168-.026ZM45.5,12.539H149.154v2.15H45.492l.011-2.152ZM36.424,10.2c-.152.325-.212.244-.738.511a13.418,13.418,0,0,0-6.963,11.4l-28.733.016v9.092l28.711.016c0,1.338-.051,7.716.031,8.522h9.062l.033-9.836c1.845-.607,4.16-2.822,5.3-4.429a13.091,13.091,0,0,0,2.155-5.086c.13-.7.145-1.648.288-2.221H152.7l-.043-9.125H45.527v-9c-.238-.119-8.142-.041-9.1-.041V10.2Z" transform="translate(0.011 0)"/><path class="f" d="M2344.818,648.349h103.669V646.2H2344.836Z" transform="translate(-2299.316 -633.662)"/><path class="e" d="M3302.9,1240.391a33.422,33.422,0,0,1,1.124,3.193c1.292,3.641.538,3.178,2.471,3.157l2.234-6.345c0,1.175-.082,8.885.053,9.375h2.352c.217-.795.053-6.6.053-7.9,0-1.356-.07-7.078.016-7.919h-2.458c-.31.067-1.405,3.934-1.51,4.25-.475,1.456-1,2.951-1.414,4.369a9.517,9.517,0,0,1-.764-2.2l-2.093-6.427-2.548.031.022,15.776h2.434Z" transform="translate(-3236.378 -1210.02)"/><path class="e" d="M4457.336,1239.338v3.823c0,.622-.105,1.1-.708,1.177-.491.062-1.226.1-1.539-.232-.371-.393-.284-2.848-.236-3.533C4454.923,1239.592,4456.089,1239.538,4457.336,1239.338Zm-2.508-3.964c.191-1.566-.522-2.431,1.478-2.4,1.341.021,1.038,1.071,1.036,2.856,0,.7-.222.985-.841,1.141-.506.13-1.092.2-1.6.308-3.025.637-2.487,3.135-2.487,5.188,0,2.9.243,4.1,3.626,4.1h3.754c.142-.657.091-13.289-.057-13.835-.538-2-2.651-2.2-4.969-1.964a2.578,2.578,0,0,0-2.079,1.445,7.428,7.428,0,0,0-.251,3.156Z" transform="translate(-4365.981 -1206.807)"/><path class="e" d="M2818.484,1246.752c-.279,1.092-2.153.784-2.389.286-.2-.418-.1-5.934-.1-6.844a30.71,30.71,0,0,1,.038-3.532c.2-.858,2.08-.845,2.383-.138C2818.612,1237,2818.575,1246.4,2818.484,1246.752Zm-4.953-10.182v10.354a2.659,2.659,0,0,0,2.674,2.718h2.071a2.624,2.624,0,0,0,2.674-2.632v-10.524a2.658,2.658,0,0,0-1.067-2.125,3.853,3.853,0,0,0-2.64-.529,3.8,3.8,0,0,0-2.631.54,2.649,2.649,0,0,0-1.08,2.2Z" transform="translate(-2758.934 -1209.886)"/><path class="e" d="M7003.223,1233.857c-.111.91-.026,8.142-.026,9.729,0,1.235-.212,3.725.285,4.651.672,1.251,1.588,1.432,3.447,1.432,4.283,0,3.641-2.254,3.641-6.169,0-1.56.084-8.738-.026-9.648l-2.405.034c-.1.687-.026,9.648-.026,11.163,0,1.9.238,2.426-1.273,2.421-1.6,0-1.209-1.069-1.209-2.507,0-1.669.067-10.2-.021-11.11Z" transform="translate(-6867.289 -1209.913)"/><path class="e" d="M4943.119,1237.131c0-.652.317-.928.95-.928,2.118,0,1.34.577,1.557,2.373h2.413l.02-1.791a2.674,2.674,0,0,0-2.781-2.826h-1.813a2.687,2.687,0,0,0-2.8,2.826c0,4.45-.4,5.236,3.812,6.071,1.473.292,1.128.844,1.128,3.679,0,.647-.273,1.035-.927,1.035-2.094,0-1.4-.576-1.579-2.395h-2.408l-.025,1.791a2.64,2.64,0,0,0,2.717,2.8h1.986a2.641,2.641,0,0,0,2.7-2.8c0-4.846.568-5.877-3.775-6.69C4942.828,1240.007,4943.119,1239.661,4943.119,1237.131Z" transform="translate(-4844.772 -1210.018)"/><path class="e" d="M5423.408,1245.1a5,5,0,0,0,.687,3.789c.82.891,2.12.8,3.64.807,3.677.011,3.038-3.186,3.042-5.825,0-1.7-.324-2.383-1.421-3-.863-.491-2.972-.62-3.333-1.065-.305-.378-.187-1.482-.187-2.056,0-.674-.085-1.409.568-1.582.631-.167,1.583-.071,1.8.337a8.125,8.125,0,0,1,.139,2h2.407c.173-1.436.072-2.937-.682-3.781-.789-.885-2.064-.836-3.55-.837-3.658,0-3.206,2.971-3.146,5.762.091,3.922,4.713,2.251,4.936,3.983.069.558,0,1.617.007,2.229a4.063,4.063,0,0,1-.048,1.058.861.861,0,0,1-.487.54c-.581.188-1.566.078-1.821-.348s-.089-1.443-.148-2Z" transform="translate(-5318.072 -1209.936)"/><path class="e" d="M7484.512,1244.75c-.42,4.335,1.173,4.587,4.293,4.6a2.743,2.743,0,0,0,2.854-1.592c.364-.862.207-3.152.21-4.233,0-1.655-.314-2.386-1.428-3.017-.863-.489-2.929-.585-3.33-1.07-.323-.392-.182-1.471-.182-2.039,0-.736-.091-1.4.556-1.576.593-.159,1.529-.116,1.8.316.3.474.111,1.392.162,2.015l2.409-.032c.081-1.39.152-2.888-.682-3.7-1.071-1.044-1.707-.884-3.494-.886-1.511,0-2.442.478-2.941,1.52-.422.875-.249,3.032-.251,4.156a2.64,2.64,0,0,0,1.758,2.73c1.381.566,2.956.284,3.15,1.25a17.177,17.177,0,0,1,.034,2.231c0,1.527-.068,1.82-1.667,1.729-1.2-.072-.754-1.494-.863-2.4h-2.39Z" transform="translate(-7339.233 -1209.592)"/><path class="e" d="M6161.446,1235.121c1.093-.107,2.417-.265,2.417.927,0,3.936.448,3.989-2.415,3.845Zm0,7.044c2.074-.306,2.972.542,4.319-1.081.82-.99.554-3.262.554-4.776,0-1.439-.263-2.913-1.983-3.333a44.3,44.3,0,0,0-5.35-.075c0,1.16-.1,15.084.053,15.854a9.253,9.253,0,0,1,2.352-.064c.146-.708.055-5.423.055-6.534Z" transform="translate(-6039.409 -1208.927)"/><path class="e" d="M3988.752,1234.827c1.183-.116,2.415-.273,2.415,1.014,0,3.823.435,3.9-2.414,3.758Zm0,7.044c1.921-.284,3.069.418,4.283-1.036.893-1.071.57-3.264.57-4.824,0-1.437-.22-2.945-2.045-3.346a44.1,44.1,0,0,0-5.268-.062v15.791h2.458Z" transform="translate(-3908.939 -1208.642)"/><path class="e" d="M2357.084,1242.342c-.1.79.2,1.878-.437,2.237-.2.114-1.7.389-2-.364-.156-.4-.152-10.05,0-10.432.231-.571,1.569-.661,2.043-.329.519.364.364,1.481.364,2.259l2.439-.016c0-1.82.169-3.048-.973-3.991-.976-.807-3.281-.753-4.278-.566a2.7,2.7,0,0,0-2.134,2.851v9.927c-.007,3.344,2.742,2.99,4.551,2.977a2.655,2.655,0,0,0,2.8-2.256,14.978,14.978,0,0,0-.006-2.319l-2.385.022Z" transform="translate(-2306.48 -1207.133)"/><path class="g" d="M176.832,1320.656h25.319l-.06-2.169H176.782Z" transform="translate(-173.352 -1292.905)"/><path class="g" d="M1945.02,202.551a6.393,6.393,0,0,0,1.759-1.5c1.968-2.411,2.526-4.109,2.525-7.563,0-1.048.077-12.642-.031-13.338l-2.114-.016c-.113.664-.037,11.258-.037,12.232,0,2.086.122,3.68-.723,5.37a8.086,8.086,0,0,1-1.23,1.88c-.331.439-.154,2.275-.145,2.935Z" transform="translate(-1907.222 -176.64)"/><path class="f" d="M1657.505,761.876l2.168.026v-12c0-2.518.009-4.574,1.661-6.59a4.711,4.711,0,0,0,.364-.408,11.941,11.941,0,0,0,.084-2.913,8.1,8.1,0,0,0-1.754,1.5c-1.755,1.708-2.528,4.621-2.525,7.291,0,4.356-.05,8.738,0,13.091Z" transform="translate(-1625.318 -725.636)"/><path class="e" d="M6630.838,1249.982h5.867v-2.222h-3.427l-.018-13.586-2.421.028Z" transform="translate(-6502.162 -1210.222)"/><path class="h" d="M2941.129,1356.833c.091-.356.129-9.761-.072-10.227-.3-.706-2.184-.721-2.384.138a31.084,31.084,0,0,0-.038,3.531c0,.91-.091,6.426.1,6.845C2938.981,1357.616,2940.856,1357.925,2941.129,1356.833Z" transform="translate(-2881.582 -1319.964)"/><path class="h" d="M4580.2,1676.142c-1.251.206-2.412.257-2.48,1.238-.048.685-.135,3.14.236,3.533.314.332,1.048.294,1.54.231.6-.076.708-.554.706-1.177Q4580.2,1678.052,4580.2,1676.142Z" transform="translate(-4488.839 -1643.616)"/><path class="h" d="M6287.347,1350.691c2.863.143,2.415.091,2.415-3.845,0-1.194-1.327-1.035-2.415-.928Z" transform="translate(-6165.375 -1319.726)"/><path class="h" d="M4113.02,1350.543c2.848.143,2.414.067,2.414-3.759,0-1.287-1.237-1.129-2.416-1.014Z" transform="translate(-4033.205 -1319.583)"/></g></g><text class="q" transform="translate(1640.363 2264.865)"><tspan x="0" y="0">SmartVista</tspan></text><text class="r" transform="translate(1059.671 2261.631)"><tspan x="0" y="0">Base 24</tspan></text><g transform="translate(1243.977 2431.961)"><g transform="translate(0 0)"><path class="i" d="M1120.539,18.7a26.87,26.87,0,0,1,0-5.376c.862-3.368,6.462-1.534,3.98,2.886-1.076,1.911-2.366,1.9-3.319,2.354a8.928,8.928,0,0,0,4.285-1.388,10.7,10.7,0,0,0,2.866-2.866A9.383,9.383,0,0,0,1122.578.192a10.977,10.977,0,0,0-1.52-.192h-9.885a7.993,7.993,0,0,0,.661,3.57c1.129,2.8,4.381,5.574,7.117,5.574v.273a8.618,8.618,0,0,0-4.537,2.013,9.325,9.325,0,0,0-2.7,3.852c-.718,1.8-.546,3.555-.546,6.007v6.687c4.619-.384,7.974-2.947,9.063-7.176.192-.744.16-1.555.3-2.1Z" transform="translate(-1092.613 0.013)"/><path class="j" d="M4681,1.159c-.352.672-.394,1.632-.713,2.366a9.3,9.3,0,0,1-11.22,5.4c-.437-.13-1.9-.78-2.018-.786-.313-.015-5.546,3.085-8.442-.762a4.7,4.7,0,0,1-.455-4.7,4.337,4.337,0,0,1,1.252-1.616,6.943,6.943,0,0,1,1.7-.942l.208-.121c-6.024.381-10.622,8.037-7.038,13.9a8.679,8.679,0,0,0,2.116,2.524c5.552,4.468,9.97.785,10.981,1.149a9.508,9.508,0,0,0,3.13.981,9.317,9.317,0,0,0,9.226-4.537C4681.8,10.1,4681,6.364,4681,1.159Z" transform="translate(-4575.368 0.008)"/><path class="k" d="M2302.861,9.416a11.892,11.892,0,0,1-4.409-.644,4.7,4.7,0,0,1-1.707-6.7c1.055-1.587,2.11-1.6,2.894-2.074-2.693.052-5.571,2.119-7.046,4.475a9.417,9.417,0,0,0,.553,10.42c3.832,4.875,8.866,3.69,15.583,3.806.979.016,1.283.21,1.24-.809a9.81,9.81,0,0,0-2.336-5.474c-1.4-1.82-2.876-2.168-4.418-2.814l-.359-.187Z" transform="translate(-2253.046 0.013)"/><path class="l" d="M3479.344,10.783c0-2.587.455-5.32,3.708-6.007a4.531,4.531,0,0,1,4.858,2.078,10.587,10.587,0,0,1,.716,1.769c0-4.253-3.731-8.1-8.268-8.624h-2.083a9.478,9.478,0,0,0-3.073.91,9.365,9.365,0,0,0-3.15,2.582,8.9,8.9,0,0,0-1.842,3.889c-.44,2.084-.145,8.626-.145,11.319,1.705-.4,3.85-.171,6.179-2.419,2.977-2.876,2.631-4.516,3.1-5.5Z" transform="translate(-3412.067 0.012)"/><path class="m" d="M6395.489,8.52c.253-.461.417-1.258.741-1.775a4.754,4.754,0,0,1,5.227-1.941c3.17.888,3.448,3.886,3.448,6.659l.3.661a6.174,6.174,0,0,0,.876,1.989,9.133,9.133,0,0,0,7.29,4.471c1.062.1.819.38.819-2.753,0-3.974.392-7.828-1.092-10.783A9.308,9.308,0,0,0,6406,0h-2.23a9.7,9.7,0,0,0-1.015.168c-3.907.844-7.263,4.655-7.263,8.352Z" transform="translate(-6288.763 0.013)"/><path class="n" d="M15.907,171.746c.906,2.344.382,3.588-1.306,4.777a9.4,9.4,0,0,1-10.649-.005c-1.673-1.175-2.2-2.457-1.312-4.772-1.2.637-2.222,3.179-2.5,4.511a8.535,8.535,0,0,0-.141.95v1.8a9.239,9.239,0,0,0,.863,3.2,9.673,9.673,0,0,0,3.23,3.732,9.906,9.906,0,0,0,5.294,1.592,9.359,9.359,0,0,0,8.13-13.786,5.219,5.219,0,0,0-1.6-2Z" transform="translate(0.005 -168.867)"/><path class="o" d="M7580.524,73.359c-.405.258-2.814.565-4.472,2.215a9.23,9.23,0,0,0-2.743,3.944l-.571,2.73c.022.83.9.525,2.872.525,4.085,0,8.411.593,11.712-1.663a9.126,9.126,0,0,0,3.139-3.55c.958-2.01.98-2.841.98-5.707V65.166a18.025,18.025,0,0,0-.513,1.944,9.8,9.8,0,0,1-2.918,4.182C7585.622,73.1,7584.165,73.359,7580.524,73.359Z" transform="translate(-7446.371 -64.065)"/><path class="p" d="M4959.122,1.161V.006a7.822,7.822,0,0,0-3.494.6c-2.639,1.058-5.65,4.214-5.65,6.9l-.139-7.506a9.129,9.129,0,0,0-8.01,4.41,7,7,0,0,0-1.133,3.094l-.142-7.5h-1.125l-.207.121a6.93,6.93,0,0,0-1.7.942,4.356,4.356,0,0,0-1.251,1.617,4.7,4.7,0,0,0,.455,4.7c2.9,3.848,8.128.748,8.441.762.121.005,1.581.656,2.018.785A9.3,9.3,0,0,0,4958.4,3.522c.319-.728.364-1.691.712-2.366Z" transform="translate(-4853.49 0.008)"/><path class="p" d="M7580.944,9.285c3.634,0,5.067-.256,7.488-2.066a9.793,9.793,0,0,0,2.919-4.182,17.81,17.81,0,0,1,.511-1.945V.006a9.235,9.235,0,0,0-9,6.688c-.06.231-.051.246-.111.435-.2.6.145-.354-.075.2-.011.025-.035.073-.044.091a.778.778,0,0,1-.045.091V.006h-9.416a9.459,9.459,0,0,0,6.943,9.023c.169.048.248.058.434.113l.207.066c.027.009.075.03.1.038a.486.486,0,0,1,.091.04Z" transform="translate(-7446.793 0.008)"/><path class="p" d="M6395.488,281.493a9.3,9.3,0,0,0,1.252,5.512,9.442,9.442,0,0,0,5.676,4.286,6.167,6.167,0,0,0,1.4.248c.879.064,1.02.343,1.1-.4.182-1.729-.008-4.824-.009-6.705,0-2.773-.278-5.77-3.449-6.658a4.752,4.752,0,0,0-5.227,1.941C6395.943,280.235,6395.761,281.032,6395.488,281.493Z" transform="translate(-6288.769 -272.96)"/><path class="p" d="M2579.643,9.422c1.232,0,5.837.182,6.689,0,1.27-.264-.6-4.421-.929-4.943a8.99,8.99,0,0,0-3.379-3.307A8.913,8.913,0,0,0,2579.584.2,6.67,6.67,0,0,0,2578.113,0h-1.687c-.787.477-1.838.487-2.9,2.074a4.7,4.7,0,0,0,1.707,6.7,11.817,11.817,0,0,0,4.409.645Z" transform="translate(-2529.829 0.007)"/><path class="p" d="M4031.938,285.951l.115.294a8.96,8.96,0,0,0,.746,2.255c2.1,4.535,7.659,5.667,8.374,5.279.449-.241.182-2.569.182-3.192,0-1.84.241-5.325-.137-6.8a10.59,10.59,0,0,0-.714-1.769,4.533,4.533,0,0,0-4.859-2.078c-3.254.684-3.707,3.417-3.707,6.007Z" transform="translate(-3964.657 -275.157)"/><path class="p" d="M133.594,2.867c-.886,2.317-.364,3.6,1.313,4.772a9.4,9.4,0,0,0,10.649.005c1.688-1.19,2.212-2.435,1.306-4.778-.319-.78-2-1.717-2.672-2.05A8.472,8.472,0,0,0,140.99,0h-1.3a10.038,10.038,0,0,0-3.415.819,8.726,8.726,0,0,0-2.427,1.668c-.228.268-.131.091-.248.379Z" transform="translate(-130.946 0.012)"/><path class="p" d="M1665.285,701.323a1.564,1.564,0,0,1,.66-.136c.947-.455,2.242-.441,3.317-2.354,2.484-4.419-3.117-6.252-3.98-2.886a26.878,26.878,0,0,0,0,5.376Z" transform="translate(-1637.359 -682.617)"/></g></g><g transform="translate(1448.316 2425.14)"><path class="d" d="M66.243,108.374c.174,4.14,2.644,6.855,6.994,6.855a6.176,6.176,0,0,0,5.845-3.306h9.6c-1.844,6.994-8.556,10.02-15.552,10.02-10.194,0-17.118-5.95-17.118-16.039,0-9.255,7.655-15.865,16.875-15.865,11.2,0,16.8,8.142,16.318,18.371H66.243Zm12.7-5.5a6.2,6.2,0,0,0-6.089-6.158c-3.619,0-6.019,2.5-6.644,6.158ZM126.226,90c9.777,0,16.666,6.924,16.666,16s-6.855,15.935-16.666,15.935-16.565-6.855-16.565-15.935,6.823-16,16.565-16Zm0,24.355c4.8,0,6.3-4.558,6.3-8.385,0-3.793-1.531-8.42-6.3-8.42-4.8,0-6.228,4.558-6.228,8.42C120,109.87,121.424,114.359,126.226,114.359ZM40.67,97.763h-6.3v13.5c0,2.47,1.426,2.992,3.688,2.992.835,0,1.739-.1,2.644-.1v7.481c-1.844.069-3.723.313-5.6.313-8.733,0-10.959-2.5-10.959-10.995V97.763H18.959V91.152h5.188V81.027H34.372V91.152h6.3Zm12.8-9.325H43.279V81.066H53.473ZM43.245,91.221H53.474v30.722H43.279Zm66.42,6.541h-6.3v13.5c0,2.47,1.426,2.992,3.653,2.992.835,0,1.739-.1,2.644-.1v7.481c-1.844.069-3.723.313-5.6.313-8.733,0-10.959-2.5-10.959-10.995V97.763H87.916V91.152H93.03V81.027h10.264V91.152h6.3Z" transform="translate(-18.959 -81.027)"/></g><text class="q" transform="translate(1056.03 2453.272)"><tspan x="0" y="0">SmartVista</tspan></text><g transform="translate(1628.531 2424.816)"><g transform="translate(0 0)"><path class="e" d="M3.421,25.585H28.728l.06,2.169H3.466Zm34.367.326c-.009-.658-.182-2.5.145-2.935a8.1,8.1,0,0,0,1.231-1.88c.845-1.688.723-3.282.723-5.37,0-.973-.076-11.567.037-12.232l2.118.015c.108.7.031,12.287.032,13.338,0,3.459-.558,5.152-2.527,7.563a6.386,6.386,0,0,1-1.758,1.5Zm-5.61,10.327c-.053-4.352,0-8.738,0-13.091,0-2.67.77-5.582,2.527-7.291a8.11,8.11,0,0,1,1.753-1.5,11.973,11.973,0,0,1-.084,2.913,4.688,4.688,0,0,1-.364.408c-1.652,2.015-1.66,4.071-1.66,6.59v12l-2.168-.026ZM45.5,12.539H149.154v2.15H45.492l.011-2.152ZM36.424,10.2c-.152.325-.212.244-.738.511a13.418,13.418,0,0,0-6.963,11.4l-28.733.016v9.092l28.711.016c0,1.338-.051,7.716.031,8.522h9.062l.033-9.836c1.845-.607,4.16-2.822,5.3-4.429a13.091,13.091,0,0,0,2.155-5.086c.13-.7.145-1.648.288-2.221H152.7l-.043-9.125H45.527v-9c-.238-.119-8.142-.041-9.1-.041V10.2Z" transform="translate(0.011 0)"/><path class="f" d="M2344.818,648.349h103.669V646.2H2344.836Z" transform="translate(-2299.316 -633.662)"/><path class="e" d="M3302.9,1240.391a33.422,33.422,0,0,1,1.124,3.193c1.292,3.641.538,3.178,2.471,3.157l2.234-6.345c0,1.175-.082,8.885.053,9.375h2.352c.217-.795.053-6.6.053-7.9,0-1.356-.07-7.078.016-7.919h-2.458c-.31.067-1.405,3.934-1.51,4.25-.475,1.456-1,2.951-1.414,4.369a9.517,9.517,0,0,1-.764-2.2l-2.093-6.427-2.548.031.022,15.776h2.434Z" transform="translate(-3236.378 -1210.02)"/><path class="e" d="M4457.336,1239.338v3.823c0,.622-.105,1.1-.708,1.177-.491.062-1.226.1-1.539-.232-.371-.393-.284-2.848-.236-3.533C4454.923,1239.592,4456.089,1239.538,4457.336,1239.338Zm-2.508-3.964c.191-1.566-.522-2.431,1.478-2.4,1.341.021,1.038,1.071,1.036,2.856,0,.7-.222.985-.841,1.141-.506.13-1.092.2-1.6.308-3.025.637-2.487,3.135-2.487,5.188,0,2.9.243,4.1,3.626,4.1h3.754c.142-.657.091-13.289-.057-13.835-.538-2-2.651-2.2-4.969-1.964a2.578,2.578,0,0,0-2.079,1.445,7.428,7.428,0,0,0-.251,3.156Z" transform="translate(-4365.981 -1206.807)"/><path class="e" d="M2818.484,1246.752c-.279,1.092-2.153.784-2.389.286-.2-.418-.1-5.934-.1-6.844a30.71,30.71,0,0,1,.038-3.532c.2-.858,2.08-.845,2.383-.138C2818.612,1237,2818.575,1246.4,2818.484,1246.752Zm-4.953-10.182v10.354a2.659,2.659,0,0,0,2.674,2.718h2.071a2.624,2.624,0,0,0,2.674-2.632v-10.524a2.658,2.658,0,0,0-1.067-2.125,3.853,3.853,0,0,0-2.64-.529,3.8,3.8,0,0,0-2.631.54,2.649,2.649,0,0,0-1.08,2.2Z" transform="translate(-2758.934 -1209.886)"/><path class="e" d="M7003.223,1233.857c-.111.91-.026,8.142-.026,9.729,0,1.235-.212,3.725.285,4.651.672,1.251,1.588,1.432,3.447,1.432,4.283,0,3.641-2.254,3.641-6.169,0-1.56.084-8.738-.026-9.648l-2.405.034c-.1.687-.026,9.648-.026,11.163,0,1.9.238,2.426-1.273,2.421-1.6,0-1.209-1.069-1.209-2.507,0-1.669.067-10.2-.021-11.11Z" transform="translate(-6867.289 -1209.913)"/><path class="e" d="M4943.119,1237.131c0-.652.317-.928.95-.928,2.118,0,1.34.577,1.557,2.373h2.413l.02-1.791a2.674,2.674,0,0,0-2.781-2.826h-1.813a2.687,2.687,0,0,0-2.8,2.826c0,4.45-.4,5.236,3.812,6.071,1.473.292,1.128.844,1.128,3.679,0,.647-.273,1.035-.927,1.035-2.094,0-1.4-.576-1.579-2.395h-2.408l-.025,1.791a2.64,2.64,0,0,0,2.717,2.8h1.986a2.641,2.641,0,0,0,2.7-2.8c0-4.846.568-5.877-3.775-6.69C4942.828,1240.007,4943.119,1239.661,4943.119,1237.131Z" transform="translate(-4844.772 -1210.018)"/><path class="e" d="M5423.408,1245.1a5,5,0,0,0,.687,3.789c.82.891,2.12.8,3.64.807,3.677.011,3.038-3.186,3.042-5.825,0-1.7-.324-2.383-1.421-3-.863-.491-2.972-.62-3.333-1.065-.305-.378-.187-1.482-.187-2.056,0-.674-.085-1.409.568-1.582.631-.167,1.583-.071,1.8.337a8.125,8.125,0,0,1,.139,2h2.407c.173-1.436.072-2.937-.682-3.781-.789-.885-2.064-.836-3.55-.837-3.658,0-3.206,2.971-3.146,5.762.091,3.922,4.713,2.251,4.936,3.983.069.558,0,1.617.007,2.229a4.063,4.063,0,0,1-.048,1.058.861.861,0,0,1-.487.54c-.581.188-1.566.078-1.821-.348s-.089-1.443-.148-2Z" transform="translate(-5318.072 -1209.936)"/><path class="e" d="M7484.512,1244.75c-.42,4.335,1.173,4.587,4.293,4.6a2.743,2.743,0,0,0,2.854-1.592c.364-.862.207-3.152.21-4.233,0-1.655-.314-2.386-1.428-3.017-.863-.489-2.929-.585-3.33-1.07-.323-.392-.182-1.471-.182-2.039,0-.736-.091-1.4.556-1.576.593-.159,1.529-.116,1.8.316.3.474.111,1.392.162,2.015l2.409-.032c.081-1.39.152-2.888-.682-3.7-1.071-1.044-1.707-.884-3.494-.886-1.511,0-2.442.478-2.941,1.52-.422.875-.249,3.032-.251,4.156a2.64,2.64,0,0,0,1.758,2.73c1.381.566,2.956.284,3.15,1.25a17.177,17.177,0,0,1,.034,2.231c0,1.527-.068,1.82-1.667,1.729-1.2-.072-.754-1.494-.863-2.4h-2.39Z" transform="translate(-7339.233 -1209.592)"/><path class="e" d="M6161.446,1235.121c1.093-.107,2.417-.265,2.417.927,0,3.936.448,3.989-2.415,3.845Zm0,7.044c2.074-.306,2.972.542,4.319-1.081.82-.99.554-3.262.554-4.776,0-1.439-.263-2.913-1.983-3.333a44.3,44.3,0,0,0-5.35-.075c0,1.16-.1,15.084.053,15.854a9.253,9.253,0,0,1,2.352-.064c.146-.708.055-5.423.055-6.534Z" transform="translate(-6039.409 -1208.927)"/><path class="e" d="M3988.752,1234.827c1.183-.116,2.415-.273,2.415,1.014,0,3.823.435,3.9-2.414,3.758Zm0,7.044c1.921-.284,3.069.418,4.283-1.036.893-1.071.57-3.264.57-4.824,0-1.437-.22-2.945-2.045-3.346a44.1,44.1,0,0,0-5.268-.062v15.791h2.458Z" transform="translate(-3908.939 -1208.642)"/><path class="e" d="M2357.084,1242.342c-.1.79.2,1.878-.437,2.237-.2.114-1.7.389-2-.364-.156-.4-.152-10.05,0-10.432.231-.571,1.569-.661,2.043-.329.519.364.364,1.481.364,2.259l2.439-.016c0-1.82.169-3.048-.973-3.991-.976-.807-3.281-.753-4.278-.566a2.7,2.7,0,0,0-2.134,2.851v9.927c-.007,3.344,2.742,2.99,4.551,2.977a2.655,2.655,0,0,0,2.8-2.256,14.978,14.978,0,0,0-.006-2.319l-2.385.022Z" transform="translate(-2306.48 -1207.133)"/><path class="g" d="M176.832,1320.656h25.319l-.06-2.169H176.782Z" transform="translate(-173.352 -1292.905)"/><path class="g" d="M1945.02,202.551a6.393,6.393,0,0,0,1.759-1.5c1.968-2.411,2.526-4.109,2.525-7.563,0-1.048.077-12.642-.031-13.338l-2.114-.016c-.113.664-.037,11.258-.037,12.232,0,2.086.122,3.68-.723,5.37a8.086,8.086,0,0,1-1.23,1.88c-.331.439-.154,2.275-.145,2.935Z" transform="translate(-1907.222 -176.64)"/><path class="f" d="M1657.505,761.876l2.168.026v-12c0-2.518.009-4.574,1.661-6.59a4.711,4.711,0,0,0,.364-.408,11.941,11.941,0,0,0,.084-2.913,8.1,8.1,0,0,0-1.754,1.5c-1.755,1.708-2.528,4.621-2.525,7.291,0,4.356-.05,8.738,0,13.091Z" transform="translate(-1625.318 -725.636)"/><path class="e" d="M6630.838,1249.982h5.867v-2.222h-3.427l-.018-13.586-2.421.028Z" transform="translate(-6502.162 -1210.222)"/><path class="h" d="M2941.129,1356.833c.091-.356.129-9.761-.072-10.227-.3-.706-2.184-.721-2.384.138a31.084,31.084,0,0,0-.038,3.531c0,.91-.091,6.426.1,6.845C2938.981,1357.616,2940.856,1357.925,2941.129,1356.833Z" transform="translate(-2881.582 -1319.964)"/><path class="h" d="M4580.2,1676.142c-1.251.206-2.412.257-2.48,1.238-.048.685-.135,3.14.236,3.533.314.332,1.048.294,1.54.231.6-.076.708-.554.706-1.177Q4580.2,1678.052,4580.2,1676.142Z" transform="translate(-4488.839 -1643.616)"/><path class="h" d="M6287.347,1350.691c2.863.143,2.415.091,2.415-3.845,0-1.194-1.327-1.035-2.415-.928Z" transform="translate(-6165.375 -1319.726)"/><path class="h" d="M4113.02,1350.543c2.848.143,2.414.067,2.414-3.759,0-1.287-1.237-1.129-2.416-1.014Z" transform="translate(-4033.205 -1319.583)"/></g></g><text class="r" transform="translate(1839.691 2456.409)"><tspan x="0" y="0">Base 24</tspan></text></g></g></svg>