<svg xmlns="http://www.w3.org/2000/svg" width="960" height="1062"><defs><clipPath id="a"><path transform="translate(960 5338)" fill="#ff5833" d="M0 0h960v1062H0z"/></clipPath><clipPath id="b"><path d="M667.449 238.147c8.943-4.977 25.974-14.387 43-21.853a345.153 345.153 0 0149.537-17.109c15.475-4.121 29.4-6.843 40.632-8.982s19.792-3.694 28.968-4.277 18.974-.194 27.412 0 15.515.194 26.4-2.45 25.585-7.932 38.144-13.376 22.98-11.042 28.54-13.686 6.261-2.334 6.61-1.4a13.131 13.131 0 01.35 3.927 15.169 15.169 0 00.311 3.888 6.675 6.675 0 001.633 2.8 6.276 6.276 0 002.566 1.672c1.089.389 2.488.622 3.655.934a8.336 8.336 0 012.838 1.244c.739.544 1.283 1.244.117 2.566s-4.044 3.266-11.627 7.465-19.869 10.655-31.962 16.02-23.991 9.643-35.111 11.743-21.463 2.022-26.635 2.1-5.171.311-1.478 7.66 11.081 21.813 15.826 31.145 6.843 13.532 7.893 16.564 1.051 4.9-2.06 9.06a65.032 65.032 0 01-16.6 15.086c-7.271 4.471-15.592 6.96-24.224 8.321a133.913 133.913 0 01-23.836 1.4c-6.26-.194-9.837-.817-12.6-3.033s-4.7-6.027-8.088-14.036-8.2-20.219-12.326-29.667-7.544-16.137-9.955-21.075-3.811-8.127-5.171-9.527-2.683-1.011-11.821 1.711-26.091 7.776-38.845 12.442a186.265 186.265 0 00-28.385 12.91c-7.077 3.966-12.676 7.621-16.37 9.8s-5.482 2.877-6.533 2.722-1.361-1.166-1.4-2.488a37.208 37.208 0 00-.039-4.627 8.083 8.083 0 00-5.638-6.96 30.763 30.763 0 01-2.916-1.089c-.7-.389-1.089-.933-.855-1.478s1.089-1.089 10.033-6.066z" transform="translate(-657.348 -154.341)" clip-rule="evenodd"/></clipPath><style>.d{fill:#17449c}.d,.f,.i,.j{fill-rule:evenodd}.f{fill:#08243b}.i{fill:#5786ed}.j,.m{fill:#abc5ff}</style></defs><g transform="translate(-960 -5338)" clip-path="url(#a)"><path class="d" d="M1062.486 5739.015c20.356 4.65 59.954 14.842 79.055 20.049s17.711 5.43 10.109 15.622-21.418 30.353-29.686 40.519-11 10.33-23.7-2.59-35.364-38.931-46.754-53.857-11.5-18.768-11-21.135 1.616-3.259 21.971 1.392zm268.786-187.604c-3.9 8.242-11.635 24.561-19.014 41.436s-14.4 34.305-16.68 43.356.165 9.717 15.48 15.927 43.5 17.962 57.727 24.393 14.509 7.548 8.411 18.269-18.572 31.046-24.226 42.046-4.484 12.668 4.314 16.483 25.226 9.772 32.658 14.31 5.876 7.659-1.643 39.682-20.992 92.952-26.565 123.638-3.231 31.133 1.168 30.3 10.861-2.954 35.7-40.992 68.057-112 88.829-151.147 19.1-43.5 11.3-47.393-21.718-7.353-28.4-9.58-6.124-3.231.111-14.147 18.158-31.743 23.225-42.881 3.286-12.587-6.907-22.862-28.793-29.379-39.068-39.32-12.222-10.718-29.273-17.433-49.197-19.354-65.571-25.785-16.974-6.655-17.299-6.681-.38.141-4.278 8.384zm239.372 20.694c-1.362 23.064-3.924 68.843-4.2 93.125s1.728 27.067 17.765 40.323 46.114 36.978 62.878 46.781 20.215 5.68 36.642-.725 45.835-15.095 58.467-19.883 8.479-5.68 2.867-6.084-12.685-.319-16.848-.555-5.415-.794-7.685-2.716-5.557-5.207-23.491-29.015-50.517-68.142-69.76-94.288-25.145-34.113-29.6-39.181-7.464-7.237-10.5-8.741a28.959 28.959 0 00-8.576-2.7 15.823 15.823 0 00-5.406.006c-1.028.236-1.192.584-2.554 23.648z"/><path d="M502.355 5852.615c109.6-24.531 326.1-72.765 434.466-96.649s108.587-23.416 119.523-9.166 32.585 42.27 43.635 56.306 11.494 14.078 14.167 10.625 7.575-10.4 26.043-37.736 50.5-75.048 67.606-99.954 19.294-27 37.916-45.422 53.687-53.178 71.507-70.619 18.401-17.58 18.379-16.733-.645 2.673-6.717 18.279-17.586 44.989-23.367 59.97-5.828 15.561 9.386 22.522 45.692 20.306 61.174 27.313 15.971 7.672 10.381 18.544-17.265 31.945-22.935 42.616-5.335 10.938 2.7 14.29 23.755 9.793 31.729 13.223 8.2 3.854 1.671 35.475-19.814 94.441-26.231 126.119-5.971 32.211 2.249 18.713 24.212-41.036 45.518-77.6 47.929-82.169 61.261-105.291 13.377-23.769 3.473-26.978-29.752-8.978-39.522-12.219-9.455-3.956-1.123-14.492 24.683-30.9 32.836-41.525 8.109-11.518-11.651-19.849-59.234-24.1-78.592-32.189-18.6-8.489 11.158-16.976 88.53-25.063 122.9-34.44 44.354-11.562 49.587-12.654 5.726-1.091 5.169 20.451-2.163 64.625-2.854 86.457-.467 22.41 14.5 34.218 44.687 34.84 59.711 46.348 15.361 11.483 68.535-2.684 159.191-42.481 212.2-56.637 53.009-14.157 53.009 75.509 0 269-.19 361.631-.566 98.561-163.172 142.359-487.436 125.459-754.552 176.618-476.5 71.813-579.38 78.035-99.22-1.991-97.647-109.333 1.075-313.818 2.168-417.467 3.776-104.479 113.372-129.01z" fill="#26489e" fill-rule="evenodd"/><path class="f" d="M1788.022 5802.139a4.282 4.282 0 011.854.384 17.383 17.383 0 013.514 2.215 45.272 45.272 0 015.081 4.484 14.72 14.72 0 013.3 4.751 5.284 5.284 0 010 3.525 3.7 3.7 0 01-1.517 2.1 7.347 7.347 0 01-3.83 1.218 17.228 17.228 0 01-5.618-.846 6.622 6.622 0 01-4.2-3.021 16.826 16.826 0 01-1.646-6.472 12.086 12.086 0 01.484-4.84 10.137 10.137 0 011.489-2.887c.437-.555.679-.606 1.093-.614zm-298.015 89.605a4.753 4.753 0 00-.452 3.265 22.022 22.022 0 001.584 5.765 13.916 13.916 0 004.141 6.038 9.386 9.386 0 005.938 1.731c1.335-.178 1.362-1.006 1.411-1.865a7.9 7.9 0 00-.52-3.608 46.131 46.131 0 00-3.185-6.77 11.039 11.039 0 00-3.372-4.111 7.245 7.245 0 00-3.4-.818c-.988-.071-1.7-.16-2.146.374z"/><path class="d" d="M1221.102 6326.616c51.863-16.511 60.992-18.671 66.931-25.408s8.687-18.055 10.34-23.989 2.208-6.492.259-8.719-6.4-6.129-8.519-8.134-1.892-2.116 1.115-7.016 8.8-14.591 11.694-19.6 2.9-5.349 1.5-7.131-4.177-5.011-5.458-6.793-1.057-2.118 2.619-8.131 10.8-17.711 14.31-23.725 3.4-6.35 2.061-8.131-3.9-5.013-4.9-7.211-.447-3.371 3.116-9.524 10.138-17.295 13.478-22.864 3.453-5.569 7.1.5 10.833 18.213 14.425 24.561 3.593 6.905 2.451 8.633-3.425 4.623-4.567 6.405-1.142 2.449 2.255 8.325 10.192 16.958 13.5 22.751 3.149 6.293 1.782 8.325-3.924 5.6-5.179 7.519-1.2 2.2.723 5.514 5.71 9.663 7.855 13.145 2.645 4.093 3.619 3.453a13.875 13.875 0 003.368-4.29c.948-1.754 1.394-3.371-.277-6.377s-5.458-7.407-7.212-10.107-1.477-3.7 3.953-13.17 16.014-27.4 21.3-36.676 5.292-9.887 3.092-12.615-6.6-7.574-8.661-10.247-1.782-3.174 3.926-13.031 16.847-29.074 22.526-38.708 5.9-9.692 11.667.028 17.071 29.209 22.694 39.207 5.571 10.5 3.7 13.173-5.541 7.517-7.351 10.19-1.752 3.175 3.7 12.476 16.315 27.4 21.577 36.594 4.926 9.467 2.726 12.14-6.264 7.741-8.3 10.471-2.033 3.118-.057 6.517 5.931 9.8 8.075 13.254 2.479 3.955 51.1-6.292 145.539-31.242 232.2-51.318 163.071-39.233 200.83-47.587 36.869-5.9 37.092 22.609 1.558 83.092 2.224 125.307.669 72.063-9.578 91-30.743 26.954-201.158 32.969-490.753 10.025-650.2 6.349-158-15.036-109.977-36.144 142.65-51.97 194.513-68.478z"/><path class="f" d="M1836.828 5950.524c3.614-.529 8.184.881 11.561 2.08s5.562 2.189 7 6.693 2.123 12.524 2.353 27.129 0 35.8-.136 59.994-.194 51.4-.85 67.856-1.914 22.155-4.253 26.884-5.754 8.488-11.711 11.841-14.454 6.3-50.712 15.2-100.276 23.766-136.716 31.773-45.3 9.163-51.793 9.536-10.612-.034-14.115-2.876-6.387-8.115-7.711-16.86-1.086-20.958.484-23.862 4.475 3.5 45.976-29.934 121.6-106.717 162.976-144.591 44.036-40.34 47.65-40.869z"/><path d="M1644.57 6003.262c36.716-10.846 102.814-30.382 141.824-41.456s50.933-13.689 57.115-9.436 6.622 15.373 6.791 43.849.068 74.307.061 101.3.083 35.146-4.989 41.281-15.3 10.254-51.554 19.6-98.528 23.926-138.213 33.374-56.781 13.766-66.454 9.847-11.92-16.074-11.489-44.452 3.543-72.981 6.576-98.811 5.99-32.883 11.136-37.489 12.479-6.762 49.195-17.607z" fill="#0d346b" fill-rule="evenodd"/><path d="M1669.841 6051.687a191.771 191.771 0 00.613 20.126c.677 6.229 2.039 10 3.9 12.023a5.111 5.111 0 006.61 1.03c2.372-1.264 4.744-4.063 6.416-8.087s2.644-9.274 3.072-15.65a131.8 131.8 0 00-.194-19.305c-.505-5.425-1.4-8.768-2.7-10.693a5.413 5.413 0 00-4.938-2.43 10.036 10.036 0 00-5.911 1.847 15.278 15.278 0 00-4.452 5.736 24.168 24.168 0 00-1.922 6.466 55.6 55.6 0 00-.5 8.939zm113.523 20.995a280.877 280.877 0 0017.167 27.957c5.211 7.349 7.5 8.982 10.829 9.235s7.68-.875 9.6-3.733 1.419-7.446-.953-12.734-6.61-11.276-11.218-17.361-9.585-12.267-13.259-15.261-6.047-2.8-8.341-2.217a11.818 11.818 0 00-5.852 3.053c-1.342 1.5-1.808 3.519 2.022 11.062z" fill="#4c75cf" fill-rule="evenodd"/><path class="i" d="M1638.548 5946.695c-4 10.77-11.7 30.912-16.953 44.988s-8.048 22.086-9.332 28.462-1.05 11.12 1.594 14.931 7.7 6.688 16.37 8.593 20.958 2.838 29.357 3.616 12.909 1.4 16.448.778 6.1-2.488 7.272-5.288a12.032 12.032 0 00-.545-9.526c-1.477-2.994-4.2-5.249-9.409-6.727s-12.91-2.177-17.576-3.033-6.3-1.867-7-3.927-.467-5.172 3.305-13.493 11.081-21.853 15.553-29.4 6.1-9.1 8.554-9.215 5.716 1.206 8.515 5.56 5.133 11.743 6.844 20.219 2.8 18.042 4.821 24.691 4.977 10.382 18.9 19.791 38.805 24.5 52.764 31.767 16.992 6.727 20.1 5.716 6.3-2.488 8.165-5.6a12.868 12.868 0 00.622-11.587c-1.789-3.733-5.91-6.454-17.264-14.543s-29.94-21.541-39.622-29.084-10.459-9.177-11.2-19.4-1.439-29.046-2.255-41.371-1.75-18.158-2.683-22.4-1.867-6.883-3.927-9.332a15.723 15.723 0 00-10.42-5.405c-5.171-.7-12.326.156-19.247 1.944s-13.609 4.51-19.519 6.649-11.043 3.694-15.515 4.938-8.282 2.177-10.343 3.344-2.372 2.566-6.377 13.337z"/><path class="f" d="M1565.387 5877.612c3.13-.291 9.7-1.419 15.884-2.391a112.109 112.109 0 0117.07-1.77 46.19 46.19 0 0112.307 1.691c2.819.817 4.063 1.594 4.919 1.5s1.322-1.069.35-2.838a33.836 33.836 0 00-5.23-6.143c-1.847-1.808-3.13-2.858-5.288-2.994s-5.191.642-11.1 2.372-14.7 4.413-20.414 6.2a86.932 86.932 0 00-9.838 3.4c-1.478.719-1.789 1.263 1.341.972z"/><path class="j" d="M1484.632 5898.874c4.458-2.179 12.821-6.219 17.75-8.541s6.424-2.927 7.758-3.149a4.643 4.643 0 013.31.471 3.871 3.871 0 011.468 2.607 4.52 4.52 0 01-.792 3.959c-1.085 1.37-3.309 2.687-8.016 4.929a173.25 173.25 0 01-16.656 6.993c-4.76 1.584-7.091 1.584-8.5 1.005a3.324 3.324 0 01-2.047-2.74 3.644 3.644 0 01.356-2.447c.356-.587.908-.907 5.365-3.087zm287.125-85.628c4.458-2.179 12.821-6.219 17.75-8.541s6.424-2.927 7.758-3.149a4.642 4.642 0 013.31.471 3.871 3.871 0 011.468 2.607 4.52 4.52 0 01-.792 3.959c-1.085 1.37-3.309 2.687-8.016 4.929a173.225 173.225 0 01-16.656 6.993c-4.76 1.584-7.091 1.584-8.5 1.006a3.324 3.324 0 01-2.047-2.74 3.644 3.644 0 01.356-2.447c.356-.587.907-.907 5.365-3.087z"/><path d="M1499.852 5885.882c8.943-4.977 25.974-14.387 43-21.853a345.153 345.153 0 0149.537-17.109c15.475-4.121 29.4-6.843 40.632-8.982s19.792-3.694 28.968-4.277 18.974-.194 27.412 0 15.515.194 26.4-2.45 25.585-7.932 38.144-13.376 22.98-11.042 28.54-13.686 6.261-2.334 6.61-1.4a13.131 13.131 0 01.35 3.927 15.169 15.169 0 00.311 3.888 6.675 6.675 0 001.633 2.8 6.276 6.276 0 002.566 1.672c1.089.389 2.488.622 3.655.934a8.336 8.336 0 012.838 1.244c.739.544 1.283 1.244.117 2.566s-4.044 3.266-11.627 7.465-19.869 10.655-31.962 16.02-23.991 9.643-35.111 11.743-21.463 2.022-26.635 2.1-5.171.311-1.478 7.66 11.081 21.813 15.826 31.145 6.843 13.532 7.893 16.564 1.051 4.9-2.06 9.06a65.032 65.032 0 01-16.6 15.086c-7.271 4.471-15.592 6.96-24.224 8.321a133.913 133.913 0 01-23.836 1.4c-6.26-.194-9.837-.817-12.6-3.033s-4.7-6.027-8.088-14.036-8.2-20.219-12.326-29.667-7.544-16.137-9.955-21.075-3.811-8.127-5.171-9.527-2.683-1.011-11.821 1.711-26.091 7.776-38.845 12.442a186.265 186.265 0 00-28.385 12.91c-7.077 3.966-12.676 7.621-16.37 9.8s-5.482 2.877-6.533 2.722-1.361-1.166-1.4-2.488a37.208 37.208 0 00-.039-4.627 8.083 8.083 0 00-5.638-6.96 30.763 30.763 0 01-2.916-1.089c-.7-.389-1.089-.933-.855-1.478s1.089-1.089 10.033-6.066z" fill="#0a2e4a" fill-rule="evenodd"/><g transform="translate(1489.75 5802.076)" clip-path="url(#b)"><path class="m" d="M153.763 47.535c1.053 4.731 2.1 9.462 3.35 14.713 1.2 5.055 2.5 10.257 4.018 15.752 1.524 5.529 3.276 11.417 5.27 17.29a182.746 182.746 0 006.678 17.077 159.237 159.237 0 008.048 15.194c2.872 4.831 5.849 9.423 8.826 14.014l-1.56 1.014c-3.006-4.636-6.012-9.273-8.87-14.08a160.819 160.819 0 01-8.135-15.369 184.224 184.224 0 01-6.755-17.251c-2-5.883-3.761-11.812-5.3-17.392a447.502 447.502 0 01-4.039-15.818c-1.139-4.8-2.245-9.773-3.351-14.742l1.815-.4z"/><path class="f" d="M203.536 62.21c-1-1.729-2.7-4.715-3.795-6.689s-1.594-2.937-1.638-3.544.364-.861 1.73-.642 3.689.909 6.823 1.305 7.081.5 9.137.815 2.222.845.5 1.537a79.144 79.144 0 01-7.86 2.171c-2.518.622-3.937 1.011-4.569 1.575s-.476 1.3-.151 2.13.82 1.743 1.083 2.427.293 1.135.162 1.125-.424-.481-1.421-2.21z"/></g><path d="M1499.852 5885.882c8.943-4.977 25.974-14.387 43-21.853a345.153 345.153 0 0149.537-17.109c15.475-4.121 29.4-6.843 40.632-8.982s19.792-3.694 28.968-4.277 18.974-.194 27.412 0 15.515.194 26.4-2.45 25.585-7.932 38.144-13.376 22.98-11.042 28.54-13.686 6.261-2.334 6.61-1.4a13.131 13.131 0 01.35 3.927 15.169 15.169 0 00.311 3.888 6.675 6.675 0 001.633 2.8 6.276 6.276 0 002.566 1.672c1.089.389 2.488.622 3.655.934a8.336 8.336 0 012.838 1.244c.739.544 1.283 1.244.117 2.566s-4.044 3.266-11.627 7.465-19.869 10.655-31.962 16.02-23.991 9.643-35.111 11.743-21.463 2.022-26.635 2.1-5.171.311-1.478 7.66 11.081 21.813 15.826 31.145 6.843 13.532 7.893 16.564 1.051 4.9-2.06 9.06a65.032 65.032 0 01-16.6 15.086c-7.271 4.471-15.592 6.96-24.224 8.321a133.913 133.913 0 01-23.836 1.4c-6.26-.194-9.837-.817-12.6-3.033s-4.7-6.027-8.088-14.036-8.2-20.219-12.326-29.667-7.544-16.137-9.955-21.075-3.811-8.127-5.171-9.527-2.683-1.011-11.821 1.711-26.091 7.776-38.845 12.442a186.265 186.265 0 00-28.385 12.91c-7.077 3.966-12.676 7.621-16.37 9.8s-5.482 2.877-6.533 2.722-1.361-1.166-1.4-2.488a37.208 37.208 0 00-.039-4.627 8.083 8.083 0 00-5.638-6.96 30.763 30.763 0 01-2.916-1.089c-.7-.389-1.089-.933-.855-1.478s1.089-1.089 10.033-6.066z" fill="none" fill-rule="evenodd"/><path class="j" d="M1800.651 5794.506c5.094-5.327 14.153-15.359 20.238-20.569s9.2-5.6 11.276-4.7 3.13 3.072 3.091 6.143a20.248 20.248 0 01-3.636 10.674c-2.469 3.636-6.279 6.94-8.321 8.982s-2.313 2.818-1.264 3.091a14.572 14.572 0 005.7-.544c2.275-.583 4.452-1.516 5.308-.836s.389 2.975-3.422 5.891a61.081 61.081 0 01-16.254 8.088 24.721 24.721 0 01-11.451 1.011c-2.742-.35-4.8-.778-6.085-1.867a7.4 7.4 0 01-2.08-4.413 6.424 6.424 0 01.156-3.985c.525-1.011 1.653-1.633 6.746-6.96zm-321.429 104.07c-5.774 1.225-15.689 4.18-22.65 6.338s-10.965 3.519-13.181 4.938-2.644 2.9-1.147 4.336 4.919 2.838 9.156 3.092 9.293-.642 13.9-1.478a87.775 87.775 0 0110.712-1.614c1.944 0 1.672.778 1.109 2.352s-1.419 3.946-2.022 5.774-.952 3.11.233 3.11 3.908-1.283 6.085-2.993a24 24 0 005.288-6.163 26.7 26.7 0 003.441-7.232 13.808 13.808 0 00.174-6.571 5.953 5.953 0 00-2.469-3.771c-1.225-.836-2.858-1.342-8.632-.117zm147.214-76.697c1.341 5.755 3.092 14.7 5 20.122s3.966 7.329 6.746 7.893a12.016 12.016 0 008.535-1.77c2.255-1.555 3.266-3.888 2.1-10.635a158.458 158.458 0 00-6.843-23.971c-2.333-6.066-3.655-7.038-6.046-7.388a17.869 17.869 0 00-8.146.836 4.942 4.942 0 00-3.519 4.529c-.1 2.061.836 4.627 2.178 10.382z"/><path class="j" d="M1604.009 5798.013a57.884 57.884 0 00-.1 15.4c.927 6.251 3.416 12.822 6.779 17.079s7.6 6.2 13.939 5.541a43.81 43.81 0 0020.472-8.418 23.572 23.572 0 009.255-17.536 48.13 48.13 0 00-3.85-22.066c-2.7-5.794-6.357-8.437-10.77-9.371a24.494 24.494 0 00-14.367 1.9c-4.783 2.061-9.176 5.405-12.553 7.825s-5.736 3.916-6.993 4.917-1.413 1.506-1.808 4.725z"/><path class="i" d="M1606.546 5822.708c.864-.515 3.139.476 5.006 2.109s3.325 3.908 5.667 5.065 5.57 1.2 9.128.01 7.446-3.6 9.332-6.027 1.77-4.879 1.5-7.524a39.06 39.06 0 00-1.419-7.679 11.352 11.352 0 00-3.363-5.23 21.163 21.163 0 00-6.455-3.869 21.824 21.824 0 00-8.38-1.5 62.5 62.5 0 00-8.107 1.147c-2.177.33-3.538.253-4.627-.37s-1.9-1.789-2.877-3.869a15.552 15.552 0 01-1.711-8.321c.389-3.247 2.294-6.746 5.443-9.974s7.543-6.182 14.445-8.03 16.311-2.586 23.233.622 11.354 10.362 13.823 16.895a34.193 34.193 0 011.808 18.994c-1.166 6.551-4.005 13.745-7.709 18.673s-8.273 7.592-12.822 9.682a38.136 38.136 0 01-13.366 3.849 22.5 22.5 0 01-10.995-2.139 12.835 12.835 0 01-4.938-4.4 17.7 17.7 0 01-2.314-4.025c-.622-1.555-1.166-3.577-.3-4.093z"/><path class="f" d="M1648.363 5835.716c-.07.755.36 2.441.474 4.028a8.747 8.747 0 01-.752 4.485 13.67 13.67 0 01-2.667 3.6 14.925 14.925 0 00-1.709 1.648c-.262.438-.2.951.6 1.57a7.411 7.411 0 003.782 1.4 4.781 4.781 0 003.582-1.4 5.981 5.981 0 001.381-3.587 52.772 52.772 0 00.379-5.443 10.692 10.692 0 00-.34-3.8 3.988 3.988 0 00-1.62-1.887 9.476 9.476 0 00-1.874-.959c-.6-.235-1.167-.411-1.237.343zm-17.425 3.108a26.118 26.118 0 011.417 3.7 9.464 9.464 0 002.54 3.929 17.6 17.6 0 004.416 2.647 14.818 14.818 0 012.341 1.006c.4.32.517.823-.192 1.634a9.765 9.765 0 01-3.741 2.432 5.36 5.36 0 01-4.012-.125 5.979 5.979 0 01-2.532-2.892 52.657 52.657 0 01-2.232-4.979 12.747 12.747 0 01-1.053-3.718 4.21 4.21 0 01.561-2.365 4.1 4.1 0 011.145-1.2c.428-.334.9-.694 1.342-.071z"/><path class="j" d="M1775.503 5991.883l16.089-3.914 16.093-3.915c4.061-.988 7.384 1.526 7.384 5.584v20.562a10.03 10.03 0 01-7.384 9.166l-16.093 3.915-16.089 3.914c-4.06.987-7.369-1.52-7.369-5.578v-20.562a10.024 10.024 0 017.369-9.173z"/><path class="m" d="M1609.363 6155.674l2.782-.658-4.818 7.636 5.119 5.764-2.935.694-3.951-4.517-4.012 6.4-2.787.658 5.089-8.059-4.788-5.487 2.935-.694 3.649 4.226zm14.909-3.527l2.787-.658-4.818 7.641 5.12 5.767-2.935.689-3.956-4.512-4.012 6.4-2.782.658 5.089-8.059-4.793-5.487 2.935-.694 3.655 4.231zm14.913-3.522l2.787-.658-4.823 7.636 5.119 5.768-2.935.694-3.951-4.517-4.012 6.4-2.787.658 5.094-8.064-4.792-5.482 2.935-.694 3.654 4.226zm14.915-3.528l2.782-.658-4.818 7.641 5.119 5.762-2.935.7-3.95-4.517-4.012 6.4-2.787.658 5.089-8.059-4.793-5.487 2.935-.689 3.655 4.226zm21.918-5.18l2.787-.658-4.823 7.641 5.119 5.768-2.935.689-3.948-4.511-4.012 6.4-2.787.658 5.089-8.059-4.787-5.487 2.935-.689 3.649 4.226zm14.908-3.522l2.787-.658-4.823 7.636 5.125 5.768-2.935.694-3.956-4.517-4.012 6.4-2.782.658 5.089-8.059-4.793-5.487 2.935-.694 3.655 4.226zm14.913-3.527l2.787-.658-4.823 7.641 5.119 5.768-2.935.689-3.951-4.512-4.012 6.4-2.787.658 5.094-8.059-4.793-5.487 2.935-.689 3.655 4.226zm14.914-3.521l2.782-.659-4.818 7.636 5.119 5.767-2.935.694-3.951-4.517-4.012 6.4-2.787.658 5.089-8.059-4.793-5.487 2.935-.694 3.654 4.226zm21.916-5.181l2.782-.658-4.818 7.636 5.119 5.767-2.935.694-3.954-4.517-4.011 6.4-2.787.658 5.089-8.059-4.787-5.487 2.935-.694 3.649 4.226zm14.909-3.526l2.787-.658-4.823 7.641 5.124 5.768-2.935.689-3.956-4.512-4.012 6.4-2.782.658 5.089-8.059-4.793-5.487 2.935-.694 3.655 4.231zm14.914-3.522l2.787-.658-4.823 7.636 5.119 5.768-2.935.694-3.951-4.517-4.012 6.4-2.787.658 5.089-8.064-4.788-5.482 2.935-.694 3.654 4.226zm14.914-3.527l2.782-.658-4.818 7.641 5.12 5.762-2.935.694-3.95-4.512-4.017 6.4-2.782.658 5.089-8.059-4.793-5.487 2.935-.694 3.654 4.231z"/></g></svg>