<svg xmlns="http://www.w3.org/2000/svg" xmlns:xlink="http://www.w3.org/1999/xlink" width="960" height="931" viewBox="0 0 960 931"><defs><style>.a{fill:#ff5833;}.b{clip-rule:evenodd;}.c{clip-path:url(#a);}.d,.e,.g,.i,.j,.k{fill-rule:evenodd;}.d{fill:url(#b);}.e{fill:#f7f5f6;}.f{clip-path:url(#c);}.g{fill:url(#d);}.h{fill:#abc5ff;}.i{fill:#08243b;}.j{fill:#2950af;}.k{fill:none;}</style><clipPath id="a"><rect class="a" width="960" height="931" transform="translate(0 7009)"/></clipPath><linearGradient id="b" x1="0.5" y1="0.007" x2="0.5" y2="1" gradientUnits="objectBoundingBox"><stop offset="0" stop-color="#abc5ff" stop-opacity="0"/><stop offset="1" stop-color="#5786ed"/></linearGradient><clipPath id="c"><path class="b" d="M163.483,62.724H273.17c62.86,0,114.29,51.428,114.29,114.29V472.63c0,62.863-51.43,114.29-114.29,114.29H163.483c-62.86,0-114.29-51.428-114.29-114.29V177.014c0-62.863,51.43-114.29,114.29-114.29Z" transform="translate(-49.193 -62.724)"/></clipPath><linearGradient id="d" x1="0.5" x2="0.5" y2="1.142" gradientUnits="objectBoundingBox"><stop offset="0" stop-color="#ff5833"/><stop offset="1" stop-color="#e3e3e3"/></linearGradient></defs><g class="c" transform="translate(0 -7009)"><g transform="translate(278 7177)"><path class="d" d="M132.9,0H260.439c73.094,0,132.9,59.8,132.9,132.9V461.514c0,73.1-59.8,132.9-132.9,132.9H132.9C59.8,594.412,0,534.611,0,461.514V132.9C0,59.8,59.8,0,132.9,0Z" transform="translate(0)"/><path class="e" d="M163.483,62.724H273.17c62.86,0,114.29,51.428,114.29,114.29V472.63c0,62.863-51.43,114.29-114.29,114.29H163.483c-62.86,0-114.29-51.428-114.29-114.29V177.014c0-62.863,51.43-114.29,114.29-114.29Z" transform="translate(-21.659 -27.617)"/><g class="f" transform="translate(27.534 35.107)"><g transform="translate(-22.486 -90.44)"><path class="g" d="M9.019-98.86H405.877V226.908H9.019Z" transform="translate(-9.019 98.86)"/><ellipse class="a" cx="66.012" cy="64.841" rx="66.012" ry="64.841" transform="translate(122.852 262.293)"/><rect class="h" width="396.858" height="325.768" transform="translate(0 325.767)"/><path class="i" d="M343.856,628.723a55.691,55.691,0,0,1-5.07,6.33c-1.613,1.622-2.492,1.784-13.884,1.8s-33.3-.114-44.074-.8-10.417-1.922-5.876-5.355,13.264-9.067,20-11.931,11.491-2.962,17.578-1.9a147.929,147.929,0,0,1,18.88,5.029c5.371,1.757,8.691,3.06,10.567,3.793a24.191,24.191,0,0,1,2.587,1.063c.277.169.4.342-.709,1.971Z" transform="translate(-124.786 -215.995)"/><path class="i" d="M245.542,712.724a41.8,41.8,0,0,1-6.117,8.212c-2.4,2.4-4.581,3.441-13.955,4.174s-25.944,1.156-41.194,1.71-29.184,1.236-36.182.6-7.064-2.587-.032-8.089,21.158-14.552,30.7-18.832,14.486-3.792,22.233-2.278,18.293,4.052,26.226,6.185,13.252,3.859,16.125,4.892,3.3,1.373,2.2,3.424Z" transform="translate(-67.929 -251.608)"/><path class="i" d="M402.705,462.264c2.05-3.093,5.881-8.877,10.108-15.382s8.847-13.732,12.119-18.517a71.206,71.206,0,0,1,6.885-8.936,11.892,11.892,0,0,1,5.339-3.744,27.063,27.063,0,0,1,7.519-.716,52.481,52.481,0,0,1,5.42.245c.992.13.992.293-.765,6.706s-5.274,19.074-7.742,27.785-3.894,13.472-4.812,16.092-1.33,3.1-7.079,2.946-16.837-.93-22.658-1.465-6.374-.829-6.515-1.175.13-.747,2.18-3.839Z" transform="translate(-181.381 -127.373)"/><path class="j" d="M57.746,552.972c26.5-7.359,78.127-21.682,111.916-31.056s49.737-13.8,58.07-15.983,9.049-2.115,15.234-1.692,17.837,1.2,23.665,1.66,5.826.586.846,4.655-14.94,12.076-25.316,20.581-21.166,17.5-26.446,22.11-5.054,4.817-.4,8.277,13.739,10.163,18.232,13.533,4.4,3.4-2.521,1.758-20.654-4.965-27.685-6.446-7.357-1.123-14.664,4.883-21.6,17.661-28.776,23.651-7.242,6.315-6.916,6.674,1.041.747,8.512,4.215,21.7,10.009,28.825,13.362,7.161,3.514-2.556,1.822-29.183-5.242-39.192-6.917-10.563-1.481-27.245,12.289-49.493,41.114-66.061,54.689-16.894,13.378-19.009,3.874a463.461,463.461,0,0,1-8.3-49.312,478.314,478.314,0,0,1-2.572-57.614c.358-13.444,1.726-17.155,3.1-19.207s2.754-2.447,29.258-9.805Z" transform="translate(-16.186 -166.576)"/></g></g><path class="k" d="M163.483,62.724H273.17c62.86,0,114.29,51.428,114.29,114.29V472.63c0,62.863-51.43,114.29-114.29,114.29H163.483c-62.86,0-114.29-51.428-114.29-114.29V177.014c0-62.863,51.43-114.29,114.29-114.29Z" transform="translate(-21.659 -27.617)"/></g></g></svg>