<svg xmlns="http://www.w3.org/2000/svg" xmlns:xlink="http://www.w3.org/1999/xlink" width="960" height="800" viewBox="0 0 960 800"><defs><style>.a{fill:#08243b;}.b{clip-path:url(#a);}.c{fill:#ff5833;}.d{fill:#0d346b;fill-rule:evenodd;}.e{fill:#26489e;}</style><clipPath id="a"><rect class="a" width="960" height="800" transform="translate(960 4258)"/></clipPath></defs><g class="b" transform="translate(-960 -4258)"><g transform="translate(320.002 4416.375)"><ellipse class="c" cx="119.825" cy="120.451" rx="119.825" ry="120.451" transform="translate(1081.138 0)"/><path class="d" d="M168.905,366.743c158.343-52.166,474.3-146.6,658.572-200.9s236.873-68.466,271.712-77.734,51.92-13.645,62.283-15.884,14.009-2.344,17.862-1.979a29.3,29.3,0,0,1,11.821,3.385c3.906,2.187,7.655,5.729,26.507,31.142s52.8,72.7,72.9,100.194,26.35,35.2,31.192,39.577,8.281,5.416,12.551,6.093,9.374.988,17.809-.418,20.206-4.531,79.311-20.883,165.548-45.931,218.77-59.783,53.221-11.977,52.075,21.56-3.438,98.737-5.1,131.962-2.708,34.473-279.471,75.495S588.456,520.383,310.453,560.309,28.945,599.293,26.445,587.316s-3.987-34.991-6.71-61.6-6.679-56.813-8.293-76.863-.884-29.945,157.459-82.11Z" transform="translate(9.804 61.465)"/><rect class="e" width="1801.951" height="347.45" transform="translate(-0.002 412.131)"/></g></g></svg>