<svg xmlns="http://www.w3.org/2000/svg" xmlns:xlink="http://www.w3.org/1999/xlink" viewBox="0 0 1398.48 1080"><defs><style>.cls-1{isolation:isolate;}.cls-2,.cls-40,.cls-55{fill:#fff;}.cls-3,.cls-48{fill:#c2d5ff;}.cls-4{fill:#2950af;}.cls-5{fill:#8192b2;}.cls-6{fill:gray;}.cls-7{fill:#b3b3b3;}.cls-14,.cls-19,.cls-8{opacity:0.5;}.cls-14,.cls-19,.cls-46,.cls-50,.cls-8{mix-blend-mode:multiply;}.cls-14,.cls-9{fill:#102051;}.cls-10{fill:#006afd;}.cls-11{fill:url(#linear-gradient);}.cls-12{fill:url(#linear-gradient-2);}.cls-13{fill:url(#linear-gradient-3);}.cls-15{fill:url(#linear-gradient-4);}.cls-16{fill:#b77e49;}.cls-17{fill:url(#linear-gradient-5);}.cls-18{fill:#ff5833;}.cls-19,.cls-24,.cls-50{fill:#08243b;}.cls-20,.cls-29,.cls-33,.cls-36,.cls-37,.cls-39,.cls-51,.cls-52,.cls-56,.cls-58{fill:none;}.cls-20,.cls-29,.cls-33,.cls-36,.cls-37,.cls-39,.cls-48,.cls-51,.cls-52,.cls-56,.cls-58{stroke:#08243b;stroke-miterlimit:10;}.cls-20,.cls-29,.cls-33,.cls-37,.cls-39,.cls-48,.cls-51,.cls-52,.cls-56,.cls-58{stroke-linecap:round;}.cls-21{fill:url(#linear-gradient-6);}.cls-22{fill:url(#linear-gradient-7);}.cls-23{fill:url(#linear-gradient-8);}.cls-25{fill:url(#linear-gradient-9);}.cls-26{fill:url(#linear-gradient-10);}.cls-27{fill:#6c1418;}.cls-28{fill:url(#linear-gradient-11);}.cls-29{stroke-width:5.2px;}.cls-30{fill:url(#linear-gradient-12);}.cls-31{fill:url(#linear-gradient-13);}.cls-32{fill:url(#linear-gradient-14);}.cls-33{stroke-width:5px;}.cls-34{fill:url(#linear-gradient-15);}.cls-35{fill:url(#linear-gradient-16);}.cls-36,.cls-37,.cls-48{stroke-width:1.5px;}.cls-38{fill:url(#linear-gradient-17);}.cls-39{stroke-width:1.57px;}.cls-40,.cls-50{opacity:0.2;}.cls-40,.cls-55{mix-blend-mode:overlay;}.cls-41{fill:url(#linear-gradient-18);}.cls-42{fill:url(#linear-gradient-19);}.cls-43{fill:url(#linear-gradient-20);}.cls-44{fill:url(#linear-gradient-21);}.cls-45{fill:url(#linear-gradient-22);}.cls-46{fill:#042942;opacity:0.35;}.cls-47{fill:url(#linear-gradient-23);}.cls-49{fill:url(#radial-gradient);}.cls-51{stroke-width:4px;}.cls-52{stroke-width:2px;}.cls-53{fill:url(#linear-gradient-24);}.cls-54{fill:url(#linear-gradient-25);}.cls-55{opacity:0.1;}.cls-56{stroke-width:1.62px;}.cls-57{fill:#f7f5f6;}.cls-58{stroke-width:3px;}.cls-59{fill:url(#linear-gradient-26);}.cls-60{fill:url(#linear-gradient-27);}</style><linearGradient id="linear-gradient" x1="418.77" y1="521.6" x2="624.2" y2="784.56" gradientUnits="userSpaceOnUse"><stop offset="0.12" stop-color="#517fe5"/><stop offset="0.22" stop-color="#4c79da"/><stop offset="0.4" stop-color="#406abd"/><stop offset="0.64" stop-color="#2c508e"/><stop offset="0.92" stop-color="#102e4d"/><stop offset="1" stop-color="#08243b"/></linearGradient><linearGradient id="linear-gradient-2" x1="414.63" y1="461.17" x2="607.15" y2="746.43" xlink:href="#linear-gradient"/><linearGradient id="linear-gradient-3" x1="417.51" y1="522.58" x2="622.95" y2="785.54" gradientTransform="translate(1228.71 1549.08) rotate(180)" xlink:href="#linear-gradient"/><linearGradient id="linear-gradient-4" x1="887.69" y1="326.67" x2="515.56" y2="613.1" gradientUnits="userSpaceOnUse"><stop offset="0.1" stop-color="#ff8d33"/><stop offset="1" stop-color="#ff5833"/></linearGradient><linearGradient id="linear-gradient-5" x1="906.16" y1="273.15" x2="782.11" y2="427.71" gradientUnits="userSpaceOnUse"><stop offset="0.23" stop-color="#fdc080"/><stop offset="0.4" stop-color="#f3b778"/><stop offset="0.7" stop-color="#d99e64"/><stop offset="1" stop-color="#b77e49"/></linearGradient><linearGradient id="linear-gradient-6" x1="743.45" y1="287.52" x2="564.23" y2="394.74" gradientUnits="userSpaceOnUse"><stop offset="0.11" stop-color="#154a6d"/><stop offset="1" stop-color="#08243b"/></linearGradient><linearGradient id="linear-gradient-7" x1="761.61" y1="372.22" x2="553.96" y2="441.09" gradientUnits="userSpaceOnUse"><stop offset="0" stop-color="#fdc080"/><stop offset="0.23" stop-color="#f3b778"/><stop offset="0.61" stop-color="#d99e64"/><stop offset="1" stop-color="#b77e49"/></linearGradient><linearGradient id="linear-gradient-8" x1="742.06" y1="313.29" x2="534.41" y2="382.16" xlink:href="#linear-gradient-7"/><linearGradient id="linear-gradient-9" x1="724.9" y1="256.51" x2="545.68" y2="363.73" xlink:href="#linear-gradient-6"/><linearGradient id="linear-gradient-10" x1="740.85" y1="309.62" x2="533.19" y2="378.49" xlink:href="#linear-gradient-7"/><linearGradient id="linear-gradient-11" x1="1009.9" y1="945.34" x2="875.42" y2="989.9" gradientTransform="translate(-314.9 450.64) rotate(-25.51)" xlink:href="#linear-gradient-4"/><linearGradient id="linear-gradient-12" x1="936.54" y1="958.72" x2="875.08" y2="894.41" xlink:href="#linear-gradient-5"/><linearGradient id="linear-gradient-13" x1="862.03" y1="990.36" x2="735.25" y2="924.23" xlink:href="#linear-gradient-5"/><linearGradient id="linear-gradient-14" x1="860.55" y1="963.15" x2="720.46" y2="1001.5" xlink:href="#linear-gradient-4"/><linearGradient id="linear-gradient-15" x1="1063.21" y1="687.11" x2="566.25" y2="809.2" gradientUnits="userSpaceOnUse"><stop offset="0" stop-color="#5786ed"/><stop offset="1" stop-color="#2950af"/></linearGradient><linearGradient id="linear-gradient-16" x1="1063.06" y1="686.5" x2="566.1" y2="808.59" xlink:href="#linear-gradient-15"/><linearGradient id="linear-gradient-17" x1="881.92" y1="319.17" x2="509.79" y2="605.6" xlink:href="#linear-gradient-4"/><linearGradient id="linear-gradient-18" x1="765.51" y1="604.88" x2="685.57" y2="660.63" xlink:href="#linear-gradient-5"/><linearGradient id="linear-gradient-19" x1="891.02" y1="330.99" x2="518.89" y2="617.42" xlink:href="#linear-gradient-4"/><linearGradient id="linear-gradient-20" x1="873.04" y1="508.84" x2="623.12" y2="656.38" xlink:href="#linear-gradient-4"/><linearGradient id="linear-gradient-21" x1="40.86" y1="535.58" x2="286.6" y2="812.63" xlink:href="#linear-gradient-4"/><linearGradient id="linear-gradient-22" x1="187.76" y1="405.29" x2="433.5" y2="682.33" xlink:href="#linear-gradient-4"/><linearGradient id="linear-gradient-23" x1="143.77" y1="452.55" x2="340.99" y2="550.37" xlink:href="#linear-gradient-4"/><radialGradient id="radial-gradient" cx="282.33" cy="925.95" r="137.89" gradientUnits="userSpaceOnUse"><stop offset="0.1" stop-color="#5786ed"/><stop offset="1" stop-color="#2950af"/></radialGradient><linearGradient id="linear-gradient-24" x1="967.31" y1="489.4" x2="698.09" y2="624.79" xlink:href="#radial-gradient"/><linearGradient id="linear-gradient-25" x1="921.62" y1="515.63" x2="850.14" y2="549.55" gradientTransform="translate(589.89 -454.96) rotate(42.33)" xlink:href="#linear-gradient-4"/><linearGradient id="linear-gradient-26" x1="1324" y1="398.69" x2="870.87" y2="512.56" xlink:href="#linear-gradient-4"/><linearGradient id="linear-gradient-27" x1="1253.3" y1="332.22" x2="986.82" y2="501.26" gradientUnits="userSpaceOnUse"><stop offset="0.11" stop-color="#abc5ff"/><stop offset="0.25" stop-color="#9bb6f5"/><stop offset="0.53" stop-color="#7090da"/><stop offset="0.91" stop-color="#2b52b0"/><stop offset="0.92" stop-color="#2950af"/></linearGradient></defs><g class="cls-1"><g id="Layer_2" data-name="Layer 2"><g id="Layer_1-2" data-name="Layer 1"><rect class="cls-2" width="1398.48" height="1080"/><g id="bg"><circle class="cls-3" cx="725.83" cy="529.45" r="446.67"/><circle class="cls-3" cx="1142.99" cy="832.39" r="57.85"/><circle class="cls-3" cx="292.95" cy="286.69" r="27.56"/></g><g id="grass"><ellipse class="cls-4" cx="1003.81" cy="932.74" rx="19.04" ry="12.13" transform="translate(-349.2 1149.53) rotate(-52)"/><path class="cls-4" d="M1143.25,958.57c-11.74-12-40.17,20.34-40.17,20.34s12.52-60-22.18-68.6-78.26,61-96.26,61.82-1.3-35-27.91-43S872.21,972,872.21,972s4.06-21.53-10.23-27.79-75.6,61.69-75.6,61.69h353.74S1155,970.57,1143.25,958.57Zm-50.19,11.34c-4.37,0-7.92-6.89-7.92-15.4s3.55-15.4,7.92-15.4,7.93,6.9,7.93,15.4S1097.44,969.91,1093.06,969.91Z"/></g><g id="chair"><path class="cls-5" d="M629.65,1005.91h-.39a5.26,5.26,0,0,1-5.25-5.66l20.87-212.08,18.21,1.66-30,213.22A3.4,3.4,0,0,1,629.65,1005.91Z"/><path class="cls-6" d="M629.65,1005.91h-.39a5.26,5.26,0,0,1-5.25-5.66l20.87-212.08,18.21,1.66-30,213.22A3.4,3.4,0,0,1,629.65,1005.91Z"/><path class="cls-7" d="M657.43,1005.91h.39a5.26,5.26,0,0,0,5.25-5.66L642.2,788.17,624,789.83l30,213.22A3.4,3.4,0,0,0,657.43,1005.91Z"/><path class="cls-7" d="M456.51,1005.91h-.39a5.24,5.24,0,0,1-5.24-5.66l20.86-212.08L490,789.83l-30,213.22A3.4,3.4,0,0,1,456.51,1005.91Z"/><path class="cls-5" d="M804.65,1005.91H805a5.25,5.25,0,0,0,5.25-5.66L789.41,788.17l-18.21,1.66,30,213.22A3.4,3.4,0,0,0,804.65,1005.91Z"/><path class="cls-6" d="M804.65,1005.91H805a5.25,5.25,0,0,0,5.25-5.66L789.41,788.17l-18.21,1.66,30,213.22A3.4,3.4,0,0,0,804.65,1005.91Z"/><g class="cls-8"><polygon class="cls-9" points="644.88 788.17 643.54 801.8 642.2 788.17 623.99 789.83 626.33 806.5 660.75 806.5 663.09 789.83 644.88 788.17"/><polygon class="cls-9" points="471.74 788.17 469.94 806.5 487.61 806.5 489.95 789.83 471.74 788.17"/><polygon class="cls-9" points="771.2 789.83 773.55 806.5 791.22 806.5 789.41 788.17 771.2 789.83"/></g><path class="cls-10" d="M462.72,757.86l-37-182.92c-4.75-24.76,15.77-47.41,42.41-46.8l71.44,1.63a56.45,56.45,0,0,1,52.92,40.74l54.19,187.35Z"/><path class="cls-11" d="M462.72,757.86l-37-182.92c-4.75-24.76,15.77-47.41,42.41-46.8l71.44,1.63a56.45,56.45,0,0,1,52.92,40.74l54.19,187.35Z"/><path class="cls-12" d="M485.13,757.86l-37-182.92c-4.75-24.76,15.77-47.41,42.41-46.8l71.44,1.63a56.43,56.43,0,0,1,52.91,40.74l54.2,187.35Z"/><path class="cls-10" d="M469.28,757.86H759.44a6.55,6.55,0,0,1,6.55,6.55v26.81a0,0,0,0,1,0,0H469.28a6.55,6.55,0,0,1-6.55-6.55V764.41A6.55,6.55,0,0,1,469.28,757.86Z" transform="translate(1228.71 1549.08) rotate(-180)"/><path class="cls-13" d="M469.28,757.86H759.44a6.55,6.55,0,0,1,6.55,6.55v26.81a0,0,0,0,1,0,0H469.28a6.55,6.55,0,0,1-6.55-6.55V764.41A6.55,6.55,0,0,1,469.28,757.86Z" transform="translate(1228.71 1549.08) rotate(-180)"/><rect class="cls-14" x="597.35" y="757.86" width="196.8" height="33.36" rx="6.55" transform="translate(1391.51 1549.08) rotate(180)"/></g><g id="lady"><g id="L_arm" data-name="L arm"><path class="cls-15" d="M683.33,413.67l82.56,2.81s23.93-44.87,27.65-47.22,12.33,0,12.33,0l27.19,33.65s10,25,7.05,31.31-48.37,41.28-56.37,43.24-72.76.19-91.94-3.52S652.74,417.2,683.33,413.67Z"/><path class="cls-16" d="M840.16,311.46s25.18-37.09,28-37.29,1.66,7.73,0,11.16S858.59,305,858.59,305Z"/><path class="cls-17" d="M799,377.87l30.52-41.22s3.52-19.24,5.09-21.78,22.3-10.76,24-9.88a27.89,27.89,0,0,1,3.33-3.08c1-.64,6,1,6.26,5.33,0,0,6.65,1.81,5.28,7.63,0,0,5.38,1.61,5.43,6.41s-6,15.65-11.25,20.88-7.58,3.92-12.76,13.7-30.43,66.52-30.43,66.52S804.3,403.89,799,377.87Z"/><path class="cls-18" d="M807.13,366.91l-8.11,11c5.28,26,25.43,44.51,25.43,44.51s3.77-8.47,8.69-19.43l-.08,0C817.69,396.7,809.43,374.16,807.13,366.91Z"/><polygon class="cls-19" points="712.65 476.29 699.21 451.78 701.7 475.32 712.65 476.29"/><path class="cls-20" d="M858.59,305s1.78.15,1.88,1.79-1.45,6.92-13.84,12.66"/><path class="cls-20" d="M847.12,322.11s.19,4.3,4.27,4.37c0,0,2.51,5.61,6.78,4.4,0,0,2,6.95,6.39,5.94"/></g><g id="head"><path class="cls-21" d="M561.76,336c-20.74,3.65-5.74,31.31-8.09,36.52s-10,5.56,1.76,18.17-13.69,30.42,25.24,40.79,79.86-42,52.44-66.84S582.5,332.35,561.76,336Z"/><path class="cls-22" d="M666.76,372.78V407l16.57,6.71s-5.81,58.5-36.33,54.59-55.24-69.06-55.24-69.06l22.86-5.58,5.46-34.73Z"/><polygon class="cls-16" points="666.76 400.08 641.37 385.21 666.76 383.97 666.76 400.08"/><path class="cls-23" d="M696.29,304.09s22.13,82.13-27.16,86.39-65.41-55.06-63.62-75.65S687.27,277.91,696.29,304.09Z"/><rect class="cls-24" x="685.85" y="326.99" width="5.77" height="8.26" rx="2.89" transform="translate(24.3 -46.41) rotate(3.93)"/><rect class="cls-24" x="659.13" y="328.77" width="5.77" height="8.26" rx="2.89" transform="translate(-19.19 41.26) rotate(-3.52)"/><path class="cls-18" d="M676.69,334.93s-2.61,14.95-.88,18.06,10.9-2.39,9.82-5.08S677.42,349,676.69,334.93Z"/><path class="cls-18" d="M596.32,327.78S579.76,339.65,609.76,358,621.24,331.31,596.32,327.78Z"/><path class="cls-25" d="M628.67,339s44.18-4.17,57.05-40.69c0,0,8.48,2.83,12.89,16.54,0,0,5.32-24.37-6.55-29.2,0,0-2.08-22.17-34.17-23.34s-60.52,38.08-68,52,15.67,32.47,20.09,32.7S628.67,339,628.67,339Z"/><circle class="cls-26" cx="620.08" cy="349.67" r="17.46"/><path class="cls-16" d="M625.25,356.9l-11.41-9.47S624.73,344.15,625.25,356.9Z"/><path class="cls-24" d="M684.13,321.38s8.74-1.88,14.48,1.19c0,0-2.48-4.78-5.7-5.15s-8.42-.34-9.1.56S683.11,321.22,684.13,321.38Z"/><path class="cls-27" d="M671.26,368.15s2.49-7.3,13.55-7l-1.76,4.55S678.35,365.43,671.26,368.15Z"/></g><g id="shoes"><path class="cls-28" d="M908,911.34s21.79,30,72.83,14a6.22,6.22,0,0,1,6.88,2.24l9.68,13.25L892.74,990.8l-24-58.25Z"/><polygon class="cls-24" points="993.18 935.02 890.01 984.24 892.74 990.8 997.43 940.85 993.18 935.02"/><line class="cls-29" x1="951.72" y1="928.53" x2="950.46" y2="938.95"/><line class="cls-29" x1="943.26" y1="927.66" x2="942.01" y2="938.08"/><line class="cls-29" x1="934.85" y1="926.3" x2="933.6" y2="936.72"/><line class="cls-29" x1="926.57" y1="924.6" x2="925.31" y2="935.02"/><path class="cls-30" d="M868.78,932.55l-18.21-36.72,44.23-25.51,13.24,41S881.94,943.43,868.78,932.55Z"/><polygon class="cls-31" points="788.51 960.59 790.2 916.35 733.64 917.9 741.54 963.28 761.18 974.31 788.51 960.59"/><path class="cls-32" d="M788.7,955.7s-14.89-3.35-25.16,4.82c-6.78,5.4-22.63-.85-22.63-.85l-4.37,46.24H836.71s-.13-14.6-1.82-15.52S801.6,979.3,788.7,955.7Z"/><path class="cls-24" d="M836.71,1005.91s0-3.74-.28-7.56H737.26l-.72,7.56Z"/><path class="cls-33" d="M773.09,963.07s9.4-4.23,18.79-2.31"/><path class="cls-33" d="M779.75,968.24s9.39-4.22,18.79-2.31"/><path class="cls-33" d="M784.64,973.42s9.39-4.23,18.78-2.31"/><path class="cls-33" d="M791.36,979.51s9.39-4.23,18.78-2.31"/></g><g id="pants"><path class="cls-34" d="M684,620.22s114,40.17,124.54,56.61,110.76,211.3,110.76,211.3-31.3,36-69.91,40.17c0,0-78.06-167.34-93.55-190.82s-206.45-82.17-215.06-98.22S608.45,601.17,684,620.22Z"/><path class="cls-19" d="M684,620.22c-75.53-19.05-151.83,3-143.22,19S740.32,714,755.82,737.48c10.06,15.24,46.48,91.11,70.8,142.47l-18.1-203.12C797.94,660.39,684,620.22,684,620.22Z"/><path class="cls-35" d="M506.06,647.35s10.44,107,49,110.48,149.87,0,149.87,0l5.48,175.11s34.86,15.12,98.13-10.34c0,0-25.15-199.21-33.37-221.51s-117.86-57.33-117.86-57.33Z"/><path class="cls-36" d="M540.09,646.58s.28,53.73,30,62.33,153,3.92,162.39,16.83,20,185.48,18.78,185.48"/><path class="cls-37" d="M802,903.39s-56,12.33-88,6.65"/><path class="cls-37" d="M906.24,870.13s-31.31,31.11-60.85,33.26"/></g><g id="body"><path class="cls-38" d="M674.16,410s1.4,45.78-23.25,51.06-50.79-63.86-50.79-63.86S564,397.44,552,416.22,481,619.7,485.19,627s20.87,20.35,20.87,20.35l160.7-3.65s24.12-19.31,22-26.09-10.72-52.17-8.26-60.52,23.33-46.44,23.33-55.31-4-44.34-4-44.34-2.73-38.19-16.47-43.77Z"/><path class="cls-19" d="M688.73,617.61c-1.37-4.32-5.34-24.3-7.41-40.4h0s-41.17-6.82-46.91-16S615,500.41,615,500.41l-70-5.67s7.31,102.37,0,120.71-38.87,31.9-38.87,31.9l160.7-3.65S690.88,624.39,688.73,617.61Z"/><path class="cls-39" d="M680.47,419.61s.35,42.57-27.16,48.55-51.16-48.81-50.68-48.55"/><path class="cls-40" d="M697.08,455s6.18,39.91,4.17,47.54-59,9.39-59.88,6.65,39.87-8.21,46.13-27.39S696.42,450.47,697.08,455Z"/></g><g id="R_arm" data-name="R arm"><path class="cls-41" d="M705.78,598.39s-12.92,22.82-12.27,39.28l-15.48-4,84.21,21.61-11.35-38Z"/><path class="cls-42" d="M688.15,582l-60.91-12-16.83-95.48c-6.45-36.62-32.61-42.39-50.09-29.08s-17.74,37.56-15.39,49.3,33.52,110.87,38.35,114.65,81.13,36,83.48,34.31,11.27-10,11.27-10,1.51-23.13,13.38-40.48C691.41,593.22,690.76,582.52,688.15,582Z"/><path class="cls-43" d="M705.78,598.39l-14.37-5.17C679.54,610.57,678,633.7,678,633.7l15.48,4C692.86,621.21,705.78,598.4,705.78,598.39Z"/><path class="cls-18" d="M705.78,598.39l-14.37-5.17C679.54,610.57,678,633.7,678,633.7l15.48,4C692.86,621.21,705.78,598.4,705.78,598.39Z"/></g></g><g id="plant"><path class="cls-44" d="M223.48,815.71c-12.68-16.9-24.14-36-33.23-51.56a103.8,103.8,0,0,1-13.79-48.52l22.6-.33-22.65-7.67c.55-20.9,6.27-35.81,6.27-35.81,25.19,3.41,62,21.4,77.91,36L249.66,743l22-21.95c20.74,29.28,60.26,101.31,27.77,128.89-23.07,19.58-48.91-.08-71.46-28.48l18.65-14.21Z"/><path class="cls-37" d="M328.43,953.37S317.87,841.6,224.58,734.23"/><path class="cls-45" d="M321.39,474.58c19.07,12,34,34.91,40.49,61a121.58,121.58,0,0,1,2.6,16.17c-3.77,10.57-10.38,25.93-19.1,33.7,0,0,11.52-5.77,20.13-13,0,31.3-6.91,67.37-30.62,67.57-34.91.29-50.17-56.92-58.68-86.26s-26.69-53.16-26.69-53.16C225.46,447.18,302.32,462.55,321.39,474.58Z"/><path class="cls-37" d="M282.37,475.17s102.69,204.07,61.91,467.64"/><path class="cls-46" d="M321.39,474.58A77.35,77.35,0,0,1,336.21,487c-17.69-2.33-45.78,1.87-70.54,40.34a184.07,184.07,0,0,0-16.15-26.67C225.46,447.18,302.32,462.55,321.39,474.58Z"/><path class="cls-47" d="M205.38,455.3c8.05-2.24,29.25-7.38,41.2-3.16,0,0-7.28-6-22.81-6.81a47.94,47.94,0,0,1,17.53-2.72c23.77,1.17,72.32,18.29,94,43.32,0,0-32.06-25.43-67.55,9.48s-62.49,47.53-78,49.58c0,0,3.81-33.15,0-57.5C187.75,475.23,194.84,463.64,205.38,455.3Z"/><path class="cls-37" d="M360.41,435s52.22,15.25,68.65,65.62c4.56,14,7.49,35.14,8,57.8-9.19,6.45-31.72,21.21-31.72,21.21l31.7-7.86c-1.27,55.44-17.8,113.23-61.33,94.41C310.54,638,360.41,435,360.41,435Z"/><path class="cls-46" d="M429.06,500.6a146.35,146.35,0,0,1,5.17,23.25c-.65,1.38-16.4-37.43-83.68-39.22,4.8-29,9.86-49.65,9.86-49.65S412.63,450.23,429.06,500.6Z"/><path class="cls-48" d="M434.23,523.84s-8.91-102.5-122.48-132.43c0,0,7.29,42.51,24.46,66.22L378,460.79l-14.67,9.8S427.67,483.33,434.23,523.84Z"/><path class="cls-37" d="M392.39,510.29s.23,124.81-19.4,201.63-42.94,137.89-37.73,224.14"/><path class="cls-37" d="M285.94,454s-44.93-8.59-64.86,39.76"/><path class="cls-49" d="M390.46,899.32H273s-46.77,82.66,0,106.59H390.46C437.24,982,390.46,899.32,390.46,899.32Z"/><rect class="cls-49" x="264.84" y="890.62" width="133.79" height="8.7"/><path class="cls-50" d="M273,1005.91H390.46c46.78-23.93,0-106.59,0-106.59H305.11c23.44,2.67,49.85,12.79,41.94,46-11.42,48-57,60.22-86.72,50A36.33,36.33,0,0,0,273,1005.91Z"/><path class="cls-40" d="M269.64,910c-4.68,5.06-19,43-13.6,50.21s35.17-47.68,29.73-51.48S273.63,905.7,269.64,910Z"/><line class="cls-51" x1="257.34" y1="1005.91" x2="207.77" y2="1005.91"/><line class="cls-51" x1="1166.73" y1="1005.91" x2="272.99" y2="1005.91"/></g><g id="table"><line class="cls-52" x1="962.92" y1="672.39" x2="1017.7" y2="1005.91"/><line class="cls-52" x1="458.63" y1="672.39" x2="403.85" y2="1005.91"/><rect class="cls-2" x="399.34" y="622.83" width="622.86" height="32.48"/><rect class="cls-2" x="429.56" y="655.31" width="562.43" height="17.09"/><rect class="cls-19" x="429.56" y="655.31" width="562.43" height="8.54"/></g><g id="laptop"><path class="cls-24" d="M848,622.83H648.38a.81.81,0,0,1-.81-.81h0a11.22,11.22,0,0,1,11.22-11.22H848a.8.8,0,0,1,.8.81V622A.8.8,0,0,1,848,622.83Z"/><path class="cls-53" d="M914.67,512.52,889.76,617.91a6.23,6.23,0,0,1-6.06,4.79H730.2a6.22,6.22,0,0,1-6.06-7.66l24.92-105.39a6.21,6.21,0,0,1,6.05-4.79H908.62A6.22,6.22,0,0,1,914.67,512.52Z"/><ellipse class="cls-54" cx="882.43" cy="534.23" rx="16.48" ry="13.68" transform="translate(-129.67 733.58) rotate(-42.33)"/><path class="cls-24" d="M880.48,531.36c-.31,1.66-1.14,3-1.86,3s-1.06-1.34-.75-3,1.15-3,1.87-3S880.79,529.7,880.48,531.36Z"/><path class="cls-24" d="M888.31,531.36c-.31,1.66-1.14,3-1.86,3s-1.06-1.34-.75-3,1.15-3,1.87-3S888.62,529.7,888.31,531.36Z"/><path class="cls-24" d="M881.19,541.54c-6.45,0-6.73-6.45-6.73-6.52a.81.81,0,0,1,.65-.77.53.53,0,0,1,.68.49c0,.24.26,5.49,5.65,5.49s7.6-5.26,7.69-5.49a.8.8,0,0,1,.87-.49.54.54,0,0,1,.36.77C890.33,535.09,887.65,541.54,881.19,541.54Z"/><path class="cls-3" d="M880.06,613.2H818a.56.56,0,0,1-.56-.72l3.4-15.09a1,1,0,0,1,.89-.72h62.07a.56.56,0,0,1,.56.72l-3.4,15.09A1,1,0,0,1,880.06,613.2Z"/><path class="cls-24" d="M761.2,504.86,734.67,622.7H730.2a6.22,6.22,0,0,1-6.06-7.66l24.92-105.39a6.21,6.21,0,0,1,6.05-4.79Z"/><path class="cls-24" d="M830.33,560.52a10.21,10.21,0,0,1,1.27-3.82,11.11,11.11,0,0,0-3-.46,13.53,13.53,0,0,0-13.07,11.66,10.14,10.14,0,0,0,10.27,11.67,13.54,13.54,0,0,0,12.62-9.63A8.19,8.19,0,0,1,830.33,560.52Z"/><polygon class="cls-55" points="860.46 504.86 821.69 504.86 895.51 593.58 901.29 569.14 860.46 504.86"/><path class="cls-55" d="M914.67,512.52a6.22,6.22,0,0,0-6-7.66H871.07l34.07,48Z"/></g><path class="cls-18" d="M339.83,118.44H492.12a0,0,0,0,1,0,0v10a10,10,0,0,1-10,10H349.81a10,10,0,0,1-10-10v-10a0,0,0,0,1,0,0Z" transform="translate(831.95 256.83) rotate(-180)"/><rect class="cls-24" x="351.18" y="292.97" width="8.73" height="30.95" transform="translate(711.08 616.89) rotate(-180)"/><rect class="cls-24" x="368.3" y="292.97" width="8.73" height="30.95" transform="translate(745.32 616.89) rotate(-180)"/><rect class="cls-2" x="385.42" y="292.97" width="8.73" height="30.95" transform="translate(779.56 616.89) rotate(-180)"/><rect class="cls-2" x="402.54" y="292.97" width="8.73" height="30.95" transform="translate(813.8 616.89) rotate(-180)"/><rect class="cls-2" x="419.66" y="292.97" width="8.73" height="30.95" transform="translate(848.05 616.89) rotate(-180)"/><rect class="cls-2" x="436.78" y="292.97" width="8.73" height="30.95" transform="translate(882.29 616.89) rotate(-180)"/><rect class="cls-56" x="339.83" y="118.44" width="152.29" height="159.95" rx="9.98" transform="translate(831.95 396.82) rotate(-180)"/><path class="cls-4" d="M378.74,164.11a6.95,6.95,0,1,1-6.95-7A6.95,6.95,0,0,1,378.74,164.11Z"/><path class="cls-4" d="M378.74,194a6.95,6.95,0,1,1-6.95-6.95A6.95,6.95,0,0,1,378.74,194Z"/><path class="cls-4" d="M378.74,223.83a6.95,6.95,0,1,1-6.95-7A6.95,6.95,0,0,1,378.74,223.83Z"/><path class="cls-4" d="M378.74,253.69a6.95,6.95,0,1,1-6.95-6.95A6.95,6.95,0,0,1,378.74,253.69Z"/><path class="cls-24" d="M422,161.74H386.3a.93.93,0,0,1-.92-.92h0a.92.92,0,0,1,.92-.92H422a.92.92,0,0,1,.92.92h0A.92.92,0,0,1,422,161.74Z"/><path class="cls-24" d="M397.18,167.92H386.3a.92.92,0,0,1-.92-.92h0a.92.92,0,0,1,.92-.91h10.88a.92.92,0,0,1,.92.91h0A.92.92,0,0,1,397.18,167.92Z"/><path class="cls-24" d="M422,191.6H386.3a.93.93,0,0,1-.92-.92h0a.92.92,0,0,1,.92-.92H422a.92.92,0,0,1,.92.92h0A.92.92,0,0,1,422,191.6Z"/><path class="cls-24" d="M422.46,197.78H386.3a.92.92,0,0,1-.92-.92h0a.92.92,0,0,1,.92-.91h36.16a.92.92,0,0,1,.92.91h0A.92.92,0,0,1,422.46,197.78Z"/><path class="cls-24" d="M422,221.45H386.3a.92.92,0,0,1-.92-.91h0a.92.92,0,0,1,.92-.92H422a.92.92,0,0,1,.92.92h0A.92.92,0,0,1,422,221.45Z"/><path class="cls-24" d="M412,227.64H386.3a.92.92,0,0,1-.92-.92h0a.93.93,0,0,1,.92-.92H412a.93.93,0,0,1,.92.92h0A.92.92,0,0,1,412,227.64Z"/><path class="cls-24" d="M422,251.31H386.3a.92.92,0,0,1-.92-.91h0a.92.92,0,0,1,.92-.92H422a.92.92,0,0,1,.92.92h0A.92.92,0,0,1,422,251.31Z"/><path class="cls-24" d="M412,257.5H386.3a.92.92,0,0,1-.92-.92h0a.93.93,0,0,1,.92-.92H412a.93.93,0,0,1,.92.92h0A.92.92,0,0,1,412,257.5Z"/><rect class="cls-37" x="593.67" y="186.13" width="493" height="48.52" rx="24.26"/><rect class="cls-57" x="623.4" y="217.44" width="493" height="48.52" rx="24.26"/><rect class="cls-37" x="657.29" y="246.39" width="493" height="48.52" rx="24.26"/><circle class="cls-58" cx="1115.01" cy="264.59" r="9.85"/><line class="cls-58" x1="1120.92" y1="272.45" x2="1128.51" y2="281.48"/><polygon class="cls-37" points="934.82 351.98 934.82 498.65 934.82 534.23 962.99 498.65 1213.42 498.65 1213.42 351.98 934.82 351.98"/><rect class="cls-59" x="964.03" y="448.7" width="225.39" height="24.26"/><rect class="cls-60" x="1091.21" y="378.65" width="98.22" height="50.48"/><line class="cls-36" x1="964.03" y1="378.65" x2="1070.86" y2="378.65"/><line class="cls-36" x1="964.03" y1="395.48" x2="1070.86" y2="395.48"/><line class="cls-36" x1="964.03" y1="412.31" x2="1070.86" y2="412.31"/><line class="cls-36" x1="964.03" y1="429.13" x2="1070.86" y2="429.13"/></g></g></g></svg>