<svg xmlns="http://www.w3.org/2000/svg" xmlns:xlink="http://www.w3.org/1999/xlink" width="271" height="350" viewBox="0 0 271 350">
  <defs>
    <clipPath id="clip-path">
      <rect id="Прямоугольник_668" data-name="Прямоугольник 668" width="271" height="350" transform="translate(1371 1230)" fill="#abc5ff"/>
    </clipPath>
  </defs>
  <g id="Группа_масок_51" data-name="Группа масок 51" transform="translate(-1371 -1230)" clip-path="url(#clip-path)">
    <path id="Path_2115" data-name="Path 2115" d="M4914.826,3920.188l0-188.866L4655,3696.308v188.05c-.252,3.11,1.906,6.457,6.378,9.038l139.867,80.583c7.75,4.474,19.475,4.962,26.187,1.086l82.9-47.862C4913.558,3925.346,4915.018,3922.817,4914.826,3920.188Z" transform="translate(-3256.858 -2153.68)" fill="#bdc1c6"/>
    <path id="Path_2116" data-name="Path 2116" d="M5658.23,3920.188l0-187.127a1.847,1.847,0,0,0-1.846-1.849l-15.283-.01-82.421,36.418v210.02c4.54.109,8.925-.719,12.149-2.582l82.9-47.858c2.853-1.645,4.327-3.817,4.5-6.108v-.829c0-.026-.01-.048-.013-.074Z" transform="translate(-4000.264 -2153.68)" fill="#dadce0"/>
    <path id="Path_2117" data-name="Path 2117" d="M4910.222,3308.951l-82.9,47.861c-6.711,3.875-18.437,3.388-26.186-1.083l-139.906-79.588c-7.749-4.475-8.591-11.245-1.88-15.118l82.895-47.86c6.712-3.875,18.437-3.388,26.187,1.083l139.905,79.588c7.75,4.476,8.592,11.242,1.881,15.117Z" transform="translate(-3256.752 -1724.411)" fill="#e8eaed"/>
    <g id="Слой_x0020_1" transform="translate(1500 1267.899)">
      <path id="Контур_10178" data-name="Контур 10178" d="M13.969,299.527c9.286-5.358,21.483-7.913,33.629-7.721,12.091.191,24.14,3.108,33.227,8.679,9.028,5.535,13.447,12.657,13.342,19.666-.1,6.98-4.7,13.9-13.758,19.128s-20.931,7.81-32.81,7.744c-11.934-.065-23.954-2.8-33.211-8.2C5.071,333.38.31,326.261.2,319.152c-.107-7.137,4.478-14.267,13.765-19.625Z" transform="translate(7.99 -13.922)" fill="#5786ed" fill-rule="evenodd"/>
      <path id="Контур_10179" data-name="Контур 10179" d="M13.767,294.927c9.286-5.358,21.483-7.913,33.629-7.721,12.091.191,24.14,3.108,33.227,8.679,9.028,5.535,13.447,12.657,13.342,19.666-.1,6.98-4.7,13.9-13.758,19.128s-20.931,7.809-32.81,7.744c-11.934-.065-23.954-2.8-33.211-8.2C4.869,328.78.108,321.662,0,314.552c-.107-7.137,4.478-14.267,13.765-19.625Z" transform="translate(8 -13.687)" fill="#88a4e2" fill-rule="evenodd"/>
      <path id="Контур_10180" data-name="Контур 10180" d="M47.56,200.923l34.78,20.246v84.875l-34.78-20.4Z" transform="translate(5.568 -9.275)" fill="#5786ed" fill-rule="evenodd"/>
      <path id="Контур_10181" data-name="Контур 10181" d="M84.252,221.81l4.32,12.483v74.9l-4.32,2.494Z" transform="translate(3.691 -10.343)" fill="#5786ed" fill-rule="evenodd"/>
      <path id="Контур_10182" data-name="Контур 10182" d="M47.551,205.719l34.824,20.271v84.875L47.551,290.439Z" transform="translate(5.568 -9.521)" fill="#abc5ff" fill-rule="evenodd"/>
      <path id="Контур_10183" data-name="Контур 10183" d="M95.909,228.979l-.05-.03c-.082-.031-.166-.058-.247-.093L29.834,190.963a13.714,13.714,0,0,1-6.158-11.5L23.723,9.05a6.347,6.347,0,0,1,.129-.9c.872-6.318,8.4-9.842,14.155-6.524l.1.061c.066.035.129.062.2.1l65.715,37.917a13.5,13.5,0,0,1,6.047,11.316l-.125,169.81a5.611,5.611,0,0,1-.087.929,9.29,9.29,0,0,1-13.942,7.216Z" transform="translate(-1.211 -0.018)" fill="#2950af"/>
      <path id="Контур_10184" data-name="Контур 10184" d="M94.406,58.767s8.185-2.459,10.884-5.8a7.672,7.672,0,0,0,1.235-7.167,13.476,13.476,0,0,0-4.546-5.081L36.264,2.805c-.066-.036-.132-.063-.2-.1l-.1-.059A9.513,9.513,0,0,0,29.107,1.63c-.023.012-.046.019-.069.03a8.665,8.665,0,0,0-4.871,6.548,5.858,5.858,0,0,0-.121.826L24,179.443a13.4,13.4,0,0,0,.315,2.82,13.549,13.549,0,0,0,7.847,8.771l1.424.62a.775.775,0,0,0,.178-.359L94.406,58.767Zm1.313,170.491.136-.236h0l-.141.227-.093-.035c-.056-.019-.11-.041-.2-.08l-65.795-37.9a14.014,14.014,0,0,1-6.314-11.788L23.363,9.011a6.308,6.308,0,0,1,.131-.919,9.338,9.338,0,0,1,5.244-7.048,10.021,10.021,0,0,1,9.43.278l.155.086c.041.023.086.041.131.068L104.186,39.4a13.8,13.8,0,0,1,6.2,11.6l-.126,169.812a5.419,5.419,0,0,1-.087.947,9.331,9.331,0,0,1-4.988,7.633,9.69,9.69,0,0,1-9.466-.14Z" transform="translate(-1.192 0)" fill="#5786ed"/>
      <path id="Контур_10185" data-name="Контур 10185" d="M112.964,80.3a2.772,2.772,0,0,0-1.342,2.111l-.009,7.664a.716.716,0,0,0,.368.7l-1.206-.57-.115-.056a.723.723,0,0,1-.45-.74l.011-7.664a2.779,2.779,0,0,1,1.342-2.112.988.988,0,0,1,.854-.186l.07.026.009,0a.2.2,0,0,1,.036.018l1.379.647a1.086,1.086,0,0,0-.947.155Z" transform="translate(-5.636 -4.061)" fill="#2950af"/>
      <path id="Контур_10186" data-name="Контур 10186" d="M110.484,89.743a.658.658,0,0,1-.077-.345l.008-7.664a2.6,2.6,0,0,1,1.241-1.935c.318-.184.515-.234.678-.171l.072.027.7.327a1.962,1.962,0,0,0-.252.125,2.955,2.955,0,0,0-1.445,2.289l-.011,7.664a1.186,1.186,0,0,0,.018.213l-.678-.32a.5.5,0,0,1-.253-.209Zm3.5-9.8-1.51-.7a1.189,1.189,0,0,0-1.027.2A2.97,2.97,0,0,0,110,81.732L110,89.4a.919.919,0,0,0,.575.931l1.31.623v0l.177-.37v0a.536.536,0,0,1-.25-.519l.009-7.664a2.6,2.6,0,0,1,1.24-1.935.921.921,0,0,1,.765-.141l.166-.376Z" transform="translate(-5.625 -4.05)" fill="#5786ed"/>
      <path id="Контур_10187" data-name="Контур 10187" d="M114.371,88.562l.009-7.663c0-.741-.6-.994-1.34-.567h0a2.772,2.772,0,0,0-1.342,2.111l-.009,7.664c0,.74.6.993,1.338.568h0a2.782,2.782,0,0,0,1.343-2.113Z" transform="translate(-5.712 -4.098)" fill="#abc5ff"/>
      <path id="Контур_10188" data-name="Контур 10188" d="M111.964,90.461a.742.742,0,0,1-.08-.365l.009-7.664a2.6,2.6,0,0,1,1.24-1.935.863.863,0,0,1,.808-.12.566.566,0,0,1,.225.511l-.011,7.664a2.6,2.6,0,0,1-1.237,1.935.85.85,0,0,1-.81.121.406.406,0,0,1-.141-.146Zm2.473-10.144a.779.779,0,0,0-.291-.3,1.223,1.223,0,0,0-1.218.121,2.955,2.955,0,0,0-1.445,2.289l-.011,7.664a.941.941,0,0,0,.429.866,1.227,1.227,0,0,0,1.219-.121,2.963,2.963,0,0,0,1.445-2.288l.008-7.664a1.121,1.121,0,0,0-.136-.571Z" transform="translate(-5.701 -4.086)" fill="#5786ed"/>
      <path id="Контур_10189" data-name="Контур 10189" d="M112.9,100.377a2.778,2.778,0,0,0-1.342,2.113l-.011,26.955a.725.725,0,0,0,.367.706l-1.2-.572-.115-.056a.722.722,0,0,1-.448-.74l.009-26.955a2.783,2.783,0,0,1,1.343-2.113.991.991,0,0,1,.853-.186l.071.025.007,0,.038.018,1.378.647a1.091,1.091,0,0,0-.946.154Z" transform="translate(-5.633 -5.088)" fill="#2950af"/>
      <path id="Контур_10190" data-name="Контур 10190" d="M110.415,129.119a.683.683,0,0,1-.078-.345l.01-26.957a2.593,2.593,0,0,1,1.238-1.935c.321-.184.516-.234.681-.173l.071.027.7.329a1.84,1.84,0,0,0-.25.125,2.96,2.96,0,0,0-1.446,2.287l-.009,26.957a1.291,1.291,0,0,0,.016.215l-.675-.322a.5.5,0,0,1-.255-.208Zm3.5-29.093-1.51-.7a1.2,1.2,0,0,0-1.029.2,2.972,2.972,0,0,0-1.445,2.289l-.01,26.957a.923.923,0,0,0,.577.931l1.308.622h0l.176-.371h0a.535.535,0,0,1-.249-.519l.009-26.957a2.593,2.593,0,0,1,1.24-1.935.911.911,0,0,1,.763-.141l.168-.377Z" transform="translate(-5.622 -5.077)" fill="#5786ed"/>
      <path id="Контур_10191" data-name="Контур 10191" d="M114.3,127.938l.011-26.957c0-.74-.6-.993-1.34-.568h0a2.778,2.778,0,0,0-1.342,2.113l-.011,26.955c0,.74.6,1,1.34.568h0A2.778,2.778,0,0,0,114.3,127.938Z" transform="translate(-5.708 -5.125)" fill="#abc5ff"/>
      <path id="Контур_10192" data-name="Контур 10192" d="M111.9,129.837a.717.717,0,0,1-.08-.365l.009-26.957a2.593,2.593,0,0,1,1.24-1.935.858.858,0,0,1,.808-.121.564.564,0,0,1,.222.511l-.009,26.957a2.591,2.591,0,0,1-1.24,1.933.848.848,0,0,1-.808.122A.378.378,0,0,1,111.9,129.837Zm2.473-29.438a.8.8,0,0,0-.293-.293,1.219,1.219,0,0,0-1.217.121,2.96,2.96,0,0,0-1.446,2.287L111.4,129.47a.941.941,0,0,0,.428.867,1.228,1.228,0,0,0,1.218-.12,2.966,2.966,0,0,0,1.446-2.29l.009-26.957a1.145,1.145,0,0,0-.136-.572Z" transform="translate(-5.697 -5.114)" fill="#5786ed"/>
      <path id="Контур_10193" data-name="Контур 10193" d="M24.768,8.53,24.72,178.942a13.718,13.718,0,0,0,6.16,11.5l65.777,37.89c3.838,1.706,8.449-.192,8.469-4.53l.125-169.81A13.5,13.5,0,0,0,99.2,42.676L33.49,4.761c-4.779-2.681-8.451-.254-8.722,3.769Z" transform="translate(-1.264 -0.186)" fill="#abc5ff"/>
      <path id="Контур_10194" data-name="Контур 10194" d="M46.134,44.845,96.6,74.187a9.457,9.457,0,0,1,4.236,7.93l-.17,140.246a3.826,3.826,0,0,1-5.935,3.174L31.3,188.7a9.6,9.6,0,0,1-4.315-8.058L27.1,39.972c.189-2.82,2.762-4.52,6.111-2.644l12.926,7.516Z" transform="translate(-1.38 -1.869)" fill="#ff5833" opacity="0.422"/>
      <path id="Контур_10195" data-name="Контур 10195" d="M45.745,20.364,85.33,43.421a9.457,9.457,0,0,1,4.236,7.93L89.4,58.4a3.826,3.826,0,0,1-5.935,3.174L43.855,38.493a9.6,9.6,0,0,1-4.315-8.058l.117-7.467c.189-2.82,2.762-4.52,6.111-2.644l-.023.04Z" transform="translate(-2.022 -0.999)" fill="#2950af"/>
      <path id="Контур_10196" data-name="Контур 10196" d="M.753-24.57,56,7.632V33.5L.753,1.366Z" transform="translate(34.154 95.101)" fill="#fff" opacity="0.748"/>
      <path id="Контур_10197" data-name="Контур 10197" d="M.753-24.57,56,7.632V33.5L.753,1.366Z" transform="translate(34.154 129.101)" fill="#fff" opacity="0.748"/>
      <path id="Контур_10198" data-name="Контур 10198" d="M29.545-7.515,56,7.632V33.5L29.545,18.422Z" transform="translate(34.154 162.101)" fill="#fff" opacity="0.748"/>
    </g>
  </g>
</svg>
