<svg xmlns="http://www.w3.org/2000/svg" xmlns:xlink="http://www.w3.org/1999/xlink" viewBox="0 0 1514.35 1080"><defs><style>.cls-1{isolation:isolate;}.cls-11,.cls-2,.cls-3,.cls-4,.cls-46,.cls-98{fill:none;stroke-miterlimit:10;}.cls-2,.cls-3,.cls-4,.cls-98{stroke:#08243b;}.cls-3{stroke-dasharray:9.85 9.85;}.cls-4{stroke-dasharray:10;}.cls-5{fill:#c2d5ff;}.cls-6{fill:#5786ed;}.cls-7{fill:#ff8d33;}.cls-13,.cls-62,.cls-8{fill:#08243b;}.cls-9{fill:url(#linear-gradient);}.cls-10{fill:url(#linear-gradient-2);}.cls-11{stroke:#c2d5ff;stroke-width:4px;}.cls-11,.cls-46,.cls-98{stroke-linecap:round;}.cls-12{font-size:20.88px;fill:#414042;font-family:ArialMT, Arial;}.cls-105,.cls-13{opacity:0.5;}.cls-105,.cls-13,.cls-58,.cls-62{mix-blend-mode:multiply;}.cls-14{fill:url(#linear-gradient-3);}.cls-15{fill:#ff5833;}.cls-16{fill:url(#linear-gradient-4);}.cls-17{fill:url(#linear-gradient-5);}.cls-18{fill:url(#linear-gradient-6);}.cls-19{fill:url(#linear-gradient-7);}.cls-20{fill:url(#linear-gradient-8);}.cls-21{fill:url(#linear-gradient-9);}.cls-22{fill:url(#linear-gradient-10);}.cls-23{fill:url(#linear-gradient-11);}.cls-24{fill:url(#linear-gradient-12);}.cls-25{fill:url(#linear-gradient-13);}.cls-26{fill:url(#linear-gradient-14);}.cls-27{fill:url(#linear-gradient-15);}.cls-110,.cls-28,.cls-33,.cls-45,.cls-59{fill:#fff;}.cls-29,.cls-50{fill:#2950af;}.cls-30{fill:url(#linear-gradient-16);}.cls-31{fill:#fefefe;}.cls-32{fill:#dbdadb;}.cls-33,.cls-58,.cls-62{opacity:0.2;}.cls-110,.cls-33,.cls-59{mix-blend-mode:overlay;}.cls-34{fill:url(#linear-gradient-17);}.cls-35{fill:#3351a9;}.cls-36{fill:url(#linear-gradient-18);}.cls-37{fill:#e0e0e0;}.cls-38{fill:#e6e7e8;}.cls-39{fill:#121354;}.cls-40{fill:#ff5f00;}.cls-41{fill:#eb001b;}.cls-42{fill:#f79e1b;}.cls-43{fill:url(#linear-gradient-19);}.cls-44{fill:#e6e6e6;}.cls-45{font-size:3.67px;font-family:Montserrat-SemiBold, Montserrat;font-weight:600;}.cls-46{stroke:#fff;}.cls-47{fill:url(#linear-gradient-20);}.cls-48{font-size:7.83px;font-family:Montserrat-Bold, Montserrat;font-weight:700;}.cls-48,.cls-56{fill:#a7a9ac;}.cls-49{letter-spacing:-0.05em;}.cls-50{letter-spacing:0.01em;}.cls-51{fill:#d9dade;}.cls-52{fill:#808285;}.cls-53{fill:url(#linear-gradient-21);}.cls-54{fill:#ec6442;}.cls-55{fill:#d1d3d4;}.cls-57{fill:url(#linear-gradient-22);}.cls-59{opacity:0.1;}.cls-60{fill:url(#linear-gradient-23);}.cls-61{fill:url(#linear-gradient-24);}.cls-63{fill:url(#linear-gradient-25);}.cls-64{fill:url(#linear-gradient-26);}.cls-65{fill:url(#linear-gradient-27);}.cls-66{fill:url(#linear-gradient-28);}.cls-67{fill:url(#linear-gradient-29);}.cls-68{fill:url(#linear-gradient-30);}.cls-69{fill:url(#linear-gradient-31);}.cls-70{fill:url(#linear-gradient-32);}.cls-71{fill:url(#linear-gradient-33);}.cls-72{fill:url(#linear-gradient-34);}.cls-73{fill:url(#linear-gradient-35);}.cls-74{fill:url(#linear-gradient-36);}.cls-75{fill:url(#linear-gradient-37);}.cls-76{fill:url(#linear-gradient-38);}.cls-77{fill:url(#linear-gradient-39);}.cls-78{fill:url(#linear-gradient-40);}.cls-79{fill:url(#linear-gradient-41);}.cls-80{fill:url(#linear-gradient-42);}.cls-81{fill:url(#linear-gradient-43);}.cls-82{fill:url(#linear-gradient-44);}.cls-83{fill:url(#linear-gradient-45);}.cls-84{fill:url(#linear-gradient-46);}.cls-85{fill:url(#linear-gradient-47);}.cls-86{fill:url(#linear-gradient-48);}.cls-87{fill:url(#linear-gradient-49);}.cls-88{fill:url(#linear-gradient-50);}.cls-89{fill:url(#linear-gradient-51);}.cls-90{fill:url(#linear-gradient-52);}.cls-91{fill:url(#linear-gradient-53);}.cls-92{fill:url(#linear-gradient-54);}.cls-93{fill:url(#linear-gradient-55);}.cls-94{fill:url(#linear-gradient-56);}.cls-95{fill:url(#linear-gradient-57);}.cls-96{fill:url(#linear-gradient-58);}.cls-97{fill:#284c82;}.cls-98{stroke-width:3px;}.cls-99{fill:#d4492a;}.cls-100{fill:url(#linear-gradient-59);}.cls-101{fill:url(#linear-gradient-60);}.cls-102{fill:url(#linear-gradient-61);}.cls-103{fill:url(#linear-gradient-62);}.cls-104{fill:url(#linear-gradient-63);}.cls-106{fill:url(#linear-gradient-64);}.cls-107{fill:url(#linear-gradient-65);}.cls-108{fill:url(#linear-gradient-66);}.cls-109{fill:#f7f5f6;}.cls-110{opacity:0.4;}.cls-111{fill:url(#linear-gradient-67);}</style><linearGradient id="linear-gradient" x1="1157.61" y1="804.15" x2="1293.79" y2="963.8" gradientUnits="userSpaceOnUse"><stop offset="0.1" stop-color="#ff8d33"/><stop offset="1" stop-color="#ff5833"/></linearGradient><linearGradient id="linear-gradient-2" x1="393.08" y1="105.19" x2="529.26" y2="264.84" xlink:href="#linear-gradient"/><linearGradient id="linear-gradient-3" x1="1149.29" y1="497.16" x2="1271.77" y2="660.73" gradientTransform="translate(2433.48 1174.48) rotate(180)" xlink:href="#linear-gradient"/><linearGradient id="linear-gradient-4" x1="1180.92" y1="477.05" x2="1282.92" y2="645.84" gradientTransform="translate(2433.48 1072.66) rotate(180)" gradientUnits="userSpaceOnUse"><stop offset="0.1" stop-color="#5786ed"/><stop offset="1" stop-color="#2950af"/></linearGradient><linearGradient id="linear-gradient-5" x1="1171.9" y1="482.5" x2="1273.9" y2="651.28" gradientTransform="translate(2433.48 1113.39) rotate(180)" xlink:href="#linear-gradient-4"/><linearGradient id="linear-gradient-6" x1="1162.89" y1="487.95" x2="1264.89" y2="656.73" gradientTransform="translate(2433.48 1154.12) rotate(180)" xlink:href="#linear-gradient-4"/><linearGradient id="linear-gradient-7" x1="1153.87" y1="493.4" x2="1255.87" y2="662.18" gradientTransform="translate(2433.48 1194.84) rotate(180)" xlink:href="#linear-gradient-4"/><linearGradient id="linear-gradient-8" x1="1144.86" y1="498.84" x2="1246.86" y2="667.63" gradientTransform="translate(2433.48 1235.57) rotate(180)" xlink:href="#linear-gradient-4"/><linearGradient id="linear-gradient-9" x1="1135.85" y1="504.29" x2="1237.85" y2="673.07" gradientTransform="translate(2433.48 1276.29) rotate(180)" xlink:href="#linear-gradient-4"/><linearGradient id="linear-gradient-10" x1="1322.11" y1="447.15" x2="1250.89" y2="619.72" gradientTransform="translate(2570.61 1072.66) rotate(180)" xlink:href="#linear-gradient-4"/><linearGradient id="linear-gradient-11" x1="1329.29" y1="450.11" x2="1258.07" y2="622.68" gradientTransform="translate(2570.61 1113.39) rotate(180)" xlink:href="#linear-gradient-4"/><linearGradient id="linear-gradient-12" x1="1336.47" y1="453.08" x2="1265.26" y2="625.64" gradientTransform="translate(2570.61 1154.12) rotate(180)" xlink:href="#linear-gradient-4"/><linearGradient id="linear-gradient-13" x1="1343.65" y1="456.04" x2="1272.44" y2="628.61" gradientTransform="translate(2570.61 1194.84) rotate(180)" xlink:href="#linear-gradient-4"/><linearGradient id="linear-gradient-14" x1="1350.83" y1="459" x2="1279.62" y2="631.57" gradientTransform="translate(2570.61 1235.57) rotate(180)" xlink:href="#linear-gradient-4"/><linearGradient id="linear-gradient-15" x1="1358.01" y1="461.97" x2="1286.8" y2="634.53" gradientTransform="translate(2570.61 1276.29) rotate(180)" xlink:href="#linear-gradient-4"/><linearGradient id="linear-gradient-16" x1="323.06" y1="715.52" x2="118.54" y2="842.3" xlink:href="#linear-gradient"/><linearGradient id="linear-gradient-17" x1="288.38" y1="748.71" x2="83.86" y2="875.49" gradientUnits="userSpaceOnUse"><stop offset="0.25" stop-color="#5786ed"/><stop offset="0.43" stop-color="#507ee4"/><stop offset="0.73" stop-color="#3e69cc"/><stop offset="1" stop-color="#2950af"/></linearGradient><linearGradient id="linear-gradient-18" x1="318.12" y1="889.58" x2="113.6" y2="1016.36" gradientUnits="userSpaceOnUse"><stop offset="0.25" stop-color="#bcbec0"/><stop offset="0.44" stop-color="#b3b5b7"/><stop offset="0.74" stop-color="#9b9d9f"/><stop offset="1" stop-color="#808285"/></linearGradient><linearGradient id="linear-gradient-19" x1="952.03" y1="727.7" x2="859.29" y2="957" gradientTransform="translate(41.19 1757.4) rotate(-90)" xlink:href="#linear-gradient-4"/><linearGradient id="linear-gradient-20" x1="965.16" y1="773.31" x2="954.14" y2="794.05" gradientTransform="matrix(1, 0, 0, 1, 0, 0)" xlink:href="#linear-gradient-4"/><linearGradient id="linear-gradient-21" x1="912.15" y1="846.81" x2="841.76" y2="889.67" xlink:href="#linear-gradient"/><linearGradient id="linear-gradient-22" x1="562.96" y1="291.23" x2="692.46" y2="500.28" gradientTransform="matrix(1, 0, 0, 1, 0, 0)" xlink:href="#linear-gradient-4"/><linearGradient id="linear-gradient-23" x1="667.94" y1="287.7" x2="700.62" y2="562.11" gradientTransform="matrix(1, 0, 0, 1, 0, 0)" xlink:href="#linear-gradient-4"/><linearGradient id="linear-gradient-24" x1="635.9" y1="398.73" x2="734.26" y2="526.38" gradientTransform="matrix(1, 0, 0, 1, 0, 0)" xlink:href="#linear-gradient-4"/><linearGradient id="linear-gradient-25" x1="652.77" y1="294.51" x2="778.56" y2="473.02" xlink:href="#linear-gradient"/><linearGradient id="linear-gradient-26" x1="647.15" y1="298.46" x2="772.94" y2="476.98" xlink:href="#linear-gradient"/><linearGradient id="linear-gradient-27" x1="641.53" y1="302.42" x2="767.33" y2="480.94" xlink:href="#linear-gradient"/><linearGradient id="linear-gradient-28" x1="635.92" y1="306.38" x2="761.71" y2="484.9" xlink:href="#linear-gradient"/><linearGradient id="linear-gradient-29" x1="630.3" y1="310.34" x2="756.1" y2="488.85" xlink:href="#linear-gradient"/><linearGradient id="linear-gradient-30" x1="624.68" y1="314.29" x2="750.48" y2="492.81" xlink:href="#linear-gradient"/><linearGradient id="linear-gradient-31" x1="619.07" y1="318.25" x2="744.86" y2="496.77" xlink:href="#linear-gradient"/><linearGradient id="linear-gradient-32" x1="613.45" y1="322.21" x2="739.25" y2="500.73" xlink:href="#linear-gradient"/><linearGradient id="linear-gradient-33" x1="607.84" y1="326.17" x2="733.63" y2="504.68" xlink:href="#linear-gradient"/><linearGradient id="linear-gradient-34" x1="602.22" y1="330.12" x2="728.01" y2="508.64" xlink:href="#linear-gradient"/><linearGradient id="linear-gradient-35" x1="671.31" y1="281.44" x2="797.1" y2="459.96" xlink:href="#linear-gradient"/><linearGradient id="linear-gradient-36" x1="665.69" y1="285.4" x2="791.49" y2="463.92" xlink:href="#linear-gradient"/><linearGradient id="linear-gradient-37" x1="660.07" y1="289.36" x2="785.87" y2="467.87" xlink:href="#linear-gradient"/><linearGradient id="linear-gradient-38" x1="654.46" y1="293.31" x2="780.25" y2="471.83" xlink:href="#linear-gradient"/><linearGradient id="linear-gradient-39" x1="648.84" y1="297.27" x2="774.64" y2="475.79" xlink:href="#linear-gradient"/><linearGradient id="linear-gradient-40" x1="643.23" y1="301.23" x2="769.02" y2="479.75" xlink:href="#linear-gradient"/><linearGradient id="linear-gradient-41" x1="637.61" y1="305.19" x2="763.4" y2="483.7" xlink:href="#linear-gradient"/><linearGradient id="linear-gradient-42" x1="631.99" y1="309.14" x2="757.79" y2="487.66" xlink:href="#linear-gradient"/><linearGradient id="linear-gradient-43" x1="626.38" y1="313.1" x2="752.17" y2="491.62" xlink:href="#linear-gradient"/><linearGradient id="linear-gradient-44" x1="620.76" y1="317.06" x2="746.56" y2="495.58" xlink:href="#linear-gradient"/><linearGradient id="linear-gradient-45" x1="587.03" y1="340.83" x2="712.83" y2="519.35" xlink:href="#linear-gradient"/><linearGradient id="linear-gradient-46" x1="581.41" y1="344.79" x2="707.21" y2="523.3" xlink:href="#linear-gradient"/><linearGradient id="linear-gradient-47" x1="575.8" y1="348.74" x2="701.59" y2="527.26" xlink:href="#linear-gradient"/><linearGradient id="linear-gradient-48" x1="570.18" y1="352.7" x2="695.98" y2="531.22" xlink:href="#linear-gradient"/><linearGradient id="linear-gradient-49" x1="564.57" y1="356.66" x2="690.36" y2="535.18" xlink:href="#linear-gradient"/><linearGradient id="linear-gradient-50" x1="558.95" y1="360.62" x2="684.74" y2="539.13" xlink:href="#linear-gradient"/><linearGradient id="linear-gradient-51" x1="553.33" y1="364.57" x2="679.13" y2="543.09" xlink:href="#linear-gradient"/><linearGradient id="linear-gradient-52" x1="547.72" y1="368.53" x2="673.51" y2="547.05" xlink:href="#linear-gradient"/><linearGradient id="linear-gradient-53" x1="542.1" y1="372.49" x2="667.9" y2="551.01" xlink:href="#linear-gradient"/><linearGradient id="linear-gradient-54" x1="536.48" y1="376.45" x2="662.28" y2="554.96" xlink:href="#linear-gradient"/><linearGradient id="linear-gradient-55" x1="565.47" y1="453" x2="663.83" y2="580.65" gradientTransform="matrix(1, 0, 0, 1, 0, 0)" xlink:href="#linear-gradient-4"/><linearGradient id="linear-gradient-56" x1="732.09" y1="351.26" x2="817.18" y2="563.08" gradientUnits="userSpaceOnUse"><stop offset="0.11" stop-color="#154a6d"/><stop offset="1" stop-color="#08243b"/></linearGradient><linearGradient id="linear-gradient-57" x1="745.23" y1="345.98" x2="830.33" y2="557.8" xlink:href="#linear-gradient-56"/><linearGradient id="linear-gradient-58" x1="758.14" y1="340.79" x2="843.24" y2="552.61" xlink:href="#linear-gradient-56"/><linearGradient id="linear-gradient-59" x1="973.2" y1="107.39" x2="1052.35" y2="292.63" xlink:href="#linear-gradient"/><linearGradient id="linear-gradient-60" x1="992.28" y1="95.46" x2="1053.68" y2="242.49" gradientTransform="matrix(1, 0, 0, 1, 0, 0)" xlink:href="#linear-gradient-4"/><linearGradient id="linear-gradient-61" x1="985.31" y1="98.36" x2="1046.72" y2="245.4" gradientTransform="matrix(1, 0, 0, 1, 0, 0)" xlink:href="#linear-gradient-4"/><linearGradient id="linear-gradient-62" x1="978.35" y1="101.27" x2="1039.76" y2="248.3" gradientTransform="matrix(1, 0, 0, 1, 0, 0)" xlink:href="#linear-gradient-4"/><linearGradient id="linear-gradient-63" x1="950.5" y1="112.9" x2="1011.91" y2="259.93" gradientTransform="matrix(1, 0, 0, 1, 0, 0)" xlink:href="#linear-gradient-4"/><linearGradient id="linear-gradient-64" x1="971.39" y1="104.18" x2="1032.79" y2="251.21" gradientTransform="matrix(1, 0, 0, 1, 0, 0)" xlink:href="#linear-gradient-4"/><linearGradient id="linear-gradient-65" x1="964.42" y1="107.09" x2="1025.83" y2="254.12" gradientTransform="matrix(1, 0, 0, 1, 0, 0)" xlink:href="#linear-gradient-4"/><linearGradient id="linear-gradient-66" x1="957.46" y1="109.99" x2="1018.87" y2="257.03" gradientTransform="matrix(1, 0, 0, 1, 0, 0)" xlink:href="#linear-gradient-4"/><linearGradient id="linear-gradient-67" x1="495.11" y1="193.36" x2="508.8" y2="293.93" gradientTransform="matrix(1, 0, 0, 1, 0, 0)" xlink:href="#linear-gradient-4"/></defs><g class="cls-1"><g id="Layer_2" data-name="Layer 2"><polyline class="cls-2" points="288.97 796.87 793.92 796.87 793.92 950.77 288.97 950.77"/><line class="cls-2" x1="1065.59" y1="859.98" x2="1070.59" y2="859.98"/><path class="cls-3" d="M1080.44,860h12.31a145.83,145.83,0,0,0,145.49-135.89"/><path class="cls-2" d="M1238.48,719.17c.06-1.66.09-3.33.09-5h0"/><polyline class="cls-4" points="1109.78 587.24 992.68 587.24 992.68 437.32 900.44 437.32"/><path class="cls-4" d="M708,235.77h0a72.54,72.54,0,0,1,72.54-72.54H939.36"/><circle class="cls-5" cx="900.78" cy="859.98" r="164.81"/><path class="cls-5" d="M1055.13,696.66l-.85-9.42-7.08-.55a23.3,23.3,0,0,0-2.08-4.45l4.07-5.77-6.69-6.65-5.73,4.07a24.41,24.41,0,0,0-4.52-2.1l-.58-7-9.41-.81-1.73,6.76a24,24,0,0,0-4.88,1.31l-4.88-4.92-.22.15-7.5,5.29,3,6.27a24.71,24.71,0,0,0-2.86,4.15l-6.9-.63-2.43,9.12,6.36,2.91a24.68,24.68,0,0,0,.48,5l-5.74,4,4,8.55,6.81-1.9a24.47,24.47,0,0,0,3.51,3.47l-1.85,6.81,8.56,4,4-5.88a23.88,23.88,0,0,0,4.85.39l3,6.47,9.11-2.47-.35-3.64-.34-3.49c.67-.39,1.35-.82,2-1.27s1.33-1,2-1.53l6.46,3,5.39-7.75-5.1-5a23.85,23.85,0,0,0,1.24-4.69ZM1033,707a14.52,14.52,0,0,1-2,1.16,15,15,0,0,1-15.35-25.78,13.8,13.8,0,0,1,1.85-1.09A15,15,0,0,1,1033,707Z"/><path class="cls-5" d="M1119.73,738.21l-1.16-12.81-9.63-.76a33.58,33.58,0,0,0-2.84-6l5.55-7.86-9.12-9.07-7.79,5.56a32.59,32.59,0,0,0-6.17-2.87l-.79-9.48L1075,693.78l-2.36,9.19a33.09,33.09,0,0,0-6.64,1.78l-6.65-6.69-.3.21-10.22,7.19,4.07,8.55a32.82,32.82,0,0,0-3.91,5.66l-9.41-.87-3.28,12.43,8.66,3.95a32.58,32.58,0,0,0,.65,6.8l-7.82,5.42,5.46,11.64,9.28-2.58a31.87,31.87,0,0,0,4.79,4.72l-2.53,9.27,11.66,5.42,5.51-8a33.27,33.27,0,0,0,6.61.54l4.07,8.8,12.4-3.35-.47-5-.46-4.76c.92-.54,1.83-1.11,2.71-1.73s1.82-1.35,2.67-2.08l8.8,4.15,7.35-10.55-7-6.84a32.92,32.92,0,0,0,1.7-6.39Zm-30.09,14a20.73,20.73,0,0,1-2.69,1.57,20.33,20.33,0,1,1,2.69-1.57Z"/><circle class="cls-5" cx="1052.5" cy="199.55" r="119.82"/><circle class="cls-6" cx="1236.71" cy="587.24" r="126.93"/><circle class="cls-7" cx="709.08" cy="432.05" r="192.44"/><circle class="cls-2" cx="492.84" cy="556.62" r="44.34"/><circle class="cls-2" cx="1118.26" cy="484.94" r="18.34"/><path class="cls-8" d="M1320,893.23H1320a41.2,41.2,0,0,0-40.74-35.09h-14.59v2.67a41.36,41.36,0,0,0-23.42,22.6,16.75,16.75,0,0,0-6-1.09,17,17,0,0,0-16.33,21.85,19.9,19.9,0,1,0-3.4,39.5H1320a25.22,25.22,0,1,0,0-50.44Z"/><path class="cls-9" d="M1306.16,893.23h-.1a41.2,41.2,0,0,0-78.74-9.82,16.84,16.84,0,0,0-6-1.09A17,17,0,0,0,1205,904.17a19.9,19.9,0,1,0-3.4,39.5h104.56a25.22,25.22,0,1,0,0-50.44Z"/><path class="cls-8" d="M555.51,194.27h-.09a41.22,41.22,0,0,0-40.75-35.08H500.09v2.67a41.34,41.34,0,0,0-23.42,22.59,17,17,0,0,0-23,16,16.72,16.72,0,0,0,.7,4.82,19.11,19.11,0,0,0-3.4-.3,19.9,19.9,0,1,0,0,39.79H555.51a25.22,25.22,0,1,0,0-50.44Z"/><path class="cls-10" d="M541.63,194.27h-.1a41.2,41.2,0,0,0-78.74-9.82,17,17,0,0,0-22.32,20.77,19.22,19.22,0,0,0-3.41-.3,19.9,19.9,0,0,0,0,39.79H541.63a25.22,25.22,0,1,0,0-50.44Z"/><line class="cls-11" x1="1349.03" y1="357.77" x2="1393.38" y2="357.77"/><line class="cls-11" x1="1099.05" y1="357.77" x2="1320.85" y2="357.77"/><line class="cls-11" x1="1367.29" y1="374.52" x2="1185.48" y2="374.52"/><path class="cls-2" d="M402.55,332H538.73a25.1,25.1,0,0,1,25.1,25.1v25.1a0,0,0,0,1,0,0H402.55a25.1,25.1,0,0,1-25.1-25.1v0a25.1,25.1,0,0,1,25.1-25.1Z"/><text class="cls-12" transform="translate(431.79 362.62)">Acquirer</text><path class="cls-2" d="M1180.93,135.58h145a26.72,26.72,0,0,1,26.72,26.72v0A26.72,26.72,0,0,1,1325.91,189H1154.22a0,0,0,0,1,0,0V162.3a26.72,26.72,0,0,1,26.72-26.72Z"/><text class="cls-12" transform="translate(1169.32 167.97)">Payment Systems</text><path class="cls-2" d="M1263.15,427.14h156.16a28.78,28.78,0,0,1,28.78,28.78v0a28.78,28.78,0,0,1-28.78,28.78H1234.37a0,0,0,0,1,0,0V455.92A28.78,28.78,0,0,1,1263.15,427.14Z"/><text class="cls-12" transform="translate(1253.64 462.73)">Paymob Gateways</text><path class="cls-2" d="M631.3,665.66H838.8a31.51,31.51,0,0,1,31.51,31.51v31.51a0,0,0,0,1,0,0h-239a31.51,31.51,0,0,1-31.51-31.51v0a31.51,31.51,0,0,1,31.51-31.51Z"/><text class="cls-12" transform="translate(653.25 691.97)">Paymob SoftPOS<tspan x="17.98" y="25.05">merchant app</tspan></text><rect class="cls-8" x="1263.48" y="521.47" width="43.66" height="131.54" transform="translate(2570.61 1174.48) rotate(-180)"/><rect class="cls-13" x="1263.48" y="521.47" width="43.66" height="2.56" transform="translate(2570.61 1045.5) rotate(-180)"/><rect class="cls-14" x="1170" y="521.47" width="93.48" height="131.54" transform="translate(2433.48 1174.48) rotate(-180)"/><rect class="cls-15" x="1170" y="521.47" width="93.48" height="2.61" transform="translate(2433.48 1045.55) rotate(-180)"/><rect class="cls-16" x="1174.67" y="528.19" width="84.13" height="16.29" transform="translate(2433.48 1072.66) rotate(-180)"/><rect class="cls-17" x="1174.67" y="548.55" width="84.13" height="16.29" transform="translate(2433.48 1113.39) rotate(-180)"/><rect class="cls-18" x="1174.67" y="568.91" width="84.13" height="16.29" transform="translate(2433.48 1154.12) rotate(-180)"/><rect class="cls-19" x="1174.67" y="589.28" width="84.13" height="16.29" transform="translate(2433.48 1194.84) rotate(-180)"/><rect class="cls-20" x="1174.67" y="609.64" width="84.13" height="16.29" transform="translate(2433.48 1235.57) rotate(-180)"/><rect class="cls-21" x="1174.67" y="630" width="84.13" height="16.29" transform="translate(2433.48 1276.29) rotate(-180)"/><rect class="cls-22" x="1268.37" y="528.19" width="33.86" height="16.29" transform="translate(2570.61 1072.66) rotate(-180)"/><rect class="cls-23" x="1268.37" y="548.55" width="33.86" height="16.29" transform="translate(2570.61 1113.39) rotate(-180)"/><rect class="cls-24" x="1268.37" y="568.91" width="33.86" height="16.29" transform="translate(2570.61 1154.12) rotate(-180)"/><rect class="cls-25" x="1268.37" y="589.28" width="33.86" height="16.29" transform="translate(2570.61 1194.84) rotate(-180)"/><rect class="cls-26" x="1268.37" y="609.64" width="33.86" height="16.29" transform="translate(2570.61 1235.57) rotate(-180)"/><rect class="cls-27" x="1268.37" y="630" width="33.86" height="16.29" transform="translate(2570.61 1276.29) rotate(-180)"/><rect class="cls-13" x="1283.21" y="531.45" width="15.9" height="9.77" transform="translate(2582.31 1072.66) rotate(-180)"/><rect class="cls-13" x="1283.21" y="551.81" width="15.9" height="9.77" transform="translate(2582.31 1113.39) rotate(-180)"/><rect class="cls-13" x="1283.21" y="572.17" width="15.9" height="9.77" transform="translate(2582.31 1154.12) rotate(-180)"/><rect class="cls-13" x="1283.21" y="592.53" width="15.9" height="9.77" transform="translate(2582.31 1194.84) rotate(-180)"/><rect class="cls-13" x="1283.21" y="612.9" width="15.9" height="9.77" transform="translate(2582.31 1235.57) rotate(-180)"/><rect class="cls-13" x="1283.21" y="633.26" width="15.9" height="9.77" transform="translate(2582.31 1276.29) rotate(-180)"/><rect class="cls-28" x="1178.8" y="530.31" width="1.97" height="12.05" transform="translate(2359.56 1072.66) rotate(-180)"/><rect class="cls-28" x="1182.58" y="530.31" width="1.97" height="12.05" transform="translate(2367.12 1072.66) rotate(-180)"/><rect class="cls-28" x="1186.36" y="530.31" width="1.97" height="12.05" transform="translate(2374.68 1072.66) rotate(-180)"/><rect class="cls-28" x="1190.13" y="530.31" width="1.97" height="12.05" transform="translate(2382.23 1072.66) rotate(-180)"/><rect class="cls-28" x="1193.91" y="530.31" width="1.97" height="12.05" transform="translate(2389.79 1072.66) rotate(-180)"/><rect class="cls-28" x="1178.8" y="550.67" width="1.97" height="12.05" transform="translate(2359.56 1113.39) rotate(-180)"/><rect class="cls-28" x="1182.58" y="550.67" width="1.97" height="12.05" transform="translate(2367.12 1113.39) rotate(-180)"/><rect class="cls-28" x="1186.36" y="550.67" width="1.97" height="12.05" transform="translate(2374.68 1113.39) rotate(-180)"/><rect class="cls-28" x="1190.13" y="550.67" width="1.97" height="12.05" transform="translate(2382.23 1113.39) rotate(-180)"/><rect class="cls-28" x="1193.91" y="550.67" width="1.97" height="12.05" transform="translate(2389.79 1113.39) rotate(-180)"/><rect class="cls-28" x="1178.8" y="571.03" width="1.97" height="12.05" transform="translate(2359.56 1154.12) rotate(-180)"/><rect class="cls-28" x="1182.58" y="571.03" width="1.97" height="12.05" transform="translate(2367.12 1154.12) rotate(-180)"/><rect class="cls-28" x="1186.36" y="571.03" width="1.97" height="12.05" transform="translate(2374.68 1154.12) rotate(-180)"/><rect class="cls-28" x="1190.13" y="571.03" width="1.97" height="12.05" transform="translate(2382.23 1154.12) rotate(-180)"/><rect class="cls-28" x="1193.91" y="571.03" width="1.97" height="12.05" transform="translate(2389.79 1154.12) rotate(-180)"/><rect class="cls-28" x="1178.8" y="591.4" width="1.97" height="12.05" transform="translate(2359.56 1194.84) rotate(-180)"/><rect class="cls-28" x="1182.58" y="591.4" width="1.97" height="12.05" transform="translate(2367.12 1194.84) rotate(-180)"/><rect class="cls-28" x="1186.36" y="591.4" width="1.97" height="12.05" transform="translate(2374.68 1194.84) rotate(-180)"/><rect class="cls-28" x="1190.13" y="591.4" width="1.97" height="12.05" transform="translate(2382.23 1194.84) rotate(-180)"/><rect class="cls-28" x="1193.91" y="591.4" width="1.97" height="12.05" transform="translate(2389.79 1194.84) rotate(-180)"/><rect class="cls-28" x="1178.8" y="611.76" width="1.97" height="12.05" transform="translate(2359.56 1235.57) rotate(-180)"/><rect class="cls-28" x="1182.58" y="611.76" width="1.97" height="12.05" transform="translate(2367.12 1235.57) rotate(-180)"/><rect class="cls-28" x="1186.36" y="611.76" width="1.97" height="12.05" transform="translate(2374.68 1235.57) rotate(-180)"/><rect class="cls-28" x="1190.13" y="611.76" width="1.97" height="12.05" transform="translate(2382.23 1235.57) rotate(-180)"/><rect class="cls-28" x="1193.91" y="611.76" width="1.97" height="12.05" transform="translate(2389.79 1235.57) rotate(-180)"/><rect class="cls-28" x="1178.8" y="632.12" width="1.97" height="12.05" transform="translate(2359.56 1276.29) rotate(-180)"/><rect class="cls-28" x="1182.58" y="632.12" width="1.97" height="12.05" transform="translate(2367.12 1276.29) rotate(-180)"/><rect class="cls-28" x="1186.36" y="632.12" width="1.97" height="12.05" transform="translate(2374.68 1276.29) rotate(-180)"/><rect class="cls-28" x="1190.13" y="632.12" width="1.97" height="12.05" transform="translate(2382.23 1276.29) rotate(-180)"/><rect class="cls-28" x="1193.91" y="632.12" width="1.97" height="12.05" transform="translate(2389.79 1276.29) rotate(-180)"/><path class="cls-29" d="M1249,536.33a2,2,0,1,0,2-2A2,2,0,0,0,1249,536.33Z"/><path class="cls-7" d="M1236.43,536.33a2,2,0,1,0,2-2A2,2,0,0,0,1236.43,536.33Z"/><path class="cls-15" d="M1223.83,536.33a2,2,0,1,0,2-2A2,2,0,0,0,1223.83,536.33Z"/><path class="cls-7" d="M1249,556.69a2,2,0,1,0,2-2A2,2,0,0,0,1249,556.69Z"/><path class="cls-15" d="M1236.43,556.69a2,2,0,1,0,2-2A2,2,0,0,0,1236.43,556.69Z"/><path class="cls-29" d="M1223.83,556.69a2,2,0,1,0,2-2A2,2,0,0,0,1223.83,556.69Z"/><path class="cls-29" d="M1249,577.06a2,2,0,1,0,2-2A2,2,0,0,0,1249,577.06Z"/><path class="cls-15" d="M1236.43,577.06a2,2,0,1,0,2-2A2,2,0,0,0,1236.43,577.06Z"/><path class="cls-7" d="M1223.83,577.06a2,2,0,1,0,2-2A2,2,0,0,0,1223.83,577.06Z"/><path class="cls-7" d="M1249,597.42a2,2,0,1,0,2-2A2,2,0,0,0,1249,597.42Z"/><path class="cls-29" d="M1236.43,597.42a2,2,0,1,0,2-2A2,2,0,0,0,1236.43,597.42Z"/><path class="cls-15" d="M1223.83,597.42a2,2,0,1,0,2-2A2,2,0,0,0,1223.83,597.42Z"/><path class="cls-15" d="M1249,617.78a2,2,0,1,0,2-2A2,2,0,0,0,1249,617.78Z"/><path class="cls-29" d="M1236.43,617.78a2,2,0,1,0,2-2A2,2,0,0,0,1236.43,617.78Z"/><path class="cls-7" d="M1223.83,617.78a2,2,0,1,0,2-2A2,2,0,0,0,1223.83,617.78Z"/><path class="cls-15" d="M1249,638.15a2,2,0,1,0,2-2A2,2,0,0,0,1249,638.15Z"/><path class="cls-7" d="M1236.43,638.15a2,2,0,1,0,2-2A2,2,0,0,0,1236.43,638.15Z"/><path class="cls-29" d="M1223.83,638.15a2,2,0,1,0,2-2A2,2,0,0,0,1223.83,638.15Z"/><rect class="cls-30" x="136.06" y="731.53" width="166.7" height="96.49" rx="6.45"/><rect class="cls-8" x="144.08" y="808" width="29.74" height="2"/><rect class="cls-8" x="184.39" y="808" width="29.74" height="2"/><rect class="cls-8" x="224.69" y="808" width="29.74" height="2"/><rect class="cls-8" x="265" y="808" width="29.74" height="2"/><rect class="cls-31" x="144.08" y="747.43" width="53.51" height="4.44"/><rect class="cls-32" x="252.12" y="747.43" width="34.53" height="27.66"/><path class="cls-33" d="M302.76,821.57V738a6.45,6.45,0,0,0-6.45-6.45H262.83c-25.75,31.2-59.26,71.61-79.91,96.49H296.31A6.45,6.45,0,0,0,302.76,821.57Z"/><path class="cls-13" d="M280.94,828V768.11a6.45,6.45,0,0,0-6.45-6.45H136.06V828Z"/><rect class="cls-34" x="106.32" y="761.66" width="166.7" height="96.49" rx="6.45"/><rect class="cls-5" x="114.35" y="838.13" width="29.74" height="2"/><rect class="cls-5" x="154.65" y="838.13" width="29.74" height="2"/><rect class="cls-5" x="194.95" y="838.13" width="29.74" height="2"/><rect class="cls-5" x="235.26" y="838.13" width="29.74" height="2"/><rect class="cls-5" x="114.35" y="777.55" width="53.51" height="4.44"/><rect class="cls-35" x="222.38" y="777.55" width="34.53" height="27.66"/><path class="cls-33" d="M273,851.69V768.11a6.45,6.45,0,0,0-6.45-6.45H233.1c-25.75,31.19-59.27,71.6-79.92,96.48H266.57A6.45,6.45,0,0,0,273,851.69Z"/><rect class="cls-36" x="136.06" y="902.53" width="166.7" height="96.49" rx="6.45"/><rect class="cls-37" x="144.08" y="979" width="29.74" height="2"/><rect class="cls-37" x="184.39" y="979" width="29.74" height="2"/><rect class="cls-37" x="224.69" y="979" width="29.74" height="2"/><rect class="cls-37" x="265" y="979" width="29.74" height="2"/><rect class="cls-37" x="144.08" y="918.42" width="53.51" height="4.44"/><rect class="cls-37" x="252.12" y="918.42" width="34.53" height="27.66"/><path class="cls-33" d="M302.76,992.56V909a6.45,6.45,0,0,0-6.45-6.45H262.83c-25.75,31.19-59.26,71.6-79.91,96.48H296.31A6.45,6.45,0,0,0,302.76,992.56Z"/><path class="cls-38" d="M60.85,728.39h42.32a21.26,21.26,0,0,1,21.26,21.26v21.26a0,0,0,0,1,0,0H60.85a21.26,21.26,0,0,1-21.26-21.26v0a21.26,21.26,0,0,1,21.26-21.26Z"/><path class="cls-39" d="M58.42,741.93h6.63A1.35,1.35,0,0,1,66.38,743L68,751.37l3.89-9.44h3.56l-5.78,14.32H65.83l-2.67-10.76a4.19,4.19,0,0,0-3.59-3.16l-1.15-.13Z"/><polygon class="cls-39" points="77.23 741.92 74.2 756.25 77.79 756.25 80.72 741.92 77.23 741.92"/><path class="cls-39" d="M90.6,745l.83-2.63a14.73,14.73,0,0,0-3.7-.44c-2.16,0-5.76.68-5.76,4.22s5.28,4.07,5.11,5.62-3.51,2.08-6.2.71l-.7,2.9a12.07,12.07,0,0,0,4.63.87c2.74,0,5.64-1.83,5.92-4.11a3.93,3.93,0,0,0-2.11-4c-1-.59-3.43-1.59-3-2.63S88.08,744.09,90.6,745Z"/><path class="cls-39" d="M100.86,741.93H96.78l-6.24,14.32h3.83l.88-2.55H99.7l.76,2.55H104ZM96,751.21l2.25-5.31,1,5.31Z"/><path class="cls-38" d="M309,693.13h66.35a0,0,0,0,1,0,0v22.19a22.19,22.19,0,0,1-22.19,22.19H309a22.19,22.19,0,0,1-22.19-22.19v0A22.19,22.19,0,0,1,309,693.13Z" transform="translate(662.14 1430.63) rotate(-180)"/><path class="cls-8" d="M319.57,729.22v-1.86a1.11,1.11,0,0,0-1-1.18h-.14a1.14,1.14,0,0,0-1,.53,1.09,1.09,0,0,0-1-.53,1,1,0,0,0-.87.44v-.36h-.65v3h.65v-1.63a.7.7,0,0,1,.6-.78h.13c.43,0,.65.28.65.78v1.66h.65v-1.65a.7.7,0,0,1,.6-.78h.12c.45,0,.66.28.66.78v1.66Zm9.64-3h-1.06v-.9h-.65v.9h-.59v.59h.6v1.36c0,.69.27,1.1,1,1.1a1.53,1.53,0,0,0,.81-.23l-.19-.55a1.26,1.26,0,0,1-.57.17c-.31,0-.43-.2-.43-.5v-1.35h1.06Zm5.51-.08a.87.87,0,0,0-.78.44v-.36h-.64v3h.64v-1.66c0-.49.22-.76.62-.76a1,1,0,0,1,.41.07l.2-.62a1.48,1.48,0,0,0-.46-.08Zm-8.33.31a2.21,2.21,0,0,0-1.21-.31c-.75,0-1.24.36-1.24,1s.36.78,1,.88l.31,0c.35.05.52.14.52.31s-.24.36-.68.36a1.62,1.62,0,0,1-1-.31l-.31.5a2.13,2.13,0,0,0,1.29.39c.86,0,1.35-.41,1.35-1s-.39-.8-1-.89l-.31,0c-.28,0-.51-.1-.51-.29s.21-.35.57-.35a1.91,1.91,0,0,1,.93.25Zm17.3-.31a.87.87,0,0,0-.78.44v-.36h-.64v3h.64v-1.66c0-.49.21-.76.62-.76a1,1,0,0,1,.41.07l.19-.62a1.38,1.38,0,0,0-.45-.08Zm-8.32,1.55a1.5,1.5,0,0,0,1.44,1.56H337a1.54,1.54,0,0,0,1.07-.35l-.31-.52a1.36,1.36,0,0,1-.78.27,1,1,0,0,1-.87-1,.94.94,0,0,1,.87-.87,1.28,1.28,0,0,1,.78.26l.31-.52a1.54,1.54,0,0,0-1.07-.35,1.5,1.5,0,0,0-1.58,1.41v.14Zm6.05,0v-1.47h-.65v.36a1.13,1.13,0,0,0-.93-.44,1.55,1.55,0,1,0,0,3.1,1.09,1.09,0,0,0,.93-.43v.36h.65Zm-2.41,0a.9.9,0,0,1,.95-.84.9.9,0,1,1-.95.91Zm-7.79-1.55a1.55,1.55,0,1,0,0,3.1h0a1.79,1.79,0,0,0,1.23-.4l-.31-.48a1.38,1.38,0,0,1-.87.31.81.81,0,0,1-.88-.72h2.2v-.25a1.41,1.41,0,0,0-1.41-1.55Zm0,.58a.73.73,0,0,1,.75.72h-1.55a.75.75,0,0,1,.79-.72Zm16.18,1v-2.68h-.62v1.56a1.14,1.14,0,0,0-.93-.44,1.55,1.55,0,1,0,0,3.1,1.1,1.1,0,0,0,.93-.43v.36h.62Zm1.07,1,.12,0,.1.07a.15.15,0,0,1,.06.09.29.29,0,0,1-.06.32.21.21,0,0,1-.1.06.21.21,0,0,1-.12,0,.29.29,0,0,1-.27-.18.24.24,0,0,1,0-.23.15.15,0,0,1,.06-.09l.1-.07.12,0Zm0,.53.09,0,.08,0a.23.23,0,0,0,0-.31l-.08-.05-.09,0-.09,0-.07.05a.23.23,0,0,0,0,.31l.07,0,.1,0Zm0-.37a.11.11,0,0,1,.08,0,.09.09,0,0,1,0,.07.08.08,0,0,1,0,.05.09.09,0,0,1-.07,0l.09.1h-.07l-.08-.1h0v.1h-.06V729Zm-.07,0v.07h.11V729h0ZM345,727.74a.92.92,0,1,1,0,.07Zm-21.8,0v-1.48h-.65v.36a1.12,1.12,0,0,0-.93-.44,1.55,1.55,0,0,0,0,3.1,1.08,1.08,0,0,0,.93-.43v.36h.65Zm-2.4,0a.81.81,0,1,1,0,.08v-.08Z"/><g id="_Group_" data-name=" Group "><rect class="cls-40" x="326.18" y="703.64" width="9.78" height="17.57"/><path id="_Path_" data-name=" Path " class="cls-41" d="M326.8,712.43a11.17,11.17,0,0,1,4.27-8.79,11.17,11.17,0,1,0,0,17.57A11.14,11.14,0,0,1,326.8,712.43Z"/><path class="cls-42" d="M349.15,712.43a11.17,11.17,0,0,1-18.08,8.78,11.17,11.17,0,0,0,0-17.57,11.18,11.18,0,0,1,18.08,8.79Z"/><path class="cls-42" d="M348.08,719.35V719h.15v-.07h-.37V719H348v.36Zm.72,0v-.43h-.11l-.13.31-.13-.31h-.1v.43h.08V719l.12.28h.08l.13-.28v.32Z"/></g><path class="cls-2" d="M317.6,860H429.05a0,0,0,0,1,0,0v28.63a28.63,28.63,0,0,1-28.63,28.63H317.6A28.63,28.63,0,0,1,289,888.62v0A28.63,28.63,0,0,1,317.6,860Z" transform="translate(718.02 1777.23) rotate(-180)"/><text class="cls-12" transform="translate(302.16 895.64)">Other Cards</text><rect class="cls-43" x="775.44" y="797.33" width="247.71" height="121.55" rx="14.13" transform="translate(1757.4 -41.19) rotate(90)"/><rect class="cls-44" x="770.67" y="797.33" width="247.71" height="121.55" rx="14.13" transform="translate(1752.63 -36.42) rotate(90)"/><rect class="cls-8" x="834.36" y="734.86" width="120.32" height="246.49" rx="13.77"/><rect class="cls-28" x="775.56" y="802.23" width="237.92" height="111.76" rx="12.9" transform="translate(1752.63 -36.42) rotate(90)"/><path class="cls-29" d="M849.78,739.14h89.49a11.14,11.14,0,0,1,11.14,11.14v14a0,0,0,0,1,0,0H838.64a0,0,0,0,1,0,0v-14A11.14,11.14,0,0,1,849.78,739.14Z"/><rect class="cls-28" x="922.73" y="745.62" width="0.88" height="1.24"/><rect class="cls-28" x="924.17" y="745.07" width="0.88" height="1.79"/><rect class="cls-28" x="925.61" y="744.66" width="0.88" height="2.21"/><rect class="cls-28" x="927.05" y="743.85" width="0.88" height="3.01"/><path class="cls-28" d="M941,746.93h-4.44a.32.32,0,0,1-.32-.32V744.4a.32.32,0,0,1,.32-.32H941l.06,0a.08.08,0,0,1,0,0v.73h.48a.09.09,0,0,1,.08.08V746a.09.09,0,0,1-.08.08h-.48v.73A.08.08,0,0,1,941,746.93Zm-.08-2.69h-4.36a.16.16,0,0,0-.16.16v2.21a.16.16,0,0,0,.16.15h4.36V746A.09.09,0,0,1,941,746h.48v-.9H941a.08.08,0,0,1-.08-.08Z"/><polygon class="cls-28" points="936.77 746.4 936.77 744.61 940.56 744.61 940.56 745.42 940.56 745.59 940.56 746.4 936.77 746.4"/><path class="cls-28" d="M932.17,746.76a.32.32,0,0,0-.32-.33.33.33,0,0,0-.33.33.32.32,0,0,0,.33.32A.32.32,0,0,0,932.17,746.76Z"/><path class="cls-28" d="M930.74,746l.41.42a1,1,0,0,1,.7-.29,1,1,0,0,1,.69.29L933,746a1.56,1.56,0,0,0-2.21,0Z"/><path class="cls-28" d="M931.85,744.59a2.48,2.48,0,0,0-1.76.73l.41.42a1.89,1.89,0,0,1,1.35-.56,1.87,1.87,0,0,1,1.34.56l.42-.42A2.5,2.5,0,0,0,931.85,744.59Z"/><path class="cls-28" d="M929.41,744.65l.42.41a2.82,2.82,0,0,1,2-.84,2.86,2.86,0,0,1,2,.84l.41-.41a3.39,3.39,0,0,0-2.43-1A3.43,3.43,0,0,0,929.41,744.65Z"/><text class="cls-45" transform="translate(847.66 746.52)">13:51</text><path class="cls-28" d="M884.76,756.89a1.36,1.36,0,0,1-1.45,1.08,1.56,1.56,0,0,1-1.59-1.76,1.62,1.62,0,0,1,1.62-1.79,1.31,1.31,0,0,1,1.42,1.09h-.65a.75.75,0,0,0-.79-.57c-.67,0-.93.6-.93,1.25s.24,1.26,1,1.26a.75.75,0,0,0,.77-.56Z"/><path class="cls-28" d="M885.86,754.27v1.42a.82.82,0,0,1,.75-.39c.46,0,.87.26.87,1v1.64h-.62v-1.54c0-.37-.14-.57-.47-.57s-.53.3-.53.74v1.37h-.62v-3.65Z"/><path class="cls-28" d="M888.59,756.77c0,.39.2.72.58.72a.46.46,0,0,0,.5-.32h.62a1.09,1.09,0,0,1-1.14.81,1.18,1.18,0,0,1-1.19-1.31,1.2,1.2,0,0,1,1.22-1.37,1.11,1.11,0,0,1,1.15,1.25,1.48,1.48,0,0,1,0,.22Zm1.12-.4c0-.34-.16-.62-.54-.62s-.53.26-.57.62Z"/><path class="cls-28" d="M893,757.11a1.06,1.06,0,0,1-1.12.87,1.16,1.16,0,0,1-1.19-1.32,1.23,1.23,0,0,1,1.22-1.36,1,1,0,0,1,1.09.89h-.61a.45.45,0,0,0-.49-.4c-.37,0-.58.32-.58.85s.21.85.57.85a.5.5,0,0,0,.5-.38Z"/><path class="cls-28" d="M894.07,756.49c.19-.26.61-.72,1-1.13h.72l-.92,1,1,1.58h-.71l-.72-1.19-.34.34v.85h-.62v-3.65h.62Z"/><path class="cls-28" d="M898.37,756.64a1.22,1.22,0,0,1-1.25,1.34,1.21,1.21,0,0,1-1.23-1.33,1.23,1.23,0,0,1,1.26-1.35A1.21,1.21,0,0,1,898.37,756.64Zm-1.85,0c0,.52.24.85.62.85s.6-.33.6-.85-.22-.85-.61-.85S896.52,756.08,896.52,756.64Z"/><path class="cls-28" d="M901.06,757.18v.74h-.6a2.73,2.73,0,0,1,0-.32.76.76,0,0,1-.73.38c-.49,0-.85-.28-.85-1v-1.67h.61v1.55c0,.3.1.56.44.56s.53-.2.53-.76v-1.35h.62Z"/><path class="cls-28" d="M901.48,755.36h.41v-.72h.62v.72H903v.47h-.52v1.35c0,.21.06.31.28.31l.18,0v.44a1.32,1.32,0,0,1-.44.05c-.47,0-.64-.25-.64-.69v-1.44h-.41Z"/><polyline class="cls-46" points="847.69 752.22 845.19 756.17 847.91 760.12"/><rect class="cls-8" x="957.14" y="773.97" width="2.21" height="23.29" rx="1.11"/><rect class="cls-47" x="957.51" y="773.97" width="2.21" height="23.29" rx="1.11"/><text class="cls-48" transform="translate(870.28 782.51)"><tspan class="cls-49">T</tspan><tspan x="4.41" y="0" xml:space="preserve">otal:      £ </tspan><tspan class="cls-29" x="42.95" y="0">36</tspan><tspan class="cls-50" x="52.58" y="0">6.</tspan><tspan class="cls-29" x="59.78" y="0">34</tspan></text><circle class="cls-51" cx="897.91" cy="871.96" r="42.13"/><rect class="cls-29" x="869.71" y="818.6" width="56.4" height="106.74" rx="3.63"/><rect class="cls-28" x="847.54" y="846.76" width="100.74" height="50.4" rx="1.87" transform="translate(25.95 1769.87) rotate(-90)"/><rect class="cls-51" x="895.16" y="847.2" width="7.88" height="44.8" rx="3.94"/><path class="cls-52" d="M896.33,888.06V851.14a3.92,3.92,0,0,1,3.36-3.88,3.92,3.92,0,0,0-4.53,3.88v36.92a3.93,3.93,0,0,0,4.53,3.88A3.92,3.92,0,0,1,896.33,888.06Z"/><path class="cls-53" d="M847.13,851H903a0,0,0,0,1,0,0v37.17a0,0,0,0,1,0,0H847.13a2.54,2.54,0,0,1-2.54-2.54V853.56A2.54,2.54,0,0,1,847.13,851Z"/><rect class="cls-8" x="844.58" y="856.98" width="58.45" height="7.14"/><line class="cls-2" x1="850.72" y1="880.62" x2="860.5" y2="880.62"/><line class="cls-2" x1="863.34" y1="880.62" x2="873.12" y2="880.62"/><line class="cls-2" x1="875.96" y1="880.62" x2="885.74" y2="880.62"/><line class="cls-2" x1="888.58" y1="880.62" x2="898.36" y2="880.62"/><rect class="cls-54" x="848.66" y="955.74" width="93" height="12.26" rx="6.13"/><rect class="cls-55" x="603.27" y="363.13" width="155.76" height="5.91"/><rect class="cls-28" x="603.27" y="368.67" width="155.76" height="168.62"/><rect class="cls-55" x="696.09" y="531.98" width="62.94" height="5.31"/><rect class="cls-55" x="603.27" y="531.98" width="24.12" height="5.31"/><rect class="cls-55" x="759.03" y="368.67" width="55.86" height="168.62"/><rect class="cls-56" x="759.03" y="531.98" width="55.86" height="5.31"/><rect class="cls-57" x="627.39" y="327.92" width="46.29" height="209.38"/><rect class="cls-33" x="627.39" y="327.92" width="12.31" height="209.38"/><rect class="cls-33" x="650.54" y="327.92" width="6.16" height="209.38"/><g class="cls-58"><rect class="cls-8" x="627.39" y="357.06" width="46.29" height="2.81"/><rect class="cls-8" x="627.39" y="406.49" width="46.29" height="2.81"/><rect class="cls-8" x="627.39" y="455.92" width="46.29" height="2.81"/><rect class="cls-8" x="627.39" y="505.35" width="46.29" height="2.81"/></g><polygon class="cls-59" points="673.69 445.35 627.35 491.73 627.35 474.45 673.69 428.07 673.69 445.35"/><polygon class="cls-59" points="673.69 404.03 627.35 450.41 627.35 327.92 673.69 327.92 673.69 404.03"/><rect class="cls-60" x="673.69" y="322.8" width="22.4" height="214.5"/><rect class="cls-13" x="673.69" y="322.8" width="22.4" height="214.5"/><g class="cls-58"><rect class="cls-8" x="673.69" y="357.06" width="22.4" height="2.81"/><rect class="cls-8" x="673.69" y="406.49" width="22.4" height="2.81"/><rect class="cls-8" x="673.69" y="455.92" width="22.4" height="2.81"/><rect class="cls-8" x="673.69" y="505.35" width="22.4" height="2.81"/></g><polygon class="cls-59" points="673.69 404.03 696.09 370.52 696.09 327.92 673.69 327.92 673.69 404.03"/><polygon class="cls-59" points="673.69 428.07 673.69 445.35 696.09 412.67 696.09 395.39 673.69 428.07"/><rect class="cls-56" x="759.03" y="363.13" width="55.86" height="5.54"/><rect class="cls-61" x="703.9" y="503.39" width="47.33" height="28.6"/><polygon class="cls-33" points="721.08 531.98 703.89 531.98 715.86 503.39 733.04 503.39 721.08 531.98"/><polygon class="cls-33" points="739.26 531.98 733.54 531.98 745.5 503.39 751.23 503.39 739.26 531.98"/><rect class="cls-62" x="703.9" y="508.51" width="47.33" height="1.38"/><rect class="cls-62" x="704.3" y="516.99" width="28.6" height="1.38" transform="translate(1236.28 -200.91) rotate(90)"/><rect class="cls-62" x="722.23" y="516.99" width="28.6" height="1.38" transform="translate(1254.21 -218.84) rotate(90)"/><rect class="cls-63" x="703.9" y="378.69" width="19.58" height="4.54"/><rect class="cls-64" x="703.9" y="390.62" width="19.58" height="4.54"/><rect class="cls-65" x="703.9" y="402.55" width="19.58" height="4.54"/><rect class="cls-66" x="703.9" y="414.47" width="19.58" height="4.54"/><rect class="cls-67" x="703.9" y="426.4" width="19.58" height="4.54"/><rect class="cls-68" x="703.9" y="438.33" width="19.58" height="4.54"/><rect class="cls-69" x="703.9" y="450.26" width="19.58" height="4.54"/><rect class="cls-70" x="703.9" y="462.18" width="19.58" height="4.54"/><rect class="cls-71" x="703.9" y="474.11" width="19.58" height="4.54"/><rect class="cls-72" x="703.9" y="486.04" width="19.58" height="4.54"/><rect class="cls-73" x="731.64" y="378.69" width="19.58" height="4.54"/><rect class="cls-74" x="731.64" y="390.62" width="19.58" height="4.54"/><rect class="cls-75" x="731.64" y="402.55" width="19.58" height="4.54"/><rect class="cls-76" x="731.64" y="414.47" width="19.58" height="4.54"/><rect class="cls-77" x="731.64" y="426.4" width="19.58" height="4.54"/><rect class="cls-78" x="731.64" y="438.33" width="19.58" height="4.54"/><rect class="cls-79" x="731.64" y="450.26" width="19.58" height="4.54"/><rect class="cls-80" x="731.64" y="462.18" width="19.58" height="4.54"/><rect class="cls-81" x="731.64" y="474.11" width="19.58" height="4.54"/><rect class="cls-82" x="731.64" y="486.04" width="19.58" height="4.54"/><rect class="cls-83" x="605.52" y="378.69" width="19.58" height="4.54"/><rect class="cls-84" x="605.52" y="390.62" width="19.58" height="4.54"/><rect class="cls-85" x="605.52" y="402.55" width="19.58" height="4.54"/><rect class="cls-86" x="605.52" y="414.47" width="19.58" height="4.54"/><rect class="cls-87" x="605.52" y="426.4" width="19.58" height="4.54"/><rect class="cls-88" x="605.52" y="438.33" width="19.58" height="4.54"/><rect class="cls-89" x="605.52" y="450.26" width="19.58" height="4.54"/><rect class="cls-90" x="605.52" y="462.18" width="19.58" height="4.54"/><rect class="cls-91" x="605.52" y="474.11" width="19.58" height="4.54"/><rect class="cls-92" x="605.52" y="486.04" width="19.58" height="4.54"/><rect class="cls-93" x="605.52" y="503.39" width="19.58" height="28.6"/><rect class="cls-33" x="605.52" y="503.39" width="4.64" height="28.6"/><rect class="cls-94" x="767.63" y="376.5" width="8.4" height="147.37"/><rect class="cls-95" x="782.89" y="376.5" width="8.4" height="147.37"/><rect class="cls-96" x="797.89" y="376.5" width="8.4" height="147.37"/><rect class="cls-97" x="627.39" y="322.8" width="68.7" height="5.12"/><line class="cls-98" x1="821.68" y1="537.29" x2="595.11" y2="537.29"/><rect class="cls-99" x="1025.39" y="127.9" width="99.81" height="143.29"/><rect class="cls-100" x="979.79" y="127.9" width="65.56" height="143.29"/><rect class="cls-8" x="985.35" y="133.68" width="56.05" height="14.19"/><rect class="cls-101" x="983.18" y="133.68" width="56.05" height="14.19"/><rect class="cls-5" x="1016.24" y="135.1" width="11.49" height="11.34"/><rect class="cls-13" x="1029.5" y="135.1" width="2.3" height="11.34"/><rect class="cls-13" x="1033.38" y="135.1" width="2.32" height="11.34"/><rect class="cls-5" x="985.35" y="135.1" width="28.62" height="3.13"/><rect class="cls-13" x="985.35" y="139.59" width="1.58" height="6.85"/><rect class="cls-13" x="988.33" y="139.59" width="1.58" height="6.85"/><rect class="cls-13" x="991.32" y="139.59" width="1.57" height="6.85"/><rect class="cls-13" x="994.29" y="139.59" width="1.58" height="6.85"/><rect class="cls-13" x="997.27" y="139.59" width="1.58" height="6.85"/><rect class="cls-13" x="1000.25" y="139.59" width="1.58" height="6.85"/><rect class="cls-13" x="1003.23" y="139.59" width="1.58" height="6.85"/><rect class="cls-13" x="1006.21" y="139.59" width="1.59" height="6.85"/><rect class="cls-13" x="1009.19" y="139.59" width="1.58" height="6.85"/><rect class="cls-13" x="1012.17" y="139.59" width="1.58" height="6.85"/><rect class="cls-8" x="985.35" y="153.26" width="56.05" height="14.19"/><rect class="cls-102" x="983.18" y="153.26" width="56.05" height="14.19"/><rect class="cls-5" x="1016.24" y="154.68" width="11.49" height="11.34"/><rect class="cls-13" x="1029.5" y="154.68" width="2.3" height="11.34"/><rect class="cls-13" x="1033.38" y="154.68" width="2.32" height="11.34"/><rect class="cls-5" x="985.35" y="154.68" width="28.62" height="3.13"/><rect class="cls-13" x="985.35" y="159.18" width="1.58" height="6.85"/><rect class="cls-13" x="988.33" y="159.18" width="1.58" height="6.85"/><rect class="cls-13" x="991.32" y="159.18" width="1.57" height="6.85"/><rect class="cls-13" x="994.29" y="159.18" width="1.58" height="6.85"/><rect class="cls-13" x="997.27" y="159.18" width="1.58" height="6.85"/><rect class="cls-13" x="1000.25" y="159.18" width="1.58" height="6.85"/><rect class="cls-13" x="1003.23" y="159.18" width="1.58" height="6.85"/><rect class="cls-13" x="1006.21" y="159.18" width="1.59" height="6.85"/><rect class="cls-13" x="1009.19" y="159.18" width="1.58" height="6.85"/><rect class="cls-13" x="1012.17" y="159.18" width="1.58" height="6.85"/><rect class="cls-8" x="985.35" y="172.84" width="56.05" height="14.19"/><rect class="cls-103" x="983.18" y="172.84" width="56.05" height="14.19"/><rect class="cls-5" x="1016.24" y="174.26" width="11.49" height="11.34"/><rect class="cls-13" x="1029.5" y="174.26" width="2.3" height="11.34"/><rect class="cls-13" x="1033.38" y="174.26" width="2.32" height="11.34"/><rect class="cls-5" x="985.35" y="174.26" width="28.62" height="3.13"/><rect class="cls-13" x="985.35" y="178.75" width="1.58" height="6.85"/><rect class="cls-13" x="988.33" y="178.75" width="1.58" height="6.85"/><rect class="cls-13" x="991.32" y="178.75" width="1.57" height="6.85"/><rect class="cls-13" x="994.29" y="178.75" width="1.58" height="6.85"/><rect class="cls-13" x="997.27" y="178.75" width="1.58" height="6.85"/><rect class="cls-13" x="1000.25" y="178.75" width="1.58" height="6.85"/><rect class="cls-13" x="1003.23" y="178.75" width="1.58" height="6.85"/><rect class="cls-13" x="1006.21" y="178.75" width="1.59" height="6.85"/><rect class="cls-13" x="1009.19" y="178.75" width="1.58" height="6.85"/><rect class="cls-13" x="1012.17" y="178.75" width="1.58" height="6.85"/><rect class="cls-8" x="985.35" y="251.15" width="56.05" height="14.19"/><rect class="cls-104" x="983.18" y="251.15" width="56.05" height="14.19"/><rect class="cls-5" x="1022.18" y="252.58" width="15.38" height="11.34"/><g class="cls-105"><rect class="cls-8" x="985.35" y="252.58" width="28.62" height="3.13"/><rect class="cls-8" x="985.35" y="257.07" width="1.58" height="6.85"/><rect class="cls-8" x="988.33" y="257.07" width="1.58" height="6.85"/><rect class="cls-8" x="991.32" y="257.07" width="1.57" height="6.85"/><rect class="cls-8" x="994.29" y="257.07" width="1.58" height="6.85"/><rect class="cls-8" x="997.27" y="257.07" width="1.58" height="6.85"/><rect class="cls-8" x="1000.25" y="257.07" width="1.57" height="6.85"/><rect class="cls-8" x="1003.23" y="257.07" width="1.58" height="6.85"/><rect class="cls-8" x="1006.21" y="257.07" width="1.58" height="6.85"/><rect class="cls-8" x="1009.19" y="257.07" width="1.58" height="6.85"/><rect class="cls-8" x="1012.17" y="257.07" width="1.58" height="6.85"/></g><rect class="cls-8" x="985.35" y="192.42" width="56.05" height="14.18"/><rect class="cls-106" x="983.18" y="192.42" width="56.05" height="14.18"/><polygon class="cls-7" points="1035.7 197.44 1035.7 201.52 1026.7 201.51 1023.86 203.01 1000.71 203.01 997.89 201.57 986.72 201.57 986.72 197.44 997.89 197.44 1000.71 196.02 1023.86 196.02 1026.7 197.44 1035.7 197.44"/><path class="cls-13" d="M986.43,194.58a1.08,1.08,0,1,0-1.08,1.08A1.08,1.08,0,0,0,986.43,194.58Z"/><path class="cls-13" d="M986.43,204.45a1.08,1.08,0,1,0-1.08,1.08A1.08,1.08,0,0,0,986.43,204.45Z"/><path class="cls-13" d="M1037.86,194.58a1.08,1.08,0,1,0-1.09,1.08A1.08,1.08,0,0,0,1037.86,194.58Z"/><path class="cls-13" d="M1037.86,204.45a1.08,1.08,0,1,0-1.09,1.08A1.08,1.08,0,0,0,1037.86,204.45Z"/><rect class="cls-8" x="985.35" y="212" width="56.05" height="14.19"/><rect class="cls-107" x="983.18" y="212" width="56.05" height="14.19"/><polygon class="cls-7" points="1035.7 217.02 1035.7 221.11 1026.7 221.09 1023.86 222.59 1000.71 222.59 997.89 221.15 986.72 221.15 986.72 217.02 997.89 217.02 1000.71 215.6 1023.86 215.6 1026.7 217.02 1035.7 217.02"/><path class="cls-13" d="M986.43,214.16a1.08,1.08,0,1,0-1.08,1.08A1.08,1.08,0,0,0,986.43,214.16Z"/><path class="cls-13" d="M986.43,224a1.08,1.08,0,1,0-1.08,1.07A1.07,1.07,0,0,0,986.43,224Z"/><path class="cls-13" d="M1037.86,214.16a1.08,1.08,0,1,0-1.09,1.08A1.08,1.08,0,0,0,1037.86,214.16Z"/><path class="cls-13" d="M1037.86,224a1.08,1.08,0,1,0-1.09,1.07A1.07,1.07,0,0,0,1037.86,224Z"/><rect class="cls-8" x="985.35" y="231.57" width="56.05" height="14.19"/><rect class="cls-108" x="983.18" y="231.57" width="56.05" height="14.19"/><polygon class="cls-7" points="1035.7 236.6 1035.7 240.68 1026.7 240.66 1023.86 242.17 1000.71 242.17 997.89 240.73 986.72 240.73 986.72 236.6 997.89 236.6 1000.71 235.17 1023.86 235.17 1026.7 236.6 1035.7 236.6"/><path class="cls-13" d="M986.43,233.74a1.08,1.08,0,1,0-1.08,1.08A1.08,1.08,0,0,0,986.43,233.74Z"/><path class="cls-13" d="M986.43,243.6a1.08,1.08,0,1,0-1.08,1.09A1.08,1.08,0,0,0,986.43,243.6Z"/><path class="cls-13" d="M1037.86,233.74a1.08,1.08,0,1,0-1.09,1.08A1.08,1.08,0,0,0,1037.86,233.74Z"/><path class="cls-13" d="M1037.86,243.6a1.08,1.08,0,1,0-1.09,1.09A1.08,1.08,0,0,0,1037.86,243.6Z"/><rect class="cls-109" x="1049.24" y="248.79" width="4.16" height="18.93"/><rect class="cls-109" x="1056.79" y="248.79" width="4.16" height="18.93"/><rect class="cls-109" x="1064.32" y="248.79" width="4.16" height="18.93"/><rect class="cls-109" x="1071.86" y="248.79" width="4.16" height="18.93"/><rect class="cls-109" x="1079.4" y="248.79" width="4.16" height="18.93"/><rect class="cls-109" x="1086.94" y="248.79" width="4.16" height="18.93"/><rect class="cls-109" x="1094.48" y="248.79" width="4.17" height="18.93"/><rect class="cls-109" x="1102.02" y="248.79" width="4.17" height="18.93"/><rect class="cls-109" x="1117.11" y="248.79" width="4.17" height="18.93"/><rect class="cls-109" x="1109.57" y="248.79" width="4.16" height="18.93"/><path class="cls-8" d="M468.85,278.14l.66.63h0l2.77,2.62,1.05,1c.2.18.6.07.89-.26l.32-.35.68-.75,1.35-1.52.36-.4.15-.17h0l3.88-4.35.33-.37,3-3.39.49-.55a.56.56,0,0,0,.08-.75l-.76-.71-2.76-2.63-.32-.3a.58.58,0,0,0-.74.12l-.78.78-1.41,1.4-1.9,1.91-3,2.92-1.19,1.19-.54.54-1.45,1.44-.71.71-.34.33C468.74,277.54,468.65,278,468.85,278.14Z"/><path class="cls-99" d="M441.44,304.26l1.92,1.82,2.77,2.63h0l2.36,2.24c.32.29,1.15-.09,1.85-.86l22.45-24.38,1.75-2c.52-.58.73-1.26.45-1.52h0l-.43-.42-1.39-1.31-.06-.06-2.71-2.57-.05,0-.94-.89-.43-.41,0,0c-.27-.26-.93,0-1.47.52l0,0-25.25,25.35C441.46,303.11,441.12,304,441.44,304.26Z"/><path class="cls-99" d="M471.42,273.57l.67.64.91.86,2.77,2.62.47.45.85.8.66.63a.67.67,0,0,0,.92-.18l3-3.12c.28-.31.35-.73.13-.93l-.79-.75h0l-1.2-1.13L477,270.83l-.77-.73h0l-.79-.76a.7.7,0,0,0-.93.18l-1.91,2-1.05,1.11A.68.68,0,0,0,471.42,273.57Z"/><polygon class="cls-110" points="443.36 306.08 446.13 308.71 446.13 308.71 473.09 280.41 470.38 277.84 470.33 277.79 443.36 306.08"/><path class="cls-111" d="M476.24,252.34c-.09-.28-.17-.57-.24-.86h0c-.12-.46-.22-.92-.3-1.39-.08-.31-.13-.64-.18-1a2.08,2.08,0,0,1,0-.23.2.2,0,0,1,0-.07h0a27.26,27.26,0,0,1-.26-5.36h0c0-.3,0-.61.07-.92s0-.6.09-.89a25.28,25.28,0,0,1,.68-3.61h0c.1-.4.22-.8.33-1.2s.28-.85.44-1.28c.26-.68.53-1.35.83-2l.15-.31.3-.62c.06-.11.11-.21.16-.32.45-.83.93-1.64,1.45-2.42l.16-.24.26-.37.22-.29a2.26,2.26,0,0,1,.23-.31,26.24,26.24,0,0,1,3.48-3.81A26.86,26.86,0,0,1,504.44,218a27.74,27.74,0,0,1,4.11.67h0a26.88,26.88,0,0,1,16,11.28l.12.17h0c.13.2.26.4.38.6s.4.67.6,1l.14.25c.18.33.35.66.51,1l.13.26c.21.45.42.91.61,1.37s.3.78.45,1.17c.19.56.37,1.12.54,1.69a26.88,26.88,0,0,1,1,7.1v.16c0,.26,0,.5,0,.74l0,.75c0,.1,0,.19,0,.28a2.09,2.09,0,0,0,0,.25c0,.13,0,.26,0,.39a1.43,1.43,0,0,1,0,.29,23,23,0,0,1-.36,2.51h0c-.1.53-.21,1.06-.35,1.58l0,.13a26.51,26.51,0,0,1-1.16,3.46l-.12.29h0v0s0,0,0,0c-.1.21-.18.42-.28.63a3.49,3.49,0,0,0-.15.34,1.19,1.19,0,0,0-.09.15c-.22.46-.45.92-.7,1.36s-.58,1-.9,1.49-.49.74-.75,1.1-.4.55-.61.82a2.31,2.31,0,0,0-.14.19s0,0,0,0c-.41.51-.85,1-1.29,1.5l-.26.27-.15.16c-.15.17-.31.33-.48.49a28.56,28.56,0,0,1-2.42,2.11c-.32.27-.67.52-1,.76a.39.39,0,0,1-.1.08h0a1.6,1.6,0,0,0-.23.16l-.2.13c-.59.4-1.2.76-1.82,1.12l-.06,0-.34.19c-.38.2-.77.4-1.16.58l-.33.16-.32.15c-.61.27-1.23.52-1.87.74-.19.08-.38.14-.57.2h0c-.18.06-.35.11-.52.18l-.59.16-.2.06-.33.09-.44.12-.33.07a23.21,23.21,0,0,1-2.38.43l-.08,0h0l-.73.09-.44,0h0l-.33,0-1,.06h-1.4l-.84,0-.94,0-.25,0h-.05c-.51-.05-1-.11-1.52-.18-.74-.1-1.47-.24-2.19-.4l-1.09-.28-.1,0c-.55-.14-1.08-.31-1.61-.49l-.22-.08h0l-.07,0-.31-.12h0l-.29-.12c-.55-.21-1.1-.44-1.64-.69l-.19-.09h0l-.35-.17c-.09-.05-.18-.08-.26-.13-.51-.26-1-.53-1.49-.82l-.5-.3-.23-.15c-.47-.3-.93-.61-1.37-.93l-.29-.21-.16-.11-.22-.18-.92-.74c-.11-.09-.22-.18-.32-.28h0l-.14-.12-.27-.25-.14-.11-.06-.07c-.39-.36-.77-.73-1.14-1.12l-.37-.39c-.06-.07-.13-.13-.18-.2-.36-.39-.69-.79-1-1.21h0l-.33-.42-.17-.22c-.31-.42-.62-.85-.91-1.29l-.2-.31-.1-.15v0a2.39,2.39,0,0,1-.13-.21c-.08-.13-.16-.25-.23-.38s-.21-.35-.31-.53l-.41-.73h0l-.3-.59-.24-.5c-.24-.51-.46-1-.66-1.54A21,21,0,0,1,476.24,252.34Zm.43,11a34.4,34.4,0,0,0,2.87,3.4l.65.65a31.21,31.21,0,0,0,2.9,2.49c.41.32.82.61,1.24.9l.74.49c.87.56,1.78,1.09,2.71,1.57s1.74.83,2.63,1.2a35.4,35.4,0,0,0,4.27,1.36l.49.11c.24.05.48.11.73.15.61.12,1.23.23,1.86.32h.05c.37,0,.73.1,1.11.13l.49.05.26,0c.51,0,1,.06,1.52.08h1c.54,0,1.08,0,1.61,0h.12l.69-.05.17,0,.37,0c.78-.07,1.56-.18,2.31-.3l.14,0,.7-.13.35-.08.34-.07h0c.78-.18,1.56-.39,2.32-.62l.32-.1.72-.24.34-.12c.31-.11.62-.22.93-.35l.43-.17.79-.34c.61-.27,1.21-.55,1.79-.87.39-.19.77-.4,1.14-.62a29.78,29.78,0,0,0,2.71-1.75l.2-.15h0l.82-.61a30.21,30.21,0,0,0,2.42-2.11l.67-.67.24-.23a30.89,30.89,0,0,0,2.12-2.46l.79-1.05c.65-.92,1.25-1.87,1.81-2.85.22-.41.44-.81.64-1.23a31.18,31.18,0,0,0,1.44-3.29c.17-.47.33-.94.48-1.42s.28-.9.39-1.36.22-.82.3-1.24a29.94,29.94,0,0,0,.65-4.17,31.54,31.54,0,0,0-.07-6.15c-.06-.53-.13-1.06-.22-1.58-.11-.71-.25-1.42-.41-2.11h0l0-.13a31.06,31.06,0,0,0-2.11-6.06,31.82,31.82,0,0,0-6.22-8.88,31.49,31.49,0,0,0-29.94-8.33,30.86,30.86,0,0,0-6.74,2.53A31.8,31.8,0,0,0,476.92,226a31,31,0,0,0-2.68,4.24c-.32.61-.63,1.22-.9,1.86-.1.22-.2.45-.28.68a31,31,0,0,0-2.07,7.41c-.09.65-.18,1.31-.23,2,0,.31-.05.61-.06.92s0,.55,0,.83,0,.7,0,1c0,.77,0,1.55.09,2.31.09,1.14.24,2.28.44,3.39.18.95.4,1.88.66,2.81A31.84,31.84,0,0,0,476.67,263.39Z"/><path class="cls-8" d="M476.65,255.37h0c.11.3.23.6.35.89l.18.43c.22.51.46,1,.71,1.5a27.81,27.81,0,0,0,20.77,15c.54.07,1.08.14,1.63.19l.28,0c.69.05,1.39.08,2.07.08a26.36,26.36,0,0,0,2.82-.14,26.64,26.64,0,0,0,3.22-.51c.89-.2,1.76-.44,2.63-.72.23-.08.46-.15.68-.24a27.25,27.25,0,0,0,6.81-3.55h0a27.87,27.87,0,0,0,9.9-12.88q.28-.72.51-1.47a26.81,26.81,0,0,0,.95-4.12h0c.09-.54.16-1.09.2-1.64,0-.07,0-.13,0-.18a2.83,2.83,0,0,0,0-.29c0-.31.05-.61.06-.91a27.72,27.72,0,0,0-1.34-9.84h0c0-.1-.07-.22-.11-.33h0c-.08-.24-.17-.47-.25-.7-.2-.52-.4-1-.63-1.55-.07-.15-.13-.31-.21-.47a.79.79,0,0,1,0-.09c-.11-.23-.22-.46-.34-.69-.25-.52-.53-1-.82-1.52a27.83,27.83,0,0,0-16.45-12.8h0a27.95,27.95,0,0,0-19.93,1.85,28,28,0,0,0-10.46,9l-.16.24a24.83,24.83,0,0,0-1.51,2.48l-.22.4q-.67,1.32-1.23,2.73a28.27,28.27,0,0,0-1.78,7.7,27.86,27.86,0,0,0,1.1,10.51C476.25,254.27,476.44,254.82,476.65,255.37Zm27.05-36.49h0c.22,0,.44,0,.66.05A25.91,25.91,0,0,1,522.75,229c.41.52.79,1.06,1.15,1.61l0,.05c.28.42.53.85.79,1.28l.14.26c.23.4.45.81.65,1.24a25.63,25.63,0,0,1,2.57,9.48c0,.55.06,1.09.07,1.64V245c0,.26,0,.51,0,.77,0,.43,0,.86-.08,1.3a27.13,27.13,0,0,1-.59,3.75c-.21.86-.45,1.71-.74,2.54a23.74,23.74,0,0,1-1,2.43c-.3.66-.63,1.3-1,1.92-.23.41-.48.8-.72,1.19a26.36,26.36,0,0,1-2.95,3.77c-.63.67-1.3,1.3-2,1.91s-1.15.94-1.75,1.37l-.45.32h0c-.68.47-1.37.9-2.09,1.3s-1.37.72-2.08,1-1.36.57-2.05.81l-.73.24c-.55.18-1.09.33-1.65.46a24.59,24.59,0,0,1-3,.55,25.3,25.3,0,0,1-4.7.14l-.69,0a25.86,25.86,0,0,1-14.58-6.06c-.42-.36-.83-.73-1.24-1.12a26.33,26.33,0,0,1-6.16-9.19c-.2-.53-.4-1-.57-1.59-.07-.22-.14-.44-.2-.66h0c0-.16-.09-.3-.13-.46h0c-.14-.52-.27-1.05-.38-1.58a26,26,0,0,1-.43-7.51,25.38,25.38,0,0,1,1.35-6.33,25.74,25.74,0,0,1,2.61-5.41c.31-.5.65-1,1-1.44.08-.12.16-.24.25-.35h0A26,26,0,0,1,503.7,218.88Z"/><path id="_9" data-name="9" class="cls-110" d="M525.12,254.43a24.13,24.13,0,0,0,1.17-15.88c-1.57-5.59-4.1-10.74-8.95-14.1a24.25,24.25,0,0,0-7.24-3.4,23.6,23.6,0,0,0-3.82-.72c-1-.1-2.82.27-3.66-.08,4.37,1.85,8.58,4.38,11.53,8.12a19.9,19.9,0,0,1,3.41,16.95,18.87,18.87,0,0,1-3.95,7.83c-2.14,2.47-5.32,3.48-7.45,5.84a9.16,9.16,0,0,0-2.67,5.48c-.35,6.26,7.16,4.49,10.56,2.56A26.21,26.21,0,0,0,525.12,254.43Z"/><path class="cls-38" d="M897.82,92.33h43.12A21.66,21.66,0,0,1,962.6,114v21.66a0,0,0,0,1,0,0H897.82A21.66,21.66,0,0,1,876.16,114v0A21.66,21.66,0,0,1,897.82,92.33Z"/><path class="cls-39" d="M895.35,106.13h6.75a1.37,1.37,0,0,1,1.35,1.11l1.67,8.51,4-9.62h3.62l-5.89,14.6h-3.92l-2.72-11a4.29,4.29,0,0,0-3.66-3.22l-1.16-.13Z"/><polygon class="cls-39" points="914.51 106.13 911.42 120.73 915.08 120.73 918.06 106.13 914.51 106.13"/><path class="cls-39" d="M928.13,109.26l.85-2.68a15.1,15.1,0,0,0-3.78-.45c-2.2,0-5.86.7-5.86,4.3s5.37,4.15,5.2,5.73-3.58,2.12-6.31.72l-.72,3a12.2,12.2,0,0,0,4.71.89c2.8,0,5.76-1.87,6-4.19a4,4,0,0,0-2.15-4.13c-1-.6-3.49-1.62-3.07-2.68S925.56,108.34,928.13,109.26Z"/><path class="cls-39" d="M938.58,106.13h-4.15l-6.36,14.6H932l.91-2.61h4.53l.78,2.61h3.59Zm-5,9.45,2.29-5.4,1.06,5.4Z"/><path class="cls-38" d="M1140.18,69.56H1205a0,0,0,0,1,0,0V91.22a21.66,21.66,0,0,1-21.66,21.66h-43.12a21.66,21.66,0,0,1-21.66-21.66v0a21.66,21.66,0,0,1,21.66-21.66Z" transform="translate(2323.47 182.44) rotate(-180)"/><path class="cls-8" d="M1150.51,104.8V103a1.08,1.08,0,0,0-1-1.15.57.57,0,0,0-.13,0,1.12,1.12,0,0,0-1,.51,1.06,1.06,0,0,0-1-.51.94.94,0,0,0-.85.43v-.36h-.63v2.9h.64v-1.6a.68.68,0,0,1,.58-.76h.13c.41,0,.63.28.63.77v1.61h.63V103.2a.68.68,0,0,1,.59-.76h.12c.43,0,.64.28.64.77v1.61Zm9.41-2.9h-1V101h-.64v.88h-.58v.58h.59v1.33c0,.67.26,1.07,1,1.07a1.47,1.47,0,0,0,.79-.22l-.19-.54a1.1,1.1,0,0,1-.55.16c-.31,0-.42-.19-.42-.48v-1.32h1Zm5.38-.07a.87.87,0,0,0-.77.42v-.35h-.62v2.9h.63v-1.63c0-.48.21-.74.61-.74a1,1,0,0,1,.39.07l.19-.61a1.31,1.31,0,0,0-.44-.07Zm-8.13.3a2.14,2.14,0,0,0-1.18-.3c-.74,0-1.21.35-1.21.92s.35.77,1,.86l.3,0c.34,0,.51.14.51.31s-.23.35-.66.35a1.54,1.54,0,0,1-1-.31l-.3.49a2.1,2.1,0,0,0,1.26.38c.83,0,1.32-.39,1.32-1s-.39-.77-1-.86l-.3,0c-.27,0-.49-.1-.49-.29s.21-.34.55-.34a1.83,1.83,0,0,1,.91.25Zm16.88-.3a.85.85,0,0,0-.76.42v-.35h-.62v2.9h.63v-1.63c0-.48.2-.74.6-.74a1.09,1.09,0,0,1,.4.07l.19-.61a1.33,1.33,0,0,0-.45-.07Zm-8.12,1.51a1.46,1.46,0,0,0,1.41,1.52h.14a1.51,1.51,0,0,0,1-.35l-.3-.51a1.25,1.25,0,0,1-.76.26.93.93,0,0,1,0-1.85,1.25,1.25,0,0,1,.76.26l.3-.51a1.5,1.5,0,0,0-1-.34,1.46,1.46,0,0,0-1.55,1.37v.14Zm5.91,0V101.9h-.63v.35a1.09,1.09,0,0,0-.91-.42,1.52,1.52,0,1,0,0,3,1.12,1.12,0,0,0,.91-.43v.36h.63Zm-2.35,0a.88.88,0,1,1,.88.93.86.86,0,0,1-.88-.86Zm-7.61-1.51a1.52,1.52,0,0,0,0,3h0a1.76,1.76,0,0,0,1.2-.4l-.3-.46a1.38,1.38,0,0,1-.85.3.8.8,0,0,1-.86-.71h2.15v-.24a1.39,1.39,0,0,0-1.38-1.52Zm0,.56a.72.72,0,0,1,.74.7h-1.52a.75.75,0,0,1,.77-.7Zm15.8,1v-2.61h-.61v1.51a1.09,1.09,0,0,0-.91-.42,1.52,1.52,0,0,0,0,3,1.12,1.12,0,0,0,.91-.43v.36h.61Zm1,1a.2.2,0,0,1,.11,0,.21.21,0,0,1,.1.06.28.28,0,0,1,.06.09.28.28,0,0,1,0,.22.2.2,0,0,1-.06.09.21.21,0,0,1-.1.06.2.2,0,0,1-.11,0,.28.28,0,0,1-.27-.18.22.22,0,0,1,0-.22.18.18,0,0,1,.06-.09.24.24,0,0,1,.09-.06.19.19,0,0,1,.13,0Zm0,.51.09,0,.07-.05a.24.24,0,0,0,0-.3l-.07,0-.09,0-.09,0a.18.18,0,0,0-.07,0,.22.22,0,0,0,0,.3.18.18,0,0,0,.07.05l.1,0Zm0-.36.07,0a.09.09,0,0,1,0,.07s0,0,0,0a.09.09,0,0,1-.06,0l.09.1h-.07l-.09-.1h0v.1h-.06v-.27Zm-.07,0v.07h.1a0,0,0,0,0,0,0s0,0,0,0h0Zm-3.33-1.23a.87.87,0,0,1,1.74.1.88.88,0,0,1-1.75,0A.15.15,0,0,1,1175.35,103.35Zm-21.29,0V101.9h-.63v.35a1.09,1.09,0,0,0-.91-.42,1.52,1.52,0,0,0,0,3,1.12,1.12,0,0,0,.91-.43v.36h.63Zm-2.35,0a.88.88,0,0,1,.93-.82.87.87,0,0,1,.82.92.88.88,0,0,1-1.75,0v-.07Z"/><g id="_Group_2" data-name=" Group "><rect class="cls-40" x="1156.96" y="79.82" width="9.55" height="17.16"/><path id="_Path_2" data-name=" Path " class="cls-41" d="M1157.57,88.4a10.88,10.88,0,0,1,4.16-8.58,10.91,10.91,0,1,0,0,17.16A10.88,10.88,0,0,1,1157.57,88.4Z"/><path class="cls-42" d="M1179.39,88.4A10.92,10.92,0,0,1,1161.73,97a10.91,10.91,0,0,0,1.84-15.32,10.68,10.68,0,0,0-1.84-1.84,10.91,10.91,0,0,1,17.66,8.58Z"/><path class="cls-42" d="M1178.35,95.16v-.35h.14v-.07h-.36v.07h.15v.35Zm.7,0v-.42h-.11l-.13.3-.13-.3h-.09v.42h.07v-.32l.12.28h.08l.12-.28v.32Z"/></g></g></g></svg>