<svg xmlns="http://www.w3.org/2000/svg" xmlns:xlink="http://www.w3.org/1999/xlink" width="271" height="350" viewBox="0 0 271 350"><defs><style>.a{fill:#fff;stroke:#707070;}.b{clip-path:url(#a);}.c{fill:#bdc1c6;}.d{fill:#dadce0;}.e{fill:#e8eaed;}.f{fill:#2f2b27;}.g{fill:#2950af;}.h{fill:#5786ed;}.i{fill:#08243b;}.j{fill:#abc5ff;}.k{fill:#ff5833;}.l{fill:#d4492a;}.m{fill:#f1f3f4;}</style><clipPath id="a"><rect class="a" width="271" height="350" transform="translate(140 1476)"/></clipPath></defs><g class="b" transform="translate(-140 -1476)"><g transform="translate(-536.069 893.682)"><path class="c" d="M3340.1,1680.625l0-274.815-291.275-.178,0,273.627c-.369,4.551,2.787,9.442,9.327,13.221l115.775,66.844c11.337,6.546,28.489,7.255,38.309,1.59l121.278-70.02C3338.275,1688.166,3340.408,1684.463,3340.1,1680.625Z" transform="translate(-2345.716 -578.422)"/><path class="d" d="M3923.537,1680.625l.006-272.272a2.705,2.705,0,0,0-2.7-2.707l-22.361-.014L3777.9,1458.914v305.764c6.647.162,13.063-1.052,17.778-3.775l121.279-70.02c4.169-2.4,6.328-5.58,6.582-8.932v-1.216c0-.034-.012-.07-.014-.105Z" transform="translate(-2929.135 -578.422)"/><path class="e" d="M3333.393,1079l-121.275,70.02c-9.821,5.668-26.971,4.959-38.31-1.588l-115.766-66.843c-11.336-6.546-12.569-16.449-2.753-22.119l121.279-70.018c9.82-5.67,26.97-4.958,38.309,1.59l115.775,66.841C3342,1063.432,3343.241,1073.334,3333.393,1079Z" transform="translate(-2345.592 -241.528)"/><g transform="translate(751.696 730.555)"><path class="c" d="M3972.1,1624.6a.585.585,0,0,0,0,1.108,2.117,2.117,0,0,0,1.917,0,.584.584,0,0,0,0-1.108,2.108,2.108,0,0,0-1.917,0Z" transform="translate(-3835.93 -1484.016)"/><path class="c" d="M3946.971,1610.091a.585.585,0,0,0,0,1.11,2.118,2.118,0,0,0,1.918,0,.585.585,0,0,0,0-1.11,2.124,2.124,0,0,0-1.918,0Z" transform="translate(-3815.819 -1472.406)"/><path class="c" d="M3921.841,1595.582a.585.585,0,0,0,0,1.108,2.115,2.115,0,0,0,1.92,0,.584.584,0,0,0,0-1.107,2.125,2.125,0,0,0-1.92,0Z" transform="translate(-3795.711 -1460.795)"/><path class="c" d="M3898.616,1581.064a2.118,2.118,0,0,0-1.92,0,.585.585,0,0,0,0,1.109,2.127,2.127,0,0,0,1.92,0A.585.585,0,0,0,3898.616,1581.064Z" transform="translate(-3775.576 -1449.178)"/><path class="c" d="M3873.488,1566.558a2.127,2.127,0,0,0-1.92,0,.586.586,0,0,0,0,1.11,2.124,2.124,0,0,0,1.92,0A.586.586,0,0,0,3873.488,1566.558Z" transform="translate(-3755.471 -1437.571)"/><path class="c" d="M3848.359,1552.047a2.12,2.12,0,0,0-1.919,0,.585.585,0,0,0,0,1.109,2.122,2.122,0,0,0,1.919,0A.586.586,0,0,0,3848.359,1552.047Z" transform="translate(-3735.363 -1425.958)"/><path class="c" d="M3823.229,1537.535a2.118,2.118,0,0,0-1.92,0,.585.585,0,0,0,0,1.109,2.133,2.133,0,0,0,1.921,0A.585.585,0,0,0,3823.229,1537.535Z" transform="translate(-3715.247 -1414.345)"/><path class="c" d="M3796.166,1523.941a.586.586,0,0,0,0,1.109,2.122,2.122,0,0,0,1.92,0Z" transform="translate(-3695.142 -1403.651)"/><path class="f" d="M3771.036,1509.435a.586.586,0,0,0,0,1.109,2.125,2.125,0,0,0,1.921,0Z" transform="translate(-3675.032 -1392.042)"/><path class="f" d="M3745.908,1494.923a.586.586,0,0,0,0,1.109,2.133,2.133,0,0,0,1.921,0Z" transform="translate(-3654.899 -1380.43)"/><path class="c" d="M3722.683,1479.491a2.13,2.13,0,0,0-1.921,0,.585.585,0,0,0,0,1.109,2.116,2.116,0,0,0,1.921,0A.586.586,0,0,0,3722.683,1479.491Z" transform="translate(-3634.788 -1367.899)"/><path class="c" d="M3997.229,1610.091a.586.586,0,0,0,0,1.11,2.126,2.126,0,0,0,1.922,0,.586.586,0,0,0,0-1.11A2.133,2.133,0,0,0,3997.229,1610.091Z" transform="translate(-3856.041 -1472.407)"/><path class="c" d="M3972.1,1595.582a.584.584,0,0,0,0,1.108,2.11,2.11,0,0,0,1.918,0,.584.584,0,0,0,0-1.108,2.121,2.121,0,0,0-1.918,0Z" transform="translate(-3835.93 -1460.795)"/><path class="c" d="M3946.971,1581.064a.585.585,0,0,0,0,1.109,2.126,2.126,0,0,0,1.919,0,.585.585,0,0,0,0-1.109A2.115,2.115,0,0,0,3946.971,1581.064Z" transform="translate(-3815.819 -1449.178)"/><path class="c" d="M4072.646,1624.6a.585.585,0,0,0,0,1.108,2.126,2.126,0,0,0,1.921,0,.584.584,0,0,0,0-1.108A2.117,2.117,0,0,0,4072.646,1624.6Z" transform="translate(-3916.384 -1484.016)"/><path class="c" d="M4047.487,1610.091a.587.587,0,0,0,0,1.11,2.125,2.125,0,0,0,1.92,0,.585.585,0,0,0,0-1.11,2.128,2.128,0,0,0-1.92,0Z" transform="translate(-3896.256 -1472.407)"/><path class="c" d="M4022.358,1595.582a.584.584,0,0,0,0,1.108,2.113,2.113,0,0,0,1.919,0,.585.585,0,0,0,0-1.108,2.124,2.124,0,0,0-1.92,0Z" transform="translate(-3876.147 -1460.795)"/><path class="c" d="M3997.229,1581.064a.586.586,0,0,0,0,1.109,2.133,2.133,0,0,0,1.922,0,.586.586,0,0,0,0-1.109,2.123,2.123,0,0,0-1.922,0Z" transform="translate(-3856.041 -1449.178)"/><path class="c" d="M3973.7,1568.585a2.124,2.124,0,0,0,1.921,0,.586.586,0,0,0,0-1.109Z" transform="translate(-3837.517 -1438.488)"/><path class="c" d="M4122.9,1624.6a.585.585,0,0,0,0,1.108,2.125,2.125,0,0,0,1.921,0,.584.584,0,0,0,0-1.108,2.115,2.115,0,0,0-1.921,0Z" transform="translate(-3956.603 -1484.016)"/><path class="c" d="M4097.775,1610.091a.586.586,0,0,0,0,1.11,2.119,2.119,0,0,0,1.919,0,.586.586,0,0,0,0-1.11,2.125,2.125,0,0,0-1.918,0Z" transform="translate(-3936.492 -1472.406)"/><path class="c" d="M4072.646,1595.582a.585.585,0,0,0,0,1.108,2.117,2.117,0,0,0,1.921,0,.584.584,0,0,0,0-1.108,2.126,2.126,0,0,0-1.921,0Z" transform="translate(-3916.384 -1460.795)"/><path class="c" d="M4047.487,1581.064a.586.586,0,0,0,0,1.109,2.129,2.129,0,0,0,1.92,0,.585.585,0,0,0,0-1.109A2.118,2.118,0,0,0,4047.487,1581.064Z" transform="translate(-3896.256 -1449.178)"/><path class="c" d="M4022.358,1566.558a.586.586,0,0,0,0,1.11,2.123,2.123,0,0,0,1.92,0,.586.586,0,0,0,0-1.11A2.127,2.127,0,0,0,4022.358,1566.558Z" transform="translate(-3876.147 -1437.571)"/><path class="f" d="M3998.833,1553.156a2.126,2.126,0,0,0,1.922,0,.586.586,0,0,0,0-1.109,2.127,2.127,0,0,0-1.922,0Z" transform="translate(-3857.626 -1425.958)"/><path class="c" d="M4148.033,1610.091a.586.586,0,0,0,0,1.11,2.118,2.118,0,0,0,1.918,0,.586.586,0,0,0,0-1.11,2.127,2.127,0,0,0-1.919,0Z" transform="translate(-3976.712 -1472.406)"/><path class="c" d="M4122.9,1595.582a.585.585,0,0,0,0,1.108,2.115,2.115,0,0,0,1.92,0,.584.584,0,0,0,0-1.108,2.125,2.125,0,0,0-1.92,0Z" transform="translate(-3956.603 -1460.795)"/><path class="c" d="M4097.775,1581.064a.586.586,0,0,0,0,1.109,2.127,2.127,0,0,0,1.919,0,.586.586,0,0,0,0-1.109A2.116,2.116,0,0,0,4097.775,1581.064Z" transform="translate(-3936.492 -1449.178)"/><path class="c" d="M4074.58,1566.558a2.131,2.131,0,0,0-1.922,0,.586.586,0,0,0,0,1.11,2.124,2.124,0,0,0,1.921,0A.586.586,0,0,0,4074.58,1566.558Z" transform="translate(-3916.38 -1437.571)"/><path class="f" d="M4049.421,1552.047a2.122,2.122,0,0,0-1.92,0,.586.586,0,0,0,0,1.109,2.126,2.126,0,0,0,1.92,0A.585.585,0,0,0,4049.421,1552.047Z" transform="translate(-3896.252 -1425.957)"/><path class="f" d="M4022.358,1538.455a.586.586,0,0,0,0,1.109,2.127,2.127,0,0,0,1.919,0,.586.586,0,0,0,0-1.109Z" transform="translate(-3876.147 -1415.265)"/><path class="c" d="M4173.4,1595.43a.585.585,0,0,0,0,1.108,2.126,2.126,0,0,0,1.921,0,.584.584,0,0,0,0-1.108,2.118,2.118,0,0,0-1.922,0Z" transform="translate(-3997.012 -1460.674)"/><path class="c" d="M4148.271,1580.915a.585.585,0,0,0,0,1.108,2.119,2.119,0,0,0,1.92,0,.585.585,0,0,0,0-1.108,2.119,2.119,0,0,0-1.92,0Z" transform="translate(-3976.901 -1449.06)"/><path class="c" d="M4124.717,1568.433a2.122,2.122,0,0,0,1.919,0,.585.585,0,0,0,0-1.108Z" transform="translate(-3958.36 -1438.366)"/><path class="c" d="M4198.529,1580.915a.586.586,0,0,0,0,1.109,2.133,2.133,0,0,0,1.922,0,.586.586,0,0,0,0-1.109,2.121,2.121,0,0,0-1.921,0Z" transform="translate(-4017.122 -1449.06)"/><path class="c" d="M4173.4,1566.4a.586.586,0,0,0,0,1.109,2.132,2.132,0,0,0,1.922,0,.585.585,0,0,0,0-1.109A2.126,2.126,0,0,0,4173.4,1566.4Z" transform="translate(-3997.012 -1437.447)"/><path class="f" d="M4149.876,1553.918a2.115,2.115,0,0,0,1.918,0,.586.586,0,0,0,0-1.109Z" transform="translate(-3978.493 -1426.751)"/><path class="c" d="M4223.659,1566.4a.585.585,0,0,0,0,1.109,2.132,2.132,0,0,0,1.922,0,.586.586,0,0,0,0-1.109,2.127,2.127,0,0,0-1.922,0Z" transform="translate(-4037.228 -1437.447)"/><path class="c" d="M4198.529,1551.892a.586.586,0,0,0,0,1.109,2.117,2.117,0,0,0,1.921,0,.586.586,0,0,0,0-1.109A2.136,2.136,0,0,0,4198.529,1551.892Z" transform="translate(-4017.122 -1425.836)"/><path class="c" d="M4175.005,1539.415a2.127,2.127,0,0,0,1.921,0,.584.584,0,0,0,0-1.108Z" transform="translate(-3998.601 -1415.146)"/><path class="c" d="M4223.659,1537.383a.585.585,0,0,0,0,1.108,2.132,2.132,0,0,0,1.922,0,.585.585,0,0,0,0-1.108,2.119,2.119,0,0,0-1.923,0Z" transform="translate(-4037.228 -1414.224)"/><path class="c" d="M3870.571,1651.3a.584.584,0,0,0,0,1.108,2.122,2.122,0,0,0,1.921,0,.585.585,0,0,0,0-1.108,2.122,2.122,0,0,0-1.921,0Z" transform="translate(-3754.681 -1505.383)"/><path class="c" d="M3845.442,1636.789a.586.586,0,0,0,0,1.109,2.13,2.13,0,0,0,1.92,0,.585.585,0,0,0,0-1.109A2.119,2.119,0,0,0,3845.442,1636.789Z" transform="translate(-3734.574 -1493.77)"/><path class="c" d="M3820.312,1622.28a.585.585,0,0,0,0,1.108,2.12,2.12,0,0,0,1.92,0,.584.584,0,0,0,0-1.108A2.129,2.129,0,0,0,3820.312,1622.28Z" transform="translate(-3714.465 -1482.161)"/><path class="c" d="M3795.183,1607.769a.585.585,0,0,0,0,1.108,2.121,2.121,0,0,0,1.921,0,.585.585,0,0,0,0-1.107,2.12,2.12,0,0,0-1.92,0Z" transform="translate(-3694.358 -1470.547)"/><path class="c" d="M3770.054,1594.363a2.131,2.131,0,0,0,1.922,0,.585.585,0,0,0,0-1.108,2.117,2.117,0,0,0-1.921,0A.585.585,0,0,0,3770.054,1594.363Z" transform="translate(-3674.252 -1458.932)"/><path class="c" d="M3744.925,1578.745a.586.586,0,0,0,0,1.11,2.116,2.116,0,0,0,1.919,0,.586.586,0,0,0,0-1.11A2.129,2.129,0,0,0,3744.925,1578.745Z" transform="translate(-3654.141 -1447.324)"/><path class="c" d="M3719.767,1564.236a.583.583,0,0,0,0,1.106,2.111,2.111,0,0,0,1.919,0,.583.583,0,0,0,0-1.107A2.111,2.111,0,0,0,3719.767,1564.236Z" transform="translate(-3634.007 -1435.712)"/><path class="c" d="M3694.637,1549.721a.587.587,0,0,0,0,1.111,2.133,2.133,0,0,0,1.92,0,.586.586,0,0,0,0-1.111A2.124,2.124,0,0,0,3694.637,1549.721Z" transform="translate(-3613.897 -1424.097)"/><path class="c" d="M3669.508,1535.213a.586.586,0,0,0,0,1.109,2.124,2.124,0,0,0,1.92,0,.585.585,0,0,0,0-1.109,2.128,2.128,0,0,0-1.921,0Z" transform="translate(-3593.79 -1412.489)"/><path class="c" d="M3644.409,1520.7a.585.585,0,0,0,0,1.108,2.121,2.121,0,0,0,1.921,0,.584.584,0,0,0,0-1.108A2.122,2.122,0,0,0,3644.409,1520.7Z" transform="translate(-3573.678 -1400.875)"/><path class="c" d="M3920.859,1651.3a.585.585,0,0,0,0,1.108,2.123,2.123,0,0,0,1.92,0,.586.586,0,0,0,0-1.109,2.118,2.118,0,0,0-1.92,0Z" transform="translate(-3794.924 -1505.384)"/><path class="c" d="M3895.729,1636.789a.586.586,0,0,0,0,1.109,2.132,2.132,0,0,0,1.922,0,.586.586,0,0,0,0-1.109,2.122,2.122,0,0,0-1.921,0Z" transform="translate(-3774.813 -1493.77)"/><path class="c" d="M3870.571,1622.28a.585.585,0,0,0,0,1.108,2.123,2.123,0,0,0,1.921,0,.585.585,0,0,0,0-1.108,2.133,2.133,0,0,0-1.921,0Z" transform="translate(-3754.681 -1482.161)"/><path class="c" d="M3845.442,1607.769a.584.584,0,0,0,0,1.108,2.119,2.119,0,0,0,1.92,0,.585.585,0,0,0,0-1.108A2.119,2.119,0,0,0,3845.442,1607.769Z" transform="translate(-3734.574 -1470.547)"/><path class="c" d="M3820.342,1593.254a.586.586,0,0,0,0,1.108,2.135,2.135,0,0,0,1.922,0,.585.585,0,0,0,0-1.108,2.117,2.117,0,0,0-1.922,0Z" transform="translate(-3714.463 -1458.932)"/><path class="c" d="M3795.183,1578.745a.586.586,0,0,0,0,1.11,2.12,2.12,0,0,0,1.921,0,.587.587,0,0,0,0-1.11A2.134,2.134,0,0,0,3795.183,1578.745Z" transform="translate(-3694.358 -1447.324)"/><path class="c" d="M3770.054,1564.236a.584.584,0,0,0,0,1.106,2.118,2.118,0,0,0,1.921,0,.584.584,0,0,0,0-1.106A2.116,2.116,0,0,0,3770.054,1564.236Z" transform="translate(-3674.252 -1435.712)"/><path class="c" d="M3744.925,1549.721a.587.587,0,0,0,0,1.111,2.129,2.129,0,0,0,1.918,0,.586.586,0,0,0,0-1.111A2.121,2.121,0,0,0,3744.925,1549.721Z" transform="translate(-3654.141 -1424.097)"/><path class="c" d="M3719.767,1535.213a.585.585,0,0,0,0,1.109,2.119,2.119,0,0,0,1.918,0,.585.585,0,0,0,0-1.109A2.126,2.126,0,0,0,3719.767,1535.213Z" transform="translate(-3634.007 -1412.489)"/><path class="c" d="M3694.637,1520.7a.584.584,0,0,0,0,1.108,2.119,2.119,0,0,0,1.92,0,.584.584,0,0,0,0-1.108,2.119,2.119,0,0,0-1.92,0Z" transform="translate(-3613.897 -1400.875)"/><path class="c" d="M3669.508,1506.189a.585.585,0,0,0,0,1.109,2.128,2.128,0,0,0,1.92,0,.586.586,0,0,0,0-1.109A2.119,2.119,0,0,0,3669.508,1506.189Z" transform="translate(-3593.79 -1389.263)"/><path class="c" d="M3945.988,1636.789a.585.585,0,0,0,0,1.109,2.128,2.128,0,0,0,1.921,0,.586.586,0,0,0,0-1.109A2.121,2.121,0,0,0,3945.988,1636.789Z" transform="translate(-3815.031 -1493.77)"/><path class="c" d="M3920.859,1622.28a.585.585,0,0,0,0,1.108,2.121,2.121,0,0,0,1.921,0,.586.586,0,0,0,0-1.108A2.129,2.129,0,0,0,3920.859,1622.28Z" transform="translate(-3794.924 -1482.161)"/><path class="c" d="M3895.729,1607.769a.584.584,0,0,0,0,1.108,2.122,2.122,0,0,0,1.922,0,.584.584,0,0,0,0-1.107,2.122,2.122,0,0,0-1.921,0Z" transform="translate(-3774.813 -1470.547)"/><path class="c" d="M3870.571,1593.254a.585.585,0,0,0,0,1.108,2.132,2.132,0,0,0,1.921,0,.585.585,0,0,0,0-1.108,2.117,2.117,0,0,0-1.921,0Z" transform="translate(-3754.681 -1458.932)"/><path class="c" d="M3845.442,1578.745a.586.586,0,0,0,0,1.11,2.119,2.119,0,0,0,1.92,0,.587.587,0,0,0,0-1.11A2.133,2.133,0,0,0,3845.442,1578.745Z" transform="translate(-3734.574 -1447.324)"/><path class="c" d="M3820.342,1564.236a.585.585,0,0,0,0,1.106,2.12,2.12,0,0,0,1.922,0,.583.583,0,0,0,0-1.106,2.117,2.117,0,0,0-1.922,0Z" transform="translate(-3714.463 -1435.712)"/><path class="c" d="M3795.183,1549.721a.587.587,0,0,0,0,1.111,2.133,2.133,0,0,0,1.921,0,.588.588,0,0,0,0-1.111,2.125,2.125,0,0,0-1.92,0Z" transform="translate(-3694.358 -1424.097)"/><path class="c" d="M3770.054,1535.213a.585.585,0,0,0,0,1.109,2.123,2.123,0,0,0,1.92,0,.585.585,0,0,0,0-1.109A2.126,2.126,0,0,0,3770.054,1535.213Z" transform="translate(-3674.246 -1412.489)"/><path class="c" d="M3744.925,1520.7a.584.584,0,0,0,0,1.108,2.115,2.115,0,0,0,1.919,0,.584.584,0,0,0,0-1.108A2.114,2.114,0,0,0,3744.925,1520.7Z" transform="translate(-3654.141 -1400.875)"/><path class="c" d="M3719.767,1506.189a.585.585,0,0,0,0,1.109,2.122,2.122,0,0,0,1.919,0,.585.585,0,0,0,0-1.109A2.116,2.116,0,0,0,3719.767,1506.189Z" transform="translate(-3634.007 -1389.263)"/><path class="c" d="M3694.637,1491.677a.586.586,0,0,0,0,1.109,2.12,2.12,0,0,0,1.92,0,.585.585,0,0,0,0-1.11A2.127,2.127,0,0,0,3694.637,1491.677Z" transform="translate(-3613.897 -1377.651)"/><path class="c" d="M3697.583,1464.9a2.117,2.117,0,0,0-1.919,0,.585.585,0,0,0,0,1.108,2.116,2.116,0,0,0,1.919,0A.585.585,0,0,0,3697.583,1464.9Z" transform="translate(-3614.712 -1356.221)"/><path class="c" d="M3672.455,1450.384a2.121,2.121,0,0,0-1.921,0,.586.586,0,0,0,0,1.11,2.133,2.133,0,0,0,1.921,0A.586.586,0,0,0,3672.455,1450.384Z" transform="translate(-3594.596 -1344.605)"/><path class="c" d="M3647.3,1435.875a2.129,2.129,0,0,0-1.922,0,.585.585,0,0,0,0,1.109,2.123,2.123,0,0,0,1.922,0A.585.585,0,0,0,3647.3,1435.875Z" transform="translate(-3574.465 -1332.996)"/><path class="c" d="M3622.167,1421.364a2.121,2.121,0,0,0-1.92,0,.585.585,0,0,0,0,1.108,2.115,2.115,0,0,0,1.921,0A.585.585,0,0,0,3622.167,1421.364Z" transform="translate(-3554.364 -1321.382)"/><path class="c" d="M3597.038,1406.852a2.123,2.123,0,0,0-1.92,0,.586.586,0,0,0,0,1.109,2.13,2.13,0,0,0,1.92,0A.585.585,0,0,0,3597.038,1406.852Z" transform="translate(-3534.247 -1309.771)"/><path class="c" d="M3569.974,1392.34a.586.586,0,0,0,0,1.109,2.119,2.119,0,0,0,1.919,0,.586.586,0,0,0,0-1.109A2.127,2.127,0,0,0,3569.974,1392.34Z" transform="translate(-3514.14 -1298.16)"/><path class="c" d="M3544.845,1377.831a.585.585,0,0,0,0,1.108,2.124,2.124,0,0,0,1.921,0,.585.585,0,0,0,0-1.108A2.121,2.121,0,0,0,3544.845,1377.831Z" transform="translate(-3494.03 -1286.549)"/><path class="c" d="M3519.716,1363.317a.585.585,0,0,0,0,1.108,2.124,2.124,0,0,0,1.922,0,.584.584,0,0,0,0-1.108,2.118,2.118,0,0,0-1.921,0Z" transform="translate(-3473.896 -1274.933)"/><path class="c" d="M3494.587,1348.8a.585.585,0,0,0,0,1.109,2.114,2.114,0,0,0,1.919,0,.586.586,0,0,0,0-1.109,2.118,2.118,0,0,0-1.919,0Z" transform="translate(-3453.813 -1263.321)"/><path class="c" d="M3469.427,1334.3a.585.585,0,0,0,0,1.108,2.123,2.123,0,0,0,1.922,0,.584.584,0,0,0,0-1.108,2.121,2.121,0,0,0-1.921,0Z" transform="translate(-3433.686 -1251.711)"/><path class="c" d="M3446.233,1319.784a2.115,2.115,0,0,0-1.919,0,.584.584,0,0,0,0,1.108,2.112,2.112,0,0,0,1.919,0A.584.584,0,0,0,3446.233,1319.784Z" transform="translate(-3413.574 -1240.099)"/><path class="c" d="M3421.1,1305.27a2.123,2.123,0,0,0-1.922,0,.586.586,0,0,0,0,1.109,2.133,2.133,0,0,0,1.923,0A.585.585,0,0,0,3421.1,1305.27Z" transform="translate(-3393.46 -1228.484)"/><path class="c" d="M3395.975,1290.763a2.132,2.132,0,0,0-1.92,0,.585.585,0,0,0,0,1.109,2.118,2.118,0,0,0,1.92,0A.585.585,0,0,0,3395.975,1290.763Z" transform="translate(-3373.358 -1216.875)"/><path class="c" d="M3368.882,1276.252a.584.584,0,0,0,0,1.107,2.118,2.118,0,0,0,1.92,0,.584.584,0,0,0,0-1.107A2.12,2.12,0,0,0,3368.882,1276.252Z" transform="translate(-3353.225 -1205.263)"/><path class="c" d="M3343.782,1261.737a.586.586,0,0,0,0,1.109,2.131,2.131,0,0,0,1.92,0,.585.585,0,0,0,0-1.109,2.119,2.119,0,0,0-1.92,0Z" transform="translate(-3333.11 -1193.648)"/><path class="c" d="M3619.25,1506.106a.585.585,0,0,0,0,1.109,2.134,2.134,0,0,0,1.92,0,.584.584,0,0,0,0-1.109A2.115,2.115,0,0,0,3619.25,1506.106Z" transform="translate(-3553.571 -1389.196)"/><path class="c" d="M3594.121,1491.6a.586.586,0,0,0,0,1.109,2.122,2.122,0,0,0,1.921,0,.585.585,0,0,0,0-1.109,2.13,2.13,0,0,0-1.921,0Z" transform="translate(-3533.467 -1377.586)"/><path class="c" d="M3568.991,1477.088a.584.584,0,0,0,0,1.108,2.12,2.12,0,0,0,1.92,0,.585.585,0,0,0,0-1.108,2.118,2.118,0,0,0-1.92,0Z" transform="translate(-3513.354 -1365.975)"/><path class="c" d="M3543.862,1462.571a.586.586,0,0,0,0,1.109,2.133,2.133,0,0,0,1.922,0,.586.586,0,0,0,0-1.11,2.122,2.122,0,0,0-1.922,0Z" transform="translate(-3493.242 -1354.358)"/><path class="c" d="M3518.733,1448.064a.586.586,0,0,0,0,1.109,2.123,2.123,0,0,0,1.92,0,.586.586,0,0,0,0-1.11A2.133,2.133,0,0,0,3518.733,1448.064Z" transform="translate(-3473.137 -1342.75)"/><path class="c" d="M3493.575,1433.553a.584.584,0,0,0,0,1.107,2.123,2.123,0,0,0,1.921,0,.584.584,0,0,0,0-1.107,2.123,2.123,0,0,0-1.922,0Z" transform="translate(-3453.001 -1331.138)"/><path class="c" d="M3468.475,1419.041a.586.586,0,0,0,0,1.109,2.132,2.132,0,0,0,1.92,0,.585.585,0,0,0,0-1.109,2.12,2.12,0,0,0-1.92,0Z" transform="translate(-3432.893 -1319.524)"/><path class="c" d="M3443.316,1404.529a.585.585,0,0,0,0,1.109,2.123,2.123,0,0,0,1.92,0,.585.585,0,0,0,0-1.109,2.13,2.13,0,0,0-1.921,0Z" transform="translate(-3412.787 -1307.914)"/><path class="c" d="M3418.187,1390.021a.585.585,0,0,0,0,1.108,2.124,2.124,0,0,0,1.921,0,.584.584,0,0,0,0-1.108,2.125,2.125,0,0,0-1.922,0Z" transform="translate(-3392.679 -1296.301)"/><path class="c" d="M3393.058,1375.506a.586.586,0,0,0,0,1.109,2.128,2.128,0,0,0,1.919,0,.585.585,0,0,0,0-1.109A2.113,2.113,0,0,0,3393.058,1375.506Z" transform="translate(-3372.569 -1284.688)"/><path class="c" d="M3367.9,1361a.585.585,0,0,0,0,1.109,2.111,2.111,0,0,0,1.919,0,.585.585,0,0,0,0-1.109A2.128,2.128,0,0,0,3367.9,1361Z" transform="translate(-3352.437 -1273.078)"/><path class="c" d="M3342.77,1346.485a.585.585,0,0,0,0,1.108,2.119,2.119,0,0,0,1.92,0,.584.584,0,0,0,0-1.108A2.124,2.124,0,0,0,3342.77,1346.485Z" transform="translate(-3332.326 -1261.464)"/><path class="c" d="M3317.641,1331.974a.585.585,0,0,0,0,1.108,2.119,2.119,0,0,0,1.922,0,.585.585,0,0,0,0-1.108A2.124,2.124,0,0,0,3317.641,1331.974Z" transform="translate(-3312.219 -1249.851)"/><path class="c" d="M3292.511,1317.459a.586.586,0,0,0,0,1.109,2.12,2.12,0,0,0,1.92,0,.585.585,0,0,0,0-1.109,2.121,2.121,0,0,0-1.92,0Z" transform="translate(-3292.115 -1238.237)"/><path class="c" d="M3644.409,1491.6a.585.585,0,0,0,0,1.109,2.117,2.117,0,0,0,1.92,0,.585.585,0,0,0,0-1.109,2.127,2.127,0,0,0-1.92,0Z" transform="translate(-3573.705 -1377.586)"/><path class="c" d="M3619.25,1477.088a.584.584,0,0,0,0,1.108,2.119,2.119,0,0,0,1.92,0,.585.585,0,0,0,0-1.108,2.118,2.118,0,0,0-1.92,0Z" transform="translate(-3553.571 -1365.975)"/><path class="c" d="M3594.121,1462.571a.586.586,0,0,0,0,1.109,2.131,2.131,0,0,0,1.921,0,.586.586,0,0,0,0-1.109A2.122,2.122,0,0,0,3594.121,1462.571Z" transform="translate(-3533.467 -1354.358)"/><path class="c" d="M3568.991,1448.064a.586.586,0,0,0,0,1.109,2.123,2.123,0,0,0,1.92,0,.586.586,0,0,0,0-1.11A2.133,2.133,0,0,0,3568.991,1448.064Z" transform="translate(-3513.354 -1342.75)"/><path class="c" d="M3543.862,1433.553a.584.584,0,0,0,0,1.107,2.124,2.124,0,0,0,1.922,0,.584.584,0,0,0,0-1.107,2.123,2.123,0,0,0-1.922,0Z" transform="translate(-3493.242 -1331.138)"/><path class="c" d="M3518.733,1419.041a.586.586,0,0,0,0,1.109,2.134,2.134,0,0,0,1.921,0,.586.586,0,0,0,0-1.109A2.12,2.12,0,0,0,3518.733,1419.041Z" transform="translate(-3473.137 -1319.524)"/><path class="c" d="M3493.575,1404.529a.586.586,0,0,0,0,1.109,2.125,2.125,0,0,0,1.922,0,.586.586,0,0,0,0-1.109,2.133,2.133,0,0,0-1.922,0Z" transform="translate(-3453.001 -1307.914)"/><path class="c" d="M3468.475,1390.021a.586.586,0,0,0,0,1.108,2.123,2.123,0,0,0,1.921,0,.584.584,0,0,0,0-1.108,2.12,2.12,0,0,0-1.92,0Z" transform="translate(-3432.893 -1296.301)"/><path class="c" d="M3443.316,1375.506a.585.585,0,0,0,0,1.109,2.132,2.132,0,0,0,1.92,0,.586.586,0,0,0,0-1.109,2.114,2.114,0,0,0-1.92,0Z" transform="translate(-3412.787 -1284.688)"/><path class="c" d="M3418.187,1361a.586.586,0,0,0,0,1.109,2.118,2.118,0,0,0,1.921,0,.585.585,0,0,0,0-1.109,2.132,2.132,0,0,0-1.922,0Z" transform="translate(-3392.679 -1273.078)"/><path class="c" d="M3393.058,1346.485a.584.584,0,0,0,0,1.107,2.111,2.111,0,0,0,1.919,0,.584.584,0,0,0,0-1.107,2.115,2.115,0,0,0-1.919,0Z" transform="translate(-3372.569 -1261.465)"/><path class="c" d="M3367.9,1331.974a.584.584,0,0,0,0,1.108,2.112,2.112,0,0,0,1.919,0,.584.584,0,0,0,0-1.108,2.114,2.114,0,0,0-1.919,0Z" transform="translate(-3352.437 -1249.851)"/><path class="c" d="M3342.77,1317.459a.585.585,0,0,0,0,1.109,2.119,2.119,0,0,0,1.92,0,.585.585,0,0,0,0-1.109,2.121,2.121,0,0,0-1.92,0Z" transform="translate(-3332.326 -1238.237)"/><path class="c" d="M3317.641,1302.95a.586.586,0,0,0,0,1.11,2.123,2.123,0,0,0,1.922,0,.586.586,0,0,0,0-1.11A2.131,2.131,0,0,0,3317.641,1302.95Z" transform="translate(-3312.219 -1226.628)"/><path class="c" d="M3292.511,1288.441a.585.585,0,0,0,0,1.108,2.116,2.116,0,0,0,1.92,0,.584.584,0,0,0,0-1.108A2.125,2.125,0,0,0,3292.511,1288.441Z" transform="translate(-3292.115 -1215.016)"/><path class="c" d="M3669.508,1477.088a.585.585,0,0,0,0,1.108,2.119,2.119,0,0,0,1.92,0,.584.584,0,0,0,0-1.108A2.118,2.118,0,0,0,3669.508,1477.088Z" transform="translate(-3593.79 -1365.974)"/><path class="c" d="M3644.409,1462.571a.586.586,0,0,0,0,1.109,2.132,2.132,0,0,0,1.92,0,.586.586,0,0,0,0-1.109A2.118,2.118,0,0,0,3644.409,1462.571Z" transform="translate(-3573.705 -1354.358)"/><path class="c" d="M3619.25,1448.064a.586.586,0,0,0,0,1.109,2.122,2.122,0,0,0,1.92,0,.586.586,0,0,0,0-1.11A2.132,2.132,0,0,0,3619.25,1448.064Z" transform="translate(-3553.571 -1342.75)"/><path class="c" d="M3594.121,1433.553a.585.585,0,0,0,0,1.107,2.122,2.122,0,0,0,1.921,0,.584.584,0,0,0,0-1.107A2.123,2.123,0,0,0,3594.121,1433.553Z" transform="translate(-3533.467 -1331.138)"/><path class="c" d="M3568.991,1419.041a.586.586,0,0,0,0,1.109,2.134,2.134,0,0,0,1.921,0,.586.586,0,0,0,0-1.109,2.119,2.119,0,0,0-1.92,0Z" transform="translate(-3513.354 -1319.524)"/><path class="c" d="M3543.862,1404.529a.586.586,0,0,0,0,1.109,2.126,2.126,0,0,0,1.923,0,.586.586,0,0,0,0-1.109,2.132,2.132,0,0,0-1.922,0Z" transform="translate(-3493.242 -1307.914)"/><path class="c" d="M3518.733,1390.021a.585.585,0,0,0,0,1.108,2.123,2.123,0,0,0,1.92,0,.585.585,0,0,0,0-1.108,2.123,2.123,0,0,0-1.92,0Z" transform="translate(-3473.137 -1296.302)"/><path class="c" d="M3493.575,1375.506a.585.585,0,0,0,0,1.109,2.134,2.134,0,0,0,1.922,0,.585.585,0,0,0,0-1.109,2.12,2.12,0,0,0-1.922,0Z" transform="translate(-3453.001 -1284.688)"/><path class="c" d="M3468.475,1361a.586.586,0,0,0,0,1.109,2.113,2.113,0,0,0,1.92,0,.585.585,0,0,0,0-1.109A2.133,2.133,0,0,0,3468.475,1361Z" transform="translate(-3432.893 -1273.078)"/><path class="c" d="M3443.316,1346.485a.583.583,0,0,0,0,1.107,2.113,2.113,0,0,0,1.92,0,.584.584,0,0,0,0-1.107,2.119,2.119,0,0,0-1.92,0Z" transform="translate(-3412.787 -1261.465)"/><path class="c" d="M3418.187,1331.974a.585.585,0,0,0,0,1.108,2.118,2.118,0,0,0,1.921,0,.584.584,0,0,0,0-1.108,2.123,2.123,0,0,0-1.922,0Z" transform="translate(-3392.679 -1249.851)"/><path class="c" d="M3393.058,1317.459a.586.586,0,0,0,0,1.109,2.116,2.116,0,0,0,1.919,0,.585.585,0,0,0,0-1.109A2.119,2.119,0,0,0,3393.058,1317.459Z" transform="translate(-3372.569 -1238.237)"/><path class="c" d="M3367.9,1302.953a.584.584,0,0,0,0,1.108,2.115,2.115,0,0,0,1.919,0,.584.584,0,0,0,0-1.108A2.116,2.116,0,0,0,3367.9,1302.953Z" transform="translate(-3352.437 -1226.629)"/><path class="c" d="M3342.77,1288.441a.585.585,0,0,0,0,1.108,2.119,2.119,0,0,0,1.92,0,.584.584,0,0,0,0-1.108A2.124,2.124,0,0,0,3342.77,1288.441Z" transform="translate(-3332.326 -1215.016)"/><path class="c" d="M3317.641,1273.927a.586.586,0,0,0,0,1.109,2.134,2.134,0,0,0,1.923,0,.587.587,0,0,0,0-1.11A2.122,2.122,0,0,0,3317.641,1273.927Z" transform="translate(-3312.219 -1203.402)"/><path class="g" d="M3356.463,981.031l54.024-31.33c.056-.039.116-.071.176-.1h0c1.294-.73,3.144-.45,5.075.972l103.377,76.123a17.224,17.224,0,0,1,5.268,6.814l2.028,11.51c.769,1.75.426,3.179-.516,3.49l-53.642,31.1Z" transform="translate(-3343.59 -943.738)"/><path class="g" d="M3411.155,947.926a5.674,5.674,0,0,1,3.245,1.274l103.379,76.123a16.807,16.807,0,0,1,5.129,6.643l2,11.413a3.373,3.373,0,0,1,.271,2.52.842.842,0,0,1-.5.5l-53.461,30.99-115.111-98,53.626-31.1A2.871,2.871,0,0,1,3411.155,947.926Zm59.966,130.49,53.9-31.254a1.608,1.608,0,0,0,.93-.92,3.961,3.961,0,0,0-.242-3.106l-2-11.413a17.657,17.657,0,0,0-5.433-7.08L3414.9,948.521c-2.01-1.483-4.027-1.846-5.531-1-.1.054-.15.082-.2.116l-53.875,31.245-.194.764Z" transform="translate(-3342.516 -942.033)"/><path class="h" d="M3346.46,1130.094v-22.532a3.961,3.961,0,0,1,2.3-3.194c1.444-.576,3.321-.143,5.143,1.2l103.376,76.123a17.591,17.591,0,0,1,5.431,7.079l2.021,11.462c.659,1.532.573,2.978-.227,3.693a1.6,1.6,0,0,1-1.092.41,2.637,2.637,0,0,1-1.307-.4l-110.639-64.155A11.212,11.212,0,0,1,3346.46,1130.094Z" transform="translate(-3335.586 -1067.703)"/><path class="h" d="M3452.478,1026.684l41.768-23.732a4.14,4.14,0,0,1,4.492.266l90.394,66.127a1.657,1.657,0,0,1-.148,2.763l-41.418,24.1a4.7,4.7,0,0,1-5.15-.277l-90.13-65.935a1.977,1.977,0,0,1,.194-3.312Z" transform="translate(-3419.607 -986.317)"/><path class="g" d="M3368.79,963.06l12.234-4.568,30.319-17.228a3.708,3.708,0,0,1,4.033.239l3.708,2.772,2.411-.9v3.4h0a1.223,1.223,0,0,1-.609.992l-41.418,24.1a4.269,4.269,0,0,1-3.947.175v.009a10.162,10.162,0,0,0-2.985-.7,3.622,3.622,0,0,0-1.576.261l-2.172,1.259Z" transform="translate(-3353.438 -936.996)"/><path class="h" d="M3549.042,1111.23l-87-64.254,40.991-23.291a3.719,3.719,0,0,1,4.034.237l86.874,64.163-40.214,23.4A4.276,4.276,0,0,1,3549.042,1111.23Z" transform="translate(-3428.083 -1002.953)"/><path class="i" d="M3969.859,1448.279l41.221-23.9-1.1-5.693a4.807,4.807,0,0,0-7.141-3.24l-29.82,17.4a8.367,8.367,0,0,0-4.091,8.345Z" transform="translate(-3833.622 -1316.302)"/><path class="g" d="M3463.561,1267.778a4.367,4.367,0,0,1,3.963.458l56.639,37.521a13.936,13.936,0,0,1,5.566,7.372l2.808,9.215-1.315-.763-2.481-8.145a12.886,12.886,0,0,0-5.146-6.818l-56.643-37.521a3.366,3.366,0,0,0-5.1,1.891l-.072,10.437-.924-.536v-10.186A4.361,4.361,0,0,1,3463.561,1267.778Z" transform="translate(-3427.137 -1198.443)"/><path class="g" d="M3420.863,930.933l-41.407,24.1a4.278,4.278,0,0,1-4.687-.253l-5.362-4.012a1.556,1.556,0,0,1,.155-2.605l41.77-23.73a3.709,3.709,0,0,1,4.032.239l5.622,4.2a1.233,1.233,0,0,1-.123,2.058Z" transform="translate(-3353.443 -923.528)"/><path class="g" d="M3420.866,947.765l-41.417,24.1a4.278,4.278,0,0,1-4.687-.252L3369.4,967.6a1.555,1.555,0,0,1,.154-2.606l41.774-23.731a3.707,3.707,0,0,1,4.032.239l5.622,4.2a1.235,1.235,0,0,1-.117,2.06Z" transform="translate(-3353.443 -936.996)"/><path class="h" d="M3411.455,922.691a3.289,3.289,0,0,1,1.952.639l5.616,4.2a.81.81,0,0,1-.071,1.357l-41.417,24.1a3.849,3.849,0,0,1-4.223-.227l-5.36-4.01a1.135,1.135,0,0,1,.109-1.9l41.771-23.728A3.276,3.276,0,0,1,3411.455,922.691Zm-35.824,31.66a4.684,4.684,0,0,0,2.363-.637l41.418-24.1a1.657,1.657,0,0,0,.147-2.765l-5.617-4.2a4.143,4.143,0,0,0-4.495-.267l-41.768,23.73a1.978,1.978,0,0,0-.194,3.311l5.36,4.008a4.683,4.683,0,0,0,2.787.919Z" transform="translate(-3351.754 -921.844)"/><path class="j" d="M3522.841,1040.683l83.484,61.819-36.292,21.116a4.276,4.276,0,0,1-4.687-.253l-83.569-61.881,37.029-21.04A3.713,3.713,0,0,1,3522.841,1040.683Z" transform="translate(-3443.864 -1016.362)"/><path class="g" d="M3456,1045.408l.811.593,41.6-23.638a3.282,3.282,0,0,1,3.572.212l89.648,65.617.752-.437-89.9-65.861a4.14,4.14,0,0,0-4.495-.266Z" transform="translate(-3423.239 -1001.26)"/><path class="h" d="M3366.675,981.847h0l0-10.341.478-.177a1.548,1.548,0,0,0,.366,1.45v.113l5.162,4.017.715.274a4.258,4.258,0,0,0,1.493.569l.185.07.136-.03a4.257,4.257,0,0,0,2.565-.55v2.873l41.2-23.975a.8.8,0,0,0,.4-.657V953a1.224,1.224,0,0,0,.354-1.307l.491-.182v4.03a1.645,1.645,0,0,1-.82,1.332l-41.416,24.1a4.682,4.682,0,0,1-3.736.422v.018l-.581-.23a10.911,10.911,0,0,0-2.823-.675,3.706,3.706,0,0,0-1.374.2l-2.8,1.628Z" transform="translate(-3351.762 -945.581)"/><path class="h" d="M3985.445,1454.373l31.609-18.216a2.68,2.68,0,0,0,.98-3.666h0a2.682,2.682,0,0,0-3.658-.979l-31.609,18.216a2.683,2.683,0,0,0-.982,3.666h0a2.682,2.682,0,0,0,3.659.979Z" transform="translate(-3843.692 -1329.4)"/><path class="i" d="M3987.742,1458.455l33.188-19.228a.891.891,0,0,0,.327-1.223h0a.891.891,0,0,0-1.222-.326l-33.187,19.23a.891.891,0,0,0-.325,1.222h0A.9.9,0,0,0,3987.742,1458.455Z" transform="translate(-3847.671 -1334.524)"/><path class="k" d="M3997.117,1465.735l27.217-15.791,19.58,11.685.814-.092v1.109a.54.54,0,0,1,0,.105h0a1,1,0,0,1-.489.822l-26.279,15.669a3.156,3.156,0,0,1-3.218,0l-21.26-12.586,1.025-.635Z" transform="translate(-3853.343 -1344.437)"/><path class="l" d="M4042.781,1460.747v.858a.52.52,0,0,1,0,.1.785.785,0,0,1-.384.642l-26.277,15.667a2.926,2.926,0,0,1-2.989,0l-20.942-12.4.667-.414,2.631-.313,27.106-15.724,19.544,11.654Zm-28.154,18.122a3.359,3.359,0,0,0,1.724-.475l26.276-15.667a1.216,1.216,0,0,0,.6-1v-1.476l-.992.11-19.64-11.713-.112.068-27.178,15.766-2.644.315-1.337.831,21.58,12.772a3.364,3.364,0,0,0,1.729.474Z" transform="translate(-3851.61 -1343.395)"/><path class="k" d="M4028.44,1443.864l19.919,11.879a1.019,1.019,0,0,1,0,1.753l-26.279,15.667a3.15,3.15,0,0,1-3.218,0l-20.238-12.005Z" transform="translate(-3857.457 -1339.572)"/><path class="l" d="M4044.026,1485.415a3.149,3.149,0,0,1-3.217,0l-13.794-8.156a1.91,1.91,0,0,1,.015-3.3l20.078-11.649a6.483,6.483,0,0,1,6.57.039l11.754,6.987a1.909,1.909,0,0,1,0,3.281Z" transform="translate(-3879.425 -1353.638)"/><path class="l" d="M4026.666,1443.083l19.807,11.81a.8.8,0,0,1,0,1.368l-26.276,15.668a2.925,2.925,0,0,1-2.988,0l-19.91-11.812Zm-7.968,29.705a3.38,3.38,0,0,0,1.724-.475l26.278-15.667a1.245,1.245,0,0,0,0-2.138l-20.034-11.945-.114.066-30.146,17.486,20.567,12.2a3.361,3.361,0,0,0,1.7.476Z" transform="translate(-3855.683 -1338.531)"/><path class="m" d="M4126.218,1509.064l1.383.8,4.551-2.627-1.383-.8a1.977,1.977,0,0,0-1.778.074l-2.646,1.527C4125.83,1508.343,4125.752,1508.8,4126.218,1509.064Z" transform="translate(-3959.315 -1389.503)"/><path class="m" d="M4152.585,1524.279l1.406.814a1.993,1.993,0,0,0,1.8-.074l2.626-1.517c.532-.307.589-.769.128-1.037l-1.405-.814Z" transform="translate(-3980.661 -1401.821)"/><path class="m" d="M4136.656,1515.085l2.728,1.576,4.55-2.627-2.727-1.575Z" transform="translate(-3967.913 -1394.464)"/><path class="m" d="M4111.127,1563.592a1.635,1.635,0,0,1-1.458.282c-.33-.19-.1-.5.507-.853.585-.34,1.121-.476,1.454-.283C4111.9,1562.9,4111.748,1563.22,4111.127,1563.592Zm-1.258-.768c-.811.469-.956.9-.43,1.2a2.113,2.113,0,0,0,2.014-.25c.8-.462.9-.915.41-1.2a2.093,2.093,0,0,0-2.015.243Z" transform="translate(-3945.881 -1434.44)"/><path class="m" d="M4101.718,1558.152a1.636,1.636,0,0,1-1.455.283c-.33-.191-.1-.5.5-.856.587-.338,1.121-.475,1.454-.282C4102.494,1557.462,4102.339,1557.78,4101.718,1558.152Zm-1.258-.769c-.809.47-.955.9-.429,1.206a2.122,2.122,0,0,0,2.014-.252c.8-.461.895-.913.41-1.194a2.1,2.1,0,0,0-2.016.241Z" transform="translate(-3938.35 -1430.088)"/><path class="m" d="M4092.309,1552.716a1.629,1.629,0,0,1-1.454.282c-.329-.192-.1-.5.507-.856.584-.339,1.12-.474,1.454-.282C4093.085,1552.022,4092.969,1552.344,4092.309,1552.716Zm-1.256-.768c-.808.468-.958.9-.429,1.2a2.12,2.12,0,0,0,2.013-.253c.8-.461.892-.914.41-1.193a2.093,2.093,0,0,0-2.017.242Z" transform="translate(-3930.826 -1425.736)"/><path class="m" d="M4083.738,1546.785l.007.005.19.367.311-.105-.242-.46-.274-.16-2.382,1.375.311.18Z" transform="translate(-3923.669 -1421.648)"/><path class="m" d="M4069.593,1539.594a1.629,1.629,0,0,1-1.457.282c-.328-.191-.1-.5.507-.856.586-.338,1.121-.473,1.454-.281C4070.368,1538.9,4070.213,1539.219,4069.593,1539.594Zm-1.259-.768c-.81.468-.957.9-.428,1.205a2.121,2.121,0,0,0,2.013-.253c.8-.462.892-.915.412-1.194a2.093,2.093,0,0,0-2.017.242Z" transform="translate(-3912.641 -1415.235)"/><path class="m" d="M4057.6,1535.03l.2-.116-.007-.288c-.029-.685,0-1.022.36-1.231a.907.907,0,0,1,.937,0,.574.574,0,0,1,.3.408l.329-.073a.8.8,0,0,0-.433-.529,1.457,1.457,0,0,0-1.421-.021c-.442.254-.478.645-.458,1.213l.015.212-.007,0-1.071-.617-.266.153Z" transform="translate(-3903.421 -1410.909)"/><path class="m" d="M4050.746,1528.721a1.626,1.626,0,0,1-1.454.283c-.328-.191-.1-.5.5-.855.586-.339,1.121-.474,1.454-.281C4051.522,1528.031,4051.406,1528.345,4050.746,1528.721Zm-1.257-.768c-.81.469-.957.9-.429,1.2a2.121,2.121,0,0,0,2.013-.251c.8-.462.892-.914.411-1.194a2.089,2.089,0,0,0-2.017.241Z" transform="translate(-3897.564 -1406.536)"/><path class="m" d="M4042.2,1522.79l.007,0,.191.368.307-.1-.243-.462-.273-.157-2.382,1.375.31.178Z" transform="translate(-3890.401 -1402.448)"/><path class="l" d="M4016.228,1542.871v1.324l-1.033-.331-21.706-12.8,1.023-.635,20.959,12.32Z" transform="translate(-3853.337 -1408.84)"/></g></g></g></svg>