<svg xmlns="http://www.w3.org/2000/svg" xmlns:xlink="http://www.w3.org/1999/xlink" width="271" height="350" viewBox="0 0 271 350"><defs><style>.a{fill:#fff;stroke:#707070;}.b{clip-path:url(#a);}.c{fill:#bdc1c6;}.d{fill:#dadce0;}.e{fill:#e8eaed;}.f{fill:#ff5833;}.g{fill:#2950af;}.h{fill:#5786ed;}.i{fill:#abc5ff;}.j{fill:#d4492a;}.k{fill:#f7f5f6;}.l{fill:#fefefe;}.m{fill:#3f6aa9;}.n{fill:#4d7828;}.o{fill:#75a100;}.p{fill:#8cb811;}.q{fill:#6097d0;}.r{fill:#dfeefb;}.s,.t{fill-rule:evenodd;}.s{fill:url(#b);}.t{fill:url(#c);}.u{fill:#0d346b;}.v{fill:#4766a2;}.w{fill:#2f3e74;}</style><clipPath id="a"><rect class="a" width="271" height="350" transform="translate(681 1826)"/></clipPath><linearGradient id="b" x1="0.5" y1="0.903" x2="0.5" y2="0.097" gradientUnits="objectBoundingBox"><stop offset="0" stop-color="#3d316f"/><stop offset="1" stop-color="#5f4d99"/></linearGradient><linearGradient id="c" y1="0.45" x2="0.937" y2="0.541" gradientUnits="objectBoundingBox"><stop offset="0" stop-color="#4e3e8e"/><stop offset="1" stop-color="#634e99"/></linearGradient></defs><g class="b" transform="translate(-681 -1826)"><g transform="translate(653.657 1957.69)"><path class="c" d="M129.768,308.536V32.007l-103.05-.061v276.1c-.13,1.608.991,3.338,3.3,4.676l40.956,23.642c4.007,2.321,10.082,2.573,13.55.565l42.9-24.772c1.669-.965,2.425-2.269,2.329-3.625Z" transform="translate(16.461 19.691)"/><path class="d" d="M110.116,308.536V32.911a.953.953,0,0,0-.956-.956l-7.91-.009L58.591,50.8V338.27a12.3,12.3,0,0,0,6.284-1.339l42.9-24.772A4.118,4.118,0,0,0,110.107,309v-.435a.052.052,0,0,0-.009-.035h0Z" transform="translate(36.113 19.691)"/><path class="e" d="M127.442,46.925,84.54,71.7C81.072,73.7,75,73.452,70.989,71.14L30.034,47.49c-4.007-2.312-4.45-5.815-.973-7.823L71.963,14.9c3.477-2.008,9.544-1.756,13.559.556L126.478,39.1c4.007,2.312,4.45,5.815.973,7.823Z" transform="translate(16.466 8.346)"/><g transform="translate(56.043 0)"><path class="f" d="M86.564,40.451,82,37.818,98.828,28.1a.88.88,0,0,0,0-1.669L81.636,16.505a3.185,3.185,0,0,0-2.886,0L61.923,26.223,57.36,23.589l16.827-9.717a13.293,13.293,0,0,1,12.012,0L103.391,23.8c3.312,1.912,3.312,5.024,0,6.936L86.564,40.451Z" transform="translate(-20.689 7.666)"/><path class="g" d="M107.572,39.759a7.929,7.929,0,0,0-3.312-6.328L73.769,15.83a2.139,2.139,0,0,0-2.147-.183h0L35.221,36.8l35.2,26.527,35.862-20.817a1.4,1.4,0,0,0,.313-.183h0a3.118,3.118,0,0,0,.973-2.564Z" transform="translate(-34.335 9.515)"/><path class="h" d="M58.763,55.39,94.625,34.573a1.4,1.4,0,0,0,.313-.183h0a3.118,3.118,0,0,0,.973-2.564,8.038,8.038,0,0,0-.9-3.52L54.139,51.9l4.624,3.485Z" transform="translate(-22.674 17.447)"/><path class="i" d="M68.466,55.234l-30.482-17.6a7.918,7.918,0,0,1-3.312-6.328c0-2.442,1.486-3.564,3.312-2.5L68.466,46.4a7.905,7.905,0,0,1,3.312,6.328c0,2.442-1.486,3.564-3.312,2.5Z" transform="translate(-34.673 17.507)"/><path class="g" d="M54.407,42.836l-3.668-2.112a1.574,1.574,0,0,1-.661-1.26c0-.487.3-.713.661-.5l3.668,2.112a1.574,1.574,0,0,1,.661,1.26c0,.487-.3.713-.661.5Z" transform="translate(-25.177 23.968)"/><path class="j" d="M70.386,16.758,41.816.269A1.463,1.463,0,0,0,40.338.148V.13l-2.773,1.6s1.226.443,1.947.713v20.8a5.49,5.49,0,0,0,2.295,4.389l27.3,15.758v2.442l2.8-1.608-.017-.009a2.043,2.043,0,0,0,.774-1.834V21.138a5.49,5.49,0,0,0-2.295-4.389Z" transform="translate(-32.89 0)"/><path class="f" d="M67.889,45.136,39.328,28.647a5.49,5.49,0,0,1-2.295-4.389V3.015c0-1.695,1.026-2.468,2.295-1.738L67.889,17.765a5.5,5.5,0,0,1,2.295,4.389V43.4C70.184,45.092,69.158,45.866,67.889,45.136Z" transform="translate(-33.218 0.617)"/><path class="k" d="M45.867,14.946c0,1.226-.86,1.73-1.93,1.113a4.282,4.282,0,0,1-1.93-3.338c0-1.226.86-1.73,1.93-1.113A4.282,4.282,0,0,1,45.867,14.946Z" transform="translate(-30.152 6.992)"/><path class="k" d="M49.48,17.033c0,1.226-.86,1.73-1.93,1.113a4.282,4.282,0,0,1-1.93-3.338c0-1.234.869-1.73,1.93-1.113A4.282,4.282,0,0,1,49.48,17.033Z" transform="translate(-27.924 8.277)"/><path class="k" d="M53.094,19.117c0,1.226-.86,1.73-1.93,1.113a4.282,4.282,0,0,1-1.93-3.338c0-1.226.86-1.721,1.93-1.113a4.282,4.282,0,0,1,1.93,3.338Z" transform="translate(-25.697 9.566)"/></g><path class="c" d="M237.707,311.386V66.087l-119.155-.07v244.8c-.148,1.86,1.139,3.868,3.816,5.406l47.361,27.344c4.641,2.677,11.656,2.973,15.671.652l49.613-28.639c1.93-1.113,2.807-2.625,2.695-4.2Z" transform="translate(73.065 40.692)"/><path class="d" d="M214.982,311.386V67.13a1.105,1.105,0,0,0-1.1-1.1l-9.144-.009-49.326,21.8V345.77a14.171,14.171,0,0,0,7.275-1.547L212.3,315.584a4.771,4.771,0,0,0,2.694-3.659v-.5c0-.017-.009-.026-.009-.043h.009Z" transform="translate(95.79 40.692)"/><path class="e" d="M235.018,83.343l-49.613,28.639c-4.016,2.321-11.03,2.025-15.671-.652L122.373,83.986c-4.641-2.677-5.146-6.727-1.13-9.048L170.855,46.3c4.016-2.321,11.03-2.025,15.671.652l47.361,27.344c4.641,2.677,5.146,6.727,1.13,9.048Z" transform="translate(73.06 27.573)"/><path class="c" d="M88.444,107.108V98.747L.014,98.695V106.7c-.113,1.382.843,2.868,2.834,4.016L38,131.011c3.442,1.99,8.648,2.208,11.63.478l36.818-21.26a3.36,3.36,0,0,0,2-3.112Z" transform="translate(0.002 60.834)"/><path class="d" d="M71.58,107.108v-7.6a.816.816,0,0,0-.817-.817H63.975L27.365,114.87v17.757a10.516,10.516,0,0,0,5.4-1.147l36.818-21.26a3.531,3.531,0,0,0,2-2.712v-.4h0Z" transform="translate(16.866 60.834)"/><path class="e" d="M86.447,111.55,49.629,132.81c-2.981,1.721-8.188,1.5-11.63-.487l-35.149-20.3c-3.442-1.99-3.816-4.989-.834-6.719l36.818-21.26c2.981-1.721,8.188-1.5,11.63.487l35.15,20.3c3.442,1.99,3.816,5,.834,6.719Z" transform="translate(0 51.091)"/><g transform="translate(18.819 114.91)"><path class="l" d="M30.7,76.436l-1.391-.8a.8.8,0,0,1-.339-.643V73.507c0-.243.148-.365.339-.252l1.391.8a.82.82,0,0,1,.339.643v1.486C31.036,76.436,30.888,76.549,30.7,76.436Z" transform="translate(-0.966 -69.784)"/><path class="m" d="M27.82,74.775l-1.391-.8a.82.82,0,0,1-.339-.643V71.846c0-.252.148-.365.339-.252l1.391.8a.82.82,0,0,1,.339.643v1.486C28.159,74.775,28.011,74.888,27.82,74.775Z" transform="translate(-2.739 -70.808)"/><path class="h" d="M11.649,103.7V96.232l16.732-.009,5.789-3.338a5.759,5.759,0,0,1,5.18.217l5.4,3.12L61.5,96.214v7.675a1.516,1.516,0,0,1-.887,1.391L38.976,117.77a5.759,5.759,0,0,1-5.18-.217L12.909,105.488c-.887-.513-1.312-1.173-1.26-1.79Z" transform="translate(-11.643 -57.976)"/><path class="h" d="M27.073,92.371a5.957,5.957,0,0,1,2.773.73l5.4,3.12,16.749-.009v7.675a1.516,1.516,0,0,1-.887,1.391l-21.634,12.49a4.693,4.693,0,0,1-2.408.513V92.38Z" transform="translate(-2.139 -57.974)"/><path class="g" d="M41.319,94.742h1.895v7.675a1.516,1.516,0,0,1-.887,1.391l-1.008.582Z" transform="translate(6.648 -56.513)"/><path class="g" d="M29.927,111.519a5.9,5.9,0,0,1-4.137-.052v-8.718h4.137v8.761Z" transform="translate(-2.924 -51.577)"/><path class="i" d="M38.984,114.129l21.634-12.49c1.33-.765,1.165-2.1-.374-2.99L39.358,86.585a5.759,5.759,0,0,0-5.18-.217L12.544,98.858c-1.33.765-1.165,2.1.374,2.99L33.8,113.912A5.759,5.759,0,0,0,38.984,114.129Z" transform="translate(-11.643 -61.993)"/><path class="j" d="M37.052,110.989l18.131-10.465c1.113-.643.973-1.764-.313-2.5L37.365,87.912a4.8,4.8,0,0,0-4.337-.183L14.9,98.194c-1.113.643-.973,1.764.313,2.5l17.505,10.109a4.825,4.825,0,0,0,4.337.183Z" transform="translate(-10.102 -61.103)"/><path class="h" d="M11.649,96.315V88.849L28.38,88.84,34.169,85.5a5.759,5.759,0,0,1,5.18.217l5.4,3.12L61.5,88.831v7.675A1.516,1.516,0,0,1,60.61,97.9l-21.634,12.49a5.759,5.759,0,0,1-5.18-.217L12.909,98.105c-.887-.513-1.312-1.173-1.26-1.79Z" transform="translate(-11.643 -62.526)"/><path class="h" d="M27.073,84.988a5.957,5.957,0,0,1,2.773.73l5.4,3.12,16.749-.009V96.5a1.516,1.516,0,0,1-.887,1.391l-21.634,12.49a4.693,4.693,0,0,1-2.408.513V85Z" transform="translate(-2.139 -62.525)"/><path class="g" d="M41.319,87.365h1.895V95.04a1.516,1.516,0,0,1-.887,1.391l-1.008.582Z" transform="translate(6.648 -61.06)"/><path class="g" d="M29.927,104.138a5.949,5.949,0,0,1-4.137-.043V95.377h4.137Z" transform="translate(-2.924 -56.122)"/><path class="i" d="M38.984,106.743l21.634-12.49c1.33-.765,1.165-2.1-.374-2.99L39.358,79.208a5.759,5.759,0,0,0-5.18-.217L12.544,91.48c-1.33.765-1.165,2.1.374,2.99L33.8,106.526A5.759,5.759,0,0,0,38.984,106.743Z" transform="translate(-11.643 -66.54)"/><path class="j" d="M37.052,103.6,55.183,93.14c1.113-.643.973-1.764-.313-2.5L37.365,80.528a4.824,4.824,0,0,0-4.337-.183L14.9,90.81c-1.113.643-.973,1.764.313,2.5l17.505,10.109a4.822,4.822,0,0,0,4.337.174Z" transform="translate(-10.102 -65.653)"/><path class="h" d="M11.649,88.937V81.471l16.732-.009,5.789-3.338a5.759,5.759,0,0,1,5.18.217l5.4,3.12L61.5,81.453v7.675a1.516,1.516,0,0,1-.887,1.391l-21.634,12.49a5.759,5.759,0,0,1-5.18-.217L12.909,90.728c-.887-.513-1.312-1.173-1.26-1.79Z" transform="translate(-11.643 -67.074)"/><path class="h" d="M27.073,77.61a5.957,5.957,0,0,1,2.773.73l5.4,3.12,16.749-.009v7.675a1.516,1.516,0,0,1-.887,1.391l-21.634,12.49a4.693,4.693,0,0,1-2.408.513v-25.9Z" transform="translate(-2.139 -67.073)"/><path class="g" d="M41.319,79.982h1.895v7.675a1.516,1.516,0,0,1-.887,1.391l-1.008.582Z" transform="translate(6.648 -65.611)"/><path class="g" d="M29.927,96.761a5.949,5.949,0,0,1-4.137-.043V88h4.137Z" transform="translate(-2.924 -60.669)"/><path class="f" d="M38.984,99.369l21.634-12.49c1.33-.765,1.165-2.1-.374-2.99L39.358,71.825a5.759,5.759,0,0,0-5.18-.217L12.544,84.1c-1.33.765-1.165,2.1.374,2.99L33.8,99.143a5.759,5.759,0,0,0,5.18.217Z" transform="translate(-11.643 -71.091)"/><path class="i" d="M12.91,80.439,33.8,92.5a5.759,5.759,0,0,0,5.18.217L60.61,80.23a2.016,2.016,0,0,0,.661-.591,1.4,1.4,0,0,1-.661,2.06L38.976,94.189a5.759,5.759,0,0,1-5.18-.217L12.91,81.916c-1.191-.687-1.556-1.651-1.034-2.408a2.9,2.9,0,0,0,1.034.939Z" transform="translate(-11.644 -65.903)"/><path class="f" d="M32.64,88.841l10.126-5.85c.626-.356.548-.982-.174-1.4l-9.77-5.641a2.7,2.7,0,0,0-2.425-.1L20.271,81.7c-.626.356-.539.982.174,1.4l9.778,5.641a2.7,2.7,0,0,0,2.425.1Z" transform="translate(-6.585 -68.308)"/><path class="j" d="M27.845,81.465l1.4-.808c.087-.052.07-.139-.026-.191l-1.356-.782a.39.39,0,0,0-.339-.017l-1.4.808c-.087.052-.078.139.026.191l1.356.782a.4.4,0,0,0,.33.017Z" transform="translate(-2.755 -65.825)"/><path class="j" d="M42.761,82.995l-.026.017-.148-.1-9.77-5.641a2.7,2.7,0,0,0-2.425-.1L20.3,82.995c-.574-.409-.6-.965-.026-1.3L30.4,75.842a2.7,2.7,0,0,1,2.425.1l9.77,5.641c.721.417.8,1.043.174,1.4Z" transform="translate(-6.58 -68.311)"/></g><path class="n" d="M218.781,438.737V99.767l-174.852-.1V437.92c-.226,2.729,1.678,5.667,5.6,7.936l69.5,40.13c6.806,3.929,17.105,4.355,23,.956l72.8-42.033c2.834-1.634,4.12-3.859,3.946-6.162Z" transform="translate(27.064 61.43)"/><path class="o" d="M185.437,438.741V101.291a1.628,1.628,0,0,0-1.625-1.625l-13.42-.009L98.006,131.643V489.2a20.848,20.848,0,0,0,10.673-2.269l72.8-42.033c2.5-1.443,3.8-3.346,3.955-5.363v-.73c0-.017-.009-.043-.009-.061h0Z" transform="translate(60.408 61.427)"/><path class="p" d="M214.837,125.073l-72.8,42.033c-5.893,3.4-16.193,2.973-23-.956l-69.5-40.121c-6.806-3.929-7.544-9.874-1.651-13.281l72.8-42.033c5.893-3.4,16.193-2.973,23,.956l69.5,40.121C219.991,115.721,220.73,121.666,214.837,125.073Z" transform="translate(27.062 42.174)"/><g transform="translate(104.617 134.012)"><path class="n" d="M86.743,99.687a.675.675,0,0,0,0,1.278,2.467,2.467,0,0,0,2.208,0,.675.675,0,0,0,0-1.278A2.467,2.467,0,0,0,86.743,99.687Z" transform="translate(-51.433 -72.727)"/><path class="n" d="M83.172,97.624a.675.675,0,0,0,0,1.278,2.467,2.467,0,0,0,2.208,0,.675.675,0,0,0,0-1.278A2.413,2.413,0,0,0,83.172,97.624Z" transform="translate(-53.634 -74.002)"/><path class="n" d="M79.6,95.562a.675.675,0,0,0,0,1.278,2.413,2.413,0,0,0,2.208,0,.675.675,0,0,0,0-1.278A2.467,2.467,0,0,0,79.6,95.562Z" transform="translate(-55.834 -75.269)"/><path class="n" d="M76.031,93.5a.675.675,0,0,0,0,1.278,2.467,2.467,0,0,0,2.208,0,.675.675,0,0,0,0-1.278A2.467,2.467,0,0,0,76.031,93.5Z" transform="translate(-58.035 -76.539)"/><path class="n" d="M90.314,97.624a.675.675,0,0,0,0,1.278,2.467,2.467,0,0,0,2.208,0,.675.675,0,0,0,0-1.278A2.413,2.413,0,0,0,90.314,97.624Z" transform="translate(-49.232 -74.002)"/><path class="n" d="M86.743,95.562a.675.675,0,0,0,0,1.278,2.413,2.413,0,0,0,2.208,0,.675.675,0,0,0,0-1.278A2.467,2.467,0,0,0,86.743,95.562Z" transform="translate(-51.433 -75.269)"/><path class="n" d="M83.172,93.5a.675.675,0,0,0,0,1.278,2.467,2.467,0,0,0,2.208,0,.675.675,0,0,0,0-1.278A2.467,2.467,0,0,0,83.172,93.5Z" transform="translate(-53.634 -76.539)"/><path class="n" d="M79.6,91.441a.669.669,0,0,0,0,1.269,2.413,2.413,0,0,0,2.208,0,.669.669,0,0,0,0-1.269A2.413,2.413,0,0,0,79.6,91.441Z" transform="translate(-55.834 -77.814)"/><path class="n" d="M93.884,95.562a.675.675,0,0,0,0,1.278,2.413,2.413,0,0,0,2.208,0,.675.675,0,0,0,0-1.278A2.467,2.467,0,0,0,93.884,95.562Z" transform="translate(-47.031 -75.269)"/><path class="n" d="M90.314,93.5a.675.675,0,0,0,0,1.278,2.467,2.467,0,0,0,2.208,0,.675.675,0,0,0,0-1.278A2.467,2.467,0,0,0,90.314,93.5Z" transform="translate(-49.232 -76.539)"/><path class="n" d="M86.743,91.441a.669.669,0,0,0,0,1.269,2.413,2.413,0,0,0,2.208,0,.669.669,0,0,0,0-1.269A2.413,2.413,0,0,0,86.743,91.441Z" transform="translate(-51.433 -77.814)"/><path class="n" d="M83.172,89.379a.675.675,0,0,0,0,1.278,2.467,2.467,0,0,0,2.208,0,.675.675,0,0,0,0-1.278A2.467,2.467,0,0,0,83.172,89.379Z" transform="translate(-53.634 -79.081)"/><path class="n" d="M97.455,93.5a.675.675,0,0,0,0,1.278,2.467,2.467,0,0,0,2.208,0,.675.675,0,0,0,0-1.278A2.467,2.467,0,0,0,97.455,93.5Z" transform="translate(-44.83 -76.539)"/><path class="n" d="M93.884,91.441a.669.669,0,0,0,0,1.269,2.413,2.413,0,0,0,2.208,0,.669.669,0,0,0,0-1.269A2.413,2.413,0,0,0,93.884,91.441Z" transform="translate(-47.031 -77.814)"/><path class="n" d="M90.314,89.379a.675.675,0,0,0,0,1.278,2.467,2.467,0,0,0,2.208,0,.675.675,0,0,0,0-1.278A2.467,2.467,0,0,0,90.314,89.379Z" transform="translate(-49.232 -79.081)"/><path class="n" d="M86.743,87.314a.675.675,0,0,0,0,1.278,2.467,2.467,0,0,0,2.208,0,.675.675,0,0,0,0-1.278A2.467,2.467,0,0,0,86.743,87.314Z" transform="translate(-51.433 -80.354)"/><path class="n" d="M101.025,91.441a.669.669,0,0,0,0,1.269,2.413,2.413,0,0,0,2.208,0,.669.669,0,0,0,0-1.269A2.413,2.413,0,0,0,101.025,91.441Z" transform="translate(-42.629 -77.814)"/><path class="n" d="M97.455,89.379a.675.675,0,0,0,0,1.278,2.467,2.467,0,0,0,2.208,0,.675.675,0,0,0,0-1.278A2.467,2.467,0,0,0,97.455,89.379Z" transform="translate(-44.83 -79.081)"/><path class="n" d="M93.884,87.314a.675.675,0,0,0,0,1.278,2.467,2.467,0,0,0,2.208,0,.675.675,0,0,0,0-1.278A2.467,2.467,0,0,0,93.884,87.314Z" transform="translate(-47.031 -80.354)"/><path class="n" d="M90.314,85.254a.675.675,0,0,0,0,1.278,2.413,2.413,0,0,0,2.208,0,.675.675,0,0,0,0-1.278A2.467,2.467,0,0,0,90.314,85.254Z" transform="translate(-49.232 -81.623)"/><path class="n" d="M104.628,89.36a.675.675,0,0,0,0,1.278,2.467,2.467,0,0,0,2.208,0,.675.675,0,0,0,0-1.278A2.413,2.413,0,0,0,104.628,89.36Z" transform="translate(-40.409 -79.097)"/><path class="n" d="M101.057,87.3a.669.669,0,0,0,0,1.269,2.413,2.413,0,0,0,2.208,0,.669.669,0,0,0,0-1.269A2.413,2.413,0,0,0,101.057,87.3Z" transform="translate(-42.61 -80.366)"/><path class="n" d="M97.487,85.233a.675.675,0,0,0,0,1.278,2.467,2.467,0,0,0,2.208,0,.675.675,0,0,0,0-1.278A2.467,2.467,0,0,0,97.487,85.233Z" transform="translate(-44.81 -81.636)"/><path class="n" d="M93.916,83.176a.675.675,0,0,0,0,1.278,2.467,2.467,0,0,0,2.208,0,.675.675,0,0,0,0-1.278A2.413,2.413,0,0,0,93.916,83.176Z" transform="translate(-47.011 -82.908)"/><path class="n" d="M104.628,85.233a.675.675,0,0,0,0,1.278,2.467,2.467,0,0,0,2.208,0,.675.675,0,0,0,0-1.278A2.467,2.467,0,0,0,104.628,85.233Z" transform="translate(-40.409 -81.636)"/><path class="n" d="M101.057,83.176a.675.675,0,0,0,0,1.278,2.467,2.467,0,0,0,2.208,0,.675.675,0,0,0,0-1.278A2.413,2.413,0,0,0,101.057,83.176Z" transform="translate(-42.61 -82.908)"/><path class="n" d="M68.751,105.537a.675.675,0,0,0,0,1.278,2.413,2.413,0,0,0,2.208,0,.675.675,0,0,0,0-1.278A2.467,2.467,0,0,0,68.751,105.537Z" transform="translate(-62.523 -69.121)"/><path class="n" d="M65.18,103.478a.675.675,0,0,0,0,1.278,2.467,2.467,0,0,0,2.208,0,.675.675,0,0,0,0-1.278A2.467,2.467,0,0,0,65.18,103.478Z" transform="translate(-64.724 -70.39)"/><path class="n" d="M75.892,105.537a.675.675,0,0,0,0,1.278,2.413,2.413,0,0,0,2.208,0,.675.675,0,0,0,0-1.278A2.467,2.467,0,0,0,75.892,105.537Z" transform="translate(-58.121 -69.121)"/><path class="n" d="M72.321,103.478a.675.675,0,0,0,0,1.278,2.467,2.467,0,0,0,2.208,0,.675.675,0,0,0,0-1.278A2.467,2.467,0,0,0,72.321,103.478Z" transform="translate(-60.322 -70.39)"/><path class="n" d="M68.751,101.418a.675.675,0,0,0,0,1.278,2.413,2.413,0,0,0,2.208,0,.669.669,0,0,0,0-1.269,2.413,2.413,0,0,0-2.208,0Z" transform="translate(-62.523 -71.659)"/><path class="n" d="M65.18,99.353a.675.675,0,0,0,0,1.278,2.413,2.413,0,0,0,2.208,0,.675.675,0,0,0,0-1.278A2.467,2.467,0,0,0,65.18,99.353Z" transform="translate(-64.724 -72.933)"/><path class="n" d="M79.462,103.478a.675.675,0,0,0,0,1.278,2.467,2.467,0,0,0,2.208,0,.675.675,0,0,0,0-1.278A2.467,2.467,0,0,0,79.462,103.478Z" transform="translate(-55.921 -70.39)"/><path class="n" d="M75.892,101.421a.669.669,0,0,0,0,1.269,2.413,2.413,0,0,0,2.208,0,.669.669,0,0,0,0-1.269A2.413,2.413,0,0,0,75.892,101.421Z" transform="translate(-58.121 -71.662)"/><path class="n" d="M72.321,99.353a.675.675,0,0,0,0,1.278,2.413,2.413,0,0,0,2.208,0,.675.675,0,0,0,0-1.278A2.467,2.467,0,0,0,72.321,99.353Z" transform="translate(-60.322 -72.933)"/><path class="n" d="M68.751,97.3a.675.675,0,0,0,0,1.278,2.467,2.467,0,0,0,2.208,0,.675.675,0,0,0,0-1.278A2.413,2.413,0,0,0,68.751,97.3Z" transform="translate(-62.523 -74.205)"/><path class="n" d="M83.033,101.421a.669.669,0,0,0,0,1.269,2.413,2.413,0,0,0,2.208,0,.669.669,0,0,0,0-1.269A2.413,2.413,0,0,0,83.033,101.421Z" transform="translate(-53.72 -71.662)"/><path class="n" d="M79.462,99.353a.675.675,0,0,0,0,1.278,2.413,2.413,0,0,0,2.208,0,.675.675,0,0,0,0-1.278A2.467,2.467,0,0,0,79.462,99.353Z" transform="translate(-55.921 -72.933)"/><path class="n" d="M75.892,97.3a.675.675,0,0,0,0,1.278,2.467,2.467,0,0,0,2.208,0,.675.675,0,0,0,0-1.278A2.413,2.413,0,0,0,75.892,97.3Z" transform="translate(-58.121 -74.205)"/><path class="n" d="M72.321,95.229a.675.675,0,0,0,0,1.278,2.413,2.413,0,0,0,2.208,0,.675.675,0,0,0,0-1.278A2.467,2.467,0,0,0,72.321,95.229Z" transform="translate(-60.322 -75.475)"/></g><g transform="translate(139.245 154.003)"><path class="n" d="M108.172,112.055a.675.675,0,0,0,0,1.278,2.467,2.467,0,0,0,2.208,0,.675.675,0,0,0,0-1.278A2.467,2.467,0,0,0,108.172,112.055Z" transform="translate(-72.853 -85.095)"/><path class="n" d="M104.6,110a.675.675,0,0,0,0,1.278,2.467,2.467,0,0,0,2.208,0,.675.675,0,0,0,0-1.278A2.413,2.413,0,0,0,104.6,110Z" transform="translate(-75.053 -86.367)"/><path class="n" d="M101.03,107.93a.675.675,0,0,0,0,1.278,2.413,2.413,0,0,0,2.208,0,.675.675,0,0,0,0-1.278A2.467,2.467,0,0,0,101.03,107.93Z" transform="translate(-77.254 -87.637)"/><path class="n" d="M97.46,105.871a.675.675,0,0,0,0,1.278,2.467,2.467,0,0,0,2.208,0,.675.675,0,0,0,0-1.278A2.467,2.467,0,0,0,97.46,105.871Z" transform="translate(-79.455 -88.907)"/><path class="n" d="M111.742,110a.675.675,0,0,0,0,1.278,2.467,2.467,0,0,0,2.208,0,.675.675,0,0,0,0-1.278A2.413,2.413,0,0,0,111.742,110Z" transform="translate(-70.652 -86.367)"/><path class="n" d="M108.172,107.93a.675.675,0,0,0,0,1.278,2.413,2.413,0,0,0,2.208,0,.675.675,0,0,0,0-1.278A2.467,2.467,0,0,0,108.172,107.93Z" transform="translate(-72.853 -87.637)"/><path class="n" d="M104.6,105.871a.675.675,0,0,0,0,1.278,2.467,2.467,0,0,0,2.208,0,.675.675,0,0,0,0-1.278A2.467,2.467,0,0,0,104.6,105.871Z" transform="translate(-75.053 -88.907)"/><path class="n" d="M101.03,103.814a.669.669,0,0,0,0,1.269,2.467,2.467,0,0,0,2.208,0c.608-.356.608-.921,0-1.269A2.413,2.413,0,0,0,101.03,103.814Z" transform="translate(-77.254 -90.178)"/><path class="n" d="M115.313,107.93a.675.675,0,0,0,0,1.278,2.413,2.413,0,0,0,2.208,0,.675.675,0,0,0,0-1.278A2.467,2.467,0,0,0,115.313,107.93Z" transform="translate(-68.451 -87.637)"/><path class="n" d="M111.742,105.871a.675.675,0,0,0,0,1.278,2.467,2.467,0,0,0,2.208,0,.675.675,0,0,0,0-1.278A2.467,2.467,0,0,0,111.742,105.871Z" transform="translate(-70.652 -88.907)"/><path class="n" d="M108.172,103.814a.669.669,0,0,0,0,1.269,2.467,2.467,0,0,0,2.208,0c.608-.356.608-.921,0-1.269A2.413,2.413,0,0,0,108.172,103.814Z" transform="translate(-72.853 -90.178)"/><path class="n" d="M104.6,101.746a.675.675,0,0,0,0,1.278,2.467,2.467,0,0,0,2.208,0,.675.675,0,0,0,0-1.278A2.467,2.467,0,0,0,104.6,101.746Z" transform="translate(-75.053 -91.449)"/><path class="n" d="M118.883,105.871a.675.675,0,0,0,0,1.278,2.467,2.467,0,0,0,2.208,0,.675.675,0,0,0,0-1.278A2.467,2.467,0,0,0,118.883,105.871Z" transform="translate(-66.25 -88.907)"/><path class="n" d="M115.313,103.814a.669.669,0,0,0,0,1.269,2.467,2.467,0,0,0,2.208,0c.608-.356.608-.921,0-1.269A2.413,2.413,0,0,0,115.313,103.814Z" transform="translate(-68.451 -90.178)"/><path class="n" d="M111.742,101.746a.675.675,0,0,0,0,1.278,2.467,2.467,0,0,0,2.208,0,.675.675,0,0,0,0-1.278A2.467,2.467,0,0,0,111.742,101.746Z" transform="translate(-70.652 -91.449)"/><path class="n" d="M108.172,99.687a.675.675,0,0,0,0,1.278,2.413,2.413,0,0,0,2.208,0,.675.675,0,0,0,0-1.278A2.467,2.467,0,0,0,108.172,99.687Z" transform="translate(-72.853 -92.718)"/><path class="n" d="M122.454,103.814a.669.669,0,0,0,0,1.269,2.467,2.467,0,0,0,2.208,0c.608-.356.608-.921,0-1.269A2.413,2.413,0,0,0,122.454,103.814Z" transform="translate(-64.049 -90.178)"/><path class="n" d="M118.883,101.746a.675.675,0,0,0,0,1.278,2.467,2.467,0,0,0,2.208,0,.675.675,0,0,0,0-1.278A2.467,2.467,0,0,0,118.883,101.746Z" transform="translate(-66.25 -91.449)"/><path class="n" d="M115.313,99.687a.675.675,0,0,0,0,1.278,2.413,2.413,0,0,0,2.208,0,.675.675,0,0,0,0-1.278A2.467,2.467,0,0,0,115.313,99.687Z" transform="translate(-68.451 -92.718)"/><path class="n" d="M111.742,97.622a.675.675,0,0,0,0,1.278,2.413,2.413,0,0,0,2.208,0,.675.675,0,0,0,0-1.278A2.467,2.467,0,0,0,111.742,97.622Z" transform="translate(-70.652 -93.991)"/><path class="n" d="M126.056,101.727a.675.675,0,0,0,0,1.278,2.467,2.467,0,0,0,2.208,0,.675.675,0,0,0,0-1.278A2.413,2.413,0,0,0,126.056,101.727Z" transform="translate(-61.829 -91.465)"/><path class="n" d="M122.486,99.668a.669.669,0,0,0,0,1.269,2.413,2.413,0,0,0,2.208,0,.669.669,0,0,0,0-1.269A2.413,2.413,0,0,0,122.486,99.668Z" transform="translate(-64.029 -92.734)"/><path class="n" d="M118.915,97.6a.675.675,0,0,0,0,1.278,2.467,2.467,0,0,0,2.208,0,.675.675,0,0,0,0-1.278A2.467,2.467,0,0,0,118.915,97.6Z" transform="translate(-66.23 -94.004)"/><path class="n" d="M115.345,95.543a.675.675,0,0,0,0,1.278,2.467,2.467,0,0,0,2.208,0,.675.675,0,0,0,0-1.278A2.413,2.413,0,0,0,115.345,95.543Z" transform="translate(-68.431 -95.276)"/><path class="n" d="M126.056,97.6a.675.675,0,0,0,0,1.278,2.467,2.467,0,0,0,2.208,0,.675.675,0,0,0,0-1.278A2.467,2.467,0,0,0,126.056,97.6Z" transform="translate(-61.829 -94.004)"/><path class="n" d="M122.486,95.543a.675.675,0,0,0,0,1.278,2.467,2.467,0,0,0,2.208,0,.675.675,0,0,0,0-1.278A2.413,2.413,0,0,0,122.486,95.543Z" transform="translate(-64.029 -95.276)"/><path class="n" d="M90.174,117.91a.675.675,0,0,0,0,1.278,2.413,2.413,0,0,0,2.208,0,.675.675,0,0,0,0-1.278A2.467,2.467,0,0,0,90.174,117.91Z" transform="translate(-83.946 -81.485)"/><path class="n" d="M86.6,115.851a.675.675,0,0,0,0,1.278,2.467,2.467,0,0,0,2.208,0,.675.675,0,0,0,0-1.278A2.467,2.467,0,0,0,86.6,115.851Z" transform="translate(-86.147 -82.755)"/><path class="n" d="M97.32,117.91a.675.675,0,0,0,0,1.278,2.413,2.413,0,0,0,2.208,0,.675.675,0,0,0,0-1.278A2.467,2.467,0,0,0,97.32,117.91Z" transform="translate(-79.541 -81.485)"/><path class="n" d="M93.744,115.851a.675.675,0,0,0,0,1.278,2.467,2.467,0,0,0,2.208,0,.675.675,0,0,0,0-1.278A2.467,2.467,0,0,0,93.744,115.851Z" transform="translate(-81.745 -82.755)"/><path class="n" d="M90.174,113.785a.675.675,0,0,0,0,1.278,2.413,2.413,0,0,0,2.208,0,.669.669,0,0,0,0-1.269,2.413,2.413,0,0,0-2.208,0Z" transform="translate(-83.946 -84.027)"/><path class="n" d="M86.6,111.727a.675.675,0,0,0,0,1.278,2.413,2.413,0,0,0,2.208,0,.675.675,0,0,0,0-1.278A2.467,2.467,0,0,0,86.6,111.727Z" transform="translate(-86.147 -85.297)"/><path class="n" d="M100.891,115.851a.675.675,0,0,0,0,1.278,2.467,2.467,0,0,0,2.208,0,.675.675,0,0,0,0-1.278A2.467,2.467,0,0,0,100.891,115.851Z" transform="translate(-77.34 -82.755)"/><path class="n" d="M97.32,113.789a.669.669,0,0,0,0,1.269,2.413,2.413,0,0,0,2.208,0,.669.669,0,0,0,0-1.269A2.413,2.413,0,0,0,97.32,113.789Z" transform="translate(-79.541 -84.03)"/><path class="n" d="M93.744,111.727a.675.675,0,0,0,0,1.278,2.413,2.413,0,0,0,2.208,0,.675.675,0,0,0,0-1.278A2.467,2.467,0,0,0,93.744,111.727Z" transform="translate(-81.745 -85.297)"/><path class="n" d="M90.174,109.664a.675.675,0,0,0,0,1.278,2.467,2.467,0,0,0,2.208,0,.675.675,0,0,0,0-1.278A2.413,2.413,0,0,0,90.174,109.664Z" transform="translate(-83.946 -86.572)"/><path class="n" d="M104.461,113.789a.669.669,0,0,0,0,1.269,2.413,2.413,0,0,0,2.208,0,.669.669,0,0,0,0-1.269A2.413,2.413,0,0,0,104.461,113.789Z" transform="translate(-75.139 -84.03)"/><path class="n" d="M100.891,111.727a.675.675,0,0,0,0,1.278,2.413,2.413,0,0,0,2.208,0,.675.675,0,0,0,0-1.278A2.467,2.467,0,0,0,100.891,111.727Z" transform="translate(-77.34 -85.297)"/><path class="n" d="M97.32,109.664a.675.675,0,0,0,0,1.278,2.467,2.467,0,0,0,2.208,0,.675.675,0,0,0,0-1.278A2.413,2.413,0,0,0,97.32,109.664Z" transform="translate(-79.541 -86.572)"/><path class="n" d="M93.744,107.6a.675.675,0,0,0,0,1.278,2.413,2.413,0,0,0,2.208,0,.675.675,0,0,0,0-1.278A2.467,2.467,0,0,0,93.744,107.6Z" transform="translate(-81.745 -87.839)"/></g><g transform="translate(133.474 150.674)"><path class="n" d="M104.6,110a.675.675,0,0,0,0,1.278,2.467,2.467,0,0,0,2.208,0,.675.675,0,0,0,0-1.278A2.467,2.467,0,0,0,104.6,110Z" transform="translate(-69.282 -83.035)"/><path class="n" d="M101.03,107.933a.675.675,0,0,0,0,1.278,2.467,2.467,0,0,0,2.208,0,.675.675,0,0,0,0-1.278A2.413,2.413,0,0,0,101.03,107.933Z" transform="translate(-71.483 -84.311)"/><path class="n" d="M97.46,105.871a.675.675,0,0,0,0,1.278,2.413,2.413,0,0,0,2.208,0,.675.675,0,0,0,0-1.278A2.467,2.467,0,0,0,97.46,105.871Z" transform="translate(-73.684 -85.578)"/><path class="n" d="M93.889,103.811a.675.675,0,0,0,0,1.278,2.467,2.467,0,0,0,2.208,0,.675.675,0,0,0,0-1.278A2.467,2.467,0,0,0,93.889,103.811Z" transform="translate(-75.884 -86.847)"/><path class="n" d="M108.172,107.933a.675.675,0,0,0,0,1.278,2.467,2.467,0,0,0,2.208,0,.675.675,0,0,0,0-1.278A2.413,2.413,0,0,0,108.172,107.933Z" transform="translate(-67.081 -84.311)"/><path class="n" d="M104.6,105.871a.675.675,0,0,0,0,1.278,2.413,2.413,0,0,0,2.208,0,.675.675,0,0,0,0-1.278A2.467,2.467,0,0,0,104.6,105.871Z" transform="translate(-69.282 -85.578)"/><path class="n" d="M101.03,103.811a.675.675,0,0,0,0,1.278,2.467,2.467,0,0,0,2.208,0,.675.675,0,0,0,0-1.278A2.467,2.467,0,0,0,101.03,103.811Z" transform="translate(-71.483 -86.847)"/><path class="n" d="M97.46,101.749a.669.669,0,0,0,0,1.269,2.413,2.413,0,0,0,2.208,0,.669.669,0,0,0,0-1.269A2.413,2.413,0,0,0,97.46,101.749Z" transform="translate(-73.684 -88.122)"/><path class="n" d="M111.742,105.871a.675.675,0,0,0,0,1.278,2.413,2.413,0,0,0,2.208,0,.675.675,0,0,0,0-1.278A2.467,2.467,0,0,0,111.742,105.871Z" transform="translate(-64.88 -85.578)"/><path class="n" d="M108.172,103.811a.675.675,0,0,0,0,1.278,2.467,2.467,0,0,0,2.208,0,.675.675,0,0,0,0-1.278A2.467,2.467,0,0,0,108.172,103.811Z" transform="translate(-67.081 -86.847)"/><path class="n" d="M104.6,101.749a.669.669,0,0,0,0,1.269,2.413,2.413,0,0,0,2.208,0,.669.669,0,0,0,0-1.269A2.413,2.413,0,0,0,104.6,101.749Z" transform="translate(-69.282 -88.122)"/><path class="n" d="M101.03,99.687a.675.675,0,0,0,0,1.278,2.413,2.413,0,0,0,2.208,0,.675.675,0,0,0,0-1.278A2.467,2.467,0,0,0,101.03,99.687Z" transform="translate(-71.483 -89.389)"/><path class="n" d="M115.313,103.811a.675.675,0,0,0,0,1.278,2.467,2.467,0,0,0,2.208,0,.675.675,0,0,0,0-1.278A2.467,2.467,0,0,0,115.313,103.811Z" transform="translate(-62.68 -86.847)"/><path class="n" d="M111.742,101.749a.669.669,0,0,0,0,1.269,2.413,2.413,0,0,0,2.208,0,.669.669,0,0,0,0-1.269A2.413,2.413,0,0,0,111.742,101.749Z" transform="translate(-64.88 -88.122)"/><path class="n" d="M108.172,99.687a.675.675,0,0,0,0,1.278,2.413,2.413,0,0,0,2.208,0,.675.675,0,0,0,0-1.278A2.467,2.467,0,0,0,108.172,99.687Z" transform="translate(-67.081 -89.389)"/><path class="n" d="M104.6,97.624a.675.675,0,0,0,0,1.278,2.467,2.467,0,0,0,2.208,0,.675.675,0,0,0,0-1.278A2.413,2.413,0,0,0,104.6,97.624Z" transform="translate(-69.282 -90.665)"/><path class="n" d="M118.883,101.749a.669.669,0,0,0,0,1.269,2.413,2.413,0,0,0,2.208,0,.669.669,0,0,0,0-1.269A2.413,2.413,0,0,0,118.883,101.749Z" transform="translate(-60.479 -88.122)"/><path class="n" d="M115.313,99.687a.675.675,0,0,0,0,1.278,2.413,2.413,0,0,0,2.208,0,.675.675,0,0,0,0-1.278A2.467,2.467,0,0,0,115.313,99.687Z" transform="translate(-62.68 -89.389)"/><path class="n" d="M111.742,97.624a.675.675,0,0,0,0,1.278,2.467,2.467,0,0,0,2.208,0,.675.675,0,0,0,0-1.278A2.413,2.413,0,0,0,111.742,97.624Z" transform="translate(-64.88 -90.665)"/><path class="n" d="M108.172,95.565a.675.675,0,0,0,0,1.278,2.467,2.467,0,0,0,2.208,0,.675.675,0,0,0,0-1.278A2.413,2.413,0,0,0,108.172,95.565Z" transform="translate(-67.081 -91.934)"/><path class="n" d="M122.486,99.668a.675.675,0,0,0,0,1.278,2.467,2.467,0,0,0,2.208,0,.675.675,0,0,0,0-1.278A2.413,2.413,0,0,0,122.486,99.668Z" transform="translate(-58.258 -89.405)"/><path class="n" d="M118.915,97.6a.669.669,0,0,0,0,1.269,2.413,2.413,0,0,0,2.208,0,.669.669,0,0,0,0-1.269A2.413,2.413,0,0,0,118.915,97.6Z" transform="translate(-60.459 -90.678)"/><path class="n" d="M115.345,95.541a.675.675,0,0,0,0,1.278,2.467,2.467,0,0,0,2.208,0,.675.675,0,0,0,0-1.278A2.467,2.467,0,0,0,115.345,95.541Z" transform="translate(-62.66 -91.945)"/><path class="n" d="M111.774,93.484a.675.675,0,0,0,0,1.278,2.467,2.467,0,0,0,2.208,0,.675.675,0,0,0,0-1.278A2.413,2.413,0,0,0,111.774,93.484Z" transform="translate(-64.86 -93.217)"/><path class="n" d="M122.486,95.541a.675.675,0,0,0,0,1.278,2.467,2.467,0,0,0,2.208,0,.675.675,0,0,0,0-1.278A2.467,2.467,0,0,0,122.486,95.541Z" transform="translate(-58.258 -91.945)"/><path class="n" d="M118.915,93.484a.675.675,0,0,0,0,1.278,2.467,2.467,0,0,0,2.208,0,.675.675,0,0,0,0-1.278A2.413,2.413,0,0,0,118.915,93.484Z" transform="translate(-60.459 -93.217)"/><path class="n" d="M86.6,115.851a.675.675,0,0,0,0,1.278,2.413,2.413,0,0,0,2.208,0,.675.675,0,0,0,0-1.278A2.467,2.467,0,0,0,86.6,115.851Z" transform="translate(-80.376 -79.426)"/><path class="n" d="M83.033,113.786a.675.675,0,0,0,0,1.278,2.467,2.467,0,0,0,2.208,0,.675.675,0,0,0,0-1.278A2.467,2.467,0,0,0,83.033,113.786Z" transform="translate(-82.576 -80.699)"/><path class="n" d="M93.744,115.851a.675.675,0,0,0,0,1.278,2.413,2.413,0,0,0,2.208,0,.675.675,0,0,0,0-1.278A2.467,2.467,0,0,0,93.744,115.851Z" transform="translate(-75.974 -79.426)"/><path class="n" d="M90.179,113.786a.675.675,0,0,0,0,1.278,2.467,2.467,0,0,0,2.208,0,.675.675,0,0,0,0-1.278A2.467,2.467,0,0,0,90.179,113.786Z" transform="translate(-78.171 -80.699)"/><path class="n" d="M86.6,111.726a.675.675,0,0,0,0,1.278,2.467,2.467,0,0,0,2.208,0c.608-.356.608-.921,0-1.269a2.413,2.413,0,0,0-2.208,0Z" transform="translate(-80.376 -81.967)"/><path class="n" d="M83.033,109.662a.675.675,0,0,0,0,1.278,2.413,2.413,0,0,0,2.208,0,.675.675,0,0,0,0-1.278A2.467,2.467,0,0,0,83.033,109.662Z" transform="translate(-82.576 -83.241)"/><path class="n" d="M97.32,113.786a.675.675,0,0,0,0,1.278,2.467,2.467,0,0,0,2.208,0,.675.675,0,0,0,0-1.278A2.467,2.467,0,0,0,97.32,113.786Z" transform="translate(-73.77 -80.699)"/><path class="n" d="M93.744,111.729a.669.669,0,0,0,0,1.269,2.467,2.467,0,0,0,2.208,0c.608-.356.608-.921,0-1.269A2.413,2.413,0,0,0,93.744,111.729Z" transform="translate(-75.974 -81.971)"/><path class="n" d="M90.179,109.662a.675.675,0,0,0,0,1.278,2.413,2.413,0,0,0,2.208,0,.675.675,0,0,0,0-1.278A2.467,2.467,0,0,0,90.179,109.662Z" transform="translate(-78.171 -83.241)"/><path class="n" d="M86.6,107.6a.675.675,0,0,0,0,1.278,2.467,2.467,0,0,0,2.208,0,.675.675,0,0,0,0-1.278A2.413,2.413,0,0,0,86.6,107.6Z" transform="translate(-80.376 -84.513)"/><path class="n" d="M100.891,111.729a.669.669,0,0,0,0,1.269,2.467,2.467,0,0,0,2.208,0c.608-.356.608-.921,0-1.269A2.413,2.413,0,0,0,100.891,111.729Z" transform="translate(-71.569 -81.971)"/><path class="n" d="M97.32,109.662a.675.675,0,0,0,0,1.278,2.413,2.413,0,0,0,2.208,0,.675.675,0,0,0,0-1.278A2.467,2.467,0,0,0,97.32,109.662Z" transform="translate(-73.77 -83.241)"/><path class="n" d="M93.744,107.6a.675.675,0,0,0,0,1.278,2.467,2.467,0,0,0,2.208,0,.675.675,0,0,0,0-1.278A2.413,2.413,0,0,0,93.744,107.6Z" transform="translate(-75.974 -84.513)"/><path class="n" d="M90.179,105.537a.675.675,0,0,0,0,1.278,2.413,2.413,0,0,0,2.208,0,.675.675,0,0,0,0-1.278A2.467,2.467,0,0,0,90.179,105.537Z" transform="translate(-78.171 -85.783)"/></g><g transform="translate(127.702 147.336)"><path class="n" d="M101.03,107.93a.675.675,0,0,0,0,1.278,2.467,2.467,0,0,0,2.208,0,.675.675,0,0,0,0-1.278A2.467,2.467,0,0,0,101.03,107.93Z" transform="translate(-65.711 -80.971)"/><path class="n" d="M97.46,105.873a.675.675,0,0,0,0,1.278,2.467,2.467,0,0,0,2.208,0,.675.675,0,0,0,0-1.278A2.413,2.413,0,0,0,97.46,105.873Z" transform="translate(-67.912 -82.242)"/><path class="n" d="M93.884,103.811a.675.675,0,0,0,0,1.278,2.413,2.413,0,0,0,2.208,0,.675.675,0,0,0,0-1.278A2.467,2.467,0,0,0,93.884,103.811Z" transform="translate(-70.116 -83.509)"/><path class="n" d="M90.319,101.746a.675.675,0,0,0,0,1.278,2.467,2.467,0,0,0,2.208,0,.675.675,0,0,0,0-1.278A2.467,2.467,0,0,0,90.319,101.746Z" transform="translate(-72.314 -84.782)"/><path class="n" d="M104.6,105.873a.675.675,0,0,0,0,1.278,2.467,2.467,0,0,0,2.208,0,.675.675,0,0,0,0-1.278A2.413,2.413,0,0,0,104.6,105.873Z" transform="translate(-63.511 -82.242)"/><path class="n" d="M101.03,103.811a.675.675,0,0,0,0,1.278,2.413,2.413,0,0,0,2.208,0,.675.675,0,0,0,0-1.278A2.467,2.467,0,0,0,101.03,103.811Z" transform="translate(-65.711 -83.509)"/><path class="n" d="M97.46,101.746a.675.675,0,0,0,0,1.278,2.467,2.467,0,0,0,2.208,0,.675.675,0,0,0,0-1.278A2.467,2.467,0,0,0,97.46,101.746Z" transform="translate(-67.912 -84.782)"/><path class="n" d="M93.884,99.689a.669.669,0,0,0,0,1.269,2.413,2.413,0,0,0,2.208,0,.669.669,0,0,0,0-1.269A2.413,2.413,0,0,0,93.884,99.689Z" transform="translate(-70.116 -86.054)"/><path class="n" d="M108.172,103.811a.675.675,0,0,0,0,1.278,2.413,2.413,0,0,0,2.208,0,.675.675,0,0,0,0-1.278A2.467,2.467,0,0,0,108.172,103.811Z" transform="translate(-61.31 -83.509)"/><path class="n" d="M104.6,101.746a.675.675,0,0,0,0,1.278,2.467,2.467,0,0,0,2.208,0,.675.675,0,0,0,0-1.278A2.467,2.467,0,0,0,104.6,101.746Z" transform="translate(-63.511 -84.782)"/><path class="n" d="M101.03,99.689a.669.669,0,0,0,0,1.269,2.413,2.413,0,0,0,2.208,0,.669.669,0,0,0,0-1.269A2.413,2.413,0,0,0,101.03,99.689Z" transform="translate(-65.711 -86.054)"/><path class="n" d="M97.46,97.622a.675.675,0,0,0,0,1.278,2.467,2.467,0,0,0,2.208,0,.675.675,0,0,0,0-1.278A2.467,2.467,0,0,0,97.46,97.622Z" transform="translate(-67.912 -87.324)"/><path class="n" d="M111.742,101.746a.675.675,0,0,0,0,1.278,2.467,2.467,0,0,0,2.208,0,.675.675,0,0,0,0-1.278A2.467,2.467,0,0,0,111.742,101.746Z" transform="translate(-59.109 -84.782)"/><path class="n" d="M108.172,99.689a.669.669,0,0,0,0,1.269,2.413,2.413,0,0,0,2.208,0,.669.669,0,0,0,0-1.269A2.413,2.413,0,0,0,108.172,99.689Z" transform="translate(-61.31 -86.054)"/><path class="n" d="M104.6,97.622a.675.675,0,0,0,0,1.278,2.467,2.467,0,0,0,2.208,0,.675.675,0,0,0,0-1.278A2.467,2.467,0,0,0,104.6,97.622Z" transform="translate(-63.511 -87.324)"/><path class="n" d="M101.03,95.562a.675.675,0,0,0,0,1.278,2.467,2.467,0,0,0,2.208,0,.675.675,0,0,0,0-1.278A2.467,2.467,0,0,0,101.03,95.562Z" transform="translate(-65.711 -88.594)"/><path class="n" d="M115.313,99.689a.669.669,0,0,0,0,1.269,2.413,2.413,0,0,0,2.208,0,.669.669,0,0,0,0-1.269A2.413,2.413,0,0,0,115.313,99.689Z" transform="translate(-56.908 -86.054)"/><path class="n" d="M111.742,97.622a.675.675,0,0,0,0,1.278,2.467,2.467,0,0,0,2.208,0,.675.675,0,0,0,0-1.278A2.467,2.467,0,0,0,111.742,97.622Z" transform="translate(-59.109 -87.324)"/><path class="n" d="M108.172,95.562a.675.675,0,0,0,0,1.278,2.467,2.467,0,0,0,2.208,0,.675.675,0,0,0,0-1.278A2.467,2.467,0,0,0,108.172,95.562Z" transform="translate(-61.31 -88.594)"/><path class="n" d="M104.6,93.5a.675.675,0,0,0,0,1.278,2.413,2.413,0,0,0,2.208,0,.675.675,0,0,0,0-1.278A2.467,2.467,0,0,0,104.6,93.5Z" transform="translate(-63.511 -89.867)"/><path class="n" d="M118.915,97.6a.675.675,0,0,0,0,1.278,2.467,2.467,0,0,0,2.208,0,.675.675,0,0,0,0-1.278A2.413,2.413,0,0,0,118.915,97.6Z" transform="translate(-54.688 -87.34)"/><path class="n" d="M115.345,95.543a.669.669,0,0,0,0,1.269,2.413,2.413,0,0,0,2.208,0,.669.669,0,0,0,0-1.269A2.413,2.413,0,0,0,115.345,95.543Z" transform="translate(-56.888 -88.61)"/><path class="n" d="M111.769,93.476a.675.675,0,0,0,0,1.278,2.467,2.467,0,0,0,2.208,0,.675.675,0,0,0,0-1.278A2.467,2.467,0,0,0,111.769,93.476Z" transform="translate(-59.092 -89.88)"/><path class="n" d="M108.2,91.419a.675.675,0,0,0,0,1.278,2.467,2.467,0,0,0,2.208,0,.675.675,0,0,0,0-1.278A2.413,2.413,0,0,0,108.2,91.419Z" transform="translate(-61.29 -91.152)"/><path class="n" d="M118.915,93.476a.675.675,0,0,0,0,1.278,2.467,2.467,0,0,0,2.208,0,.675.675,0,0,0,0-1.278A2.467,2.467,0,0,0,118.915,93.476Z" transform="translate(-54.688 -89.88)"/><path class="n" d="M115.345,91.419a.675.675,0,0,0,0,1.278,2.467,2.467,0,0,0,2.208,0,.675.675,0,0,0,0-1.278A2.413,2.413,0,0,0,115.345,91.419Z" transform="translate(-56.888 -91.152)"/><path class="n" d="M83.033,113.786a.675.675,0,0,0,0,1.278,2.413,2.413,0,0,0,2.208,0,.675.675,0,0,0,0-1.278A2.467,2.467,0,0,0,83.033,113.786Z" transform="translate(-76.805 -77.361)"/><path class="n" d="M79.462,111.727a.675.675,0,0,0,0,1.278,2.467,2.467,0,0,0,2.208,0,.675.675,0,0,0,0-1.278A2.467,2.467,0,0,0,79.462,111.727Z" transform="translate(-79.006 -78.631)"/><path class="n" d="M90.179,113.786a.675.675,0,0,0,0,1.278,2.413,2.413,0,0,0,2.208,0,.675.675,0,0,0,0-1.278A2.467,2.467,0,0,0,90.179,113.786Z" transform="translate(-72.4 -77.361)"/><path class="n" d="M86.6,111.727a.675.675,0,0,0,0,1.278,2.467,2.467,0,0,0,2.208,0,.675.675,0,0,0,0-1.278A2.467,2.467,0,0,0,86.6,111.727Z" transform="translate(-74.604 -78.631)"/><path class="n" d="M83.033,109.661a.675.675,0,0,0,0,1.278,2.413,2.413,0,0,0,2.208,0,.669.669,0,0,0,0-1.269,2.413,2.413,0,0,0-2.208,0Z" transform="translate(-76.805 -79.902)"/><path class="n" d="M79.462,107.6a.675.675,0,0,0,0,1.278,2.413,2.413,0,0,0,2.208,0,.675.675,0,0,0,0-1.278A2.467,2.467,0,0,0,79.462,107.6Z" transform="translate(-79.006 -81.173)"/><path class="n" d="M93.744,111.727a.675.675,0,0,0,0,1.278,2.467,2.467,0,0,0,2.208,0,.675.675,0,0,0,0-1.278A2.467,2.467,0,0,0,93.744,111.727Z" transform="translate(-70.203 -78.631)"/><path class="n" d="M90.179,109.664a.669.669,0,0,0,0,1.269,2.413,2.413,0,0,0,2.208,0,.669.669,0,0,0,0-1.269A2.413,2.413,0,0,0,90.179,109.664Z" transform="translate(-72.4 -79.906)"/><path class="n" d="M86.6,107.6a.675.675,0,0,0,0,1.278,2.413,2.413,0,0,0,2.208,0,.675.675,0,0,0,0-1.278A2.467,2.467,0,0,0,86.6,107.6Z" transform="translate(-74.604 -81.173)"/><path class="n" d="M83.033,105.54a.675.675,0,0,0,0,1.278,2.467,2.467,0,0,0,2.208,0,.675.675,0,0,0,0-1.278A2.413,2.413,0,0,0,83.033,105.54Z" transform="translate(-76.805 -82.448)"/><path class="n" d="M97.32,109.664a.669.669,0,0,0,0,1.269,2.413,2.413,0,0,0,2.208,0,.669.669,0,0,0,0-1.269A2.413,2.413,0,0,0,97.32,109.664Z" transform="translate(-67.998 -79.906)"/><path class="n" d="M93.744,107.6a.675.675,0,0,0,0,1.278,2.413,2.413,0,0,0,2.208,0,.675.675,0,0,0,0-1.278A2.467,2.467,0,0,0,93.744,107.6Z" transform="translate(-70.203 -81.173)"/><path class="n" d="M90.179,105.54a.675.675,0,0,0,0,1.278,2.467,2.467,0,0,0,2.208,0,.675.675,0,0,0,0-1.278A2.413,2.413,0,0,0,90.179,105.54Z" transform="translate(-72.4 -82.448)"/><path class="n" d="M86.6,103.478a.675.675,0,0,0,0,1.278,2.413,2.413,0,0,0,2.208,0,.675.675,0,0,0,0-1.278A2.467,2.467,0,0,0,86.6,103.478Z" transform="translate(-74.604 -83.715)"/></g><g transform="translate(121.931 144.007)"><path class="n" d="M97.46,105.871a.675.675,0,0,0,0,1.278,2.413,2.413,0,0,0,2.208,0,.675.675,0,0,0,0-1.278A2.467,2.467,0,0,0,97.46,105.871Z" transform="translate(-62.141 -78.911)"/><path class="n" d="M93.884,103.814a.675.675,0,0,0,0,1.278,2.467,2.467,0,0,0,2.208,0,.675.675,0,0,0,0-1.278A2.413,2.413,0,0,0,93.884,103.814Z" transform="translate(-64.345 -80.183)"/><path class="n" d="M90.314,101.746a.675.675,0,0,0,0,1.278,2.413,2.413,0,0,0,2.208,0,.675.675,0,0,0,0-1.278A2.467,2.467,0,0,0,90.314,101.746Z" transform="translate(-66.546 -81.453)"/><path class="n" d="M86.743,99.687a.675.675,0,0,0,0,1.278,2.467,2.467,0,0,0,2.208,0,.675.675,0,0,0,0-1.278A2.467,2.467,0,0,0,86.743,99.687Z" transform="translate(-68.747 -82.723)"/><path class="n" d="M101.025,103.814a.675.675,0,0,0,0,1.278,2.467,2.467,0,0,0,2.208,0,.675.675,0,0,0,0-1.278A2.413,2.413,0,0,0,101.025,103.814Z" transform="translate(-59.943 -80.183)"/><path class="n" d="M97.46,101.746a.675.675,0,0,0,0,1.278,2.413,2.413,0,0,0,2.208,0,.675.675,0,0,0,0-1.278A2.467,2.467,0,0,0,97.46,101.746Z" transform="translate(-62.141 -81.453)"/><path class="n" d="M93.884,99.687a.675.675,0,0,0,0,1.278,2.467,2.467,0,0,0,2.208,0,.675.675,0,0,0,0-1.278A2.467,2.467,0,0,0,93.884,99.687Z" transform="translate(-64.345 -82.723)"/><path class="n" d="M90.314,97.624a.669.669,0,0,0,0,1.269,2.413,2.413,0,0,0,2.208,0,.669.669,0,0,0,0-1.269A2.413,2.413,0,0,0,90.314,97.624Z" transform="translate(-66.546 -83.998)"/><path class="n" d="M104.6,101.746a.675.675,0,0,0,0,1.278,2.413,2.413,0,0,0,2.208,0,.675.675,0,0,0,0-1.278A2.467,2.467,0,0,0,104.6,101.746Z" transform="translate(-57.739 -81.453)"/><path class="n" d="M101.025,99.687a.675.675,0,0,0,0,1.278,2.467,2.467,0,0,0,2.208,0,.675.675,0,0,0,0-1.278A2.467,2.467,0,0,0,101.025,99.687Z" transform="translate(-59.943 -82.723)"/><path class="n" d="M97.46,97.624a.669.669,0,0,0,0,1.269,2.413,2.413,0,0,0,2.208,0,.669.669,0,0,0,0-1.269A2.413,2.413,0,0,0,97.46,97.624Z" transform="translate(-62.141 -83.998)"/><path class="n" d="M93.884,95.562a.675.675,0,0,0,0,1.278,2.413,2.413,0,0,0,2.208,0,.675.675,0,0,0,0-1.278A2.467,2.467,0,0,0,93.884,95.562Z" transform="translate(-64.345 -85.265)"/><path class="n" d="M108.172,99.687a.675.675,0,0,0,0,1.278,2.467,2.467,0,0,0,2.208,0,.675.675,0,0,0,0-1.278A2.467,2.467,0,0,0,108.172,99.687Z" transform="translate(-55.539 -82.723)"/><path class="n" d="M104.6,97.624a.669.669,0,0,0,0,1.269,2.413,2.413,0,0,0,2.208,0,.669.669,0,0,0,0-1.269A2.413,2.413,0,0,0,104.6,97.624Z" transform="translate(-57.739 -83.998)"/><path class="n" d="M101.025,95.562a.675.675,0,0,0,0,1.278,2.413,2.413,0,0,0,2.208,0,.675.675,0,0,0,0-1.278A2.467,2.467,0,0,0,101.025,95.562Z" transform="translate(-59.943 -85.265)"/><path class="n" d="M97.46,93.505a.669.669,0,0,0,0,1.269,2.413,2.413,0,0,0,2.208,0,.669.669,0,0,0,0-1.269A2.413,2.413,0,0,0,97.46,93.505Z" transform="translate(-62.141 -86.537)"/><path class="n" d="M111.742,97.624a.669.669,0,0,0,0,1.269,2.413,2.413,0,0,0,2.208,0,.669.669,0,0,0,0-1.269A2.413,2.413,0,0,0,111.742,97.624Z" transform="translate(-53.338 -83.998)"/><path class="n" d="M108.172,95.562a.675.675,0,0,0,0,1.278,2.413,2.413,0,0,0,2.208,0,.675.675,0,0,0,0-1.278A2.467,2.467,0,0,0,108.172,95.562Z" transform="translate(-55.539 -85.265)"/><path class="n" d="M104.6,93.505a.669.669,0,0,0,0,1.269,2.413,2.413,0,0,0,2.208,0,.669.669,0,0,0,0-1.269A2.413,2.413,0,0,0,104.6,93.505Z" transform="translate(-57.739 -86.537)"/><path class="n" d="M101.025,91.441a.675.675,0,0,0,0,1.278,2.467,2.467,0,0,0,2.208,0,.675.675,0,0,0,0-1.278A2.413,2.413,0,0,0,101.025,91.441Z" transform="translate(-59.943 -87.81)"/><path class="n" d="M115.345,95.543a.675.675,0,0,0,0,1.278,2.467,2.467,0,0,0,2.208,0,.675.675,0,0,0,0-1.278A2.413,2.413,0,0,0,115.345,95.543Z" transform="translate(-51.117 -85.281)"/><path class="n" d="M111.769,93.484a.669.669,0,0,0,0,1.269,2.413,2.413,0,0,0,2.208,0,.669.669,0,0,0,0-1.269A2.413,2.413,0,0,0,111.769,93.484Z" transform="translate(-53.321 -86.55)"/><path class="n" d="M108.2,91.417a.675.675,0,0,0,0,1.278,2.467,2.467,0,0,0,2.208,0,.675.675,0,0,0,0-1.278A2.467,2.467,0,0,0,108.2,91.417Z" transform="translate(-55.522 -87.82)"/><path class="n" d="M104.628,89.36a.675.675,0,0,0,0,1.278,2.467,2.467,0,0,0,2.208,0,.675.675,0,0,0,0-1.278A2.413,2.413,0,0,0,104.628,89.36Z" transform="translate(-57.723 -89.092)"/><path class="n" d="M115.345,91.417a.675.675,0,0,0,0,1.278,2.467,2.467,0,0,0,2.208,0,.675.675,0,0,0,0-1.278A2.467,2.467,0,0,0,115.345,91.417Z" transform="translate(-51.117 -87.82)"/><path class="n" d="M111.769,89.36a.675.675,0,0,0,0,1.278,2.467,2.467,0,0,0,2.208,0,.675.675,0,0,0,0-1.278A2.413,2.413,0,0,0,111.769,89.36Z" transform="translate(-53.321 -89.092)"/><path class="n" d="M79.462,111.727a.675.675,0,0,0,0,1.278,2.413,2.413,0,0,0,2.208,0,.675.675,0,0,0,0-1.278A2.467,2.467,0,0,0,79.462,111.727Z" transform="translate(-73.234 -75.302)"/><path class="n" d="M75.892,109.662a.675.675,0,0,0,0,1.278,2.467,2.467,0,0,0,2.208,0,.675.675,0,0,0,0-1.278A2.467,2.467,0,0,0,75.892,109.662Z" transform="translate(-75.435 -76.574)"/><path class="n" d="M86.6,111.727a.675.675,0,0,0,0,1.278,2.413,2.413,0,0,0,2.208,0,.675.675,0,0,0,0-1.278A2.467,2.467,0,0,0,86.6,111.727Z" transform="translate(-68.833 -75.302)"/><path class="n" d="M83.033,109.662a.675.675,0,0,0,0,1.278,2.467,2.467,0,0,0,2.208,0,.675.675,0,0,0,0-1.278A2.467,2.467,0,0,0,83.033,109.662Z" transform="translate(-71.034 -76.574)"/><path class="n" d="M79.462,107.6a.675.675,0,0,0,0,1.278,2.467,2.467,0,0,0,2.208,0c.608-.356.608-.921,0-1.269a2.413,2.413,0,0,0-2.208,0Z" transform="translate(-73.234 -77.843)"/><path class="n" d="M75.892,105.537a.675.675,0,0,0,0,1.278,2.413,2.413,0,0,0,2.208,0,.675.675,0,0,0,0-1.278A2.467,2.467,0,0,0,75.892,105.537Z" transform="translate(-75.435 -79.117)"/><path class="n" d="M90.179,109.662a.675.675,0,0,0,0,1.278,2.467,2.467,0,0,0,2.208,0,.675.675,0,0,0,0-1.278A2.467,2.467,0,0,0,90.179,109.662Z" transform="translate(-66.629 -76.574)"/><path class="n" d="M86.6,107.6a.669.669,0,0,0,0,1.269,2.467,2.467,0,0,0,2.208,0c.608-.356.608-.921,0-1.269A2.413,2.413,0,0,0,86.6,107.6Z" transform="translate(-68.833 -77.846)"/><path class="n" d="M83.033,105.537a.675.675,0,0,0,0,1.278,2.413,2.413,0,0,0,2.208,0,.675.675,0,0,0,0-1.278A2.467,2.467,0,0,0,83.033,105.537Z" transform="translate(-71.034 -79.117)"/><path class="n" d="M79.462,103.48a.675.675,0,0,0,0,1.278,2.467,2.467,0,0,0,2.208,0,.675.675,0,0,0,0-1.278A2.413,2.413,0,0,0,79.462,103.48Z" transform="translate(-73.234 -80.388)"/><path class="n" d="M93.744,107.6a.669.669,0,0,0,0,1.269,2.467,2.467,0,0,0,2.208,0c.608-.356.608-.921,0-1.269A2.413,2.413,0,0,0,93.744,107.6Z" transform="translate(-64.431 -77.846)"/><path class="n" d="M90.179,105.537a.675.675,0,0,0,0,1.278,2.413,2.413,0,0,0,2.208,0,.675.675,0,0,0,0-1.278A2.467,2.467,0,0,0,90.179,105.537Z" transform="translate(-66.629 -79.117)"/><path class="n" d="M86.6,103.48a.675.675,0,0,0,0,1.278,2.467,2.467,0,0,0,2.208,0,.675.675,0,0,0,0-1.278A2.413,2.413,0,0,0,86.6,103.48Z" transform="translate(-68.833 -80.388)"/><path class="n" d="M83.033,101.418a.675.675,0,0,0,0,1.278,2.413,2.413,0,0,0,2.208,0,.675.675,0,0,0,0-1.278A2.467,2.467,0,0,0,83.033,101.418Z" transform="translate(-71.034 -81.655)"/></g><g transform="translate(116.16 140.67)"><path class="n" d="M93.884,103.811a.675.675,0,0,0,0,1.278,2.467,2.467,0,0,0,2.208,0,.675.675,0,0,0,0-1.278A2.467,2.467,0,0,0,93.884,103.811Z" transform="translate(-58.574 -76.843)"/><path class="n" d="M90.314,101.749a.675.675,0,0,0,0,1.278,2.467,2.467,0,0,0,2.208,0,.675.675,0,0,0,0-1.278A2.413,2.413,0,0,0,90.314,101.749Z" transform="translate(-60.775 -78.118)"/><path class="n" d="M86.743,99.687a.675.675,0,0,0,0,1.278,2.413,2.413,0,0,0,2.208,0,.675.675,0,0,0,0-1.278A2.467,2.467,0,0,0,86.743,99.687Z" transform="translate(-62.975 -79.385)"/><path class="n" d="M83.172,97.622a.675.675,0,0,0,0,1.278,2.467,2.467,0,0,0,2.208,0,.675.675,0,0,0,0-1.278A2.467,2.467,0,0,0,83.172,97.622Z" transform="translate(-65.176 -80.658)"/><path class="n" d="M97.46,101.749a.675.675,0,0,0,0,1.278,2.467,2.467,0,0,0,2.208,0,.675.675,0,0,0,0-1.278A2.413,2.413,0,0,0,97.46,101.749Z" transform="translate(-56.37 -78.118)"/><path class="n" d="M93.884,99.687a.675.675,0,0,0,0,1.278,2.413,2.413,0,0,0,2.208,0,.675.675,0,0,0,0-1.278A2.467,2.467,0,0,0,93.884,99.687Z" transform="translate(-58.574 -79.385)"/><path class="n" d="M90.314,97.622a.675.675,0,0,0,0,1.278,2.467,2.467,0,0,0,2.208,0,.675.675,0,0,0,0-1.278A2.467,2.467,0,0,0,90.314,97.622Z" transform="translate(-60.775 -80.658)"/><path class="n" d="M86.743,95.565a.669.669,0,0,0,0,1.269,2.413,2.413,0,0,0,2.208,0,.669.669,0,0,0,0-1.269A2.413,2.413,0,0,0,86.743,95.565Z" transform="translate(-62.975 -81.93)"/><path class="n" d="M101.03,99.687a.675.675,0,0,0,0,1.278,2.413,2.413,0,0,0,2.208,0,.675.675,0,0,0,0-1.278A2.467,2.467,0,0,0,101.03,99.687Z" transform="translate(-54.169 -79.385)"/><path class="n" d="M97.46,97.622a.675.675,0,0,0,0,1.278,2.467,2.467,0,0,0,2.208,0,.675.675,0,0,0,0-1.278A2.467,2.467,0,0,0,97.46,97.622Z" transform="translate(-56.37 -80.658)"/><path class="n" d="M93.884,95.565a.669.669,0,0,0,0,1.269,2.413,2.413,0,0,0,2.208,0,.669.669,0,0,0,0-1.269A2.413,2.413,0,0,0,93.884,95.565Z" transform="translate(-58.574 -81.93)"/><path class="n" d="M90.314,93.5a.675.675,0,0,0,0,1.278,2.467,2.467,0,0,0,2.208,0,.675.675,0,0,0,0-1.278A2.467,2.467,0,0,0,90.314,93.5Z" transform="translate(-60.775 -83.2)"/><path class="n" d="M104.6,97.622a.675.675,0,0,0,0,1.278,2.467,2.467,0,0,0,2.208,0,.675.675,0,0,0,0-1.278A2.467,2.467,0,0,0,104.6,97.622Z" transform="translate(-51.968 -80.658)"/><path class="n" d="M101.025,95.565a.669.669,0,0,0,0,1.269,2.413,2.413,0,0,0,2.208,0,.669.669,0,0,0,0-1.269A2.413,2.413,0,0,0,101.025,95.565Z" transform="translate(-54.172 -81.93)"/><path class="n" d="M97.46,93.5a.675.675,0,0,0,0,1.278,2.467,2.467,0,0,0,2.208,0,.675.675,0,0,0,0-1.278A2.467,2.467,0,0,0,97.46,93.5Z" transform="translate(-56.37 -83.2)"/><path class="n" d="M93.884,91.441a.675.675,0,0,0,0,1.278,2.467,2.467,0,0,0,2.208,0,.675.675,0,0,0,0-1.278A2.413,2.413,0,0,0,93.884,91.441Z" transform="translate(-58.574 -84.472)"/><path class="n" d="M108.172,95.565a.669.669,0,0,0,0,1.269,2.413,2.413,0,0,0,2.208,0,.669.669,0,0,0,0-1.269A2.413,2.413,0,0,0,108.172,95.565Z" transform="translate(-49.767 -81.93)"/><path class="n" d="M104.6,93.5a.675.675,0,0,0,0,1.278,2.467,2.467,0,0,0,2.208,0,.675.675,0,0,0,0-1.278A2.467,2.467,0,0,0,104.6,93.5Z" transform="translate(-51.968 -83.2)"/><path class="n" d="M101.025,91.441a.675.675,0,0,0,0,1.278,2.467,2.467,0,0,0,2.208,0,.675.675,0,0,0,0-1.278A2.413,2.413,0,0,0,101.025,91.441Z" transform="translate(-54.172 -84.472)"/><path class="n" d="M97.46,89.379a.675.675,0,0,0,0,1.278,2.413,2.413,0,0,0,2.208,0,.675.675,0,0,0,0-1.278A2.467,2.467,0,0,0,97.46,89.379Z" transform="translate(-56.37 -85.739)"/><path class="n" d="M111.769,93.484a.675.675,0,0,0,0,1.278,2.467,2.467,0,0,0,2.208,0,.675.675,0,0,0,0-1.278A2.413,2.413,0,0,0,111.769,93.484Z" transform="translate(-47.55 -83.212)"/><path class="n" d="M108.2,91.419a.669.669,0,0,0,0,1.269,2.413,2.413,0,0,0,2.208,0,.669.669,0,0,0,0-1.269A2.413,2.413,0,0,0,108.2,91.419Z" transform="translate(-49.751 -84.485)"/><path class="n" d="M104.628,89.357a.675.675,0,0,0,0,1.278,2.467,2.467,0,0,0,2.208,0,.675.675,0,0,0,0-1.278A2.467,2.467,0,0,0,104.628,89.357Z" transform="translate(-51.951 -85.752)"/><path class="n" d="M101.057,87.295a.675.675,0,0,0,0,1.278,2.467,2.467,0,0,0,2.208,0,.675.675,0,0,0,0-1.278A2.413,2.413,0,0,0,101.057,87.295Z" transform="translate(-54.152 -87.027)"/><path class="n" d="M111.769,89.357a.675.675,0,0,0,0,1.278,2.467,2.467,0,0,0,2.208,0,.675.675,0,0,0,0-1.278A2.467,2.467,0,0,0,111.769,89.357Z" transform="translate(-47.55 -85.752)"/><path class="n" d="M108.2,87.295a.675.675,0,0,0,0,1.278,2.467,2.467,0,0,0,2.208,0,.675.675,0,0,0,0-1.278A2.413,2.413,0,0,0,108.2,87.295Z" transform="translate(-49.751 -87.027)"/><path class="n" d="M75.892,109.662a.675.675,0,0,0,0,1.278,2.413,2.413,0,0,0,2.208,0,.675.675,0,0,0,0-1.278A2.467,2.467,0,0,0,75.892,109.662Z" transform="translate(-69.664 -73.237)"/><path class="n" d="M72.321,107.6a.675.675,0,0,0,0,1.278,2.467,2.467,0,0,0,2.208,0,.675.675,0,0,0,0-1.278A2.467,2.467,0,0,0,72.321,107.6Z" transform="translate(-71.865 -74.506)"/><path class="n" d="M83.033,109.662a.675.675,0,0,0,0,1.278,2.413,2.413,0,0,0,2.208,0,.675.675,0,0,0,0-1.278A2.467,2.467,0,0,0,83.033,109.662Z" transform="translate(-65.262 -73.237)"/><path class="n" d="M79.462,107.6a.675.675,0,0,0,0,1.278,2.467,2.467,0,0,0,2.208,0,.675.675,0,0,0,0-1.278A2.467,2.467,0,0,0,79.462,107.6Z" transform="translate(-67.463 -74.506)"/><path class="n" d="M75.892,105.537a.675.675,0,0,0,0,1.278,2.413,2.413,0,0,0,2.208,0,.669.669,0,0,0,0-1.269,2.413,2.413,0,0,0-2.208,0Z" transform="translate(-69.664 -75.778)"/><path class="n" d="M72.321,103.478a.675.675,0,0,0,0,1.278,2.413,2.413,0,0,0,2.208,0,.675.675,0,0,0,0-1.278A2.467,2.467,0,0,0,72.321,103.478Z" transform="translate(-71.865 -77.048)"/><path class="n" d="M86.6,107.6a.675.675,0,0,0,0,1.278,2.467,2.467,0,0,0,2.208,0,.675.675,0,0,0,0-1.278A2.467,2.467,0,0,0,86.6,107.6Z" transform="translate(-63.062 -74.506)"/><path class="n" d="M83.033,105.545a.669.669,0,0,0,0,1.269,2.413,2.413,0,0,0,2.208,0,.669.669,0,0,0,0-1.269A2.413,2.413,0,0,0,83.033,105.545Z" transform="translate(-65.262 -75.778)"/><path class="n" d="M79.462,103.478a.675.675,0,0,0,0,1.278,2.413,2.413,0,0,0,2.208,0,.675.675,0,0,0,0-1.278A2.467,2.467,0,0,0,79.462,103.478Z" transform="translate(-67.463 -77.048)"/><path class="n" d="M75.892,101.421a.675.675,0,0,0,0,1.278,2.467,2.467,0,0,0,2.208,0,.675.675,0,0,0,0-1.278A2.413,2.413,0,0,0,75.892,101.421Z" transform="translate(-69.664 -78.32)"/><path class="n" d="M90.174,105.545a.669.669,0,0,0,0,1.269,2.413,2.413,0,0,0,2.208,0,.669.669,0,0,0,0-1.269A2.413,2.413,0,0,0,90.174,105.545Z" transform="translate(-60.861 -75.778)"/><path class="n" d="M86.6,103.478a.675.675,0,0,0,0,1.278,2.413,2.413,0,0,0,2.208,0,.675.675,0,0,0,0-1.278A2.467,2.467,0,0,0,86.6,103.478Z" transform="translate(-63.062 -77.048)"/><path class="n" d="M83.033,101.421a.675.675,0,0,0,0,1.278,2.467,2.467,0,0,0,2.208,0,.675.675,0,0,0,0-1.278A2.413,2.413,0,0,0,83.033,101.421Z" transform="translate(-65.262 -78.32)"/><path class="n" d="M79.462,99.353a.675.675,0,0,0,0,1.278,2.413,2.413,0,0,0,2.208,0,.675.675,0,0,0,0-1.278A2.467,2.467,0,0,0,79.462,99.353Z" transform="translate(-67.463 -79.591)"/></g><g transform="translate(110.388 137.341)"><path class="n" d="M90.314,101.746a.675.675,0,0,0,0,1.278,2.467,2.467,0,0,0,2.208,0,.675.675,0,0,0,0-1.278A2.467,2.467,0,0,0,90.314,101.746Z" transform="translate(-55.003 -74.787)"/><path class="n" d="M86.743,99.689a.675.675,0,0,0,0,1.278,2.467,2.467,0,0,0,2.208,0,.675.675,0,0,0,0-1.278A2.413,2.413,0,0,0,86.743,99.689Z" transform="translate(-57.204 -76.059)"/><path class="n" d="M83.172,97.622a.675.675,0,0,0,0,1.278,2.413,2.413,0,0,0,2.208,0,.675.675,0,0,0,0-1.278A2.467,2.467,0,0,0,83.172,97.622Z" transform="translate(-59.405 -77.329)"/><path class="n" d="M79.6,95.562a.675.675,0,0,0,0,1.278,2.467,2.467,0,0,0,2.208,0,.675.675,0,0,0,0-1.278A2.467,2.467,0,0,0,79.6,95.562Z" transform="translate(-61.606 -78.598)"/><path class="n" d="M93.884,99.689a.675.675,0,0,0,0,1.278,2.467,2.467,0,0,0,2.208,0,.675.675,0,0,0,0-1.278A2.413,2.413,0,0,0,93.884,99.689Z" transform="translate(-52.802 -76.059)"/><path class="n" d="M90.314,97.622a.675.675,0,0,0,0,1.278,2.413,2.413,0,0,0,2.208,0,.675.675,0,0,0,0-1.278A2.467,2.467,0,0,0,90.314,97.622Z" transform="translate(-55.003 -77.329)"/><path class="n" d="M86.743,95.562a.675.675,0,0,0,0,1.278,2.467,2.467,0,0,0,2.208,0,.675.675,0,0,0,0-1.278A2.467,2.467,0,0,0,86.743,95.562Z" transform="translate(-57.204 -78.598)"/><path class="n" d="M83.172,93.505a.669.669,0,0,0,0,1.269,2.413,2.413,0,0,0,2.208,0,.669.669,0,0,0,0-1.269A2.413,2.413,0,0,0,83.172,93.505Z" transform="translate(-59.405 -79.87)"/><path class="n" d="M97.46,97.622a.675.675,0,0,0,0,1.278,2.413,2.413,0,0,0,2.208,0,.675.675,0,0,0,0-1.278A2.467,2.467,0,0,0,97.46,97.622Z" transform="translate(-50.598 -77.329)"/><path class="n" d="M93.884,95.562a.675.675,0,0,0,0,1.278,2.467,2.467,0,0,0,2.208,0,.675.675,0,0,0,0-1.278A2.467,2.467,0,0,0,93.884,95.562Z" transform="translate(-52.802 -78.598)"/><path class="n" d="M90.314,93.505a.669.669,0,0,0,0,1.269,2.413,2.413,0,0,0,2.208,0,.669.669,0,0,0,0-1.269A2.413,2.413,0,0,0,90.314,93.505Z" transform="translate(-55.003 -79.87)"/><path class="n" d="M86.743,91.438a.675.675,0,0,0,0,1.278,2.467,2.467,0,0,0,2.208,0,.675.675,0,0,0,0-1.278A2.467,2.467,0,0,0,86.743,91.438Z" transform="translate(-57.204 -81.141)"/><path class="n" d="M101.025,95.562a.675.675,0,0,0,0,1.278,2.467,2.467,0,0,0,2.208,0,.675.675,0,0,0,0-1.278A2.467,2.467,0,0,0,101.025,95.562Z" transform="translate(-48.401 -78.598)"/><path class="n" d="M97.455,93.505a.669.669,0,0,0,0,1.269,2.413,2.413,0,0,0,2.208,0,.669.669,0,0,0,0-1.269A2.413,2.413,0,0,0,97.455,93.505Z" transform="translate(-50.602 -79.87)"/><path class="n" d="M93.884,91.438a.675.675,0,0,0,0,1.278,2.467,2.467,0,0,0,2.208,0,.675.675,0,0,0,0-1.278A2.467,2.467,0,0,0,93.884,91.438Z" transform="translate(-52.802 -81.141)"/><path class="n" d="M90.314,89.381a.669.669,0,0,0,0,1.269,2.413,2.413,0,0,0,2.208,0,.669.669,0,0,0,0-1.269A2.413,2.413,0,0,0,90.314,89.381Z" transform="translate(-55.003 -82.412)"/><path class="n" d="M104.6,93.505a.669.669,0,0,0,0,1.269,2.413,2.413,0,0,0,2.208,0,.669.669,0,0,0,0-1.269A2.413,2.413,0,0,0,104.6,93.505Z" transform="translate(-46.197 -79.87)"/><path class="n" d="M101.025,91.438a.675.675,0,0,0,0,1.278,2.467,2.467,0,0,0,2.208,0,.675.675,0,0,0,0-1.278A2.467,2.467,0,0,0,101.025,91.438Z" transform="translate(-48.401 -81.141)"/><path class="n" d="M97.455,89.381a.669.669,0,0,0,0,1.269,2.413,2.413,0,0,0,2.208,0,.669.669,0,0,0,0-1.269A2.413,2.413,0,0,0,97.455,89.381Z" transform="translate(-50.602 -82.412)"/><path class="n" d="M93.884,87.316a.675.675,0,0,0,0,1.278,2.467,2.467,0,0,0,2.208,0,.675.675,0,0,0,0-1.278A2.413,2.413,0,0,0,93.884,87.316Z" transform="translate(-52.802 -83.685)"/><path class="n" d="M108.2,91.419a.675.675,0,0,0,0,1.278,2.467,2.467,0,0,0,2.208,0,.675.675,0,0,0,0-1.278A2.413,2.413,0,0,0,108.2,91.419Z" transform="translate(-43.976 -81.156)"/><path class="n" d="M104.628,89.36a.669.669,0,0,0,0,1.269,2.413,2.413,0,0,0,2.208,0,.669.669,0,0,0,0-1.269A2.413,2.413,0,0,0,104.628,89.36Z" transform="translate(-46.18 -82.426)"/><path class="n" d="M101.057,87.292a.675.675,0,0,0,0,1.278,2.467,2.467,0,0,0,2.208,0,.675.675,0,0,0,0-1.278A2.467,2.467,0,0,0,101.057,87.292Z" transform="translate(-48.381 -83.696)"/><path class="n" d="M97.487,85.235a.675.675,0,0,0,0,1.278,2.467,2.467,0,0,0,2.208,0,.675.675,0,0,0,0-1.278A2.413,2.413,0,0,0,97.487,85.235Z" transform="translate(-50.582 -84.968)"/><path class="n" d="M108.2,87.292a.675.675,0,0,0,0,1.278,2.467,2.467,0,0,0,2.208,0,.675.675,0,0,0,0-1.278A2.467,2.467,0,0,0,108.2,87.292Z" transform="translate(-43.976 -83.696)"/><path class="n" d="M104.628,85.235a.675.675,0,0,0,0,1.278,2.467,2.467,0,0,0,2.208,0,.675.675,0,0,0,0-1.278A2.413,2.413,0,0,0,104.628,85.235Z" transform="translate(-46.18 -84.968)"/><path class="n" d="M72.321,107.6a.675.675,0,0,0,0,1.278,2.413,2.413,0,0,0,2.208,0,.675.675,0,0,0,0-1.278A2.467,2.467,0,0,0,72.321,107.6Z" transform="translate(-66.093 -71.177)"/><path class="n" d="M68.751,105.537a.675.675,0,0,0,0,1.278,2.467,2.467,0,0,0,2.208,0,.675.675,0,0,0,0-1.278A2.467,2.467,0,0,0,68.751,105.537Z" transform="translate(-68.294 -72.45)"/><path class="n" d="M79.462,107.6a.675.675,0,0,0,0,1.278,2.413,2.413,0,0,0,2.208,0,.675.675,0,0,0,0-1.278A2.467,2.467,0,0,0,79.462,107.6Z" transform="translate(-61.692 -71.177)"/><path class="n" d="M75.892,105.537a.675.675,0,0,0,0,1.278,2.467,2.467,0,0,0,2.208,0,.675.675,0,0,0,0-1.278A2.467,2.467,0,0,0,75.892,105.537Z" transform="translate(-63.893 -72.45)"/><path class="n" d="M72.321,103.477a.675.675,0,0,0,0,1.278,2.467,2.467,0,0,0,2.208,0c.608-.356.608-.921,0-1.269a2.413,2.413,0,0,0-2.208,0Z" transform="translate(-66.093 -73.719)"/><path class="n" d="M68.751,101.418a.675.675,0,0,0,0,1.278,2.413,2.413,0,0,0,2.208,0,.675.675,0,0,0,0-1.278A2.467,2.467,0,0,0,68.751,101.418Z" transform="translate(-68.294 -74.989)"/><path class="n" d="M83.033,105.537a.675.675,0,0,0,0,1.278,2.467,2.467,0,0,0,2.208,0,.675.675,0,0,0,0-1.278A2.467,2.467,0,0,0,83.033,105.537Z" transform="translate(-59.491 -72.45)"/><path class="n" d="M79.462,103.48a.669.669,0,0,0,0,1.269,2.467,2.467,0,0,0,2.208,0c.608-.356.608-.921,0-1.269A2.413,2.413,0,0,0,79.462,103.48Z" transform="translate(-61.692 -73.722)"/><path class="n" d="M75.892,101.418a.675.675,0,0,0,0,1.278,2.413,2.413,0,0,0,2.208,0,.675.675,0,0,0,0-1.278A2.467,2.467,0,0,0,75.892,101.418Z" transform="translate(-63.893 -74.989)"/><path class="n" d="M72.321,99.356a.675.675,0,0,0,0,1.278,2.467,2.467,0,0,0,2.208,0,.675.675,0,0,0,0-1.278A2.413,2.413,0,0,0,72.321,99.356Z" transform="translate(-66.093 -76.264)"/><path class="n" d="M86.6,103.48a.669.669,0,0,0,0,1.269,2.467,2.467,0,0,0,2.208,0c.608-.356.608-.921,0-1.269A2.413,2.413,0,0,0,86.6,103.48Z" transform="translate(-57.29 -73.722)"/><path class="n" d="M83.033,101.418a.675.675,0,0,0,0,1.278,2.413,2.413,0,0,0,2.208,0,.675.675,0,0,0,0-1.278A2.467,2.467,0,0,0,83.033,101.418Z" transform="translate(-59.491 -74.989)"/><path class="n" d="M79.462,99.356a.675.675,0,0,0,0,1.278,2.467,2.467,0,0,0,2.208,0,.675.675,0,0,0,0-1.278A2.413,2.413,0,0,0,79.462,99.356Z" transform="translate(-61.692 -76.264)"/><path class="n" d="M75.892,97.294a.675.675,0,0,0,0,1.278,2.413,2.413,0,0,0,2.208,0,.675.675,0,0,0,0-1.278A2.467,2.467,0,0,0,75.892,97.294Z" transform="translate(-63.893 -77.531)"/></g><g transform="translate(223.151 27.765)"><path class="q" d="M149.632,51.371l-8.17-4.72c-.3-.174-.261-.478.087-.678l3.711-2.138a1.306,1.306,0,0,1,1.173-.052l8.17,4.72c.3.174.261.478-.087.678L150.8,51.327a1.306,1.306,0,0,1-1.173.052Z" transform="translate(-136.081 -0.849)"/><path class="q" d="M156.115,47.076l-6.893-3.981c-.3-.174-.261-.478.087-.678l3.711-2.147a1.306,1.306,0,0,1,1.173-.052l6.893,3.981c.3.174.261.478-.087.678l-3.711,2.138a1.306,1.306,0,0,1-1.173.052Z" transform="translate(-131.3 -3.046)"/><path class="q" d="M144.273,44.256l-3.746-2.164c-.3-.174-.261-.478.087-.678l3.711-2.138a1.306,1.306,0,0,1,1.173-.052l3.746,2.164c.3.174.261.478-.087.678L145.447,44.2A1.306,1.306,0,0,1,144.273,44.256Z" transform="translate(-136.659 -3.66)"/><path class="q" d="M147.854,46.32l-3.746-2.164c-.3-.174-.261-.478.087-.678l3.711-2.138a1.306,1.306,0,0,1,1.173-.052l3.746,2.164c.3.174.261.478-.087.678l-3.711,2.138A1.306,1.306,0,0,1,147.854,46.32Z" transform="translate(-134.452 -2.387)"/><path class="q" d="M151.43,48.391l-3.746-2.164c-.3-.174-.261-.478.087-.678l3.711-2.138a1.306,1.306,0,0,1,1.173-.052l3.746,2.164c.3.174.261.478-.087.678L152.6,48.339A1.306,1.306,0,0,1,151.43,48.391Z" transform="translate(-132.248 -1.111)"/><path class="q" d="M145.4,36.111l-3.746-2.164c-.3-.174-.261-.478.087-.678l1.226-.7a1.306,1.306,0,0,1,1.173-.052l3.746,2.164c.3.174.261.478-.087.678l-1.226.713a1.306,1.306,0,0,1-1.173.052Z" transform="translate(-135.962 -7.796)"/><path class="q" d="M148.946,38.157,145.2,35.993c-.3-.174-.261-.478.087-.678l1.226-.713a1.306,1.306,0,0,1,1.173-.052l3.746,2.164c.3.174.261.478-.087.678l-1.226.713A1.306,1.306,0,0,1,148.946,38.157Z" transform="translate(-133.779 -6.54)"/><path class="q" d="M152.49,40.206l-3.746-2.164c-.3-.174-.261-.478.087-.678l1.226-.713a1.306,1.306,0,0,1,1.173-.052l3.746,2.164c.3.174.261.478-.087.678l-1.226.713A1.306,1.306,0,0,1,152.49,40.206Z" transform="translate(-131.595 -5.277)"/><path class="q" d="M156.039,42.251l-3.746-2.164c-.3-.174-.261-.478.087-.678l1.226-.7a1.306,1.306,0,0,1,1.173-.052l3.746,2.164c.3.174.261.478-.087.678l-1.226.7A1.306,1.306,0,0,1,156.039,42.251Z" transform="translate(-129.407 -4.011)"/><path class="q" d="M142.391,39.147l-3.746-2.164c-.3-.174-.261-.478.087-.678l3.711-2.138a1.306,1.306,0,0,1,1.173-.052l3.746,2.164c.3.174.261.478-.087.678L143.564,39.1a1.306,1.306,0,0,1-1.173.052Z" transform="translate(-137.819 -6.808)"/><path class="q" d="M145.967,41.212l-3.746-2.164c-.3-.174-.261-.478.087-.678l3.711-2.138a1.306,1.306,0,0,1,1.173-.052l3.746,2.164c.3.174.261.478-.087.678l-3.711,2.147a1.306,1.306,0,0,1-1.173.052Z" transform="translate(-135.615 -5.536)"/><path class="q" d="M149.548,43.28,145.8,41.116c-.3-.174-.261-.478.087-.678l3.711-2.147a1.306,1.306,0,0,1,1.173-.052L154.52,40.4c.3.174.261.478-.087.678l-3.711,2.147A1.306,1.306,0,0,1,149.548,43.28Z" transform="translate(-133.408 -4.266)"/><path class="r" d="M161.3,31.021l-9.4-5.432.4-2.025L161.7,29Z" transform="translate(-129.525 -13.241)"/><path class="s" d="M184.743,100.415,158.46,85.239a4.425,4.425,0,0,1-1.851-3.538V18.8c0-1.365.826-1.99,1.851-1.4l26.284,15.176a4.425,4.425,0,0,1,1.851,3.538v62.9C186.595,100.38,185.769,101.006,184.743,100.415Z" transform="translate(-126.622 -17.177)"/><path class="g" d="M195.94,32.575,169.656,17.4a1.194,1.194,0,0,0-1.2-.1L138.444,34.609l1.417,5.232,27.362,77.93,29.891-17.236.017-.009.052-.035h0a1.663,1.663,0,0,0,.608-1.478v-62.9a4.425,4.425,0,0,0-1.851-3.538Z" transform="translate(-137.818 -17.177)"/><path class="i" d="M195.94,32.575,169.656,17.4a1.194,1.194,0,0,0-1.2-.1L138.444,34.609l1.417,5.232,7.527,21.425,1.417.817L197.278,34.1a3.745,3.745,0,0,0-1.33-1.53Z" transform="translate(-137.818 -17.177)"/><path class="h" d="M166.192,111.116,139.908,95.94a4.425,4.425,0,0,1-1.851-3.538V29.5c0-1.365.826-1.99,1.851-1.4l26.284,15.176a4.425,4.425,0,0,1,1.851,3.538v62.9C168.043,111.081,167.217,111.707,166.192,111.116Z" transform="translate(-138.057 -10.581)"/><path class="t" d="M163.821,106.09,140.84,92.827a3.858,3.858,0,0,1-1.617-3.094V31.315c0-1.191.721-1.738,1.617-1.226l22.981,13.264a3.871,3.871,0,0,1,1.617,3.094v58.417C165.438,106.055,164.716,106.6,163.821,106.09Z" transform="translate(-137.337 -9.337)"/><path class="t" d="M163.821,106.09,140.84,92.827a3.858,3.858,0,0,1-1.617-3.094V31.315c0-1.191.721-1.738,1.617-1.226l22.981,13.264a3.871,3.871,0,0,1,1.617,3.094v58.417C165.438,106.055,164.716,106.6,163.821,106.09Z" transform="translate(-137.337 -9.337)"/><path class="u" d="M163.821,106.09,140.84,92.827a3.858,3.858,0,0,1-1.617-3.094V31.315c0-1.191.721-1.738,1.617-1.226l22.981,13.264a3.871,3.871,0,0,1,1.617,3.094v58.417C165.438,106.055,164.716,106.6,163.821,106.09Z" transform="translate(-137.337 -9.337)"/><path class="g" d="M164.569,105.646,141.588,92.383a3.871,3.871,0,0,1-1.617-3.094V30.871a1.83,1.83,0,0,1,.235-.973c-.574,0-.982.522-.982,1.417V89.732a3.884,3.884,0,0,0,1.617,3.094l22.981,13.264a.933.933,0,0,0,1.382-.243,1.289,1.289,0,0,1-.635-.191Z" transform="translate(-137.337 -9.336)"/><path class="g" d="M162.893,62.32l-8.544-4.928-13.62,7.866L164.51,78.991V65.423a3.884,3.884,0,0,0-1.617-3.094Z" transform="translate(-136.409 7.611)"/><path class="g" d="M162.893,54.91l-8.544-4.928-13.62,7.866L164.51,71.581V58a3.884,3.884,0,0,0-1.617-3.094Z" transform="translate(-136.409 3.043)"/><path class="g" d="M162.893,47.506l-8.544-4.928-13.62,7.866L164.51,64.176V50.6a3.854,3.854,0,0,0-1.617-3.086Z" transform="translate(-136.409 -1.521)"/><path class="g" d="M162.893,40.1l-8.544-4.928-13.62,7.866L164.51,56.772V43.2a3.884,3.884,0,0,0-1.617-3.094Z" transform="translate(-136.409 -6.085)"/><path class="g" d="M162.893,42.385l-18.9-10.917-3.259,1.877L164.51,47.078v-1.6a3.884,3.884,0,0,0-1.617-3.094Z" transform="translate(-136.409 -8.368)"/><path class="h" d="M164.51,46.362,140.729,32.629V40.2L164.51,53.924Z" transform="translate(-136.409 -7.653)"/><path class="h" d="M164.51,53.767,140.729,40.034V47.6L164.51,61.337Z" transform="translate(-136.409 -3.089)"/><path class="h" d="M164.51,61.168,140.729,47.444v7.562L164.51,68.739Z" transform="translate(-136.409 1.479)"/><path class="h" d="M164.51,68.581,140.729,54.848V62.41L164.51,76.143Z" transform="translate(-136.409 6.043)"/><path class="h" d="M164.51,75.986,140.729,62.253v7.571L164.51,83.548Z" transform="translate(-136.409 10.607)"/><path class="f" d="M161.319,49.829,143.405,39.486a2.207,2.207,0,0,1-.913-1.756V35.7c0-.678.409-.982.913-.7l17.914,10.343a2.21,2.21,0,0,1,.921,1.747v2.025c0,.678-.409.982-.921.7Z" transform="translate(-135.322 -6.252)"/><path class="v" d="M143.054,34.916h-.009Zm-.556.791v.009Zm0-.009a.989.989,0,0,1,.148-.565A1.147,1.147,0,0,0,142.5,35.7Zm.939-.669-.026-.017a.741.741,0,0,0-.356-.113.659.659,0,0,1,.356.113l.017.017Z" transform="translate(-135.319 -6.254)"/><path class="j" d="M161.684,49.937a.709.709,0,0,1-.365-.113h0L143.405,39.481a2.161,2.161,0,0,1-.9-1.547,1.543,1.543,0,0,1-.009-.2V35.709a1,1,0,0,1,.148-.574.476.476,0,0,1,.409-.226.709.709,0,0,1,.365.113l.026.017a1.437,1.437,0,0,0-.035.287v2.025a2.177,2.177,0,0,0,.913,1.747l17.888,10.326c-.07.322-.269.513-.521.513Z" transform="translate(-135.322 -6.247)"/><path class="k" d="M154.9,43.417l-10.778-6.223a.768.768,0,0,1-.322-.617c0-.235.139-.348.322-.243L154.9,42.556a.792.792,0,0,1,.322.617c0,.235-.148.348-.322.243Z" transform="translate(-134.517 -5.394)"/><path class="f" d="M161.319,57.187,143.405,46.844a2.2,2.2,0,0,1-.913-1.747V43.072c0-.678.409-.982.913-.7L161.319,52.72a2.21,2.21,0,0,1,.921,1.747v2.025c0,.678-.409.982-.921.7Z" transform="translate(-135.322 -1.711)"/><path class="v" d="M161.484,57.212a1.232,1.232,0,0,1-.156-.07h0A.618.618,0,0,0,161.484,57.212ZM142.493,43a.974.974,0,0,1,.1-.478A1.216,1.216,0,0,0,142.493,43Zm.939-.661Z" transform="translate(-135.322 -1.667)"/><path class="j" d="M161.684,57.29a.57.57,0,0,1-.2-.035,1.233,1.233,0,0,1-.156-.07h0L143.414,46.843a2.218,2.218,0,0,1-.921-1.738V43.053a.974.974,0,0,1,.1-.478.506.506,0,0,1,.452-.3.709.709,0,0,1,.365.113l.017.009h0a1.452,1.452,0,0,0-.035.3v2.025a2.177,2.177,0,0,0,.913,1.747L162.2,56.786c-.07.322-.269.513-.522.513Z" transform="translate(-135.322 -1.71)"/><path class="j" d="M154.9,50.778l-10.778-6.223a.768.768,0,0,1-.322-.617c0-.235.139-.348.322-.243L154.9,49.918a.792.792,0,0,1,.322.617C155.22,50.77,155.073,50.883,154.9,50.778Z" transform="translate(-134.517 -0.856)"/><path class="f" d="M161.319,64.613,143.405,54.27a2.2,2.2,0,0,1-.913-1.747V50.5c0-.678.409-.982.913-.7l17.914,10.343a2.21,2.21,0,0,1,.921,1.747v2.025c0,.678-.409.982-.921.7Z" transform="translate(-135.322 2.866)"/><path class="v" d="M142.5,50.5c0-.5.226-.8.556-.8a.709.709,0,0,1,.365.113l.017.017h0l-.026-.017a.8.8,0,0,0-.365-.113c-.322,0-.556.3-.556.8Z" transform="translate(-135.325 2.868)"/><path class="j" d="M161.684,64.725a.709.709,0,0,1-.365-.113L143.405,54.269a2.161,2.161,0,0,1-.9-1.547,1.543,1.543,0,0,1-.009-.2V50.5c0-.5.226-.8.556-.8a.709.709,0,0,1,.365.113l.026.017a1.45,1.45,0,0,0-.035.3v2.025a2.177,2.177,0,0,0,.913,1.747l17.888,10.326c-.07.322-.269.513-.521.513Z" transform="translate(-135.322 2.868)"/><path class="k" d="M154.9,58.2l-10.778-6.223a.768.768,0,0,1-.322-.617c0-.235.139-.348.322-.243L154.9,57.344a.792.792,0,0,1,.322.617C155.22,58.2,155.073,58.309,154.9,58.2Z" transform="translate(-134.517 3.721)"/><path class="f" d="M161.319,72.115,143.405,61.771a2.2,2.2,0,0,1-.913-1.747V58c0-.678.409-.982.913-.7l17.914,10.343a2.21,2.21,0,0,1,.921,1.747v2.025c0,.678-.409.982-.921.7Z" transform="translate(-135.322 7.49)"/><path class="v" d="M142.493,58a1,1,0,0,1,.148-.574A1.157,1.157,0,0,0,142.493,58Zm.148-.574Zm.791-.1-.026-.017a.8.8,0,0,0-.365-.113h0a.708.708,0,0,1,.365.113l.017.017h0Z" transform="translate(-135.322 7.485)"/><path class="j" d="M161.684,72.221a.782.782,0,0,1-.365-.1h0L143.405,61.773a2.161,2.161,0,0,1-.9-1.547,1.543,1.543,0,0,1-.009-.2V57.992a1,1,0,0,1,.148-.574h0a.476.476,0,0,1,.409-.226.709.709,0,0,1,.365.113l.026.017a1.45,1.45,0,0,0-.035.3v2.025a2.177,2.177,0,0,0,.913,1.747l17.888,10.326c-.07.322-.269.513-.521.513Z" transform="translate(-135.322 7.488)"/><path class="j" d="M154.9,65.706l-10.778-6.223a.768.768,0,0,1-.322-.617c0-.235.139-.348.322-.243L154.9,64.845a.792.792,0,0,1,.322.617c0,.235-.148.348-.322.243Z" transform="translate(-134.517 8.345)"/><path class="f" d="M161.319,79.46,143.405,69.117a2.2,2.2,0,0,1-.913-1.747V65.345c0-.678.409-.982.913-.7l17.914,10.343a2.21,2.21,0,0,1,.921,1.747v2.025c0,.678-.409.982-.921.7Z" transform="translate(-135.322 12.018)"/><path class="v" d="M142.493,65.347a1,1,0,0,1,.148-.574A1.072,1.072,0,0,0,142.493,65.347Zm.148-.574Zm.791-.1-.026-.017a.708.708,0,0,0-.365-.113h0a.709.709,0,0,1,.365.113l.017.017h0Z" transform="translate(-135.322 12.016)"/><path class="j" d="M161.684,79.568a.782.782,0,0,1-.365-.1h0L143.405,69.121a2.161,2.161,0,0,1-.9-1.547,1.543,1.543,0,0,1-.009-.2V65.349a1,1,0,0,1,.148-.574h0a.466.466,0,0,1,.409-.226.709.709,0,0,1,.365.113l.026.017a1.45,1.45,0,0,0-.035.3V67a2.177,2.177,0,0,0,.913,1.747l17.888,10.326c-.07.322-.269.513-.521.513Z" transform="translate(-135.322 12.022)"/><path class="k" d="M154.9,73.051l-10.778-6.223a.768.768,0,0,1-.322-.617c0-.235.139-.348.322-.243L154.9,72.191a.792.792,0,0,1,.322.617C155.22,73.042,155.073,73.155,154.9,73.051Z" transform="translate(-134.517 12.872)"/><path class="g" d="M142.6,41.278,140.729,40.2V32.629l1.869,1.086Z" transform="translate(-136.409 -7.653)"/><path class="w" d="M142.6,45.8l-1.869-1.078Z" transform="translate(-136.409 -0.202)"/><path class="g" d="M142.6,48.682,140.729,47.6V40.034L142.6,41.12Z" transform="translate(-136.409 -3.089)"/><path class="w" d="M142.6,53.209l-1.869-1.086Z" transform="translate(-136.409 4.362)"/><path class="g" d="M142.6,56.092l-1.869-1.086V47.444l1.869,1.078Z" transform="translate(-136.409 1.479)"/><path class="w" d="M142.6,60.613l-1.869-1.086Z" transform="translate(-136.409 8.926)"/><path class="g" d="M142.6,63.5l-1.869-1.086V54.848l1.869,1.078Z" transform="translate(-136.409 6.043)"/><path class="w" d="M142.6,68.014l-1.869-1.078Z" transform="translate(-136.409 13.494)"/><path class="g" d="M142.6,70.9l-1.869-1.078V62.253l1.869,1.086Z" transform="translate(-136.409 10.607)"/><path class="k" d="M152.27,41.435c0,.243-.165.339-.382.217a.849.849,0,0,1-.382-.661c0-.243.174-.339.382-.217A.849.849,0,0,1,152.27,41.435Z" transform="translate(-129.767 -2.664)"/><path class="k" d="M153.265,42.011c0,.243-.174.339-.382.217a.849.849,0,0,1-.382-.661c0-.243.174-.339.382-.217A.849.849,0,0,1,153.265,42.011Z" transform="translate(-129.154 -2.31)"/><path class="k" d="M154.26,42.586c0,.243-.174.339-.382.217a.85.85,0,0,1-.382-.661c0-.243.165-.339.382-.217a.847.847,0,0,1,.382.652Z" transform="translate(-128.541 -1.955)"/><path class="j" d="M152.27,48.84c0,.243-.165.339-.382.217a.849.849,0,0,1-.382-.661c0-.243.174-.339.382-.217A.849.849,0,0,1,152.27,48.84Z" transform="translate(-129.767 1.9)"/><path class="k" d="M153.265,49.415c0,.243-.174.339-.382.217a.849.849,0,0,1-.382-.661c0-.243.174-.339.382-.217A.85.85,0,0,1,153.265,49.415Z" transform="translate(-129.154 2.254)"/><path class="k" d="M154.26,49.985c0,.243-.174.339-.382.217a.85.85,0,0,1-.382-.661c0-.243.165-.339.382-.217A.849.849,0,0,1,154.26,49.985Z" transform="translate(-128.541 2.606)"/><path class="j" d="M152.27,56.3c0,.243-.165.339-.382.217a.849.849,0,0,1-.382-.661c0-.243.174-.339.382-.217A.849.849,0,0,1,152.27,56.3Z" transform="translate(-129.767 6.497)"/><path class="k" d="M153.265,56.868c0,.243-.174.339-.382.217a.849.849,0,0,1-.382-.661c0-.243.174-.339.382-.217A.849.849,0,0,1,153.265,56.868Z" transform="translate(-129.154 6.848)"/><path class="j" d="M154.26,57.443c0,.243-.174.339-.382.217a.849.849,0,0,1-.382-.661c0-.243.165-.339.382-.217A.849.849,0,0,1,154.26,57.443Z" transform="translate(-128.541 7.203)"/><path class="k" d="M152.27,63.643c0,.243-.165.339-.382.217a.849.849,0,0,1-.382-.661c0-.243.174-.339.382-.217A.849.849,0,0,1,152.27,63.643Z" transform="translate(-129.767 11.024)"/><path class="k" d="M153.265,64.219c0,.243-.174.339-.382.217a.85.85,0,0,1-.382-.661c0-.243.174-.339.382-.217A.849.849,0,0,1,153.265,64.219Z" transform="translate(-129.154 11.379)"/><path class="k" d="M154.26,64.794c0,.243-.174.339-.382.217a.85.85,0,0,1-.382-.661c0-.243.165-.339.382-.217A.849.849,0,0,1,154.26,64.794Z" transform="translate(-128.541 11.734)"/><path class="k" d="M152.27,71.1c0,.243-.165.339-.382.217a.849.849,0,0,1-.382-.661c0-.243.174-.339.382-.217A.849.849,0,0,1,152.27,71.1Z" transform="translate(-129.767 15.618)"/><path class="j" d="M153.265,71.666c0,.243-.174.339-.382.217a.85.85,0,0,1-.382-.661c0-.243.174-.339.382-.217A.85.85,0,0,1,153.265,71.666Z" transform="translate(-129.154 15.97)"/><path class="k" d="M154.26,72.238c0,.243-.174.339-.382.217a.848.848,0,0,1-.382-.652c0-.243.165-.339.382-.217a.849.849,0,0,1,.382.661Z" transform="translate(-128.541 16.327)"/><path class="i" d="M159.5,46.184V98.717l21.608-12.473V33.712L159.5,46.184Zm-.443,53.307V45.932l.113-.061,22.381-12.925V86.505l-.113.061-22.39,12.925Z" transform="translate(-125.117 -7.457)"/><path class="f" d="M173.671,51.269l-10.039,5.8c-.678.391-1.217-.026-1.217-.921V50.583a2.91,2.91,0,0,1,1.217-2.329l10.039-5.8c.678-.391,1.217.026,1.217.921V48.94A2.923,2.923,0,0,1,173.671,51.269Z" transform="translate(-123.042 -1.686)"/><path class="j" d="M173.882,42.347a1.559,1.559,0,0,1,.087.556v5.563a2.923,2.923,0,0,1-1.217,2.329l-10.039,5.8a.822.822,0,0,1-.243.1.71.71,0,0,0,1.13.365l10.039-5.8a2.912,2.912,0,0,0,1.217-2.329V43.373c0-.791-.417-1.2-.973-1.034Z" transform="translate(-123.009 -1.69)"/><path class="j" d="M168.374,45.794c.183-.1.339-.017.339.191v1.269a.723.723,0,0,1-.339.582c-.191.1-.339.017-.339-.191V46.376A.723.723,0,0,1,168.374,45.794Z" transform="translate(-119.578 0.434)"/><path class="j" d="M167.481,46.407c.183-.1.339-.017.339.191V47.71a.749.749,0,0,1-.339.582c-.182.1-.339.017-.339-.191V46.989A.723.723,0,0,1,167.481,46.407Z" transform="translate(-120.129 0.812)"/><path class="j" d="M166.589,46.154c.191-.1.339-.017.339.191v2.347a.723.723,0,0,1-.339.582c-.183.1-.339.017-.339-.191V46.736A.723.723,0,0,1,166.589,46.154Z" transform="translate(-120.679 0.657)"/><path class="j" d="M165.7,45.831c.183-.1.339-.017.339.191v3.694a.723.723,0,0,1-.339.582c-.183.1-.339.017-.339-.191V46.414A.723.723,0,0,1,165.7,45.831Z" transform="translate(-121.226 0.458)"/><path class="j" d="M164.809,46.59c.183-.1.339-.017.339.191v3.312a.723.723,0,0,1-.339.582c-.183.1-.339.017-.339-.191V47.172A.723.723,0,0,1,164.809,46.59Z" transform="translate(-121.776 0.925)"/><path class="j" d="M163.916,48.041c.183-.1.33-.017.33.191v1.8a.737.737,0,0,1-.33.582c-.191.1-.339.017-.339-.191v-1.8A.723.723,0,0,1,163.916,48.041Z" transform="translate(-122.326 1.82)"/><path class="j" d="M168.04,45.62c0,.209.148.3.33.191a.734.734,0,0,0,.33-.574c0-.209-.148-.3-.33-.191A.734.734,0,0,0,168.04,45.62Z" transform="translate(-119.575 -0.026)"/><path class="j" d="M168.04,44.883c0,.209.148.3.33.191a.734.734,0,0,0,.33-.574c0-.209-.148-.3-.33-.191A.734.734,0,0,0,168.04,44.883Z" transform="translate(-119.575 -0.48)"/></g><g transform="translate(120.469 49.825)"><path class="g" d="M74.536,145.1V52.591l36.775-9.63,6.771-3.911a6.759,6.759,0,0,1,6.067.252l6.319,3.651,19.617-.009-5.806,89.3a1.755,1.755,0,0,1-1.043,1.625l-36.7,27.692a6.759,6.759,0,0,1-6.067-.252L76.014,147.183a2.42,2.42,0,0,1-1.478-2.095Z" transform="translate(-74.53 -26.129)"/><path class="i" d="M109.941,38.453a6.958,6.958,0,0,1,3.251.852l6.319,3.651,19.617-.009v92.759a1.755,1.755,0,0,1-1.043,1.625L95.573,161.572a5.459,5.459,0,0,1-2.816.6l-.435-93.332,17.618-30.378Z" transform="translate(-63.564 -26.124)"/><path class="h" d="M95.941,150.591a6.956,6.956,0,0,1-4.85-.052V56.564h4.85Z" transform="translate(-64.324 -14.961)"/><path class="i" d="M106.54,73.541,149.051,49.3c1.556-.9,1.356-2.468-.435-3.5L124.158,31.681a6.759,6.759,0,0,0-6.067-.252L75.58,55.671c-1.556.9-1.356,2.468.435,3.5l24.459,14.115A6.759,6.759,0,0,0,106.54,73.541Z" transform="translate(-74.531 -30.825)"/><path class="h" d="M76.013,51.317l24.459,14.124a6.759,6.759,0,0,0,6.067.252l42.511-24.241a2.328,2.328,0,0,0,.774-.687,1.629,1.629,0,0,1-.774,2.408L106.538,67.414a6.759,6.759,0,0,1-6.067-.252L76.013,53.047c-1.391-.808-1.817-1.93-1.208-2.816a3.5,3.5,0,0,0,1.208,1.1Z" transform="translate(-74.529 -24.699)"/><path class="w" d="M99.308,60.729l28.3-16.4c.73-.417.634-1.156-.209-1.643l-11.447-6.606a3.167,3.167,0,0,0-2.842-.122l-28.3,16.4c-.73.417-.634,1.156.209,1.634L96.465,60.6a3.167,3.167,0,0,0,2.842.122Z" transform="translate(-68.498 -27.835)"/><path class="f" d="M103.834,42.3l1.643-.947c.1-.061.087-.156-.026-.226l-1.582-.913a.418.418,0,0,0-.391-.017l-1.643.947c-.1.061-.087.156.026.226l1.582.913A.445.445,0,0,0,103.834,42.3Z" transform="translate(-57.744 -25.075)"/><path class="f" d="M100.441,44.243l1.643-.947c.1-.061.087-.156-.026-.226l-1.582-.913a.445.445,0,0,0-.391-.017l-1.643.947c-.1.052-.087.156.026.226l1.582.913A.419.419,0,0,0,100.441,44.243Z" transform="translate(-59.836 -23.874)"/><path class="f" d="M97.053,46.2l1.643-.947c.1-.061.087-.156-.026-.226l-1.582-.913a.446.446,0,0,0-.391-.017l-1.643.947c-.1.061-.087.156.026.226l1.582.913A.446.446,0,0,0,97.053,46.2Z" transform="translate(-61.924 -22.671)"/><path class="f" d="M93.665,48.142l1.643-.947c.1-.061.087-.156-.026-.226L93.7,46.056a.445.445,0,0,0-.391-.017l-1.643.947c-.1.061-.087.156.026.226l1.582.913A.444.444,0,0,0,93.665,48.142Z" transform="translate(-64.012 -21.471)"/><path class="h" d="M127.606,44.319l-.035.017-.174-.113L115.95,37.618a3.167,3.167,0,0,0-2.842-.122L84.842,53.88c-.669-.478-.7-1.13-.035-1.521l28.3-16.4a3.167,3.167,0,0,1,2.842.122L127.4,42.685c.843.487.93,1.217.209,1.643Z" transform="translate(-68.496 -27.835)"/><path class="u" d="M94.39,76.037,78.3,66.823a3.936,3.936,0,0,1-1.643-3.129V57.94c0-1.208.73-1.764,1.643-1.243L94.39,65.911a3.936,3.936,0,0,1,1.643,3.129v5.754C96.033,76,95.3,76.558,94.39,76.037Z" transform="translate(-73.22 -14.999)"/><path class="h" d="M77.5,56.515a1.6,1.6,0,0,0-.409,1.2v5.754a3.946,3.946,0,0,0,1.634,3.138L94.816,75.82a1.177,1.177,0,0,0,.8.174.966.966,0,0,1-1.226.043L78.3,66.824a3.936,3.936,0,0,1-1.643-3.129V57.941c0-.817.348-1.33.843-1.417Z" transform="translate(-73.22 -14.99)"/><path class="f" d="M85.333,66.027l-1.478-.852a.845.845,0,0,1-.356-.687V62.915c0-.261.156-.382.356-.269l1.478.852a.845.845,0,0,1,.356.687v1.573C85.689,66.018,85.532,66.14,85.333,66.027Z" transform="translate(-69.004 -11.238)"/><path class="l" d="M82.278,64.263,80.8,63.411a.841.841,0,0,1-.356-.678V61.151c0-.261.156-.382.356-.269l1.478.852a.841.841,0,0,1,.356.678v1.582C82.635,64.254,82.478,64.376,82.278,64.263Z" transform="translate(-70.886 -12.325)"/><path class="u" d="M94.39,101.76,78.3,92.547a3.936,3.936,0,0,1-1.643-3.129V83.664c0-1.208.73-1.764,1.643-1.234L94.39,91.643a3.936,3.936,0,0,1,1.643,3.129v5.754c0,1.208-.73,1.764-1.643,1.243Z" transform="translate(-73.22 0.859)"/><path class="h" d="M77.5,82.24a1.6,1.6,0,0,0-.409,1.2v5.754a3.916,3.916,0,0,0,1.634,3.129l16.088,9.213a1.177,1.177,0,0,0,.8.174.989.989,0,0,1-1.226.043L78.3,92.54a3.937,3.937,0,0,1-1.643-3.129V83.657c0-.817.348-1.33.843-1.408Z" transform="translate(-73.22 0.866)"/><path class="f" d="M85.333,91.751,83.855,90.9a.845.845,0,0,1-.356-.687V88.64c0-.261.156-.382.356-.269l1.478.852a.845.845,0,0,1,.356.687v1.573C85.689,91.743,85.532,91.864,85.333,91.751Z" transform="translate(-69.004 4.618)"/><path class="l" d="M82.278,89.988,80.8,89.136a.841.841,0,0,1-.356-.678V86.876c0-.261.156-.382.356-.269l1.478.852a.845.845,0,0,1,.356.687v1.582c0,.261-.156.382-.356.269Z" transform="translate(-70.886 3.531)"/><path class="u" d="M94.39,114.624,78.3,105.411a3.936,3.936,0,0,1-1.643-3.129V96.528c0-1.208.73-1.764,1.643-1.243L94.39,104.5a3.936,3.936,0,0,1,1.643,3.129v5.754c0,1.208-.73,1.764-1.643,1.234Z" transform="translate(-73.22 8.786)"/><path class="h" d="M77.5,95.1a1.617,1.617,0,0,0-.409,1.2v5.754a3.916,3.916,0,0,0,1.634,3.129L94.816,114.4a1.176,1.176,0,0,0,.8.174.977.977,0,0,1-1.226.043L78.3,105.4a3.936,3.936,0,0,1-1.643-3.129V96.52C76.659,95.7,77.006,95.19,77.5,95.1Z" transform="translate(-73.22 8.794)"/><path class="f" d="M85.333,104.614l-1.478-.852a.841.841,0,0,1-.356-.678V101.5c0-.261.156-.382.356-.269l1.478.852a.841.841,0,0,1,.356.678v1.582C85.689,104.605,85.532,104.727,85.333,104.614Z" transform="translate(-69.004 12.547)"/><path class="l" d="M82.278,102.85,80.8,102a.845.845,0,0,1-.356-.687V99.739c0-.261.156-.382.356-.269l1.478.852a.845.845,0,0,1,.356.687v1.573C82.635,102.841,82.478,102.963,82.278,102.85Z" transform="translate(-70.886 11.46)"/><path class="u" d="M94.39,88.9,78.3,79.685a3.936,3.936,0,0,1-1.643-3.129V70.8c0-1.208.73-1.764,1.643-1.234L94.39,78.781a3.936,3.936,0,0,1,1.643,3.129v5.754c0,1.208-.73,1.764-1.643,1.243Z" transform="translate(-73.22 -7.069)"/><path class="h" d="M77.5,69.378a1.6,1.6,0,0,0-.409,1.2v5.754a3.916,3.916,0,0,0,1.634,3.129l16.088,9.213a1.177,1.177,0,0,0,.8.174.966.966,0,0,1-1.226.043L78.3,79.678a3.936,3.936,0,0,1-1.643-3.129V70.795c0-.817.348-1.33.843-1.408Z" transform="translate(-73.22 -7.062)"/><path class="f" d="M85.333,78.889l-1.478-.852a.845.845,0,0,1-.356-.687V75.777c0-.261.156-.382.356-.269l1.478.852a.845.845,0,0,1,.356.687V78.62C85.689,78.88,85.532,79,85.333,78.889Z" transform="translate(-69.004 -3.31)"/><path class="l" d="M82.278,77.125,80.8,76.273a.841.841,0,0,1-.356-.678V74.014c0-.261.156-.382.356-.269l1.478.852a.841.841,0,0,1,.356.678v1.573c0,.261-.156.382-.356.269Z" transform="translate(-70.886 -4.397)"/><path class="g" d="M96.822,77.421l37.123-21.434a3.588,3.588,0,0,0,1.5-2.877V46.027c0-1.1-.669-1.617-1.5-1.139L96.822,66.322a3.588,3.588,0,0,0-1.5,2.877v7.075c0,1.113.678,1.617,1.5,1.139Z" transform="translate(-61.718 -22.268)"/><path class="u" d="M96.9,74.048a.562.562,0,0,0,.3-.1l34.993-20.2a1.817,1.817,0,0,0,.765-1.46V46.973c0-.417-.191-.669-.461-.669a.647.647,0,0,0-.3.1L97.2,66.6a1.84,1.84,0,0,0-.765,1.46v5.319C96.436,73.8,96.628,74.048,96.9,74.048Z" transform="translate(-61.029 -21.285)"/><path class="k" d="M114.329,53.786l5.224-3.016a1.771,1.771,0,0,0,.739-1.417c0-.548-.33-.8-.739-.556l-5.224,3.016a1.771,1.771,0,0,0-.739,1.417C113.59,53.777,113.92,54.029,114.329,53.786Z" transform="translate(-50.456 -19.805)"/><path class="f" d="M111.294,53.437c0,.548.382.765.852.5A1.909,1.909,0,0,0,113,52.446c0-.548-.382-.765-.852-.5A1.909,1.909,0,0,0,111.294,53.437Z" transform="translate(-51.871 -17.875)"/><path class="f" d="M109.422,54.518c0,.548.382.765.852.5a1.918,1.918,0,0,0,.86-1.486c0-.548-.382-.765-.86-.5a1.893,1.893,0,0,0-.852,1.478Z" transform="translate(-53.024 -17.209)"/><path class="r" d="M107.557,55.6c0,.548.382.765.852.5a1.9,1.9,0,0,0,.852-1.486c0-.548-.382-.765-.852-.5a1.893,1.893,0,0,0-.852,1.478Z" transform="translate(-54.175 -16.543)"/><path class="f" d="M105.691,56.674c0,.548.382.765.852.5a1.9,1.9,0,0,0,.852-1.486c0-.548-.382-.765-.852-.5a1.893,1.893,0,0,0-.852,1.478Z" transform="translate(-55.325 -15.88)"/><path class="f" d="M98,63.176l1.756-1.017a1.135,1.135,0,0,0,.478-.9v-1.86c0-.348-.209-.513-.478-.356L98,60.055a1.152,1.152,0,0,0-.478.913v1.86c0,.348.217.513.478.356Z" transform="translate(-60.359 -13.472)"/><path class="g" d="M96.822,85.144,133.944,63.71a3.588,3.588,0,0,0,1.5-2.877V53.749c0-1.113-.669-1.617-1.5-1.139L96.822,74.044a3.588,3.588,0,0,0-1.5,2.877V84c0,1.1.678,1.617,1.5,1.139Z" transform="translate(-61.718 -17.509)"/><path class="u" d="M96.9,81.77a.562.562,0,0,0,.3-.1l34.993-20.2a1.817,1.817,0,0,0,.765-1.46V54.695c0-.417-.191-.669-.461-.669a.627.627,0,0,0-.3.087L97.2,74.321a1.841,1.841,0,0,0-.765,1.46V81.1C96.436,81.518,96.628,81.77,96.9,81.77Z" transform="translate(-61.029 -16.525)"/><path class="k" d="M114.329,61.513l5.224-3.016a1.771,1.771,0,0,0,.739-1.417c0-.548-.33-.8-.739-.556l-5.224,3.016a1.771,1.771,0,0,0-.739,1.417C113.59,61.5,113.92,61.756,114.329,61.513Z" transform="translate(-50.456 -15.042)"/><path class="l" d="M111.294,61.164c0,.548.382.765.852.5A1.909,1.909,0,0,0,113,60.174c0-.548-.382-.765-.852-.5A1.909,1.909,0,0,0,111.294,61.164Z" transform="translate(-51.871 -13.112)"/><path class="f" d="M109.422,62.237c0,.548.382.765.852.5a1.9,1.9,0,0,0,.86-1.478c0-.548-.382-.765-.86-.5A1.893,1.893,0,0,0,109.422,62.237Z" transform="translate(-53.024 -12.446)"/><path class="r" d="M107.557,63.317c0,.548.382.765.852.5a1.893,1.893,0,0,0,.852-1.478c0-.548-.382-.765-.852-.5a1.909,1.909,0,0,0-.852,1.486Z" transform="translate(-54.175 -11.78)"/><path class="f" d="M105.691,64.4c0,.548.382.765.852.5a1.9,1.9,0,0,0,.852-1.486c0-.548-.382-.765-.852-.5A1.909,1.909,0,0,0,105.691,64.4Z" transform="translate(-55.325 -11.12)"/><path class="f" d="M98,70.9l1.756-1.017a1.152,1.152,0,0,0,.478-.913v-1.86c0-.348-.209-.513-.478-.356L98,67.772a1.152,1.152,0,0,0-.478.913v1.86C97.523,70.892,97.74,71.057,98,70.9Z" transform="translate(-60.359 -8.716)"/><path class="g" d="M96.822,92.865l37.123-21.434a3.588,3.588,0,0,0,1.5-2.877V61.471c0-1.113-.669-1.617-1.5-1.139L96.822,81.766a3.6,3.6,0,0,0-1.5,2.877v7.075c0,1.113.678,1.617,1.5,1.139Z" transform="translate(-61.718 -12.749)"/><path class="u" d="M96.9,89.492a.647.647,0,0,0,.3-.1l34.993-20.2a1.817,1.817,0,0,0,.765-1.46V62.417c0-.417-.191-.669-.461-.669a.627.627,0,0,0-.3.087L97.2,82.034a1.84,1.84,0,0,0-.765,1.46v5.319c0,.417.191.669.461.669Z" transform="translate(-61.029 -11.765)"/><path class="k" d="M114.329,69.235l5.224-3.016a1.771,1.771,0,0,0,.739-1.417c0-.548-.33-.8-.739-.556l-5.224,3.016a1.771,1.771,0,0,0-.739,1.417C113.59,69.226,113.92,69.478,114.329,69.235Z" transform="translate(-50.456 -10.283)"/><path class="l" d="M111.294,68.886c0,.548.382.765.852.5A1.909,1.909,0,0,0,113,67.9c0-.548-.382-.765-.852-.5A1.909,1.909,0,0,0,111.294,68.886Z" transform="translate(-51.871 -8.352)"/><path class="f" d="M109.422,69.958c0,.548.382.765.852.5a1.9,1.9,0,0,0,.86-1.478c0-.548-.382-.765-.86-.5a1.893,1.893,0,0,0-.852,1.478Z" transform="translate(-53.024 -7.686)"/><path class="r" d="M107.557,71.043c0,.548.382.765.852.5a1.909,1.909,0,0,0,.852-1.486c0-.548-.382-.765-.852-.5A1.909,1.909,0,0,0,107.557,71.043Z" transform="translate(-54.175 -7.023)"/><path class="f" d="M105.691,72.12c0,.548.382.765.852.5a1.893,1.893,0,0,0,.852-1.478c0-.548-.382-.765-.852-.5a1.9,1.9,0,0,0-.852,1.486Z" transform="translate(-55.325 -6.354)"/><path class="f" d="M98,78.629l1.756-1.017a1.152,1.152,0,0,0,.478-.913V74.84c0-.348-.209-.513-.478-.365L98,75.492a1.152,1.152,0,0,0-.478.913v1.86C97.523,78.612,97.74,78.777,98,78.629Z" transform="translate(-60.359 -3.954)"/><path class="g" d="M96.822,100.584,133.944,79.15a3.588,3.588,0,0,0,1.5-2.877V69.2c0-1.113-.669-1.617-1.5-1.139L96.822,89.493a3.588,3.588,0,0,0-1.5,2.877v7.075c0,1.113.678,1.617,1.5,1.139Z" transform="translate(-61.718 -7.986)"/><path class="u" d="M96.9,97.213a.647.647,0,0,0,.3-.1l34.993-20.2a1.817,1.817,0,0,0,.765-1.46V70.138c0-.417-.191-.669-.461-.669a.627.627,0,0,0-.3.087L97.2,89.756a1.84,1.84,0,0,0-.765,1.46v5.319c0,.417.191.669.461.669Z" transform="translate(-61.029 -7.006)"/><path class="k" d="M114.329,76.956l5.224-3.016a1.771,1.771,0,0,0,.739-1.417c0-.548-.33-.8-.739-.556l-5.224,3.016a1.771,1.771,0,0,0-.739,1.417c0,.548.33.8.739.565Z" transform="translate(-50.456 -5.523)"/><path class="f" d="M111.294,76.6c0,.548.382.765.852.5A1.893,1.893,0,0,0,113,75.623c0-.548-.382-.765-.852-.5A1.893,1.893,0,0,0,111.294,76.6Z" transform="translate(-51.871 -3.59)"/><path class="f" d="M109.422,77.689c0,.548.382.765.852.5a1.9,1.9,0,0,0,.86-1.486c0-.548-.382-.765-.86-.5a1.893,1.893,0,0,0-.852,1.478Z" transform="translate(-53.024 -2.927)"/><path class="r" d="M107.557,78.764c0,.548.382.765.852.5a1.909,1.909,0,0,0,.852-1.486c0-.548-.382-.765-.852-.5A1.9,1.9,0,0,0,107.557,78.764Z" transform="translate(-54.175 -2.264)"/><path class="f" d="M105.691,79.845c0,.548.382.765.852.5a1.909,1.909,0,0,0,.852-1.486c0-.548-.382-.765-.852-.5A1.9,1.9,0,0,0,105.691,79.845Z" transform="translate(-55.325 -1.598)"/><path class="k" d="M98,86.35l1.756-1.017a1.152,1.152,0,0,0,.478-.913V82.56c0-.348-.209-.513-.478-.356L98,83.221a1.135,1.135,0,0,0-.478.9v1.86c0,.348.217.513.478.356Z" transform="translate(-60.359 0.807)"/><path class="g" d="M96.822,108.306l37.123-21.434a3.588,3.588,0,0,0,1.5-2.877V76.92c0-1.113-.669-1.617-1.5-1.139L96.822,97.215a3.588,3.588,0,0,0-1.5,2.877v7.075c0,1.113.678,1.617,1.5,1.139Z" transform="translate(-61.718 -3.227)"/><path class="u" d="M96.9,104.935a.627.627,0,0,0,.3-.087L132.194,84.64a1.817,1.817,0,0,0,.765-1.46V77.86c0-.417-.191-.669-.461-.669a.647.647,0,0,0-.3.1L97.2,97.486a1.84,1.84,0,0,0-.765,1.46v5.319C96.436,104.683,96.628,104.935,96.9,104.935Z" transform="translate(-61.029 -2.246)"/><path class="k" d="M114.329,84.678l5.224-3.016a1.771,1.771,0,0,0,.739-1.417c0-.548-.33-.8-.739-.556l-5.224,3.016a1.771,1.771,0,0,0-.739,1.417C113.59,84.67,113.92,84.922,114.329,84.678Z" transform="translate(-50.456 -0.764)"/><path class="f" d="M111.294,84.326c0,.548.382.765.852.5A1.893,1.893,0,0,0,113,83.344c0-.548-.382-.765-.852-.5a1.909,1.909,0,0,0-.852,1.486Z" transform="translate(-51.871 1.17)"/><path class="l" d="M109.422,85.411c0,.548.382.765.852.5a1.9,1.9,0,0,0,.86-1.486c0-.548-.382-.765-.86-.5A1.909,1.909,0,0,0,109.422,85.411Z" transform="translate(-53.024 1.833)"/><path class="r" d="M107.557,86.486c0,.548.382.765.852.5a1.909,1.909,0,0,0,.852-1.486c0-.548-.382-.765-.852-.5A1.909,1.909,0,0,0,107.557,86.486Z" transform="translate(-54.175 2.496)"/><path class="l" d="M105.691,87.564c0,.548.382.765.852.5a1.893,1.893,0,0,0,.852-1.478c0-.548-.382-.765-.852-.5A1.893,1.893,0,0,0,105.691,87.564Z" transform="translate(-55.325 3.165)"/><path class="k" d="M98,94.071l1.756-1.017a1.152,1.152,0,0,0,.478-.913v-1.86c0-.348-.209-.513-.478-.356L98,90.942a1.135,1.135,0,0,0-.478.9v1.86c0,.348.217.513.478.356Z" transform="translate(-60.359 5.567)"/><path class="g" d="M96.822,116.033,133.944,94.6a3.6,3.6,0,0,0,1.5-2.877V84.647c0-1.113-.669-1.617-1.5-1.139L96.822,104.942a3.588,3.588,0,0,0-1.5,2.877V114.9c0,1.113.678,1.617,1.5,1.139Z" transform="translate(-61.718 1.536)"/><path class="u" d="M96.9,112.657a.562.562,0,0,0,.3-.1l34.993-20.2a1.817,1.817,0,0,0,.765-1.46V85.582c0-.417-.191-.669-.461-.669a.647.647,0,0,0-.3.1L97.2,105.208a1.841,1.841,0,0,0-.765,1.46v5.319C96.436,112.4,96.628,112.657,96.9,112.657Z" transform="translate(-61.029 2.513)"/><path class="k" d="M114.329,92.4l5.224-3.016a1.771,1.771,0,0,0,.739-1.417c0-.548-.33-.8-.739-.556l-5.224,3.016a1.771,1.771,0,0,0-.739,1.417C113.59,92.391,113.92,92.643,114.329,92.4Z" transform="translate(-50.456 3.996)"/><path class="f" d="M111.294,92.052c0,.548.382.765.852.5A1.909,1.909,0,0,0,113,91.061c0-.548-.382-.765-.852-.5A1.909,1.909,0,0,0,111.294,92.052Z" transform="translate(-51.871 5.926)"/><path class="f" d="M109.422,93.129c0,.548.382.765.852.5a1.9,1.9,0,0,0,.86-1.478c0-.548-.382-.765-.86-.5a1.9,1.9,0,0,0-.852,1.486Z" transform="translate(-53.024 6.596)"/><path class="r" d="M107.557,94.2c0,.548.382.765.852.5a1.893,1.893,0,0,0,.852-1.478c0-.548-.382-.765-.852-.5A1.893,1.893,0,0,0,107.557,94.2Z" transform="translate(-54.175 7.259)"/><path class="f" d="M105.691,95.285c0,.548.382.765.852.5a1.893,1.893,0,0,0,.852-1.478c0-.548-.382-.765-.852-.5A1.893,1.893,0,0,0,105.691,95.285Z" transform="translate(-55.325 7.925)"/><path class="f" d="M98,101.79l1.756-1.017a1.135,1.135,0,0,0,.478-.9v-1.86c0-.348-.209-.513-.478-.356L98,98.67a1.152,1.152,0,0,0-.478.913v1.86c0,.348.217.513.478.356Z" transform="translate(-60.359 10.329)"/><path class="g" d="M96.822,123.758l37.123-21.434a3.588,3.588,0,0,0,1.5-2.877V92.363c0-1.113-.669-1.617-1.5-1.139L96.822,112.658a3.588,3.588,0,0,0-1.5,2.877v7.084c0,1.113.678,1.617,1.5,1.139Z" transform="translate(-61.718 6.293)"/><path class="u" d="M96.9,120.384a.627.627,0,0,0,.3-.087l34.993-20.208a1.817,1.817,0,0,0,.765-1.46V93.309c0-.417-.191-.669-.461-.669a.627.627,0,0,0-.3.087L97.2,112.935a1.841,1.841,0,0,0-.765,1.46v5.319C96.436,120.132,96.628,120.384,96.9,120.384Z" transform="translate(-61.029 7.276)"/><path class="k" d="M114.329,100.127l5.224-3.016a1.771,1.771,0,0,0,.739-1.417c0-.548-.33-.8-.739-.556l-5.224,3.016a1.771,1.771,0,0,0-.739,1.417C113.59,100.119,113.92,100.371,114.329,100.127Z" transform="translate(-50.456 8.759)"/><path class="l" d="M110.7,100.735c0,1.034.721,1.452,1.617.93a3.569,3.569,0,0,0,1.617-2.8c0-1.034-.721-1.452-1.617-.93A3.569,3.569,0,0,0,110.7,100.735Z" transform="translate(-52.236 10.402)"/><path class="f" d="M106.836,102.457c0,.548.382.765.86.5a1.909,1.909,0,0,0,.852-1.486c0-.548-.382-.765-.852-.5A1.9,1.9,0,0,0,106.836,102.457Z" transform="translate(-54.619 12.34)"/><path class="r" d="M104.965,103.537c0,.548.382.765.852.5a1.909,1.909,0,0,0,.852-1.486c0-.548-.382-.765-.852-.5a1.893,1.893,0,0,0-.852,1.478Z" transform="translate(-55.772 13.006)"/><path class="f" d="M103.1,104.613c0,.548.382.765.86.5a1.909,1.909,0,0,0,.852-1.486c0-.548-.382-.765-.852-.5A1.918,1.918,0,0,0,103.1,104.613Z" transform="translate(-56.922 13.669)"/><path class="k" d="M98,109.512l1.756-1.017a1.148,1.148,0,0,0,.478-.9v-1.86c0-.348-.209-.513-.478-.356L98,106.391a1.152,1.152,0,0,0-.478.913v1.86c0,.348.217.513.478.365Z" transform="translate(-60.359 15.089)"/></g></g></g></svg>