<svg xmlns="http://www.w3.org/2000/svg" xmlns:xlink="http://www.w3.org/1999/xlink" width="270" height="350" viewBox="0 0 270 350"><defs><style>.a{fill:#fff;stroke:#707070;}.b{clip-path:url(#a);}.c{fill:#bdc1c6;}.d{fill:#dadce0;}.e{fill:#e8eaed;}.f{fill:#2950af;}.g{fill:#5786ed;}.h{fill:#abc5ff;}.i{fill:#08243b;}.j{fill:#ff5833;}.k{fill:#d4492a;}.l{fill:#f1f3f4;}.m{fill:#2f2b27;}</style><clipPath id="a"><rect class="a" width="270" height="350" transform="translate(411 1476)"/></clipPath></defs><g class="b" transform="translate(-411 -1476)"><g transform="translate(498.589 1550.93)"><path class="c" d="M3747.028,1562.606l0-211.243-222.682-.134v210.33c-.283,3.479,2.132,7.222,7.134,10.109l88.509,51.1c8.667,5,21.782,5.55,29.288,1.215L3742,1570.452C3745.6,1568.364,3747.237,1565.539,3747.028,1562.606Z" transform="translate(-3510.907 -1158.84)"/><path class="d" d="M4340.678,1562.606l0-209.3a2.067,2.067,0,0,0-2.064-2.067l-17.094-.011-92.186,40.732,0,234.9c5.077.123,9.981-.8,13.591-2.886l92.717-53.529c3.189-1.84,4.838-4.27,5.033-6.832v-.928c0-.029-.011-.057-.014-.083Z" transform="translate(-4104.561 -1158.84)"/><path class="e" d="M3741.906,1016.276l-92.717,53.532c-7.506,4.336-20.623,3.789-29.287-1.212l-88.511-51.1c-8.667-5-9.609-12.577-2.1-16.91l92.717-53.529c7.507-4.334,20.623-3.789,29.29,1.212l88.508,51.1C3748.47,1004.377,3749.415,1011.943,3741.906,1016.276Z" transform="translate(-3510.82 -816.045)"/><g transform="translate(29.744 0)"><path class="c" d="M4387.857,1528.457a.621.621,0,0,0,0,1.173,2.24,2.24,0,0,0,2.034,0,.622.622,0,0,0,0-1.173A2.25,2.25,0,0,0,4387.857,1528.457Z" transform="translate(-4267.446 -1307.873)"/><path class="c" d="M4354.229,1509.036a.618.618,0,0,0,0,1.172,2.24,2.24,0,0,0,2.034,0,.622.622,0,0,0,0-1.172A2.238,2.238,0,0,0,4354.229,1509.036Z" transform="translate(-4239.13 -1291.517)"/><path class="c" d="M4320.556,1489.61a.621.621,0,0,0,0,1.173,2.249,2.249,0,0,0,2.033,0,.622.622,0,0,0,0-1.173,2.241,2.241,0,0,0-2.034,0Z" transform="translate(-4210.777 -1275.16)"/><path class="c" d="M4286.926,1470.192a.622.622,0,0,0,0,1.174,2.248,2.248,0,0,0,2.035,0,.622.622,0,0,0,0-1.174A2.254,2.254,0,0,0,4286.926,1470.192Z" transform="translate(-4182.46 -1258.81)"/><path class="c" d="M4455.117,1528.457a.622.622,0,0,0,0,1.173,2.24,2.24,0,0,0,2.034,0,.622.622,0,0,0,0-1.173A2.25,2.25,0,0,0,4455.117,1528.457Z" transform="translate(-4324.082 -1307.873)"/><path class="c" d="M4421.489,1509.036a.618.618,0,0,0,0,1.172,2.238,2.238,0,0,0,2.033,0,.618.618,0,0,0,0-1.172,2.238,2.238,0,0,0-2.034,0Z" transform="translate(-4295.765 -1291.517)"/><path class="c" d="M4387.857,1489.61a.622.622,0,0,0,0,1.173,2.251,2.251,0,0,0,2.034,0,.622.622,0,0,0,0-1.173,2.24,2.24,0,0,0-2.034,0Z" transform="translate(-4267.446 -1275.16)"/><path class="c" d="M4354.228,1470.192a.622.622,0,0,0,0,1.174,2.245,2.245,0,0,0,2.034,0,.622.622,0,0,0,0-1.174A2.25,2.25,0,0,0,4354.228,1470.192Z" transform="translate(-4239.129 -1258.81)"/><path class="c" d="M4320.556,1450.767a.621.621,0,0,0,0,1.172,2.243,2.243,0,0,0,2.033,0,.621.621,0,0,0,0-1.173,2.243,2.243,0,0,0-2.032,0Z" transform="translate(-4210.777 -1242.456)"/><path class="c" d="M4488.791,1509.036a.618.618,0,0,0,0,1.172,2.239,2.239,0,0,0,2.032,0,.621.621,0,0,0,0-1.172,2.239,2.239,0,0,0-2.032,0Z" transform="translate(-4352.436 -1291.517)"/><path class="c" d="M4455.117,1489.61a.622.622,0,0,0,0,1.173,2.252,2.252,0,0,0,2.034,0,.622.622,0,0,0,0-1.173,2.243,2.243,0,0,0-2.036,0Z" transform="translate(-4324.083 -1275.16)"/><path class="c" d="M4421.487,1470.192a.622.622,0,0,0,0,1.174,2.242,2.242,0,0,0,2.034,0,.622.622,0,0,0,0-1.174,2.25,2.25,0,0,0-2.034,0Z" transform="translate(-4295.763 -1258.81)"/><path class="c" d="M4387.857,1450.767a.621.621,0,0,0,0,1.172,2.244,2.244,0,0,0,2.033,0,.622.622,0,0,0,0-1.173A2.244,2.244,0,0,0,4387.857,1450.767Z" transform="translate(-4267.447 -1242.456)"/><path class="c" d="M4354.228,1431.345a.622.622,0,0,0,0,1.173,2.252,2.252,0,0,0,2.034,0,.622.622,0,0,0,0-1.173A2.243,2.243,0,0,0,4354.228,1431.345Z" transform="translate(-4239.129 -1226.097)"/><path class="c" d="M4522.461,1489.61a.622.622,0,0,0,0,1.173,2.249,2.249,0,0,0,2.033,0,.621.621,0,0,0,0-1.173,2.242,2.242,0,0,0-2.034,0Z" transform="translate(-4380.75 -1275.16)"/><path class="c" d="M4488.79,1470.192a.622.622,0,0,0,0,1.174,2.241,2.241,0,0,0,2.031,0,.622.622,0,0,0,0-1.174,2.246,2.246,0,0,0-2.03,0Z" transform="translate(-4352.436 -1258.81)"/><path class="c" d="M4455.117,1450.767a.622.622,0,0,0,0,1.172,2.245,2.245,0,0,0,2.034,0,.622.622,0,0,0,0-1.173A2.246,2.246,0,0,0,4455.117,1450.767Z" transform="translate(-4324.082 -1242.456)"/><path class="c" d="M4421.487,1431.345a.622.622,0,0,0,0,1.173,2.251,2.251,0,0,0,2.034,0,.622.622,0,0,0,0-1.173,2.243,2.243,0,0,0-2.035,0Z" transform="translate(-4295.763 -1226.097)"/><path class="c" d="M4387.858,1411.923a.622.622,0,0,0,0,1.174,2.244,2.244,0,0,0,2.033,0,.622.622,0,0,0,0-1.174,2.251,2.251,0,0,0-2.034,0Z" transform="translate(-4267.448 -1209.745)"/><path class="c" d="M4522.714,1450.564a.622.622,0,0,0,0,1.173,2.244,2.244,0,0,0,2.034,0,.622.622,0,0,0,0-1.173A2.252,2.252,0,0,0,4522.714,1450.564Z" transform="translate(-4381.004 -1242.282)"/><path class="c" d="M4489.086,1431.143a.618.618,0,0,0,0,1.172,2.244,2.244,0,0,0,2.032,0,.618.618,0,0,0,0-1.172A2.238,2.238,0,0,0,4489.086,1431.143Z" transform="translate(-4352.689 -1225.927)"/><path class="c" d="M4455.413,1411.717a.622.622,0,0,0,0,1.173,2.255,2.255,0,0,0,2.035,0,.622.622,0,0,0,0-1.173,2.24,2.24,0,0,0-2.034,0Z" transform="translate(-4324.334 -1209.57)"/><path class="c" d="M4255.289,1451.037a2.242,2.242,0,0,0-2.035,0,.622.622,0,0,0,0,1.173,2.252,2.252,0,0,0,2.034,0,.622.622,0,0,0,0-1.176Z" transform="translate(-4154.068 -1242.679)"/><path class="c" d="M4219.557,1431.594a.622.622,0,0,0,0,1.175,2.255,2.255,0,0,0,2.034,0,.622.622,0,0,0,0-1.175,2.251,2.251,0,0,0-2.034,0Z" transform="translate(-4125.714 -1226.31)"/><path class="c" d="M4185.91,1412.177a.622.622,0,0,0,0,1.175,2.25,2.25,0,0,0,2.035,0,.622.622,0,0,0,0-1.175,2.261,2.261,0,0,0-2.033,0Z" transform="translate(-4097.382 -1209.957)"/><path class="c" d="M4152.275,1392.755a.622.622,0,0,0,0,1.172,2.242,2.242,0,0,0,2.031,0,.622.622,0,0,0,0-1.172A2.244,2.244,0,0,0,4152.275,1392.755Z" transform="translate(-4069.059 -1193.602)"/><path class="c" d="M4118.629,1373.33a.622.622,0,0,0,0,1.172,2.246,2.246,0,0,0,2.034,0,.622.622,0,0,0,0-1.172A2.246,2.246,0,0,0,4118.629,1373.33Z" transform="translate(-4040.727 -1177.245)"/><path class="c" d="M4084.991,1353.908a.622.622,0,0,0,0,1.173,2.244,2.244,0,0,0,2.034,0,.621.621,0,0,0,0-1.174,2.253,2.253,0,0,0-2.034,0Z" transform="translate(-4012.406 -1160.893)"/><path class="c" d="M4051.349,1334.482a.621.621,0,0,0,0,1.173,2.243,2.243,0,0,0,2.033,0,.622.622,0,0,0,0-1.173A2.244,2.244,0,0,0,4051.349,1334.482Z" transform="translate(-3984.073 -1144.538)"/><path class="c" d="M4017.71,1315.056a.622.622,0,0,0,0,1.173,2.245,2.245,0,0,0,2.034,0,.622.622,0,0,0,0-1.172,2.245,2.245,0,0,0-2.033,0Z" transform="translate(-3955.752 -1128.181)"/><path class="c" d="M3984.068,1295.631a.622.622,0,0,0,0,1.173,2.238,2.238,0,0,0,2.034,0,.622.622,0,0,0,0-1.173,2.243,2.243,0,0,0-2.034,0Z" transform="translate(-3927.421 -1111.824)"/><path class="c" d="M3950.426,1276.217a.622.622,0,0,0,0,1.173,2.238,2.238,0,0,0,2.034,0,.622.622,0,0,0,0-1.173A2.261,2.261,0,0,0,3950.426,1276.217Z" transform="translate(-3899.093 -1095.472)"/><path class="c" d="M3916.787,1256.791a.621.621,0,0,0,0,1.172,2.236,2.236,0,0,0,2.031,0,.618.618,0,0,0,0-1.172A2.246,2.246,0,0,0,3916.787,1256.791Z" transform="translate(-3870.768 -1079.118)"/><path class="c" d="M4288.918,1431.615a2.247,2.247,0,0,0-2.034,0,.622.622,0,0,0,0,1.174,2.25,2.25,0,0,0,2.034,0,.622.622,0,0,0,0-1.174Z" transform="translate(-4182.386 -1226.323)"/><path class="c" d="M4253.212,1412.177a.622.622,0,0,0,0,1.174,2.245,2.245,0,0,0,2.034,0,.621.621,0,0,0,0-1.175A2.26,2.26,0,0,0,4253.212,1412.177Z" transform="translate(-4154.031 -1209.957)"/><path class="c" d="M4219.557,1392.755a.622.622,0,0,0,0,1.172,2.248,2.248,0,0,0,2.035,0,.622.622,0,0,0,0-1.173A2.248,2.248,0,0,0,4219.557,1392.755Z" transform="translate(-4125.713 -1193.603)"/><path class="c" d="M4185.909,1373.329a.622.622,0,0,0,0,1.172,2.248,2.248,0,0,0,2.034,0,.622.622,0,0,0,0-1.172A2.25,2.25,0,0,0,4185.909,1373.329Z" transform="translate(-4097.381 -1177.244)"/><path class="c" d="M4152.276,1353.908a.622.622,0,0,0,0,1.173,2.239,2.239,0,0,0,2.031,0,.622.622,0,0,0,0-1.173A2.252,2.252,0,0,0,4152.276,1353.908Z" transform="translate(-4069.06 -1160.893)"/><path class="c" d="M4118.629,1334.482a.621.621,0,0,0,0,1.172,2.241,2.241,0,0,0,2.033,0,.622.622,0,0,0,0-1.173A2.248,2.248,0,0,0,4118.629,1334.482Z" transform="translate(-4040.727 -1144.538)"/><path class="c" d="M4084.991,1315.056a.622.622,0,0,0,0,1.173,2.244,2.244,0,0,0,2.034,0,.622.622,0,0,0,0-1.172A2.245,2.245,0,0,0,4084.991,1315.056Z" transform="translate(-4012.405 -1128.181)"/><path class="c" d="M4051.349,1295.63a.622.622,0,0,0,0,1.173,2.241,2.241,0,0,0,2.034,0,.621.621,0,0,0,0-1.173,2.249,2.249,0,0,0-2.034,0Z" transform="translate(-3984.074 -1111.823)"/><path class="c" d="M4017.706,1276.217a.622.622,0,0,0,0,1.173,2.242,2.242,0,0,0,2.034,0,.622.622,0,0,0,0-1.173A2.262,2.262,0,0,0,4017.706,1276.217Z" transform="translate(-3955.744 -1095.472)"/><path class="c" d="M3984.068,1256.792a.622.622,0,0,0,0,1.172,2.237,2.237,0,0,0,2.034,0,.621.621,0,0,0,0-1.172A2.247,2.247,0,0,0,3984.068,1256.792Z" transform="translate(-3927.421 -1079.118)"/><path class="c" d="M3950.426,1237.37a.622.622,0,0,0,0,1.174,2.253,2.253,0,0,0,2.034,0,.622.622,0,0,0,0-1.174,2.245,2.245,0,0,0-2.034,0Z" transform="translate(-3899.093 -1062.76)"/><path class="c" d="M4322.548,1412.194a2.249,2.249,0,0,0-2.033,0,.622.622,0,0,0,0,1.174,2.243,2.243,0,0,0,2.034,0,.622.622,0,0,0,0-1.171Z" transform="translate(-4210.741 -1209.97)"/><path class="c" d="M4286.8,1392.755a.622.622,0,0,0,0,1.172,2.246,2.246,0,0,0,2.034,0,.622.622,0,0,0,0-1.173A2.248,2.248,0,0,0,4286.8,1392.755Z" transform="translate(-4182.354 -1193.603)"/><path class="c" d="M4253.211,1373.33a.622.622,0,0,0,0,1.172,2.244,2.244,0,0,0,2.034,0,.622.622,0,0,0,0-1.173A2.245,2.245,0,0,0,4253.211,1373.33Z" transform="translate(-4154.03 -1177.245)"/><path class="c" d="M4219.557,1353.908a.621.621,0,0,0,0,1.173,2.243,2.243,0,0,0,2.035,0,.621.621,0,0,0,0-1.173,2.254,2.254,0,0,0-2.034,0Z" transform="translate(-4125.713 -1160.893)"/><path class="c" d="M4185.909,1334.482a.622.622,0,0,0,0,1.173,2.246,2.246,0,0,0,2.035,0,.622.622,0,0,0,0-1.173,2.248,2.248,0,0,0-2.035,0Z" transform="translate(-4097.381 -1144.538)"/><path class="c" d="M4152.275,1315.056a.622.622,0,0,0,0,1.173,2.24,2.24,0,0,0,2.031,0,.622.622,0,0,0,0-1.172,2.243,2.243,0,0,0-2.031,0Z" transform="translate(-4069.059 -1128.181)"/><path class="c" d="M4118.629,1295.63a.622.622,0,0,0,0,1.173,2.244,2.244,0,0,0,2.035,0,.622.622,0,0,0,0-1.174A2.249,2.249,0,0,0,4118.629,1295.63Z" transform="translate(-4040.728 -1111.823)"/><path class="c" d="M4084.991,1276.217a.622.622,0,0,0,0,1.172,2.24,2.24,0,0,0,2.034,0,.622.622,0,0,0,0-1.172A2.251,2.251,0,0,0,4084.991,1276.217Z" transform="translate(-4012.405 -1095.475)"/><path class="c" d="M4051.349,1256.791a.621.621,0,0,0,0,1.173,2.241,2.241,0,0,0,2.033,0,.622.622,0,0,0,0-1.173,2.252,2.252,0,0,0-2.033,0Z" transform="translate(-3984.073 -1079.118)"/><path class="c" d="M4017.706,1237.37a.622.622,0,0,0,0,1.174,2.255,2.255,0,0,0,2.034,0,.621.621,0,0,0,0-1.174,2.248,2.248,0,0,0-2.034,0Z" transform="translate(-3955.744 -1062.76)"/><path class="c" d="M3984.068,1217.948a.622.622,0,0,0,0,1.174,2.242,2.242,0,0,0,2.034,0,.622.622,0,0,0,0-1.174A2.251,2.251,0,0,0,3984.068,1217.948Z" transform="translate(-3927.422 -1046.409)"/><path class="c" d="M4356.219,1392.768a2.244,2.244,0,0,0-2.034,0,.622.622,0,0,0,0,1.172,2.249,2.249,0,0,0,2.034,0,.622.622,0,0,0,0-1.176Z" transform="translate(-4239.058 -1193.614)"/><path class="c" d="M4320.472,1373.33a.621.621,0,0,0,0,1.174,2.246,2.246,0,0,0,2.03,0,.621.621,0,0,0,0-1.174A2.239,2.239,0,0,0,4320.472,1373.33Z" transform="translate(-4210.708 -1177.245)"/><path class="c" d="M4286.8,1353.908a.622.622,0,0,0,0,1.173,2.244,2.244,0,0,0,2.034,0,.622.622,0,0,0,0-1.173,2.254,2.254,0,0,0-2.034,0Z" transform="translate(-4182.353 -1160.893)"/><path class="c" d="M4253.211,1334.482a.622.622,0,0,0,0,1.172,2.241,2.241,0,0,0,2.034,0,.621.621,0,0,0,0-1.172,2.245,2.245,0,0,0-2.034,0Z" transform="translate(-4154.03 -1144.538)"/><path class="c" d="M4219.557,1315.056a.622.622,0,0,0,0,1.173,2.244,2.244,0,0,0,2.035,0,.622.622,0,0,0,0-1.172,2.246,2.246,0,0,0-2.033,0Z" transform="translate(-4125.713 -1128.181)"/><path class="c" d="M4185.91,1295.63a.622.622,0,0,0,0,1.173,2.244,2.244,0,0,0,2.035,0,.622.622,0,0,0,0-1.173,2.249,2.249,0,0,0-2.034,0Z" transform="translate(-4097.382 -1111.823)"/><path class="c" d="M4152.275,1276.217a.622.622,0,0,0,0,1.172,2.237,2.237,0,0,0,2.031,0,.622.622,0,0,0,0-1.172,2.243,2.243,0,0,0-2.03,0Z" transform="translate(-4069.059 -1095.475)"/><path class="c" d="M4118.629,1256.791a.622.622,0,0,0,0,1.173,2.241,2.241,0,0,0,2.033,0,.622.622,0,0,0,0-1.173,2.252,2.252,0,0,0-2.034,0Z" transform="translate(-4040.727 -1079.117)"/><path class="c" d="M4084.991,1237.37a.622.622,0,0,0,0,1.174,2.255,2.255,0,0,0,2.034,0,.621.621,0,0,0,0-1.174,2.244,2.244,0,0,0-2.033,0Z" transform="translate(-4012.406 -1062.76)"/><path class="c" d="M4051.349,1217.948a.621.621,0,0,0,0,1.174,2.247,2.247,0,0,0,2.033,0,.621.621,0,0,0,0-1.174A2.255,2.255,0,0,0,4051.349,1217.948Z" transform="translate(-3984.074 -1046.409)"/><path class="c" d="M4017.706,1199.822a.622.622,0,0,0,0,1.172,2.246,2.246,0,0,0,2.034,0,.622.622,0,0,0,0-1.173Z" transform="translate(-3955.744 -1031.349)"/><path class="c" d="M4356.473,1353.7a2.244,2.244,0,0,0-2.033,0,.621.621,0,0,0,0,1.175,2.257,2.257,0,0,0,2.033,0Z" transform="translate(-4239.277 -1160.716)"/><path class="c" d="M4320.809,1334.279a.622.622,0,0,0,0,1.175,2.246,2.246,0,0,0,2.035,0,.622.622,0,0,0,0-1.175A2.261,2.261,0,0,0,4320.809,1334.279Z" transform="translate(-4210.952 -1144.368)"/><path class="c" d="M4287.095,1314.858a.621.621,0,0,0,0,1.172,2.246,2.246,0,0,0,2.034,0,.622.622,0,0,0,0-1.172A2.251,2.251,0,0,0,4287.095,1314.858Z" transform="translate(-4182.603 -1128.012)"/><path class="c" d="M4253.466,1295.432a.621.621,0,0,0,0,1.175,2.252,2.252,0,0,0,2.034,0,.622.622,0,0,0,0-1.175A2.249,2.249,0,0,0,4253.466,1295.432Z" transform="translate(-4154.285 -1111.655)"/><path class="c" d="M4219.849,1276.01a.621.621,0,0,0,0,1.174,2.243,2.243,0,0,0,2.034,0,.621.621,0,0,0,0-1.174,2.255,2.255,0,0,0-2.033,0Z" transform="translate(-4125.958 -1095.303)"/><path class="c" d="M4186.2,1256.588a.621.621,0,0,0,0,1.175,2.245,2.245,0,0,0,2.033,0,.621.621,0,0,0,0-1.175,2.26,2.26,0,0,0-2.034,0Z" transform="translate(-4097.628 -1078.944)"/><path class="c" d="M4152.567,1237.167a.621.621,0,0,0,0,1.172,2.242,2.242,0,0,0,2.034,0,.621.621,0,0,0,0-1.172,2.243,2.243,0,0,0-2.034,0Z" transform="translate(-4069.305 -1062.589)"/><path class="c" d="M4118.921,1217.745a.621.621,0,0,0,0,1.173,2.237,2.237,0,0,0,2.033,0,.621.621,0,0,0,0-1.173,2.252,2.252,0,0,0-2.034,0Z" transform="translate(-4040.974 -1046.238)"/><path class="c" d="M4085.283,1198.319a.622.622,0,0,0,0,1.173,2.241,2.241,0,0,0,2.034,0,.622.622,0,0,0,0-1.174A2.256,2.256,0,0,0,4085.283,1198.319Z" transform="translate(-4012.651 -1029.881)"/><path class="c" d="M4322.8,1295.432a2.252,2.252,0,0,0-2.035,0,.622.622,0,0,0,0,1.175,2.255,2.255,0,0,0,2.035,0Z" transform="translate(-4210.935 -1111.655)"/><path class="c" d="M4289.171,1276.01a2.259,2.259,0,0,0-2.034,0,.621.621,0,0,0,0,1.175,2.248,2.248,0,0,0,2.033,0,.621.621,0,0,0,0-1.175Z" transform="translate(-4182.605 -1095.303)"/><path class="c" d="M4255.542,1256.588a2.25,2.25,0,0,0-2.033,0,.621.621,0,0,0,0,1.174,2.242,2.242,0,0,0,2.033,0,.621.621,0,0,0,0-1.172Z" transform="translate(-4154.292 -1078.946)"/><path class="c" d="M4221.865,1237.167a2.242,2.242,0,0,0-2.034,0,.621.621,0,0,0,0,1.172,2.242,2.242,0,0,0,2.034,0,.622.622,0,0,0,0-1.172Z" transform="translate(-4125.949 -1062.59)"/><path class="c" d="M4186.2,1217.745a.621.621,0,0,0,0,1.173,2.242,2.242,0,0,0,2.034,0,.622.622,0,0,0,0-1.174,2.253,2.253,0,0,0-2.034,0Z" transform="translate(-4097.627 -1046.238)"/><path class="c" d="M4152.567,1198.319a.622.622,0,0,0,0,1.173,2.237,2.237,0,0,0,2.033,0,.621.621,0,0,0,0-1.174A2.253,2.253,0,0,0,4152.567,1198.319Z" transform="translate(-4069.305 -1029.881)"/><path class="f" d="M4066.363,343.111l-.047-.027c-.075-.028-.15-.052-.226-.084l-59.822-34.461a12.471,12.471,0,0,1-5.6-10.46l.044-154.981a5.73,5.73,0,0,1,.117-.815c.792-5.745,7.635-8.95,12.873-5.933l.09.057c.061.032.118.056.177.089l59.765,34.483a12.272,12.272,0,0,1,5.5,10.292l-.112,154.433a5.14,5.14,0,0,1-.08.847A8.448,8.448,0,0,1,4066.363,343.111Z" transform="translate(-3941.755 -134.884)"/><path class="g" d="M4063.361,186.679s7.444-2.237,9.9-5.273a6.984,6.984,0,0,0,1.122-6.518,12.265,12.265,0,0,0-4.134-4.621l-59.764-34.482c-.06-.033-.12-.056-.178-.091l-.089-.057a8.654,8.654,0,0,0-6.243-.924c-.02.011-.041.018-.062.027a7.884,7.884,0,0,0-4.43,5.955,5.2,5.2,0,0,0-.11.751l-.044,154.981a12.015,12.015,0,0,0,.286,2.564,12.319,12.319,0,0,0,7.136,7.977c.482.21.9.4,1.295.565a.7.7,0,0,0,.162-.325l55.154-120.527Zm1.194,155.051.124-.214h0l-.129.206-.084-.031c-.06-.021-.121-.046-.179-.074l-59.835-34.471a12.742,12.742,0,0,1-5.742-10.719l.044-155a5.888,5.888,0,0,1,.12-.836,8.49,8.49,0,0,1,4.769-6.409,9.115,9.115,0,0,1,8.576.253l.14.078c.038.021.078.038.119.062l59.777,34.492a12.557,12.557,0,0,1,5.64,10.553l-.113,154.435a5.207,5.207,0,0,1-.08.862,8.485,8.485,0,0,1-4.537,6.942,8.814,8.814,0,0,1-8.612-.128Z" transform="translate(-3940.103 -133.233)"/><path class="f" d="M4475.95,527.167l-.005-2.325c0-.673-.544-.9-1.218-.515h0a2.524,2.524,0,0,0-1.222,1.921l.005,2.322c0,.675.546.9,1.221.517h0a2.53,2.53,0,0,0,1.22-1.92Z" transform="translate(-4339.904 -462.396)"/><path class="h" d="M4473.6,526.4a2.537,2.537,0,0,1,1.22-1.921,1.377,1.377,0,0,1,.459-.149.757.757,0,0,1,.04.266l.005,2.324a2.519,2.519,0,0,1-1.221,1.921,1.349,1.349,0,0,1-.452.169.887.887,0,0,1-.046-.288Z" transform="translate(-4339.986 -462.554)"/><path class="g" d="M4472.919,525.457a2.35,2.35,0,0,1,1.142-1.784.933.933,0,0,1,.263-.1c0,.026,0,.052,0,.083l.007,2.324a2.373,2.373,0,0,1-1.145,1.786,1.358,1.358,0,0,1-.257.117.479.479,0,0,1-.006-.1Zm1.631-2.248-.134.024a1.494,1.494,0,0,0-.509.17,2.666,2.666,0,0,0-1.3,2.055h0l.006,2.324a1.1,1.1,0,0,0,.054.335l.04.129.136-.023a1.572,1.572,0,0,0,.5-.189,2.657,2.657,0,0,0,1.3-2.055l-.007-2.324a.953.953,0,0,0-.046-.312Z" transform="translate(-4339.136 -461.611)"/><path class="h" d="M4482.877,542.187h0c0-.673-.544-.9-1.219-.518h0a2.53,2.53,0,0,0-1.22,1.921h0c0,.673.544.9,1.217.515h0a2.525,2.525,0,0,0,1.222-1.919Z" transform="translate(-4345.731 -477)"/><path class="g" d="M4479.671,542.938a.665.665,0,0,1-.072-.332,2.359,2.359,0,0,1,1.13-1.76.771.771,0,0,1,.734-.109.515.515,0,0,1,.2.464h0a2.357,2.357,0,0,1-1.127,1.76.784.784,0,0,1-.734.109.377.377,0,0,1-.132-.132Zm2.242-2.26a.731.731,0,0,0-.266-.268,1.117,1.117,0,0,0-1.107.113,2.694,2.694,0,0,0-1.315,2.082.853.853,0,0,0,.389.788,1.117,1.117,0,0,0,1.109-.11,2.688,2.688,0,0,0,1.313-2.082h0a1.049,1.049,0,0,0-.107-.522Z" transform="translate(-4344.716 -476.009)"/><path class="f" d="M4476.323,539.348a2.527,2.527,0,0,0-1.222,1.921.687.687,0,0,0,.268.6v0l-.829-.366a.532.532,0,0,1-.09-.043l-.068-.037-.056-.029c-.184-.108-.25-.283-.249-.587a2.526,2.526,0,0,1,1.22-1.921,1,1,0,0,1,.841-.145l-.045-.015.056.019.074.032.925.419A1.013,1.013,0,0,0,4476.323,539.348Z" transform="translate(-4340.379 -474.657)"/><path class="g" d="M4475.042,537.931l.061.027.3.133c-.068.03-.136.063-.207.1a2.691,2.691,0,0,0-1.313,2.083,1.048,1.048,0,0,0,.018.207l-.32-.14a.628.628,0,0,1-.076-.035l-.124-.067c-.075-.044-.152-.117-.152-.421a2.358,2.358,0,0,1,1.129-1.761.877.877,0,0,1,.647-.141l.041.013Zm1.143.106-.926-.419s-.072-.033-.083-.036l-.032-.009a1.2,1.2,0,0,0-.977.163,2.7,2.7,0,0,0-1.316,2.082.792.792,0,0,0,.339.749l.129.069a1.231,1.231,0,0,0,.119.056l.946.417.213-.27-.162-.116a.521.521,0,0,1-.187-.445,2.364,2.364,0,0,1,1.127-1.759.843.843,0,0,1,.668-.134l.138-.347Z" transform="translate(-4339.378 -473.668)"/><path class="f" d="M4475.966,567.855a2.524,2.524,0,0,0-1.219,1.921l-.007,6.97a.651.651,0,0,0,.333.641l-1.1-.519-.1-.051a.656.656,0,0,1-.408-.673l.01-6.97a2.524,2.524,0,0,1,1.219-1.921.9.9,0,0,1,.777-.17l.064.024h.008a.213.213,0,0,1,.032.016l1.254.589a.99.99,0,0,0-.862.143Z" transform="translate(-4339.873 -498.525)"/><path class="g" d="M4472.7,575.463a.591.591,0,0,1-.068-.313l.007-6.971a2.359,2.359,0,0,1,1.13-1.759c.289-.169.469-.214.617-.156l.065.024.636.3a1.9,1.9,0,0,0-.23.113,2.69,2.69,0,0,0-1.314,2.082l-.009,6.971a1.081,1.081,0,0,0,.016.194l-.616-.292a.444.444,0,0,1-.233-.192Zm3.187-8.912-1.373-.636a1.083,1.083,0,0,0-.935.182,2.688,2.688,0,0,0-1.314,2.081l-.008,6.97a.836.836,0,0,0,.524.847l1.19.565h0l.161-.339h0a.487.487,0,0,1-.226-.472l.008-6.971a2.368,2.368,0,0,1,1.129-1.76.842.842,0,0,1,.7-.129Z" transform="translate(-4338.872 -497.53)"/><path class="h" d="M4483.976,578.643l.008-6.969c0-.674-.544-.9-1.219-.516h0a2.525,2.525,0,0,0-1.22,1.921l-.008,6.97c0,.672.542.9,1.217.516h0A2.532,2.532,0,0,0,4483.976,578.643Z" transform="translate(-4346.657 -501.826)"/><path class="g" d="M4480.813,579.386a.676.676,0,0,1-.073-.332l.008-6.971a2.362,2.362,0,0,1,1.13-1.76.785.785,0,0,1,.734-.109.514.514,0,0,1,.2.464l-.01,6.971a2.356,2.356,0,0,1-1.126,1.759.768.768,0,0,1-.734.11.365.365,0,0,1-.132-.132Zm2.249-9.226a.716.716,0,0,0-.265-.269,1.114,1.114,0,0,0-1.108.11,2.688,2.688,0,0,0-1.313,2.082l-.01,6.97a.856.856,0,0,0,.39.788,1.115,1.115,0,0,0,1.109-.11,2.69,2.69,0,0,0,1.314-2.081l.007-6.971a1.03,1.03,0,0,0-.113-.521Z" transform="translate(-4345.676 -500.831)"/><path class="f" d="M4475.585,639.686a2.528,2.528,0,0,0-1.221,1.921l-.008,6.969a.659.659,0,0,0,.333.642l-1.1-.52-.1-.051a.655.655,0,0,1-.407-.673l.007-6.969a2.53,2.53,0,0,1,1.221-1.921.9.9,0,0,1,.776-.169l.064.022h.006c.013,0,.024.011.035.016l1.254.589a.991.991,0,0,0-.859.144Z" transform="translate(-4339.554 -559.012)"/><path class="g" d="M4472.32,647.29a.619.619,0,0,1-.07-.314l.008-6.971a2.356,2.356,0,0,1,1.126-1.759c.291-.17.47-.214.621-.158l.063.024.635.3a1.645,1.645,0,0,0-.227.113,2.7,2.7,0,0,0-1.315,2.081l-.008,6.971a1.247,1.247,0,0,0,.015.2l-.615-.293a.453.453,0,0,1-.234-.19Zm3.187-8.913-1.373-.637a1.093,1.093,0,0,0-.936.182,2.7,2.7,0,0,0-1.314,2.082l-.009,6.97a.84.84,0,0,0,.525.847l1.19.565h0l.162-.339h0a.49.49,0,0,1-.227-.472l.008-6.971a2.357,2.357,0,0,1,1.13-1.759.827.827,0,0,1,.693-.129Z" transform="translate(-4338.541 -558.012)"/><path class="h" d="M4483.6,650.475l.009-6.97c0-.673-.545-.9-1.218-.516h0a2.527,2.527,0,0,0-1.221,1.921l-.009,6.969c0,.673.546.9,1.218.516h0a2.526,2.526,0,0,0,1.22-1.919Z" transform="translate(-4346.337 -562.31)"/><path class="g" d="M4480.433,651.216a.655.655,0,0,1-.074-.332l.009-6.97a2.356,2.356,0,0,1,1.13-1.759.778.778,0,0,1,.733-.11.515.515,0,0,1,.2.464l-.007,6.971a2.356,2.356,0,0,1-1.129,1.758.773.773,0,0,1-.735.113.355.355,0,0,1-.13-.134Zm2.249-9.227a.723.723,0,0,0-.266-.268,1.112,1.112,0,0,0-1.107.11,2.693,2.693,0,0,0-1.316,2.081l-.007,6.971a.857.857,0,0,0,.39.791,1.113,1.113,0,0,0,1.106-.11,2.7,2.7,0,0,0,1.317-2.082l.008-6.97a1.069,1.069,0,0,0-.125-.52Z" transform="translate(-4345.357 -561.316)"/><path class="h" d="M4006.437,157.528l-.042,154.981a12.473,12.473,0,0,0,5.6,10.46l59.825,34.457c3.489,1.551,7.684-.175,7.7-4.12l.113-154.433a12.271,12.271,0,0,0-5.5-10.293L4014.373,154.1c-4.345-2.439-7.684-.231-7.933,3.427Z" transform="translate(-3946.579 -149.94)"/><path class="f" d="M4080.378,376.875l-57.7-33.5a8.736,8.736,0,0,1-3.923-7.329l.105-151.913c.173-2.564,2.513-4.11,5.559-2.4l11.751,6.837-.007,2.067a7.884,7.884,0,0,0,3.273,6.295l26.036,15.133c1.813,1.055,3.289-.057,3.295-2.478l.006-2.061,13.3,7.728a8.6,8.6,0,0,1,3.857,7.213l-.154,151.53a3.48,3.48,0,0,1-5.4,2.886Z" transform="translate(-3956.988 -173.461)"/><path class="f" d="M4176.983,265.986l-.074-.043c-.381-.223-.691.011-.695.52h0a1.655,1.655,0,0,0,.688,1.327l.07.043c.383.222.694-.01.7-.52h0A1.66,1.66,0,0,0,4176.983,265.986Z" transform="translate(-4089.573 -244.91)"/><path class="f" d="M4204.249,281.9l-13.216-7.714c-.382-.223-.692.011-.7.52h0a1.667,1.667,0,0,0,.688,1.328l13.217,7.713c.38.226.691-.01.694-.52h0a1.658,1.658,0,0,0-.687-1.327Z" transform="translate(-4101.466 -251.847)"/><path class="h" d="M4054.168,599.978l53.858,30.766c1.408.805,2.542-.062,2.534-1.934h0a6.089,6.089,0,0,0-2.567-4.845L4054.138,593.2c-1.408-.8-2.542.062-2.535,1.935h0A6.094,6.094,0,0,0,4054.168,599.978Z" transform="translate(-3984.643 -520.29)"/><path class="i" d="M4099.705,639.713a1.758,1.758,0,0,0,.892-.237,2.7,2.7,0,0,0,1.1-2.464,6.51,6.51,0,0,0-2.8-5.248L4045.041,601a2.078,2.078,0,0,0-2.13-.123,2.7,2.7,0,0,0-1.1,2.462,6.509,6.509,0,0,0,2.8,5.248l53.857,30.767A2.509,2.509,0,0,0,4099.705,639.713Z" transform="translate(-3976.4 -526.808)"/><path class="j" d="M3678.377,709.784a4.382,4.382,0,0,0,2.137-.494l67.314-38.4a1.758,1.758,0,0,0,.879-1.051l.061-.006V669.5l-.095-1.978-2.95-.8-45.12-25.489a5.474,5.474,0,0,0-4.921-.2l-67.975,37.508.056,2.62a2.409,2.409,0,0,0,1.29,1.5l46.538,26.431a5.816,5.816,0,0,0,2.784.693Z" transform="translate(-3627.704 -560.409)"/><path class="j" d="M3630.311,671.219l67.313-38.4a5.166,5.166,0,0,1,4.576.2l46.839,26.446c1.369.773,1.543,1.937.389,2.6l-67.315,38.4a5.163,5.163,0,0,1-4.576-.2L3632.076,674.6c-1.371-.773-2.921-2.715-1.764-3.378Z" transform="translate(-3629.554 -553.533)"/><path class="j" d="M3632,678.292l67.316-38.4a5.171,5.171,0,0,1,4.577.2l46.839,26.446c1.371.774.759,1.362-.4,2.023l-66.162,37.16c-1.154.663-3.4,1.6-4.77.826L3634.934,681.2c-1.372-.773-4.081-2.247-2.926-2.908Z" transform="translate(-3631.082 -559.487)"/><path class="k" d="M3697.715,630.845a5.178,5.178,0,0,1,2.455.6l46.839,26.442c.609.345.976.791.976,1.193a1,1,0,0,1-.591.8l-67.314,38.4a4.872,4.872,0,0,1-4.231-.2l-45.459-25.668c-1.022-.577-1.991-1.739-1.993-2.389a.4.4,0,0,1,.232-.383l67.313-38.406a3.677,3.677,0,0,1,1.774-.392Zm-19.427,68.535a4.362,4.362,0,0,0,2.136-.491l67.314-38.405a1.639,1.639,0,0,0,.941-1.409,2.232,2.232,0,0,0-1.329-1.8l-46.84-26.447a5.468,5.468,0,0,0-4.918-.2l-67.315,38.406a1.093,1.093,0,0,0-.58.989c0,1,1.216,2.356,2.346,2.995l45.461,25.667a5.8,5.8,0,0,0,2.786.7Z" transform="translate(-3627.698 -551.655)"/><path class="l" d="M4161.563,740.312l2.166-1.233c.738-.42.757-1.091.041-1.5l-6.029-3.427a2.957,2.957,0,0,0-2.636.024l-2.164,1.231Z" transform="translate(-4069.976 -638.985)"/><path class="l" d="M4128.6,746.952l-3.491,1.987,8.622,4.9,3.491-1.987Z" transform="translate(-4046.538 -650.013)"/><path class="l" d="M4111.424,768.909l2.14-1.217-8.621-4.9-2.142,1.216c-.734.42-.757,1.091-.041,1.5l6.029,3.427a2.954,2.954,0,0,0,2.635-.024Z" transform="translate(-4027.279 -663.355)"/><path class="l" d="M3933.035,991.161a2.867,2.867,0,0,1-2.856-.346c-1.074-.628-1.356-1.2-.565-1.65a2.808,2.808,0,0,1,2.849.346C3933.51,990.121,3933.825,990.709,3933.035,991.161Zm-3.842-2.241c-1.017.583-.715,1.319.626,2.1a3.631,3.631,0,0,0,3.635.386c.995-.57.678-1.338-.631-2.1a3.58,3.58,0,0,0-3.63-.38Z" transform="translate(-3881.061 -853.476)"/><path class="l" d="M3954.265,979.033a2.863,2.863,0,0,1-2.856-.348c-1.073-.626-1.356-1.195-.564-1.647a2.822,2.822,0,0,1,2.851.343C3954.739,977.988,3955.055,978.581,3954.265,979.033Zm-3.842-2.24c-1.017.58-.713,1.317.626,2.1a3.633,3.633,0,0,0,3.635.385c1-.57.678-1.338-.632-2.1a3.572,3.572,0,0,0-3.63-.384Z" transform="translate(-3898.939 -843.26)"/><path class="l" d="M3975.494,966.9a2.855,2.855,0,0,1-2.853-.347c-1.077-.626-1.356-1.2-.568-1.648a2.822,2.822,0,0,1,2.851.343C3975.969,965.862,3976.285,966.45,3975.494,966.9Zm-3.842-2.24c-1.016.581-.712,1.319.628,2.1a3.62,3.62,0,0,0,3.634.385c1-.569.679-1.337-.632-2.1a3.577,3.577,0,0,0-3.63-.381Z" transform="translate(-3916.814 -833.048)"/><path class="l" d="M3996.729,954.769a2.865,2.865,0,0,1-2.854-.347c-1.077-.629-1.356-1.2-.565-1.65a2.815,2.815,0,0,1,2.85.345C3997.2,953.729,3997.519,954.316,3996.729,954.769Zm-3.842-2.241c-1.017.581-.714,1.319.621,2.1a3.633,3.633,0,0,0,3.638.386c1-.569.679-1.337-.632-2.1a3.579,3.579,0,0,0-3.621-.386Z" transform="translate(-3934.695 -822.83)"/><path class="l" d="M4027.464,937.2a2.858,2.858,0,0,1-2.854-.347c-1.074-.627-1.356-1.2-.565-1.648a2.816,2.816,0,0,1,2.848.343C4027.939,936.161,4028.255,936.754,4027.464,937.2Zm-3.842-2.24c-1.017.581-.714,1.319.625,2.1a3.623,3.623,0,0,0,3.635.385c1-.565.682-1.336-.63-2.1a3.58,3.58,0,0,0-3.624-.381Z" transform="translate(-3960.576 -808.041)"/><path class="l" d="M4048.694,925.068a2.868,2.868,0,0,1-2.856-.346c-1.073-.628-1.355-1.2-.565-1.65a2.81,2.81,0,0,1,2.85.346C4049.169,924.023,4049.485,924.616,4048.694,925.068Zm-3.842-2.241c-1.017.582-.713,1.319.625,2.1a3.634,3.634,0,0,0,3.637.386c1-.569.678-1.338-.632-2.1a3.583,3.583,0,0,0-3.63-.385Z" transform="translate(-3978.449 -797.82)"/><path class="l" d="M4069.925,912.939a2.862,2.862,0,0,1-2.855-.347c-1.073-.627-1.356-1.2-.564-1.648a2.821,2.821,0,0,1,2.851.344C4070.4,911.893,4070.715,912.487,4069.925,912.939Zm-3.842-2.24c-1.017.579-.714,1.317.626,2.1a3.623,3.623,0,0,0,3.633.386c1-.57.682-1.338-.63-2.1a3.569,3.569,0,0,0-3.629-.379Z" transform="translate(-3996.327 -787.606)"/><path class="l" d="M4091.154,900.809a2.857,2.857,0,0,1-2.853-.347c-1.078-.626-1.36-1.2-.568-1.648a2.821,2.821,0,0,1,2.851.343C4091.629,899.769,4091.945,900.357,4091.154,900.809Zm-3.842-2.24c-1.017.58-.712,1.317.626,2.1a3.621,3.621,0,0,0,3.635.385c1-.565.678-1.336-.631-2.1a3.594,3.594,0,0,0-3.63-.386Z" transform="translate(-4014.206 -777.393)"/><path class="l" d="M4121.889,883.242a2.859,2.859,0,0,1-2.854-.346c-1.073-.627-1.356-1.2-.565-1.648a2.818,2.818,0,0,1,2.849.343C4122.364,882.2,4122.68,882.79,4121.889,883.242Zm-3.841-2.24c-1.017.58-.712,1.317.626,2.1a3.631,3.631,0,0,0,3.635.385c1-.57.678-1.338-.63-2.1a3.576,3.576,0,0,0-3.626-.385Z" transform="translate(-4040.087 -762.6)"/><path class="l" d="M4143.119,871.112a2.859,2.859,0,0,1-2.854-.349c-1.073-.626-1.355-1.2-.564-1.648a2.818,2.818,0,0,1,2.849.344C4143.594,870.073,4143.91,870.66,4143.119,871.112Zm-3.842-2.241c-1.018.581-.713,1.319.626,2.1a3.628,3.628,0,0,0,3.635.386c1-.57.679-1.337-.631-2.1a3.582,3.582,0,0,0-3.63-.379Z" transform="translate(-4057.96 -752.388)"/><path class="l" d="M4164.353,858.979a2.864,2.864,0,0,1-2.854-.346c-1.074-.629-1.356-1.2-.566-1.65a2.809,2.809,0,0,1,2.848.345C4164.828,857.939,4165.145,858.527,4164.353,858.979Zm-3.841-2.241c-1.018.582-.714,1.319.625,2.1a3.629,3.629,0,0,0,3.636.386c1-.57.679-1.338-.631-2.1a3.586,3.586,0,0,0-3.629-.383Z" transform="translate(-4075.842 -742.171)"/><path class="l" d="M4185.583,846.845a2.866,2.866,0,0,1-2.855-.347c-1.074-.627-1.356-1.2-.565-1.648a2.821,2.821,0,0,1,2.851.344C4186.058,845.805,4186.374,846.393,4185.583,846.845Zm-3.842-2.24c-1.017.581-.713,1.318.626,2.1a3.634,3.634,0,0,0,3.635.385c1-.569.679-1.338-.631-2.1a3.581,3.581,0,0,0-3.629-.382Z" transform="translate(-4093.72 -731.955)"/><path class="l" d="M4216.307,829.282a2.862,2.862,0,0,1-2.854-.347c-1.079-.628-1.357-1.2-.569-1.65a2.814,2.814,0,0,1,2.85.343C4216.781,828.242,4217.1,828.83,4216.307,829.282Zm-3.842-2.24c-1.017.58-.714,1.317.625,2.1a3.632,3.632,0,0,0,3.636.387c.995-.57.677-1.338-.632-2.1a3.581,3.581,0,0,0-3.629-.379Z" transform="translate(-4119.588 -717.165)"/><path class="l" d="M4237.541,817.153a2.864,2.864,0,0,1-2.854-.346c-1.073-.627-1.356-1.2-.564-1.648a2.819,2.819,0,0,1,2.85.344C4238.048,816.107,4238.331,816.7,4237.541,817.153Zm-3.842-2.24c-1.017.581-.712,1.317.627,2.1a3.626,3.626,0,0,0,3.635.385c1-.57.678-1.338-.632-2.1a3.593,3.593,0,0,0-3.631-.386Z" transform="translate(-4137.491 -706.951)"/><path class="l" d="M4258.749,805.02a2.859,2.859,0,0,1-2.854-.348c-1.073-.626-1.356-1.195-.564-1.647a2.817,2.817,0,0,1,2.849.343C4259.257,803.975,4259.54,804.568,4258.749,805.02Zm-3.841-2.24c-1.017.581-.713,1.318.626,2.1a3.634,3.634,0,0,0,3.635.387c1-.571.678-1.338-.63-2.1a3.566,3.566,0,0,0-3.631-.386Z" transform="translate(-4155.35 -696.733)"/><path class="l" d="M4280.042,792.885a2.858,2.858,0,0,1-2.852-.346c-1.075-.627-1.357-1.2-.566-1.65a2.82,2.82,0,0,1,2.851.343C4280.494,791.845,4280.833,792.433,4280.042,792.885Zm-3.839-2.241c-1.016.58-.714,1.319.625,2.1a3.626,3.626,0,0,0,3.635.386c1-.569.678-1.337-.63-2.1-1.373-.782-2.615-.963-3.632-.381Z" transform="translate(-4173.24 -686.518)"/><path class="k" d="M3757.619,833.187l11.145-6.434c2.648-1.529,2.316-4.2-.741-5.963l-9.661-5.579c-3.056-1.766-7.68-1.957-10.329-.428l-11.144,6.434c-2.647,1.529-2.316,4.2.741,5.963l9.662,5.577C3750.348,834.521,3754.969,834.713,3757.619,833.187Z" transform="translate(-3718.133 -706.26)"/><path class="l" d="M3861.349,864.15l2.791-1.612c1.666-.961,1.458-2.64-.465-3.751l-1.858-1.074a7.212,7.212,0,0,0-6.494-.268l-2.792,1.611c-1.665.961-1.456,2.639.465,3.749l1.861,1.074A7.206,7.206,0,0,0,3861.349,864.15Z" transform="translate(-3816.067 -742.509)"/></g><path class="m" d="M4947.629,813.879l1.177-.711-.157-.081Z" transform="translate(-4709.395 -705.703)"/></g></g></svg>