<svg xmlns="http://www.w3.org/2000/svg" xmlns:xlink="http://www.w3.org/1999/xlink" width="271" height="350" viewBox="0 0 271 350"><defs><style>.a{fill:#fff;stroke:#707070;}.b{clip-rule:evenodd;}.c{clip-path:url(#a);}.d{fill:#bdc1c6;}.e{fill:#dadce0;}.f{fill:#e8eaed;}.g,.k{fill:#abc5ff;}.g,.h,.i,.j,.l,.m,.p,.q,.r{fill-rule:evenodd;}.h{fill:#2950af;}.i{fill:#03243b;}.j{fill:#0d346b;}.l{fill:#5591ff;}.m{fill:#ff5833;}.n{clip-path:url(#b);}.o,.q{fill:#d4492a;}.p{fill:none;}.r{fill:#17449c;}</style><clipPath id="a"><rect class="a" width="271" height="350" transform="translate(140 1826)"/></clipPath><clipPath id="b"><path class="b" d="M37.885,108.774q4.843,2.794,9.683,5.591a1.033,1.033,0,0,1,.491.795v1.634c0,.288-.224.382-.491.229q-4.843-2.794-9.683-5.591a1.033,1.033,0,0,1-.491-.795V109C37.395,108.718,37.616,108.621,37.885,108.774Z" transform="translate(-37.395 -108.702)"/></clipPath></defs><g class="c" transform="translate(-140 -1826)"><g transform="translate(250.467 1861.726)"><path class="d" d="M187.384,321.8l0-122.132L.029,199.559V320.922c-.236,2.927,1.795,6.077,6,8.506L80.5,372.423c7.292,4.209,18.326,4.669,24.641,1.023l78.01-45.042c3.037-1.752,4.412-4.132,4.233-6.6Z" transform="translate(0.002 57.367)"/><path class="e" d="M173.619,321.8l0-120.5a1.742,1.742,0,0,0-1.738-1.74l-14.383-.009L79.939,233.83l0,142.04a22.312,22.312,0,0,0,11.435-2.431l78.01-45.037c2.684-1.549,4.07-3.592,4.235-5.747v-.778c0-.026-.009-.047-.012-.071h.009Z" transform="translate(13.767 57.367)"/><path class="f" d="M183.153,214.108l-78.01,45.04c-6.315,3.648-17.349,3.188-24.641-1.021l-74.47-43c-7.292-4.212-8.086-10.581-1.771-14.227l78.007-45.037c6.315-3.646,17.349-3.188,24.643,1.019l74.468,43c7.294,4.212,8.086,10.579,1.771,14.225Z" transform="translate(0 49.419)"/><g transform="translate(35.716 22.998)"><g transform="translate(0.001 1.094)"><path class="g" d="M30.47,235.779V35.267l.205-.962.521-.941.835-.884,1.146-.8.79-.455.79-.455.79-.457.788-.455.79-.455.79-.455.79-.457.79-.455.788-.455.79-.457.79-.455.788-.457.79-.455.79-.455.79-.455.79-.457.788-.455.79-.455.79-.457.79-.455.79-.457.788-.455.79-.455.79-.455.788-.457.792-.455.788-.455.79-.457.79-.455.79-.455.788-.457.79-.455.79-.455.79-.455.788-.455.79-.457.79-.455.79-.455.79-.457.79-.455.79-.457.79-.455.79-.455.79-.457.79-.455L69.5,10.7l.792-.455.79-.455.79-.457.79-.455.79-.457.79-.455.79-.455.79-.457.79-.455.79-.457.79-.455.79-.457.79-.455.79-.457.792-.455.79-.457.79-.455.79-.455.674-.356.717-.307.752-.264.781-.217.8-.175.821-.127L89.1.967l.835-.035.835.009L91.6,1l.809.1.79.146.764.2.729.241.689.285.644.335.755.434.757.436.755.436.757.439.755.436.757.436.755.436.757.436.757.436.755.436.757.436.755.436.757.439.757.436.757.436.755.436.757.436.757.436.755.436.757.436.757.436.755.439.757.436.757.436.755.436.757.436.755.439.757.434.755.436.757.436.755.439.757.436.755.434.757.436.755.439.757.436.755.436.757.436.755.436.757.436.757.436.755.436.757.436.757.439.755.436.757.436.757.436.757.436.755.439.757.436.757.436.755.436.757.436.757.439.757.436.757.436.755.436.757.436.757.439.755.436.757.436.757.436.755.436.757.436,1.075.771.755.863.434.924.118.96V234.27l-.118-.957-.434-.927-.755-.861-1.075-.771-.757-.436-.755-.436-.757-.436-.757-.439-.755-.436-.757-.436-.757-.436-.755-.436-.757-.439-.757-.436-.757-.436-.757-.436-.755-.436-.757-.439-.757-.436-.755-.436-.757-.436-.757-.436-.757-.439-.755-.436-.757-.436-.757-.436-.755-.436-.757-.439-.757-.436-.755-.436-.757-.436-.755-.436-.757-.436-.755-.436-.757-.436-.755-.436-.757-.436-.755-.436-.757-.436-.755-.436-.757-.436-.755-.436-.757-.436-.755-.436-.757-.439-.757-.436-.755-.436-.757-.436-.757-.436-.755-.436-.757-.439-.757-.436-.755-.436-.757-.436-.757-.436-.757-.436-.755-.436-.757-.436-.755-.436-.757-.439-.757-.436-.755-.436L99.8,205l-.755-.436-.757-.436-.755-.436-.757-.436-.755-.436-.644-.333-.689-.288-.729-.241-.764-.193-.79-.149-.809-.1-.825-.054-.835-.009-.835.035-.832.083-.821.127-.8.172-.781.219-.752.262-.717.309-.674.354-.79.457-.79.455-.79.457-.792.455-.79.455-.79.457-.79.455-.79.457-.79.455-.79.455-.79.457-.79.455-.79.457-.79.455-.79.457-.79.455-.79.458-.792.455-.788.457-.79.455-.79.455-.79.455-.79.457-.79.455-.79.455-.79.457-.79.455-.79.458-.79.455-.788.455-.79.455-.79.457-.79.455-.788.455-.79.457-.79.455-.79.455-.788.457-.792.455-.788.455-.79.455-.79.457-.788.455-.79.457-.79.455-.79.455-.79.457-.788.455-.79.455-.79.455-.79.458-.79.455-.788.455-.79.457-.79.455-.788.455-.79.458-.79.455-.79.455-.79.455-.788.457-.79.455-.79.455-.79.458-1.146.8-.835.887-.521.939Z" transform="translate(-30.47 -0.931)"/></g><path class="g" d="M96.022,173.356l24.193,13.968q12.091,6.979,24.2,13.972c3.294,1.9,3.158,5.106-.316,7.112q-12.642,7.3-25.278,14.6L93.553,237.591c-3.474,2.007-9.025,2.087-12.319.182q-12.1-6.986-24.2-13.97L32.843,209.835c-3.3-1.9-3.136-5.1.337-7.1l25.264-14.588q12.632-7.294,25.278-14.6C87.195,171.542,92.725,171.453,96.022,173.356Z" transform="translate(-30.469 29.62)"/><g transform="translate(0.004 34.829)"><path class="h" d="M32.924,30.4q12.968,7.489,25.947,14.979T84.826,60.368a4.542,4.542,0,0,1,2.153,3.45V265.213Q72.922,257.1,58.874,248.986l-28.1-16.225V31.367c0-1.205.969-1.646,2.153-.965Z" transform="translate(-30.42 -29.646)"/><path class="i" d="M36.51,107q6.523,3.764,13.053,7.537a1.9,1.9,0,0,1,.91,1.467v3.044c0,.512-.41.7-.91.413q-6.533-3.771-13.053-7.537a1.93,1.93,0,0,1-.91-1.467v-3.044C35.6,106.876,36.01,106.706,36.51,107Z" transform="translate(-29.589 -16.425)"/><path class="j" d="M35.835,128.54l22.356,12.906q11.178,6.452,22.361,12.909a2.349,2.349,0,0,1,1.123,1.811v82.95c0,.634-.507.851-1.123.5Q69.367,233.159,58.191,226.7L35.835,213.8A2.354,2.354,0,0,1,34.715,212V129.056c0-.653.507-.87,1.12-.516Z" transform="translate(-29.741 -12.719)"/><path class="k" d="M35.888,128.234l22.356,12.907Q69.422,147.593,80.6,154.05a3.089,3.089,0,0,1,1.047,1.054,2.576,2.576,0,0,1,.434,1.332v82.95a.871.871,0,0,1-.434.835,1.214,1.214,0,0,1-1.047-.156Q69.42,233.61,58.244,227.154L35.888,214.246a3.312,3.312,0,0,1-1.047-1.054,2.7,2.7,0,0,1-.434-1.332V128.911a.824.824,0,0,1,.434-.832,1.154,1.154,0,0,1,1.047.156ZM80.6,154.788q-11.185-6.459-22.361-12.909L35.888,128.972a.6.6,0,0,0-.535-.085.442.442,0,0,0-.226.441v82.948a1.373,1.373,0,0,0,.226.684,1.584,1.584,0,0,0,.535.533L58.244,226.4q11.178,6.452,22.361,12.911a.6.6,0,0,0,.535.085.429.429,0,0,0,.226-.42v-82.95a1.372,1.372,0,0,0-.226-.7,1.583,1.583,0,0,0-.535-.533Z" transform="translate(-29.794 -12.781)"/><path class="i" d="M37.091,132.786q10.34,5.971,20.693,11.947t20.7,11.949V233.85L57.784,221.9,37.091,209.949V132.786Z" transform="translate(-29.332 -11.959)"/><path class="k" d="M32.977,30.061Q45.944,37.549,58.924,45.04L84.879,60.024a5.48,5.48,0,0,1,1.776,1.823,4.512,4.512,0,0,1,.745,2.245V265.833Q73.155,257.616,58.924,249.4t-28.452-16.43V31.226a1.418,1.418,0,0,1,.729-1.394,1.963,1.963,0,0,1,1.776.229ZM84.876,60.8Q71.9,53.307,58.922,45.819L32.974,30.839a1.439,1.439,0,0,0-1.264-.2,1.011,1.011,0,0,0-.528,1V232.667q13.866,8,27.74,16.017T86.668,264.7V63.68a3.235,3.235,0,0,0-.524-1.611,3.844,3.844,0,0,0-1.269-1.264Z" transform="translate(-30.472 -29.71)"/><path class="l" d="M36.343,37.439,57.97,49.924q10.81,6.24,21.637,12.491a1.58,1.58,0,0,1,.752,1.21V91.6c0,.429-.337.564-.752.323Q68.79,85.677,57.97,79.43L36.343,66.945a1.542,1.542,0,0,1-.745-1.186V37.784c0-.429.337-.582.745-.347Z" transform="translate(-29.589 -28.399)"/><path class="k" d="M36.4,37.136,58.03,49.62Q68.84,55.86,79.662,62.11a2.322,2.322,0,0,1,.785.781,2.1,2.1,0,0,1,.323,1V91.87a.622.622,0,0,1-.323.611.871.871,0,0,1-.785-.106Q68.845,86.128,58.03,79.886L36.4,67.4a2.412,2.412,0,0,1-.785-.8,1.961,1.961,0,0,1-.325-.983V37.641a.669.669,0,0,1,.325-.63.887.887,0,0,1,.785.127ZM79.662,62.845Q68.845,56.6,58.03,50.359L36.4,37.874a.355.355,0,0,0-.281-.038.248.248,0,0,0-.113.222V66.034a.8.8,0,0,0,.113.351.965.965,0,0,0,.281.264L58.03,79.133q10.81,6.24,21.632,12.489a.39.39,0,0,0,.281.059.248.248,0,0,0,.113-.222V63.484a.793.793,0,0,0-.113-.351.973.973,0,0,0-.281-.283Z" transform="translate(-29.642 -28.461)"/><path class="m" d="M36.35,70.772q10.81,6.24,21.627,12.487L79.609,95.746a1.58,1.58,0,0,1,.752,1.21v27.957c0,.429-.337.582-.752.344q-10.817-6.243-21.632-12.489L36.35,100.283a1.58,1.58,0,0,1-.752-1.21V71.116c0-.429.337-.582.752-.344Z" transform="translate(-29.589 -22.658)"/><path class="k" d="M36.4,70.467q10.81,6.24,21.627,12.487L79.662,95.441a2.322,2.322,0,0,1,.785.781,1.972,1.972,0,0,1,.323,1v27.957a.633.633,0,0,1-.323.63.881.881,0,0,1-.785-.127Q68.845,119.438,58.03,113.2T36.4,100.709a2.343,2.343,0,0,1-.785-.781,1.967,1.967,0,0,1-.325-1V70.969a.629.629,0,0,1,.325-.63.893.893,0,0,1,.785.125ZM79.662,96.176Q68.845,89.933,58.03,83.687L36.4,71.2a.286.286,0,0,0-.281-.038c-.068.021-.113.1-.113.222V99.341a.661.661,0,0,0,.113.351.787.787,0,0,0,.281.283L58.03,112.46q10.81,6.24,21.632,12.489a.292.292,0,0,0,.281.038c.068-.024.113-.1.113-.222V96.808a.668.668,0,0,0-.113-.351.787.787,0,0,0-.281-.283Z" transform="translate(-29.642 -22.721)"/><path class="k" d="M31.13,64.126a.751.751,0,0,1-.358-.575c0-.2.16-.276.358-.16Q45,71.4,58.87,79.408L86.617,95.427a.744.744,0,0,1,.358.575c0,.205-.16.276-.358.16L58.87,80.143Q45,72.138,31.13,64.126Z" transform="translate(-30.421 -23.919)"/><path class="k" d="M31.13,97.773a.751.751,0,0,1-.358-.575c0-.205.16-.276.358-.16q13.866,8,27.74,16.017l27.747,16.019a.744.744,0,0,1,.358.575c0,.205-.16.276-.358.163L58.87,113.792q-13.866-8-27.74-16.017Z" transform="translate(-30.421 -18.125)"/><path class="l" d="M38.507,135.14q9.512,5.493,19.031,10.987t19.038,10.989v73.591q-9.523-5.5-19.038-10.992T38.507,208.726V135.14Z" transform="translate(-29.088 -11.554)"/><path class="m" d="M37.885,108.774q4.843,2.794,9.683,5.591a1.033,1.033,0,0,1,.491.795v1.634c0,.288-.224.382-.491.229q-4.843-2.794-9.683-5.591a1.033,1.033,0,0,1-.491-.795V109C37.395,108.718,37.616,108.621,37.885,108.774Z" transform="translate(-29.28 -16.107)"/><g class="n" transform="translate(8.115 92.595)"><g transform="translate(-213.414 55.309)"><path class="o" d="M-144.378,156.461a.287.287,0,0,1-.288-.288.287.287,0,0,1,.288-.288h14.421a.287.287,0,0,1,.288.288.287.287,0,0,1-.288.288Z" transform="translate(144.666 -155.885)"/></g></g><path class="p" d="M37.885,108.774q4.843,2.794,9.683,5.591a1.033,1.033,0,0,1,.491.795v1.634c0,.288-.224.382-.491.229q-4.843-2.794-9.683-5.591a1.033,1.033,0,0,1-.491-.795V109C37.395,108.718,37.616,108.621,37.885,108.774Z" transform="translate(-29.28 -16.107)"/><path class="i" d="M66.643,121.778l7.749,4.474a1.875,1.875,0,0,1,.894,1.436v10.666c0,.512-.406.686-.894.4q-3.877-2.239-7.749-4.474a1.876,1.876,0,0,1-.9-1.439V122.176c0-.509.406-.684.9-.4Z" transform="translate(-24.398 -13.878)"/><path class="k" d="M66.674,121.59q3.87,2.232,7.749,4.474a2.358,2.358,0,0,1,.781.776,1.943,1.943,0,0,1,.328,1.009v10.666a.605.605,0,0,1-.328.606.866.866,0,0,1-.781-.1q-3.877-2.239-7.749-4.474a2.411,2.411,0,0,1-.785-.8,1.956,1.956,0,0,1-.323-.983V122.092a.631.631,0,0,1,.323-.63A.881.881,0,0,1,66.674,121.59Zm7.749,4.9q-3.877-2.239-7.749-4.474a.564.564,0,0,0-.483-.075.408.408,0,0,0-.205.391V133a1.216,1.216,0,0,0,.205.608,1.5,1.5,0,0,0,.483.483q3.87,2.232,7.749,4.474a.564.564,0,0,0,.483.075.389.389,0,0,0,.2-.375V127.6a1.3,1.3,0,0,0-.2-.625,1.48,1.48,0,0,0-.483-.483Z" transform="translate(-24.429 -13.917)"/><path class="m" d="M65.923,123.3q4.56,2.632,9.119,5.266v3.311q-4.56-2.632-9.119-5.266V123.3Z" transform="translate(-24.367 -13.592)"/><path class="q" d="M40.717,84.656q8.3,4.79,16.611,9.591t16.618,9.593a2.84,2.84,0,0,1,1.342,2.165h0c0,.757-.6,1.04-1.342.613L57.328,97.025q-8.3-4.79-16.611-9.591a2.857,2.857,0,0,1-1.349-2.17h0c0-.755.608-1.038,1.349-.611Z" transform="translate(-28.94 -20.282)"/><path class="q" d="M40.717,80.108q8.3,4.79,16.611,9.591l16.618,9.593a2.81,2.81,0,0,1,1.342,2.165h0c0,.755-.6,1.04-1.342.613L57.328,92.477q-8.3-4.79-16.611-9.591a2.857,2.857,0,0,1-1.349-2.17h0c0-.776.608-1.038,1.349-.611Z" transform="translate(-28.94 -21.066)"/><path class="q" d="M40.717,89.207c2.549,1.472,5.113,2.95,7.662,4.424s5.113,2.952,7.669,4.426a2.862,2.862,0,0,1,1.354,2.17h0c0,.776-.615,1.038-1.354.611q-3.834-2.214-7.669-4.426c-2.552-1.472-5.113-2.952-7.662-4.424a2.822,2.822,0,0,1-1.349-2.17h0C39.368,89.06,39.977,88.78,40.717,89.207Z" transform="translate(-28.94 -19.498)"/><path class="q" d="M59.321,99.949q5.773,3.329,11.546,6.664a2.857,2.857,0,0,1,1.349,2.17h0c0,.776-.608,1.038-1.349.611l-11.546-6.664a2.812,2.812,0,0,1-1.344-2.165h0c0-.757.6-1.04,1.344-.613Z" transform="translate(-25.735 -17.648)"/><path class="g" d="M74.05,77.917q-8.309-4.8-16.616-9.593L40.823,58.735a2.847,2.847,0,0,1-1.344-2.165h0c0-.776.6-1.04,1.344-.613l16.611,9.589q8.3,4.793,16.616,9.593a2.813,2.813,0,0,1,1.344,2.167h0c0,.755-.6,1.04-1.344.613Z" transform="translate(-28.921 -25.225)"/><path class="g" d="M71.422,71.831q-3.834-2.211-7.669-4.426l-7.662-4.422a2.826,2.826,0,0,1-1.349-2.17h0c0-.757.611-1.038,1.349-.611l7.662,4.422q3.827,2.207,7.669,4.426a2.843,2.843,0,0,1,1.344,2.165h0c0,.778-.6,1.04-1.344.615Z" transform="translate(-26.292 -24.493)"/><path class="g" d="M52.261,60.77q-5.769-3.332-11.546-6.664a2.822,2.822,0,0,1-1.349-2.17h0c0-.755.608-1.038,1.349-.611q5.773,3.332,11.546,6.664a2.843,2.843,0,0,1,1.344,2.165h0c0,.776-.6,1.04-1.344.613Z" transform="translate(-28.94 -26.022)"/><path class="g" d="M74.05,68.8Q65.741,64,57.434,59.205L40.823,49.617a2.847,2.847,0,0,1-1.344-2.165h0c0-.757.6-1.04,1.344-.613q8.3,4.793,16.611,9.591T74.05,66.023a2.843,2.843,0,0,1,1.344,2.165h0c0,.755-.6,1.04-1.344.613Z" transform="translate(-28.921 -26.795)"/></g><path class="r" d="M92.682.658q12.872,7.432,25.752,14.864l25.74,14.864c1.573.908,1.519,2.434-.125,3.384q-13.467,7.775-26.933,15.545T90.182,64.868a6.512,6.512,0,0,1-5.86.073Q71.45,57.509,58.582,50.077T32.83,35.213c-1.573-.908-1.507-2.427.137-3.377L59.9,16.286Q73.367,8.511,86.833.736a6.483,6.483,0,0,1,5.846-.08Z" transform="translate(-30.258 0.002)"/><path class="j" d="M81.781,60.107q13.583-7.839,27.167-15.684l27.174-15.687c1.514-.873,2.759.229,2.757,2.417q-.113,49.508-.222,98.729-.11,49.109-.219,97.972c0,2.148-1.25,4.622-2.752,5.49q-13.488,7.786-26.964,15.567T81.762,264.477c-1.5.868-2.726-.179-2.726-2.325V65.706c0-2.186,1.233-4.721,2.747-5.594Z" transform="translate(-22.105 4.899)"/></g></g></g></svg>