<svg xmlns="http://www.w3.org/2000/svg" xmlns:xlink="http://www.w3.org/1999/xlink" viewBox="0 0 904.17 896.96"><defs><style>.cls-1{isolation:isolate;}.cls-2{fill:#c2d5ff;}.cls-3{fill:url(#linear-gradient);}.cls-15,.cls-23,.cls-27,.cls-32,.cls-34,.cls-35,.cls-37,.cls-4,.cls-40,.cls-43{fill:none;}.cls-32,.cls-33,.cls-37,.cls-4,.cls-40,.cls-43{stroke:#08243b;}.cls-15,.cls-34,.cls-37,.cls-4,.cls-40{stroke-linecap:round;}.cls-15,.cls-23,.cls-27,.cls-30,.cls-32,.cls-33,.cls-34,.cls-35,.cls-37,.cls-4,.cls-40,.cls-43{stroke-miterlimit:10;}.cls-4{stroke-width:2.29px;}.cls-5{fill:url(#linear-gradient-2);}.cls-6{fill:#042942;opacity:0.35;}.cls-12,.cls-16,.cls-20,.cls-6{mix-blend-mode:multiply;}.cls-7{fill:url(#linear-gradient-3);}.cls-12,.cls-16,.cls-8{fill:#08243b;}.cls-9{fill:url(#linear-gradient-4);}.cls-10{fill:url(#linear-gradient-5);}.cls-11{fill:url(#radial-gradient);}.cls-12,.cls-13{opacity:0.2;}.cls-13,.cls-19{fill:#fff;}.cls-13{mix-blend-mode:overlay;}.cls-14{fill:#284c82;}.cls-15{stroke:#fff;}.cls-16{opacity:0.5;}.cls-17{fill:url(#linear-gradient-6);}.cls-18{fill:#b3b3b3;}.cls-20{opacity:0.3;}.cls-21{fill:#999;}.cls-22{fill:#e6e6e6;}.cls-23,.cls-30,.cls-34,.cls-35{stroke:#828382;}.cls-23{stroke-width:0.75px;}.cls-24{fill:#828382;}.cls-25{fill:#2950af;}.cls-26{fill:#d4492a;}.cls-27{stroke:#d4492a;stroke-width:1.5px;}.cls-28{fill:#d1d0d3;}.cls-29,.cls-30{fill:#dedee2;}.cls-31,.cls-33{fill:#5786ed;}.cls-36{fill:url(#linear-gradient-7);}.cls-37{stroke-width:4.32px;}.cls-38{fill:url(#linear-gradient-8);}.cls-39{fill:url(#linear-gradient-9);}.cls-41{fill:url(#linear-gradient-10);}.cls-42{fill:url(#linear-gradient-11);}.cls-43{stroke-width:5px;}.cls-44{fill:url(#linear-gradient-12);}.cls-45{fill:url(#linear-gradient-13);}.cls-46{fill:url(#linear-gradient-14);}.cls-47{fill:url(#linear-gradient-15);}</style><linearGradient id="linear-gradient" x1="930.35" y1="534.13" x2="738.55" y2="780.6" gradientUnits="userSpaceOnUse"><stop offset="0.1" stop-color="#ff8d33"/><stop offset="1" stop-color="#ff5833"/></linearGradient><linearGradient id="linear-gradient-2" x1="629.99" y1="529.2" x2="809.42" y2="384.8" xlink:href="#linear-gradient"/><linearGradient id="linear-gradient-3" x1="797.57" y1="432.3" x2="827.02" y2="337.53" xlink:href="#linear-gradient"/><linearGradient id="linear-gradient-4" x1="763.22" y1="472.71" x2="593.21" y2="386.27" xlink:href="#linear-gradient"/><linearGradient id="linear-gradient-5" x1="798.31" y1="232.85" x2="630.71" y2="374.46" xlink:href="#linear-gradient"/><radialGradient id="radial-gradient" cx="684.59" cy="815.04" r="122.67" gradientUnits="userSpaceOnUse"><stop offset="0.1" stop-color="#5786ed"/><stop offset="1" stop-color="#2950af"/></radialGradient><linearGradient id="linear-gradient-6" x1="-45.18" y1="682.78" x2="124.64" y2="931.65" gradientUnits="userSpaceOnUse"><stop offset="0.05" stop-color="#abc5ff"/><stop offset="0.15" stop-color="#99b5f4"/><stop offset="0.51" stop-color="#5d7fcf"/><stop offset="0.78" stop-color="#375db8"/><stop offset="0.92" stop-color="#2950af"/></linearGradient><linearGradient id="linear-gradient-7" x1="1765.33" y1="850.08" x2="1662.37" y2="884.19" gradientTransform="translate(-1379.74)" xlink:href="#linear-gradient"/><linearGradient id="linear-gradient-8" x1="222.03" y1="895.17" x2="165.94" y2="868.56" xlink:href="#linear-gradient"/><linearGradient id="linear-gradient-9" x1="414.61" y1="836.89" x2="82.78" y2="434.63" xlink:href="#radial-gradient"/><linearGradient id="linear-gradient-10" x1="442.99" y1="204.4" x2="372.56" y2="339.4" gradientUnits="userSpaceOnUse"><stop offset="0.36" stop-color="#fdc080"/><stop offset="0.5" stop-color="#f3b778"/><stop offset="0.75" stop-color="#d99e64"/><stop offset="1" stop-color="#b77e49"/></linearGradient><linearGradient id="linear-gradient-11" x1="408.43" y1="239.89" x2="204.43" y2="411.02" xlink:href="#linear-gradient"/><linearGradient id="linear-gradient-12" x1="339.15" y1="137.22" x2="246.8" y2="187.5" xlink:href="#linear-gradient-10"/><linearGradient id="linear-gradient-13" x1="408.24" y1="78.55" x2="178.68" y2="263.77" gradientUnits="userSpaceOnUse"><stop offset="0.11" stop-color="#154a6d"/><stop offset="1" stop-color="#08243b"/></linearGradient><linearGradient id="linear-gradient-14" x1="370.86" y1="32.22" x2="141.3" y2="217.43" xlink:href="#linear-gradient-13"/><linearGradient id="linear-gradient-15" x1="174.51" y1="97.73" x2="266.46" y2="159.17" xlink:href="#linear-gradient"/></defs><g class="cls-1"><g id="Layer_2" data-name="Layer 2"><g id="Layer_1-2" data-name="Layer 1"><circle class="cls-2" cx="454.45" cy="401.4" r="401.4"/><g id="plant"><path class="cls-3" d="M852.8,719.15c13.84-18.44,26.34-39.3,36.26-56.27a113.13,113.13,0,0,0,15.05-53l-24.66-.36,24.72-8.37c-.6-22.8-6.84-39.08-6.84-39.08-27.5,3.72-67.62,23.36-85,39.27l11.92,38.44-24-24c-22.64,32-65.77,110.57-30.31,140.67,25.18,21.37,53.38-.08,78-31.08l-20.36-15.51Z"/><path class="cls-4" d="M738.26,869.39s11.52-122,113.34-239.16"/><path class="cls-5" d="M745.94,346.87C725.13,360,708.8,385,701.76,413.46a132.21,132.21,0,0,0-2.84,17.65c4.11,11.54,11.33,28.3,20.85,36.78,0,0-12.58-6.29-22-14.18,0,34.16,7.53,73.52,33.41,73.74,38.1.32,54.75-62.12,64-94.14s29.13-58,29.13-58C850.64,317,766.75,333.74,745.94,346.87Z"/><path class="cls-4" d="M788.52,347.51S676.46,570.22,721,857.86"/><path class="cls-6" d="M745.94,346.87a84.1,84.1,0,0,0-16.17,13.51c19.31-2.54,50,2,77,44a201,201,0,0,1,17.63-29.1C850.64,317,766.75,333.74,745.94,346.87Z"/><path class="cls-7" d="M872.56,325.82c-8.8-2.44-31.93-8.05-45-3.45,0,0,8-6.55,24.91-7.43a52.79,52.79,0,0,0-19.14-3c-25.94,1.28-78.92,20-102.54,47.28,0,0,35-27.75,73.72,10.35s68.2,51.87,85.17,54.11c0,0-4.16-36.18,0-62.75C891.79,347.57,884.06,334.92,872.56,325.82Z"/><path class="cls-8" d="M860.24,375.64a1,1,0,0,0,1,.66,1.09,1.09,0,0,0,.39-.08,1,1,0,0,0,.57-1.34c-16-40.19-54.54-48.48-80.57-49.19q-2.31,1-4.6,2C802.3,327.56,843.75,334.13,860.24,375.64Z"/><path class="cls-9" d="M703.36,303.64s-57,16.65-74.92,71.62c-5,15.26-8.18,38.35-8.68,63.08,10,7,34.61,23.15,34.61,23.15l-34.59-8.58c1.39,60.51,19.43,123.57,66.93,103C757.79,525.2,703.36,303.64,703.36,303.64Z"/><path class="cls-6" d="M628.44,375.26a159.61,159.61,0,0,0-5.64,25.37c.71,1.51,17.89-40.84,91.32-42.79-5.23-31.67-10.76-54.2-10.76-54.2S646.37,320.29,628.44,375.26Z"/><path class="cls-10" d="M622.8,400.63s9.72-111.87,133.67-144.53c0,0-8,46.4-26.7,72.26l-45.62,3.46,16,10.69S630,356.42,622.8,400.63Z"/><path class="cls-4" d="M668.46,385.83s-.25,136.22,21.17,220.06S736.5,756.37,730.81,850.5"/><path class="cls-11" d="M779.49,792.89H675.76s-41.31,73,0,94.13H779.49C820.79,865.89,779.49,792.89,779.49,792.89Z"/><rect class="cls-11" x="668.55" y="785.2" width="118.14" height="7.68"/><path class="cls-12" d="M675.76,887H779.49c41.3-21.13,0-94.13,0-94.13H704.12c20.7,2.35,44,11.29,37,40.66-10.08,42.34-50.29,53.18-76.58,44.2A32.08,32.08,0,0,0,675.76,887Z"/><path class="cls-13" d="M672.8,802.33c-4.14,4.47-16.81,37.94-12,44.35s31.06-42.11,26.25-45.47S676.32,798.52,672.8,802.33Z"/><path class="cls-14" d="M261.84,889.09s13.3-79.36-38.35-96.53-36.78-68.83-63.78-81.74-42.26-11.35-54.78-45S66.19,630.47,57.58,620s-35.22,20.35-9.91,53.48S79.23,710.82,77.4,728s-2.73,32.52,22.5,44.17-21.45,37.22,5.16,62.53S96.45,861,121.75,889.09Z"/><path class="cls-15" d="M191.14,883.25S144.19,739.77,62.27,645.34"/><path class="cls-16" d="M110.06,834.73a45,45,0,0,1-12.15-10.3,27.57,27.57,0,0,0,7.15,10.3c26.61,25.3-8.61,26.28,16.69,54.36H147.1S143.71,855.34,110.06,834.73Z"/><path class="cls-17" d="M142.1,889.09s-3.39-33.75-37-54.36-4.7-42.26-34.7-50.61-40.17,4.44-54.52-18-27.65,24.78,1.56,39.39S11.14,841,35.93,856.12s-2.87,12.72,4.43,33Z"/></g><g id="phone"><ellipse class="cls-8" cx="520.06" cy="889.48" rx="143.39" ry="6.34"/><path class="cls-18" d="M436.83,735.94l162.77,2.19c.81,0,1.61,0,2.41-.07l.72-.07c.58,0,1.15-.12,1.73-.2l.75-.12c.66-.12,1.32-.25,2-.41l.4-.09c.78-.2,1.56-.43,2.34-.68l.63-.23c.58-.2,1.15-.42,1.72-.65l.75-.31,1.74-.81.56-.27c.75-.39,1.49-.8,2.23-1.24l.48-.29c.58-.36,1.16-.73,1.73-1.12l.69-.48c.53-.37,1-.75,1.57-1.15l.61-.46c.7-.55,1.39-1.12,2.07-1.72l.24-.22c.6-.54,1.19-1.09,1.78-1.66l.61-.61c.48-.48.95-1,1.41-1.46l.59-.64c.58-.65,1.15-1.31,1.71-2l.15-.17c.61-.74,1.2-1.51,1.78-2.29.17-.22.33-.45.5-.68.42-.58.83-1.17,1.24-1.77.18-.26.35-.51.52-.78.44-.66.86-1.33,1.28-2,.09-.14.18-.27.26-.41a1.05,1.05,0,0,1,.07-.11c.54-.92,1.07-1.86,1.58-2.81l.38-.73c.41-.78.8-1.56,1.18-2.36.12-.24.24-.49.35-.74.46-1,.91-2,1.33-3,.08-.19.15-.38.22-.57.35-.87.68-1.75,1-2.64.06-.16.13-.32.18-.48s.09-.28.14-.42c.31-.89.6-1.8.88-2.71,0-.15.09-.3.14-.45.31-1,.59-2.12.86-3.2.08-.29.14-.58.21-.88.2-.82.38-1.66.55-2.49.06-.32.13-.64.19-1,.21-1.11.4-2.23.56-3.35l80-561.65c0-.34.1-.67.14-1,.16-1.23.28-2.45.37-3.66,0-.28,0-.55,0-.82.09-1.26.14-2.5.16-3.74,0-.26,0-.52,0-.78,0-1.38,0-2.74-.11-4.08,0-.3-.05-.6-.07-.89-.08-1.21-.2-2.41-.35-3.58l-.06-.54c-.18-1.29-.41-2.56-.66-3.8-.06-.29-.13-.58-.19-.87-.27-1.2-.56-2.38-.9-3.53a1,1,0,0,0,0-.17c-.35-1.19-.75-2.34-1.17-3.47l-.31-.79c-.44-1.11-.9-2.19-1.41-3.24l-.13-.25c-.48-1-1-1.91-1.53-2.82-.13-.23-.26-.45-.4-.67-.58-1-1.19-1.87-1.83-2.74-.1-.14-.21-.26-.32-.4-.33-.44-.66-.88-1-1.3-.21-.25-.44-.47-.65-.72l-.84-.93c-.51-.54-1-1.05-1.58-1.54l-.83-.77c-.68-.58-1.39-1.13-2.11-1.65-.16-.11-.3-.24-.46-.35a28.92,28.92,0,0,0-2.54-1.57l-.25-.13-.33-.16a27.34,27.34,0,0,0-2.87-1.29l-.22-.08-.52-.18-22.78-5.41a28.5,28.5,0,0,1,3.18,1l.21.08a27.5,27.5,0,0,1,2.88,1.29l.32.17a28.36,28.36,0,0,1,2.79,1.69c.16.11.31.24.46.35.72.52,1.43,1.07,2.11,1.65.29.25.56.51.84.77.53.5,1.06,1,1.57,1.54l.85.93c.57.65,1.12,1.32,1.66,2,.1.13.21.26.31.4.65.88,1.25,1.79,1.84,2.74l.39.67c.54.91,1.06,1.85,1.54,2.82,0,.09.09.17.13.25q.75,1.58,1.41,3.24l.3.79c.42,1.13.82,2.28,1.18,3.47a.75.75,0,0,0,0,.16c.33,1.15.63,2.34.89,3.54.07.29.13.58.19.87.26,1.25.48,2.51.66,3.8l.06.54c.15,1.17.27,2.37.36,3.58l.06.89q.12,2,.12,4.08c0,.26,0,.52,0,.79q0,1.85-.15,3.72c0,.28,0,.56,0,.83-.13,1.54-.29,3.1-.51,4.67l-80,561.65c-.16,1.12-.36,2.24-.57,3.35-.06.32-.12.64-.19,1-.17.84-.35,1.67-.55,2.5-.06.29-.13.58-.2.87-.27,1.08-.56,2.15-.87,3.2,0,.15-.09.3-.14.45-.27.91-.57,1.82-.88,2.71l-.31.9c-.32.89-.66,1.77-1,2.65-.08.18-.15.37-.23.56q-.63,1.55-1.32,3l-.36.74c-.38.8-.77,1.58-1.17,2.35-.13.25-.25.5-.39.74-.51,1-1,1.89-1.58,2.81l-.32.52c-.42.69-.85,1.36-1.28,2-.17.27-.35.53-.53.79-.4.59-.81,1.18-1.23,1.76l-.5.69c-.59.77-1.18,1.54-1.78,2.28l-.16.18q-.84,1-1.71,2c-.19.22-.39.43-.59.64-.46.5-.93,1-1.4,1.46l-.62.61c-.58.57-1.17,1.12-1.77,1.66l-.25.22c-.68.6-1.37,1.17-2.07,1.72l-.6.46c-.52.4-1,.78-1.57,1.15l-.7.49c-.57.38-1.14.75-1.72,1.1l-.49.31c-.74.43-1.48.84-2.23,1.23l-.56.27q-.87.43-1.74.81l-.75.31c-.57.24-1.14.45-1.71.65l-.64.23c-.78.25-1.55.48-2.34.68-.13,0-.27.06-.4.09-.66.16-1.31.29-2,.41l-.76.12c-.58.08-1.15.15-1.73.2l-.72.07c-.8,0-1.6.08-2.4.07L416.7,731.32a28.71,28.71,0,0,1-3.23-.23l17.23,4.1A28.65,28.65,0,0,0,436.83,735.94Z"/><path class="cls-8" d="M487.08,735.31l33.22.31c.48,0,.59-.37.25-.84h0a2.16,2.16,0,0,0-1.49-.84l-33.22-.31c-.49,0-.6.37-.26.83h0A2.16,2.16,0,0,0,487.08,735.31Z"/><path class="cls-19" d="M479.79,734.41a3.2,3.2,0,0,0,1.9.43c.88,0,1.46-.17,1.29-.4a3.24,3.24,0,0,0-1.91-.44C480.19,734,479.61,734.17,479.79,734.41Z"/><path class="cls-19" d="M523.16,734.81a3.26,3.26,0,0,0,1.9.44c.88,0,1.46-.18,1.29-.41a3.24,3.24,0,0,0-1.91-.44C523.56,734.39,523,734.58,523.16,734.81Z"/><path class="cls-8" d="M466.86,734.29a4,4,0,0,0,2.36.54c1.09,0,1.8-.22,1.59-.51a4.11,4.11,0,0,0-2.36-.54C467.36,733.77,466.65,734,466.86,734.29Z"/><path class="cls-8" d="M459.67,734.22a4,4,0,0,0,2.36.54c1.09,0,1.8-.21,1.58-.5a4,4,0,0,0-2.36-.54C460.17,733.71,459.45,733.93,459.67,734.22Z"/><path class="cls-8" d="M452.47,734.15a4,4,0,0,0,2.36.55c1.09,0,1.8-.22,1.59-.51a4,4,0,0,0-2.36-.54C453,733.64,452.26,733.87,452.47,734.15Z"/><g class="cls-20"><path class="cls-8" d="M699.05,235.94l2.27.3-.08.63a4.11,4.11,0,0,1,1.58,3.82l-9.93,69.41a4.21,4.21,0,0,1-2.6,3.28l-.09.63-2.28-.3a4.26,4.26,0,0,1-3.77-4.75l9.92-69.41A4.4,4.4,0,0,1,699.05,235.94Z"/></g><path class="cls-8" d="M700.19,235.94l2.27.3-.09.63a4.1,4.1,0,0,1,1.59,3.82L694,310.1a4.21,4.21,0,0,1-2.6,3.28l-.09.63-2.28-.3a4.26,4.26,0,0,1-3.77-4.75l9.92-69.41A4.39,4.39,0,0,1,700.19,235.94Z"/><path class="cls-21" d="M691.34,314h0a4.38,4.38,0,0,0,5-3.61L706.24,241a4.26,4.26,0,0,0-3.78-4.75h0a4.39,4.39,0,0,0-5,3.61l-9.92,69.41A4.26,4.26,0,0,0,691.34,314Z"/><path class="cls-22" d="M417,731.61c-21.73-.27-36-24.51-31.81-54L464.83,116c4.19-29.5,25.25-53.3,47-53.07l162.87,1.76c21.74.23,36,24.43,31.84,54L627,680.54c-4.19,29.54-25.28,53.36-47,53.09Z"/><path class="cls-8" d="M417.34,728.74c-20.55-.26-34-23.19-30.09-51.13L466.88,116c4-27.91,23.89-50.43,44.44-50.21l162.87,1.76c20.56.22,34.08,23.12,30.13,51L624.76,680.53c-4,28-23.92,50.48-44.49,50.22Z"/><path class="cls-19" d="M417.47,719.18a16.76,16.76,0,0,1-12.53-6c-6.84-7.58-9.75-20.39-7.78-34.26l79.63-561.6C480,94.57,495.69,75.37,511,75.37l163.07,1.76a16.74,16.74,0,0,1,12.54,6c6.84,7.56,9.75,20.34,7.79,34.2L614.85,679.24c-3.22,22.75-18.9,42-34.23,42Z"/><path class="cls-23" d="M516.65,101.1a10.06,10.06,0,0,0,.3-2l-1.44-.38a7.36,7.36,0,0,0-.14-1.23l1.28-1.14a6.78,6.78,0,0,0-.3-.9,7.42,7.42,0,0,0-.41-.85l-1.55.47a6.46,6.46,0,0,0-.72-.9l.65-1.57a7,7,0,0,0-1.52-1l-1.25,1.18a6.23,6.23,0,0,0-1.12-.32l-.15-1.57a8.33,8.33,0,0,0-1.93,0l-.61,1.58a8.27,8.27,0,0,0-1.22.34l-.9-1.15a10.14,10.14,0,0,0-.93.47,8.92,8.92,0,0,0-.89.56l.19,1.56a9.65,9.65,0,0,0-1,.91l-1.41-.43a11.69,11.69,0,0,0-1.23,1.77l.94,1.12a10,10,0,0,0-.5,1.24l-1.56.41a10.06,10.06,0,0,0-.3,2l1.44.38a8.27,8.27,0,0,0,.13,1.23l-1.28,1.14a6.78,6.78,0,0,0,.3.9,7.42,7.42,0,0,0,.41.85l1.55-.46a6.29,6.29,0,0,0,.73.89l-.66,1.57a7.08,7.08,0,0,0,1.52,1l1.26-1.18a5.33,5.33,0,0,0,1.12.32l.14,1.58a8.42,8.42,0,0,0,1.94,0l.61-1.57a8.33,8.33,0,0,0,1.22-.35l.91,1.15a10,10,0,0,0,.93-.46c.31-.18.6-.37.89-.57l-.19-1.56a10.67,10.67,0,0,0,1-.91l1.42.43a11.69,11.69,0,0,0,1.23-1.77l-.95-1.12a9.32,9.32,0,0,0,.5-1.23ZM507,105.37c-2.71-.06-4.5-2.44-4-5.29A6.16,6.16,0,0,1,508.86,95c2.71.06,4.49,2.44,4,5.29A6.16,6.16,0,0,1,507,105.37Z"/><path class="cls-24" d="M663.86,91.84a.57.57,0,0,1,.53.32l1.27,2.42a.82.82,0,0,1-.23,1l-1,.83a.92.92,0,0,0-.29,1c.69,1.92,2.86,4.43,3.94,5.65a.68.68,0,0,0,.49.22.85.85,0,0,0,.58-.24l.65-.6a.83.83,0,0,1,.54-.22.66.66,0,0,1,.36.11l2.17,1.56a.72.72,0,0,1,.16.91l-1.74,3.37a.75.75,0,0,1-.64.41.69.69,0,0,1-.2,0c-5.71-2.1-10.57-8.32-10.53-14.77a.82.82,0,0,1,.51-.82l3.16-1a.62.62,0,0,1,.23,0"/><path class="cls-24" d="M575.23,102.63c.07,1.14.72,1.73,2,1.73s2-.66,2.15-1.54-.23-1.45-2-1.91c-2.15-.57-2.76-1.39-2.56-2.74a3.24,3.24,0,0,1,3.54-2.67c2.25,0,3,1.35,2.89,2.65H579.9c0-.81-.4-1.51-1.72-1.51A1.68,1.68,0,0,0,576.3,98c-.13.87.32,1.21,1.85,1.62,2.55.67,2.88,1.75,2.68,3-.24,1.61-1.56,2.83-3.86,2.83s-3.17-1.31-3.14-2.86Z"/><path class="cls-24" d="M587.4,103.76a12.29,12.29,0,0,0-.15,1.61H586a3.93,3.93,0,0,1,0-.89,2.44,2.44,0,0,1-2.21,1.06,1.78,1.78,0,0,1-2-2.19c.24-1.6,1.55-2.33,3.55-2.33h1.12l.09-.58c.09-.6,0-1.32-1.18-1.32a1.4,1.4,0,0,0-1.53,1.1h-1.26a2.74,2.74,0,0,1,3-2.15c1.69,0,2.51.72,2.26,2.36Zm-1-1.82h-1c-1.31,0-2,.38-2.17,1.33a1,1,0,0,0,1.07,1.22c1.55,0,1.92-1.11,2.1-2.33Z"/><path class="cls-24" d="M589.1,105.37l1.54-10.27h1.3l-1.53,10.27Z"/><path class="cls-24" d="M593.7,102.07c-.19,1.34.3,2.34,1.41,2.34a1.75,1.75,0,0,0,1.7-1h1.31a3.38,3.38,0,0,1-3.22,2.17c-2.15,0-2.77-1.81-2.49-3.65.32-2.15,1.59-3.82,3.68-3.82s2.67,1.83,2.43,3.4c0,.22-.06.4-.1.6Zm3.55-.94c.15-1.11-.23-2-1.34-2s-1.75.83-2,2Z"/><path class="cls-25" d="M544.23,207.49h7.17l-.43,2.84H538.3l.44-2.84h2.09l.57-3.75h-2.09l.33-2.12h2.09l.08-.57c.6-3.89,3.45-6.27,7.75-6.27a7.21,7.21,0,0,1,4,1l-1.45,2.79a5.21,5.21,0,0,0-3-.78c-2.21,0-3.59,1.07-3.91,3.18l-.1.64h5l-.33,2.12h-5Z"/><path class="cls-25" d="M560.71,195.05l-2.32,15.28H555l1.88-12.45H554l.43-2.83Z"/><path class="cls-25" d="M573.86,205.9c-.43,2.88-3.17,4.69-6.89,4.69s-5.88-1.81-5.44-4.69a4.75,4.75,0,0,1,2.76-3.61,3,3,0,0,1-1.22-3.14c.41-2.69,3-4.37,6.27-4.37s5.41,1.68,5,4.37a4.3,4.3,0,0,1-2.19,3.14A3.3,3.3,0,0,1,573.86,205.9Zm-3.41-.11c.2-1.36-.74-2.19-2.43-2.19s-2.84.83-3,2.19.72,2.2,2.39,2.2S570.25,207.14,570.45,205.79Zm-4-6.49c-.17,1.16.59,1.88,2,1.88A2.35,2.35,0,0,0,571,199.3c.18-1.2-.63-1.92-2-1.92A2.34,2.34,0,0,0,566.41,199.3Z"/><path class="cls-25" d="M575.14,208.36a2.39,2.39,0,0,1,2.34-2.09,1.69,1.69,0,0,1,1.72,2.09,2.45,2.45,0,0,1-2.35,2.14A1.72,1.72,0,0,1,575.14,208.36Z"/><path class="cls-25" d="M581.29,202.69c.76-5.05,3.85-7.91,7.44-7.91s5.85,2.86,5.1,7.91-3.82,7.9-7.44,7.9S580.54,207.73,581.29,202.69Zm9.14,0c.51-3.47-.45-4.92-2.14-4.92s-3,1.45-3.57,4.92.44,4.91,2.11,4.91S589.91,206.16,590.43,202.69Z"/><path class="cls-25" d="M595.48,202.69c.74-5.05,3.84-7.91,7.43-7.91s5.84,2.86,5.1,7.91-3.81,7.9-7.42,7.9S594.73,207.73,595.48,202.69Zm9.13,0c.51-3.47-.45-4.92-2.14-4.92s-3.05,1.45-3.57,4.92.45,4.91,2.13,4.91S604.1,206.16,604.61,202.69Z"/><path class="cls-26" d="M528.64,245.46a7,7,0,0,1,6.9-6,4.74,4.74,0,0,1,4.12,1.94l-1.54,1.32a3.27,3.27,0,0,0-2.78-1.37,4.69,4.69,0,0,0-4.61,4.09,3.27,3.27,0,0,0,3.36,4.08,4.49,4.49,0,0,0,3.2-1.38l1.13,1.33a6.51,6.51,0,0,1-4.73,1.94A4.86,4.86,0,0,1,528.64,245.46Z"/><path class="cls-26" d="M553.43,239.65l-1.76,11.61H549.6l.75-5h-5.77l-.76,5h-2.07l1.77-11.61h2.07l-.73,4.79h5.77l.73-4.79Z"/><path class="cls-26" d="M563.92,248.58h-5.58l-1.51,2.68h-2.14l6.78-11.61h2l3.3,11.61h-2.17Zm-.43-1.7-1.34-5.07-2.85,5.07Z"/><path class="cls-26" d="M577.14,251.26l-1.78-3.4a3.1,3.1,0,0,1-.43,0h-2.52l-.51,3.38h-2.07l1.73-11.61h4.6c2.93,0,4.51,1.56,4.13,4.13a4.48,4.48,0,0,1-2.92,3.67l2,3.81Zm-1.35-9.79h-2.43l-.69,4.63h2.43c1.82,0,2.89-.86,3.1-2.32S577.61,241.47,575.79,241.47Z"/><path class="cls-26" d="M591.6,245.32h2l-.68,4.63a7.82,7.82,0,0,1-4.59,1.48,4.9,4.9,0,0,1-5.13-6,7,7,0,0,1,6.92-6,4.85,4.85,0,0,1,4.2,1.89l-1.5,1.33a3.48,3.48,0,0,0-2.88-1.33,4.65,4.65,0,0,0-4.65,4.09,3.31,3.31,0,0,0,3.43,4.08,4.9,4.9,0,0,0,2.39-.6Z"/><path class="cls-26" d="M605.66,249.45l-.26,1.81H597l1.7-11.61h8.14l-.26,1.81h-6.07l-.45,3h5.4l-.26,1.77h-5.4l-.46,3.2Z"/><path class="cls-27" d="M600.27,261.72H529.74c-8.3,0-13.94-7-12.6-15.6h0c1.34-8.61,9.12-15.59,17.39-15.59h70.29c8.27,0,14,7,12.72,15.59h0C616.3,254.73,608.57,261.72,600.27,261.72Z"/><path class="cls-28" d="M466.38,356.62c2.1-13.27,14.23-24,27.09-24s21.62,10.76,19.58,24-14.17,24-27.09,24S464.27,369.89,466.38,356.62Z"/><path class="cls-28" d="M527.9,356.62c2-13.27,14.09-24,26.94-24s21.7,10.76,19.74,24-14,24-26.94,24S525.88,369.89,527.9,356.62Z"/><path class="cls-28" d="M589.43,356.62c1.93-13.27,13.93-24,26.78-24s21.77,10.76,19.89,24-13.86,24-26.78,24S587.49,369.89,589.43,356.62Z"/><path class="cls-28" d="M503,520.44c2-13.27,14.26-24,27.33-24s22.09,10.76,20.13,24-14.2,24-27.34,24S500.92,533.7,503,520.44Z"/><path class="cls-8" d="M490.33,362.57h-1.9l1.95-12.49a12.17,12.17,0,0,1-2,1.35,15.33,15.33,0,0,1-2.16,1l.3-1.9a14.13,14.13,0,0,0,3.08-1.87,9,9,0,0,0,2-2.14h1.23Z"/><path class="cls-8" d="M555.84,360.22l-.28,1.88H545.3a3.71,3.71,0,0,1,.42-1.36,9,9,0,0,1,1.58-2.13,26.44,26.44,0,0,1,2.85-2.42,26.92,26.92,0,0,0,3.93-3.38,4.89,4.89,0,0,0,1.24-2.36,2.37,2.37,0,0,0-.51-2,2.53,2.53,0,0,0-2-.8,3.39,3.39,0,0,0-2.32.85,3.82,3.82,0,0,0-1.19,2.36l-1.93-.21a6,6,0,0,1,2-3.44,5.75,5.75,0,0,1,3.7-1.18,4.18,4.18,0,0,1,3.34,1.27,3.74,3.74,0,0,1,.83,3.16,5.77,5.77,0,0,1-.66,1.89,9.1,9.1,0,0,1-1.56,1.95,38.74,38.74,0,0,1-3.36,2.81c-1.29,1-2.12,1.66-2.5,2a7.72,7.72,0,0,0-1,1.07Z"/><path class="cls-8" d="M544,368.51l2.06-3.93h.54l1,3.93H547l-.27-1.19h-1.6l-.6,1.19Zm1.34-1.62h1.3l-.24-1.09a7.71,7.71,0,0,1-.14-.81,8,8,0,0,1-.32.75Z"/><path class="cls-8" d="M547.92,368.51l.59-3.93H550a1.75,1.75,0,0,1,.68.11.72.72,0,0,1,.36.37.85.85,0,0,1,.07.52,1,1,0,0,1-.2.48,1.16,1.16,0,0,1-.45.36.79.79,0,0,1,.47.35.86.86,0,0,1,.1.6,1.17,1.17,0,0,1-.19.51,1.34,1.34,0,0,1-.33.37,1.54,1.54,0,0,1-.45.2,2.86,2.86,0,0,1-.63.06Zm.85-2.28h.83a1.87,1.87,0,0,0,.49-.05.69.69,0,0,0,.32-.19.66.66,0,0,0,.15-.35.63.63,0,0,0,0-.34.43.43,0,0,0-.23-.21,2.43,2.43,0,0,0-.58,0H549Zm-.27,1.82h1l.35,0a1,1,0,0,0,.31-.11.66.66,0,0,0,.22-.22.7.7,0,0,0,.13-.33.67.67,0,0,0-.05-.38.47.47,0,0,0-.27-.23,1.6,1.6,0,0,0-.55-.07h-.89Z"/><path class="cls-8" d="M554.45,367.13l.48.13a2.12,2.12,0,0,1-.72,1,1.72,1.72,0,0,1-1.06.34,1.64,1.64,0,0,1-1-.26,1.27,1.27,0,0,1-.47-.75,2.66,2.66,0,0,1-.05-1.06,2.64,2.64,0,0,1,.39-1.07,2,2,0,0,1,.75-.69,2.08,2.08,0,0,1,1-.24,1.36,1.36,0,0,1,.92.3,1.3,1.3,0,0,1,.42.84l-.52.13a1,1,0,0,0-.29-.63.9.9,0,0,0-.61-.2,1.42,1.42,0,0,0-.77.22,1.37,1.37,0,0,0-.5.59,2.53,2.53,0,0,0-.24.75,2.56,2.56,0,0,0,0,.88.92.92,0,0,0,.36.56,1.11,1.11,0,0,0,.63.18,1.19,1.19,0,0,0,.75-.25A1.56,1.56,0,0,0,554.45,367.13Z"/><path class="cls-28" d="M519.47,412c2-13.27,14.15-24,27.07-24s21.83,10.76,19.88,24-14.09,24-27.08,24S517.45,425.24,519.47,412Z"/><path class="cls-28" d="M581.35,412c1.94-13.27,14-24,26.92-24s21.9,10.76,20,24-13.92,24-26.92,24S579.41,425.24,581.35,412Z"/><path class="cls-28" d="M457.59,412c2.11-13.27,14.3-24,27.23-24s21.76,10.76,19.72,24-14.24,24-27.23,24S455.49,425.24,457.59,412Z"/><path class="cls-8" d="M481.45,417.45l.59-3.83h-6.77l.28-1.8,8.74-10.35h1.57l-1.62,10.35h2.11l-.28,1.8H484l-.6,3.83Zm.87-5.63,1.13-7.2-6,7.2Z"/><path class="cls-8" d="M476.89,422.31l.07-.46h1.63l-.23,1.46a3.37,3.37,0,0,1-.85.46,2.48,2.48,0,0,1-.84.15,2,2,0,0,1-1-.24,1.35,1.35,0,0,1-.59-.72,2.16,2.16,0,0,1-.07-1,2.72,2.72,0,0,1,.4-1.07,2,2,0,0,1,.8-.74,2.17,2.17,0,0,1,1-.25,1.83,1.83,0,0,1,.73.14,1,1,0,0,1,.47.39,1.42,1.42,0,0,1,.19.64l-.48.13a1.09,1.09,0,0,0-.14-.47.73.73,0,0,0-.32-.28,1.21,1.21,0,0,0-.52-.1,1.71,1.71,0,0,0-.62.11,1.44,1.44,0,0,0-.45.28,1.61,1.61,0,0,0-.31.39,2.44,2.44,0,0,0-.27.8,1.93,1.93,0,0,0,0,.88.93.93,0,0,0,.43.52,1.37,1.37,0,0,0,.7.17,1.72,1.72,0,0,0,.66-.13,1.91,1.91,0,0,0,.52-.27l.12-.74Z"/><path class="cls-8" d="M479,423.86l.62-3.94h.51l-.26,1.62h2l.26-1.62h.51l-.62,3.94h-.51l.29-1.86h-2l-.29,1.86Z"/><path class="cls-8" d="M483,423.86l.61-3.94h.51l-.61,3.94Z"/><path class="cls-8" d="M537.72,413.26l2-.17a3.22,3.22,0,0,0,.69,2.26,2.43,2.43,0,0,0,1.85.76,3.56,3.56,0,0,0,2.51-1.07,4.81,4.81,0,0,0,1.38-2.84,3.3,3.3,0,0,0-.52-2.64,2.74,2.74,0,0,0-2.27-1,3.55,3.55,0,0,0-1.73.43,4,4,0,0,0-1.34,1.11l-1.77-.24,2.75-8.2h7.75l-.28,1.87h-6.22l-1.49,4.3a5.69,5.69,0,0,1,3.1-1,4,4,0,0,1,3.23,1.45,4.56,4.56,0,0,1,.85,3.73,6.88,6.88,0,0,1-1.8,3.75,5.74,5.74,0,0,1-4.39,1.94,4.33,4.33,0,0,1-3.29-1.22A4.1,4.1,0,0,1,537.72,413.26Z"/><path class="cls-8" d="M536.83,422.74l.46-.06a.93.93,0,0,0,.08.61.45.45,0,0,0,.38.17.64.64,0,0,0,.34-.09.53.53,0,0,0,.23-.24,1.76,1.76,0,0,0,.13-.5l.41-2.71h.51L539,422.6a2.13,2.13,0,0,1-.23.77,1,1,0,0,1-.43.41,1.26,1.26,0,0,1-.62.14.87.87,0,0,1-.73-.29A1.13,1.13,0,0,1,536.83,422.74Z"/><path class="cls-8" d="M539.59,423.86l.59-3.94h.51l-.3,1.95,2.21-1.95h.69l-1.86,1.6,1.34,2.34h-.67l-1.08-2-.72.62-.2,1.37Z"/><path class="cls-8" d="M543.17,423.86l.59-3.94h.51l-.52,3.47h1.9l-.07.47Z"/><path class="cls-8" d="M610.08,405.38l-1.93.16a3.29,3.29,0,0,0-.48-1.68,2.16,2.16,0,0,0-1.79-.84,3,3,0,0,0-1.69.52,5.54,5.54,0,0,0-1.7,2,11.55,11.55,0,0,0-1.08,3.7,5.52,5.52,0,0,1,1.92-1.6,4.92,4.92,0,0,1,2.17-.53,3.68,3.68,0,0,1,3.06,1.45,4.69,4.69,0,0,1,.81,3.73,7,7,0,0,1-1,2.79,5.73,5.73,0,0,1-2,2,5.15,5.15,0,0,1-2.61.69,4.17,4.17,0,0,1-3.65-1.8q-1.24-1.82-.65-5.95.66-4.64,2.64-6.73a5.52,5.52,0,0,1,4.18-1.84,3.84,3.84,0,0,1,2.87,1.06A3.94,3.94,0,0,1,610.08,405.38Zm-8.81,6.89a4.35,4.35,0,0,0,.14,1.94,2.57,2.57,0,0,0,2.49,1.9,3.13,3.13,0,0,0,2.23-1,4.6,4.6,0,0,0,1.27-2.72,3.43,3.43,0,0,0-.49-2.61,2.4,2.4,0,0,0-2-.95,3.38,3.38,0,0,0-2.34.95A4.07,4.07,0,0,0,601.27,412.27Z"/><path class="cls-8" d="M596.52,423.86l.57-3.94h.76l.51,2.79c0,.26.08.45.1.58l.3-.63,1.31-2.74h.69l-.57,3.94h-.49l.48-3.3-1.6,3.3h-.46l-.63-3.35-.48,3.35Z"/><path class="cls-8" d="M601,423.86l.57-3.94h.52l1.58,3.09.44-3.09h.49l-.57,3.94h-.52l-1.58-3.1-.44,3.1Z"/><path class="cls-8" d="M605,421.94a2.51,2.51,0,0,1,.73-1.53,2,2,0,0,1,1.41-.56,1.63,1.63,0,0,1,.92.26,1.39,1.39,0,0,1,.55.73,2.14,2.14,0,0,1,.07,1.05,2.63,2.63,0,0,1-.38,1.08,2,2,0,0,1-.78.71,2.08,2.08,0,0,1-1,.24,1.66,1.66,0,0,1-.93-.26,1.4,1.4,0,0,1-.54-.74A2.14,2.14,0,0,1,605,421.94Zm.52,0a1.43,1.43,0,0,0,.22,1.12,1.05,1.05,0,0,0,.88.41,1.39,1.39,0,0,0,1-.42,1.89,1.89,0,0,0,.54-1.17,1.92,1.92,0,0,0,0-.84,1,1,0,0,0-.38-.55,1.14,1.14,0,0,0-.66-.2,1.52,1.52,0,0,0-1,.38A2,2,0,0,0,605.54,422Z"/><path class="cls-28" d="M511.21,466.2c2-13.27,14.2-24,27.2-24s22,10.76,20,24-14.15,24-27.21,24S509.19,479.47,511.21,466.2Z"/><path class="cls-28" d="M573.43,466.2c1.94-13.27,14.06-24,27.05-24s22,10.76,20.16,24-14,24-27.06,24S571.49,479.47,573.43,466.2Z"/><path class="cls-28" d="M449,466.2c2.1-13.27,14.35-24,27.35-24s21.9,10.76,19.85,24-14.29,24-27.36,24S446.88,479.47,449,466.2Z"/><path class="cls-8" d="M469.1,457.8l.3-1.89h10.15l-.24,1.53a27.15,27.15,0,0,0-3.64,4.31,32,32,0,0,0-3.14,5.54,23.06,23.06,0,0,0-1.43,4.39h-2a22.3,22.3,0,0,1,1.44-4.56,29.35,29.35,0,0,1,2.8-5.15,28.07,28.07,0,0,1,3.42-4.17Z"/><path class="cls-8" d="M463.49,478.09l.61-3.94h1.46a4.06,4.06,0,0,1,.59,0,.92.92,0,0,1,.45.19.84.84,0,0,1,.25.37,1.22,1.22,0,0,1,0,.54,1.39,1.39,0,0,1-.45.85,1.69,1.69,0,0,1-1.19.35h-1l-.25,1.6Zm.83-2.07h1a1.24,1.24,0,0,0,.74-.18.82.82,0,0,0,.29-.53.67.67,0,0,0-.06-.43.49.49,0,0,0-.28-.23,2.49,2.49,0,0,0-.48,0h-1Z"/><path class="cls-8" d="M470.09,477.67a2.44,2.44,0,0,0,.6.36l-.21.36a2.38,2.38,0,0,1-.75-.48,2.14,2.14,0,0,1-1,.25,1.62,1.62,0,0,1-.91-.26,1.36,1.36,0,0,1-.55-.73,2.27,2.27,0,0,1-.06-1.05,2.76,2.76,0,0,1,.39-1.06,2.09,2.09,0,0,1,1.78-1,1.63,1.63,0,0,1,.92.26,1.44,1.44,0,0,1,.55.73,2.27,2.27,0,0,1,.06,1.05,3,3,0,0,1-.28.87A2.26,2.26,0,0,1,470.09,477.67Zm-1-.67a1.55,1.55,0,0,1,.67.38,2.23,2.23,0,0,0,.62-2.1,1,1,0,0,0-.38-.55,1.1,1.1,0,0,0-.66-.2,1.48,1.48,0,0,0-1,.4,2,2,0,0,0-.57,1.19,1.55,1.55,0,0,0,.19,1.18,1.07,1.07,0,0,0,.89.41,1.44,1.44,0,0,0,.54-.1,1.29,1.29,0,0,0-.47-.23Z"/><path class="cls-8" d="M471.31,478.09l.61-3.94h1.72a2.13,2.13,0,0,1,.77.11.67.67,0,0,1,.37.37,1.09,1.09,0,0,1,.07.6,1.19,1.19,0,0,1-.38.7,1.59,1.59,0,0,1-.88.37,1,1,0,0,1,.28.19,2.1,2.1,0,0,1,.34.53l.51,1.07h-.65l-.38-.82a4,4,0,0,0-.29-.54,1.1,1.1,0,0,0-.21-.27.72.72,0,0,0-.22-.1l-.28,0h-.6l-.27,1.75Zm.85-2.2h1.1a1.7,1.7,0,0,0,.56-.07.71.71,0,0,0,.34-.24.74.74,0,0,0,.16-.35.5.5,0,0,0-.13-.46.8.8,0,0,0-.6-.18h-1.22Z"/><path class="cls-8" d="M475.23,476.82l.49,0a1,1,0,0,0,.08.49.73.73,0,0,0,.34.3,1.34,1.34,0,0,0,.58.12,1.51,1.51,0,0,0,.53-.09.91.91,0,0,0,.37-.24.71.71,0,0,0,.16-.34.49.49,0,0,0,0-.32.66.66,0,0,0-.31-.24c-.1,0-.32-.1-.66-.19a3,3,0,0,1-.71-.24.85.85,0,0,1-.36-.37.8.8,0,0,1-.06-.49,1.28,1.28,0,0,1,.25-.56,1.38,1.38,0,0,1,.55-.39,2,2,0,0,1,.73-.13,1.66,1.66,0,0,1,.74.14.88.88,0,0,1,.44.41,1.06,1.06,0,0,1,.09.62l-.49,0a.69.69,0,0,0-.18-.56.92.92,0,0,0-.65-.19,1.15,1.15,0,0,0-.7.17.63.63,0,0,0-.28.42.37.37,0,0,0,.1.34,1.57,1.57,0,0,0,.73.29,4,4,0,0,1,.81.25.91.91,0,0,1,.44.4.87.87,0,0,1,.07.56,1.22,1.22,0,0,1-.27.59,1.31,1.31,0,0,1-.57.43,2,2,0,0,1-.77.16,2.09,2.09,0,0,1-.86-.16,1,1,0,0,1-.48-.47A1.19,1.19,0,0,1,475.23,476.82Z"/><path class="cls-8" d="M533.2,463a3,3,0,0,1-1.59-1.28,3.12,3.12,0,0,1-.28-2,4.63,4.63,0,0,1,1.67-2.93,5.13,5.13,0,0,1,3.45-1.19,3.92,3.92,0,0,1,3.12,1.21,3.45,3.45,0,0,1,.81,3,3.77,3.77,0,0,1-.86,1.94,4.47,4.47,0,0,1-1.93,1.27,3.43,3.43,0,0,1,2,1.54,3.9,3.9,0,0,1,.37,2.55,5.48,5.48,0,0,1-1.93,3.45,5.89,5.89,0,0,1-4,1.39,4.44,4.44,0,0,1-3.54-1.4,4.13,4.13,0,0,1-.9-3.49,5,5,0,0,1,1.17-2.61A4.67,4.67,0,0,1,533.2,463Zm-1.62,4.05a3.29,3.29,0,0,0,.15,1.62,2.24,2.24,0,0,0,1,1.22,3,3,0,0,0,1.59.43,3.54,3.54,0,0,0,2.42-.91,3.65,3.65,0,0,0,1.24-2.3,2.83,2.83,0,0,0-.57-2.34,2.7,2.7,0,0,0-2.18-.92,3.48,3.48,0,0,0-2.39.91A3.7,3.7,0,0,0,531.58,467.07Zm1.73-7.38a2.21,2.21,0,0,0,.44,1.85,2.16,2.16,0,0,0,1.75.72,2.81,2.81,0,0,0,1.93-.71,2.85,2.85,0,0,0,1-1.75,2.18,2.18,0,0,0-.47-1.81,2.11,2.11,0,0,0-1.71-.74,2.86,2.86,0,0,0-1.93.72A2.75,2.75,0,0,0,533.31,459.69Z"/><path class="cls-8" d="M522,519.3a15.9,15.9,0,0,1,1.26-4.56,7,7,0,0,1,2.11-2.66,4.9,4.9,0,0,1,3-.94,4.09,4.09,0,0,1,2.14.52,3.4,3.4,0,0,1,1.36,1.49,7.06,7.06,0,0,1,.63,2.38,16.53,16.53,0,0,1-.21,3.77,16.2,16.2,0,0,1-1.25,4.54,7,7,0,0,1-2.11,2.67,4.9,4.9,0,0,1-3,.94,3.67,3.67,0,0,1-3.34-1.65Q521.27,523.81,522,519.3Zm2,0q-.6,3.93.12,5.24a2.23,2.23,0,0,0,2.05,1.3,3.15,3.15,0,0,0,2.44-1.31c.74-.87,1.3-2.61,1.7-5.23s.35-4.38-.13-5.24a2.27,2.27,0,0,0-2.07-1.3,2.91,2.91,0,0,0-2.3,1.15C524.94,514.88,524.33,516.68,523.94,519.3Z"/><path class="cls-8" d="M528.9,478.09l.52-3.47h-1.27l.07-.47h3.06l-.07.47h-1.28l-.52,3.47Z"/><path class="cls-8" d="M534.35,474.15h.51l-.34,2.28a2.84,2.84,0,0,1-.28.94,1.46,1.46,0,0,1-.56.57,1.88,1.88,0,0,1-.93.22,1.78,1.78,0,0,1-.87-.19.94.94,0,0,1-.41-.56,2.65,2.65,0,0,1,0-1l.35-2.28h.51l-.34,2.27a2,2,0,0,0,0,.76.56.56,0,0,0,.26.37,1,1,0,0,0,.54.14,1.23,1.23,0,0,0,.85-.26,1.85,1.85,0,0,0,.39-1Z"/><path class="cls-8" d="M536.23,478.09l-.91-3.94h.55l.58,2.86c0,.23.08.45.11.65.09-.22.19-.43.3-.65l1.47-2.86h.53l-2.11,3.94Z"/><path class="cls-8" d="M591.41,468l1.88-.17a2.78,2.78,0,0,0,.62,1.93,2.12,2.12,0,0,0,1.61.6,3.16,3.16,0,0,0,1.62-.42,4,4,0,0,0,1.26-1.1,7.68,7.68,0,0,0,1-1.87,10.78,10.78,0,0,0,.64-2.4c0-.09,0-.22,0-.39a5.45,5.45,0,0,1-1.8,1.52,4.66,4.66,0,0,1-2.25.58,3.73,3.73,0,0,1-3.09-1.44,4.74,4.74,0,0,1-.8-3.79,6.32,6.32,0,0,1,2-3.91,5.37,5.37,0,0,1,3.74-1.48,4.38,4.38,0,0,1,2.67.84,4.25,4.25,0,0,1,1.59,2.39,11.58,11.58,0,0,1,0,4.49,16,16,0,0,1-1.35,4.88,7,7,0,0,1-2.34,2.76,5.52,5.52,0,0,1-3.16.95,3.53,3.53,0,0,1-3.84-4Zm8.9-7.05a3.53,3.53,0,0,0-.5-2.68,2.34,2.34,0,0,0-2-1,3.4,3.4,0,0,0-2.39,1.07,4.59,4.59,0,0,0-1.35,2.77,3.09,3.09,0,0,0,.55,2.48,2.55,2.55,0,0,0,2.09.95,3.3,3.3,0,0,0,2.34-.95A4.43,4.43,0,0,0,600.31,460.93Z"/><path class="cls-8" d="M587.89,478.09l-.46-3.94H588l.22,2.58c0,.27,0,.54.05.81l.28-.73,1.12-2.66h.61l.27,2a9.78,9.78,0,0,1,.1,1.39c.09-.25.19-.54.32-.86l1-2.53h.51l-1.63,3.94h-.49l-.38-3c0-.25,0-.4-.06-.46a4.45,4.45,0,0,1-.18.46l-1.25,3Z"/><path class="cls-8" d="M591.92,478.09l1.79-2-1.05-1.89h.61l.56,1a3,3,0,0,1,.24.49,4.88,4.88,0,0,1,.37-.45l.93-1.05h.56L594.3,476l1.17,2.08h-.63l-.78-1.41-.13-.26-.22.3-1.17,1.37Z"/><path class="cls-8" d="M597,478.09l.24-1.67-1.17-2.27h.63l.59,1.19c.11.22.21.44.3.67.14-.21.32-.44.52-.7l.92-1.16h.59l-1.87,2.27-.24,1.67Z"/><path class="cls-8" d="M599.22,478.09l.07-.48,2.34-2.52c.17-.18.32-.34.47-.47h-2.16l.07-.47h2.77l-.07.47-2.56,2.73-.28.27h2.47l-.06.47Z"/><path class="cls-8" d="M607.59,357.88l1.94-.26a3.87,3.87,0,0,0,.77,2.41,2.38,2.38,0,0,0,1.82.73,3.5,3.5,0,0,0,2.41-1,3.86,3.86,0,0,0,1.27-2.37,2.7,2.7,0,0,0-.54-2.23,2.52,2.52,0,0,0-2.06-.88,5.46,5.46,0,0,0-1.37.22l.46-1.72.3,0a4.31,4.31,0,0,0,2.29-.66,2.65,2.65,0,0,0,1.26-2,2.07,2.07,0,0,0-2.18-2.5,3,3,0,0,0-2,.72,4.37,4.37,0,0,0-1.26,2.16l-1.85-.35a6.14,6.14,0,0,1,2-3.06,5.14,5.14,0,0,1,3.24-1.08,4.52,4.52,0,0,1,2.25.56,3.23,3.23,0,0,1,1.42,1.53,3.79,3.79,0,0,1,.27,2.06,4,4,0,0,1-.81,1.89,4.69,4.69,0,0,1-1.79,1.35,3,3,0,0,1,1.94,1.35,3.85,3.85,0,0,1,.39,2.58,5.6,5.6,0,0,1-2,3.55,5.84,5.84,0,0,1-4,1.45,4.17,4.17,0,0,1-3.22-1.25A4.26,4.26,0,0,1,607.59,357.88Z"/><path class="cls-8" d="M606,368.51l.57-3.93h1.31a3,3,0,0,1,.68.05,1.14,1.14,0,0,1,.52.28,1.31,1.31,0,0,1,.35.68,2.38,2.38,0,0,1,0,.93,3,3,0,0,1-.22.8,2.2,2.2,0,0,1-.34.57,1.89,1.89,0,0,1-.4.36,1.72,1.72,0,0,1-.48.19,2.48,2.48,0,0,1-.63.07Zm.57-.46h.82A2,2,0,0,0,608,368a.88.88,0,0,0,.37-.2,1.48,1.48,0,0,0,.35-.5,2.54,2.54,0,0,0,.21-.76,1.77,1.77,0,0,0-.06-.95.82.82,0,0,0-.42-.44,1.86,1.86,0,0,0-.64-.08H607Z"/><path class="cls-8" d="M609.87,368.51l.57-3.93h2.76l-.06.46h-2.26l-.18,1.2h2.12l-.07.47h-2.11l-.2,1.34h2.35l-.06.46Z"/><path class="cls-8" d="M613.45,368.51l.57-3.93h2.58l-.07.46h-2.07l-.18,1.22h1.8l-.07.46h-1.79l-.26,1.79Z"/><path class="cls-29" d="M587.92,683.54H420.81c-7.27,0-12.22-5.91-11.06-13.2l3.33-20.77c1.17-7.29,8-13.2,15.22-13.2H594.58c7.24,0,12.28,5.91,11.26,13.2l-2.91,20.77A15.67,15.67,0,0,1,587.92,683.54Z"/><polygon class="cls-30" points="441 668.75 433.32 662.57 442.94 656.39 450.83 662.57 441 668.75"/><polygon class="cls-30" points="441.51 665.48 433.83 659.3 443.45 653.12 451.34 659.3 441.51 665.48"/><polygon class="cls-30" points="442 662.38 434.32 656.2 443.94 650.02 451.83 656.2 442 662.38"/><path class="cls-31" d="M498.29,667.49H480.85a.48.48,0,0,1-.48-.56l1.8-11.71a.66.66,0,0,1,.64-.56h17.42a.46.46,0,0,1,.47.56l-1.77,11.71A.66.66,0,0,1,498.29,667.49Z"/><path class="cls-32" d="M498.29,667.49H480.85a.48.48,0,0,1-.48-.56l1.8-11.71a.66.66,0,0,1,.64-.56h17.42a.46.46,0,0,1,.47.56l-1.77,11.71A.66.66,0,0,1,498.29,667.49Z"/><polygon class="cls-31" points="484.56 654.24 498.12 649.37 500.14 654.24 484.56 654.24"/><path class="cls-8" d="M497.86,649.88l1.64,4H486.87l11-4m.52-1-16.13,5.81h18.54l-2.41-5.81Z"/><path class="cls-33" d="M494.5,663.51h5.92l.75-5h-5.92a3,3,0,0,0-2.86,2.5h0A2.09,2.09,0,0,0,494.5,663.51Z"/><path class="cls-30" d="M541.63,654.06a.71.71,0,0,0-.73-.77h-8.56a1,1,0,0,0-1,.77l-3.56,14.65a.71.71,0,0,0,.7.93h11.39a1,1,0,0,0,1-.93Z"/><path class="cls-34" d="M539.67,654.56l.33-2.26a2.85,2.85,0,0,0-2.88-3.39h0a4.06,4.06,0,0,0-3.87,3.39l-.33,2.26"/><line class="cls-30" x1="568.97" y1="663.99" x2="581.2" y2="663.99"/><polyline class="cls-35" points="577.67 667.13 581.5 663.99 578.57 660.86"/><line class="cls-30" x1="582.41" y1="657.59" x2="570.19" y2="657.59"/><polyline class="cls-35" points="572.82 660.73 569.89 657.59 573.72 654.46"/></g><g id="lady"><g id="shoes"><path class="cls-36" d="M308.41,849.11S310.47,875,351,880.8a4.76,4.76,0,0,1,4,3.81L357.34,897H268.53l6-47.59Z"/><polygon class="cls-8" points="356.32 891.53 268.81 891.53 268.53 896.96 357.34 896.96 356.32 891.53"/><line class="cls-37" x1="329.81" y1="873.38" x2="325.51" y2="880.16"/><line class="cls-37" x1="324.25" y1="869.98" x2="319.95" y2="876.77"/><line class="cls-37" x1="318.89" y1="866.27" x2="314.59" y2="873.06"/><line class="cls-37" x1="313.73" y1="862.36" x2="309.43" y2="869.15"/><path class="cls-16" d="M273.07,860.71l38.51-2.38a61.05,61.05,0,0,1-3.17-9.22H274.5Z"/><polygon class="cls-38" points="195.57 850.91 162.7 850.91 147.51 891.53 196.95 891.53 195.57 850.91"/><polygon class="cls-8" points="197.13 896.96 196.95 891.53 147.51 891.53 145.48 896.96 197.13 896.96"/><polygon class="cls-16" points="158.41 862.38 195.94 862.38 195.57 850.91 162.7 850.91 158.41 862.38"/></g><g id="pants"><path class="cls-39" d="M346.09,410.69s18,74.74,3.91,221.35-23.48,221.74-23.48,221.74H251.79l32.47-212.35-12.52-57.91L222.18,853.78h-76.7l50.61-237.39,11-123.65s-6.26-51.66,25-80.35Z"/><path class="cls-16" d="M328,411l-3.51,1.43s10.73,33.35,27.76,40.69c-2.69-28.18-6.11-42.39-6.11-42.39Z"/><path class="cls-16" d="M271.74,583.52l-10.56-58.18s-13.11-18.58-9.39-46c0,0-6.66,42.84,1.17,58.24S257,663.75,257,663.75Z"/><path class="cls-40" d="M338.32,415.5s13,141.15,0,230.37-30.19,195.65-30.19,195.65"/><line class="cls-40" x1="324.44" y1="841.52" x2="257" y2="841.52"/><line class="cls-40" x1="218.13" y1="841.52" x2="148.28" y2="841.52"/></g><g id="body"><path class="cls-41" d="M381.05,306.21l7.95-21s-2-15.13-.85-18.71,6.53-24.85,7.37-25.83,6.92,1.57,7.11,6c0,0,6.92-8.54,8.68-10.76s13-11.48,14.08-11.54,3.79,2.8,2.22,4.82-10,12.85-10,12.85-6.58,11.28-6.19,11.35,9.52-11,10-11.35,12-16.43,13.44-16.57,4,1,3.26,3.66a14.61,14.61,0,0,1-1.5,3.71s3.78,1.57,2.8,4.18-3.39,7.17-3.39,7.17,1.43,1-.2,5.35-14.28,34.24-19.5,37l-10.95,44.61Z"/><path class="cls-42" d="M271,234.47s52.69,12.53,61,20.61,38.35,75.13,38.35,75.13l11.48-30.78s31,21.65,36.78,39.39c0,0-22.95,93.91-51.65,93.92-17.48,0-27.13-20.35-27.13-20.35H232.09l-31.3-85.05L180.7,337.52s-10.7-55.31,3.39-71S232.82,223.92,271,234.47Z"/><path class="cls-16" d="M299.55,242.1h0c-14.67-4.32-28.59-7.63-28.59-7.63-38.14-10.55-72.78,16.44-86.87,32.09-2.89,3.21-4.74,8.1-5.85,13.83,9.12,7.53,26,16.21,55.75,16.43C286.62,297.21,299.55,242.1,299.55,242.1Z"/><path class="cls-31" d="M232.09,412.39l-31.3-85.05-100.18,44a8.62,8.62,0,0,0-4.51,11.16l47.37,115.82a8.62,8.62,0,0,0,11.52,4.6l51.56-23.27C206.84,462.39,210.67,432,232.09,412.39Z"/><line class="cls-43" x1="119.33" y1="391.12" x2="186.42" y2="361.67"/><line class="cls-43" x1="123.58" y1="403.2" x2="190.66" y2="373.76"/><path class="cls-8" d="M151.78,472.61l2.2,4.49,56.72-27.75c.6-2.18,1.27-4.37,2-6.56Z"/><path class="cls-16" d="M339.83,412.39s-27.91-55.83-33.91-82.7l18.52,82.7Z"/><path class="cls-16" d="M370.35,330.21s8.61,24.4,11.22,26.48S383.65,350.17,370.35,330.21Z"/><polygon class="cls-16" points="200.78 327.34 195.14 312.48 195.01 329.88 200.78 327.34"/><path class="cls-16" d="M232.09,412.39l-31.3-85.05,20.08,88.16s-27.72,39.58-28.24,70.41h0l13.92-6.29C206.84,462.39,210.67,432,232.09,412.39Z"/></g><g id="head"><path class="cls-44" d="M303.44,121.91s5.28,66.91-15.07,90.78S220.29,107.24,303.44,121.91Z"/><path class="cls-45" d="M273.83,144.74c-22-11.55-43.24-9.82-60.95.67h0a1,1,0,0,0-1.38-.34,107.91,107.91,0,0,0-25.22,23.44,105.82,105.82,0,0,0-23,71.23,1,1,0,0,0,1,.95h.05a1,1,0,0,0,.95-1A103.42,103.42,0,0,1,185,173.48a115.55,115.55,0,0,0-12.95,29.17c-14.35,49.3,11.74,87.13,59.22,87.65s66.26-27.39,72.74-67.83S273.83,144.74,273.83,144.74Z"/><path class="cls-46" d="M277.37,148.67s.44-4.85,5.33-3.61,12.19,9,12.19,9,8.24-5.85,9-22.28a21.34,21.34,0,0,0,4.41-19.26c-2.84-11.84-16.24-33.91-56.15-31.83s-55,39.93-40.68,64.38S277.37,148.67,277.37,148.67Z"/><path class="cls-47" d="M211.5,145.07s26.62-12,65.87,3.6c0,0-5.24-17.11-35.76-19.06S200.71,135.91,211.5,145.07Z"/></g></g></g></g></g></svg>